<svg xmlns="http://www.w3.org/2000/svg" width="15" height="15" viewBox="0 0 39 39" fill="none">
	<mask id="mask0_113_3650" style="mask-type:luminance" maskUnits="userSpaceOnUse" x="0" y="0" width="39" height="39">
		<path d="M0.703125 0.828125H38.3333V38.8281H0.703125V0.828125Z" fill="white" />
	</mask>
	<g mask="url(#mask0_113_3650)">
		<path fill-rule="evenodd" clip-rule="evenodd" d="M2.86458 0.828125C1.71354 0.828125 0.78125 1.76562 0.78125 2.91146V21.6562C0.78125 22.8125 1.71354 23.7396 2.86458 23.7396H17.9688V27.2604L9.55208 35.6771C8.94271 36.2865 8.94271 37.276 9.55208 37.8854C10.1615 38.4948 11.151 38.4948 11.7604 37.8854L17.9688 31.6823V36.7604C17.9688 37.625 18.6667 38.3229 19.5312 38.3229C20.3906 38.3229 21.0938 37.625 21.0938 36.7604V31.6823L27.2969 37.8854C27.9063 38.4948 28.8958 38.4948 29.5052 37.8854C30.1146 37.276 30.1146 36.2865 29.5052 35.6771L21.0938 27.2604V23.7396H36.1927C37.3438 23.7396 38.276 22.8073 38.276 21.6562V2.91146C38.276 1.76042 37.3385 0.828125 36.1927 0.828125H2.86458ZM3.90625 3.95312V20.6146H35.151V3.95312H3.90625Z" fill="#690061" />
	</g>
</svg>
