<svg width="417" height="246" viewBox="0 0 417 246" fill="none" xmlns="http://www.w3.org/2000/svg">
<mask id="mask0_113_676" style="mask-type:luminance" maskUnits="userSpaceOnUse" x="0" y="0" width="417" height="246">
<path d="M0 0.333313H416.359V245.667H0V0.333313Z" fill="white"/>
</mask>
<g mask="url(#mask0_113_676)">
<path d="M416.25 155.745L381.771 239.969V244.943H175.807V240.599H262.161L295.364 152.766C295.776 151.682 296.812 150.974 297.963 150.995L414.265 152.745C415.802 152.771 416.833 154.333 416.25 155.745ZM67.0207 15.974C68.1665 15.974 69.0988 15.0365 69.0988 13.8959C69.0988 12.7552 68.1665 11.8177 67.0207 11.8177C65.8801 11.8177 64.9478 12.7552 64.9478 13.8959C64.9478 15.0365 65.8801 15.974 67.0207 15.974ZM85.2551 14.5261C86.3957 14.5261 87.328 13.5886 87.328 12.4479C87.328 11.3073 86.3957 10.3698 85.2551 10.3698C84.1092 10.3698 83.1769 11.3073 83.1769 12.4479C83.1769 13.599 84.1092 14.5261 85.2551 14.5261ZM55.5519 11.9063C55.5519 11.875 55.5623 11.8281 55.5623 11.7917L42.2498 8.37502L42.5207 7.31773L55.6405 10.6875C56.2446 5.7344 60.4738 1.88544 65.5832 1.88544C70.3019 1.88544 74.2603 5.16669 75.3176 9.56773C75.9373 9.33335 77.3488 8.9219 78.7394 9.46356C79.3228 4.49481 83.5623 0.619812 88.6821 0.619812C94.2082 0.619812 98.703 5.1146 98.703 10.6406C98.703 16.1719 94.2082 20.6667 88.6821 20.6667C85.7082 20.6667 83.0363 19.3542 81.1978 17.2813C81.6144 19.1667 82.0884 21.4219 82.2707 22.7396C82.4009 23.6406 82.0519 24.1979 81.7394 24.5209C81.0051 25.2604 79.7238 25.4115 78.8332 25.4115C78.3384 25.4115 77.9686 25.3646 77.8644 25.3594L78.0051 24.2761C78.5728 24.3438 80.3228 24.4063 80.9634 23.7604C81.0936 23.6302 81.2603 23.4011 81.1873 22.9063C80.8748 20.7344 79.7394 15.7865 79.453 14.5677C78.9373 13.3646 78.6509 12.0365 78.6509 10.6406C78.6509 10.4063 78.6665 10.1719 78.6873 9.94273L78.4321 10.5104C77.1405 9.93752 75.6821 10.5834 75.4998 10.6667C75.5519 11.0781 75.5884 11.4896 75.5884 11.9063C75.5884 17.4375 71.0988 21.9271 65.5676 21.9271C60.0519 21.9271 55.5519 17.4375 55.5519 11.9063ZM79.7603 10.6406C79.7603 11.8438 79.9998 13 80.4373 14.0469L80.4634 14.0365C80.4738 14.0521 80.4842 14.125 80.5103 14.2031C81.8853 17.3594 85.0363 19.5677 88.6873 19.5677C93.6196 19.5677 97.6196 15.5625 97.6196 10.6354C97.6196 5.70835 93.6196 1.70315 88.6873 1.70315C83.7603 1.71877 79.7603 5.72398 79.7603 10.6406ZM56.6509 11.9063C56.6509 16.8334 60.6561 20.8386 65.5832 20.8386C70.5103 20.8386 74.5155 16.8334 74.5155 11.9063C74.5155 6.97919 70.5103 2.97398 65.5832 2.97398C60.6561 2.97398 56.6509 6.9896 56.6509 11.9063ZM78.354 28.9688C73.1457 28.4636 71.4478 25.5729 71.3748 25.4531L70.4269 25.9844C70.5051 26.125 72.4373 29.4896 78.2498 30.0573L78.354 28.9688ZM93.104 93.5834L76.854 93.7656L76.8644 94.8542L93.1092 94.6719L93.104 93.5834ZM95.9478 97.5625C89.6926 98.1354 80.2134 98.9896 79.7498 99V100.089C80.2967 100.089 94.4373 98.7917 96.0415 98.6406L95.9478 97.5625ZM83.6196 104.427L83.8228 105.5L98.0832 102.849L97.8853 101.776L83.6196 104.427ZM168.734 110.87L154.474 123.682L155.208 124.495L169.469 111.682L168.734 110.87ZM169.63 117.01L159.88 126.042L160.625 126.844L170.375 117.813L169.63 117.01ZM176.75 124.12L175.12 122.026L170.349 126.396L171.088 127.198L174.989 123.63L175.885 124.792C176.177 125.156 176.26 125.583 176.156 126.083C175.885 127.339 174.396 128.813 172.276 129.927C169.109 131.594 165.114 130.208 165.073 130.198L164.703 131.229C164.818 131.271 166.484 131.849 168.594 131.849C169.911 131.849 171.396 131.62 172.781 130.891C175.26 129.589 176.87 127.917 177.219 126.302C177.396 125.5 177.239 124.74 176.75 124.12ZM42.0155 244.13H43.104V224.281H42.0155V244.13ZM1.27588 148.917L1.9113 149.807L20.6821 136.453L20.0467 135.563L1.27588 148.917ZM69.9634 42.5729C72.9373 44.3021 76.729 45.6459 79.7603 46.5625L78.4842 41.0677C75.0728 41.3906 72.1092 41.4479 70.2498 41.4584C69.6301 41.4479 69.4321 42.2604 69.9634 42.5729ZM42.5311 18.7031L42.3644 18.1615C42.0623 17.1823 41.5207 16.5365 40.7603 16.2448C39.3905 15.7031 37.8488 16.5469 37.7863 16.5834L38.3175 17.5313C38.328 17.5261 39.479 16.8959 40.3592 17.2552C40.8019 17.4271 41.1196 17.8281 41.3175 18.4844L41.4842 19.0261C42.2342 21.4323 42.7759 23.2136 44.7915 23.2136C44.9009 23.2136 45.0155 23.2031 45.1405 23.1927L45.0415 22.1042C43.6925 22.2188 43.3592 21.3906 42.5311 18.7031ZM90.0259 80.1927L86.2811 89.599L87.2915 90L91.0363 80.5938C92.5207 76.8698 96.0676 74.4531 100.083 74.4531H189.859V73.3646H100.083C95.6144 73.3646 91.6717 76.0417 90.0259 80.1927ZM56.4946 166.495L57.505 166.901L75.0103 123.224L73.9998 122.813L56.4946 166.495ZM104.583 84.2917C105.255 85.0625 105.531 86.0834 105.385 87.1615C105.078 89.3177 103.083 91.0625 100.937 91.0625C99.8644 91.0625 98.9113 90.6459 98.2498 89.8854C97.578 89.1198 97.2967 88.099 97.4478 87.0156C97.7498 84.8594 99.7498 83.1146 101.896 83.1146C102.958 83.1146 103.917 83.5365 104.583 84.2917ZM103.755 85.0104C103.297 84.4844 102.635 84.2084 101.896 84.2084C100.265 84.2084 98.7551 85.5313 98.5259 87.1615C98.4217 87.9323 98.6144 88.6354 99.078 89.1719C99.5311 89.6927 100.193 89.974 100.937 89.974C102.568 89.974 104.078 88.6459 104.302 87.0156C104.406 86.25 104.213 85.5417 103.755 85.0104ZM254.979 122.849L222.489 114.359L222.213 115.417L254.703 123.901L254.979 122.849ZM246.521 138.776L256.448 130.651L255.755 129.807L245.833 137.927L246.521 138.776ZM236.099 136.521L219.672 119.917L218.896 120.682L235.323 137.292L236.099 136.521ZM234.937 144.661L234.667 143.604L216.437 148.297L216.708 149.354L234.937 144.661ZM210.609 144.031L214.036 121.109L212.958 120.943L209.531 143.87L210.609 144.031ZM211.114 119.609L210.104 119.193L195.302 154.568L196.312 154.99L211.114 119.609ZM211.396 186.021L196.052 167.427L195.208 168.125L210.547 186.719L211.396 186.021ZM210.437 157.047L215.312 183.042L216.385 182.839L211.51 156.844L210.437 157.047ZM223.172 187.385L246.818 173.12L246.25 172.188L222.604 186.448L223.172 187.385ZM245.474 164.38L216.411 152.833L216.01 153.844L245.073 165.396L245.474 164.38ZM248.682 161.104L244.172 147.75L243.135 148.099L247.646 161.453L248.682 161.104ZM255.198 162.281L260.797 132.318L259.724 132.12L254.125 162.078L255.198 162.281Z" fill="#690061"/>
</g>
</svg>
