<svg width="15" height="15" viewBox="0 0 15 15" fill="none" xmlns="http://www.w3.org/2000/svg">
<mask id="mask0_113_5993" style="mask-type:luminance" maskUnits="userSpaceOnUse" x="0" y="0" width="15" height="15">
<path d="M0 0.666748H14.6667V14.8126H0V0.666748Z" fill="white"/>
</mask>
<g mask="url(#mask0_113_5993)">
<path d="M6.97933 0.765625C6.53141 0.765625 6.09391 0.8125 5.65641 0.895833C5.21891 0.984375 4.79704 1.10937 4.38558 1.28125C3.97412 1.45312 3.5887 1.66146 3.21891 1.90625C2.84912 2.15625 2.50537 2.43229 2.19287 2.75C1.87516 3.0625 1.59391 3.40625 1.34912 3.77604C1.10433 4.14583 0.895996 4.53646 0.724121 4.94271C0.552245 5.35417 0.427246 5.78125 0.338704 6.21354C0.250163 6.65104 0.208496 7.08854 0.208496 7.53646C0.208496 7.97917 0.250163 8.42188 0.338704 8.85417C0.427246 9.29167 0.552245 9.71354 0.724121 10.125C0.895996 10.5365 1.10433 10.9271 1.34912 11.2969C1.59391 11.6667 1.87516 12.0052 2.19287 12.3229C2.50537 12.6354 2.84912 12.9167 3.21891 13.1615C3.5887 13.4115 3.97412 13.6198 4.38558 13.7865C4.79704 13.9583 5.21891 14.0885 5.65641 14.1719C6.09391 14.2604 6.53141 14.3021 6.97933 14.3021C7.42204 14.3021 7.86475 14.2604 8.29704 14.1719C8.73454 14.0885 9.15641 13.9583 9.56787 13.7865C9.97933 13.6198 10.37 13.4115 10.7397 13.1615C11.1095 12.9167 11.4481 12.6354 11.7658 12.3229C12.0783 12.0052 12.3595 11.6667 12.6043 11.2969C12.8543 10.9271 13.0627 10.5365 13.2293 10.125C13.4012 9.71354 13.5314 9.29167 13.6147 8.85417C13.7033 8.42188 13.745 7.97917 13.745 7.53646C13.745 7.08854 13.7033 6.65104 13.6147 6.21354C13.5314 5.78125 13.4012 5.35417 13.2293 4.94271C13.0627 4.53646 12.8543 4.14583 12.6043 3.77604C12.3595 3.40625 12.0783 3.0625 11.7658 2.75C11.4481 2.43229 11.1095 2.15625 10.7397 1.90625C10.37 1.66146 9.97933 1.45312 9.56787 1.28125C9.15641 1.10937 8.73454 0.984375 8.29704 0.895833C7.86475 0.8125 7.42204 0.765625 6.97933 0.765625Z" fill="#88AE45"/>
</g>
</svg>
