<svg width="228" height="242" viewBox="0 0 228 242" fill="none" xmlns="http://www.w3.org/2000/svg">
<mask id="mask0_113_1677" style="mask-type:luminance" maskUnits="userSpaceOnUse" x="0" y="0" width="228" height="242">
<path d="M0.380371 0.333313H228V241.203H0.380371V0.333313Z" fill="white"/>
</mask>
<g mask="url(#mask0_113_1677)">
<path d="M72.4323 424.625C72.3385 425.583 72.2552 426.651 72.2135 427.865C71.9271 435.266 69.9323 444.948 69.9323 444.948H0.453125C7.85417 426.443 32.625 425.016 35.7656 420.75C36.7969 419.339 37.7031 417.745 38.4583 416.245C42.6979 418.87 49.5052 422.906 55.4115 425.589C61.4427 428.328 68.2969 426.37 72.4323 424.625ZM191.51 382.016C186.672 386.854 183.255 382.016 183.255 382.016C183.255 382.016 184.396 387.141 181.833 397.677C179.271 408.214 169.016 431.562 183.255 429.281C197.495 427.005 211.729 405.078 216.854 391.979C221.974 378.88 209.448 363.792 209.448 363.792C209.448 363.792 196.354 377.177 191.51 382.016ZM32.9062 26.4375C32.5677 25.5312 32.6458 24.5208 33.1198 23.6771C33.599 22.8333 34.4167 22.2448 35.3698 22.0573L46.5729 19.9115L45.2292 15.849C44.776 14.5677 45.5573 13.1719 46.8906 12.8958L85.3698 4.85416C86.4688 4.62499 87.5729 5.24478 87.9479 6.30728L92.9219 20.3073L93.1979 21.0729C88.8698 27.4531 83.5729 35.9896 80.8281 40.4792L80.6458 40.5104L61.5781 44.2865C61.5781 44.2865 61.1719 43.224 60.526 41.5625L62.5208 47.0625C62.849 47.9583 62.7656 48.9479 62.3073 49.776C61.849 50.6042 61.0573 51.1979 60.125 51.401L46.3125 54.401C46.0833 54.4531 45.849 54.474 45.625 54.474C44.276 54.474 43.0156 53.6354 42.5312 52.3333L32.9062 26.4375ZM33.5104 26.2135L43.1406 52.1198C43.5938 53.3437 44.901 54.0625 46.1823 53.7812L59.9948 50.7812C60.7396 50.6198 61.3802 50.1406 61.75 49.4792C62.1198 48.8073 62.1771 48.0156 61.9167 47.3021L52.6198 21.6875C52.1771 20.4583 50.9219 19.75 49.6406 19.9948L35.4948 22.7031C34.7292 22.849 34.0729 23.3229 33.6875 24C33.3073 24.6771 33.2396 25.4792 33.5104 26.2135ZM48.5729 28.2292L48.1458 27.2344L38.0365 29.3698L38.3229 30.2917L48.5729 28.2292ZM39.0365 32.4323L49.2812 30.3698L48.8542 29.3698L38.7448 31.5052L39.0365 32.4323ZM128.297 14.2552C128.365 14.2552 128.427 14.25 128.495 14.2396L187.151 2.28124C187.677 2.17708 188.016 1.66145 187.906 1.13541C187.802 0.614578 187.286 0.270827 186.76 0.38541L128.109 12.3333C127.583 12.4375 127.245 12.9531 127.354 13.4792C127.443 13.9375 127.849 14.2552 128.297 14.2552ZM136.172 43.6406C136.26 44.1094 136.667 44.4375 137.13 44.4375C137.182 44.4375 137.245 44.4323 137.297 44.4219L210.76 31.3229C211.286 31.2292 211.635 30.724 211.542 30.1979C211.448 29.6719 210.948 29.3177 210.417 29.4167L136.958 42.5156C136.427 42.6042 136.078 43.1094 136.172 43.6406ZM125.922 72.6823C126.005 73.151 126.417 73.4792 126.875 73.4792C126.927 73.4792 126.99 73.474 127.047 73.4635L219.583 56.9479C220.115 56.8542 220.464 56.349 220.37 55.8229C220.271 55.2969 219.771 54.9479 219.245 55.0417L126.703 71.5573C126.182 71.651 125.828 72.151 125.922 72.6823ZM227.781 89.75C227.708 89.224 227.219 88.849 226.693 88.9167L107.385 104.865C106.859 104.932 106.484 105.422 106.552 105.953C106.62 106.443 107.031 106.792 107.51 106.792C107.557 106.792 107.599 106.786 107.641 106.781L226.943 90.8333C227.479 90.7708 227.854 90.2812 227.781 89.75ZM97.2188 17.1667L134.521 47.6354C134.703 47.7812 134.922 47.8542 135.135 47.8542C135.417 47.8542 135.693 47.7344 135.891 47.5C136.229 47.0833 136.167 46.474 135.75 46.1354L98.4479 15.6719C98.0312 15.3333 97.4167 15.3906 97.0833 15.8125C96.7448 16.2187 96.8021 16.8281 97.2188 17.1667ZM123.745 75.7552C124.026 75.7552 124.312 75.6302 124.5 75.3906C124.839 74.974 124.766 74.3646 124.349 74.0312L82.776 41C82.3542 40.6667 81.7448 40.7396 81.4115 41.1562C81.0781 41.5781 81.1458 42.1875 81.5677 42.5208L123.141 75.5469C123.318 75.6875 123.531 75.7552 123.745 75.7552ZM68.7865 63.4635C68.3542 63.151 67.7448 63.25 67.4323 63.6875C67.1198 64.1198 67.2188 64.724 67.651 65.0417L108.37 94.3646C108.542 94.4896 108.74 94.5521 108.938 94.5521C109.234 94.5521 109.536 94.4115 109.724 94.1458C110.036 93.7135 109.938 93.1094 109.505 92.7917L68.7865 63.4635ZM91.2031 111.25L53.3281 89.3281C52.8646 89.0573 52.2708 89.2187 52.0052 89.6823C51.7344 90.1458 51.8958 90.7396 52.3594 91.0052L90.2292 112.927C90.3854 113.021 90.5521 113.057 90.7135 113.057C91.0521 113.057 91.375 112.885 91.5573 112.573C91.8229 112.109 91.6667 111.516 91.2031 111.25Z" fill="#FF88A0"/>
</g>
</svg>
