<svg width="120" height="120" viewBox="0 0 120 120" fill="none" xmlns="http://www.w3.org/2000/svg">
<mask id="mask0_113_584" style="mask-type:luminance" maskUnits="userSpaceOnUse" x="0" y="0" width="120" height="120">
<path d="M0.796875 0.651001H119.797V119.651H0.796875V0.651001Z" fill="white"/>
</mask>
<g mask="url(#mask0_113_584)">
<path d="M60.2656 0.651001C27.4271 0.651001 0.796875 27.2812 0.796875 60.1198C0.796875 92.9635 27.4271 119.589 60.2656 119.589C93.1094 119.589 119.734 92.9635 119.734 60.1198C119.734 27.2812 93.1094 0.651001 60.2656 0.651001ZM88.5469 63.625L68.724 83.4479C67.7604 84.4166 66.4896 84.901 65.224 84.901C63.9531 84.901 62.6823 84.4166 61.7188 83.4479C59.7813 81.5104 59.7813 78.3802 61.7188 76.4427L73.0833 65.0781H35.4896C32.75 65.0781 30.5312 62.8645 30.5312 60.1198C30.5312 57.3802 32.75 55.1666 35.4896 55.1666H73.0833L61.7188 43.802C59.7813 41.8645 59.7813 38.7343 61.7188 36.7968C63.6563 34.8593 66.7865 34.8593 68.724 36.7968L88.5469 56.6198C90.4844 58.5573 90.4844 61.6875 88.5469 63.625Z" fill="#FF88A0"/>
</g>
</svg>
