<svg width="282" height="322" viewBox="0 0 282 322" fill="none" xmlns="http://www.w3.org/2000/svg">
<mask id="mask0_113_1662" style="mask-type:luminance" maskUnits="userSpaceOnUse" x="0" y="0" width="282" height="322">
<path d="M0.380371 0.333313H281.38V321.203H0.380371V0.333313Z" fill="white"/>
</mask>
<g mask="url(#mask0_113_1662)">
<path d="M216 500.172C216 500.172 177.844 511.714 169.583 514.281C161.328 516.844 160.193 528.083 160.193 528.083H281.49C281.49 528.083 280.089 517.469 272.115 514.339C264.141 511.203 222.26 500.177 222.26 500.177H220.375V295.042C220.875 294.417 221.375 293.792 221.87 293.172H272.656C275.49 293.172 277.781 290.875 277.781 288.047C277.781 285.214 275.49 282.922 272.656 282.922H229.391C243.01 262.182 247.062 238.453 214.578 193.375C223.193 189.99 227.375 181.359 227.443 170.625C227.688 170.422 227.828 170.094 227.786 169.755C227.75 169.495 227.615 169.276 227.427 169.125C227.318 165.391 226.734 161.427 225.682 157.354C221.411 140.839 220.557 132.297 212.297 112.938C212 112.229 211.703 111.547 211.411 110.88C211.531 110.682 211.589 110.448 211.542 110.203C211.474 109.802 211.156 109.5 210.781 109.427C203.464 92.7448 198.875 86.4844 185.531 78.4844C171.292 69.9427 162.182 65.3854 162.182 65.3854C162.182 65.3854 160.104 65.9583 155.88 67.1771L154.38 64.776C172.63 57.4063 180.833 45.1667 180.833 45.1667C180.833 45.1667 159.26 14.8437 142.823 5.02083C126.38 -4.80209 102.031 5.23437 97.3333 19.5417C97.3333 19.5417 97.3646 19.6354 97.4167 19.8073C96.3646 22.3906 95.6979 25.2187 95.4115 28.2292C94.9427 33.1823 95.4479 37.2865 96.276 40.5156C96.224 40.7917 96.3021 41.0885 96.4896 41.3125C97.026 43.1771 97.651 44.7135 98.2396 45.9115L97.9948 46.0938L93.9271 40.9427C93.599 40.526 92.9844 40.4479 92.5625 40.7812C92.1458 41.1146 92.0677 41.7292 92.4062 42.1458L99.75 51.4583L98.5417 59.6979L104.948 59.5521C104.948 59.5521 108.224 69.8021 115.344 71.651C122.458 73.5052 128.156 69.375 128.156 69.375L131.151 74.6458C122.682 77.6094 114.625 81.4531 107.802 86.2031L100.203 66.4323C99.6979 65.1042 98.3021 64.3333 96.9062 64.599L11.4323 80.9583C9.69271 81.2917 8.64062 83.0729 9.18229 84.7604L31.6875 154.094C31.9375 154.865 32.4896 155.495 33.2188 155.844L54.7865 166.182C54.2448 167.26 53.7656 168.307 53.3438 169.339L53.3281 169.328C52.8646 169.057 52.2708 169.219 52.0052 169.682C51.7344 170.146 51.8958 170.74 52.3594 171.005L52.6562 171.172C43.3125 198.208 77.6979 207.302 89.5781 194.37C89.9896 193.917 90.3958 193.479 90.7917 193.047C91.099 193.026 91.3906 192.859 91.5573 192.573C91.6458 192.422 91.6823 192.25 91.6823 192.083C96.5469 186.844 99.7552 183.563 101.823 181.536L105.266 179.969C105.974 200.943 120.984 201.526 120.984 201.526C120.984 201.526 106.115 211.87 97.0625 244.844C88.0156 277.823 43.7344 477.396 43.7344 477.396L44.5625 477.63L40.8906 490.495C40.8906 490.495 39.9896 493.182 38.4583 496.24C37.7031 497.74 36.7969 499.333 35.7656 500.745C32.6302 505.01 7.85937 506.438 0.453125 524.943H69.9323C69.9323 524.943 71.9219 515.266 72.2083 507.859C72.25 506.651 72.3333 505.583 72.4271 504.62C72.9219 499.698 73.9167 497.891 73.9167 497.891L77.6667 486.979L83.026 488.49L126.161 388.12L173.995 455.177L176.542 452.547L181.542 459.161C181.542 459.161 181.828 460.016 183.25 462.005C183.255 462.016 183.266 462.026 183.271 462.036C183.26 462.021 183.25 462.005 183.25 462.005C183.25 462.005 184.391 467.13 181.828 477.667C179.266 488.203 169.01 511.552 183.25 509.271C197.49 506.995 211.724 485.073 216.849 471.969C217.359 470.656 217.693 469.323 217.88 467.99V500.156H216V500.172ZM209.448 443.797C209.448 443.797 196.349 457.182 191.51 462.021C195.495 458.031 209.448 443.797 209.448 443.797L204.328 435.828L200.208 428.135L200.479 427.849L169.729 358.229C169.729 358.229 194.078 327.052 215.859 300.573C216.536 299.745 217.219 298.922 217.885 298.104V462.292C216.609 452.422 209.448 443.797 209.448 443.797Z" fill="#FF9A8B"/>
</g>
</svg>
