<svg width="60" height="60" viewBox="0 0 60 60" fill="none" xmlns="http://www.w3.org/2000/svg">
<mask id="mask0_113_4877" style="mask-type:luminance" maskUnits="userSpaceOnUse" x="0" y="0" width="60" height="60">
<path d="M0.171875 0.927124H59.1719V59.9271H0.171875V0.927124Z" fill="white"/>
</mask>
<g mask="url(#mask0_113_4877)">
<path d="M44.6354 59.8125H14.599C6.64583 59.8125 0.171875 53.3438 0.171875 45.3907V15.3542C0.171875 7.40108 6.64583 0.927124 14.599 0.927124H44.6354C52.5885 0.927124 59.0625 7.40108 59.0625 15.3542V45.3907C59.0625 53.3438 52.5885 59.8125 44.6354 59.8125ZM14.599 2.75004C7.64583 2.75004 1.99479 8.40108 1.99479 15.3542V45.3907C1.99479 52.3386 7.64583 57.9948 14.599 57.9948H44.6354C51.5885 57.9948 57.2396 52.3386 57.2396 45.3907V15.3542C57.2396 8.40108 51.5885 2.75004 44.6354 2.75004H14.599ZM39.526 29.4636H30.526V20.4584C30.526 19.9584 30.1198 19.5521 29.6146 19.5521C29.1146 19.5521 28.7083 19.9584 28.7083 20.4584V29.4636H19.7083C19.2031 29.4636 18.7969 29.8698 18.7969 30.3698C18.7969 30.875 19.2031 31.2813 19.7083 31.2813H28.7083V40.2813C28.7083 40.7865 29.1146 41.1927 29.6146 41.1927C30.1198 41.1927 30.526 40.7865 30.526 40.2813V31.2813H39.526C40.0313 31.2813 40.4375 30.875 40.4375 30.3698C40.4375 29.8698 40.0313 29.4636 39.526 29.4636Z" fill="#690061"/>
</g>
</svg>
