<svg width="65" height="56" viewBox="0 0 65 56" fill="none" xmlns="http://www.w3.org/2000/svg">
<mask id="mask0_113_4872" style="mask-type:luminance" maskUnits="userSpaceOnUse" x="0" y="0" width="65" height="56">
<path d="M0.666504 0H64.6665V55.2708H0.666504V0Z" fill="white"/>
</mask>
<g mask="url(#mask0_113_4872)">
<path d="M33.0883 55.4688C32.6612 55.4636 32.3904 55.2292 32.3279 55.1667L7.89037 30.7344C2.07266 25.4688 0.0726569 17.448 2.7862 10.7917C5.94245 3.02611 13.9164 1.00528 14.4581 0.875069C21.307 -0.72389 28.6299 2.25528 33.0935 8.3334C37.557 2.25528 44.88 -0.72389 51.7341 0.875069C52.0779 0.958402 60.2081 2.93757 63.4008 10.7917C66.1352 17.5001 64.0831 25.5157 58.2966 30.7344L33.8643 55.1667C33.8018 55.224 33.5206 55.4688 33.0883 55.4688ZM14.8904 2.73444C14.4372 2.84382 7.35391 4.62507 4.55182 11.5105C2.11953 17.4844 3.98411 24.6511 9.18724 29.3334L9.2237 29.3647L33.0935 53.2397L56.9997 29.3334C62.2029 24.6511 64.0675 17.4844 61.6352 11.5105C58.807 4.56257 51.6039 2.80736 51.2966 2.73444C44.807 1.21882 37.8122 4.35423 33.9008 10.5365L33.0935 11.8126L32.2862 10.5365C28.3747 4.31778 21.3227 1.22924 14.8904 2.73444Z" fill="#690061"/>
</g>
</svg>
