<svg width="67" height="152" viewBox="0 0 67 152" fill="none" xmlns="http://www.w3.org/2000/svg">
<mask id="mask0_113_6022" style="mask-type:luminance" maskUnits="userSpaceOnUse" x="0" y="0" width="67" height="152">
<path d="M0.75 0.739624H66.6667V152H0.75V0.739624Z" fill="white"/>
</mask>
<g mask="url(#mask0_113_6022)">
<path d="M34.6146 133.604L35.0521 135.693C36.3073 141.703 41.6771 146.063 47.8125 146.063C55.0052 146.063 60.8542 140.198 60.8542 132.984V18.9375C60.8542 11.724 55.0052 5.85942 47.8125 5.85942C41.6771 5.85942 36.3073 10.2188 35.0521 16.2292L34.6146 18.3177L32.4896 18.2657C32.401 18.2605 32.3073 18.2605 32.2188 18.2605C26.2865 18.2605 21.4635 23.099 21.4635 29.0469C21.4635 29.8855 21.5573 30.724 21.75 31.5365L22.2865 33.8177L20.0677 34.5521C14.7083 36.323 11.1094 41.3177 11.1094 46.9792C11.1094 48.7032 11.4427 50.3855 12.0938 51.9688L12.7656 53.5886L11.4948 54.8021C9.33854 56.8594 8.15625 59.6302 8.15625 62.6146C8.15625 63.7709 8.33333 64.9115 8.69271 66L9.10417 67.2448L8.33854 68.3021C6.72396 70.5417 5.86979 73.1875 5.86979 75.9636C5.86979 78.7344 6.72396 81.3802 8.33854 83.6198L9.10417 84.6823L8.69271 85.9219C8.33333 87.0105 8.15625 88.1511 8.15625 89.3073C8.15625 92.2917 9.33854 95.0677 11.4948 97.125L12.7656 98.3334L12.0938 99.9532C11.4427 101.536 11.1094 103.219 11.1094 104.948C11.1094 110.604 14.7083 115.599 20.0677 117.37L22.2865 118.104L21.75 120.385C21.5573 121.198 21.4635 122.037 21.4635 122.875C21.4635 128.823 26.2865 133.661 32.2188 133.661C32.3073 133.661 32.401 133.661 32.4896 133.661L34.6146 133.604ZM47.8125 151.182C39.9583 151.182 33.0052 146.036 30.5781 138.698C22.6042 137.87 16.3594 131.089 16.3594 122.875C16.3594 122.385 16.3802 121.901 16.4271 121.417C10.1146 118.448 6.00521 112.078 6.00521 104.948C6.00521 103.115 6.27604 101.318 6.80729 99.5886C4.375 96.724 3.05208 93.1302 3.05208 89.3073C3.05208 88.0365 3.19792 86.7865 3.49479 85.5625C1.70312 82.6823 0.765625 79.3907 0.765625 75.9636C0.765625 72.5313 1.70312 69.2396 3.49479 66.3594C3.19792 65.1407 3.05208 63.8855 3.05208 62.6146C3.05208 58.7917 4.375 55.198 6.80729 52.3334C6.27604 50.6042 6.00521 48.8125 6.00521 46.9792C6.00521 39.8438 10.1146 33.4792 16.4271 30.5105C16.3802 30.0209 16.3594 29.5365 16.3594 29.0469C16.3594 20.8334 22.6042 14.0521 30.5781 13.224C33.0052 5.88546 39.9531 0.739624 47.8125 0.739624C57.8177 0.739624 65.9583 8.90108 65.9583 18.9375V132.984C65.9583 143.021 57.8177 151.182 47.8125 151.182Z" fill="#E07769"/>
</g>
</svg>
