<svg width="421" height="230" viewBox="0 0 421 230" fill="none" xmlns="http://www.w3.org/2000/svg">
<mask id="mask0_113_670" style="mask-type:luminance" maskUnits="userSpaceOnUse" x="0" y="0" width="421" height="230">
<path d="M0.333496 0H420.333V229.661H0.333496V0Z" fill="white"/>
</mask>
<g mask="url(#mask0_113_670)">
<path d="M62.1201 92.2292L94.9847 7.19794C96.6566 2.88023 100.808 0.026062 105.443 0.026062H192.787C195.745 0.026062 197.724 3.07294 196.521 5.77606L158.641 90.8959C157.172 94.1875 153.922 96.3021 150.318 96.3125L65.0576 96.5313C62.8493 96.5313 61.3128 94.2969 62.1201 92.2292ZM217.078 86.3073C220.766 86.3073 223.761 83.3177 223.761 79.625C223.761 75.9375 220.766 72.9479 217.078 72.9479C213.391 72.9479 210.396 75.9375 210.396 79.625C210.396 83.3177 213.391 86.3073 217.078 86.3073ZM192.709 90.8177C192.709 94.5052 195.698 97.5 199.391 97.5C203.078 97.5 206.073 94.5052 206.073 90.8177C206.073 87.1302 203.078 84.1354 199.391 84.1354C195.698 84.1354 192.709 87.1302 192.709 90.8177ZM258.563 103.344C262.25 103.344 265.245 100.354 265.245 96.6615C265.245 92.974 262.25 89.9792 258.563 89.9792C254.87 89.9792 251.881 92.974 251.881 96.6615C251.881 100.354 254.87 103.344 258.563 103.344ZM267.948 61.099C271.636 61.099 274.631 58.1094 274.631 54.4219C274.631 50.7292 271.636 47.7396 267.948 47.7396C264.256 47.7396 261.266 50.7292 261.266 54.4219C261.266 58.1094 264.256 61.099 267.948 61.099ZM0.651367 180.354V229.922H419.787V180.354H0.651367Z" fill="#CD93CF"/>
</g>
</svg>
