<svg width="8" height="35" viewBox="0 0 8 35" fill="none" xmlns="http://www.w3.org/2000/svg">
<mask id="mask0_113_5357" style="mask-type:luminance" maskUnits="userSpaceOnUse" x="0" y="0" width="8" height="35">
<path d="M0.724121 0H7.72412V34.6562H0.724121V0Z" fill="white"/>
</mask>
<g mask="url(#mask0_113_5357)">
<path d="M4.2085 27.724C6.11996 27.724 7.67725 29.276 7.67725 31.1927C7.67725 33.1042 6.11996 34.6562 4.2085 34.6562C2.29183 34.6562 0.739746 33.1042 0.739746 31.1927C0.739746 29.276 2.29183 27.724 4.2085 27.724ZM0.739746 17.3698C0.739746 19.2865 2.29183 20.8385 4.2085 20.8385C6.11996 20.8385 7.67725 19.2865 7.67725 17.3698C7.67725 15.4531 6.11996 13.901 4.2085 13.901C2.29183 13.901 0.739746 15.4531 0.739746 17.3698ZM0.739746 3.5625C0.739746 5.47917 2.29183 7.03125 4.2085 7.03125C6.11996 7.03125 7.67725 5.47917 7.67725 3.5625C7.67725 1.64583 6.11996 0.09375 4.2085 0.09375C2.29183 0.09375 0.739746 1.64583 0.739746 3.5625Z" fill="#690061"/>
</g>
</svg>
