<svg width="53" height="57" viewBox="0 0 53 57" fill="none" xmlns="http://www.w3.org/2000/svg">
<mask id="mask0_113_4867" style="mask-type:luminance" maskUnits="userSpaceOnUse" x="0" y="0" width="53" height="57">
<path d="M0.119629 0.270874H52.1196V56.2709H0.119629V0.270874Z" fill="white"/>
</mask>
<g mask="url(#mask0_113_4867)">
<path d="M51.3905 56.4688H34.2394C33.7655 56.4688 33.3853 56.0886 33.3853 55.6147V39.099C33.3853 35.1615 30.1457 31.922 26.2082 31.922C22.2759 31.922 19.0363 35.1615 19.0363 39.099V55.6147C19.0363 56.0886 18.6509 56.4688 18.1821 56.4688H0.973796C0.499837 56.4688 0.119629 56.0886 0.119629 55.6147V26.3334C0.119629 26.1043 0.20817 25.8855 0.369629 25.7293L25.5571 0.604252C25.8905 0.276127 26.4269 0.270919 26.7655 0.604252C35.1717 8.97925 43.5832 17.3543 51.9946 25.7293C52.1561 25.8855 52.2498 26.1043 52.2498 26.3334V55.6147C52.2498 56.0886 51.8644 56.4688 51.3905 56.4688ZM35.0936 54.7605H50.5363V26.6876C42.4113 18.599 34.2863 10.5105 26.1613 2.41675L1.82796 26.6876V54.7605H17.328V39.099C17.328 34.224 21.3384 30.2136 26.2082 30.2136C31.0832 30.2136 35.0936 34.224 35.0936 39.099V54.7605Z" fill="#690061"/>
</g>
</svg>
