<svg width="272" height="258" viewBox="0 0 272 258" fill="none" xmlns="http://www.w3.org/2000/svg">
<mask id="mask0_113_1672" style="mask-type:luminance" maskUnits="userSpaceOnUse" x="0" y="0" width="272" height="258">
<path d="M0.666504 0.333313H271.38V257.203H0.666504V0.333313Z" fill="white"/>
</mask>
<g mask="url(#mask0_113_1672)">
<path d="M207.885 436.172V229.172H173.724C162.51 245.453 136.89 283.714 131.114 294.547C124.375 307.177 117.833 322.505 117.771 322.656C117.614 323.026 117.255 323.245 116.875 323.245C116.75 323.245 116.619 323.224 116.494 323.167C116 322.958 115.771 322.391 115.979 321.896C116.047 321.74 122.625 306.333 129.401 293.625C135.073 282.984 159.765 246.068 171.375 229.167H150.76C147.927 229.167 145.635 226.875 145.635 224.042C145.635 221.208 147.927 218.917 150.76 218.917H178.906C184.791 212.766 193.776 208.552 194.208 208.354C194.692 208.13 195.27 208.339 195.494 208.828C195.718 209.312 195.51 209.891 195.026 210.115C194.932 210.161 187.307 213.734 181.687 218.917H262.666C265.5 218.917 267.791 221.208 267.791 224.042C267.791 226.875 265.5 229.167 262.666 229.167H210.38V436.172H212.265C212.265 436.172 254.145 447.198 262.119 450.333C270.088 453.464 271.494 464.078 271.494 464.078H150.192C150.192 464.078 151.328 452.839 159.583 450.276C167.843 447.714 206 436.172 206 436.172H207.885ZM129.166 135.943L204.573 129.37C216.536 124.672 219.953 109.865 215.677 93.3489C211.406 76.8333 210.552 68.2916 202.291 48.9323C194.036 29.5677 189.76 23.0208 175.526 14.4791C161.286 5.94269 152.177 1.38019 152.177 1.38019C152.177 1.38019 143.922 3.65623 126.838 8.78123C115.593 12.151 104.724 17.0052 96.0882 23.4219L88.6247 3.69269C88.3695 3.01561 87.6611 2.61456 86.9476 2.74998L2.11424 18.4375C1.21841 18.5989 0.676744 19.526 0.963202 20.3906L21.1247 80.875C21.3695 81.6146 22.1403 82.0364 22.8903 81.8646L61.2497 72.8281C56.5934 80.9739 51.432 90.1614 45.6872 100.474C27.7445 132.646 66.7549 144.323 79.5674 130.37C92.3799 116.411 95.2288 114.422 95.2288 114.422C95.2288 136.917 110.974 137.526 110.974 137.526L127.541 136.083C126.401 137.406 120.422 145.318 110.776 175.276C100.291 207.818 51.057 410.203 50.557 412.24C50.432 412.76 50.7497 413.286 51.2705 413.417C51.3434 413.432 51.4267 413.438 51.4997 413.438C51.9372 413.438 52.333 413.141 52.4424 412.698C52.9372 410.661 102.166 208.349 112.625 175.87C122.937 143.844 129.057 137.302 129.109 137.24C129.474 136.885 129.484 136.323 129.166 135.943Z" fill="#690061"/>
</g>
</svg>
