<svg width="293" height="257" viewBox="0 0 293 257" fill="none" xmlns="http://www.w3.org/2000/svg">
<mask id="mask0_113_6104" style="mask-type:luminance" maskUnits="userSpaceOnUse" x="0" y="0" width="293" height="257">
<path d="M0.90625 0.411377H292.776V256.187H0.90625V0.411377Z" fill="white"/>
</mask>
<g mask="url(#mask0_113_6104)">
<path fill-rule="evenodd" clip-rule="evenodd" d="M108.698 229.786C106.828 229.036 105.068 232.062 102.589 231.443C99.1355 230.578 99.0991 225.286 95.4585 224.557C85.5105 222.568 70.7085 235.151 62.8751 239.859C59.9272 241.63 42.8647 254.141 40.7293 252.854C37.021 250.63 47.2918 233.208 48.8751 229.406C53.8595 217.432 40.7553 225.354 41.7501 216.401C42.7241 207.609 54.547 198.443 49.8959 189.125C46.8491 183.031 21.8022 188.614 15.0157 187.338C12.0991 186.792 2.4272 184.469 3.56261 179.948C3.83345 178.849 9.14074 177.875 8.65116 177.146C7.79699 175.859 -1.26551 176.104 1.78136 171.536C8.33865 161.682 25.1512 157.229 35.3803 152.667C39.4949 150.838 48.7032 149.375 49.6407 143.75C50.3803 139.281 42.8178 137.854 39.7085 136.614C32.3439 133.661 2.19803 119.974 11.9637 108.568C17.1512 102.505 29.3803 105.984 35.8907 106.526C37.3699 106.651 43.0782 107.812 44.0366 106.526C44.7501 105.578 33.7918 82.3749 50.4012 87.9166C57.5001 90.2864 62.1876 98.1926 67.2032 103.219C67.672 103.682 72.1407 108.37 73.0574 106.526C75.7449 101.146 70.7345 93.5312 75.0991 87.9166C78.3335 83.7499 83.6824 88.7499 85.0262 87.4062C86.2137 86.2187 84.6251 80.4582 84.771 78.7447C85.0991 74.8228 89.698 75.3905 88.0835 71.6041C81.2189 55.578 70.8855 43.3176 69.4949 25.2082C69.2501 21.9999 67.4272 10.5103 72.5522 9.65615C76.4532 9.0051 83.3803 33.3645 89.8595 33.3645C93.922 33.3645 90.1147 9.9426 98.0105 10.927C114.151 12.9478 113.458 40.5207 114.047 51.7186C114.198 54.6457 113.755 61.6301 116.083 63.9582C117.458 65.3332 119.417 59.8697 120.922 59.3697C126.365 57.552 127.458 68.6041 130.594 66.2499C135.88 62.2811 141.099 44.677 149.682 47.1301C160.141 50.1197 149.563 70.1041 160.63 72.8801C169.495 75.0989 181.141 60.4999 186.344 55.2864C201.594 40.0155 227.943 14.8853 247.443 6.33844C254.307 3.33323 266.162 -2.16156 273.662 2.0051C288.745 10.3957 275.344 32.8593 268.313 41.5207C261.297 50.1718 253.969 58.6197 246.932 67.2655C246.583 67.6978 239.339 75.9791 240.063 76.703C241.214 77.8593 243.859 76.177 245.151 77.4686C248.386 80.7082 240.87 87.9843 239.042 89.9582C233.729 95.6874 216.052 107.495 218.422 116.979C219.677 122.021 229.026 121.437 232.422 120.802C249.193 117.698 263.011 116.344 279.771 120.297C285.136 121.557 294.5 128.661 292.505 135.338C290.927 140.588 280.115 143.781 275.953 145.536C261.729 151.531 239.234 156.156 229.365 168.729C222.87 177.01 239.755 176.338 241.589 181.224C244.771 189.729 232.531 192.276 229.365 197.026C229.068 197.479 235.271 206.266 232.167 210.542C224.807 220.672 218.667 211.557 210.021 211.557C209.818 211.557 216.344 221.583 213.583 223.797C208.448 227.906 199.511 213.88 193.469 216.151C185.995 218.958 189 238.5 179.469 240.62C174.787 241.667 166.995 229.922 165.214 231.443C158.13 237.526 159.787 257.286 143.578 255.661C133.208 254.625 133.396 238.844 127.281 232.719C118.729 224.151 113.578 231.745 108.698 229.786Z" fill="#FDA164"/>
</g>
</svg>
