<svg width="150" height="72" viewBox="0 0 150 72" fill="none" xmlns="http://www.w3.org/2000/svg">
<mask id="mask0_113_6070" style="mask-type:luminance" maskUnits="userSpaceOnUse" x="0" y="0" width="150" height="72">
<path d="M0.166504 0.734375H149.734V71.1875H0.166504V0.734375Z" fill="white"/>
</mask>
<g mask="url(#mask0_113_6070)">
<path d="M74.9582 71.1771C57.4998 71.1823 40.4842 67.7916 27.0519 61.625C13.4686 55.3906 4.11442 46.6041 0.718587 36.8802L0.166504 35.3021L1.38005 34.1562C8.95817 27.0104 18.0363 18.8333 29.9321 12.276C43.9009 4.57811 58.6196 0.828104 74.9321 0.822896C111.557 0.807271 121.609 9.85935 148.463 34.0573L149.734 35.2031L149.172 36.8177C145.781 46.5416 136.437 55.3385 122.859 61.5833C109.432 67.7656 92.4217 71.1666 74.9582 71.1771Z" fill="#F4B789"/>
</g>
</svg>
