<svg width="67" height="152" viewBox="0 0 67 152" fill="none" xmlns="http://www.w3.org/2000/svg">
<mask id="mask0_113_6046" style="mask-type:luminance" maskUnits="userSpaceOnUse" x="0" y="0" width="67" height="152">
<path d="M0 0.739624H66.6667V152H0V0.739624Z" fill="white"/>
</mask>
<g mask="url(#mask0_113_6046)">
<path d="M19.2083 5.85942C12.0156 5.85942 6.16667 11.724 6.16667 18.9375V132.984C6.16667 140.198 12.0156 146.063 19.2083 146.063C25.3438 146.063 30.7083 141.703 31.9688 135.693L32.4062 133.604L34.5312 133.661C34.6198 133.661 34.7135 133.661 34.8021 133.661C40.7344 133.661 45.5573 128.823 45.5573 122.875C45.5573 122.037 45.4635 121.198 45.2708 120.385L44.7344 118.104L46.9531 117.37C52.3125 115.599 55.9115 110.604 55.9115 104.948C55.9115 103.219 55.5781 101.536 54.9271 99.9532L54.2552 98.3334L55.526 97.125C57.6823 95.0677 58.8646 92.2917 58.8646 89.3073C58.8646 88.1511 58.6875 87.0105 58.3281 85.9219L57.9167 84.6823L58.6823 83.6198C60.2969 81.3802 61.151 78.7344 61.151 75.9636C61.151 73.1875 60.2969 70.5417 58.6823 68.3021L57.9167 67.2448L58.3281 66C58.6875 64.9115 58.8646 63.7709 58.8646 62.6146C58.8646 59.6302 57.6823 56.8594 55.526 54.7969L54.2552 53.5886L54.9271 51.9688C55.5781 50.3855 55.9115 48.7084 55.9115 46.9792C55.9115 41.3177 52.3125 36.323 46.9531 34.5521L44.7344 33.8177L45.2708 31.5365C45.4635 30.724 45.5573 29.8855 45.5573 29.0469C45.5573 23.099 40.7344 18.2605 34.8021 18.2605C34.7135 18.2605 34.6198 18.2605 34.5312 18.2657L32.4062 18.3177L31.9688 16.2292C30.7083 10.2188 25.3438 5.85942 19.2083 5.85942ZM19.2083 151.182C9.20313 151.182 1.0625 143.021 1.0625 132.984V18.9375C1.0625 8.90108 9.20313 0.739624 19.2083 0.739624C27.0625 0.739624 34.0156 5.88546 36.4375 13.224C44.4167 14.0521 50.6615 20.8334 50.6615 29.0469C50.6615 29.5365 50.6406 30.0209 50.5938 30.5105C56.9063 33.4792 61.0104 39.8438 61.0104 46.9792C61.0104 48.8125 60.7448 50.6042 60.2135 52.3334C62.6458 55.198 63.9688 58.7917 63.9688 62.6146C63.9688 63.8855 63.8229 65.1355 63.526 66.3594C65.3177 69.2396 66.2552 72.5313 66.2552 75.9636C66.2552 79.3907 65.3177 82.6823 63.526 85.5625C63.8229 86.7865 63.9688 88.0417 63.9688 89.3073C63.9688 93.1302 62.6458 96.724 60.2135 99.5886C60.7448 101.318 61.0104 103.115 61.0104 104.948C61.0104 112.078 56.9063 118.448 50.5938 121.417C50.6406 121.901 50.6615 122.385 50.6615 122.875C50.6615 131.089 44.4167 137.87 36.4375 138.698C34.0156 146.036 27.0625 151.182 19.2083 151.182Z" fill="#E07769"/>
</g>
</svg>
