<svg width="494" height="348" viewBox="0 0 494 348" fill="none" xmlns="http://www.w3.org/2000/svg">
<mask id="mask0_113_1649" style="mask-type:luminance" maskUnits="userSpaceOnUse" x="0" y="0" width="494" height="348">
<path d="M0 0.244812H494V348H0V0.244812Z" fill="white"/>
</mask>
<g mask="url(#mask0_113_1649)">
<path d="M440.958 307.911L430.927 277.823C430.927 277.823 430.948 277.802 430.984 277.76C431.005 277.74 431.026 277.714 431.047 277.693C431.078 277.661 431.104 277.63 431.146 277.583C431.188 277.531 431.245 277.458 431.307 277.401C431.344 277.359 431.365 277.333 431.406 277.281C431.474 277.203 431.557 277.099 431.646 277C431.688 276.953 431.714 276.911 431.755 276.859C431.844 276.75 431.948 276.63 432.047 276.5C432.094 276.443 432.135 276.391 432.188 276.328C432.297 276.193 432.406 276.052 432.516 275.891C432.568 275.823 432.625 275.75 432.677 275.682C432.797 275.521 432.927 275.349 433.057 275.172C433.115 275.089 433.167 275.01 433.224 274.932C433.354 274.74 433.495 274.552 433.635 274.339C433.698 274.25 433.755 274.161 433.828 274.068C433.974 273.859 434.115 273.63 434.266 273.401C434.328 273.302 434.396 273.198 434.458 273.099C434.604 272.859 434.766 272.62 434.917 272.359C434.984 272.25 435.047 272.141 435.115 272.031C435.276 271.771 435.438 271.5 435.599 271.219C435.667 271.099 435.729 270.99 435.797 270.87C435.958 270.578 436.115 270.286 436.286 269.99C436.359 269.87 436.417 269.74 436.49 269.609C436.646 269.297 436.818 268.99 436.979 268.656C437.036 268.536 437.099 268.406 437.167 268.276C437.339 267.938 437.5 267.599 437.656 267.24C437.708 267.12 437.766 266.99 437.818 266.87C437.99 266.5 438.146 266.12 438.318 265.729C438.359 265.63 438.396 265.526 438.438 265.427C438.609 265.005 438.776 264.578 438.948 264.146C442.51 254.604 443.938 240.87 433.995 225.495C430.385 219.917 426.344 213.651 422.172 207.172C423.016 208.474 423.844 209.771 424.672 211.052H428.276V0.244812H63.5938V201.219H1.44792L28.8073 301.75V307.901H0.078125V309.25C0.078125 314.25 4.14062 318.313 9.14062 318.313H224.839C231.26 323.516 240.823 330.776 253.115 338.677C277.052 354.063 299.62 343.469 299.62 343.469H347.703L347.724 343.531L347.901 343.469H452.812L444.427 318.323H484.781C489.781 318.323 493.844 314.26 493.844 309.26V307.911H440.958ZM227.672 286.802C224.589 284.802 220.188 282.214 214.135 279.182C206.344 275.281 195.63 275.422 186.531 276.953L167.693 207.74L168.594 211.042H269.891C264.411 231.448 261.781 254.344 257.557 288.406L230.542 281.224L227.672 286.802ZM197.724 301.417C197.953 301.536 198.224 301.646 198.464 301.755H193.271L192.432 298.656C194.12 299.568 195.901 300.495 197.724 301.417Z" fill="#CD93CF"/>
</g>
</svg>
