<svg width="102" height="199" viewBox="0 0 102 199" fill="none" xmlns="http://www.w3.org/2000/svg">
<mask id="mask0_113_6961" style="mask-type:luminance" maskUnits="userSpaceOnUse" x="0" y="0" width="102" height="199">
<path d="M0.333374 0.333374H101.911V199H0.333374V0.333374Z" fill="white"/>
</mask>
<g mask="url(#mask0_113_6961)">
<path d="M98.474 167.01C94.4062 160.099 86.7292 154.797 78.5833 154.63C76.3802 154.589 74.3021 154.969 72.3073 155.687C71.4167 152.807 69.9323 150.01 68.7031 147.297C67.1302 143.859 65.6042 140.427 64.0781 136.995C61.1927 130.505 58.3542 124.021 55.5521 117.536C49.9115 104.521 44.3125 91.5052 38.7135 78.4895C33.1146 65.4739 27.474 52.5 21.6667 39.5677C18.7812 33.125 15.7292 26.7656 12.7187 20.3645C11.1042 16.9739 9.40625 13.625 7.66666 10.276C6.86458 8.70829 6.14062 6.67183 5.04166 5.31246C3.80729 3.82808 2.45312 2.64579 1.52083 0.864539C1.22395 0.270788 0.161454 0.692663 0.416662 1.32808C1.13541 3.19266 1.13541 4.93225 1.43229 6.8385C1.72916 8.57808 2.79166 10.4427 3.42708 12.0989C4.78645 15.6145 6.14062 19.0937 7.54166 22.5677C10.2135 29.0989 12.8021 35.6718 15.4323 42.1979C20.8594 55.552 26.2031 68.9062 31.6771 82.2604C37.0625 95.5312 42.4896 108.76 48.0885 121.943C50.8437 128.474 53.6875 134.958 56.5312 141.443C59.2031 147.505 61.4479 154.458 65.2656 159.974C61.875 162.979 59.2865 166.922 57.9687 171.161C55.0885 180.281 59.2865 189.818 66.9219 195.073C70.8646 197.786 75.7865 199.187 80.5781 198.677C83.125 198.38 85.5833 197.62 87.7031 196.177C89.5677 194.906 91.0104 193.042 92.3698 191.172C92.9635 191.469 93.6823 191.557 94.4062 191.385C96.8646 190.75 98.8594 188.375 100.089 186.297C101.318 184.224 101.74 181.635 101.828 179.219C101.911 174.937 100.599 170.615 98.474 167.01ZM92.2396 175.698C92.1979 175.276 92.1979 175.448 92.2396 175.698V175.698ZM71.0365 164.802C70.8229 165.016 70.9062 164.891 71.0365 164.802V164.802ZM78.8802 192.573C78.7552 192.573 78.7969 192.573 78.8802 192.573V192.573ZM86.5156 191.854C84.6927 192.406 83.2083 192.615 81.5104 192.656C80.7031 192.656 79.8542 192.656 79.0521 192.573C79.0104 192.573 79.0104 192.573 78.9635 192.573C78.7552 192.531 78.5417 192.49 78.3281 192.448C77.8646 192.359 77.3958 192.234 76.9323 192.109C76.125 191.896 75.3594 191.599 74.599 191.302C74.599 191.302 74.3854 191.219 74.2135 191.13C74.0469 191.047 73.8333 190.964 73.8333 190.964C73.4115 190.75 72.9844 190.536 72.5625 190.286C71.8854 189.901 71.2031 189.437 70.5677 188.969C70.3958 188.802 70.1875 188.672 70.0156 188.505C69.6354 188.208 69.2969 187.87 68.9583 187.526C68.7031 187.276 68.4062 186.979 68.151 186.682C67.9792 186.51 67.8542 186.297 67.6823 186.13C67.6406 186.089 67.599 186 67.5573 185.958C67.4271 185.792 67.0885 185.281 67.0052 185.156C66.75 184.771 66.4948 184.349 66.2396 183.927C66.0312 183.583 65.8594 183.245 65.6927 182.906C65.6042 182.698 65.4792 182.484 65.3958 182.271C65.3958 182.229 65.3958 182.229 65.349 182.187C65.0521 181.38 64.8021 180.531 64.6302 179.687C64.5885 179.516 64.5469 179.302 64.5052 179.135C64.5052 179.094 64.5052 179.094 64.5052 179.047C64.4583 178.625 64.4167 178.203 64.4167 177.776C64.4167 177.396 64.4167 176.974 64.4167 176.589C64.4167 176.422 64.5052 175.745 64.5052 175.531C64.6302 174.682 64.8437 173.833 65.099 172.984C65.224 172.646 65.349 172.266 65.4792 171.927C65.5208 171.802 65.6042 171.63 65.6458 171.547C65.8177 171.25 65.9427 170.911 66.1146 170.615C66.625 169.724 67.1771 168.833 67.8125 167.984C67.5156 168.406 68.3177 167.391 68.4479 167.219C68.8281 166.797 69.2083 166.375 69.5938 165.99C69.9323 165.651 70.3125 165.312 70.651 165.016C70.7812 164.891 70.9062 164.802 71.0365 164.719C71.0781 164.719 71.0781 164.677 71.1198 164.677C71.9271 164.125 72.7292 163.62 73.6198 163.193C73.75 163.151 73.8333 163.068 73.9635 163.026C74.3021 162.937 74.6406 162.771 74.9792 162.682C75.401 162.557 75.8281 162.474 76.25 162.344C76.4219 162.302 76.5885 162.302 76.7604 162.26C76.7604 162.26 76.7604 162.26 76.8021 162.26C77.526 162.26 78.2448 162.177 78.9635 162.219C79.2604 162.219 80.4479 162.474 79.349 162.219C79.7708 162.302 80.1979 162.344 80.5781 162.474C81.2969 162.641 81.9792 162.854 82.6562 163.109C82.7396 163.151 82.8698 163.193 82.9531 163.234C82.9948 163.234 82.9948 163.234 82.9948 163.276C83.3333 163.49 83.7604 163.661 84.1406 163.917C84.4792 164.125 84.8177 164.339 85.1146 164.552C85.2448 164.635 85.5833 164.891 85.75 165.016C86.2604 165.443 86.7708 165.865 87.2344 166.333C87.7865 166.88 88.2969 167.474 88.8073 168.068C88.7656 167.984 88.7188 167.984 88.6771 167.901C88.7188 167.984 88.8073 168.068 88.849 168.156C88.9323 168.24 88.974 168.323 89.0156 168.406C89.2708 168.745 89.4844 169.089 89.7396 169.469C90.25 170.276 90.6719 171.078 91.0938 171.927C91.1406 172.052 91.1823 172.141 91.2656 172.266C91.2656 172.307 91.2656 172.307 91.3073 172.349C91.4375 172.776 91.6042 173.156 91.7344 173.578C91.8594 174.047 91.9844 174.516 92.1146 174.979C92.1562 175.193 92.1979 175.995 92.3281 176.208C92.3281 176.339 92.3698 176.464 92.3698 176.589C92.4115 177.016 92.4115 177.479 92.4115 177.906C92.4115 178.328 92.4115 178.797 92.3698 179.219C92.3698 179.344 92.3281 179.474 92.3281 179.599C92.1562 180.448 91.9427 181.339 91.776 182.187C91.7344 182.401 91.7344 182.568 91.6875 182.781C91.6875 182.823 91.6875 182.823 91.6875 182.865C91.6458 183.078 91.6042 183.333 91.5625 183.542C91.4792 184.01 91.349 184.474 91.2656 184.901C91.0104 186.089 90.6302 187.276 90.6719 188.505C90.6719 189.052 90.8854 189.562 91.1406 190.031C89.6562 190.875 88.2135 191.344 86.5156 191.854Z" fill="#0A141E"/>
</g>
</svg>
