<svg width="15" height="15" viewBox="0 0 15 15" fill="none" xmlns="http://www.w3.org/2000/svg">
<mask id="mask0_113_5983" style="mask-type:luminance" maskUnits="userSpaceOnUse" x="0" y="0" width="15" height="15">
<path d="M0.333496 0.333374H14.9168V15H0.333496V0.333374Z" fill="white"/>
</mask>
<g mask="url(#mask0_113_5983)">
<path d="M7.81283 0.546875C7.36491 0.546875 6.92741 0.59375 6.48991 0.677083C6.05762 0.765626 5.63053 0.895833 5.21908 1.0625C4.81283 1.23437 4.4222 1.44271 4.05241 1.6875C3.68262 1.9375 3.33887 2.21875 3.02637 2.53125C2.70866 2.84375 2.43262 3.1875 2.18262 3.55729C1.93783 3.92708 1.72949 4.31771 1.55762 4.72917C1.38574 5.13542 1.26074 5.5625 1.1722 5.99479C1.08366 6.43229 1.04199 6.875 1.04199 7.31771C1.04199 7.76042 1.08366 8.20313 1.1722 8.63542C1.26074 9.07292 1.38574 9.49479 1.55762 9.90625C1.72949 10.3177 1.93783 10.7083 2.18262 11.0781C2.43262 11.4479 2.70866 11.7865 3.02637 12.1042C3.33887 12.4167 3.68262 12.6979 4.05241 12.9427C4.4222 13.1927 4.81283 13.401 5.21908 13.5729C5.63053 13.7396 6.05762 13.8698 6.48991 13.9583C6.92741 14.0417 7.36491 14.0833 7.81283 14.0833C8.25553 14.0833 8.69824 14.0417 9.13053 13.9583C9.56803 13.8698 9.98991 13.7396 10.4014 13.5729C10.8128 13.401 11.2035 13.1927 11.5732 12.9427C11.943 12.6979 12.2816 12.4167 12.5993 12.1042C12.9118 11.7865 13.193 11.4479 13.4378 11.0781C13.6878 10.7083 13.8962 10.3177 14.0628 9.90625C14.2347 9.49479 14.3649 9.07292 14.4482 8.63542C14.5368 8.20313 14.5785 7.76042 14.5785 7.31771C14.5785 6.875 14.5368 6.43229 14.4482 5.99479C14.3649 5.5625 14.2347 5.13542 14.0628 4.72917C13.8962 4.31771 13.6878 3.92708 13.4378 3.55729C13.193 3.1875 12.9118 2.84375 12.5993 2.53125C12.2816 2.21875 11.943 1.9375 11.5732 1.6875C11.2035 1.44271 10.8128 1.23437 10.4014 1.0625C9.98991 0.895833 9.56803 0.765626 9.13053 0.677083C8.69824 0.59375 8.25553 0.546875 7.81283 0.546875Z" fill="#88AE45"/>
</g>
</svg>
