<svg width="232" height="258" viewBox="0 0 232 258" fill="none" xmlns="http://www.w3.org/2000/svg">
<mask id="mask0_113_1667" style="mask-type:luminance" maskUnits="userSpaceOnUse" x="0" y="0" width="232" height="258">
<path d="M0 0.333313H232V257.203H0V0.333313Z" fill="white"/>
</mask>
<g mask="url(#mask0_113_1667)">
<path d="M84.9064 120.443L25.2189 91.8385C24.4897 91.4896 23.9376 90.8594 23.6876 90.0885L1.18243 20.7552C0.640761 19.0677 1.69284 17.2865 3.43243 16.9531L88.9064 0.588535C90.3022 0.317702 91.6981 1.08853 92.2033 2.41666L113.828 58.6875C114.141 59.4948 114.792 60.125 115.604 60.4115L167.182 78.5208C169.688 79.401 169.844 82.875 167.427 83.9792L87.4012 120.464C86.6095 120.828 85.6981 120.818 84.9064 120.443ZM206.573 129.37L112.979 137.526C112.979 137.526 98.1095 147.87 89.0574 180.844C80.0106 213.823 35.7345 413.396 35.7345 413.396L75.0314 424.495L118.167 324.125L166 391.177L192.479 363.844L161.729 294.224C161.729 294.224 186.078 263.047 207.86 236.568C229.641 210.089 248.432 187.458 206.573 129.37ZM30.4585 432.24C34.6981 434.865 41.5053 438.901 47.4116 441.583C53.4428 444.323 60.297 442.37 64.4324 440.62C64.9272 435.698 65.922 433.891 65.922 433.891L32.8908 426.49C32.8908 426.495 31.9897 429.182 30.4585 432.24ZM173.547 395.172C173.547 395.172 173.833 396.026 175.255 398.016C176.677 400.01 179.526 402 183.511 398.016C187.495 394.031 201.448 379.792 201.448 379.792L196.328 371.823L173.547 395.172Z" fill="white"/>
</g>
</svg>
