<svg width="431" height="345" viewBox="0 0 431 345" fill="none" xmlns="http://www.w3.org/2000/svg">
<mask id="mask0_113_660" style="mask-type:luminance" maskUnits="userSpaceOnUse" x="0" y="0" width="431" height="345">
<path d="M0.666504 0.661438H430.359V344.661H0.666504V0.661438Z" fill="white"/>
</mask>
<g mask="url(#mask0_113_660)">
<path d="M223.849 233.771C223.849 232.62 224.172 231.547 224.687 230.609L224.557 230.719L209.213 212.125L210.062 211.427L225.213 229.786C226.432 228.167 228.354 227.099 230.542 227.099C234.229 227.099 237.224 230.094 237.224 233.781C237.224 237.474 234.229 240.464 230.542 240.464C226.844 240.453 223.849 237.464 223.849 233.771ZM199.708 205.818C199.708 209.505 202.698 212.5 206.391 212.5C210.078 212.5 213.073 209.505 213.073 205.818C213.073 202.13 210.078 199.135 206.391 199.135C202.698 199.135 199.708 202.13 199.708 205.818ZM7.65093 344.911H426.786V295.344H7.65093V344.911ZM209.312 198.568L210.323 198.99L225.083 163.714C225.63 164.24 226.26 164.667 226.963 164.979L223.536 187.87L224.078 187.948C220.391 187.948 217.396 190.938 217.396 194.625C217.396 198.318 220.391 201.307 224.078 201.307C224.219 201.307 224.349 201.276 224.489 201.266L229.323 227.042L230.391 226.839L225.568 201.125C228.536 200.443 230.76 197.802 230.76 194.625C230.76 191.12 228.057 188.286 224.63 188.005L228.021 165.339C228.552 165.479 229.104 165.573 229.677 165.573C230.854 165.573 231.948 165.24 232.911 164.703L249.328 181.302L250.104 180.531L233.838 164.083C235.224 162.964 236.151 161.323 236.307 159.443L268.495 167.839C268.37 168.349 268.281 168.87 268.281 169.422C268.281 173.109 271.276 176.099 274.963 176.099C278.656 176.099 281.646 173.109 281.646 169.422C281.646 165.729 278.656 162.74 274.963 162.74C272.208 162.74 269.844 164.411 268.823 166.797L236.505 158.359L236.37 158.885C236.37 155.193 233.375 152.203 229.687 152.203C225.995 152.203 223.005 155.193 223.005 158.885C223.005 160.682 223.719 162.292 224.87 163.495L224.12 163.182L209.312 198.568ZM273.719 176.12L268.224 205.547C267.401 205.188 266.505 204.99 265.562 204.99C261.87 204.99 258.88 207.979 258.88 211.672C258.88 215.359 261.87 218.354 265.562 218.354C269.25 218.354 272.245 215.359 272.245 211.672C272.245 209.344 271.047 207.292 269.245 206.099L274.797 176.328L273.719 176.12ZM395.771 283.979V288.427H427.542V294.984H7.80718V288.427H30.3384C29.5363 281.339 28.1041 262.865 31.4738 239.573C31.6822 238.135 31.8905 236.729 32.1093 235.333C16.3541 245.781 -1.31782 229.484 1.98947 215.385C5.59884 199.984 12.8228 174.714 12.8228 174.714L13.1041 174.792L7.29155 172.073C7.29155 172.073 20.2916 146.438 34.0103 131.276C47.7291 116.12 59.6457 109.979 59.6457 109.979L64.3384 97.3385H70.9218L71.3697 85.4219C71.3697 85.4219 64.8697 77.6615 59.9947 72.9688C59.9947 72.9688 49.703 73.5104 48.6197 64.4792C47.9322 58.7604 51.2343 55.2188 53.7499 53.3854L52.5988 54.0052C50.8593 51.1094 48.9165 39.1875 53.3801 29.5573C52.8853 29.6094 52.3801 29.6354 51.8749 29.6354C43.9009 29.6354 37.427 23.1719 37.427 15.1927C37.427 7.22917 43.8905 0.765625 51.8749 0.765625C59.854 0.765625 66.3072 7.22917 66.3072 15.2083C66.3072 16.2292 66.1978 17.224 65.9947 18.1927C66.677 17.9583 67.3749 17.7448 68.1145 17.5573C86.5988 12.8958 95.3176 22.526 97.3957 25.3073C103.37 30.1146 106.458 37.3438 107.182 43.2865C107.38 43.4844 107.443 43.8021 107.286 44.0521C107.276 44.0625 107.271 44.0729 107.26 44.0781C107.271 44.1406 107.276 44.2083 107.276 44.2708C107.323 44.7865 107.349 45.2917 107.38 45.8073C110.542 47.5 112.703 50.8229 112.703 54.651C112.703 58.7708 110.198 62.3177 106.641 63.8542C106.135 67.5938 105.463 70.9948 104.755 73.875C102.953 81.2708 92.4843 85.0677 92.4843 85.0677L95.328 97.3385H100.786L106.562 108.531C106.562 108.531 110.651 111.031 116.312 115.026H199.797C201.479 115.026 202.849 116.021 203.484 117.365H203.859V118.453H203.823C203.948 119.203 203.87 120 203.526 120.766L190.62 149.786C191.703 152.531 194.01 158.318 195.26 162.677C196.708 167.729 197.422 170.38 194.781 176.396C192.135 182.401 185.911 193.896 165.62 234.479C165.995 236.74 166.302 239.042 166.5 241.38C168.458 263.708 166.739 281.5 165.864 288.427H189.818V284.599H276.167L309.375 196.766C309.781 195.682 310.823 194.974 311.974 194.995L428.276 196.745C429.812 196.771 430.833 198.328 430.255 199.745L395.771 283.979ZM160.677 210.641C162.437 210.203 163.937 209.026 164.792 207.37C163.766 208.854 162.333 209.979 160.677 210.641ZM107.453 47.1146C107.687 52.5573 107.391 57.8073 106.807 62.5625C109.656 61.0729 111.614 58.0885 111.614 54.651C111.614 51.474 109.948 48.6927 107.453 47.1146ZM107.031 44.2917C106.948 44.3333 106.844 44.3698 106.734 44.3698C106.849 44.3594 106.948 44.3333 107.031 44.2917ZM230.708 193.354L248.63 188.74C249.672 191.078 252.005 192.708 254.729 192.708C255.594 192.708 256.422 192.536 257.177 192.229L261.646 205.453L262.682 205.104L258.172 191.75L258.088 191.776C260.068 190.615 261.411 188.484 261.411 186.026C261.411 184.839 261.068 183.74 260.531 182.776L270.453 174.651L269.766 173.807L259.917 181.865C258.698 180.349 256.838 179.354 254.739 179.354C251.047 179.354 248.057 182.344 248.057 186.036C248.057 186.62 248.151 187.172 248.292 187.703L230.448 192.297L230.708 193.354ZM260.26 216.182L236.614 230.443L237.177 231.375L260.823 217.115L260.26 216.182ZM230.01 197.844L259.073 209.396L259.474 208.38L230.411 196.833L230.01 197.844Z" fill="white"/>
</g>
</svg>
