<svg width="378" height="344" viewBox="0 0 378 344" fill="none" xmlns="http://www.w3.org/2000/svg">
<mask id="mask0_113_1657" style="mask-type:luminance" maskUnits="userSpaceOnUse" x="0" y="0" width="378" height="344">
<path d="M0.666504 0.244812H378V344H0.666504V0.244812Z" fill="white"/>
</mask>
<g mask="url(#mask0_113_1657)">
<path d="M105.542 207.172H208.984C208.609 208.453 208.24 209.75 207.901 211.052H106.594L105.542 207.172ZM362.083 207.172H360.182C361.026 208.474 361.854 209.771 362.682 211.052H366.286V0.244812H1.59375V201.219H6.09375V4.58856H362.083V207.172ZM313.698 121.547C308.318 110.266 309.339 95.9011 294.203 91.8021C279.073 87.6979 272.411 89.2396 269.328 75.6459C266.25 62.0521 257.016 44.8698 229.068 47.4375C201.109 50 201.37 70.7761 201.37 70.7761L221.115 78.724C220.083 94.1094 226.755 96.6823 226.755 96.6823L228.297 90.5313C228.297 90.5313 241.12 88.9896 240.859 98.7344C240.599 108.474 229.839 109.245 229.839 109.245C230.609 122.839 238.812 127.198 247.271 136.943C255.734 146.688 246.5 158.229 258.047 167.458C269.589 176.693 279.594 169 280.87 188.234C282.151 207.474 292.417 211.313 292.417 211.313L347.552 153.865C341.656 118.479 319.094 132.833 313.698 121.547ZM204.453 97.2709C205.964 97.2709 207.182 96.0521 207.182 94.5417C207.182 93.0313 205.964 91.8125 204.453 91.8125C202.943 91.8125 201.719 93.0313 201.719 94.5417C201.719 96.0521 202.943 97.2709 204.453 97.2709ZM200.698 81.4063L201.552 82.7084C201.771 82.5677 207 79.3073 212.104 84.6459L213.224 83.5781C207.203 77.2761 200.76 81.3594 200.698 81.4063ZM201.979 111.286L201.802 112.828C201.849 112.833 202.188 112.865 202.75 112.865C204.328 112.865 207.62 112.568 210.792 110.385L209.911 109.104C206.109 111.724 202.021 111.297 201.979 111.286ZM139.302 99.2396H140.854V86.1563C140.854 85.7292 140.505 85.3802 140.073 85.3802H97.7604V73.3334H96.2135V85.3802H58.7708C58.3385 85.3802 57.9896 85.7292 57.9896 86.1563V99.2396H59.5417V86.9375H139.281V99.2396H139.302ZM351.49 234.047L368.927 277.823C368.927 277.823 373.786 272.651 376.958 264.146L351.49 234.047ZM23.5312 231.068H29.724V229.516H22.5417C22.3021 229.516 22.0781 229.63 21.9323 229.818C21.7812 230.01 21.7292 230.25 21.7917 230.479L24.724 242.51H18.7812V244.063H25.0938L28.2812 257.146C28.3646 257.495 28.6823 257.734 29.0312 257.734H36.5521V256.188H29.6406L23.5312 231.068ZM230.297 130.969L233.63 139.891L237.802 129.771L230.297 130.969ZM237.62 343.469H260.198L254.714 309.792C254.714 309.792 251.646 332.354 237.62 343.469Z" fill="#690061"/>
</g>
</svg>
