<svg width="246" height="66" viewBox="0 0 246 66" fill="none" xmlns="http://www.w3.org/2000/svg">
<mask id="mask0_113_5988" style="mask-type:luminance" maskUnits="userSpaceOnUse" x="0" y="0" width="246" height="66">
<path d="M0.916504 0.666626H246V66H0.916504V0.666626Z" fill="white"/>
</mask>
<g mask="url(#mask0_113_5988)">
<path d="M238.505 51.5364C238.062 51.5364 237.62 51.5833 237.182 51.6666C236.75 51.7551 236.323 51.8853 235.917 52.052C235.505 52.2239 235.115 52.4322 234.745 52.677C234.375 52.927 234.031 53.2083 233.719 53.5208C233.406 53.8333 233.125 54.177 232.875 54.5468C232.63 54.9166 232.422 55.3072 232.25 55.7187C232.083 56.1249 231.953 56.552 231.865 56.9843C231.781 57.4218 231.734 57.8645 231.734 58.3072C231.734 58.7499 231.781 59.1926 231.865 59.6249C231.953 60.0624 232.083 60.4843 232.25 60.8958C232.422 61.3072 232.63 61.6978 232.875 62.0676C233.125 62.4374 233.406 62.7812 233.719 63.0937C234.031 63.4062 234.375 63.6874 234.745 63.9322C235.115 64.1822 235.505 64.3906 235.917 64.5624C236.323 64.7291 236.75 64.8593 237.182 64.9478C237.62 65.0312 238.062 65.078 238.505 65.078C238.948 65.078 239.391 65.0312 239.823 64.9478C240.26 64.8593 240.682 64.7291 241.094 64.5624C241.505 64.3906 241.896 64.1822 242.266 63.9322C242.635 63.6874 242.979 63.4062 243.292 63.0937C243.604 62.7812 243.885 62.4374 244.135 62.0676C244.38 61.6978 244.589 61.3072 244.76 60.8958C244.927 60.4843 245.057 60.0624 245.146 59.6249C245.229 59.1926 245.276 58.7499 245.276 58.3072C245.276 57.8645 245.229 57.4218 245.146 56.9843C245.057 56.552 244.927 56.1249 244.76 55.7187C244.589 55.3072 244.38 54.9166 244.135 54.5468C243.885 54.177 243.604 53.8333 243.292 53.5208C242.979 53.2083 242.635 52.927 242.266 52.677C241.896 52.4322 241.505 52.2239 241.094 52.052C240.682 51.8853 240.26 51.7551 239.823 51.6666C239.391 51.5833 238.948 51.5364 238.505 51.5364ZM15.1354 0.770752C14.2448 0.770752 13.3646 0.859293 12.4896 1.03117C11.6198 1.20304 10.776 1.46346 9.95312 1.802C9.13021 2.14054 8.34896 2.55721 7.61458 3.052C6.875 3.54679 6.1875 4.10929 5.5625 4.73429C4.93229 5.3645 4.36979 6.04679 3.875 6.78638C3.38542 7.52596 2.96875 8.30721 2.625 9.13013C2.28646 9.94784 2.03125 10.7968 1.85417 11.6666C1.68229 12.5416 1.59375 13.4218 1.59375 14.3072C1.59375 15.1978 1.68229 16.078 1.85417 16.9478C2.03125 17.8228 2.28646 18.6666 2.625 19.4895C2.96875 20.3124 3.38542 21.0937 3.875 21.828C4.36979 22.5676 4.93229 23.2551 5.5625 23.8801C6.1875 24.5103 6.875 25.0728 7.61458 25.5676C8.34896 26.0572 9.13021 26.4739 9.95312 26.8176C10.776 27.1562 11.6198 27.4114 12.4896 27.5885C13.3646 27.7603 14.2448 27.8489 15.1354 27.8489C16.0208 27.8489 16.901 27.7603 17.776 27.5885C18.6458 27.4114 19.4948 27.1562 20.3125 26.8176C21.1354 26.4739 21.9167 26.0572 22.6562 25.5676C23.3958 25.0728 24.0781 24.5103 24.7083 23.8801C25.3333 23.2551 25.8958 22.5676 26.3906 21.828C26.8854 21.0937 27.3021 20.3124 27.6406 19.4895C27.9792 18.6666 28.2396 17.8228 28.4115 16.9478C28.5833 16.078 28.6719 15.1978 28.6719 14.3072C28.6719 13.4218 28.5833 12.5416 28.4115 11.6666C28.2396 10.7968 27.9792 9.94784 27.6406 9.13013C27.3021 8.30721 26.8854 7.52596 26.3906 6.78638C25.8958 6.04679 25.3333 5.3645 24.7083 4.73429C24.0781 4.10929 23.3958 3.54679 22.6562 3.052C21.9167 2.55721 21.1354 2.14054 20.3125 1.802C19.4948 1.46346 18.6458 1.20304 17.776 1.03117C16.901 0.859293 16.0208 0.770752 15.1354 0.770752Z" fill="#FBCD59"/>
</g>
</svg>
