<svg width="422" height="295" viewBox="0 0 422 295" fill="none" xmlns="http://www.w3.org/2000/svg">
<mask id="mask0_113_665" style="mask-type:luminance" maskUnits="userSpaceOnUse" x="0" y="0" width="422" height="295">
<path d="M0.333496 0.661438H421.667V295H0.333496V0.661438Z" fill="white"/>
</mask>
<g mask="url(#mask0_113_665)">
<path d="M420.542 288.427V294.984H0.807617V288.427H420.542ZM223.532 240.453C227.224 240.453 230.214 237.464 230.214 233.771C230.214 230.083 227.224 227.094 223.532 227.094C219.844 227.094 216.849 230.083 216.849 233.771C216.849 237.464 219.844 240.453 223.532 240.453ZM44.8753 29.6458C45.3857 29.6458 45.8857 29.6198 46.3805 29.5677C41.917 39.1979 43.8597 51.1198 45.5993 54.0156L47.943 52.75L50.4743 57.2604C50.4743 57.2604 53.542 52.5677 55.7087 47.3333C57.8701 42.099 59.6774 31.0833 59.6774 31.0833C59.6774 31.0833 71.2243 33.2448 82.0576 31.2656C92.891 29.276 90.9014 26.0312 90.9014 26.0312C90.9014 26.0312 82.5993 12.1406 61.1149 17.5469C60.3805 17.7292 59.6774 17.9479 58.9951 18.1823C59.1982 17.224 59.3076 16.2187 59.3076 15.1979C59.3076 7.22917 52.8441 0.765625 44.8753 0.765625C36.9014 0.765625 30.4274 7.22917 30.4274 15.2083C30.4274 23.1823 36.891 29.6458 44.8753 29.6458ZM92.7347 43.4271C92.766 43.4167 96.1253 42.2917 99.4118 44.2708C99.5212 44.3333 99.6305 44.3594 99.7347 44.3594C99.9535 44.3594 100.167 44.2448 100.287 44.0521C100.469 43.75 100.375 43.3646 100.068 43.1823C96.2503 40.8854 92.4691 42.1719 92.3128 42.224C91.9847 42.3333 91.8076 42.7031 91.9222 43.0312C92.0368 43.3646 92.4014 43.5417 92.7347 43.4271ZM64.4743 45.2396C64.2087 45.474 64.2035 45.875 64.4378 46.1406C64.5576 46.276 64.7347 46.3385 64.9066 46.3385C65.068 46.3385 65.2139 46.2865 65.3337 46.1719C65.3805 46.1302 69.8128 42.125 75.5264 44.1406C75.8545 44.2552 76.2191 44.0781 76.3337 43.75C76.4482 43.4167 76.2764 43.0521 75.943 42.9375C69.5212 40.6771 64.6826 45.0573 64.4743 45.2396ZM247.729 192.708C251.417 192.708 254.412 189.719 254.412 186.026C254.412 182.339 251.417 179.344 247.729 179.344C244.037 179.344 241.047 182.339 241.047 186.026C241.047 189.719 244.037 192.708 247.729 192.708Z" fill="#690061"/>
</g>
</svg>
