<svg width="37" height="35" viewBox="0 0 37 35" fill="none" xmlns="http://www.w3.org/2000/svg">
<mask id="mask0_113_4862" style="mask-type:luminance" maskUnits="userSpaceOnUse" x="0" y="0" width="37" height="35">
<path d="M0.0415039 0.09375H36.0415V34.6667H0.0415039V0.09375Z" fill="white"/>
</mask>
<g mask="url(#mask0_113_4862)">
<path d="M35.6457 32.2969L27.7655 24.4167C29.604 21.8907 30.6873 18.7813 30.6873 15.4219C30.6873 6.974 23.8123 0.098999 15.3644 0.098999C6.9165 0.098999 0.0415039 6.974 0.0415039 15.4219C0.0415039 23.8698 6.9165 30.7448 15.3644 30.7448C19.4634 30.7448 23.1925 29.1302 25.9425 26.5L33.6925 34.25C33.9634 34.5209 34.3175 34.6511 34.6717 34.6511C35.0259 34.6511 35.3748 34.5209 35.6457 34.25C36.1873 33.7084 36.1873 32.8386 35.6457 32.2969ZM15.3644 27.9844C8.43734 27.9844 2.80192 22.349 2.80192 15.4219C2.80192 8.49483 8.43734 2.85942 15.3644 2.85942C22.2915 2.85942 27.9269 8.49483 27.9269 15.4219C27.9269 22.349 22.2915 27.9844 15.3644 27.9844Z" fill="#690061"/>
</g>
</svg>
