<svg width="22" height="24" viewBox="0 0 22 24" fill="none" xmlns="http://www.w3.org/2000/svg">
<path d="M11.2185 23.4159C8.91121 23.4159 6.96851 22.8691 5.38517 21.7701C3.81226 20.6607 2.64038 19.2076 1.86434 17.4159C1.09871 15.6243 0.718506 13.7284 0.718506 11.7284C0.718506 9.71802 1.09871 7.82219 1.86434 6.04093C2.64038 4.26489 3.82267 2.82739 5.40601 1.72843C6.99976 0.61906 8.95288 0.0617676 11.2602 0.0617676C14.2706 0.0617676 16.682 1.07218 18.4893 3.0826C20.2914 5.09823 21.1977 7.99406 21.1977 11.7701V12.8118H4.38517V13.1034C4.38517 14.3534 4.66642 15.5357 5.23934 16.6451C5.80705 17.7597 6.60392 18.6555 7.63517 19.3326C8.66121 20.0149 9.84351 20.3534 11.1768 20.3534C12.6195 20.3534 13.8695 19.9889 14.9268 19.2493C15.9789 18.5149 16.7654 17.5149 17.281 16.2493H20.906C20.307 18.3066 19.1873 20.0149 17.5518 21.3743C15.9112 22.7389 13.8018 23.4159 11.2185 23.4159ZM17.5727 10.2076C17.4581 7.65552 16.8331 5.80656 15.6977 4.66593C14.557 3.53052 13.0623 2.9576 11.2185 2.9576C9.20288 2.9576 7.59871 3.62427 6.40601 4.9576C5.20809 6.29093 4.57267 8.04093 4.48934 10.2076H17.5727Z" fill="black"/>
</svg>
