<svg width="28" height="27" viewBox="0 0 28 27" fill="none" xmlns="http://www.w3.org/2000/svg">
<path d="M13.943 26.4356C11.2451 26.4356 8.86491 25.894 6.7972 24.8106C4.73991 23.7273 3.13053 22.2221 1.96387 20.2898C0.797201 18.3627 0.213867 16.1231 0.213867 13.5815C0.213867 11.0554 0.797201 8.83146 1.96387 6.91479C3.13053 4.99813 4.74512 3.49813 6.81803 2.41479C8.90137 1.33146 11.2868 0.789795 13.9847 0.789795C16.8857 0.789795 19.3857 1.40959 21.4847 2.64396C23.5785 3.88354 25.1722 5.62313 26.2555 7.87313C27.3389 10.1231 27.8024 12.7638 27.6514 15.7898H8.94303C9.27637 17.1127 9.91179 18.1127 10.8597 18.7898C11.8024 19.4565 12.8857 19.7898 14.1097 19.7898C15.068 19.7898 15.943 19.6231 16.7347 19.2898C17.5264 18.946 18.1618 18.4773 18.6514 17.894H27.193C26.1201 20.5919 24.4274 22.6856 22.1097 24.1856C19.8024 25.6856 17.0785 26.4356 13.943 26.4356ZM8.9847 11.019H19.2555C18.891 9.89396 18.2764 9.01375 17.4014 8.37313C16.5264 7.72209 15.4118 7.39396 14.068 7.39396C12.8441 7.39396 11.7816 7.70646 10.8805 8.33146C9.97428 8.95646 9.34408 9.85229 8.9847 11.019Z" fill="#690061"/>
</svg>
