<svg width="29" height="30" viewBox="0 0 29 30" fill="none" xmlns="http://www.w3.org/2000/svg">
<path d="M10.8066 29.8879C7.63997 29.8879 5.10352 29.1066 3.20247 27.5337C1.31185 25.966 0.369141 23.841 0.369141 21.1587C0.369141 18.617 1.20768 16.5754 2.88997 15.0337C4.58268 13.4816 6.85872 12.7004 9.72331 12.7004H19.015V11.1379C19.015 10.2368 18.6191 9.48682 17.8275 8.88786C17.0462 8.29411 16.1035 7.99202 14.9941 7.99202C13.9785 7.99202 13.1191 8.25244 12.4108 8.76286C11.7025 9.26286 11.2702 9.91911 11.1191 10.7212H1.72331C2.13997 7.51286 3.47852 5.07015 5.74414 3.38786C8.00456 1.69515 11.0775 0.846191 14.9525 0.846191C19.4108 0.846191 22.8275 1.91911 25.2025 4.05452C27.5879 6.19515 28.7858 9.23682 28.7858 13.1795V29.2629H21.5775L20.4733 26.242C18.041 28.6743 14.8171 29.8879 10.8066 29.8879ZM10.1816 20.7004C10.1816 21.466 10.515 22.0858 11.1816 22.5545C11.8483 23.0285 12.7129 23.2629 13.7858 23.2629C15.3275 23.2629 16.5983 22.7941 17.5983 21.8462C18.6087 20.9035 19.1191 19.6795 19.1191 18.1795H13.6816C12.6087 18.1795 11.7546 18.4035 11.1191 18.8462C10.4941 19.2785 10.1816 19.8983 10.1816 20.7004Z" fill="#690061"/>
</svg>
