<svg width="17" height="19" viewBox="0 0 17 19" fill="none" xmlns="http://www.w3.org/2000/svg">
<path d="M7.4515 18.4714C5.9515 18.4714 4.67025 18.0911 3.61816 17.3255C2.56087 16.5495 1.75358 15.5026 1.2015 14.1797C0.644205 12.862 0.368164 11.3672 0.368164 9.70052C0.368164 8.03385 0.649415 6.53385 1.22233 5.20052C1.79004 3.86719 2.60775 2.82552 3.68066 2.07552C4.764 1.3151 6.04525 0.929688 7.53483 0.929688C9.03483 0.929688 10.2432 1.28385 11.1598 1.99219C12.0765 2.6901 12.7692 3.52865 13.2432 4.51302H13.4515V1.38802H16.2432V18.2422H13.4515V14.7839H13.2432C12.7275 15.7839 11.9984 16.6536 11.0557 17.388C10.1234 18.112 8.92025 18.4714 7.4515 18.4714ZM8.30566 16.0964C9.94108 16.0964 11.2015 15.487 12.0765 14.263C12.9515 13.0286 13.389 11.5078 13.389 9.70052C13.389 7.88281 12.9515 6.36198 12.0765 5.13802C11.2015 3.91927 9.94108 3.30469 8.30566 3.30469C6.62337 3.30469 5.34733 3.91927 4.47233 5.13802C3.60775 6.34635 3.18066 7.85677 3.18066 9.65885C3.18066 11.4922 3.60775 13.0286 4.47233 14.263C5.34733 15.487 6.62337 16.0964 8.30566 16.0964Z" fill="black"/>
</svg>
