<svg width="29" height="27" viewBox="0 0 29 27" fill="none" xmlns="http://www.w3.org/2000/svg">
<path d="M14.3215 26.078C11.6235 26.078 9.24333 25.5363 7.17562 24.453C5.11833 23.3696 3.50895 21.8644 2.34229 19.9321C1.17562 18.005 0.592285 15.7655 0.592285 13.2238C0.592285 10.6978 1.17562 8.4738 2.34229 6.55713C3.50895 4.64046 5.12354 3.14046 7.19645 2.05713C9.27979 0.973796 11.6652 0.432129 14.3631 0.432129C17.2642 0.432129 19.7642 1.05192 21.8631 2.2863C23.9569 3.52588 25.5506 5.26546 26.634 7.51546C27.7173 9.76546 28.1808 12.4061 28.0298 15.4321H9.32145C9.65479 16.755 10.2902 17.755 11.2381 18.4321C12.1808 19.0988 13.2642 19.4321 14.4881 19.4321C15.4465 19.4321 16.3215 19.2655 17.1131 18.9321C17.9048 18.5884 18.5402 18.1196 19.0298 17.5363H27.5715C26.4985 20.2342 24.8058 22.328 22.4881 23.828C20.1808 25.328 17.4569 26.078 14.3215 26.078ZM9.36312 10.6613H19.634C19.2694 9.5363 18.6548 8.65609 17.7798 8.01546C16.9048 7.36442 15.7902 7.0363 14.4465 7.0363C13.2225 7.0363 12.16 7.3488 11.259 7.9738C10.3527 8.5988 9.72249 9.49463 9.36312 10.6613Z" fill="#690061"/>
</svg>
