<svg width="79" height="74" viewBox="0 0 79 74" fill="none" xmlns="http://www.w3.org/2000/svg">
<path d="M64.9679 55.9957V32.9749L46.4887 70.0582C46.3637 70.4228 46.0929 70.5999 45.6762 70.5999H34.5095C34.0356 70.5999 33.7387 70.4228 33.6137 70.0582L13.947 31.9749V72.6832C13.947 73.2249 13.6137 73.4957 12.947 73.4957H0.988688C0.374104 73.4957 0.0720215 73.2249 0.0720215 72.6832V1.78735C0.0720215 1.24569 0.374104 0.974854 0.988688 0.974854H13.1345C13.6033 0.974854 13.9054 1.15715 14.0304 1.51652L40.0512 54.6415L64.8012 1.51652C65.0356 1.15715 65.3637 0.974854 65.7804 0.974854H77.7595C78.4262 0.974854 78.7595 1.24569 78.7595 1.78735V55.9957H64.9679Z" fill="#562A2A" fill-opacity="0.302"/>
</svg>
