<svg width="18" height="25" viewBox="0 0 18 25" fill="none" xmlns="http://www.w3.org/2000/svg">
<path d="M9.35384 24.3557C7.53092 24.3557 5.95801 23.9963 4.62467 23.2724C3.29134 22.5536 2.27051 21.6213 1.56217 20.4807C0.864257 19.3453 0.520508 18.1474 0.520508 16.8974V16.689H4.18717V16.8557C4.18717 17.564 4.38509 18.2672 4.79134 18.9599C5.19238 19.6578 5.79134 20.2255 6.58301 20.6682C7.37467 21.1161 8.33822 21.3349 9.47884 21.3349C10.8538 21.3349 11.984 21.0015 12.8747 20.3349C13.7757 19.6682 14.2288 18.7515 14.2288 17.5849C14.2288 16.6161 13.8747 15.8453 13.1663 15.2724C12.4684 14.7047 11.6038 14.3349 10.5622 14.1682L7.60384 13.7307C5.75488 13.4547 4.20801 12.8297 2.95801 11.8557C1.70801 10.8713 1.08301 9.43384 1.08301 7.54321C1.08301 5.4755 1.82259 3.86613 3.31217 2.70988C4.81217 1.55884 6.72884 0.980713 9.06217 0.980713C10.7965 0.980713 12.2809 1.30363 13.5205 1.93905C14.7549 2.57967 15.6976 3.41821 16.3538 4.45988C17.0049 5.50155 17.333 6.63696 17.333 7.85571V8.02238H13.6663V7.93905C13.6663 7.37134 13.5101 6.77238 13.208 6.14738C12.9163 5.52238 12.4163 4.98071 11.708 4.52238C10.9997 4.06405 10.0882 3.83488 8.97884 3.83488C7.61426 3.83488 6.52051 4.17863 5.68717 4.85571C4.86426 5.52238 4.45801 6.39217 4.45801 7.45988C4.45801 8.3505 4.78092 9.07967 5.43717 9.64738C6.08822 10.2203 6.91634 10.5849 7.91634 10.7515L11.1038 11.2724C12.9788 11.5797 14.5518 12.2255 15.833 13.2099C17.1247 14.1838 17.7705 15.6265 17.7705 17.5432C17.7705 18.9078 17.4007 20.1005 16.6663 21.1265C15.9424 22.1422 14.9424 22.9338 13.6663 23.5015C12.3851 24.0693 10.9476 24.3557 9.35384 24.3557Z" fill="#690061"/>
</svg>
