<svg width="18" height="25" viewBox="0 0 18 25" fill="none" xmlns="http://www.w3.org/2000/svg">
<path d="M9.51351 24.3557C7.69059 24.3557 6.11768 23.9963 4.78434 23.2724C3.45101 22.5536 2.43018 21.6213 1.72184 20.4807C1.02393 19.3453 0.680176 18.1474 0.680176 16.8974V16.689H4.34684V16.8557C4.34684 17.564 4.54476 18.2672 4.95101 18.9599C5.35205 19.6578 5.95101 20.2255 6.74268 20.6682C7.53434 21.1161 8.49788 21.3349 9.63851 21.3349C11.0135 21.3349 12.1437 21.0015 13.0343 20.3349C13.9354 19.6682 14.3885 18.7515 14.3885 17.5849C14.3885 16.6161 14.0343 15.8453 13.326 15.2724C12.6281 14.7047 11.7635 14.3349 10.7218 14.1682L7.76351 13.7307C5.91455 13.4547 4.36768 12.8297 3.11768 11.8557C1.86768 10.8713 1.24268 9.43384 1.24268 7.54321C1.24268 5.4755 1.98226 3.86613 3.47184 2.70988C4.97184 1.55884 6.88851 0.980713 9.22184 0.980713C10.9562 0.980713 12.4406 1.30363 13.6802 1.93905C14.9146 2.57967 15.8573 3.41821 16.5135 4.45988C17.1646 5.50155 17.4927 6.63696 17.4927 7.85571V8.02238H13.826V7.93905C13.826 7.37134 13.6698 6.77238 13.3677 6.14738C13.076 5.52238 12.576 4.98071 11.8677 4.52238C11.1593 4.06405 10.2479 3.83488 9.13851 3.83488C7.77393 3.83488 6.68018 4.17863 5.84684 4.85571C5.02393 5.52238 4.61768 6.39217 4.61768 7.45988C4.61768 8.3505 4.94059 9.07967 5.59684 9.64738C6.24788 10.2203 7.07601 10.5849 8.07601 10.7515L11.2635 11.2724C13.1385 11.5797 14.7114 12.2255 15.9927 13.2099C17.2843 14.1838 17.9302 15.6265 17.9302 17.5432C17.9302 18.9078 17.5604 20.1005 16.826 21.1265C16.1021 22.1422 15.1021 22.9338 13.826 23.5015C12.5448 24.0693 11.1073 24.3557 9.51351 24.3557Z" fill="#690061"/>
</svg>
