<svg width="26" height="26" viewBox="0 0 26 26" fill="none" xmlns="http://www.w3.org/2000/svg">
<path d="M0.354492 25.7523V1.48145H6.66699L7.58366 3.96061C8.46908 2.9502 9.60449 2.16895 10.9795 1.62728C12.3545 1.0752 13.8545 0.793945 15.4795 0.793945C18.6045 0.793945 21.0732 1.7679 22.8962 3.71061C24.7139 5.65853 25.6253 8.26269 25.6253 11.5231V25.7523H16.8128V12.4398C16.8128 11.0127 16.4795 9.92936 15.8128 9.18978C15.1566 8.4554 14.2555 8.08561 13.1045 8.08561C11.8805 8.08561 10.917 8.49186 10.2087 9.29395C9.50033 10.0856 9.14616 11.2106 9.14616 12.6689V25.7523H0.354492Z" fill="#690061"/>
</svg>
