<svg width="14" height="19" viewBox="0 0 14 19" fill="none" xmlns="http://www.w3.org/2000/svg">
<path d="M7.54346 18.4714C6.16846 18.4714 4.98096 18.2005 3.98096 17.6589C2.98096 17.1068 2.21533 16.4036 1.68929 15.5547C1.17367 14.7109 0.918457 13.8151 0.918457 12.8672V12.7005H3.66846V12.8255C3.66846 13.3672 3.81429 13.9036 4.10596 14.4297C4.40804 14.9453 4.86117 15.3672 5.46012 15.7005C6.05387 16.0339 6.77783 16.2005 7.62679 16.2005C8.65283 16.2005 9.50179 15.9505 10.1685 15.4505C10.8455 14.9505 11.1893 14.263 11.1893 13.388C11.1893 12.6536 10.9237 12.0755 10.3976 11.6589C9.882 11.2318 9.23096 10.9505 8.43929 10.8255L6.23096 10.4922C4.84033 10.2839 3.67367 9.81511 2.73096 9.07552C1.79867 8.34115 1.33512 7.27344 1.33512 5.86719C1.33512 4.29948 1.88721 3.08594 3.00179 2.22135C4.12679 1.36198 5.56429 0.929688 7.31429 0.929688C8.61637 0.929688 9.73096 1.17448 10.6476 1.65885C11.5747 2.13281 12.283 2.75781 12.7726 3.53385C13.2726 4.3151 13.5226 5.15885 13.5226 6.07552V6.20052H10.7726V6.13802C10.7726 5.72135 10.658 5.27865 10.4393 4.80469C10.2153 4.33594 9.83512 3.92969 9.29346 3.59635C8.76221 3.2526 8.08512 3.07552 7.25179 3.07552C6.22054 3.07552 5.39762 3.32552 4.77262 3.82552C4.15804 4.32552 3.85596 4.98177 3.85596 5.78385C3.85596 6.45052 4.09554 7.0026 4.58512 7.42969C5.08512 7.86198 5.69971 8.13802 6.43929 8.26302L8.85596 8.63802C10.257 8.8776 11.4393 9.36198 12.3976 10.0964C13.356 10.8359 13.8351 11.9193 13.8351 13.3464C13.8351 14.3776 13.5643 15.2734 13.0226 16.0339C12.481 16.7995 11.731 17.3984 10.7726 17.8255C9.81429 18.2526 8.73617 18.4714 7.54346 18.4714Z" fill="black"/>
</svg>
