<svg width="15" height="20" viewBox="0 0 15 20" fill="none" xmlns="http://www.w3.org/2000/svg">
<path d="M7.31755 19.4932C5.84359 19.4932 4.55713 19.2015 3.46338 18.6182C2.38005 18.0244 1.55192 17.264 0.984212 16.3473C0.42692 15.4202 0.150879 14.4411 0.150879 13.4098V13.2432H3.13005V13.389C3.13005 13.9619 3.28629 14.5296 3.60921 15.0973C3.94255 15.6702 4.42692 16.1338 5.06755 16.4932C5.71859 16.8577 6.50505 17.0348 7.42171 17.0348C8.53109 17.0348 9.44775 16.764 10.1717 16.2223C10.9061 15.6702 11.2759 14.9202 11.2759 13.9723C11.2759 13.1807 10.9894 12.5557 10.4217 12.0973C9.8488 11.639 9.14046 11.3421 8.29671 11.2015L5.90088 10.8473C4.40088 10.6286 3.14046 10.1182 2.13005 9.3265C1.11442 8.52442 0.609212 7.35775 0.609212 5.8265C0.609212 4.14941 1.21338 2.84212 2.42171 1.90983C3.63005 0.967123 5.18213 0.493164 7.08838 0.493164C8.48942 0.493164 9.69255 0.758789 10.6925 1.28483C11.703 1.80046 12.4738 2.48275 13.005 3.3265C13.5311 4.15983 13.7967 5.0765 13.7967 6.0765V6.2015H10.8175V6.139C10.8175 5.68066 10.6925 5.2015 10.4425 4.7015C10.203 4.19108 9.79671 3.74316 9.21338 3.36816C8.64046 2.99316 7.90609 2.80566 7.00505 2.80566C5.89046 2.80566 5.00505 3.0765 4.33838 3.61816C3.67171 4.15983 3.33838 4.87858 3.33838 5.764C3.33838 6.47233 3.5988 7.06608 4.13005 7.53483C4.67171 7.99316 5.34359 8.29525 6.15088 8.43066L8.75505 8.84733C10.2655 9.09733 11.5467 9.62858 12.5884 10.4307C13.63 11.2223 14.1509 12.389 14.1509 13.9307C14.1509 15.0452 13.8488 16.014 13.255 16.8473C12.6717 17.6807 11.8592 18.3369 10.8175 18.8057C9.78629 19.264 8.61963 19.4932 7.31755 19.4932Z" fill="black"/>
</svg>
