<svg width="12" height="14" viewBox="0 0 12 14" fill="none" xmlns="http://www.w3.org/2000/svg">
<path d="M5.89266 13.8498C4.60099 13.8498 3.50724 13.5373 2.62183 12.9123C1.7312 12.2873 1.06974 11.4748 0.64266 10.4748C0.210368 9.4644 -0.00317383 8.39148 -0.00317383 7.26648C-0.00317383 6.14148 0.210368 5.07898 0.64266 4.07898C1.06974 3.07898 1.7312 2.26648 2.62183 1.64148C3.52287 1.01648 4.62183 0.703979 5.91349 0.703979C7.6062 0.703979 8.96037 1.2769 9.97599 2.41231C11.002 3.53731 11.5177 5.17273 11.5177 7.30815V7.87065H2.05933V8.03731C2.05933 8.74565 2.21558 9.41231 2.53849 10.0373C2.8562 10.6623 3.29891 11.1727 3.87183 11.5581C4.45516 11.9331 5.12183 12.1206 5.87183 12.1206C6.68953 12.1206 7.39266 11.9123 7.97599 11.4956C8.56974 11.079 9.01766 10.5269 9.30933 9.82898H11.351C11.002 10.9696 10.3718 11.9279 9.45516 12.704C8.53849 13.4696 7.35099 13.8498 5.89266 13.8498ZM9.47599 6.41231C9.40308 4.9696 9.04891 3.92794 8.41349 3.28731C7.77287 2.6519 6.93433 2.32898 5.89266 2.32898C4.75203 2.32898 3.85099 2.70398 3.18433 3.45398C2.51766 4.20398 2.15308 5.19356 2.10099 6.41231H9.47599Z" fill="black"/>
</svg>
