<svg width="12" height="14" viewBox="0 0 12 14" fill="none" xmlns="http://www.w3.org/2000/svg">
<path d="M5.98421 13.0671C4.70296 13.0671 3.63005 12.7754 2.75505 12.1921C1.89046 11.6088 1.25505 10.8483 0.838379 9.90043C0.421712 8.95772 0.213379 7.9421 0.213379 6.85876C0.213379 5.76502 0.421712 4.74418 0.838379 3.79626C1.25505 2.85356 1.89046 2.08793 2.75505 1.5046C3.63005 0.910847 4.71859 0.608765 6.02588 0.608765C7.71859 0.608765 9.05713 1.14522 10.0467 2.21293C11.0467 3.28585 11.5467 4.83272 11.5467 6.85876V7.8171H3.60921V8.0046C3.60921 8.6296 3.82275 9.16606 4.25505 9.60876C4.68213 10.0567 5.23421 10.2754 5.90088 10.2754C6.4113 10.2754 6.84879 10.1608 7.21338 9.92126C7.58838 9.68689 7.84359 9.37439 7.98421 8.98376H11.4634C11.1561 10.1817 10.5311 11.1608 9.58838 11.9213C8.64046 12.6869 7.44255 13.0671 5.98421 13.0671ZM8.17171 5.5671C8.15609 4.74939 7.94775 4.14522 7.54671 3.7546C7.14046 3.35356 6.61442 3.15043 5.96338 3.15043C5.28109 3.15043 4.73942 3.36918 4.33838 3.79626C3.93213 4.21293 3.72379 4.80668 3.71338 5.5671H8.17171Z" fill="black"/>
</svg>
