<svg width="22" height="24" viewBox="0 0 22 24" fill="none" xmlns="http://www.w3.org/2000/svg">
<path d="M9.61914 23.4159C7.61914 23.4159 5.91602 22.9107 4.51497 21.895C3.10872 20.869 2.03581 19.4732 1.28581 17.7075C0.546225 15.9471 0.181641 13.9523 0.181641 11.7284C0.181641 9.52004 0.556641 7.53046 1.30664 5.74921C2.06706 3.97317 3.16602 2.58254 4.59831 1.58254C6.02539 0.572124 7.74414 0.0617065 9.74414 0.0617065C11.7285 0.0617065 13.3327 0.535665 14.5566 1.47837C15.7754 2.41067 16.7025 3.53046 17.3275 4.83254H17.6191V0.64504H21.3483V23.1242H17.6191V18.52H17.3275C16.6452 19.8534 15.6816 21.0096 14.4316 21.9784C13.1816 22.9367 11.5775 23.4159 9.61914 23.4159ZM10.765 20.27C12.9421 20.27 14.6191 19.4523 15.7858 17.8117C16.9525 16.1763 17.5358 14.145 17.5358 11.7284C17.5358 9.31171 16.9525 7.29087 15.7858 5.66587C14.6191 4.03046 12.9421 3.20754 10.765 3.20754C8.51497 3.20754 6.81185 4.02004 5.66081 5.64504C4.50456 7.25962 3.93164 9.27004 3.93164 11.6867C3.93164 14.1346 4.50456 16.1763 5.66081 17.8117C6.81185 19.4523 8.51497 20.27 10.765 20.27Z" fill="black"/>
</svg>
