<svg width="28" height="27" viewBox="0 0 28 27" fill="none" xmlns="http://www.w3.org/2000/svg">
<path d="M14.0002 26.0738C11.2763 26.0738 8.87524 25.5321 6.79191 24.4488C4.719 23.3655 3.10441 21.8551 1.93774 19.9071C0.771078 17.9644 0.187744 15.7353 0.187744 13.2196C0.187744 10.7196 0.776286 8.52173 1.95858 6.61548C3.13566 4.69881 4.76066 3.1936 6.83358 2.09465C8.91691 0.985271 11.3023 0.427979 14.0002 0.427979C16.3857 0.427979 18.5315 0.860271 20.4377 1.71965C22.3544 2.5686 23.9273 3.77694 25.1669 5.34465C26.4013 6.90194 27.193 8.73527 27.5419 10.8446H19.2711C18.7815 9.8759 18.0888 9.11027 17.1877 8.55298C16.2815 8.0009 15.2502 7.71965 14.0836 7.71965C12.5263 7.71965 11.2555 8.23527 10.2711 9.26131C9.29712 10.2926 8.81274 11.6103 8.81274 13.2196C8.81274 14.8759 9.29712 16.2144 10.2711 17.2405C11.2555 18.2717 12.5263 18.7821 14.0836 18.7821C15.344 18.7821 16.443 18.4644 17.3752 17.8238C18.3023 17.1728 18.9846 16.2978 19.4169 15.1988H27.7711C27.3961 17.4071 26.5836 19.3342 25.3336 20.9696C24.0836 22.5946 22.4898 23.8551 20.5627 24.7405C18.6305 25.6259 16.443 26.0738 14.0002 26.0738Z" fill="#690061"/>
</svg>
