<svg width="16" height="24" viewBox="0 0 16 24" fill="none" xmlns="http://www.w3.org/2000/svg">
<path d="M0.793457 0.107666H3.54346V10.1702H3.81429C4.23096 9.20142 4.91846 8.3785 5.87679 7.71183C6.84554 7.03475 8.02262 6.691 9.39762 6.691C10.8247 6.691 12.0226 7.03475 12.981 7.71183C13.9497 8.3785 14.6685 9.26392 15.1268 10.3577C15.5851 11.4566 15.8143 12.6441 15.8143 13.9202V24.0035H13.0435V14.2743C13.0435 12.6077 12.6112 11.3368 11.7518 10.4618C10.8872 9.58683 9.74137 9.14933 8.31429 9.14933C6.94971 9.14933 5.81429 9.60767 4.89762 10.5243C3.99137 11.441 3.54346 12.691 3.54346 14.2743V24.0035H0.793457V0.107666Z" fill="black"/>
</svg>
