<svg width="22" height="24" viewBox="0 0 22 24" fill="none" xmlns="http://www.w3.org/2000/svg">
<path d="M9.46533 23.4159C7.46533 23.4159 5.76221 22.9107 4.36117 21.895C2.95491 20.869 1.882 19.4732 1.132 17.7075C0.392416 15.9471 0.027832 13.9523 0.027832 11.7284C0.027832 9.52004 0.402832 7.53046 1.15283 5.74921C1.91325 3.97317 3.01221 2.58254 4.4445 1.58254C5.87158 0.572124 7.59033 0.0617065 9.59033 0.0617065C11.5747 0.0617065 13.1789 0.535665 14.4028 1.47837C15.6216 2.41067 16.5487 3.53046 17.1737 4.83254H17.4653V0.64504H21.1945V23.1242H17.4653V18.52H17.1737C16.4914 19.8534 15.5278 21.0096 14.2778 21.9784C13.0278 22.9367 11.4237 23.4159 9.46533 23.4159ZM10.6112 20.27C12.7882 20.27 14.4653 19.4523 15.632 17.8117C16.7987 16.1763 17.382 14.145 17.382 11.7284C17.382 9.31171 16.7987 7.29087 15.632 5.66587C14.4653 4.03046 12.7882 3.20754 10.6112 3.20754C8.36117 3.20754 6.65804 4.02004 5.507 5.64504C4.35075 7.25962 3.77783 9.27004 3.77783 11.6867C3.77783 14.1346 4.35075 16.1763 5.507 17.8117C6.65804 19.4523 8.36117 20.27 10.6112 20.27Z" fill="black"/>
</svg>
