<svg width="12" height="15" viewBox="0 0 12 15" fill="none" xmlns="http://www.w3.org/2000/svg">
<path d="M0.688477 14.0271V0.922892H2.54264V2.98539L2.79264 3.04789C3.21973 2.28747 3.77181 1.70414 4.43848 1.29789C5.11556 0.896851 5.94889 0.693726 6.93848 0.693726C8.50618 0.693726 9.64681 1.09998 10.3551 1.90206C11.0635 2.69373 11.4176 3.92289 11.4176 5.58956V14.0271H9.48014V5.65206C9.48014 4.86039 9.37598 4.23018 9.16764 3.75623C8.96973 3.27185 8.65723 2.91768 8.23014 2.69373C7.81348 2.47498 7.25618 2.36039 6.56348 2.36039C5.39681 2.36039 4.44368 2.75623 3.70931 3.54789C2.98535 4.32914 2.62598 5.57914 2.62598 7.29789V14.0271H0.688477Z" fill="black"/>
</svg>
