<svg width="17" height="19" viewBox="0 0 17 19" fill="none" xmlns="http://www.w3.org/2000/svg">
<path d="M7.48763 18.4714C5.98763 18.4714 4.70638 18.0911 3.6543 17.3255C2.597 16.5495 1.78971 15.5026 1.23763 14.1797C0.680338 12.862 0.404297 11.3672 0.404297 9.70052C0.404297 8.03385 0.685548 6.53385 1.25846 5.20052C1.82617 3.86719 2.64388 2.82552 3.7168 2.07552C4.80013 1.3151 6.08138 0.929688 7.57096 0.929688C9.07096 0.929688 10.2793 1.28385 11.196 1.99219C12.1126 2.6901 12.8053 3.52865 13.2793 4.51302H13.4876V1.38802H16.2793V18.2422H13.4876V14.7839H13.2793C12.7637 15.7839 12.0345 16.6536 11.0918 17.388C10.1595 18.112 8.95638 18.4714 7.48763 18.4714ZM8.3418 16.0964C9.97721 16.0964 11.2376 15.487 12.1126 14.263C12.9876 13.0286 13.4251 11.5078 13.4251 9.70052C13.4251 7.88281 12.9876 6.36198 12.1126 5.13802C11.2376 3.91927 9.97721 3.30469 8.3418 3.30469C6.6595 3.30469 5.38346 3.91927 4.50846 5.13802C3.64388 6.34635 3.2168 7.85677 3.2168 9.65885C3.2168 11.4922 3.64388 13.0286 4.50846 14.263C5.38346 15.487 6.6595 16.0964 8.3418 16.0964Z" fill="black"/>
</svg>
