<svg width="16" height="25" viewBox="0 0 16 25" fill="none" xmlns="http://www.w3.org/2000/svg">
<path d="M0.364746 0.346313H3.11475V10.4088H3.38558C3.80225 9.44006 4.48975 8.61715 5.44808 7.95048C6.41683 7.2734 7.59391 6.92965 8.96891 6.92965C10.396 6.92965 11.5939 7.2734 12.5522 7.95048C13.521 8.61715 14.2397 9.50256 14.6981 10.5963C15.1564 11.6953 15.3856 12.8828 15.3856 14.1588V24.2421H12.6147V14.513C12.6147 12.8463 12.1825 11.5755 11.3231 10.7005C10.4585 9.82548 9.31266 9.38798 7.88558 9.38798C6.521 9.38798 5.38558 9.84631 4.46891 10.763C3.56266 11.6796 3.11475 12.9296 3.11475 14.513V24.2421H0.364746V0.346313Z" fill="black"/>
</svg>
