<svg width="75" height="69" viewBox="0 0 75 69" fill="none" xmlns="http://www.w3.org/2000/svg">
<path d="M37.348 68.2999C29.9417 68.2999 23.4365 66.8885 17.8271 64.0707C12.2282 61.253 7.87923 57.2895 4.78548 52.1749C1.68652 47.0499 0.139648 41.1489 0.139648 34.4666C0.139648 27.7895 1.68652 21.9145 4.78548 16.8416C7.87923 11.7582 12.2282 7.81032 17.8271 4.98741C23.4365 2.1697 29.9417 0.75824 37.348 0.75824C44.7646 0.75824 51.249 2.1697 56.8063 4.98741C62.3584 7.81032 66.6865 11.7582 69.7855 16.8416C72.8949 21.9145 74.4521 27.7895 74.4521 34.4666C74.4521 41.1489 72.8949 47.0499 69.7855 52.1749C66.6865 57.2895 62.3584 61.253 56.8063 64.0707C51.249 66.8885 44.7646 68.2999 37.348 68.2999ZM22.848 34.4666C22.848 38.7322 24.2126 42.2374 26.9521 44.9874C29.7021 47.727 33.1657 49.0916 37.348 49.0916C41.624 49.0916 45.0876 47.727 47.7438 44.9874C50.3949 42.2374 51.723 38.7322 51.723 34.4666C51.723 30.2062 50.3949 26.727 47.7438 24.0291C45.0876 21.3207 41.624 19.9666 37.348 19.9666C33.1657 19.9666 29.7021 21.3207 26.9521 24.0291C24.2126 26.727 22.848 30.2062 22.848 34.4666Z" fill="#690061"/>
</svg>
