<svg width="13" height="18" viewBox="0 0 13 18" fill="none" xmlns="http://www.w3.org/2000/svg">
<path d="M0.447266 0.0574951H4.19727V7.01583H4.38477C4.64518 6.4325 5.08268 5.94291 5.69727 5.53666C6.32227 5.12 7.07227 4.91166 7.94727 4.91166C9.61393 4.91166 10.765 5.44291 11.4056 6.495C12.041 7.53666 12.3639 8.70333 12.3639 9.995V17.87H8.63477V10.6408C8.63477 9.8075 8.44727 9.15645 8.07227 8.6825C7.70768 8.19812 7.16081 7.95333 6.42643 7.95333C5.68685 7.95333 5.13477 8.20333 4.75977 8.70333C4.38477 9.20333 4.19727 9.84916 4.19727 10.6408V17.87H0.447266V0.0574951Z" fill="black"/>
</svg>
