<svg width="21" height="24" viewBox="0 0 21 24" fill="none" xmlns="http://www.w3.org/2000/svg">
<path d="M10.813 23.4159C8.5057 23.4159 6.56299 22.869 4.97966 21.77C3.40674 20.6607 2.23486 19.2075 1.45882 17.4159C0.693196 15.6242 0.312988 13.7284 0.312988 11.7284C0.312988 9.71796 0.693196 7.82212 1.45882 6.04087C2.23486 4.26483 3.41716 2.82733 5.00049 1.72837C6.59424 0.618999 8.54736 0.0617065 10.8547 0.0617065C13.8651 0.0617065 16.2765 1.07212 18.0838 3.08254C19.8859 5.09817 20.7922 7.994 20.7922 11.77V12.8117H3.97966V13.1034C3.97966 14.3534 4.26091 15.5357 4.83382 16.645C5.40153 17.7596 6.1984 18.6555 7.22966 19.3325C8.2557 20.0148 9.43799 20.3534 10.7713 20.3534C12.214 20.3534 13.464 19.9888 14.5213 19.2492C15.5734 18.5148 16.3599 17.5148 16.8755 16.2492H20.5005C19.9015 18.3065 18.7817 20.0148 17.1463 21.3742C15.5057 22.7388 13.3963 23.4159 10.813 23.4159ZM17.1672 10.2075C17.0526 7.65546 16.4276 5.8065 15.2922 4.66587C14.1515 3.53046 12.6567 2.95754 10.813 2.95754C8.79736 2.95754 7.1932 3.62421 6.00049 4.95754C4.80257 6.29087 4.16716 8.04087 4.08382 10.2075H17.1672Z" fill="black"/>
</svg>
