<svg width="14" height="31" viewBox="0 0 14 31" fill="none" xmlns="http://www.w3.org/2000/svg">
<path d="M8.15194 10.5826V23.6451C8.15194 24.7024 8.19881 25.4784 8.29777 25.9784C8.39152 26.468 8.66235 26.8534 9.11027 27.1451C9.55298 27.4263 10.2769 27.5617 11.2769 27.5617C11.954 27.5617 12.6936 27.468 13.4853 27.2701V29.9159C13.2874 29.9992 12.8499 30.0826 12.1728 30.1659C11.5061 30.2492 10.8186 30.2909 10.1103 30.2909C8.46965 30.2909 7.24048 30.0617 6.42277 29.6034C5.61548 29.1347 5.08944 28.494 4.83944 27.6867C4.59985 26.869 4.48527 25.7909 4.48527 24.4576V10.5826H0.318604V7.64508H4.48527V0.270081H8.15194V7.64508H13.4853V10.5826H8.15194Z" fill="black"/>
</svg>
