<svg width="17" height="19" viewBox="0 0 17 19" fill="none" xmlns="http://www.w3.org/2000/svg">
<path d="M7.4598 18.4714C5.9598 18.4714 4.67855 18.0911 3.62646 17.3255C2.56917 16.5495 1.76188 15.5026 1.2098 14.1797C0.652506 12.862 0.376465 11.3672 0.376465 9.70052C0.376465 8.03385 0.657716 6.53385 1.23063 5.20052C1.79834 3.86719 2.61605 2.82552 3.68896 2.07552C4.7723 1.3151 6.05355 0.929688 7.54313 0.929688C9.04313 0.929688 10.2515 1.28385 11.1681 1.99219C12.0848 2.6901 12.7775 3.52865 13.2515 4.51302H13.4598V1.38802H16.2515V18.2422H13.4598V14.7839H13.2515C12.7358 15.7839 12.0067 16.6536 11.064 17.388C10.1317 18.112 8.92855 18.4714 7.4598 18.4714ZM8.31396 16.0964C9.94938 16.0964 11.2098 15.487 12.0848 14.263C12.9598 13.0286 13.3973 11.5078 13.3973 9.70052C13.3973 7.88281 12.9598 6.36198 12.0848 5.13802C11.2098 3.91927 9.94938 3.30469 8.31396 3.30469C6.63167 3.30469 5.35563 3.91927 4.48063 5.13802C3.61605 6.34635 3.18896 7.85677 3.18896 9.65885C3.18896 11.4922 3.61605 13.0286 4.48063 14.263C5.35563 15.487 6.63167 16.0964 8.31396 16.0964Z" fill="black"/>
</svg>
