<svg width="14" height="31" viewBox="0 0 14 31" fill="none" xmlns="http://www.w3.org/2000/svg">
<path d="M8.67074 10.5825V23.645C8.67074 24.7023 8.71761 25.4784 8.81657 25.9784C8.91032 26.4679 9.18115 26.8534 9.62907 27.145C10.0718 27.4263 10.7957 27.5617 11.7957 27.5617C12.4728 27.5617 13.2124 27.4679 14.0041 27.27V29.9159C13.8062 29.9992 13.3687 30.0825 12.6916 30.1659C12.0249 30.2492 11.3374 30.2909 10.6291 30.2909C8.98844 30.2909 7.75928 30.0617 6.94157 29.6034C6.13428 29.1346 5.60824 28.494 5.35824 27.6867C5.11865 26.869 5.00407 25.7909 5.00407 24.4575V10.5825H0.837402V7.64502H5.00407V0.27002H8.67074V7.64502H14.0041V10.5825H8.67074Z" fill="black"/>
</svg>
