<svg width="17" height="19" viewBox="0 0 17 19" fill="none" xmlns="http://www.w3.org/2000/svg">
<path d="M8.49479 18.4714C6.78646 18.4714 5.33333 18.0651 4.14062 17.2422C2.95833 16.4089 2.06771 15.3255 1.47396 13.9922C0.875 12.6589 0.578125 11.2318 0.578125 9.70052C0.578125 8.15885 0.875 6.72135 1.47396 5.38802C2.06771 4.05469 2.95833 2.98177 4.14062 2.15885C5.33333 1.34115 6.78646 0.929688 8.49479 0.929688C10.2031 0.929688 11.6458 1.34115 12.8281 2.15885C14.0052 2.98177 14.8906 4.0651 15.474 5.40885C16.0677 6.75781 16.3698 8.1901 16.3698 9.70052C16.3698 11.2161 16.0677 12.6484 15.474 13.9922C14.875 15.3255 13.9792 16.4089 12.7865 17.2422C11.6042 18.0651 10.1719 18.4714 8.49479 18.4714ZM8.49479 16.0964C9.53646 16.0964 10.4427 15.8151 11.224 15.2422C12 14.6589 12.5885 13.8828 12.9948 12.9089C13.3958 11.9401 13.599 10.8568 13.599 9.65885C13.599 7.82552 13.1406 6.30469 12.224 5.09635C11.3073 3.8776 10.0625 3.26302 8.49479 3.26302C7.42187 3.26302 6.5 3.55469 5.72396 4.13802C4.94271 4.71094 4.34896 5.48177 3.93229 6.45052C3.52604 7.42448 3.32812 8.49219 3.32812 9.65885C3.32812 11.4922 3.78646 13.0286 4.70312 14.263C5.63021 15.487 6.89583 16.0964 8.49479 16.0964Z" fill="black"/>
</svg>
