<svg width="11" height="15" viewBox="0 0 11 15" fill="none" xmlns="http://www.w3.org/2000/svg">
<path d="M0.225098 14.0271V0.922892H2.07926V2.98539L2.32926 3.04789C2.75635 2.28747 3.30843 1.70414 3.9751 1.29789C4.65218 0.896851 5.48552 0.693726 6.4751 0.693726C8.04281 0.693726 9.18343 1.09998 9.89176 1.90206C10.6001 2.69373 10.9543 3.92289 10.9543 5.58956V14.0271H9.01676V5.65206C9.01676 4.86039 8.9126 4.23018 8.70426 3.75623C8.50635 3.27185 8.19385 2.91768 7.76676 2.69373C7.3501 2.47498 6.79281 2.36039 6.1001 2.36039C4.93343 2.36039 3.98031 2.75623 3.24593 3.54789C2.52197 4.32914 2.1626 5.57914 2.1626 7.29789V14.0271H0.225098Z" fill="black"/>
</svg>
