<svg width="12" height="18" viewBox="0 0 12 18" fill="none" xmlns="http://www.w3.org/2000/svg">
<path d="M5.98861 14.5046C5.73861 15.0879 5.49902 15.5567 5.28027 15.9213C5.07194 16.2963 4.71777 16.6504 4.21777 16.9838C3.71777 17.3171 3.06152 17.4838 2.25944 17.4838C1.84277 17.4838 1.38965 17.4213 0.905273 17.2963V15.8588C1.26465 15.9108 1.58236 15.9421 1.86361 15.9421C2.36361 15.9421 2.75944 15.8431 3.05111 15.6504C3.35319 15.4681 3.59277 15.2233 3.75944 14.9213C3.93652 14.614 4.15527 14.1765 4.40527 13.6088L4.94694 12.2754L0.530273 0.921265H2.55111L5.88444 10.1088H6.03027L9.50944 0.921265H11.5511L5.98861 14.5046Z" fill="black"/>
</svg>
