<svg width="18" height="27" viewBox="0 0 18 27" fill="none" xmlns="http://www.w3.org/2000/svg">
<path d="M8.46566 26.4932C6.85108 26.4932 5.47087 26.0765 4.31982 25.2432C3.1792 24.4098 2.30941 23.2796 1.71566 21.8473C1.1167 20.4202 0.819824 18.8005 0.819824 16.9932C0.819824 15.1598 1.1167 13.5296 1.71566 12.0973C2.30941 10.6702 3.18441 9.54525 4.34066 8.72233C5.4917 7.90462 6.89274 7.49316 8.54899 7.49316C10.1584 7.49316 11.4657 7.88379 12.4657 8.65983C13.4761 9.42546 14.2261 10.3265 14.7157 11.3682H14.9865V0.243164H17.9657V26.2432H14.9865V22.4932H14.7157C14.1584 23.6077 13.3719 24.5505 12.3615 25.3265C11.3615 26.1077 10.0594 26.4932 8.46566 26.4932ZM9.38232 23.9307C11.174 23.9307 12.5386 23.264 13.4865 21.9307C14.4448 20.5973 14.924 18.9515 14.924 16.9932C14.924 15.0244 14.4448 13.3838 13.4865 12.0765C12.5386 10.7588 11.174 10.0973 9.38232 10.0973C7.54899 10.0973 6.16357 10.7588 5.23649 12.0765C4.31982 13.3838 3.86149 15.0244 3.86149 16.9932C3.86149 18.9827 4.32503 20.6338 5.25732 21.9515C6.20003 23.2744 7.57503 23.9307 9.38232 23.9307Z" fill="black"/>
</svg>
