<svg width="13" height="15" viewBox="0 0 13 15" fill="none" xmlns="http://www.w3.org/2000/svg">
<path d="M6.59652 14.4773C5.35693 14.4773 4.28402 14.222 3.36735 13.7064C2.45068 13.1804 1.74235 12.4095 1.24235 11.3939C0.752766 10.3679 0.513184 9.1335 0.513184 7.68559C0.513184 6.24288 0.752766 5.01371 1.24235 3.99809C1.74235 2.97205 2.45068 2.20121 3.36735 1.68559C4.28402 1.15955 5.35693 0.893921 6.59652 0.893921C7.83089 0.893921 8.8986 1.15955 9.80485 1.68559C10.7215 2.20121 11.4194 2.97205 11.909 3.99809C12.409 5.01371 12.659 6.24288 12.659 7.68559C12.659 9.1335 12.409 10.3679 11.909 11.3939C11.4194 12.4095 10.7215 13.1804 9.80485 13.7064C8.8986 14.222 7.83089 14.4773 6.59652 14.4773ZM6.59652 12.7481C7.8986 12.7481 8.89339 12.3418 9.57568 11.5189C10.2684 10.6856 10.6174 9.40955 10.6174 7.68559C10.6174 5.95121 10.2684 4.67517 9.57568 3.85225C8.89339 3.03455 7.8986 2.62309 6.59652 2.62309C5.28923 2.62309 4.28402 3.03975 3.57568 3.87309C2.87777 4.696 2.53402 5.96684 2.53402 7.68559C2.53402 9.40955 2.87777 10.6856 3.57568 11.5189C4.28402 12.3418 5.28923 12.7481 6.59652 12.7481Z" fill="black"/>
</svg>
