<svg width="17" height="24" viewBox="0 0 17 24" fill="none" xmlns="http://www.w3.org/2000/svg">
<path d="M8.14876 19.5756C7.7998 20.3776 7.47168 21.0443 7.1696 21.5756C6.8623 22.1016 6.3571 22.5964 5.64876 23.0547C4.94043 23.5235 4.02376 23.7631 2.89876 23.7631C2.2998 23.7631 1.65918 23.6797 0.982096 23.5131V21.4714C1.49251 21.5547 1.94043 21.5964 2.31543 21.5964C3.02376 21.5964 3.58626 21.4558 4.00293 21.1797C4.43001 20.9141 4.77376 20.5651 5.02376 20.1381C5.27376 19.7214 5.56543 19.1068 5.89876 18.3047L6.6696 16.4089L0.44043 0.388062H3.31543L8.02376 13.3672H8.21126L13.1279 0.388062H16.0238L8.14876 19.5756Z" fill="black"/>
</svg>
