<svg width="22" height="25" viewBox="0 0 22 25" fill="none" xmlns="http://www.w3.org/2000/svg">
<path d="M11.4897 24.2207C9.18245 24.2207 7.23975 23.6738 5.65641 22.5749C4.0835 21.4655 2.91162 20.0124 2.13558 18.2207C1.36995 16.429 0.989746 14.5332 0.989746 12.5332C0.989746 10.5228 1.36995 8.62695 2.13558 6.8457C2.91162 5.06966 4.09391 3.62695 5.67725 2.51237C7.271 1.403 9.22412 0.845703 11.5314 0.845703C14.5418 0.845703 16.9533 1.86133 18.7606 3.88737C20.5627 5.903 21.4689 8.79883 21.4689 12.5749V13.5957H4.67725V13.9082C4.67725 15.1582 4.95329 16.3405 5.51058 17.4499C6.07829 18.5645 6.87516 19.4603 7.90641 20.1374C8.93245 20.8197 10.1147 21.1582 11.4481 21.1582C12.9064 21.1582 14.1564 20.7936 15.1981 20.054C16.2502 19.304 17.0366 18.304 17.5522 17.054H21.1772C20.5783 19.1113 19.4585 20.8197 17.8231 22.179C16.1981 23.5436 14.0835 24.2207 11.4897 24.2207ZM17.8439 10.9915C17.7293 8.43945 17.1043 6.5905 15.9689 5.44987C14.8283 4.31445 13.3335 3.74154 11.4897 3.74154C9.47412 3.74154 7.86995 4.41862 6.67725 5.76237C5.47933 7.0957 4.84391 8.8405 4.76058 10.9915H17.8439Z" fill="#690061"/>
</svg>
