<svg width="17" height="25" viewBox="0 0 17 25" fill="none" xmlns="http://www.w3.org/2000/svg">
<path d="M7.79622 24.4714C6.29622 24.4714 5.01497 24.0911 3.96289 23.3255C2.9056 22.5495 2.09831 21.5026 1.54622 20.1797C0.988932 18.862 0.712891 17.3672 0.712891 15.7005C0.712891 14.0234 0.988932 12.5234 1.54622 11.2005C2.09831 9.86719 2.91081 8.82552 3.98372 8.07552C5.05143 7.3151 6.3431 6.92969 7.85872 6.92969C9.3431 6.92969 10.5514 7.29427 11.4837 8.01302C12.4108 8.72135 13.0983 9.55469 13.5462 10.513H13.7962V0.242188H16.5671V24.2422H13.7962V20.7839H13.5462C13.0306 21.8151 12.3066 22.6901 11.3796 23.4089C10.4629 24.1172 9.26497 24.4714 7.79622 24.4714ZM8.62956 22.0964C10.2806 22.0964 11.5462 21.487 12.4212 20.263C13.2962 19.0286 13.7337 17.5078 13.7337 15.7005C13.7337 13.8828 13.2962 12.3672 12.4212 11.1589C11.5462 9.94011 10.2806 9.32552 8.62956 9.32552C6.93164 9.32552 5.6556 9.94011 4.79622 11.1589C3.94727 12.3672 3.52539 13.8828 3.52539 15.7005C3.52539 17.5339 3.95247 19.0651 4.81706 20.2839C5.69206 21.4922 6.96289 22.0964 8.62956 22.0964Z" fill="black"/>
</svg>
