<svg width="13" height="15" viewBox="0 0 13 15" fill="none" xmlns="http://www.w3.org/2000/svg">
<path d="M5.21257 14.0783C3.63965 14.0783 2.42611 13.4897 1.56673 12.3075C0.717773 11.1147 0.295898 9.51579 0.295898 7.51579C0.295898 5.50537 0.733398 3.90121 1.6084 2.70329C2.49381 1.51058 3.71257 0.911621 5.25423 0.911621C6.33757 0.911621 7.16048 1.15121 7.7334 1.61995C8.30111 2.09391 8.70215 2.56787 8.94173 3.03662H9.12923V1.18245H12.9001V13.87H9.12923V11.8283H8.94173C8.69173 12.3439 8.27507 12.8491 7.69173 13.3491C7.1084 13.8387 6.28027 14.0783 5.21257 14.0783ZM6.62923 11.0783C7.47298 11.0783 8.1084 10.7241 8.52507 10.0158C8.94173 9.30746 9.15007 8.46891 9.15007 7.49495C9.15007 6.52621 8.94173 5.68245 8.52507 4.97412C8.1084 4.26579 7.47298 3.91162 6.62923 3.91162C5.75423 3.91162 5.1084 4.26058 4.69173 4.95329C4.28548 5.65121 4.08757 6.48454 4.08757 7.45329C4.08757 8.45329 4.28548 9.30746 4.69173 10.0158C5.1084 10.7241 5.75423 11.0783 6.62923 11.0783Z" fill="black"/>
</svg>
