<svg width="13" height="18" viewBox="0 0 13 18" fill="none" xmlns="http://www.w3.org/2000/svg">
<path d="M6.82161 17.6504C6.3737 17.6504 6.00911 17.614 5.71745 17.5463C5.4362 17.489 5.16016 17.4056 4.88411 17.2963V15.6713C5.07682 15.7233 5.34245 15.7806 5.67578 15.8379C6.00911 15.89 6.33203 15.9213 6.65495 15.9213C7.83203 15.9213 8.71745 15.5879 9.30078 14.9213C9.89453 14.2546 10.1966 13.3692 10.1966 12.2754V10.1088H10.0299C9.70703 10.8171 9.19662 11.4213 8.48828 11.9213C7.79036 12.4108 6.94661 12.6504 5.94661 12.6504C4.94661 12.6504 4.0612 12.3952 3.30078 11.8796C2.55078 11.3692 1.96745 10.6608 1.55078 9.7546C1.13411 8.83793 0.925781 7.79106 0.925781 6.60876C0.925781 5.43168 1.13411 4.3796 1.55078 3.46293C1.96745 2.54626 2.55078 1.83272 3.30078 1.3171C4.0612 0.806682 4.94661 0.546265 5.94661 0.546265C6.98828 0.546265 7.85287 0.817098 8.55078 1.35876C9.25912 1.89002 9.75912 2.51502 10.0508 3.23376H10.1966V0.942098H12.1758V12.2754C12.1758 13.1192 11.9987 13.9473 11.6549 14.7546C11.3216 15.5723 10.7487 16.2598 9.94662 16.8171C9.15495 17.3692 8.11328 17.6504 6.82161 17.6504ZM6.57161 10.9838C7.34766 10.9838 8.00911 10.7754 8.55078 10.3588C9.09245 9.9421 9.49349 9.40043 9.75912 8.73376C10.0195 8.05668 10.1549 7.33272 10.1549 6.5671C10.1549 5.80668 10.0195 5.10356 9.75912 4.46293C9.49349 3.81189 9.09245 3.28585 8.55078 2.8796C8.01953 2.46293 7.36328 2.2546 6.57161 2.2546C5.41536 2.2546 4.52995 2.68168 3.90495 3.52543C3.29036 4.35876 2.98828 5.37439 2.98828 6.5671C2.98828 7.34835 3.11849 8.07751 3.38411 8.7546C3.66016 9.42126 4.0612 9.96293 4.59245 10.3796C5.13411 10.7858 5.79036 10.9838 6.57161 10.9838Z" fill="black"/>
</svg>
