<svg width="25" height="31" viewBox="0 0 25 31" fill="none" xmlns="http://www.w3.org/2000/svg">
<path d="M13.1434 30.5821C11.1538 30.5821 9.3361 30.3529 7.68506 29.8946C6.04443 29.4258 4.64339 28.78 3.47673 27.9571C2.31006 27.1393 1.44027 26.2018 0.872559 25.1446L4.93506 20.7904H5.47673C6.44547 22.0821 7.5861 23.056 8.89339 23.7071C10.2111 24.3633 11.6434 24.6862 13.1851 24.6862C14.6121 24.6862 15.6851 24.431 16.3934 23.9154C17.1121 23.405 17.4767 22.6758 17.4767 21.7279C17.4767 20.9935 17.2163 20.3737 16.7059 19.8737C16.1903 19.3737 15.3517 18.9883 14.1851 18.7071L10.3517 17.7904C7.47673 17.0977 5.37256 16.0508 4.03923 14.6446C2.71631 13.2279 2.06006 11.431 2.06006 9.24872C2.06006 7.44663 2.51839 5.87372 3.43506 4.54039C4.36214 3.20705 5.66423 2.19663 7.33089 1.49872C9.00798 0.790385 10.9611 0.436218 13.1851 0.436218C15.8101 0.436218 17.9767 0.821634 19.6851 1.58205C21.4038 2.33205 22.7528 3.34247 23.7267 4.60289L19.8309 8.81122H19.2892C18.4819 7.89455 17.5705 7.22789 16.5601 6.81122C15.5601 6.39455 14.4351 6.18622 13.1851 6.18622C10.3101 6.18622 8.87256 7.07684 8.87256 8.85289C8.87256 9.61851 9.13298 10.2383 9.66423 10.7071C10.2059 11.181 11.1486 11.5612 12.4976 11.8529L16.0809 12.6446C19.0236 13.2852 21.1746 14.306 22.5392 15.7071C23.8986 17.0977 24.5809 18.9675 24.5809 21.3112C24.5809 23.1602 24.1226 24.7852 23.2059 26.1862C22.2996 27.5925 20.9871 28.6758 19.2684 29.4362C17.5444 30.1966 15.5028 30.5821 13.1434 30.5821Z" fill="black"/>
</svg>
