<svg width="13" height="14" viewBox="0 0 13 14" fill="none" xmlns="http://www.w3.org/2000/svg">
<path d="M6.49723 13.0671C5.20557 13.0671 4.12223 12.7754 3.24723 12.1921C2.38265 11.5983 1.74723 10.8275 1.33057 9.8796C0.9139 8.93689 0.705566 7.92126 0.705566 6.83793C0.705566 5.74418 0.9139 4.72335 1.33057 3.77543C1.74723 2.83272 2.38265 2.0671 3.24723 1.48376C4.12223 0.900431 5.20557 0.608765 6.49723 0.608765C8.09098 0.608765 9.36182 1.07751 10.3097 2.0046C11.2524 2.92126 11.8306 4.08793 12.0389 5.5046H8.6014C8.50244 4.89522 8.27848 4.40043 7.93473 4.02543C7.58577 3.64002 7.12223 3.4421 6.5389 3.4421C5.68994 3.4421 5.08577 3.77543 4.7264 4.4421C4.36182 5.09835 4.18473 5.89522 4.18473 6.83793C4.18473 7.78585 4.36182 8.58793 4.7264 9.2546C5.08577 9.91085 5.68994 10.2338 6.5389 10.2338C7.12223 10.2338 7.58577 10.0411 7.93473 9.65043C8.27848 9.26502 8.50244 8.77022 8.6014 8.17126H12.0389C11.8306 9.58793 11.2524 10.765 10.3097 11.6921C9.37744 12.6088 8.10661 13.0671 6.49723 13.0671Z" fill="black"/>
</svg>
