<svg width="12" height="15" viewBox="0 0 12 15" fill="none" xmlns="http://www.w3.org/2000/svg">
<path d="M11.446 7.92289H2.44596C2.49805 9.52185 2.88346 10.6937 3.5918 11.4437C4.30013 12.1833 5.26888 12.5479 6.50846 12.5479C7.43555 12.5479 8.18555 12.3812 8.75846 12.0479C9.32617 11.7146 9.76888 11.1937 10.0918 10.4854H10.3418L11.6126 11.2354C11.2376 12.1833 10.623 12.9229 9.7793 13.4646C8.94596 14.0062 7.85221 14.2771 6.50846 14.2771C5.24284 14.2771 4.1543 14.0271 3.23763 13.5271C2.33138 13.0271 1.63346 12.2719 1.13346 11.2562C0.64388 10.2458 0.404297 8.98539 0.404297 7.48539C0.404297 6.00102 0.659505 4.75102 1.17513 3.73539C1.70117 2.70935 2.4095 1.94373 3.30013 1.44373C4.20117 0.943726 5.22721 0.693726 6.38346 0.693726C8.06055 0.693726 9.37305 1.16768 10.321 2.11039C11.2637 3.05831 11.7376 4.45935 11.7376 6.31873C11.7376 7.04268 11.722 7.52706 11.696 7.77706L11.446 7.92289ZM9.82096 6.31873C9.78971 4.91768 9.48763 3.90206 8.9043 3.27706C8.32096 2.64164 7.47721 2.31873 6.38346 2.31873C5.24284 2.31873 4.3418 2.64164 3.67513 3.27706C3.01888 3.91768 2.62305 4.93331 2.48763 6.31873H9.82096Z" fill="black"/>
</svg>
