<svg width="56" height="74" viewBox="0 0 56 74" fill="none" xmlns="http://www.w3.org/2000/svg">
<path d="M41.5229 60.1056H55.3979V72.6264C55.3979 73.1681 55.0645 73.4389 54.3979 73.4389H42.627C39.002 73.4389 35.2208 73.1681 31.2937 72.6264C27.3614 72.0848 23.5489 71.0743 19.8562 69.5848C16.1739 68.1004 12.8354 66.0171 9.83537 63.3348C6.84579 60.6421 4.4812 57.1681 2.7312 52.9181C0.981201 48.6577 0.106201 43.4129 0.106201 37.1889C0.106201 30.7723 0.991617 25.392 2.77287 21.0431C4.56453 16.6993 6.94995 13.1993 9.93954 10.5431C12.9239 7.87642 16.2781 5.85038 20.002 4.45976C23.7208 3.07434 27.5281 2.13684 31.4187 1.64726C35.3197 1.16288 39.0541 0.918091 42.627 0.918091H54.3979C55.0645 0.918091 55.3979 1.18892 55.3979 1.73059V30.2098H41.5229V14.1473C36.2729 13.8556 31.575 14.4545 27.4395 15.9389C23.2989 17.4129 20.0333 19.8868 17.6479 23.3556C15.2572 26.8295 14.0645 31.4389 14.0645 37.1889C14.0645 41.6629 14.7104 45.3504 16.002 48.2514C17.3041 51.1421 19.0281 53.4077 21.1687 55.0431C23.3197 56.6681 25.6322 57.866 28.1062 58.6264C30.5906 59.3764 33.0072 59.8296 35.3562 59.9806C37.7156 60.1368 39.7729 60.1785 41.5229 60.1056Z" fill="#562A2A"/>
</svg>
