<svg width="12" height="15" viewBox="0 0 12 15" fill="none" xmlns="http://www.w3.org/2000/svg">
<path d="M0.65332 14.2273V1.12309H2.50749V3.18559L2.75749 3.24809C3.18457 2.48767 3.73665 1.90434 4.40332 1.49809C5.0804 1.09705 5.91374 0.893921 6.90332 0.893921C8.47103 0.893921 9.61165 1.30017 10.32 2.10225C11.0283 2.89392 11.3825 4.12309 11.3825 5.78975V14.2273H9.44499V5.85225C9.44499 5.06059 9.34082 4.43038 9.13249 3.95642C8.93457 3.47205 8.62207 3.11788 8.19499 2.89392C7.77832 2.67517 7.22103 2.56059 6.52832 2.56059C5.36165 2.56059 4.40853 2.95642 3.67415 3.74809C2.9502 4.52934 2.59082 5.77934 2.59082 7.49809V14.2273H0.65332Z" fill="black"/>
</svg>
