<svg width="28" height="27" viewBox="0 0 28 27" fill="none" xmlns="http://www.w3.org/2000/svg">
<path d="M13.8073 26.4398C11.1094 26.4398 8.72917 25.8981 6.66146 24.8148C4.60417 23.7314 2.99479 22.2262 1.82812 20.2939C0.661458 18.3669 0.078125 16.1273 0.078125 13.5856C0.078125 11.0596 0.661458 8.83561 1.82812 6.91895C2.99479 5.00228 4.60938 3.50228 6.68229 2.41895C8.76562 1.33561 11.151 0.793945 13.849 0.793945C16.75 0.793945 19.25 1.41374 21.349 2.64811C23.4427 3.88769 25.0365 5.62728 26.1198 7.87728C27.2031 10.1273 27.6667 12.7679 27.5156 15.7939H8.80729C9.14062 17.1169 9.77604 18.1169 10.724 18.7939C11.6667 19.4606 12.75 19.7939 13.974 19.7939C14.9323 19.7939 15.8073 19.6273 16.599 19.2939C17.3906 18.9502 18.026 18.4814 18.5156 17.8981H27.0573C25.9844 20.596 24.2917 22.6898 21.974 24.1898C19.6667 25.6898 16.9427 26.4398 13.8073 26.4398ZM8.84896 11.0231H19.1198C18.7552 9.89811 18.1406 9.0179 17.2656 8.37728C16.3906 7.72624 15.276 7.39811 13.9323 7.39811C12.7083 7.39811 11.6458 7.71061 10.7448 8.33561C9.83854 8.96061 9.20833 9.85645 8.84896 11.0231Z" fill="#690061"/>
</svg>
