<svg width="4" height="7" viewBox="0 0 4 7" fill="none" xmlns="http://www.w3.org/2000/svg">
<path d="M1.06917 5.67126C1.98584 5.26502 2.44417 4.66085 2.44417 3.85876C2.44417 3.48376 2.37126 3.24418 2.23584 3.15043C2.11084 3.05147 1.92334 3.0046 1.67334 3.0046C0.92334 3.0046 0.54834 2.6296 0.54834 1.8796C0.54834 1.47856 0.67334 1.16085 0.92334 0.921265C1.17334 0.671265 1.51709 0.546265 1.96501 0.546265C3.03271 0.546265 3.56917 1.1296 3.56917 2.29626V3.10876C3.56917 4.03585 3.34001 4.78064 2.88167 5.33793C2.42334 5.89002 1.81917 6.28064 1.06917 6.5046V5.67126Z" fill="black"/>
</svg>
