<svg width="22" height="24" viewBox="0 0 22 24" fill="none" xmlns="http://www.w3.org/2000/svg">
<path d="M11.0468 23.4159C8.76554 23.4159 6.83846 22.8743 5.25513 21.7909C3.68221 20.6972 2.49471 19.2597 1.69263 17.4784C0.90096 15.7024 0.505127 13.7857 0.505127 11.7284C0.505127 9.68677 0.90096 7.78052 1.69263 5.99927C2.49471 4.22323 3.68221 2.79093 5.25513 1.7076C6.83846 0.613852 8.76554 0.0617676 11.0468 0.0617676C13.3228 0.0617676 15.2447 0.613852 16.8176 1.7076C18.401 2.79093 19.578 4.22843 20.3593 6.0201C21.151 7.81177 21.5468 9.71802 21.5468 11.7284C21.5468 13.7597 21.1405 15.6659 20.3385 17.4576C19.5468 19.2493 18.3593 20.6972 16.776 21.7909C15.203 22.8743 13.2968 23.4159 11.0468 23.4159ZM11.0468 20.2701C12.4322 20.2701 13.651 19.8899 14.6926 19.1243C15.7343 18.3482 16.526 17.3118 17.0676 16.0201C17.6093 14.7284 17.8801 13.2857 17.8801 11.6868C17.8801 9.24406 17.2603 7.21802 16.026 5.60343C14.802 3.97843 13.1405 3.16593 11.0468 3.16593C9.63013 3.16593 8.40096 3.55656 7.35929 4.3326C6.31763 5.09823 5.52596 6.12427 4.98429 7.41593C4.44263 8.7076 4.17179 10.1347 4.17179 11.6868C4.17179 14.1347 4.78117 16.1764 6.00513 17.8118C7.22388 19.4524 8.90617 20.2701 11.0468 20.2701Z" fill="black"/>
</svg>
