<svg width="16" height="19" viewBox="0 0 16 19" fill="none" xmlns="http://www.w3.org/2000/svg">
<path d="M8.25358 18.4714C6.50358 18.4714 5.02441 18.0547 3.81608 17.2214C2.60775 16.388 1.71191 15.3047 1.12858 13.9714C0.555665 12.638 0.274414 11.2161 0.274414 9.70052C0.274414 8.1901 0.555665 6.76302 1.12858 5.42969C1.71191 4.09635 2.60775 3.01302 3.81608 2.17969C5.02441 1.34635 6.50358 0.929688 8.25358 0.929688C10.4202 0.929688 12.1286 1.5651 13.3786 2.82552C14.6286 4.07552 15.3838 5.61719 15.6494 7.45052H12.9619C12.764 6.21615 12.2744 5.21094 11.4827 4.42969C10.6911 3.65365 9.61816 3.26302 8.27441 3.26302C6.56608 3.26302 5.264 3.88281 4.37858 5.11719C3.50358 6.34115 3.06608 7.86719 3.06608 9.70052C3.06608 11.5339 3.50358 13.0703 4.37858 14.3047C5.264 15.5286 6.56608 16.138 8.27441 16.138C9.61816 16.138 10.6911 15.7578 11.4827 14.9922C12.2744 14.2161 12.764 13.1953 12.9619 11.9297H15.6494C15.3838 13.7786 14.6286 15.3359 13.3786 16.5964C12.1286 17.8464 10.4202 18.4714 8.25358 18.4714Z" fill="black"/>
</svg>
