<svg width="14" height="15" viewBox="0 0 14 15" fill="none" xmlns="http://www.w3.org/2000/svg">
<path d="M7.54883 14.8706C6.10091 14.8706 4.88737 14.5269 3.90299 13.829C2.91341 13.1363 2.17904 12.2352 1.69466 11.1206C1.2207 9.99565 0.986328 8.80815 0.986328 7.55815C0.986328 6.29773 1.2207 5.11023 1.69466 3.99565C2.17904 2.88627 2.92383 1.99044 3.92383 1.30815C4.92383 0.615438 6.13737 0.266479 7.56966 0.266479C9.45508 0.266479 10.9655 0.901896 12.0905 2.16231C13.2259 3.41231 13.7988 5.22481 13.7988 7.59981V8.22481H3.27799V8.41231C3.27799 9.20398 3.45508 9.94877 3.81966 10.6415C4.17904 11.3238 4.67904 11.8811 5.31966 12.3081C5.95508 12.7404 6.69466 12.954 7.528 12.954C8.42904 12.954 9.20508 12.7248 9.86133 12.2665C10.528 11.7977 11.0176 11.1727 11.3405 10.3915H13.6113C13.2363 11.6727 12.5332 12.7404 11.5072 13.5998C10.4915 14.4488 9.17383 14.8706 7.54883 14.8706ZM11.528 6.59981C11.4551 5.00606 11.0592 3.84981 10.3405 3.14148C9.63216 2.43315 8.69987 2.07898 7.54883 2.07898C6.2832 2.07898 5.278 2.49565 4.52799 3.32898C3.78841 4.16231 3.39258 5.25606 3.34049 6.59981H11.528Z" fill="black"/>
</svg>
