<svg width="16" height="19" viewBox="0 0 16 19" fill="none" xmlns="http://www.w3.org/2000/svg">
<path d="M8.29395 18.4714C6.56999 18.4714 5.11165 18.0547 3.91895 17.2214C2.73665 16.388 1.85645 15.2995 1.27311 13.9505C0.700196 12.6068 0.418945 11.1901 0.418945 9.70052C0.418945 8.1901 0.700196 6.76302 1.27311 5.42969C1.85645 4.09635 2.74186 3.01302 3.93978 2.17969C5.13249 1.34635 6.59603 0.929688 8.33561 0.929688C10.596 0.929688 12.4033 1.6901 13.7523 3.20052C15.1117 4.71615 15.7939 6.88802 15.7939 9.72135V10.4922H3.16895V10.7214C3.16895 11.6693 3.38249 12.5547 3.81478 13.388C4.24186 14.2109 4.84082 14.8776 5.60645 15.388C6.36686 15.9036 7.25749 16.1589 8.27311 16.1589C9.35645 16.1589 10.2939 15.8828 11.0856 15.3255C11.8773 14.7734 12.4606 14.0286 12.8356 13.0964H15.5648C15.1169 14.6276 14.2783 15.9036 13.0439 16.9297C11.82 17.9609 10.2367 18.4714 8.29395 18.4714ZM13.0648 8.55469C12.9814 6.6276 12.5075 5.23698 11.6481 4.38802C10.7992 3.52865 9.67936 3.09635 8.29395 3.09635C6.77832 3.09635 5.56999 3.60677 4.66895 4.61719C3.77832 5.61719 3.30436 6.92969 3.25228 8.55469H13.0648Z" fill="black"/>
</svg>
