<svg width="19" height="27" viewBox="0 0 19 27" fill="none" xmlns="http://www.w3.org/2000/svg">
<path d="M9.94613 26.2596C9.24821 26.2596 8.68571 26.2075 8.25863 26.1138C7.82633 26.0304 7.38883 25.9054 6.94613 25.7388V23.2388C7.24821 23.3325 7.65446 23.4263 8.15446 23.5096C8.66488 23.5929 9.16488 23.6346 9.65446 23.6346C11.4565 23.6346 12.8107 23.119 13.717 22.0929C14.6336 21.0773 15.092 19.7284 15.092 18.0513V14.7596H14.8211C14.3315 15.8429 13.5503 16.7596 12.467 17.5096C11.394 18.2596 10.1024 18.6346 8.59196 18.6346C7.06071 18.6346 5.71696 18.2492 4.55029 17.4679C3.39404 16.6763 2.49821 15.5877 1.86279 14.1971C1.23779 12.7961 0.925293 11.1919 0.925293 9.3846C0.925293 7.58252 1.23779 5.98356 1.86279 4.59294C2.49821 3.1919 3.39404 2.09294 4.55029 1.30127C5.71696 0.509603 7.06071 0.11377 8.59196 0.11377C10.1753 0.11377 11.4982 0.530436 12.5711 1.36377C13.6545 2.18669 14.4149 3.1346 14.8628 4.21794H15.092V0.717936H18.1128V18.0513C18.1128 19.3429 17.8472 20.6138 17.3211 21.8638C16.8055 23.1138 15.9357 24.1554 14.717 24.9888C13.493 25.8325 11.9045 26.2596 9.94613 26.2596ZM9.55029 16.0721C10.7274 16.0721 11.7378 15.7544 12.5711 15.1138C13.4045 14.4784 14.019 13.645 14.4253 12.6138C14.8263 11.5877 15.0295 10.4836 15.0295 9.30127C15.0295 8.15023 14.8263 7.08252 14.4253 6.09294C14.019 5.09294 13.4097 4.28044 12.592 3.65544C11.769 3.03044 10.7586 2.71794 9.55029 2.71794C7.76904 2.71794 6.40967 3.36377 5.46696 4.65544C4.53467 5.93669 4.07113 7.48356 4.07113 9.30127C4.07113 10.5096 4.26904 11.6294 4.67529 12.6554C5.09196 13.6867 5.70654 14.5096 6.52946 15.1346C7.34717 15.7596 8.35238 16.0721 9.55029 16.0721Z" fill="black"/>
</svg>
