<svg width="34" height="32" viewBox="0 0 34 32" fill="none" xmlns="http://www.w3.org/2000/svg">
<path d="M17.0887 31.5296C13.8387 31.5296 10.9637 30.8733 8.4637 29.5712C5.9637 28.2535 4.01058 26.4254 2.60954 24.0921C1.20329 21.7587 0.505371 19.0608 0.505371 15.9879C0.505371 12.9202 1.20329 10.2275 2.60954 7.90458C4.01058 5.58687 5.96891 3.77437 8.48454 2.46708C11.0106 1.14937 13.9012 0.487915 17.1512 0.487915C20.6616 0.487915 23.6825 1.23792 26.2137 2.73792C28.7554 4.23792 30.6825 6.3525 32.0054 9.07125C33.3231 11.7952 33.8856 14.9879 33.6929 18.6546H11.047C11.4481 20.2379 12.2241 21.441 13.3804 22.2587C14.5314 23.0817 15.8439 23.4879 17.3179 23.4879C18.4689 23.4879 19.5262 23.29 20.4845 22.8837C21.4429 22.4671 22.2189 21.9046 22.8179 21.1962H33.1512C31.8439 24.4619 29.797 27.0035 27.0054 28.8212C24.2137 30.6285 20.9064 31.5296 17.0887 31.5296ZM11.1095 12.8837H23.547C23.0991 11.5087 22.3491 10.4358 21.297 9.65458C20.2397 8.87854 18.8908 8.48792 17.2554 8.48792C15.7814 8.48792 14.495 8.87333 13.4012 9.63375C12.3179 10.3837 11.5522 11.4671 11.1095 12.8837Z" fill="#690061"/>
</svg>
