<svg width="16" height="19" viewBox="0 0 16 19" fill="none" xmlns="http://www.w3.org/2000/svg">
<path d="M8.06396 18.4714C6.34001 18.4714 4.88167 18.0547 3.68896 17.2214C2.50667 16.388 1.62646 15.2995 1.04313 13.9505C0.470216 12.6068 0.188965 11.1901 0.188965 9.70052C0.188965 8.1901 0.470216 6.76302 1.04313 5.42969C1.62646 4.09635 2.51188 3.01302 3.7098 2.17969C4.90251 1.34635 6.36605 0.929688 8.10563 0.929688C10.366 0.929688 12.1733 1.6901 13.5223 3.20052C14.8817 4.71615 15.564 6.88802 15.564 9.72135V10.4922H2.93896V10.7214C2.93896 11.6693 3.15251 12.5547 3.5848 13.388C4.01188 14.2109 4.61084 14.8776 5.37646 15.388C6.13688 15.9036 7.02751 16.1589 8.04313 16.1589C9.12646 16.1589 10.064 15.8828 10.8556 15.3255C11.6473 14.7734 12.2306 14.0286 12.6056 13.0964H15.3348C14.8869 14.6276 14.0483 15.9036 12.814 16.9297C11.59 17.9609 10.0067 18.4714 8.06396 18.4714ZM12.8348 8.55469C12.7515 6.6276 12.2775 5.23698 11.4181 4.38802C10.5692 3.52865 9.44938 3.09635 8.06396 3.09635C6.54834 3.09635 5.34001 3.60677 4.43896 4.61719C3.54834 5.61719 3.07438 6.92969 3.0223 8.55469H12.8348Z" fill="black"/>
</svg>
