<svg width="10" height="24" viewBox="0 0 10 24" fill="none" xmlns="http://www.w3.org/2000/svg">
<path d="M5.96126 8.59637V18.388C5.96126 19.1693 5.99251 19.7422 6.06543 20.1172C6.14876 20.4922 6.34668 20.7943 6.6696 21.013C7.00293 21.2214 7.5446 21.3255 8.2946 21.3255C8.80501 21.3255 9.3623 21.2526 9.96126 21.0964V23.0755C9.80501 23.1485 9.4821 23.211 8.9821 23.263C8.4821 23.3307 7.96126 23.3672 7.4196 23.3672C6.18001 23.3672 5.25814 23.1953 4.64876 22.8464C4.0498 22.487 3.65918 22.0078 3.4821 21.4089C3.2998 20.7995 3.21126 19.9922 3.21126 18.9922V8.59637H0.0654297V6.38804H3.21126V0.846375H5.96126V6.38804H9.96126V8.59637H5.96126Z" fill="black"/>
</svg>
