<svg width="12" height="19" viewBox="0 0 12 19" fill="none" xmlns="http://www.w3.org/2000/svg">
<path d="M0.583252 0.745605H2.64575V8.30811H2.85409C3.17179 7.57373 3.68742 6.95394 4.39575 6.45394C5.1145 5.95394 5.99992 5.70394 7.04159 5.70394C8.10929 5.70394 9.00513 5.95394 9.72909 6.45394C10.4478 6.95394 10.9843 7.62061 11.3333 8.45394C11.677 9.27686 11.8541 10.1623 11.8541 11.1206V18.6831H9.79159V11.3914C9.79159 10.1414 9.46346 9.19352 8.81242 8.53727C8.15617 7.87061 7.29679 7.53727 6.22909 7.53727C5.19784 7.53727 4.34367 7.88623 3.66659 8.57894C2.98429 9.27686 2.64575 10.2144 2.64575 11.3914V18.6831H0.583252V0.745605Z" fill="black"/>
</svg>
