<svg width="14" height="20" viewBox="0 0 14 20" fill="none" xmlns="http://www.w3.org/2000/svg">
<path d="M2.64128 19.5895C2.19336 19.5895 1.77669 19.5479 1.39128 19.4645C1.01628 19.3916 0.688151 19.2874 0.412109 19.152L0.766276 17.6312L0.974609 17.5479C1.16732 17.6416 1.40169 17.7249 1.68294 17.7979C1.97461 17.8656 2.27148 17.902 2.57878 17.902C3.10482 17.902 3.54232 17.8239 3.89128 17.6729C4.23503 17.5322 4.53711 17.2979 4.78711 16.9645C5.03711 16.6416 5.26628 16.1937 5.47461 15.6104L5.93294 14.3395L0.682943 0.922852H2.76628L6.89128 11.6104H7.12044L11.0996 0.922852H13.0788L7.22461 16.0895C6.90169 16.9229 6.53711 17.5895 6.12044 18.0895C5.70378 18.5999 5.20898 18.9749 4.64128 19.2145C4.08398 19.4645 3.41732 19.5895 2.64128 19.5895Z" fill="black"/>
</svg>
