<svg width="12" height="20" viewBox="0 0 12 20" fill="none" xmlns="http://www.w3.org/2000/svg">
<path d="M0.300293 19.027V0.672852H2.23779V7.79785L2.48779 7.83952C3.41488 6.41243 4.76904 5.69369 6.55029 5.69369C8.118 5.69369 9.25863 6.09994 9.96696 6.90202C10.6753 7.69369 11.0295 8.92285 11.0295 10.5895V19.027H9.09196V10.652C9.09196 9.86035 8.98779 9.23014 8.77946 8.75619C8.58154 8.27181 8.26904 7.91764 7.84196 7.69369C7.42529 7.47494 6.868 7.36035 6.17529 7.36035C4.993 7.36035 4.03988 7.75098 3.32113 8.52702C2.59717 9.29264 2.23779 10.5479 2.23779 12.2979V19.027H0.300293Z" fill="black"/>
</svg>
