<svg width="13" height="20" viewBox="0 0 13 20" fill="none" xmlns="http://www.w3.org/2000/svg">
<path d="M0.226074 19.5398V1.12309H2.16357V3.10225L2.41357 3.14392C3.38232 1.64392 4.81462 0.893921 6.70524 0.893921C7.79899 0.893921 8.75212 1.14392 9.55941 1.64392C10.3771 2.1335 11.0073 2.88871 11.4552 3.91475C11.9136 4.93038 12.1427 6.18559 12.1427 7.68559C12.1427 9.18559 11.9032 10.446 11.4344 11.4564C10.9604 12.472 10.299 13.2273 9.45524 13.7273C8.62191 14.2273 7.65316 14.4773 6.55941 14.4773C5.66878 14.4773 4.87712 14.321 4.18441 14.0189C3.50212 13.7168 2.91357 13.2064 2.41357 12.4981L2.16357 12.5398V19.5398H0.226074ZM6.14274 12.7481C8.79378 12.7481 10.1219 11.0606 10.1219 7.68559C10.1219 4.31059 8.79378 2.62309 6.14274 2.62309C5.36149 2.62309 4.67399 2.80538 4.08024 3.16475C3.48128 3.51371 3.00732 4.071 2.66357 4.83142C2.33024 5.58142 2.16357 6.53455 2.16357 7.68559C2.16357 8.84184 2.33024 9.78975 2.66357 10.5398C3.00732 11.2898 3.48128 11.847 4.08024 12.2064C4.67399 12.571 5.36149 12.7481 6.14274 12.7481Z" fill="black"/>
</svg>
