<svg width="18" height="20" viewBox="0 0 18 20" fill="none" xmlns="http://www.w3.org/2000/svg">
<path d="M9.38965 19.4932C7.49902 19.4932 5.90007 19.0452 4.59798 18.139C3.29069 17.238 2.32715 16.0661 1.70215 14.6182C1.07715 13.1755 0.764648 11.6338 0.764648 9.99316C0.764648 8.35775 1.07715 6.81608 1.70215 5.36816C2.32715 3.92546 3.29069 2.75358 4.59798 1.84733C5.90007 0.946289 7.49902 0.493164 9.38965 0.493164C11.749 0.493164 13.6032 1.17546 14.9521 2.53483C16.3115 3.89941 17.1292 5.57129 17.4105 7.55566H14.4938C14.2855 6.22233 13.749 5.13379 12.8896 4.28483C12.0407 3.44108 10.8896 3.014 9.43132 3.014C7.58236 3.014 6.18132 3.68066 5.22298 5.014C4.26465 6.34733 3.78548 8.00879 3.78548 9.99316C3.78548 11.9827 4.26465 13.639 5.22298 14.9723C6.18132 16.2952 7.58236 16.9515 9.43132 16.9515C10.8896 16.9515 12.0407 16.5348 12.8896 15.7015C13.749 14.8682 14.2855 13.7744 14.4938 12.4098H17.4105C17.1292 14.3994 16.3115 16.0765 14.9521 17.4515C13.6032 18.8161 11.749 19.4932 9.38965 19.4932Z" fill="black"/>
</svg>
