<svg width="10" height="14" viewBox="0 0 10 14" fill="none" xmlns="http://www.w3.org/2000/svg">
<path d="M5.02441 13.0254C4.06608 13.0254 3.23275 12.8327 2.52441 12.4421C1.81608 12.0566 1.27441 11.5618 0.899414 10.9629C0.524414 10.3535 0.336914 9.71289 0.336914 9.04622V8.94206H2.29525V9.02539C2.29525 9.40039 2.39941 9.77539 2.60775 10.1504C2.81608 10.5254 3.12858 10.8327 3.54525 11.0671C3.97233 11.291 4.49317 11.4004 5.10775 11.4004C5.8265 11.4004 6.42546 11.2285 6.89941 10.8796C7.36817 10.5202 7.60775 10.0358 7.60775 9.42122C7.60775 8.91081 7.42025 8.49935 7.04525 8.19206C6.68066 7.88998 6.22233 7.69206 5.67025 7.60872L4.10775 7.37956C3.11816 7.22852 2.29525 6.89518 1.62858 6.37956C0.961914 5.85352 0.628581 5.08789 0.628581 4.08789C0.628581 2.99414 1.02441 2.13997 1.81608 1.52539C2.61816 0.900391 3.639 0.587891 4.87858 0.587891C5.79525 0.587891 6.5765 0.764975 7.23275 1.10872C7.89941 1.44206 8.40462 1.88997 8.75358 2.44206C9.09733 2.99935 9.27441 3.60352 9.27441 4.25456V4.33789H7.31608V4.29622C7.31608 3.99414 7.23275 3.67122 7.06608 3.33789C6.90983 3.00456 6.64941 2.72331 6.27441 2.48372C5.89941 2.23372 5.42025 2.10872 4.83691 2.10872C4.09733 2.10872 3.50879 2.29102 3.06608 2.65039C2.63379 2.99935 2.42025 3.46289 2.42025 4.04622C2.42025 4.50456 2.59212 4.88997 2.94108 5.19206C3.28483 5.49935 3.72233 5.70247 4.25358 5.79622L5.96191 6.06706C6.96191 6.23372 7.80046 6.58268 8.48275 7.10872C9.15983 7.62435 9.50358 8.38997 9.50358 9.40039C9.50358 10.1243 9.30566 10.7546 8.92025 11.2962C8.52962 11.8379 7.99317 12.265 7.31608 12.5671C6.63379 12.8691 5.86817 13.0254 5.02441 13.0254Z" fill="black"/>
</svg>
