<svg width="16" height="25" viewBox="0 0 16 25" fill="none" xmlns="http://www.w3.org/2000/svg">
<path d="M7.07845 24.4714C5.57845 24.4714 4.2972 24.0911 3.24512 23.3255C2.18783 22.5495 1.38053 21.5026 0.828451 20.1797C0.271159 18.862 -0.00488281 17.3672 -0.00488281 15.7005C-0.00488281 14.0234 0.271159 12.5234 0.828451 11.2005C1.38053 9.86719 2.19303 8.82552 3.26595 8.07552C4.33366 7.3151 5.62533 6.92969 7.14095 6.92969C8.62533 6.92969 9.83366 7.29427 10.766 8.01302C11.693 8.72135 12.3805 9.55469 12.8285 10.513H13.0785V0.242188H15.8493V24.2422H13.0785V20.7839H12.8285C12.3128 21.8151 11.5889 22.6901 10.6618 23.4089C9.74512 24.1172 8.5472 24.4714 7.07845 24.4714ZM7.91178 22.0964C9.56283 22.0964 10.8285 21.487 11.7035 20.263C12.5785 19.0286 13.016 17.5078 13.016 15.7005C13.016 13.8828 12.5785 12.3672 11.7035 11.1589C10.8285 9.94011 9.56283 9.32552 7.91178 9.32552C6.21387 9.32552 4.93783 9.94011 4.07845 11.1589C3.22949 12.3672 2.80762 13.8828 2.80762 15.7005C2.80762 17.5339 3.2347 19.0651 4.09928 20.2839C4.97428 21.4922 6.24512 22.0964 7.91178 22.0964Z" fill="black"/>
</svg>
