<svg width="18" height="20" viewBox="0 0 18 20" fill="none" xmlns="http://www.w3.org/2000/svg">
<path d="M9.24316 19.8491C7.39421 19.8491 5.8265 19.4064 4.53483 18.5158C3.25358 17.6304 2.29004 16.4637 1.639 15.0158C0.998372 13.5731 0.680664 12.0158 0.680664 10.3491C0.680664 8.68245 0.998372 7.13037 1.639 5.68245C2.29004 4.23975 3.25358 3.07308 4.53483 2.18245C5.8265 1.29704 7.39421 0.849121 9.24316 0.849121C11.0869 0.849121 12.6494 1.29704 13.9307 2.18245C15.2223 3.07308 16.1807 4.24495 16.8057 5.70329C17.4411 7.16162 17.764 8.71371 17.764 10.3491C17.764 11.9897 17.4359 13.5366 16.7848 14.995C16.1442 16.4533 15.1807 17.6304 13.889 18.5158C12.6077 19.4064 11.0609 19.8491 9.24316 19.8491ZM9.24316 17.2866C10.3682 17.2866 11.3525 16.9741 12.2015 16.3491C13.0452 15.7241 13.6859 14.8856 14.1182 13.8283C14.5609 12.7762 14.7848 11.5991 14.7848 10.3075C14.7848 8.32308 14.2848 6.67204 13.2848 5.34912C12.2952 4.03141 10.9515 3.36995 9.24316 3.36995C8.08691 3.36995 7.08691 3.68245 6.24316 4.30745C5.39421 4.93245 4.74837 5.7762 4.30566 6.82829C3.87337 7.88558 3.65983 9.04704 3.65983 10.3075C3.65983 12.297 4.14941 13.9533 5.139 15.2866C6.139 16.62 7.50358 17.2866 9.24316 17.2866Z" fill="#690061"/>
</svg>
