<svg width="14" height="31" viewBox="0 0 14 31" fill="none" xmlns="http://www.w3.org/2000/svg">
<path d="M7.90609 10.9022V23.9647C7.90609 25.0063 7.95296 25.7772 8.05192 26.2772C8.1613 26.7772 8.43213 27.173 8.86442 27.4647C9.30713 27.7459 10.0311 27.8813 11.0311 27.8813C11.7082 27.8813 12.4478 27.7876 13.2394 27.5897V30.2355C13.0415 30.3188 12.6144 30.4022 11.9478 30.4855C11.2811 30.5688 10.5936 30.6105 9.88525 30.6105C8.229 30.6105 6.99463 30.3813 6.17692 29.923C5.36963 29.4543 4.84359 28.8136 4.59359 28.0063C4.354 27.1886 4.23942 26.1105 4.23942 24.7772V10.9022H0.0727539V7.96468H4.23942V0.568848H7.90609V7.96468H13.2394V10.9022H7.90609Z" fill="#690061"/>
</svg>
