<svg width="17" height="24" viewBox="0 0 17 24" fill="none" xmlns="http://www.w3.org/2000/svg">
<path d="M8.58919 19.5756C8.24023 20.3776 7.91211 21.0443 7.61003 21.5756C7.30273 22.1016 6.79753 22.5964 6.08919 23.0547C5.38086 23.5235 4.46419 23.7631 3.33919 23.7631C2.74023 23.7631 2.09961 23.6797 1.42253 23.5131V21.4714C1.93294 21.5547 2.38086 21.5964 2.75586 21.5964C3.46419 21.5964 4.02669 21.4558 4.44336 21.1797C4.87044 20.9141 5.21419 20.5651 5.46419 20.1381C5.71419 19.7214 6.00586 19.1068 6.33919 18.3047L7.11003 16.4089L0.880859 0.388062H3.75586L8.46419 13.3672H8.65169L13.5684 0.388062H16.4642L8.58919 19.5756Z" fill="black"/>
</svg>
