<svg width="58" height="74" viewBox="0 0 58 74" fill="none" xmlns="http://www.w3.org/2000/svg">
<path d="M57.7835 72.4C57.9085 72.6395 57.8772 72.8791 57.7001 73.1291C57.5179 73.3687 57.2731 73.4833 56.971 73.4833H44.471C44.0387 73.4833 43.7679 73.3062 43.6585 72.9416L29.3251 32.5041L15.1793 72.9416C15.122 73.3062 14.8251 73.4833 14.2835 73.4833H1.86682C1.43452 73.4833 1.14286 73.3687 0.991816 73.1291C0.856399 72.8791 0.840774 72.6395 0.950149 72.4L28.4293 1.50413C28.5387 1.14476 28.8356 0.962463 29.3251 0.962463C29.8095 0.962463 30.1168 1.14476 30.2418 1.50413L57.7835 72.4Z" fill="#562A2A"/>
</svg>
