<svg width="56" height="74" viewBox="0 0 56 74" fill="none" xmlns="http://www.w3.org/2000/svg">
<path d="M13.5437 0.968689C17.0437 0.968689 20.7572 1.21348 24.6895 1.69786C28.6166 2.18744 32.4239 3.12494 36.1062 4.51036C39.7989 5.90098 43.1375 7.92702 46.127 10.5937C49.1114 13.2499 51.4916 16.7343 53.2729 21.052C55.0645 25.3749 55.9604 30.7708 55.9604 37.2395C55.9604 43.4635 55.0854 48.7083 53.3354 52.9687C51.5854 57.2187 49.2208 60.6926 46.252 63.3854C43.2937 66.0676 39.95 68.151 36.2312 69.6354C32.5229 71.1249 28.7156 72.1354 24.8145 72.677C20.9239 73.2187 17.1687 73.4895 13.5437 73.4895H1.6687C1.00203 73.4895 0.668701 73.2187 0.668701 72.677V44.2187H14.5437V60.1562C16.2937 60.2291 18.3406 60.1874 20.6895 60.0312C23.0489 59.8801 25.4656 59.427 27.9395 58.677C30.4239 57.9166 32.7364 56.7187 34.877 55.0937C37.0281 53.4583 38.752 51.1926 40.0437 48.302C41.3458 45.401 42.002 41.7135 42.002 37.2395C42.002 31.4895 40.8041 26.8801 38.4187 23.4062C36.0281 19.9374 32.7625 17.4635 28.627 15.9895C24.4864 14.5051 19.7937 13.9062 14.5437 14.1979V30.2604H0.668701V1.78119C0.668701 1.23952 1.00203 0.968689 1.6687 0.968689H13.5437Z" fill="#562A2A" fill-opacity="0.502"/>
</svg>
