<svg width="13" height="14" viewBox="0 0 13 14" fill="none" xmlns="http://www.w3.org/2000/svg">
<path d="M5.80542 13.8498C4.68042 13.8498 3.72209 13.5686 2.93042 12.9956C2.13875 12.4123 1.53459 11.6311 1.11792 10.6415C0.701253 9.64148 0.49292 8.51648 0.49292 7.26648C0.49292 6.0321 0.701253 4.91231 1.11792 3.91231C1.545 2.91231 2.16479 2.13106 2.97209 1.55815C3.78979 0.990438 4.75334 0.703979 5.86792 0.703979C6.99292 0.703979 7.89396 0.969605 8.57625 1.49565C9.26896 2.0269 9.78979 2.6571 10.1388 3.39148H10.3054V1.03731H12.4096V13.6831H10.3054V11.0998H10.1388C9.76375 11.8498 9.22209 12.4956 8.51375 13.0373C7.80542 13.579 6.89917 13.8498 5.80542 13.8498ZM6.45125 12.079C7.68563 12.079 8.62834 11.6206 9.28459 10.704C9.93563 9.7769 10.2638 8.63106 10.2638 7.26648C10.2638 5.9071 9.93563 4.76648 9.28459 3.84981C8.62834 2.93315 7.68563 2.47481 6.45125 2.47481C5.18563 2.47481 4.22729 2.93315 3.57625 3.84981C2.93563 4.75606 2.61792 5.88627 2.61792 7.24565C2.61792 8.62065 2.93563 9.7769 3.57625 10.704C4.22729 11.6206 5.18563 12.079 6.45125 12.079Z" fill="black"/>
</svg>
