<svg width="10" height="15" viewBox="0 0 10 15" fill="none" xmlns="http://www.w3.org/2000/svg">
<path d="M5.1097 14.2771C4.27637 14.2771 3.51074 14.1729 2.81803 13.9646C2.12012 13.7458 1.53158 13.4437 1.0472 13.0687C0.557617 12.6833 0.219075 12.251 0.0263672 11.7771L1.15137 10.5896H1.40137C1.82845 11.2302 2.34408 11.7146 2.94303 12.0479C3.55241 12.3812 4.27637 12.5479 5.1097 12.5479C6.06803 12.5479 6.7972 12.3604 7.2972 11.9854C7.80762 11.6104 8.06803 11.0844 8.06803 10.4021C8.06803 9.89164 7.91178 9.46456 7.6097 9.13123C7.30241 8.79789 6.80762 8.54789 6.13053 8.38123L3.9222 7.83956C2.73991 7.54789 1.88053 7.09998 1.33887 6.48539C0.797201 5.86039 0.526367 5.09998 0.526367 4.19373C0.526367 3.47498 0.703451 2.85518 1.06803 2.33956C1.42741 1.81352 1.94824 1.41247 2.63053 1.13123C3.32324 0.839559 4.13574 0.693726 5.06803 0.693726C6.27637 0.693726 7.22428 0.860392 7.9222 1.19373C8.61491 1.52706 9.15658 1.99581 9.5472 2.58956L8.44303 3.67289H8.21387C7.7972 3.18852 7.33887 2.83956 6.83887 2.63123C6.33887 2.41247 5.74512 2.29789 5.06803 2.29789C4.20345 2.29789 3.5472 2.45414 3.08887 2.75623C2.63053 3.06352 2.40137 3.51664 2.40137 4.11039C2.40137 4.64164 2.55762 5.06873 2.88053 5.40206C3.21387 5.72498 3.78158 5.98018 4.58887 6.17289L6.75553 6.69373C7.89095 6.95935 8.71387 7.40206 9.21387 8.02706C9.72428 8.65206 9.9847 9.43852 9.9847 10.3812C9.9847 11.1469 9.80241 11.8291 9.44303 12.4229C9.07845 13.0062 8.53158 13.4646 7.7972 13.7979C7.05762 14.1156 6.16178 14.2771 5.1097 14.2771Z" fill="black"/>
</svg>
