<svg width="18" height="27" viewBox="0 0 18 27" fill="none" xmlns="http://www.w3.org/2000/svg">
<path d="M9.09701 26.2596C8.39909 26.2596 7.83659 26.2075 7.40951 26.1138C6.97721 26.0304 6.53971 25.9054 6.09701 25.7388V23.2388C6.39909 23.3325 6.80534 23.4263 7.30534 23.5096C7.81575 23.5929 8.31575 23.6346 8.80534 23.6346C10.6074 23.6346 11.9616 23.119 12.8678 22.0929C13.7845 21.0773 14.2428 19.7284 14.2428 18.0513V14.7596H13.972C13.4824 15.8429 12.7012 16.7596 11.6178 17.5096C10.5449 18.2596 9.25326 18.6346 7.74284 18.6346C6.21159 18.6346 4.86784 18.2492 3.70117 17.4679C2.54492 16.6763 1.64909 15.5877 1.01367 14.1971C0.388672 12.7961 0.0761719 11.1919 0.0761719 9.3846C0.0761719 7.58252 0.388672 5.98356 1.01367 4.59294C1.64909 3.1919 2.54492 2.09294 3.70117 1.30127C4.86784 0.509603 6.21159 0.11377 7.74284 0.11377C9.32617 0.11377 10.6491 0.530436 11.722 1.36377C12.8053 2.18669 13.5658 3.1346 14.0137 4.21794H14.2428V0.717936H17.2637V18.0513C17.2637 19.3429 16.998 20.6138 16.472 21.8638C15.9564 23.1138 15.0866 24.1554 13.8678 24.9888C12.6439 25.8325 11.0553 26.2596 9.09701 26.2596ZM8.70117 16.0721C9.87826 16.0721 10.8887 15.7544 11.722 15.1138C12.5553 14.4784 13.1699 13.645 13.5762 12.6138C13.9772 11.5877 14.1803 10.4836 14.1803 9.30127C14.1803 8.15023 13.9772 7.08252 13.5762 6.09294C13.1699 5.09294 12.5605 4.28044 11.7428 3.65544C10.9199 3.03044 9.90951 2.71794 8.70117 2.71794C6.91992 2.71794 5.56055 3.36377 4.61784 4.65544C3.68555 5.93669 3.22201 7.48356 3.22201 9.30127C3.22201 10.5096 3.41992 11.6294 3.82617 12.6554C4.24284 13.6867 4.85742 14.5096 5.68034 15.1346C6.49805 15.7596 7.50326 16.0721 8.70117 16.0721Z" fill="black"/>
</svg>
