<svg width="28" height="34" viewBox="0 0 28 34" fill="none" xmlns="http://www.w3.org/2000/svg">
<path d="M27.8218 16.1061C27.8218 18.7311 27.4051 21.1061 26.5718 23.2311C25.7489 25.3457 24.5718 27.0801 23.0301 28.4395L27.0509 33.5228H23.5093L20.7384 29.9811C18.8895 30.9395 16.7853 31.4186 14.4259 31.4186C11.577 31.4186 9.13428 30.7676 7.09261 29.4603C5.06136 28.1582 3.51969 26.3353 2.46761 24.002C1.41032 21.6686 0.884277 19.0228 0.884277 16.0645C0.884277 13.1061 1.41553 10.4551 2.48844 8.10612C3.55615 5.76237 5.10303 3.92904 7.13428 2.60612C9.17594 1.28841 11.603 0.626953 14.4259 0.626953C17.202 0.626953 19.5978 1.28841 21.6134 2.60612C23.6395 3.92904 25.1812 5.75195 26.2384 8.08529C27.2905 10.4186 27.8218 13.0957 27.8218 16.1061ZM14.3843 28.002C15.8843 28.002 17.228 27.7051 18.4259 27.1061L12.5509 19.6478H16.0926L20.6968 25.502C21.7384 24.4499 22.5405 23.1061 23.1134 21.4811C23.6812 19.8561 23.9676 18.0384 23.9676 16.0228C23.9676 13.6895 23.5822 11.6165 22.8218 9.79362C22.0562 7.97591 20.9468 6.55404 19.4884 5.52279C18.0405 4.49675 16.3426 3.98112 14.3843 3.98112C12.4103 3.98112 10.6968 4.50195 9.23844 5.54362C7.79053 6.58529 6.68636 8.01758 5.92594 9.83529C5.16032 11.6582 4.78011 13.7207 4.78011 16.0228C4.78011 18.3561 5.16032 20.429 5.92594 22.2311C6.68636 24.0384 7.79053 25.4551 9.23844 26.4811C10.6968 27.4967 12.4103 28.002 14.3843 28.002Z" fill="#690061"/>
</svg>
