<svg width="14" height="19" viewBox="0 0 14 19" fill="none" xmlns="http://www.w3.org/2000/svg">
<path d="M7.4043 18.4714C6.0293 18.4714 4.8418 18.2005 3.8418 17.6589C2.8418 17.1068 2.07617 16.4036 1.55013 15.5547C1.0345 14.7109 0.779297 13.8151 0.779297 12.8672V12.7005H3.5293V12.8255C3.5293 13.3672 3.67513 13.9036 3.9668 14.4297C4.26888 14.9453 4.722 15.3672 5.32096 15.7005C5.91471 16.0339 6.63867 16.2005 7.48763 16.2005C8.51367 16.2005 9.36263 15.9505 10.0293 15.4505C10.7064 14.9505 11.0501 14.263 11.0501 13.388C11.0501 12.6536 10.7845 12.0755 10.2585 11.6589C9.74284 11.2318 9.0918 10.9505 8.30013 10.8255L6.0918 10.4922C4.70117 10.2839 3.5345 9.81511 2.5918 9.07552C1.6595 8.34115 1.19596 7.27344 1.19596 5.86719C1.19596 4.29948 1.74805 3.08594 2.86263 2.22135C3.98763 1.36198 5.42513 0.929688 7.17513 0.929688C8.47721 0.929688 9.5918 1.17448 10.5085 1.65885C11.4355 2.13281 12.1439 2.75781 12.6335 3.53385C13.1335 4.3151 13.3835 5.15885 13.3835 6.07552V6.20052H10.6335V6.13802C10.6335 5.72135 10.5189 5.27865 10.3001 4.80469C10.0762 4.33594 9.69596 3.92969 9.1543 3.59635C8.62305 3.2526 7.94596 3.07552 7.11263 3.07552C6.08138 3.07552 5.25846 3.32552 4.63346 3.82552C4.01888 4.32552 3.7168 4.98177 3.7168 5.78385C3.7168 6.45052 3.95638 7.0026 4.44596 7.42969C4.94596 7.86198 5.56055 8.13802 6.30013 8.26302L8.7168 8.63802C10.1178 8.8776 11.3001 9.36198 12.2585 10.0964C13.2168 10.8359 13.696 11.9193 13.696 13.3464C13.696 14.3776 13.4251 15.2734 12.8835 16.0339C12.3418 16.7995 11.5918 17.3984 10.6335 17.8255C9.67513 18.2526 8.597 18.4714 7.4043 18.4714Z" fill="black"/>
</svg>
