<svg width="56" height="52" viewBox="0 0 56 52" fill="none" xmlns="http://www.w3.org/2000/svg">
<path d="M28.0151 51.5367C22.6921 51.5367 17.9942 50.4637 13.9109 48.3283C9.83797 46.1773 6.65047 43.1981 4.34839 39.3908C2.05672 35.5887 0.910889 31.1773 0.910889 26.1617C0.910889 21.1512 2.05672 16.7554 4.34839 12.9742C6.65047 9.19812 9.8588 6.23979 13.9734 4.09916C18.0828 1.94812 22.7963 0.869995 28.1192 0.869995C33.8536 0.869995 38.7911 2.09395 42.9317 4.53666C47.0671 6.98458 50.2078 10.4273 52.3484 14.87C54.4994 19.3179 55.4213 24.5315 55.1192 30.5158H18.1401C18.8067 33.1148 20.0671 35.0783 21.9317 36.4117C23.8067 37.7346 25.9578 38.3908 28.3901 38.3908C30.2494 38.3908 31.963 38.0575 33.5359 37.3908C35.1192 36.7242 36.3901 35.8231 37.3484 34.6825H54.2234C52.1088 40.0054 48.7703 44.1408 44.2026 47.0992C39.6296 50.0575 34.2338 51.5367 28.0151 51.5367ZM18.2234 21.0783H38.5359C37.8119 18.844 36.588 17.094 34.8692 15.8283C33.1453 14.5523 30.9526 13.9117 28.2859 13.9117C25.8692 13.9117 23.7651 14.5367 21.9734 15.7867C20.1921 17.0262 18.9421 18.7867 18.2234 21.0783Z" fill="#690061"/>
</svg>
