<svg width="22" height="25" viewBox="0 0 22 25" fill="none" xmlns="http://www.w3.org/2000/svg">
<path d="M9.81055 24.3557C7.82096 24.3557 6.12305 23.8505 4.70638 22.8349C3.30013 21.8088 2.22721 20.413 1.47721 18.6474C0.737631 16.887 0.373047 14.8922 0.373047 12.6682C0.373047 10.4495 0.748047 8.44946 1.49805 6.66821C2.25846 4.89217 3.35742 3.50155 4.78971 2.50155C6.23242 1.49113 7.94596 0.980713 9.93555 0.980713C11.9199 0.980713 13.5241 1.45467 14.748 2.39738C15.9668 3.32967 16.8991 4.44946 17.5397 5.75155H17.8314V1.58488H21.5397V24.064H17.8314V19.4599H17.5397C16.8418 20.7932 15.873 21.9495 14.623 22.9182C13.373 23.8765 11.7689 24.3557 9.81055 24.3557ZM10.9564 21.2099C13.1491 21.2099 14.8314 20.3922 15.998 18.7515C17.1647 17.1161 17.748 15.0849 17.748 12.6682C17.748 10.2515 17.1647 8.23071 15.998 6.60571C14.8314 4.9703 13.1491 4.14738 10.9564 4.14738C8.70638 4.14738 7.00325 4.95988 5.85221 6.58488C4.69596 8.19946 4.12305 10.2099 4.12305 12.6265C4.12305 15.0745 4.69596 17.1161 5.85221 18.7515C7.00325 20.3922 8.70638 21.2099 10.9564 21.2099Z" fill="#690061"/>
</svg>
