<svg width="56" height="74" viewBox="0 0 56 74" fill="none" xmlns="http://www.w3.org/2000/svg">
<path d="M41.529 60.1118H55.404V72.6326C55.404 73.1743 55.0706 73.4451 54.404 73.4451H42.6331C39.0081 73.4451 35.2269 73.1743 31.2998 72.6326C27.3675 72.0909 23.555 71.0805 19.8623 69.5909C16.18 68.1066 12.8415 66.0232 9.84147 63.3409C6.85189 60.6482 4.4873 57.1743 2.7373 52.9243C0.987305 48.6638 0.112305 43.419 0.112305 37.1951C0.112305 30.7784 0.997721 25.3982 2.77897 21.0493C4.57064 16.7055 6.95605 13.2055 9.94564 10.5493C12.93 7.88259 16.2842 5.85655 20.0081 4.46592C23.7269 3.0805 27.5342 2.14301 31.4248 1.65342C35.3258 1.16905 39.0602 0.924255 42.6331 0.924255H54.404C55.0706 0.924255 55.404 1.19509 55.404 1.73676V30.2159H41.529V14.1534C36.279 13.8618 31.5811 14.4607 27.4456 15.9451C23.305 17.419 20.0394 19.893 17.654 23.3618C15.2633 26.8357 14.0706 31.4451 14.0706 37.1951C14.0706 41.669 14.7165 45.3565 16.0081 48.2576C17.3102 51.1482 19.0342 53.4138 21.1748 55.0493C23.3258 56.6743 25.6383 57.8722 28.1123 58.6326C30.5967 59.3826 33.0133 59.8357 35.3623 59.9868C37.7217 60.143 39.779 60.1847 41.529 60.1118Z" fill="#562A2A" fill-opacity="0.502"/>
</svg>
