<svg width="13" height="15" viewBox="0 0 13 15" fill="none" xmlns="http://www.w3.org/2000/svg">
<path d="M6.33333 14.4773C5.09375 14.4773 4.02083 14.222 3.10417 13.7064C2.1875 13.1804 1.47917 12.4095 0.979167 11.3939C0.489583 10.3679 0.25 9.1335 0.25 7.68559C0.25 6.24288 0.489583 5.01371 0.979167 3.99809C1.47917 2.97205 2.1875 2.20121 3.10417 1.68559C4.02083 1.15955 5.09375 0.893921 6.33333 0.893921C7.56771 0.893921 8.63542 1.15955 9.54167 1.68559C10.4583 2.20121 11.1562 2.97205 11.6458 3.99809C12.1458 5.01371 12.3958 6.24288 12.3958 7.68559C12.3958 9.1335 12.1458 10.3679 11.6458 11.3939C11.1562 12.4095 10.4583 13.1804 9.54167 13.7064C8.63542 14.222 7.56771 14.4773 6.33333 14.4773ZM6.33333 12.7481C7.63542 12.7481 8.63021 12.3418 9.3125 11.5189C10.0052 10.6856 10.3542 9.40955 10.3542 7.68559C10.3542 5.95121 10.0052 4.67517 9.3125 3.85225C8.63021 3.03455 7.63542 2.62309 6.33333 2.62309C5.02604 2.62309 4.02083 3.03975 3.3125 3.87309C2.61458 4.696 2.27083 5.96684 2.27083 7.68559C2.27083 9.40955 2.61458 10.6856 3.3125 11.5189C4.02083 12.3418 5.02604 12.7481 6.33333 12.7481Z" fill="black"/>
</svg>
