<svg width="12" height="15" viewBox="0 0 12 15" fill="none" xmlns="http://www.w3.org/2000/svg">
<path d="M11.6701 7.92289H2.67008C2.72217 9.52185 3.10758 10.6937 3.81592 11.4437C4.52425 12.1833 5.493 12.5479 6.73258 12.5479C7.65967 12.5479 8.40967 12.3812 8.98258 12.0479C9.55029 11.7146 9.993 11.1937 10.3159 10.4854H10.5659L11.8368 11.2354C11.4618 12.1833 10.8472 12.9229 10.0034 13.4646C9.17008 14.0062 8.07633 14.2771 6.73258 14.2771C5.46696 14.2771 4.37842 14.0271 3.46175 13.5271C2.5555 13.0271 1.85758 12.2719 1.35758 11.2562C0.868001 10.2458 0.628418 8.98539 0.628418 7.48539C0.628418 6.00102 0.883626 4.75102 1.39925 3.73539C1.92529 2.70935 2.63363 1.94373 3.52425 1.44373C4.42529 0.943726 5.45133 0.693726 6.60758 0.693726C8.28467 0.693726 9.59717 1.16768 10.5451 2.11039C11.4878 3.05831 11.9618 4.45935 11.9618 6.31873C11.9618 7.04268 11.9461 7.52706 11.9201 7.77706L11.6701 7.92289ZM10.0451 6.31873C10.0138 4.91768 9.71175 3.90206 9.12842 3.27706C8.54508 2.64164 7.70133 2.31873 6.60758 2.31873C5.46696 2.31873 4.56592 2.64164 3.89925 3.27706C3.243 3.91768 2.84717 4.93331 2.71175 6.31873H10.0451Z" fill="black"/>
</svg>
