<svg width="15" height="18" viewBox="0 0 15 18" fill="none" xmlns="http://www.w3.org/2000/svg">
<path d="M14.8691 17.2422H12.0983V14.0339H11.89C11.4421 15.0235 10.7546 15.8568 9.82747 16.5339C8.89518 17.2006 7.76497 17.5339 6.43164 17.5339C5.01497 17.5339 3.83268 17.1954 2.88997 16.5131C1.95768 15.836 1.27018 14.9506 0.827474 13.8672C0.395182 12.7735 0.181641 11.586 0.181641 10.3047V0.388062H2.93164V9.95056C2.93164 11.5912 3.34831 12.8568 4.18164 13.7422C5.01497 14.6329 6.10352 15.0756 7.45247 15.0756C8.85352 15.0756 9.97852 14.6068 10.8275 13.6589C11.6712 12.7006 12.0983 11.4662 12.0983 9.95056V0.388062H14.8691V17.2422Z" fill="black"/>
</svg>
