<svg width="13" height="15" viewBox="0 0 13 15" fill="none" xmlns="http://www.w3.org/2000/svg">
<path d="M11.9596 7.92289H2.95964C3.01172 9.52185 3.39714 10.6937 4.10547 11.4437C4.8138 12.1833 5.78255 12.5479 7.02214 12.5479C7.94922 12.5479 8.69922 12.3812 9.27214 12.0479C9.83984 11.7146 10.2826 11.1937 10.6055 10.4854H10.8555L12.1263 11.2354C11.7513 12.1833 11.1367 12.9229 10.293 13.4646C9.45964 14.0062 8.36588 14.2771 7.02214 14.2771C5.75651 14.2771 4.66797 14.0271 3.7513 13.5271C2.84505 13.0271 2.14714 12.2719 1.64714 11.2562C1.15755 10.2458 0.917969 8.98539 0.917969 7.48539C0.917969 6.00102 1.17318 4.75102 1.6888 3.73539C2.21484 2.70935 2.92318 1.94373 3.8138 1.44373C4.71484 0.943726 5.74088 0.693726 6.89714 0.693726C8.57422 0.693726 9.88672 1.16768 10.8346 2.11039C11.7773 3.05831 12.2513 4.45935 12.2513 6.31873C12.2513 7.04268 12.2357 7.52706 12.2096 7.77706L11.9596 7.92289ZM10.3346 6.31873C10.3034 4.91768 10.0013 3.90206 9.41797 3.27706C8.83464 2.64164 7.99088 2.31873 6.89714 2.31873C5.75651 2.31873 4.85547 2.64164 4.1888 3.27706C3.53255 3.91768 3.13672 4.93331 3.0013 6.31873H10.3346Z" fill="black"/>
</svg>
