<svg width="18" height="20" viewBox="0 0 18 20" fill="none" xmlns="http://www.w3.org/2000/svg">
<path d="M9.28329 19.8491C7.40828 19.8491 5.83016 19.4012 4.55412 18.495C3.27287 17.5939 2.32495 16.4116 1.69995 14.9533C1.07495 13.495 0.762451 11.9637 0.762451 10.3491C0.762451 8.71371 1.07495 7.17204 1.69995 5.72412C2.32495 4.28141 3.28328 3.10954 4.57495 2.20329C5.86662 1.30225 7.44995 0.849121 9.32495 0.849121C11.7677 0.849121 13.726 1.67204 15.2 3.30745C16.6687 4.94808 17.4083 7.30225 17.4083 10.37V11.2033H3.74162V11.4533C3.74162 12.4689 3.97078 13.4272 4.42912 14.3283C4.89787 15.2345 5.5437 15.9637 6.36662 16.5158C7.19995 17.0731 8.16349 17.3491 9.26245 17.3491C10.4291 17.3491 11.4395 17.0522 12.3041 16.4533C13.1635 15.8439 13.7937 15.0314 14.2 14.0158H17.1583C16.6687 15.6825 15.7625 17.0731 14.4291 18.1825C13.1062 19.297 11.3927 19.8491 9.28329 19.8491ZM14.45 9.09912C14.351 7.01579 13.8354 5.51579 12.9083 4.59912C11.9916 3.67204 10.7833 3.20329 9.28329 3.20329C7.64266 3.20329 6.33537 3.74495 5.36662 4.82829C4.39266 5.91162 3.87183 7.33871 3.80412 9.09912H14.45Z" fill="#690061"/>
</svg>
