<svg width="16" height="18" viewBox="0 0 16 18" fill="none" xmlns="http://www.w3.org/2000/svg">
<path d="M0.869141 1.14901H3.61914V4.16984H3.88997C4.30664 3.20109 4.99414 2.37817 5.95247 1.71151C6.92122 1.03442 8.09831 0.690674 9.47331 0.690674C10.9004 0.690674 12.0983 1.03442 13.0566 1.71151C14.0254 2.37817 14.7441 3.26359 15.2025 4.35734C15.6608 5.4563 15.89 6.6438 15.89 7.91984V18.0032H13.1191V8.27401C13.1191 6.60734 12.6868 5.33651 11.8275 4.46151C10.9629 3.58651 9.83789 3.14901 8.45247 3.14901C6.97852 3.14901 5.80664 3.62817 4.93164 4.58651C4.05664 5.53442 3.61914 6.76359 3.61914 8.27401V18.0032H0.869141V1.14901Z" fill="black"/>
</svg>
