<svg width="22" height="24" viewBox="0 0 22 24" fill="none" xmlns="http://www.w3.org/2000/svg">
<path d="M11.1381 23.4159C8.85685 23.4159 6.92977 22.8742 5.34644 21.7909C3.77352 20.6971 2.58602 19.2596 1.78394 17.4784C0.992269 15.7023 0.596436 13.7857 0.596436 11.7284C0.596436 9.68671 0.992269 7.78046 1.78394 5.99921C2.58602 4.22317 3.77352 2.79087 5.34644 1.70754C6.92977 0.613791 8.85685 0.0617065 11.1381 0.0617065C13.4141 0.0617065 15.336 0.613791 16.9089 1.70754C18.4923 2.79087 19.6694 4.22837 20.4506 6.02004C21.2423 7.81171 21.6381 9.71796 21.6381 11.7284C21.6381 13.7596 21.2319 15.6659 20.4298 17.4575C19.6381 19.2492 18.4506 20.6971 16.8673 21.7909C15.2944 22.8742 13.3881 23.4159 11.1381 23.4159ZM11.1381 20.27C12.5235 20.27 13.7423 19.8898 14.7839 19.1242C15.8256 18.3482 16.6173 17.3117 17.1589 16.02C17.7006 14.7284 17.9714 13.2857 17.9714 11.6867C17.9714 9.244 17.3516 7.21796 16.1173 5.60337C14.8933 3.97837 13.2319 3.16587 11.1381 3.16587C9.72144 3.16587 8.49227 3.5565 7.4506 4.33254C6.40894 5.09817 5.61727 6.12421 5.0756 7.41587C4.53394 8.70754 4.2631 10.1346 4.2631 11.6867C4.2631 14.1346 4.87248 16.1763 6.09644 17.8117C7.31519 19.4523 8.99748 20.27 11.1381 20.27Z" fill="black"/>
</svg>
