<svg width="22" height="26" viewBox="0 0 22 26" fill="none" xmlns="http://www.w3.org/2000/svg">
<path d="M11.3744 25.9435C9.10881 25.9435 7.15047 25.4123 5.49943 24.3394C3.85881 23.256 2.60881 21.7716 1.74943 19.881C0.884846 17.98 0.457764 15.8289 0.457764 13.4227C0.457764 11.0216 0.884846 8.87581 1.74943 6.98519C2.60881 5.08415 3.85881 3.59977 5.49943 2.52686C7.15047 1.44352 9.10881 0.901855 11.3744 0.901855C14.0932 0.901855 16.3432 1.67269 18.1244 3.21436C19.9005 4.75602 21.0932 6.83415 21.7078 9.44352H18.7494C18.2598 7.65186 17.3744 6.23519 16.0828 5.19352C14.7911 4.14144 13.2286 3.61019 11.3953 3.61019C8.87964 3.61019 6.94735 4.50081 5.6036 6.27686C4.27026 8.04248 3.6036 10.4123 3.6036 13.381C3.6036 16.3966 4.27026 18.7873 5.6036 20.5477C6.94735 22.3133 8.87964 23.1935 11.3953 23.1935C13.1296 23.1935 14.6244 22.73 15.8744 21.7977C17.1244 20.855 18.0098 19.5998 18.5411 18.0269H21.4994C20.8432 20.4331 19.6453 22.355 17.8953 23.7977C16.1557 25.23 13.9838 25.9435 11.3744 25.9435Z" fill="#690061"/>
</svg>
