<svg width="18" height="27" viewBox="0 0 18 27" fill="none" xmlns="http://www.w3.org/2000/svg">
<path d="M9.58187 26.9119C8.88395 26.9119 8.32145 26.8599 7.89437 26.7661C7.46208 26.6828 7.02458 26.5578 6.58187 26.3911V23.8911C6.88395 23.9849 7.2902 24.0786 7.7902 24.1619C8.30062 24.2453 8.80062 24.2869 9.2902 24.2869C11.0923 24.2869 12.4465 23.7713 13.3527 22.7453C14.2694 21.7297 14.7277 20.3807 14.7277 18.7036V15.4119H14.4569C13.9673 16.4953 13.186 17.4119 12.1027 18.1619C11.0298 18.9119 9.73812 19.2869 8.2277 19.2869C6.69645 19.2869 5.3527 18.9015 4.18604 18.1203C3.02979 17.3286 2.13395 16.2401 1.49854 14.8494C0.873535 13.4484 0.561035 11.8442 0.561035 10.0369C0.561035 8.23486 0.873535 6.63591 1.49854 5.24528C2.13395 3.84424 3.02979 2.74528 4.18604 1.95361C5.3527 1.16195 6.69645 0.766113 8.2277 0.766113C9.81104 0.766113 11.134 1.18278 12.2069 2.01611C13.2902 2.83903 14.0506 3.78695 14.4985 4.87028H14.7277V1.37028H17.7485V18.7036C17.7485 19.9953 17.4829 21.2661 16.9569 22.5161C16.4412 23.7661 15.5715 24.8078 14.3527 25.6411C13.1287 26.4849 11.5402 26.9119 9.58187 26.9119ZM9.18604 16.7244C10.3631 16.7244 11.3735 16.4067 12.2069 15.7661C13.0402 15.1307 13.6548 14.2974 14.061 13.2661C14.4621 12.2401 14.6652 11.1359 14.6652 9.95361C14.6652 8.80257 14.4621 7.73486 14.061 6.74528C13.6548 5.74528 13.0454 4.93278 12.2277 4.30778C11.4048 3.68278 10.3944 3.37028 9.18604 3.37028C7.40479 3.37028 6.04541 4.01611 5.1027 5.30778C4.17041 6.58903 3.70687 8.13591 3.70687 9.95361C3.70687 11.1619 3.90479 12.2817 4.31104 13.3078C4.7277 14.339 5.34228 15.1619 6.1652 15.7869C6.98291 16.4119 7.98812 16.7244 9.18604 16.7244Z" fill="#690061"/>
</svg>
