<svg width="16" height="24" viewBox="0 0 16 24" fill="none" xmlns="http://www.w3.org/2000/svg">
<path d="M6.53353 17.0964C6.53353 16.0964 6.79395 15.2214 7.3252 14.4714C7.85124 13.711 8.6429 12.836 9.7002 11.8464C10.7106 10.8881 11.4762 10.0547 11.9919 9.3464C12.5023 8.62764 12.7627 7.79952 12.7627 6.86723C12.7627 5.60681 12.346 4.63285 11.5127 3.95056C10.6794 3.27348 9.59603 2.92973 8.2627 2.92973C7.14811 2.92973 6.24186 3.16931 5.53353 3.63806C4.8252 4.0964 4.31478 4.67973 4.0127 5.38806C3.7054 6.0964 3.55436 6.81515 3.55436 7.5339V7.6589H0.762695V7.5339C0.762695 6.14848 1.06478 4.9089 1.67936 3.82556C2.28874 2.73181 3.15853 1.87764 4.28353 1.26306C5.41895 0.638062 6.74707 0.325562 8.2627 0.325562C9.73145 0.325562 11.0179 0.606812 12.1169 1.15889C13.2106 1.71619 14.0596 2.48181 14.6585 3.45056C15.2523 4.42452 15.5544 5.51306 15.5544 6.7214C15.5544 7.5964 15.3877 8.40369 15.0544 9.13806C14.721 9.86202 14.3096 10.4922 13.8252 11.0339C13.3512 11.5651 12.7314 12.1901 11.971 12.9089C11.0544 13.7579 10.3669 14.4818 9.90853 15.0756C9.46061 15.6745 9.24186 16.3464 9.24186 17.0964V17.3464H6.53353V17.0964ZM7.90853 23.5339C7.3929 23.5339 6.97103 23.3672 6.6377 23.0339C6.30436 22.6901 6.1377 22.2579 6.1377 21.7422C6.1377 21.2422 6.30436 20.8256 6.6377 20.4922C6.97103 20.1485 7.3929 19.9714 7.90853 19.9714C8.3929 19.9714 8.80436 20.1485 9.1377 20.4922C9.48145 20.8256 9.65853 21.2422 9.65853 21.7422C9.65853 22.2318 9.48145 22.6537 9.1377 23.0131C8.80436 23.3568 8.3929 23.5339 7.90853 23.5339Z" fill="black"/>
</svg>
