<svg width="12" height="20" viewBox="0 0 12 20" fill="none" xmlns="http://www.w3.org/2000/svg">
<path d="M0.773926 19.2272V0.873047H2.71143V7.99805L2.96143 8.03971C3.88851 6.61263 5.24268 5.89388 7.02393 5.89388C8.59163 5.89388 9.73226 6.30013 10.4406 7.10221C11.1489 7.89388 11.5031 9.12305 11.5031 10.7897V19.2272H9.56559V10.8522C9.56559 10.0605 9.46143 9.43034 9.25309 8.95638C9.05518 8.47201 8.74268 8.11784 8.31559 7.89388C7.89893 7.67513 7.34163 7.56055 6.64893 7.56055C5.46663 7.56055 4.51351 7.95117 3.79476 8.72721C3.0708 9.49284 2.71143 10.748 2.71143 12.498V19.2272H0.773926Z" fill="black"/>
</svg>
