<svg width="29" height="36" viewBox="0 0 29 36" fill="none" xmlns="http://www.w3.org/2000/svg">
<path d="M14.8669 35.8488C11.1013 35.8488 8.06482 35.0155 5.76274 33.3488C3.45544 31.6821 2.1794 29.4113 1.9294 26.5363H10.4294C10.6065 27.3696 11.0752 27.9998 11.8252 28.4321C12.5752 28.8748 13.5232 29.0988 14.6794 29.0988C17.7054 29.0988 19.2211 27.505 19.2211 24.328V22.5363C17.2732 23.828 14.9711 24.4738 12.3044 24.4738C10.0388 24.4738 8.03878 23.9738 6.3044 22.9738C4.58044 21.9634 3.22628 20.5519 2.2419 18.7446C1.26794 16.9425 0.783569 14.8436 0.783569 12.453C0.783569 10.0675 1.26794 7.96859 2.2419 6.1613C3.22628 4.35921 4.58044 2.95296 6.3044 1.95296C8.03878 0.942545 10.0388 0.432129 12.3044 0.432129C15.8461 0.432129 18.6898 1.50505 20.8461 3.64046L21.7627 1.11963H28.0752V24.1613C28.0752 27.9113 26.8877 30.7915 24.5127 32.8071C22.1482 34.8332 18.9346 35.8488 14.8669 35.8488ZM9.40857 12.453C9.40857 13.953 9.87732 15.1925 10.8252 16.1613C11.7836 17.1196 13.0127 17.5988 14.5127 17.5988C16.0127 17.5988 17.2263 17.1196 18.1586 16.1613C19.0857 15.1925 19.5544 13.953 19.5544 12.453C19.5544 10.953 19.0857 9.73421 18.1586 8.7863C17.2263 7.84359 16.0127 7.36963 14.5127 7.36963C13.0127 7.36963 11.7836 7.84359 10.8252 8.7863C9.87732 9.73421 9.40857 10.953 9.40857 12.453Z" fill="#690061"/>
</svg>
