<svg width="11" height="24" viewBox="0 0 11 24" fill="none" xmlns="http://www.w3.org/2000/svg">
<path d="M6.10531 8.59637V18.388C6.10531 19.1693 6.13656 19.7422 6.20947 20.1172C6.29281 20.4922 6.49072 20.7943 6.81364 21.013C7.14697 21.2214 7.68864 21.3255 8.43864 21.3255C8.94906 21.3255 9.50635 21.2526 10.1053 21.0964V23.0755C9.94906 23.1485 9.62614 23.211 9.12614 23.263C8.62614 23.3307 8.10531 23.3672 7.56364 23.3672C6.32406 23.3672 5.40218 23.1953 4.79281 22.8464C4.19385 22.487 3.80322 22.0078 3.62614 21.4089C3.44385 20.7995 3.35531 19.9922 3.35531 18.9922V8.59637H0.209473V6.38804H3.35531V0.846375H6.10531V6.38804H10.1053V8.59637H6.10531Z" fill="black"/>
</svg>
