<svg width="13" height="15" viewBox="0 0 13 15" fill="none" xmlns="http://www.w3.org/2000/svg">
<path d="M6.70866 14.0783C5.37533 14.0783 4.23991 13.7866 3.31283 13.2033C2.39616 12.6095 1.71387 11.8179 1.27116 10.8283C0.823243 9.82829 0.604492 8.72412 0.604492 7.51579C0.604492 6.30745 0.823243 5.20329 1.27116 4.20329C1.71387 3.20329 2.39616 2.40641 3.31283 1.80745C4.23991 1.2137 5.37533 0.911621 6.70866 0.911621C8.05241 0.911621 9.18783 1.2137 10.1045 1.80745C11.0316 2.39079 11.7191 3.18245 12.167 4.18245C12.6097 5.18245 12.8337 6.28662 12.8337 7.49495C12.8337 8.69287 12.6097 9.78662 12.167 10.7866C11.7191 11.7866 11.0316 12.5887 10.1045 13.1825C9.18783 13.7814 8.05241 14.0783 6.70866 14.0783ZM6.70866 11.0783C7.54199 11.0783 8.15658 10.7397 8.56283 10.0575C8.96387 9.36475 9.16699 8.49495 9.16699 7.45329C9.16699 6.42725 8.96387 5.57829 8.56283 4.91162C8.15658 4.24495 7.54199 3.91162 6.70866 3.91162C5.87533 3.91162 5.25553 4.25537 4.85449 4.93245C4.46387 5.59912 4.27116 6.44287 4.27116 7.45329C4.27116 8.49495 4.46907 9.36475 4.87533 10.0575C5.29199 10.7397 5.90137 11.0783 6.70866 11.0783Z" fill="black"/>
</svg>
