<svg width="51" height="50" viewBox="0 0 51 50" fill="none" xmlns="http://www.w3.org/2000/svg">
<path d="M0.800293 49.9688V2.01042H13.3003L15.1128 6.90625C16.8628 4.90625 19.0972 3.36458 21.8211 2.28125C24.5399 1.19792 27.5086 0.65625 30.717 0.65625C36.8836 0.65625 41.7638 2.57292 45.3628 6.40625C48.9565 10.2396 50.7586 15.3958 50.7586 21.8646V49.9688H33.342V23.6771C33.342 20.8333 32.6857 18.6875 31.3836 17.2396C30.092 15.7812 28.2899 15.0521 25.9878 15.0521C23.5711 15.0521 21.6649 15.8438 20.2795 17.4271C18.8888 19 18.1961 21.2344 18.1961 24.1354V49.9688H0.800293Z" fill="#690061"/>
</svg>
