<svg width="17" height="19" viewBox="0 0 17 19" fill="none" xmlns="http://www.w3.org/2000/svg">
<path d="M7.30745 18.4714C5.80745 18.4714 4.5262 18.0911 3.47412 17.3255C2.41683 16.5495 1.60954 15.5026 1.05745 14.1797C0.500162 12.862 0.224121 11.3672 0.224121 9.70052C0.224121 8.03385 0.505372 6.53385 1.07829 5.20052C1.646 3.86719 2.46371 2.82552 3.53662 2.07552C4.61995 1.3151 5.9012 0.929688 7.39079 0.929688C8.89079 0.929688 10.0991 1.28385 11.0158 1.99219C11.9325 2.6901 12.6252 3.52865 13.0991 4.51302H13.3075V1.38802H16.0991V18.2422H13.3075V14.7839H13.0991C12.5835 15.7839 11.8543 16.6536 10.9116 17.388C9.97933 18.112 8.7762 18.4714 7.30745 18.4714ZM8.16162 16.0964C9.79704 16.0964 11.0575 15.487 11.9325 14.263C12.8075 13.0286 13.245 11.5078 13.245 9.70052C13.245 7.88281 12.8075 6.36198 11.9325 5.13802C11.0575 3.91927 9.79704 3.30469 8.16162 3.30469C6.47933 3.30469 5.20329 3.91927 4.32829 5.13802C3.46371 6.34635 3.03662 7.85677 3.03662 9.65885C3.03662 11.4922 3.46371 13.0286 4.32829 14.263C5.20329 15.487 6.47933 16.0964 8.16162 16.0964Z" fill="black"/>
</svg>
