<svg width="12" height="15" viewBox="0 0 12 15" fill="none" xmlns="http://www.w3.org/2000/svg">
<path d="M0.500488 14.0271V0.922892H2.35466V2.98539L2.60466 3.04789C3.03174 2.28747 3.58382 1.70414 4.25049 1.29789C4.92757 0.896851 5.76091 0.693726 6.75049 0.693726C8.3182 0.693726 9.45882 1.09998 10.1672 1.90206C10.8755 2.69373 11.2297 3.92289 11.2297 5.58956V14.0271H9.29216V5.65206C9.29216 4.86039 9.18799 4.23018 8.97966 3.75623C8.78174 3.27185 8.46924 2.91768 8.04216 2.69373C7.62549 2.47498 7.0682 2.36039 6.37549 2.36039C5.20882 2.36039 4.2557 2.75623 3.52132 3.54789C2.79736 4.32914 2.43799 5.57914 2.43799 7.29789V14.0271H0.500488Z" fill="black"/>
</svg>
