<svg width="19" height="13" viewBox="0 0 19 13" fill="none" xmlns="http://www.w3.org/2000/svg">
<path d="M0.257324 0.921224H2.17399V3.10872H2.36149C2.38753 2.95768 2.53337 2.68685 2.79899 2.29622C3.07503 1.89518 3.4917 1.51497 4.04899 1.15039C4.6167 0.775391 5.30941 0.587891 6.13232 0.587891C7.01774 0.587891 7.74691 0.796224 8.31982 1.21289C8.90316 1.61914 9.34066 2.05664 9.63232 2.52539C9.92399 2.99935 10.0698 3.29102 10.0698 3.40039H10.2365C10.4552 2.87435 10.8823 2.27539 11.5073 1.60872C12.1323 0.931641 13.0959 0.587891 14.4032 0.587891C15.3615 0.587891 16.1636 0.837891 16.8198 1.33789C17.4709 1.82747 17.95 2.45768 18.2573 3.23372C18.5594 3.99935 18.7157 4.81706 18.7157 5.69206V12.8587H16.799V5.87956C16.799 4.72852 16.4969 3.85872 15.9032 3.27539C15.3042 2.68164 14.5698 2.37956 13.6948 2.37956C12.7886 2.37956 12.0177 2.68685 11.3823 3.29622C10.7573 3.91081 10.4448 4.77018 10.4448 5.87956V12.8587H8.52816V5.87956C8.52816 4.72852 8.22607 3.85872 7.63232 3.27539C7.03337 2.68164 6.29899 2.37956 5.42399 2.37956C4.50732 2.37956 3.73649 2.68685 3.11149 3.29622C2.48649 3.91081 2.17399 4.77018 2.17399 5.87956V12.8587H0.257324V0.921224Z" fill="black"/>
</svg>
