<svg width="17" height="19" viewBox="0 0 17 19" fill="none" xmlns="http://www.w3.org/2000/svg">
<path d="M8.51221 18.4714C6.78825 18.4714 5.32992 18.0547 4.13721 17.2214C2.95492 16.388 2.07471 15.2995 1.49137 13.9505C0.918458 12.6068 0.637207 11.1901 0.637207 9.70052C0.637207 8.1901 0.918458 6.76302 1.49137 5.42969C2.07471 4.09635 2.96012 3.01302 4.15804 2.17969C5.35075 1.34635 6.81429 0.929688 8.55387 0.929688C10.8143 0.929688 12.6216 1.6901 13.9705 3.20052C15.3299 4.71615 16.0122 6.88802 16.0122 9.72135V10.4922H3.38721V10.7214C3.38721 11.6693 3.60075 12.5547 4.03304 13.388C4.46012 14.2109 5.05908 14.8776 5.82471 15.388C6.58512 15.9036 7.47575 16.1589 8.49137 16.1589C9.57471 16.1589 10.5122 15.8828 11.3039 15.3255C12.0955 14.7734 12.6789 14.0286 13.0539 13.0964H15.783C15.3351 14.6276 14.4966 15.9036 13.2622 16.9297C12.0382 17.9609 10.4549 18.4714 8.51221 18.4714ZM13.283 8.55469C13.1997 6.6276 12.7257 5.23698 11.8664 4.38802C11.0174 3.52865 9.89762 3.09635 8.51221 3.09635C6.99658 3.09635 5.78825 3.60677 4.88721 4.61719C3.99658 5.61719 3.52262 6.92969 3.47054 8.55469H13.283Z" fill="black"/>
</svg>
