<svg width="16" height="19" viewBox="0 0 16 19" fill="none" xmlns="http://www.w3.org/2000/svg">
<path d="M8.23364 18.2323C6.50968 18.2323 5.05135 17.8157 3.85864 16.9823C2.67635 16.149 1.79614 15.0605 1.21281 13.7115C0.639893 12.3678 0.358643 10.9511 0.358643 9.46151C0.358643 7.95109 0.639893 6.52401 1.21281 5.19067C1.79614 3.85734 2.68156 2.77401 3.87948 1.94067C5.07218 1.10734 6.53573 0.690674 8.27531 0.690674C10.5357 0.690674 12.343 1.45109 13.692 2.96151C15.0514 4.47713 15.7336 6.64901 15.7336 9.48234V10.2532H3.10864V10.4823C3.10864 11.4303 3.32218 12.3157 3.75448 13.149C4.18156 13.9719 4.78052 14.6386 5.54614 15.149C6.30656 15.6646 7.19718 15.9198 8.21281 15.9198C9.29614 15.9198 10.2336 15.6438 11.0253 15.0865C11.817 14.5344 12.4003 13.7896 12.7753 12.8573H15.5045C15.0566 14.3886 14.218 15.6646 12.9836 16.6907C11.7597 17.7219 10.1764 18.2323 8.23364 18.2323ZM13.0045 8.31567C12.9211 6.38859 12.4472 4.99797 11.5878 4.14901C10.7389 3.28963 9.61906 2.85734 8.23364 2.85734C6.71802 2.85734 5.50968 3.36776 4.60864 4.37817C3.71802 5.37817 3.24406 6.69067 3.19198 8.31567H13.0045Z" fill="black"/>
</svg>
