<svg width="16" height="24" viewBox="0 0 16 24" fill="none" xmlns="http://www.w3.org/2000/svg">
<path d="M6.23739 16.8576C6.23739 15.8576 6.4978 14.9826 7.02905 14.2326C7.55509 13.4722 8.34676 12.5972 9.40405 11.6076C10.4145 10.6493 11.1801 9.81596 11.6957 9.10763C12.2061 8.38888 12.4666 7.56075 12.4666 6.62846C12.4666 5.36804 12.0499 4.39408 11.2166 3.71179C10.3832 3.03471 9.29989 2.69096 7.96655 2.69096C6.85197 2.69096 5.94572 2.93054 5.23739 3.39929C4.52905 3.85763 4.01864 4.44096 3.71655 5.14929C3.40926 5.85763 3.25822 6.57638 3.25822 7.29513V7.42013H0.466553V7.29513C0.466553 5.90971 0.768635 4.67013 1.38322 3.58679C1.99259 2.49304 2.86239 1.63887 3.98739 1.02429C5.1228 0.399292 6.45093 0.086792 7.96655 0.086792C9.4353 0.086792 10.7218 0.368043 11.8207 0.920125C12.9145 1.47742 13.7634 2.24304 14.3624 3.21179C14.9561 4.18575 15.2582 5.27429 15.2582 6.48263C15.2582 7.35763 15.0916 8.16492 14.7582 8.89929C14.4249 9.62325 14.0134 10.2535 13.5291 10.7951C13.0551 11.3264 12.4353 11.9514 11.6749 12.6701C10.7582 13.5191 10.0707 14.243 9.61239 14.8368C9.16447 15.4358 8.94572 16.1076 8.94572 16.8576V17.1076H6.23739V16.8576ZM7.61239 23.2951C7.09676 23.2951 6.67489 23.1285 6.34155 22.7951C6.00822 22.4514 5.84155 22.0191 5.84155 21.5035C5.84155 21.0035 6.00822 20.5868 6.34155 20.2535C6.67489 19.9097 7.09676 19.7326 7.61239 19.7326C8.09676 19.7326 8.50822 19.9097 8.84155 20.2535C9.1853 20.5868 9.36239 21.0035 9.36239 21.5035C9.36239 21.993 9.1853 22.4149 8.84155 22.7743C8.50822 23.118 8.09676 23.2951 7.61239 23.2951Z" fill="black"/>
</svg>
