<svg width="16" height="25" viewBox="0 0 16 25" fill="none" xmlns="http://www.w3.org/2000/svg">
<path d="M0.0507812 0.346313H2.80078V10.4088H3.07161C3.48828 9.44006 4.17578 8.61715 5.13411 7.95048C6.10287 7.2734 7.27995 6.92965 8.65495 6.92965C10.082 6.92965 11.2799 7.2734 12.2383 7.95048C13.207 8.61715 13.9258 9.50256 14.3841 10.5963C14.8424 11.6953 15.0716 12.8828 15.0716 14.1588V24.2421H12.3008V14.513C12.3008 12.8463 11.8685 11.5755 11.0091 10.7005C10.1445 9.82548 8.9987 9.38798 7.57161 9.38798C6.20703 9.38798 5.07161 9.84631 4.15495 10.763C3.2487 11.6796 2.80078 12.9296 2.80078 14.513V24.2421H0.0507812V0.346313Z" fill="black"/>
</svg>
