<svg width="17" height="19" viewBox="0 0 17 19" fill="none" xmlns="http://www.w3.org/2000/svg">
<path d="M16.3883 18.5994H13.3675V15.1411H13.1592C12.6696 16.1984 11.9196 17.0942 10.9092 17.8286C9.90918 18.5526 8.68001 18.9119 7.22168 18.9119C5.69043 18.9119 4.4196 18.5474 3.40918 17.8078C2.39355 17.0578 1.64876 16.0994 1.18001 14.9328C0.706054 13.7557 0.47168 12.4692 0.47168 11.0786V0.328613H3.45085V10.7036C3.45085 12.4849 3.89876 13.8494 4.80501 14.8078C5.70605 15.7661 6.88835 16.2453 8.34668 16.2453C9.8571 16.2453 11.0758 15.7349 11.9925 14.7036C12.9092 13.6776 13.3675 12.3442 13.3675 10.7036V0.328613H16.3883V18.5994Z" fill="black"/>
</svg>
