<svg width="35" height="32" viewBox="0 0 35 32" fill="none" xmlns="http://www.w3.org/2000/svg">
<path d="M17.5638 31.5296C14.3138 31.5296 11.4388 30.8733 8.9388 29.5712C6.4388 28.2535 4.48568 26.4254 3.08464 24.0921C1.67838 21.7587 0.980469 19.0608 0.980469 15.9879C0.980469 12.9202 1.67838 10.2275 3.08464 7.90458C4.48568 5.58687 6.44401 3.77437 8.95964 2.46708C11.4857 1.14937 14.3763 0.487915 17.6263 0.487915C21.1367 0.487915 24.1576 1.23792 26.6888 2.73792C29.2305 4.23792 31.1576 6.3525 32.4805 9.07125C33.7982 11.7952 34.3607 14.9879 34.168 18.6546H11.5221C11.9232 20.2379 12.6992 21.441 13.8555 22.2587C15.0065 23.0817 16.319 23.4879 17.793 23.4879C18.944 23.4879 20.0013 23.29 20.9596 22.8837C21.918 22.4671 22.694 21.9046 23.293 21.1962H33.6263C32.319 24.4619 30.2721 27.0035 27.4805 28.8212C24.6888 30.6285 21.3815 31.5296 17.5638 31.5296ZM11.5846 12.8837H24.0221C23.5742 11.5087 22.8242 10.4358 21.7721 9.65458C20.7148 8.87854 19.3659 8.48792 17.7305 8.48792C16.2565 8.48792 14.9701 8.87333 13.8763 9.63375C12.793 10.3837 12.0273 11.4671 11.5846 12.8837Z" fill="#690061"/>
</svg>
