<svg width="7" height="17" viewBox="0 0 7 17" fill="none" xmlns="http://www.w3.org/2000/svg">
<path d="M4.15885 6.48376V13.4213C4.15885 13.9786 4.1849 14.39 4.24219 14.6504C4.29427 14.9161 4.4349 15.1244 4.65885 15.2754C4.89323 15.4317 5.27344 15.5046 5.80469 15.5046C6.17969 15.5046 6.57552 15.4525 6.99219 15.3379V16.7546C6.8776 16.7963 6.64323 16.8379 6.28385 16.8796C5.9349 16.9213 5.57552 16.9421 5.20052 16.9421C4.32552 16.9421 3.66927 16.8171 3.24219 16.5671C2.8099 16.3171 2.52344 15.9786 2.38802 15.5463C2.26302 15.1192 2.20052 14.5463 2.20052 13.8379V6.48376H-0.0078125V4.92126H2.20052V0.983765H4.15885V4.92126H6.99219V6.48376H4.15885Z" fill="black"/>
</svg>
