<svg width="11" height="14" viewBox="0 0 11 14" fill="none" xmlns="http://www.w3.org/2000/svg">
<path d="M5.58854 13.8498C4.55729 13.8498 3.67188 13.6519 2.92188 13.2456C2.17188 12.829 1.59375 12.3029 1.19271 11.6623C0.802083 11.0269 0.609375 10.3498 0.609375 9.64148V9.53731H2.67188V9.62065C2.67188 10.0269 2.78125 10.4279 3.00521 10.829C3.23958 11.2196 3.57813 11.5373 4.02604 11.7873C4.46875 12.0269 5.01042 12.1415 5.65104 12.1415C6.42708 12.1415 7.06771 11.954 7.56771 11.579C8.06771 11.204 8.31771 10.6936 8.31771 10.0373C8.31771 9.49565 8.11979 9.06856 7.73438 8.74565C7.34375 8.42794 6.84896 8.2196 6.25521 8.12065L4.60938 7.87065C3.56771 7.7196 2.69271 7.36544 1.98438 6.80815C1.27604 6.25606 0.921875 5.44877 0.921875 4.39148C0.921875 3.22481 1.33854 2.32377 2.17188 1.68315C3.01562 1.0321 4.09896 0.703979 5.42188 0.703979C6.39062 0.703979 7.22396 0.886271 7.92188 1.24565C8.61458 1.61023 9.14062 2.07898 9.50521 2.66231C9.88021 3.24565 10.0677 3.88106 10.0677 4.55815V4.66231H8.00521V4.62065C8.00521 4.30294 7.92188 3.9696 7.75521 3.62065C7.58854 3.26127 7.30208 2.95398 6.90104 2.70398C6.49479 2.44356 5.98438 2.30815 5.35938 2.30815C4.59375 2.30815 3.97396 2.49565 3.50521 2.87065C3.04688 3.24565 2.81771 3.74044 2.81771 4.34981C2.81771 4.84981 2.99479 5.26127 3.35938 5.57898C3.73438 5.9019 4.20313 6.11023 4.77604 6.20398L6.56771 6.47481C7.61979 6.6571 8.51042 7.0269 9.23438 7.57898C9.95313 8.13627 10.3177 8.94877 10.3177 10.0165C10.3177 10.7821 10.1094 11.454 9.69271 12.0373C9.28646 12.6102 8.72396 13.0529 8.00521 13.3706C7.28125 13.6884 6.47396 13.8498 5.58854 13.8498Z" fill="black"/>
</svg>
