<svg width="24" height="27" viewBox="0 0 24 27" fill="none" xmlns="http://www.w3.org/2000/svg">
<path d="M12.1829 26.0738C9.91732 26.0738 7.94336 25.7249 6.26628 25.0321C4.58398 24.3238 3.27669 23.3238 2.34961 22.0321C1.43294 20.7301 0.974609 19.2144 0.974609 17.4905H9.59961C9.59961 18.2301 9.83919 18.8238 10.3288 19.2821C10.8288 19.7405 11.4746 19.9696 12.2663 19.9696C13.735 19.9696 14.4746 19.4071 14.4746 18.2821C14.4746 17.6988 14.1204 17.1988 13.4121 16.7821C12.7142 16.3655 11.5579 16.0061 9.93294 15.6988C6.90169 15.1311 4.68815 14.2301 3.28711 12.9905C1.89648 11.7405 1.20378 10.0946 1.20378 8.05298C1.20378 5.59465 2.12044 3.71444 3.95378 2.40715C5.79753 1.08944 8.45378 0.427979 11.9121 0.427979C15.2975 0.427979 17.9173 1.13631 19.7663 2.55298C21.61 3.95923 22.61 6.0009 22.7663 8.67798H14.4329C14.334 7.15194 13.459 6.38631 11.8079 6.38631C11.1673 6.38631 10.6465 6.53215 10.2454 6.82381C9.85482 7.11548 9.66211 7.52694 9.66211 8.05298C9.66211 8.6259 9.98503 9.09465 10.6413 9.46965C11.2923 9.83423 12.5371 10.1884 14.3704 10.5321C20.2142 11.6571 23.1413 14.2561 23.1413 18.3238C23.1413 20.7405 22.1725 22.6363 20.2454 24.0113C18.3288 25.3863 15.6413 26.0738 12.1829 26.0738Z" fill="#690061"/>
</svg>
