<svg width="17" height="25" viewBox="0 0 17 25" fill="none" xmlns="http://www.w3.org/2000/svg">
<path d="M8.74996 24.7532C8.10933 24.7532 7.5885 24.7115 7.18746 24.6282C6.79683 24.5448 6.401 24.425 5.99996 24.274V21.9615C6.276 22.0553 6.64579 22.1386 7.10413 22.2115C7.57288 22.2792 8.03121 22.3157 8.47913 22.3157C10.1458 22.3157 11.401 21.8417 12.25 20.899C13.0937 19.9667 13.5208 18.7219 13.5208 17.1698V14.1282H13.25C12.802 15.1282 12.0833 15.9771 11.0833 16.6698C10.0937 17.3678 8.901 17.7115 7.49996 17.7115C6.08329 17.7115 4.8385 17.3521 3.77079 16.6282C2.7135 15.9094 1.88538 14.899 1.29163 13.6073C0.708293 12.3157 0.416626 10.8365 0.416626 9.16984C0.416626 7.50317 0.708293 6.02401 1.29163 4.73234C1.88538 3.44067 2.7135 2.43547 3.77079 1.71151C4.8385 0.992758 6.08329 0.628174 7.49996 0.628174C8.96871 0.628174 10.1979 1.01359 11.1875 1.77401C12.1875 2.52401 12.8854 3.39901 13.2916 4.39901H13.5208V1.16984H16.2916V17.1698C16.2916 18.3625 16.0468 19.5344 15.5625 20.6907C15.0885 21.8417 14.2812 22.8053 13.1458 23.5865C12.0208 24.3625 10.552 24.7532 8.74996 24.7532ZM8.39579 15.3573C9.47913 15.3573 10.401 15.0657 11.1666 14.4823C11.9427 13.8886 12.5104 13.1178 12.875 12.1698C13.25 11.2115 13.4375 10.1907 13.4375 9.10734C13.4375 8.03963 13.25 7.04484 12.875 6.12817C12.5104 5.21151 11.9479 4.47192 11.1875 3.89901C10.4375 3.31567 9.50517 3.02401 8.39579 3.02401C6.75517 3.02401 5.49996 3.62297 4.62496 4.81567C3.76038 5.99797 3.33329 7.43026 3.33329 9.10734C3.33329 10.2219 3.52079 11.2532 3.89579 12.2115C4.27079 13.1594 4.83329 13.9198 5.58329 14.5032C6.34371 15.0761 7.28121 15.3573 8.39579 15.3573Z" fill="black"/>
</svg>
