<svg width="56" height="74" viewBox="0 0 56 74" fill="none" xmlns="http://www.w3.org/2000/svg">
<path d="M41.9797 60.1624H55.8547V72.6832C55.8547 73.2249 55.5213 73.4957 54.8547 73.4957H43.0838C39.4588 73.4957 35.6776 73.2249 31.7505 72.6832C27.8182 72.1415 24.0057 71.1311 20.313 69.6415C16.6307 68.1572 13.2922 66.0738 10.2922 63.3915C7.30257 60.6988 4.93799 57.2249 3.18799 52.9749C1.43799 48.7144 0.562988 43.4696 0.562988 37.2457C0.562988 30.829 1.4484 25.4488 3.22966 21.0999C5.02132 16.7561 7.40674 13.2561 10.3963 10.5999C13.3807 7.93319 16.7349 5.90715 20.4588 4.51652C24.1776 3.1311 27.9849 2.1936 31.8755 1.70402C35.7765 1.21965 39.5109 0.974854 43.0838 0.974854H54.8547C55.5213 0.974854 55.8547 1.24569 55.8547 1.78735V30.2665H41.9797V14.204C36.7297 13.9124 32.0317 14.5113 27.8963 15.9957C23.7557 17.4696 20.4901 19.9436 18.1047 23.4124C15.714 26.8863 14.5213 31.4957 14.5213 37.2457C14.5213 41.7196 15.1672 45.4071 16.4588 48.3082C17.7609 51.1988 19.4849 53.4644 21.6255 55.0999C23.7765 56.7249 26.089 57.9228 28.563 58.6832C31.0474 59.4332 33.464 59.8863 35.813 60.0374C38.1724 60.1936 40.2297 60.2353 41.9797 60.1624Z" fill="#562A2A" fill-opacity="0.302"/>
</svg>
