<svg width="16" height="25" viewBox="0 0 16 25" fill="none" xmlns="http://www.w3.org/2000/svg">
<path d="M0.897949 0.346313H3.64795V10.4088H3.91878C4.33545 9.44006 5.02295 8.61715 5.98128 7.95048C6.95003 7.2734 8.12712 6.92965 9.50212 6.92965C10.9292 6.92965 12.1271 7.2734 13.0854 7.95048C14.0542 8.61715 14.7729 9.50256 15.2313 10.5963C15.6896 11.6953 15.9188 12.8828 15.9188 14.1588V24.2421H13.1479V14.513C13.1479 12.8463 12.7157 11.5755 11.8563 10.7005C10.9917 9.82548 9.84587 9.38798 8.41878 9.38798C7.0542 9.38798 5.91878 9.84631 5.00212 10.763C4.09587 11.6796 3.64795 12.9296 3.64795 14.513V24.2421H0.897949V0.346313Z" fill="black"/>
</svg>
