<svg width="17" height="25" viewBox="0 0 17 25" fill="none" xmlns="http://www.w3.org/2000/svg">
<path d="M7.50228 24.4714C6.00228 24.4714 4.72103 24.0911 3.66895 23.3255C2.61165 22.5495 1.80436 21.5026 1.25228 20.1797C0.694987 18.862 0.418945 17.3672 0.418945 15.7005C0.418945 14.0234 0.694987 12.5234 1.25228 11.2005C1.80436 9.86719 2.61686 8.82552 3.68978 8.07552C4.75749 7.3151 6.04915 6.92969 7.56478 6.92969C9.04915 6.92969 10.2575 7.29427 11.1898 8.01302C12.1169 8.72135 12.8044 9.55469 13.2523 10.513H13.5023V0.242188H16.2731V24.2422H13.5023V20.7839H13.2523C12.7367 21.8151 12.0127 22.6901 11.0856 23.4089C10.1689 24.1172 8.97103 24.4714 7.50228 24.4714ZM8.33561 22.0964C9.98665 22.0964 11.2523 21.487 12.1273 20.263C13.0023 19.0286 13.4398 17.5078 13.4398 15.7005C13.4398 13.8828 13.0023 12.3672 12.1273 11.1589C11.2523 9.94011 9.98665 9.32552 8.33561 9.32552C6.6377 9.32552 5.36165 9.94011 4.50228 11.1589C3.65332 12.3672 3.23145 13.8828 3.23145 15.7005C3.23145 17.5339 3.65853 19.0651 4.52311 20.2839C5.39811 21.4922 6.66895 22.0964 8.33561 22.0964Z" fill="black"/>
</svg>
