<svg width="15" height="20" viewBox="0 0 15 20" fill="none" xmlns="http://www.w3.org/2000/svg">
<path d="M7.55876 19.8491C6.0848 19.8491 4.79834 19.5575 3.70459 18.9741C2.62126 18.3804 1.79313 17.62 1.22542 16.7033C0.668131 15.7762 0.39209 14.797 0.39209 13.7658V13.5991H3.37126V13.745C3.37126 14.3179 3.52751 14.8856 3.85042 15.4533C4.18376 16.0262 4.66813 16.4897 5.30876 16.8491C5.9598 17.2137 6.74626 17.3908 7.66292 17.3908C8.7723 17.3908 9.68896 17.12 10.4129 16.5783C11.1473 16.0262 11.5171 15.2762 11.5171 14.3283C11.5171 13.5366 11.2306 12.9116 10.6629 12.4533C10.09 11.995 9.38167 11.6981 8.53792 11.5575L6.14209 11.2033C4.64209 10.9845 3.38167 10.4741 2.37126 9.68246C1.35563 8.88037 0.850423 7.71371 0.850423 6.18245C0.850423 4.50537 1.45459 3.19808 2.66292 2.26579C3.87126 1.32308 5.42334 0.849121 7.32959 0.849121C8.73063 0.849121 9.93376 1.11475 10.9338 1.64079C11.9442 2.15641 12.715 2.83871 13.2463 3.68245C13.7723 4.51579 14.0379 5.43245 14.0379 6.43245V6.55745H11.0588V6.49495C11.0588 6.03662 10.9338 5.55745 10.6838 5.05745C10.4442 4.54704 10.0379 4.09912 9.45459 3.72412C8.88167 3.34912 8.1473 3.16162 7.24626 3.16162C6.13167 3.16162 5.24626 3.43245 4.57959 3.97412C3.91292 4.51579 3.57959 5.23454 3.57959 6.11995C3.57959 6.82829 3.84001 7.42204 4.37126 7.89079C4.91292 8.34912 5.5848 8.6512 6.39209 8.78662L8.99626 9.20329C10.5067 9.45329 11.7879 9.98454 12.8296 10.7866C13.8713 11.5783 14.3921 12.745 14.3921 14.2866C14.3921 15.4012 14.09 16.37 13.4963 17.2033C12.9129 18.0366 12.1004 18.6929 11.0588 19.1616C10.0275 19.62 8.86084 19.8491 7.55876 19.8491Z" fill="black"/>
</svg>
