<svg width="12" height="14" viewBox="0 0 12 14" fill="none" xmlns="http://www.w3.org/2000/svg">
<path d="M5.58529 13.0254C4.51237 13.0254 3.60612 12.7546 2.85612 12.2129C2.11654 11.6608 1.54883 10.916 1.14779 9.98372C0.757161 9.04102 0.564453 7.98372 0.564453 6.81706C0.564453 5.63997 0.762369 4.57747 1.16862 3.62956C1.56966 2.68685 2.15299 1.94206 2.91862 1.40039C3.67904 0.858724 4.59049 0.587891 5.64779 0.587891C6.69987 0.587891 7.55404 0.837891 8.21029 1.33789C8.86133 1.83789 9.35612 2.43685 9.68945 3.12956H9.83529V0.921224H11.8145V12.8587H9.83529V10.4004H9.68945C9.31445 11.1243 8.79362 11.7441 8.12695 12.2546C7.4707 12.7702 6.62695 13.0254 5.58529 13.0254ZM6.18945 11.3379C7.35612 11.3379 8.24154 10.9108 8.85612 10.0462C9.48112 9.17122 9.79362 8.09831 9.79362 6.81706C9.79362 5.52539 9.48112 4.45247 8.85612 3.58789C8.24154 2.71289 7.35612 2.27539 6.18945 2.27539C4.99154 2.27539 4.09049 2.70768 3.48112 3.56706C2.86654 4.43164 2.56445 5.49935 2.56445 6.77539C2.56445 8.08268 2.86654 9.17122 3.48112 10.0462C4.09049 10.9108 4.99154 11.3379 6.18945 11.3379Z" fill="black"/>
</svg>
