<svg width="10" height="43" viewBox="0 0 10 43" fill="none" xmlns="http://www.w3.org/2000/svg">
<path d="M4.5249 9.51953C3.20199 9.51953 2.13428 9.1237 1.31657 8.33203C0.493653 7.52995 0.0874023 6.49349 0.0874023 5.22786C0.0874023 3.97786 0.493653 2.95703 1.31657 2.16536C2.13428 1.36328 3.20199 0.957031 4.5249 0.957031C5.3999 0.957031 6.17594 1.14453 6.85824 1.51953C7.55094 1.88412 8.0874 2.38932 8.4624 3.04036C8.8374 3.68099 9.0249 4.41016 9.0249 5.22786C9.0249 6.05078 8.8374 6.78516 8.4624 7.4362C8.0874 8.09245 7.55094 8.60286 6.85824 8.97787C6.17594 9.34245 5.3999 9.51953 4.5249 9.51953ZM0.899902 42.0195V12.9987H8.19157V42.0195H0.899902Z" fill="black"/>
</svg>
