<svg width="8" height="17" viewBox="0 0 8 17" fill="none" xmlns="http://www.w3.org/2000/svg">
<path d="M4.50505 6.48376V13.4213C4.50505 13.9786 4.53109 14.39 4.58838 14.6504C4.64046 14.9161 4.78109 15.1244 5.00505 15.2754C5.23942 15.4317 5.61963 15.5046 6.15088 15.5046C6.52588 15.5046 6.92171 15.4525 7.33838 15.3379V16.7546C7.2238 16.7963 6.98942 16.8379 6.63005 16.8796C6.28109 16.9213 5.92171 16.9421 5.54671 16.9421C4.67171 16.9421 4.01546 16.8171 3.58838 16.5671C3.15609 16.3171 2.86963 15.9786 2.73421 15.5463C2.60921 15.1192 2.54671 14.5463 2.54671 13.8379V6.48376H0.338379V4.92126H2.54671V0.983765H4.50505V4.92126H7.33838V6.48376H4.50505Z" fill="black"/>
</svg>
