<svg width="16" height="19" viewBox="0 0 16 19" fill="none" xmlns="http://www.w3.org/2000/svg">
<path d="M8.48584 18.4714C6.76188 18.4714 5.30355 18.0547 4.11084 17.2214C2.92855 16.388 2.04834 15.2995 1.46501 13.9505C0.892091 12.6068 0.61084 11.1901 0.61084 9.70052C0.61084 8.1901 0.892091 6.76302 1.46501 5.42969C2.04834 4.09635 2.93376 3.01302 4.13167 2.17969C5.32438 1.34635 6.78792 0.929688 8.52751 0.929688C10.7879 0.929688 12.5952 1.6901 13.9442 3.20052C15.3035 4.71615 15.9858 6.88802 15.9858 9.72135V10.4922H3.36084V10.7214C3.36084 11.6693 3.57438 12.5547 4.00667 13.388C4.43376 14.2109 5.03271 14.8776 5.79834 15.388C6.55876 15.9036 7.44938 16.1589 8.46501 16.1589C9.54834 16.1589 10.4858 15.8828 11.2775 15.3255C12.0692 14.7734 12.6525 14.0286 13.0275 13.0964H15.7567C15.3088 14.6276 14.4702 15.9036 13.2358 16.9297C12.0119 17.9609 10.4285 18.4714 8.48584 18.4714ZM13.2567 8.55469C13.1733 6.6276 12.6994 5.23698 11.84 4.38802C10.991 3.52865 9.87126 3.09635 8.48584 3.09635C6.97021 3.09635 5.76188 3.60677 4.86084 4.61719C3.97021 5.61719 3.49626 6.92969 3.44417 8.55469H13.2567Z" fill="black"/>
</svg>
