<svg width="25" height="31" viewBox="0 0 25 31" fill="none" xmlns="http://www.w3.org/2000/svg">
<path d="M12.6532 30.5821C10.6636 30.5821 8.84587 30.3529 7.19482 29.8946C5.5542 29.4258 4.15316 28.78 2.98649 27.9571C1.81982 27.1393 0.950032 26.2018 0.382324 25.1446L4.44482 20.7904H4.98649C5.95524 22.0821 7.09587 23.056 8.40316 23.7071C9.72087 24.3633 11.1532 24.6862 12.6948 24.6862C14.1219 24.6862 15.1948 24.431 15.9032 23.9154C16.6219 23.405 16.9865 22.6758 16.9865 21.7279C16.9865 20.9935 16.7261 20.3737 16.2157 19.8737C15.7 19.3737 14.8615 18.9883 13.6948 18.7071L9.86149 17.7904C6.98649 17.0977 4.88232 16.0508 3.54899 14.6446C2.22607 13.2279 1.56982 11.431 1.56982 9.24872C1.56982 7.44663 2.02816 5.87372 2.94482 4.54039C3.87191 3.20705 5.17399 2.19663 6.84066 1.49872C8.51774 0.790385 10.4709 0.436218 12.6948 0.436218C15.3198 0.436218 17.4865 0.821634 19.1948 1.58205C20.9136 2.33205 22.2625 3.34247 23.2365 4.60289L19.3407 8.81122H18.799C17.9917 7.89455 17.0802 7.22789 16.0698 6.81122C15.0698 6.39455 13.9448 6.18622 12.6948 6.18622C9.81982 6.18622 8.38232 7.07684 8.38232 8.85289C8.38232 9.61851 8.64274 10.2383 9.17399 10.7071C9.71566 11.181 10.6584 11.5612 12.0073 11.8529L15.5907 12.6446C18.5334 13.2852 20.6844 14.306 22.049 15.7071C23.4084 17.0977 24.0907 18.9675 24.0907 21.3112C24.0907 23.1602 23.6323 24.7852 22.7157 26.1862C21.8094 27.5925 20.4969 28.6758 18.7782 29.4362C17.0542 30.1966 15.0125 30.5821 12.6532 30.5821Z" fill="black"/>
</svg>
