<svg width="23" height="24" viewBox="0 0 23 24" fill="none" xmlns="http://www.w3.org/2000/svg">
<path d="M10.3826 23.4159C8.38257 23.4159 6.67944 22.9107 5.2784 21.895C3.87215 20.869 2.79924 19.4732 2.04924 17.7075C1.30965 15.9471 0.945068 13.9523 0.945068 11.7284C0.945068 9.52004 1.32007 7.53046 2.07007 5.74921C2.83048 3.97317 3.92944 2.58254 5.36174 1.58254C6.78882 0.572124 8.50757 0.0617065 10.5076 0.0617065C12.4919 0.0617065 14.0961 0.535665 15.3201 1.47837C16.5388 2.41067 17.4659 3.53046 18.0909 4.83254H18.3826V0.64504H22.1117V23.1242H18.3826V18.52H18.0909C17.4086 19.8534 16.4451 21.0096 15.1951 21.9784C13.9451 22.9367 12.3409 23.4159 10.3826 23.4159ZM11.5284 20.27C13.7055 20.27 15.3826 19.4523 16.5492 17.8117C17.7159 16.1763 18.2992 14.145 18.2992 11.7284C18.2992 9.31171 17.7159 7.29087 16.5492 5.66587C15.3826 4.03046 13.7055 3.20754 11.5284 3.20754C9.2784 3.20754 7.57528 4.02004 6.42424 5.64504C5.26799 7.25962 4.69507 9.27004 4.69507 11.6867C4.69507 14.1346 5.26799 16.1763 6.42424 17.8117C7.57528 19.4523 9.2784 20.27 11.5284 20.27Z" fill="black"/>
</svg>
