<svg width="16" height="24" viewBox="0 0 16 24" fill="none" xmlns="http://www.w3.org/2000/svg">
<path d="M6.23739 16.8574C6.23739 15.8574 6.4978 14.9824 7.02905 14.2324C7.55509 13.472 8.34676 12.597 9.40405 11.6074C10.4145 10.649 11.1801 9.81571 11.6957 9.10738C12.2061 8.38863 12.4666 7.56051 12.4666 6.62821C12.4666 5.3678 12.0499 4.39384 11.2166 3.71155C10.3832 3.03447 9.29989 2.69071 7.96655 2.69071C6.85197 2.69071 5.94572 2.9303 5.23739 3.39905C4.52905 3.85738 4.01864 4.44071 3.71655 5.14905C3.40926 5.85738 3.25822 6.57613 3.25822 7.29488V7.41988H0.466553V7.29488C0.466553 5.90947 0.768635 4.66988 1.38322 3.58655C1.99259 2.4928 2.86239 1.63863 3.98739 1.02405C5.1228 0.399048 6.45093 0.0865479 7.96655 0.0865479C9.4353 0.0865479 10.7218 0.367799 11.8207 0.919881C12.9145 1.47717 13.7634 2.2428 14.3624 3.21155C14.9561 4.18551 15.2582 5.27405 15.2582 6.48238C15.2582 7.35738 15.0916 8.16467 14.7582 8.89905C14.4249 9.62301 14.0134 10.2532 13.5291 10.7949C13.0551 11.3261 12.4353 11.9511 11.6749 12.6699C10.7582 13.5188 10.0707 14.2428 9.61239 14.8365C9.16447 15.4355 8.94572 16.1074 8.94572 16.8574V17.1074H6.23739V16.8574ZM7.61239 23.2949C7.09676 23.2949 6.67489 23.1282 6.34155 22.7949C6.00822 22.4511 5.84155 22.0188 5.84155 21.5032C5.84155 21.0032 6.00822 20.5865 6.34155 20.2532C6.67489 19.9095 7.09676 19.7324 7.61239 19.7324C8.09676 19.7324 8.50822 19.9095 8.84155 20.2532C9.1853 20.5865 9.36239 21.0032 9.36239 21.5032C9.36239 21.9928 9.1853 22.4147 8.84155 22.774C8.50822 23.1178 8.09676 23.2949 7.61239 23.2949Z" fill="black"/>
</svg>
