<svg width="21" height="33" viewBox="0 0 21 33" fill="none" xmlns="http://www.w3.org/2000/svg">
<path d="M0.244141 0.27002H3.91081V13.7075H4.24414C4.81185 12.4054 5.73372 11.3065 7.01497 10.4159C8.29102 9.51481 9.85352 9.06169 11.7025 9.06169C13.6035 9.06169 15.1921 9.51481 16.4733 10.4159C17.765 11.3065 18.7129 12.4784 19.3275 13.9367C19.9368 15.395 20.2441 16.9784 20.2441 18.6867V32.1242H16.5775V19.1659C16.5775 16.9471 15.9993 15.2492 14.8483 14.0825C13.6921 12.9159 12.166 12.3325 10.265 12.3325C8.44206 12.3325 6.93164 12.9471 5.72331 14.1659C4.51497 15.3898 3.91081 17.0565 3.91081 19.1659V32.1242H0.244141V0.27002Z" fill="black"/>
</svg>
