<svg width="28" height="26" viewBox="0 0 28 26" fill="none" xmlns="http://www.w3.org/2000/svg">
<path d="M13.9688 25.8749C11.3542 25.8749 9.04175 25.3437 7.03133 24.2916C5.03133 23.2395 3.45842 21.7812 2.323 19.9166C1.198 18.0416 0.635498 15.8697 0.635498 13.3958C0.635498 10.927 1.198 8.76554 2.323 6.91659C3.45842 5.05721 5.03654 3.59888 7.05217 2.54159C9.07821 1.4895 11.3959 0.958252 14.0105 0.958252C16.8438 0.958252 19.2709 1.56242 21.3022 2.77075C23.3438 3.96867 24.8907 5.66138 25.948 7.85409C27.0001 10.0364 27.4532 12.5989 27.3022 15.5416H9.11467C9.43237 16.8228 10.0522 17.7864 10.9688 18.4374C11.8959 19.0937 12.9584 19.4166 14.1563 19.4166C15.073 19.4166 15.9115 19.2603 16.6772 18.9374C17.4532 18.6041 18.0834 18.1562 18.573 17.5833H26.8647C25.823 20.1978 24.1772 22.2291 21.9272 23.6874C19.6876 25.1458 17.0365 25.8749 13.9688 25.8749ZM9.15633 10.8958H19.1355C18.7865 9.802 18.1876 8.93742 17.3438 8.31242C16.4949 7.68742 15.4167 7.37492 14.1147 7.37492C12.9167 7.37492 11.8855 7.68221 11.0105 8.29159C10.1355 8.90617 9.51571 9.77075 9.15633 10.8958Z" fill="#690061"/>
</svg>
