<svg width="17" height="19" viewBox="0 0 17 19" fill="none" xmlns="http://www.w3.org/2000/svg">
<path d="M8.42155 18.4714C6.71322 18.4714 5.26009 18.0651 4.06738 17.2422C2.88509 16.4089 1.99447 15.3255 1.40072 13.9922C0.801758 12.6589 0.504883 11.2318 0.504883 9.70052C0.504883 8.15885 0.801758 6.72135 1.40072 5.38802C1.99447 4.05469 2.88509 2.98177 4.06738 2.15885C5.26009 1.34115 6.71322 0.929688 8.42155 0.929688C10.1299 0.929688 11.5726 1.34115 12.7549 2.15885C13.932 2.98177 14.8174 4.0651 15.4007 5.40885C15.9945 6.75781 16.2965 8.1901 16.2965 9.70052C16.2965 11.2161 15.9945 12.6484 15.4007 13.9922C14.8018 15.3255 13.9059 16.4089 12.7132 17.2422C11.5309 18.0651 10.0986 18.4714 8.42155 18.4714ZM8.42155 16.0964C9.46322 16.0964 10.3695 15.8151 11.1507 15.2422C11.9268 14.6589 12.5153 13.8828 12.9215 12.9089C13.3226 11.9401 13.5257 10.8568 13.5257 9.65885C13.5257 7.82552 13.0674 6.30469 12.1507 5.09635C11.234 3.8776 9.98926 3.26302 8.42155 3.26302C7.34863 3.26302 6.42676 3.55469 5.65072 4.13802C4.86947 4.71094 4.27572 5.48177 3.85905 6.45052C3.4528 7.42448 3.25488 8.49219 3.25488 9.65885C3.25488 11.4922 3.71322 13.0286 4.62988 14.263C5.55697 15.487 6.82259 16.0964 8.42155 16.0964Z" fill="black"/>
</svg>
