<svg width="16" height="19" viewBox="0 0 16 19" fill="none" xmlns="http://www.w3.org/2000/svg">
<path d="M7.96403 18.4714C6.2557 18.4714 4.80257 18.0651 3.60986 17.2422C2.42757 16.4089 1.53695 15.3255 0.943197 13.9922C0.344238 12.6589 0.0473633 11.2318 0.0473633 9.70052C0.0473633 8.15885 0.344238 6.72135 0.943197 5.38802C1.53695 4.05469 2.42757 2.98177 3.60986 2.15885C4.80257 1.34115 6.2557 0.929688 7.96403 0.929688C9.67236 0.929688 11.1151 1.34115 12.2974 2.15885C13.4744 2.98177 14.3599 4.0651 14.9432 5.40885C15.5369 6.75781 15.839 8.1901 15.839 9.70052C15.839 11.2161 15.5369 12.6484 14.9432 13.9922C14.3442 15.3255 13.4484 16.4089 12.2557 17.2422C11.0734 18.0651 9.64111 18.4714 7.96403 18.4714ZM7.96403 16.0964C9.0057 16.0964 9.91195 15.8151 10.6932 15.2422C11.4692 14.6589 12.0578 13.8828 12.464 12.9089C12.8651 11.9401 13.0682 10.8568 13.0682 9.65885C13.0682 7.82552 12.6099 6.30469 11.6932 5.09635C10.7765 3.8776 9.53174 3.26302 7.96403 3.26302C6.89111 3.26302 5.96924 3.55469 5.1932 4.13802C4.41195 4.71094 3.8182 5.48177 3.40153 6.45052C2.99528 7.42448 2.79736 8.49219 2.79736 9.65885C2.79736 11.4922 3.2557 13.0286 4.17236 14.263C5.09945 15.487 6.36507 16.0964 7.96403 16.0964Z" fill="black"/>
</svg>
