<svg width="13" height="21" viewBox="0 0 13 21" fill="none" xmlns="http://www.w3.org/2000/svg">
<path d="M6.03939 20.5896C3.96647 20.5896 2.45605 20.2406 1.49772 19.5479C0.549804 18.8656 0.0810547 17.9489 0.0810547 16.7979C0.0810547 16.0583 0.299804 15.475 0.747721 15.0479C1.19043 14.6208 1.83626 14.3083 2.68522 14.1104V13.8604C2.27897 13.6416 1.97689 13.376 1.76855 13.0687C1.57064 12.751 1.47689 12.376 1.47689 11.9437C1.47689 11.4437 1.63314 11.0375 1.95605 10.7146C2.27376 10.3969 2.75293 10.1521 3.39355 9.98539V9.73539C1.96126 8.98539 1.24772 7.76664 1.24772 6.06873C1.24772 5.22498 1.44043 4.46456 1.83105 3.79789C2.21647 3.13123 2.77376 2.62081 3.49772 2.25623C4.21647 1.88123 5.06022 1.69373 6.01855 1.69373C7.11231 1.69373 8.02897 1.93331 8.76855 2.40206C9.0446 2.09998 9.25293 1.77185 9.39355 1.42289C9.52897 1.06352 9.61231 0.662475 9.64355 0.214559L9.89355 0.0687256L11.4977 0.443726C11.4144 1.11039 11.2113 1.67289 10.8936 2.13123C10.5706 2.58956 10.1227 2.97498 9.53939 3.27706V3.52706C9.95605 3.86039 10.2581 4.25102 10.4561 4.69373C10.6644 5.14164 10.7686 5.66248 10.7686 6.25623C10.7686 7.07914 10.5654 7.81873 10.1644 8.48539C9.77376 9.14164 9.21647 9.65206 8.49772 10.0271C7.77376 10.4021 6.94564 10.5896 6.01855 10.5896C5.90397 10.5896 5.70605 10.5844 5.41439 10.5687C5.09147 10.5583 4.8571 10.5479 4.70605 10.5479C4.2998 10.5479 3.97689 10.6521 3.72689 10.8604C3.47689 11.0687 3.35189 11.3396 3.35189 11.6729C3.35189 12.0896 3.4821 12.3969 3.74772 12.5896C4.02376 12.7875 4.46647 12.8969 5.08105 12.9229L8.16439 13.0271C9.50814 13.0687 10.5029 13.3812 11.1436 13.9646C11.779 14.5375 12.1019 15.3448 12.1019 16.4021C12.1019 17.1781 11.8936 17.8812 11.4769 18.5062C11.0602 19.1416 10.3936 19.6521 9.47689 20.0271C8.57064 20.4021 7.4248 20.5896 6.03939 20.5896ZM6.01855 8.92289C6.93522 8.92289 7.64355 8.68852 8.14355 8.21456C8.65397 7.73018 8.91439 7.04789 8.91439 6.17289C8.91439 5.27185 8.66439 4.57914 8.16439 4.08956C7.66439 3.58956 6.94564 3.33956 6.01855 3.33956C5.07064 3.33956 4.3571 3.58435 3.87272 4.06873C3.38314 4.55831 3.14355 5.25623 3.14355 6.17289C3.14355 7.04789 3.38314 7.73018 3.87272 8.21456C4.3571 8.68852 5.07064 8.92289 6.01855 8.92289ZM6.03939 18.9229C6.99772 18.9229 7.77897 18.8083 8.39355 18.5896C9.01855 18.3812 9.46126 18.0948 9.72689 17.7354C9.98731 17.3864 10.1227 16.9958 10.1227 16.5687C10.1227 16.1781 10.0446 15.8656 9.89355 15.6312C9.75293 15.3916 9.51855 15.2146 9.18522 15.0896C8.86231 14.9802 8.4248 14.9125 7.87272 14.8812L4.93522 14.7354H4.51855C2.87793 14.751 2.06022 15.3812 2.06022 16.6312C2.06022 18.1573 3.38314 18.9229 6.03939 18.9229Z" fill="black"/>
</svg>
