<svg width="22" height="26" viewBox="0 0 22 26" fill="none" xmlns="http://www.w3.org/2000/svg">
<path d="M11.3029 25.8493C9.03727 25.8493 7.07894 25.318 5.4279 24.2451C3.78727 23.1618 2.53727 21.6774 1.6779 19.7868C0.813313 17.8857 0.38623 15.7347 0.38623 13.3285C0.38623 10.9274 0.813313 8.78158 1.6779 6.89095C2.53727 4.98991 3.78727 3.50553 5.4279 2.43262C7.07894 1.34928 9.03727 0.807617 11.3029 0.807617C14.0216 0.807617 16.2716 1.57845 18.0529 3.12012C19.8289 4.66178 21.0216 6.73991 21.6362 9.34928H18.6779C18.1883 7.55762 17.3029 6.14095 16.0112 5.09928C14.7196 4.0472 13.1571 3.51595 11.3237 3.51595C8.80811 3.51595 6.87581 4.40658 5.53206 6.18262C4.19873 7.94824 3.53206 10.318 3.53206 13.2868C3.53206 16.3024 4.19873 18.693 5.53206 20.4535C6.87581 22.2191 8.80811 23.0993 11.3237 23.0993C13.0581 23.0993 14.5529 22.6357 15.8029 21.7035C17.0529 20.7607 17.9383 19.5055 18.4696 17.9326H21.4279C20.7716 20.3389 19.5737 22.2607 17.8237 23.7035C16.0841 25.1357 13.9123 25.8493 11.3029 25.8493Z" fill="black"/>
</svg>
