<svg width="12" height="14" viewBox="0 0 12 14" fill="none" xmlns="http://www.w3.org/2000/svg">
<path d="M5.79183 13.0254C4.55225 13.0254 3.50537 12.7337 2.646 12.1504C1.79704 11.5566 1.16683 10.7858 0.750163 9.83789C0.343912 8.89518 0.145996 7.88997 0.145996 6.81706C0.145996 5.73372 0.343912 4.72331 0.750163 3.77539C1.16683 2.83268 1.79704 2.06706 2.646 1.48372C3.50537 0.889975 4.55225 0.587891 5.79183 0.587891C7.3335 0.587891 8.54704 1.04102 9.43766 1.94206C10.3231 2.83268 10.8595 3.92122 11.0418 5.21289H9.12516C9.00016 4.33789 8.6512 3.62956 8.0835 3.08789C7.5262 2.53581 6.771 2.25456 5.81266 2.25456C4.60433 2.25456 3.68766 2.69206 3.06266 3.56706C2.43766 4.43164 2.12516 5.51497 2.12516 6.81706C2.12516 8.10872 2.43766 9.19206 3.06266 10.0671C3.68766 10.9316 4.60433 11.3587 5.81266 11.3587C6.771 11.3587 7.5262 11.0879 8.0835 10.5462C8.6512 10.0046 9.00016 9.29102 9.12516 8.40039H11.0418C10.8595 9.69206 10.3231 10.791 9.43766 11.6921C8.54704 12.5827 7.3335 13.0254 5.79183 13.0254Z" fill="black"/>
</svg>
