<svg width="22" height="32" viewBox="0 0 22 32" fill="none" xmlns="http://www.w3.org/2000/svg">
<path d="M12.2121 23.4159C10.2537 23.4159 8.64958 22.9368 7.39958 21.9784C6.14958 21.0097 5.18083 19.8534 4.50374 18.5201H4.21208V31.7909H0.48291V0.645101H4.21208V4.8326H4.50374C5.12874 3.53052 6.05062 2.41073 7.27458 1.47843C8.49333 0.535726 10.0975 0.0617676 12.0871 0.0617676C14.1131 0.0617676 15.8423 0.572185 17.2746 1.5826C18.7017 2.5826 19.785 3.97323 20.5246 5.74927C21.2746 7.53052 21.6496 9.5201 21.6496 11.7284C21.6496 13.9524 21.2746 15.9472 20.5246 17.7076C19.785 19.4732 18.7121 20.8691 17.2954 21.8951C15.8787 22.9107 14.1808 23.4159 12.2121 23.4159ZM11.0662 20.2701C13.285 20.2701 14.9725 19.4576 16.1287 17.8326C17.2798 16.2076 17.8579 14.1764 17.8579 11.7284C17.8579 9.31177 17.285 7.30135 16.1496 5.68677C15.009 4.06177 13.3162 3.24927 11.0662 3.24927C8.84229 3.24927 7.15479 4.06177 6.00374 5.68677C4.86312 7.30135 4.29541 9.31177 4.29541 11.7284C4.29541 14.1451 4.87874 16.1764 6.04541 17.8118C7.21208 19.4524 8.88395 20.2701 11.0662 20.2701Z" fill="black"/>
</svg>
