<svg width="13" height="15" viewBox="0 0 13 15" fill="none" xmlns="http://www.w3.org/2000/svg">
<path d="M11.7409 8.12309H2.74089C2.79297 9.72205 3.17839 10.8939 3.88672 11.6439C4.59505 12.3835 5.5638 12.7481 6.80339 12.7481C7.73047 12.7481 8.48047 12.5814 9.05339 12.2481C9.62109 11.9148 10.0638 11.3939 10.3867 10.6856H10.6367L11.9076 11.4356C11.5326 12.3835 10.918 13.1231 10.0742 13.6648C9.24089 14.2064 8.14713 14.4773 6.80339 14.4773C5.53776 14.4773 4.44922 14.2273 3.53255 13.7273C2.6263 13.2273 1.92839 12.472 1.42839 11.4564C0.938801 10.446 0.699219 9.18559 0.699219 7.68559C0.699219 6.20121 0.954427 4.95121 1.47005 3.93559C1.99609 2.90955 2.70443 2.14392 3.59505 1.64392C4.49609 1.14392 5.52213 0.893921 6.67839 0.893921C8.35547 0.893921 9.66797 1.36788 10.6159 2.31059C11.5586 3.2585 12.0326 4.65955 12.0326 6.51892C12.0326 7.24288 12.0169 7.72725 11.9909 7.97725L11.7409 8.12309ZM10.1159 6.51892C10.0846 5.11788 9.78255 4.10225 9.19922 3.47725C8.61589 2.84184 7.77213 2.51892 6.67839 2.51892C5.53776 2.51892 4.63672 2.84184 3.97005 3.47725C3.3138 4.11788 2.91797 5.1335 2.78255 6.51892H10.1159Z" fill="black"/>
</svg>
