<svg width="22" height="33" viewBox="0 0 22 33" fill="none" xmlns="http://www.w3.org/2000/svg">
<path d="M11.8361 32.4638C10.9715 32.4638 10.2788 32.4065 9.75277 32.2971C9.23714 32.1825 8.7111 32.0263 8.16943 31.818V28.7555C8.52881 28.8648 9.0236 28.969 9.6486 29.068C10.284 29.1617 10.9038 29.2138 11.5028 29.2138C13.7111 29.2138 15.3778 28.5888 16.5028 27.3388C17.6278 26.0888 18.1903 24.4273 18.1903 22.3596V18.2971H17.8569C17.258 19.6305 16.2944 20.7659 14.9611 21.693C13.6382 22.6252 12.0444 23.0888 10.1694 23.0888C8.29443 23.0888 6.63818 22.6044 5.2111 21.6305C3.79443 20.6617 2.69027 19.3127 1.8986 17.5888C1.11735 15.87 0.731934 13.9013 0.731934 11.693C0.731934 9.4742 1.11735 7.50024 1.8986 5.77629C2.69027 4.05754 3.79443 2.71379 5.2111 1.75545C6.63818 0.786703 8.29443 0.297119 10.1694 0.297119C12.1278 0.297119 13.7632 0.807535 15.0861 1.81795C16.4194 2.81795 17.3569 3.99504 17.8986 5.33879H18.1903V1.02629H21.8986V22.3596C21.8986 23.943 21.5757 25.5055 20.9403 27.0471C20.2996 28.5888 19.2215 29.87 17.7111 30.9013C16.2111 31.943 14.2528 32.4638 11.8361 32.4638ZM11.3569 19.9221C12.8153 19.9221 14.0496 19.5367 15.0653 18.7555C16.0913 17.9638 16.8569 16.9377 17.3569 15.6721C17.8569 14.4117 18.1069 13.0575 18.1069 11.6096C18.1069 10.1825 17.8569 8.85441 17.3569 7.63045C16.8569 6.4117 16.0965 5.41691 15.0861 4.65129C14.0861 3.89087 12.8413 3.50545 11.3569 3.50545C9.17464 3.50545 7.50798 4.29712 6.35693 5.88045C5.20068 7.45337 4.62777 9.35962 4.62777 11.6096C4.62777 13.0836 4.86735 14.4534 5.35693 15.7138C5.85693 16.9794 6.61214 18.0002 7.62777 18.7763C8.63818 19.5419 9.88298 19.9221 11.3569 19.9221Z" fill="#690061"/>
</svg>
