<svg width="11" height="14" viewBox="0 0 11 14" fill="none" xmlns="http://www.w3.org/2000/svg">
<path d="M5.69369 13.0254C4.4541 13.0254 3.40723 12.7337 2.54785 12.1504C1.69889 11.5566 1.06868 10.7858 0.652018 9.83789C0.245768 8.89518 0.0478516 7.88997 0.0478516 6.81706C0.0478516 5.73372 0.245768 4.72331 0.652018 3.77539C1.06868 2.83268 1.69889 2.06706 2.54785 1.48372C3.40723 0.889975 4.4541 0.587891 5.69369 0.587891C7.23535 0.587891 8.44889 1.04102 9.33952 1.94206C10.2249 2.83268 10.7614 3.92122 10.9437 5.21289H9.02702C8.90202 4.33789 8.55306 3.62956 7.98535 3.08789C7.42806 2.53581 6.67285 2.25456 5.71452 2.25456C4.50619 2.25456 3.58952 2.69206 2.96452 3.56706C2.33952 4.43164 2.02702 5.51497 2.02702 6.81706C2.02702 8.10872 2.33952 9.19206 2.96452 10.0671C3.58952 10.9316 4.50619 11.3587 5.71452 11.3587C6.67285 11.3587 7.42806 11.0879 7.98535 10.5462C8.55306 10.0046 8.90202 9.29102 9.02702 8.40039H10.9437C10.7614 9.69206 10.2249 10.791 9.33952 11.6921C8.44889 12.5827 7.23535 13.0254 5.69369 13.0254Z" fill="black"/>
</svg>
