<svg width="56" height="74" viewBox="0 0 56 74" fill="none" xmlns="http://www.w3.org/2000/svg">
<path d="M41.9674 60.15H55.8424V72.6708C55.8424 73.2125 55.5091 73.4833 54.8424 73.4833H43.0716C39.4466 73.4833 35.6654 73.2125 31.7383 72.6708C27.806 72.1291 23.9935 71.1187 20.3008 69.6291C16.6185 68.1448 13.2799 66.0614 10.2799 63.3791C7.29037 60.6864 4.92578 57.2125 3.17578 52.9625C1.42578 48.702 0.550781 43.4573 0.550781 37.2333C0.550781 30.8166 1.4362 25.4364 3.21745 21.0875C5.00911 16.7437 7.39453 13.2437 10.3841 10.5875C13.3685 7.9208 16.7227 5.89476 20.4466 4.50413C24.1654 3.11871 27.9727 2.18121 31.8633 1.69163C35.7643 1.20726 39.4987 0.962463 43.0716 0.962463H54.8424C55.5091 0.962463 55.8424 1.2333 55.8424 1.77496V30.2541H41.9674V14.1916C36.7174 13.9 32.0195 14.4989 27.8841 15.9833C23.7435 17.4573 20.4779 19.9312 18.0924 23.4C15.7018 26.8739 14.5091 31.4833 14.5091 37.2333C14.5091 41.7073 15.1549 45.3948 16.4466 48.2958C17.7487 51.1864 19.4727 53.452 21.6133 55.0875C23.7643 56.7125 26.0768 57.9104 28.5508 58.6708C31.0352 59.4208 33.4518 59.8739 35.8008 60.025C38.1602 60.1812 40.2174 60.2229 41.9674 60.15Z" fill="#562A2A"/>
</svg>
