<svg width="12" height="15" viewBox="0 0 12 15" fill="none" xmlns="http://www.w3.org/2000/svg">
<path d="M0.47998 14.0271V0.922892H2.33415V2.98539L2.58415 3.04789C3.01123 2.28747 3.56331 1.70414 4.22998 1.29789C4.90706 0.896851 5.7404 0.693726 6.72998 0.693726C8.29769 0.693726 9.43831 1.09998 10.1466 1.90206C10.855 2.69373 11.2091 3.92289 11.2091 5.58956V14.0271H9.27165V5.65206C9.27165 4.86039 9.16748 4.23018 8.95915 3.75623C8.76123 3.27185 8.44873 2.91768 8.02165 2.69373C7.60498 2.47498 7.04769 2.36039 6.35498 2.36039C5.18831 2.36039 4.23519 2.75623 3.50081 3.54789C2.77686 4.32914 2.41748 5.57914 2.41748 7.29789V14.0271H0.47998Z" fill="black"/>
</svg>
