<svg width="25" height="25" viewBox="0 0 25 25" fill="none" xmlns="http://www.w3.org/2000/svg">
<path d="M8.99699 24.9499C6.28866 24.9499 4.12199 24.2832 2.49699 22.9499C0.882405 21.6061 0.0803223 19.7832 0.0803223 17.4915C0.0803223 15.3249 0.799072 13.5853 2.24699 12.2624C3.6897 10.9447 5.6272 10.2832 8.05949 10.2832H15.997V8.92904C15.997 8.16862 15.6637 7.5332 14.997 7.0332C14.3303 6.52279 13.5178 6.26237 12.5595 6.26237C11.6949 6.26237 10.9605 6.48112 10.3512 6.9082C9.73657 7.3405 9.3772 7.89779 9.26782 8.57487H1.24699C1.59074 5.8405 2.73136 3.75716 4.66366 2.32487C6.60636 0.882162 9.22616 0.158203 12.5178 0.158203C16.3199 0.158203 19.2366 1.07487 21.2678 2.9082C23.3095 4.73112 24.3303 7.31966 24.3303 10.679V24.4082H18.1845L17.247 21.8249C15.1637 23.9082 12.4137 24.9499 8.99699 24.9499ZM8.45532 17.0957C8.45532 17.752 8.73657 18.278 9.30949 18.679C9.8772 19.0853 10.622 19.2832 11.5387 19.2832C12.8407 19.2832 13.9241 18.8822 14.7887 18.0749C15.648 17.2728 16.0803 16.2311 16.0803 14.9499H11.4553C10.523 14.9499 9.78866 15.1374 9.24699 15.5124C8.71574 15.8874 8.45532 16.4186 8.45532 17.0957Z" fill="#690061"/>
</svg>
