<svg width="36" height="24" viewBox="0 0 36 24" fill="none" xmlns="http://www.w3.org/2000/svg">
<path d="M0.964355 0.984538H4.58936V5.10954H4.92269C4.97477 4.8335 5.26123 4.31787 5.77686 3.56787C6.28727 2.80745 7.06852 2.0835 8.11019 1.4012C9.16227 0.72412 10.4748 0.380371 12.0477 0.380371C13.6987 0.380371 15.0737 0.770996 16.1727 1.54704C17.2664 2.31266 18.0789 3.14079 18.6102 4.0262C19.1519 4.9012 19.4227 5.45329 19.4227 5.67204H19.7769C20.1623 4.67204 20.9487 3.54183 22.131 2.2762C23.3081 1.01579 25.131 0.380371 27.5894 0.380371C29.4071 0.380371 30.9279 0.84912 32.1519 1.7762C33.3706 2.69287 34.2769 3.88037 34.8602 5.3387C35.4435 6.78662 35.7352 8.3335 35.7352 9.98454V23.4637H32.1102V10.3179C32.1102 8.16683 31.5477 6.53662 30.4227 5.42204C29.2977 4.31266 27.9071 3.75537 26.256 3.75537C24.5477 3.75537 23.0998 4.3335 21.9227 5.48454C20.7404 6.64079 20.1519 8.25016 20.1519 10.3179V23.4637H16.5269V10.3179C16.5269 8.16683 15.9644 6.53662 14.8394 5.42204C13.7144 4.31266 12.3289 3.75537 10.6935 3.75537C8.98519 3.75537 7.53727 4.3335 6.36019 5.48454C5.1779 6.64079 4.58936 8.25016 4.58936 10.3179V23.4637H0.964355V0.984538Z" fill="#690061"/>
</svg>
