<svg width="17" height="19" viewBox="0 0 17 19" fill="none" xmlns="http://www.w3.org/2000/svg">
<path d="M8.5529 18.4714C6.84456 18.4714 5.39144 18.0651 4.19873 17.2422C3.01644 16.4089 2.12581 15.3255 1.53206 13.9922C0.933105 12.6589 0.63623 11.2318 0.63623 9.70052C0.63623 8.15885 0.933105 6.72135 1.53206 5.38802C2.12581 4.05469 3.01644 2.98177 4.19873 2.15885C5.39144 1.34115 6.84456 0.929688 8.5529 0.929688C10.2612 0.929688 11.7039 1.34115 12.8862 2.15885C14.0633 2.98177 14.9487 4.0651 15.5321 5.40885C16.1258 6.75781 16.4279 8.1901 16.4279 9.70052C16.4279 11.2161 16.1258 12.6484 15.5321 13.9922C14.9331 15.3255 14.0373 16.4089 12.8446 17.2422C11.6623 18.0651 10.23 18.4714 8.5529 18.4714ZM8.5529 16.0964C9.59456 16.0964 10.5008 15.8151 11.2821 15.2422C12.0581 14.6589 12.6466 13.8828 13.0529 12.9089C13.4539 11.9401 13.6571 10.8568 13.6571 9.65885C13.6571 7.82552 13.1987 6.30469 12.2821 5.09635C11.3654 3.8776 10.1206 3.26302 8.5529 3.26302C7.47998 3.26302 6.55811 3.55469 5.78206 4.13802C5.00081 4.71094 4.40706 5.48177 3.9904 6.45052C3.58415 7.42448 3.38623 8.49219 3.38623 9.65885C3.38623 11.4922 3.84456 13.0286 4.76123 14.263C5.68831 15.487 6.95394 16.0964 8.5529 16.0964Z" fill="black"/>
</svg>
