<svg width="17" height="19" viewBox="0 0 17 19" fill="none" xmlns="http://www.w3.org/2000/svg">
<path d="M8.72868 18.4714C7.02035 18.4714 5.56722 18.0651 4.37451 17.2422C3.19222 16.4089 2.3016 15.3255 1.70785 13.9922C1.10889 12.6589 0.812012 11.2318 0.812012 9.70052C0.812012 8.15885 1.10889 6.72135 1.70785 5.38802C2.3016 4.05469 3.19222 2.98177 4.37451 2.15885C5.56722 1.34115 7.02035 0.929688 8.72868 0.929688C10.437 0.929688 11.8797 1.34115 13.062 2.15885C14.2391 2.98177 15.1245 4.0651 15.7078 5.40885C16.3016 6.75781 16.6037 8.1901 16.6037 9.70052C16.6037 11.2161 16.3016 12.6484 15.7078 13.9922C15.1089 15.3255 14.2131 16.4089 13.0203 17.2422C11.8381 18.0651 10.4058 18.4714 8.72868 18.4714ZM8.72868 16.0964C9.77035 16.0964 10.6766 15.8151 11.4578 15.2422C12.2339 14.6589 12.8224 13.8828 13.2287 12.9089C13.6297 11.9401 13.8328 10.8568 13.8328 9.65885C13.8328 7.82552 13.3745 6.30469 12.4578 5.09635C11.5412 3.8776 10.2964 3.26302 8.72868 3.26302C7.65576 3.26302 6.73389 3.55469 5.95785 4.13802C5.1766 4.71094 4.58285 5.48177 4.16618 6.45052C3.75993 7.42448 3.56201 8.49219 3.56201 9.65885C3.56201 11.4922 4.02035 13.0286 4.93701 14.263C5.86409 15.487 7.12972 16.0964 8.72868 16.0964Z" fill="black"/>
</svg>
