<svg width="7" height="12" viewBox="0 0 7 12" fill="none" xmlns="http://www.w3.org/2000/svg">
<path d="M1.56047 10.4159C3.27922 9.65023 4.1438 8.5096 4.1438 6.99919C4.1438 6.29085 4.02401 5.83773 3.78963 5.64502C3.55005 5.46273 3.19067 5.37419 2.7063 5.37419C1.28963 5.37419 0.581299 4.68148 0.581299 3.29085C0.581299 2.53044 0.810465 1.91585 1.2688 1.45752C1.73755 0.999186 2.39901 0.77002 3.24797 0.77002C5.27401 0.77002 6.28963 1.86898 6.28963 4.06169V5.60335C6.28963 7.35335 5.85213 8.74919 4.97713 9.79085C4.11255 10.8325 2.97713 11.5669 1.56047 11.9992V10.4159Z" fill="black"/>
</svg>
