<svg width="22" height="25" viewBox="0 0 22 25" fill="none" xmlns="http://www.w3.org/2000/svg">
<path d="M11.4194 24.2917C9.0861 24.2917 7.11214 23.7449 5.50277 22.6459C3.90381 21.5365 2.71631 20.0938 1.94027 18.3126C1.17464 16.5365 0.794434 14.6355 0.794434 12.6042C0.794434 10.5938 1.17464 8.698 1.94027 6.91675C2.71631 5.14071 3.90381 3.698 5.50277 2.58341C7.11214 1.47404 9.0861 0.916748 11.4194 0.916748C14.3205 0.916748 16.6069 1.7605 18.2736 3.43758C19.9403 5.11987 20.9403 7.18237 21.2736 9.62508H17.6903C17.4403 7.97404 16.784 6.6355 15.7319 5.60425C14.6746 4.56258 13.2528 4.04175 11.4611 4.04175C9.19548 4.04175 7.47152 4.86467 6.29443 6.50008C5.11214 8.12508 4.5236 10.1615 4.5236 12.6042C4.5236 15.0522 5.11214 17.0938 6.29443 18.7292C7.47152 20.3699 9.19548 21.1876 11.4611 21.1876C13.2528 21.1876 14.6746 20.6772 15.7319 19.6459C16.784 18.6199 17.4403 17.2709 17.6903 15.6042H21.2736C20.9403 18.0522 19.9403 20.1147 18.2736 21.7917C16.6069 23.4584 14.3205 24.2917 11.4194 24.2917Z" fill="#690061"/>
</svg>
