<svg width="19" height="24" viewBox="0 0 19 24" fill="none" xmlns="http://www.w3.org/2000/svg">
<path d="M9.69149 23.4159C7.86857 23.4159 6.29565 23.0565 4.96232 22.3325C3.62899 21.6138 2.60815 20.6815 1.89982 19.5409C1.2019 18.4055 0.858154 17.2075 0.858154 15.9575V15.7492H4.52482V15.9159C4.52482 16.6242 4.72274 17.3325 5.12899 18.0409C5.53003 18.7388 6.12899 19.3065 6.92065 19.7492C7.71232 20.1815 8.67586 20.395 9.81649 20.395C11.1759 20.395 12.3009 20.0617 13.1915 19.395C14.0925 18.7284 14.5457 17.8117 14.5457 16.645C14.5457 15.6763 14.1967 14.9055 13.504 14.3325C12.8061 13.7648 11.9311 13.395 10.879 13.2284L7.94149 12.8117C6.09253 12.52 4.54565 11.8898 3.29565 10.9159C2.04565 9.9315 1.42065 8.49921 1.42065 6.62421C1.42065 4.54087 2.16024 2.9315 3.64982 1.79087C5.14982 0.639832 7.06649 0.0617065 9.39982 0.0617065C11.1342 0.0617065 12.6186 0.384623 13.8582 1.02004C15.0925 1.66067 16.0352 2.49921 16.6915 3.54087C17.3425 4.57212 17.6707 5.69712 17.6707 6.91587V7.08254H14.004V6.99921C14.004 6.4315 13.8477 5.83254 13.5457 5.20754C13.254 4.58254 12.7436 4.05129 12.0248 3.60337C11.3165 3.14504 10.4102 2.91587 9.31649 2.91587C7.94149 2.91587 6.84253 3.24921 6.02482 3.91587C5.2019 4.58254 4.79565 5.45754 4.79565 6.54087C4.79565 7.41587 5.11857 8.13983 5.77482 8.70754C6.42586 9.28046 7.24357 9.64504 8.23315 9.81171L11.4415 10.3325C13.3165 10.6398 14.8894 11.2857 16.1707 12.27C17.4467 13.2596 18.0873 14.7023 18.0873 16.6034C18.0873 17.968 17.7227 19.1607 17.004 20.1867C16.28 21.2023 15.28 21.994 14.004 22.5617C12.7227 23.1294 11.2852 23.4159 9.69149 23.4159Z" fill="black"/>
</svg>
