<svg width="11" height="25" viewBox="0 0 11 25" fill="none" xmlns="http://www.w3.org/2000/svg">
<path d="M6.60767 8.72445V19.3286C6.60767 20.1932 6.64933 20.8234 6.73267 21.2244C6.816 21.6307 7.03475 21.9484 7.39933 22.1828C7.75871 22.4067 8.34204 22.5161 9.14933 22.5161C9.70142 22.5161 10.3004 22.4432 10.941 22.2869V24.4328C10.7847 24.5057 10.441 24.5734 9.89933 24.6411C9.35767 24.7088 8.79517 24.7453 8.21183 24.7453C6.86287 24.7453 5.86287 24.5578 5.21183 24.1828C4.55558 23.7974 4.1285 23.2765 3.92017 22.6203C3.72225 21.9536 3.6285 21.0786 3.6285 19.9953V8.72445H0.232666V6.32861H3.6285V0.328613H6.60767V6.32861H10.941V8.72445H6.60767Z" fill="#690061"/>
</svg>
