<svg width="13" height="15" viewBox="0 0 13 15" fill="none" xmlns="http://www.w3.org/2000/svg">
<path d="M12.0041 7.92289H3.00407C3.05615 9.52185 3.44157 10.6937 4.1499 11.4437C4.85824 12.1833 5.82699 12.5479 7.06657 12.5479C7.99365 12.5479 8.74365 12.3812 9.31657 12.0479C9.88428 11.7146 10.327 11.1937 10.6499 10.4854H10.8999L12.1707 11.2354C11.7957 12.1833 11.1812 12.9229 10.3374 13.4646C9.50407 14.0062 8.41032 14.2771 7.06657 14.2771C5.80094 14.2771 4.7124 14.0271 3.79574 13.5271C2.88949 13.0271 2.19157 12.2719 1.69157 11.2562C1.20199 10.2458 0.962402 8.98539 0.962402 7.48539C0.962402 6.00102 1.21761 4.75102 1.73324 3.73539C2.25928 2.70935 2.96761 1.94373 3.85824 1.44373C4.75928 0.943726 5.78532 0.693726 6.94157 0.693726C8.61865 0.693726 9.93115 1.16768 10.8791 2.11039C11.8218 3.05831 12.2957 4.45935 12.2957 6.31873C12.2957 7.04268 12.2801 7.52706 12.2541 7.77706L12.0041 7.92289ZM10.3791 6.31873C10.3478 4.91768 10.0457 3.90206 9.4624 3.27706C8.87907 2.64164 8.03532 2.31873 6.94157 2.31873C5.80094 2.31873 4.8999 2.64164 4.23324 3.27706C3.57699 3.91768 3.18115 4.93331 3.04574 6.31873H10.3791Z" fill="black"/>
</svg>
