<svg width="12" height="15" viewBox="0 0 12 15" fill="none" xmlns="http://www.w3.org/2000/svg">
<path d="M11.2028 7.92289H2.2028C2.25488 9.52185 2.6403 10.6937 3.34863 11.4437C4.05697 12.1833 5.02572 12.5479 6.2653 12.5479C7.19238 12.5479 7.94238 12.3812 8.5153 12.0479C9.08301 11.7146 9.52572 11.1937 9.84863 10.4854H10.0986L11.3695 11.2354C10.9945 12.1833 10.3799 12.9229 9.53613 13.4646C8.7028 14.0062 7.60905 14.2771 6.2653 14.2771C4.99967 14.2771 3.91113 14.0271 2.99447 13.5271C2.08822 13.0271 1.3903 12.2719 0.890299 11.2562C0.400715 10.2458 0.161133 8.98539 0.161133 7.48539C0.161133 6.00102 0.416341 4.75102 0.931966 3.73539C1.45801 2.70935 2.16634 1.94373 3.05697 1.44373C3.95801 0.943726 4.98405 0.693726 6.1403 0.693726C7.81738 0.693726 9.12988 1.16768 10.0778 2.11039C11.0205 3.05831 11.4945 4.45935 11.4945 6.31873C11.4945 7.04268 11.4788 7.52706 11.4528 7.77706L11.2028 7.92289ZM9.5778 6.31873C9.54655 4.91768 9.24447 3.90206 8.66113 3.27706C8.0778 2.64164 7.23405 2.31873 6.1403 2.31873C4.99967 2.31873 4.09863 2.64164 3.43197 3.27706C2.77572 3.91768 2.37988 4.93331 2.24447 6.31873H9.5778Z" fill="black"/>
</svg>
