<svg width="18" height="26" viewBox="0 0 18 26" fill="none" xmlns="http://www.w3.org/2000/svg">
<path d="M9.1779 21.1203C8.81331 22.0057 8.45915 22.7297 8.1154 23.2869C7.78206 23.8547 7.22998 24.3911 6.46956 24.8911C5.71956 25.4015 4.72477 25.6619 3.4904 25.6619C2.84977 25.6619 2.16227 25.5682 1.4279 25.3911V23.1828C1.96956 23.2661 2.44873 23.3078 2.8654 23.3078C3.62581 23.3078 4.2404 23.1619 4.69873 22.8703C5.16748 22.589 5.53727 22.214 5.8029 21.7453C6.06331 21.2869 6.38623 20.6203 6.76123 19.7453L7.59456 17.7036L0.82373 0.328613H3.94873L9.0529 14.4119H9.26123L14.5946 0.328613H17.7196L9.1779 21.1203Z" fill="black"/>
</svg>
