<svg width="46" height="74" viewBox="0 0 46 74" fill="none" xmlns="http://www.w3.org/2000/svg">
<path d="M33.86 33.2013C37.6621 34.9513 40.5735 37.5085 42.5892 40.8679C44.6152 44.2169 45.6308 48.0346 45.6308 52.3263C45.6308 56.8679 44.5579 60.7117 42.4225 63.8471C40.2819 66.9877 37.5058 69.3783 34.0892 71.0138C30.6725 72.6388 27.0267 73.4513 23.1517 73.4513C23.1517 73.4513 23.1204 73.4513 23.0683 73.4513V60.3888C23.1204 60.3888 23.1517 60.3888 23.1517 60.3888C25.5683 60.3888 27.6777 59.6544 29.485 58.1804C31.3027 56.696 32.2142 54.7429 32.2142 52.3263C32.2142 50.5242 31.7454 48.9877 30.8183 47.7221C29.886 46.446 28.7194 45.446 27.3183 44.7221C25.9277 44.0033 24.5371 43.6075 23.1517 43.5346C22.86 43.5346 21.6517 43.4304 19.5267 43.2221C17.4121 43.0138 15.0319 42.3054 12.3808 41.0971C8.63084 39.3471 5.72459 36.92 3.67251 33.8054C1.61521 30.6804 0.589172 27.0085 0.589172 22.7846C0.589172 18.2429 1.65688 14.3471 3.79751 11.0971C5.94855 7.83667 8.74542 5.32625 12.1933 3.57625C15.636 1.81584 19.2871 0.93042 23.1517 0.93042C27.3288 0.93042 31.0788 1.795 34.4017 3.51375C37.7194 5.23771 40.36 7.65438 42.3183 10.7638C44.2871 13.8783 45.3027 17.4877 45.36 21.5971C45.4277 21.7221 45.3496 21.8783 45.1308 22.0554C44.9225 22.2377 44.6725 22.3263 44.3808 22.3263H33.0475C32.7975 22.3263 32.5683 22.2377 32.36 22.0554C32.1517 21.8783 32.0475 21.7221 32.0475 21.5971C31.9746 19.0033 31.0683 17.0867 29.3183 15.8471C27.5683 14.6127 25.511 13.9929 23.1517 13.9929C20.6777 13.9929 18.5475 14.7377 16.7558 16.2221C14.9746 17.696 14.0892 19.8835 14.0892 22.7846C14.0892 25.3835 15.0267 27.3627 16.9017 28.7221C18.7767 30.0867 20.86 30.7638 23.1517 30.7638C23.3288 30.7638 23.9329 30.795 24.9642 30.8471C25.9902 30.9044 27.3027 31.0971 28.9017 31.4304C30.511 31.7638 32.1621 32.3575 33.86 33.2013Z" fill="#562A2A" fill-opacity="0.302"/>
</svg>
