<svg width="21" height="24" viewBox="0 0 21 24" fill="none" xmlns="http://www.w3.org/2000/svg">
<path d="M10.7866 23.7355C8.47933 23.7355 6.53662 23.1886 4.95329 22.0896C3.38037 20.9803 2.2085 19.5271 1.43245 17.7355C0.666829 15.9438 0.286621 14.048 0.286621 12.048C0.286621 10.0376 0.666829 8.14172 1.43245 6.36047C2.2085 4.58443 3.39079 3.14172 4.97412 2.02714C6.56787 0.917766 8.521 0.360474 10.8283 0.360474C13.8387 0.360474 16.2502 1.3761 18.0575 3.40214C19.8595 5.41777 20.7658 8.3136 20.7658 12.0896V13.1105H3.97412V13.423C3.97412 14.673 4.25016 15.8553 4.80745 16.9646C5.37516 18.0792 6.17204 18.9751 7.20329 19.6521C8.22933 20.3344 9.41162 20.673 10.745 20.673C12.2033 20.673 13.4533 20.3084 14.495 19.5688C15.547 18.8188 16.3335 17.8188 16.8491 16.5688H20.4741C19.8752 18.6261 18.7554 20.3344 17.12 21.6938C15.495 23.0584 13.3804 23.7355 10.7866 23.7355ZM17.1408 10.5063C17.0262 7.95422 16.4012 6.10527 15.2658 4.96464C14.1252 3.82922 12.6304 3.25631 10.7866 3.25631C8.771 3.25631 7.16683 3.93339 5.97412 5.27714C4.77621 6.61047 4.14079 8.35527 4.05745 10.5063H17.1408Z" fill="#690061"/>
</svg>
