<svg width="21" height="24" viewBox="0 0 21 24" fill="none" xmlns="http://www.w3.org/2000/svg">
<path d="M20.0249 23.1242H16.3166V18.8534H16.0666C15.4676 20.1606 14.5509 21.2648 13.3166 22.1659C12.077 23.0565 10.5666 23.4992 8.7749 23.4992C6.8999 23.4992 5.32699 23.0513 4.06657 22.145C2.81657 21.2284 1.8999 20.0513 1.31657 18.6034C0.743653 17.1606 0.462402 15.5825 0.462402 13.8742V0.64502H4.12907V13.395C4.12907 15.5929 4.67594 17.2804 5.7749 18.4575C6.88428 19.6398 8.3374 20.2284 10.1291 20.2284C12.0041 20.2284 13.5041 19.5981 14.6291 18.3325C15.7541 17.0721 16.3166 15.4263 16.3166 13.395V0.64502H20.0249V23.1242Z" fill="black"/>
</svg>
