<svg width="18" height="20" viewBox="0 0 18 20" fill="none" xmlns="http://www.w3.org/2000/svg">
<path d="M9.4292 19.8491C7.58024 19.8491 6.01253 19.4064 4.72087 18.5158C3.43962 17.6304 2.47607 16.4637 1.82503 15.0158C1.18441 13.5731 0.866699 12.0158 0.866699 10.3491C0.866699 8.68245 1.18441 7.13037 1.82503 5.68245C2.47607 4.23975 3.43962 3.07308 4.72087 2.18245C6.01253 1.29704 7.58024 0.849121 9.4292 0.849121C11.2729 0.849121 12.8355 1.29704 14.1167 2.18245C15.4084 3.07308 16.3667 4.24495 16.9917 5.70329C17.6271 7.16162 17.95 8.71371 17.95 10.3491C17.95 11.9897 17.6219 13.5366 16.9709 14.995C16.3302 16.4533 15.3667 17.6304 14.075 18.5158C12.7938 19.4064 11.2469 19.8491 9.4292 19.8491ZM9.4292 17.2866C10.5542 17.2866 11.5386 16.9741 12.3875 16.3491C13.2313 15.7241 13.8719 14.8856 14.3042 13.8283C14.7469 12.7762 14.9709 11.5991 14.9709 10.3075C14.9709 8.32308 14.4709 6.67204 13.4709 5.34912C12.4813 4.03141 11.1375 3.36995 9.4292 3.36995C8.27295 3.36995 7.27295 3.68245 6.4292 4.30745C5.58024 4.93245 4.93441 5.7762 4.4917 6.82829C4.05941 7.88558 3.84587 9.04704 3.84587 10.3075C3.84587 12.297 4.33545 13.9533 5.32503 15.2866C6.32503 16.62 7.68962 17.2866 9.4292 17.2866Z" fill="#690061"/>
</svg>
