<svg width="16" height="19" viewBox="0 0 16 19" fill="none" xmlns="http://www.w3.org/2000/svg">
<path d="M8.22754 18.4714C6.50358 18.4714 5.04525 18.0547 3.85254 17.2214C2.67025 16.388 1.79004 15.2995 1.20671 13.9505C0.63379 12.6068 0.352539 11.1901 0.352539 9.70052C0.352539 8.1901 0.63379 6.76302 1.20671 5.42969C1.79004 4.09635 2.67546 3.01302 3.87337 2.17969C5.06608 1.34635 6.52962 0.929688 8.26921 0.929688C10.5296 0.929688 12.3369 1.6901 13.6859 3.20052C15.0452 4.71615 15.7275 6.88802 15.7275 9.72135V10.4922H3.10254V10.7214C3.10254 11.6693 3.31608 12.5547 3.74837 13.388C4.17546 14.2109 4.77441 14.8776 5.54004 15.388C6.30046 15.9036 7.19108 16.1589 8.20671 16.1589C9.29004 16.1589 10.2275 15.8828 11.0192 15.3255C11.8109 14.7734 12.3942 14.0286 12.7692 13.0964H15.4984C15.0505 14.6276 14.2119 15.9036 12.9775 16.9297C11.7536 17.9609 10.1702 18.4714 8.22754 18.4714ZM12.9984 8.55469C12.915 6.6276 12.4411 5.23698 11.5817 4.38802C10.7327 3.52865 9.61296 3.09635 8.22754 3.09635C6.71191 3.09635 5.50358 3.60677 4.60254 4.61719C3.71191 5.61719 3.23796 6.92969 3.18587 8.55469H12.9984Z" fill="black"/>
</svg>
