<svg width="13" height="15" viewBox="0 0 13 15" fill="none" xmlns="http://www.w3.org/2000/svg">
<path d="M6.2098 14.2771C4.97022 14.2771 3.8973 14.0219 2.98063 13.5062C2.06396 12.9802 1.35563 12.2094 0.855632 11.1937C0.366048 10.1677 0.126465 8.93331 0.126465 7.48539C0.126465 6.04268 0.366048 4.81352 0.855632 3.79789C1.35563 2.77185 2.06396 2.00102 2.98063 1.48539C3.8973 0.959351 4.97022 0.693726 6.2098 0.693726C7.44417 0.693726 8.51188 0.959351 9.41813 1.48539C10.3348 2.00102 11.0327 2.77185 11.5223 3.79789C12.0223 4.81352 12.2723 6.04268 12.2723 7.48539C12.2723 8.93331 12.0223 10.1677 11.5223 11.1937C11.0327 12.2094 10.3348 12.9802 9.41813 13.5062C8.51188 14.0219 7.44417 14.2771 6.2098 14.2771ZM6.2098 12.5479C7.51188 12.5479 8.50667 12.1416 9.18896 11.3187C9.88167 10.4854 10.2306 9.20935 10.2306 7.48539C10.2306 5.75102 9.88167 4.47498 9.18896 3.65206C8.50667 2.83435 7.51188 2.42289 6.2098 2.42289C4.90251 2.42289 3.8973 2.83956 3.18896 3.67289C2.49105 4.49581 2.1473 5.76664 2.1473 7.48539C2.1473 9.20935 2.49105 10.4854 3.18896 11.3187C3.8973 12.1416 4.90251 12.5479 6.2098 12.5479Z" fill="black"/>
</svg>
