<svg width="12" height="14" viewBox="0 0 12 14" fill="none" xmlns="http://www.w3.org/2000/svg">
<path d="M6.56038 13.0254C5.3208 13.0254 4.27393 12.7337 3.41455 12.1504C2.56559 11.5566 1.93538 10.7858 1.51872 9.83789C1.11247 8.89518 0.914551 7.88997 0.914551 6.81706C0.914551 5.73372 1.11247 4.72331 1.51872 3.77539C1.93538 2.83268 2.56559 2.06706 3.41455 1.48372C4.27393 0.889975 5.3208 0.587891 6.56038 0.587891C8.10205 0.587891 9.31559 1.04102 10.2062 1.94206C11.0916 2.83268 11.6281 3.92122 11.8104 5.21289H9.89372C9.76872 4.33789 9.41976 3.62956 8.85205 3.08789C8.29476 2.53581 7.53955 2.25456 6.58122 2.25456C5.37288 2.25456 4.45622 2.69206 3.83122 3.56706C3.20622 4.43164 2.89372 5.51497 2.89372 6.81706C2.89372 8.10872 3.20622 9.19206 3.83122 10.0671C4.45622 10.9316 5.37288 11.3587 6.58122 11.3587C7.53955 11.3587 8.29476 11.0879 8.85205 10.5462C9.41976 10.0046 9.76872 9.29102 9.89372 8.40039H11.8104C11.6281 9.69206 11.0916 10.791 10.2062 11.6921C9.31559 12.5827 8.10205 13.0254 6.56038 13.0254Z" fill="black"/>
</svg>
