<svg width="11" height="13" viewBox="0 0 11 13" fill="none" xmlns="http://www.w3.org/2000/svg">
<path d="M0.23877 0.921224H2.17627V3.06706H2.36377C2.66585 2.37435 3.16064 1.79102 3.84294 1.31706C4.52002 0.832683 5.34814 0.587891 6.3221 0.587891C7.33252 0.587891 8.18148 0.832683 8.86377 1.31706C9.54085 1.79102 10.0409 2.41602 10.3638 3.19206C10.6971 3.97331 10.8638 4.81185 10.8638 5.71289V12.8587H8.90544V5.96289C8.90544 4.78581 8.59814 3.88997 7.98877 3.27539C7.37419 2.65039 6.57731 2.33789 5.59294 2.33789C4.55127 2.33789 3.71794 2.68164 3.09294 3.35872C2.47835 4.02539 2.17627 4.89518 2.17627 5.96289V12.8587H0.23877V0.921224Z" fill="black"/>
</svg>
