<svg width="16" height="19" viewBox="0 0 16 19" fill="none" xmlns="http://www.w3.org/2000/svg">
<path d="M8.42301 18.4714C6.67301 18.4714 5.19385 18.0547 3.98551 17.2214C2.77718 16.388 1.88135 15.3047 1.29801 13.9714C0.725098 12.638 0.443848 11.2161 0.443848 9.70052C0.443848 8.1901 0.725098 6.76302 1.29801 5.42969C1.88135 4.09635 2.77718 3.01302 3.98551 2.17969C5.19385 1.34635 6.67301 0.929688 8.42301 0.929688C10.5897 0.929688 12.298 1.5651 13.548 2.82552C14.798 4.07552 15.5532 5.61719 15.8188 7.45052H13.1313C12.9334 6.21615 12.4438 5.21094 11.6522 4.42969C10.8605 3.65365 9.7876 3.26302 8.44385 3.26302C6.73551 3.26302 5.43343 3.88281 4.54801 5.11719C3.67301 6.34115 3.23551 7.86719 3.23551 9.70052C3.23551 11.5339 3.67301 13.0703 4.54801 14.3047C5.43343 15.5286 6.73551 16.138 8.44385 16.138C9.7876 16.138 10.8605 15.7578 11.6522 14.9922C12.4438 14.2161 12.9334 13.1953 13.1313 11.9297H15.8188C15.5532 13.7786 14.798 15.3359 13.548 16.5964C12.298 17.8464 10.5897 18.4714 8.42301 18.4714Z" fill="black"/>
</svg>
