<svg width="16" height="19" viewBox="0 0 16 19" fill="none" xmlns="http://www.w3.org/2000/svg">
<path d="M8.52214 18.4772C7.00651 18.4772 5.65234 18.1335 4.45964 17.4355C3.27734 16.7428 2.34505 15.7272 1.66797 14.3939C1.0013 13.0501 0.667969 11.4303 0.667969 9.53971C0.667969 7.66471 1.0013 6.06055 1.66797 4.72721C2.34505 3.38346 3.27734 2.36263 4.45964 1.66471C5.65234 0.972006 7.00651 0.623047 8.52214 0.623047C10.1471 0.623047 11.4909 0.930339 12.5638 1.53971C13.6471 2.1543 14.4232 3.07617 14.8971 4.31055L13.6055 5.18555H13.293C12.819 4.20117 12.1992 3.49805 11.4388 3.08138C10.6888 2.66471 9.71484 2.45638 8.52214 2.45638C7.4388 2.45638 6.47005 2.70117 5.6263 3.18555C4.77734 3.67513 4.10547 4.44596 3.60547 5.49805C3.10547 6.55534 2.85547 7.9043 2.85547 9.53971C2.85547 11.196 3.10547 12.5501 3.60547 13.6022C4.10547 14.6595 4.77734 15.4303 5.6263 15.9147C6.47005 16.4043 7.4388 16.6439 8.52214 16.6439C9.78255 16.6439 10.8138 16.3626 11.6055 15.7897C12.4076 15.222 13.0065 14.3053 13.3971 13.0397H13.6888L15.0638 13.7064C14.6471 15.248 13.8815 16.4303 12.7721 17.248C11.6576 18.071 10.2409 18.4772 8.52214 18.4772Z" fill="black"/>
</svg>
