<svg width="12" height="14" viewBox="0 0 12 14" fill="none" xmlns="http://www.w3.org/2000/svg">
<path d="M6.41341 13.0254C5.18945 13.0254 4.15299 12.7337 3.30924 12.1504C2.47591 11.5566 1.85091 10.7858 1.43424 9.83789C1.02799 8.87956 0.830078 7.87435 0.830078 6.81706C0.830078 5.73372 1.02799 4.72331 1.43424 3.77539C1.85091 2.83268 2.48112 2.06706 3.33008 1.48372C4.17383 0.889975 5.21029 0.587891 6.43425 0.587891C8.04362 0.587891 9.33008 1.12956 10.2884 2.21289C11.2467 3.28581 11.7259 4.82747 11.7259 6.83789V7.37956H2.78841V7.52539C2.78841 8.19206 2.93945 8.82747 3.24674 9.42122C3.54883 10.0046 3.97591 10.4785 4.51758 10.8379C5.05925 11.2025 5.68425 11.3796 6.39258 11.3796C7.16862 11.3796 7.83529 11.1868 8.39258 10.7962C8.94466 10.4108 9.36133 9.87956 9.64258 9.21289H11.5592C11.2363 10.2962 10.6426 11.2077 9.76758 11.9421C8.90299 12.666 7.78841 13.0254 6.41341 13.0254ZM9.78841 5.98372C9.73112 4.62435 9.39779 3.64518 8.78841 3.04622C8.18945 2.43685 7.39779 2.12956 6.41341 2.12956C5.3405 2.12956 4.48633 2.49414 3.85091 3.21289C3.21029 3.92122 2.87174 4.84831 2.83008 5.98372H9.78841Z" fill="black"/>
</svg>
