<svg width="16" height="18" viewBox="0 0 16 18" fill="none" xmlns="http://www.w3.org/2000/svg">
<path d="M15.5728 17.2422H12.8019V14.0338H12.5936C12.1457 15.0234 11.4582 15.8568 10.5311 16.5338C9.5988 17.2005 8.46859 17.5338 7.13525 17.5338C5.71859 17.5338 4.5363 17.1953 3.59359 16.513C2.6613 15.8359 1.9738 14.9505 1.53109 13.8672C1.0988 12.7734 0.885254 11.5859 0.885254 10.3047V0.388H3.63525V9.9505C3.63525 11.5911 4.05192 12.8568 4.88525 13.7422C5.71859 14.6328 6.80713 15.0755 8.15609 15.0755C9.55713 15.0755 10.6821 14.6068 11.5311 13.6588C12.3748 12.7005 12.8019 11.4661 12.8019 9.9505V0.388H15.5728V17.2422Z" fill="black"/>
</svg>
