<svg width="18" height="20" viewBox="0 0 18 20" fill="none" xmlns="http://www.w3.org/2000/svg">
<path d="M9.08919 19.9434C7.21419 19.9434 5.63607 19.4954 4.36003 18.5892C3.07878 17.6882 2.13086 16.5059 1.50586 15.0475C0.880859 13.5892 0.568359 12.0579 0.568359 10.4434C0.568359 8.80794 0.880859 7.26628 1.50586 5.81836C2.13086 4.37565 3.08919 3.20378 4.38086 2.29753C5.67253 1.39648 7.25586 0.943359 9.13086 0.943359C11.5736 0.943359 13.5319 1.76628 15.0059 3.40169C16.4746 5.04232 17.2142 7.39648 17.2142 10.4642V11.2975H3.54753V11.5475C3.54753 12.5632 3.77669 13.5215 4.23503 14.4225C4.70378 15.3288 5.34961 16.0579 6.17253 16.61C7.00586 17.1673 7.9694 17.4434 9.06836 17.4434C10.235 17.4434 11.2454 17.1465 12.11 16.5475C12.9694 15.9382 13.5996 15.1257 14.0059 14.11H16.9642C16.4746 15.7767 15.5684 17.1673 14.235 18.2767C12.9121 19.3913 11.1986 19.9434 9.08919 19.9434ZM14.2559 9.19336C14.1569 7.11003 13.6413 5.61003 12.7142 4.69336C11.7975 3.76628 10.5892 3.29753 9.08919 3.29753C7.44857 3.29753 6.14128 3.83919 5.17253 4.92253C4.19857 6.00586 3.67773 7.43294 3.61003 9.19336H14.2559Z" fill="#690061"/>
</svg>
