<svg width="27" height="19" viewBox="0 0 27 19" fill="none" xmlns="http://www.w3.org/2000/svg">
<path d="M0.486816 1.38802H3.21598V4.49219H3.46598C3.50765 4.27344 3.71598 3.88281 4.09098 3.32552C4.4764 2.75781 5.07015 2.21615 5.86182 1.70052C6.65348 1.1901 7.63786 0.929688 8.82015 0.929688C10.0545 0.929688 11.0806 1.22135 11.9035 1.80469C12.7212 2.3776 13.3306 2.99219 13.7368 3.65885C14.1379 4.3151 14.341 4.72135 14.341 4.88802H14.6118C14.9035 4.15365 15.492 3.3151 16.3827 2.36719C17.2681 1.40885 18.6327 0.929688 20.466 0.929688C21.8254 0.929688 22.966 1.27865 23.8827 1.97135C24.7993 2.66927 25.4712 3.5651 25.9035 4.65885C26.3462 5.74219 26.5702 6.90365 26.5702 8.13802V18.2422H23.841V8.38802C23.841 6.76302 23.4139 5.53385 22.5702 4.70052C21.7368 3.86719 20.7004 3.45052 19.466 3.45052C18.1847 3.45052 17.1014 3.88802 16.216 4.76302C15.3254 5.6276 14.8827 6.83594 14.8827 8.38802V18.2422H12.1743V8.38802C12.1743 6.76302 11.7472 5.53385 10.9035 4.70052C10.0545 3.86719 9.01286 3.45052 7.77848 3.45052C6.49723 3.45052 5.4139 3.88802 4.52848 4.76302C3.65348 5.6276 3.21598 6.83594 3.21598 8.38802V18.2422H0.486816V1.38802Z" fill="black"/>
</svg>
