<svg width="22" height="37" viewBox="0 0 22 37" fill="none" xmlns="http://www.w3.org/2000/svg">
<path d="M19.1771 29.1029L21.0729 34.4987C20.2812 35.1393 19.2865 35.6446 18.0938 36.0196C16.9115 36.3946 15.5625 36.5821 14.0521 36.5821C10.9115 36.5821 8.52083 35.7279 6.88542 34.0196C5.26042 32.3008 4.44792 29.806 4.44792 26.5404V12.7487H0.03125V6.95705H4.44792V1.31122L11.7396 0.123718V6.95705H19.9688V12.7487H11.7396V26.0196C11.7396 27.4675 12.0365 28.5143 12.6354 29.1654C13.2292 29.8216 14.099 30.1446 15.2396 30.1446C16.5312 30.1446 17.6615 29.8008 18.6354 29.1029H19.1771Z" fill="black"/>
</svg>
