<svg width="13" height="15" viewBox="0 0 13 15" fill="none" xmlns="http://www.w3.org/2000/svg">
<path d="M11.9997 8.12309H2.99967C3.05176 9.72205 3.43717 10.8939 4.14551 11.6439C4.85384 12.3835 5.82259 12.7481 7.06217 12.7481C7.98926 12.7481 8.73926 12.5814 9.31217 12.2481C9.87988 11.9148 10.3226 11.3939 10.6455 10.6856H10.8955L12.1663 11.4356C11.7913 12.3835 11.1768 13.1231 10.333 13.6648C9.49967 14.2064 8.40592 14.4773 7.06217 14.4773C5.79655 14.4773 4.70801 14.2273 3.79134 13.7273C2.88509 13.2273 2.18717 12.472 1.68717 11.4564C1.19759 10.446 0.958008 9.18559 0.958008 7.68559C0.958008 6.20121 1.21322 4.95121 1.72884 3.93559C2.25488 2.90955 2.96322 2.14392 3.85384 1.64392C4.75488 1.14392 5.78092 0.893921 6.93717 0.893921C8.61426 0.893921 9.92676 1.36788 10.8747 2.31059C11.8174 3.2585 12.2913 4.65955 12.2913 6.51892C12.2913 7.24288 12.2757 7.72725 12.2497 7.97725L11.9997 8.12309ZM10.3747 6.51892C10.3434 5.11788 10.0413 4.10225 9.45801 3.47725C8.87467 2.84184 8.03092 2.51892 6.93717 2.51892C5.79655 2.51892 4.89551 2.84184 4.22884 3.47725C3.57259 4.11788 3.17676 5.1335 3.04134 6.51892H10.3747Z" fill="black"/>
</svg>
