<svg width="16" height="24" viewBox="0 0 16 24" fill="none" xmlns="http://www.w3.org/2000/svg">
<path d="M6.16976 17.0964C6.16976 16.0964 6.43018 15.2214 6.96143 14.4714C7.48747 13.711 8.27913 12.836 9.33643 11.8464C10.3468 10.8881 11.1125 10.0547 11.6281 9.3464C12.1385 8.62764 12.3989 7.79952 12.3989 6.86723C12.3989 5.60681 11.9823 4.63285 11.1489 3.95056C10.3156 3.27348 9.23226 2.92973 7.89893 2.92973C6.78434 2.92973 5.87809 3.16931 5.16976 3.63806C4.46143 4.0964 3.95101 4.67973 3.64893 5.38806C3.34163 6.0964 3.19059 6.81515 3.19059 7.5339V7.6589H0.398926V7.5339C0.398926 6.14848 0.701008 4.9089 1.31559 3.82556C1.92497 2.73181 2.79476 1.87764 3.91976 1.26306C5.05518 0.638062 6.3833 0.325562 7.89893 0.325562C9.36768 0.325562 10.6541 0.606812 11.7531 1.15889C12.8468 1.71619 13.6958 2.48181 14.2948 3.45056C14.8885 4.42452 15.1906 5.51306 15.1906 6.7214C15.1906 7.5964 15.0239 8.40369 14.6906 9.13806C14.3573 9.86202 13.9458 10.4922 13.4614 11.0339C12.9875 11.5651 12.3677 12.1901 11.6073 12.9089C10.6906 13.7579 10.0031 14.4818 9.54476 15.0756C9.09684 15.6745 8.87809 16.3464 8.87809 17.0964V17.3464H6.16976V17.0964ZM7.54476 23.5339C7.02913 23.5339 6.60726 23.3672 6.27393 23.0339C5.94059 22.6901 5.77393 22.2579 5.77393 21.7422C5.77393 21.2422 5.94059 20.8256 6.27393 20.4922C6.60726 20.1485 7.02913 19.9714 7.54476 19.9714C8.02913 19.9714 8.44059 20.1485 8.77393 20.4922C9.11768 20.8256 9.29476 21.2422 9.29476 21.7422C9.29476 22.2318 9.11768 22.6537 8.77393 23.0131C8.44059 23.3568 8.02913 23.5339 7.54476 23.5339Z" fill="black"/>
</svg>
