<svg width="16" height="19" viewBox="0 0 16 19" fill="none" xmlns="http://www.w3.org/2000/svg">
<path d="M8.47314 18.4714C6.74919 18.4714 5.29085 18.0547 4.09814 17.2214C2.91585 16.388 2.03564 15.2995 1.45231 13.9505C0.879395 12.6068 0.598145 11.1901 0.598145 9.70052C0.598145 8.1901 0.879395 6.76302 1.45231 5.42969C2.03564 4.09635 2.92106 3.01302 4.11898 2.17969C5.31169 1.34635 6.77523 0.929688 8.51481 0.929688C10.7752 0.929688 12.5825 1.6901 13.9315 3.20052C15.2909 4.71615 15.9731 6.88802 15.9731 9.72135V10.4922H3.34814V10.7214C3.34814 11.6693 3.56169 12.5547 3.99398 13.388C4.42106 14.2109 5.02002 14.8776 5.78564 15.388C6.54606 15.9036 7.43669 16.1589 8.45231 16.1589C9.53564 16.1589 10.4731 15.8828 11.2648 15.3255C12.0565 14.7734 12.6398 14.0286 13.0148 13.0964H15.744C15.2961 14.6276 14.4575 15.9036 13.2231 16.9297C11.9992 17.9609 10.4159 18.4714 8.47314 18.4714ZM13.244 8.55469C13.1606 6.6276 12.6867 5.23698 11.8273 4.38802C10.9784 3.52865 9.85856 3.09635 8.47314 3.09635C6.95752 3.09635 5.74919 3.60677 4.84814 4.61719C3.95752 5.61719 3.48356 6.92969 3.43148 8.55469H13.244Z" fill="black"/>
</svg>
