<svg width="22" height="32" viewBox="0 0 22 32" fill="none" xmlns="http://www.w3.org/2000/svg">
<path d="M10.9396 26.2284C10.4813 27.3117 10.0438 28.1972 9.62712 28.8951C9.22087 29.6034 8.54899 30.2701 7.60628 30.8951C6.65837 31.5201 5.43962 31.8326 3.93962 31.8326C3.14795 31.8326 2.29378 31.7128 1.37712 31.4784V28.7492C2.0542 28.8586 2.65316 28.9159 3.16878 28.9159C4.11149 28.9159 4.8667 28.7336 5.43962 28.3742C6.00732 28.0253 6.45003 27.567 6.77295 26.9992C7.10628 26.4263 7.4917 25.6086 7.93962 24.5409L8.98128 22.0201L0.647949 0.645081H4.50212L10.7729 17.9576H11.0229L17.5854 0.645081H21.4188L10.9396 26.2284Z" fill="black"/>
</svg>
