<svg width="22" height="24" viewBox="0 0 22 24" fill="none" xmlns="http://www.w3.org/2000/svg">
<path d="M11.304 23.4159C8.99666 23.4159 7.05396 22.869 5.47062 21.77C3.8977 20.6607 2.72583 19.2075 1.94979 17.4159C1.18416 15.6242 0.803955 13.7284 0.803955 11.7284C0.803955 9.71796 1.18416 7.82212 1.94979 6.04087C2.72583 4.26483 3.90812 2.82733 5.49146 1.72837C7.08521 0.618999 9.03833 0.0617065 11.3456 0.0617065C14.356 0.0617065 16.7675 1.07212 18.5748 3.08254C20.3769 5.09817 21.2831 7.994 21.2831 11.77V12.8117H4.47062V13.1034C4.47062 14.3534 4.75187 15.5357 5.32479 16.645C5.8925 17.7596 6.68937 18.6555 7.72062 19.3325C8.74666 20.0148 9.92896 20.3534 11.2623 20.3534C12.705 20.3534 13.955 19.9888 15.0123 19.2492C16.0644 18.5148 16.8508 17.5148 17.3665 16.2492H20.9915C20.3925 18.3065 19.2727 20.0148 17.6373 21.3742C15.9967 22.7388 13.8873 23.4159 11.304 23.4159ZM17.6581 10.2075C17.5435 7.65546 16.9185 5.8065 15.7831 4.66587C14.6425 3.53046 13.1477 2.95754 11.304 2.95754C9.28833 2.95754 7.68416 3.62421 6.49146 4.95754C5.29354 6.29087 4.65812 8.04087 4.57479 10.2075H17.6581Z" fill="black"/>
</svg>
