<svg width="18" height="25" viewBox="0 0 18 25" fill="none" xmlns="http://www.w3.org/2000/svg">
<path d="M8.70459 0.328613C10.6629 0.328613 12.2723 0.724447 13.5379 1.51611C14.7983 2.29736 15.7098 3.28695 16.2671 4.49528C16.8192 5.6932 17.1004 6.96403 17.1004 8.30778C17.1004 9.64111 16.8192 10.9067 16.2671 12.0994C15.7098 13.2974 14.8088 14.2817 13.5588 15.0578C12.3088 15.8234 10.689 16.2036 8.70459 16.2036H3.37126V24.5994H0.45459V0.328613H8.70459ZM8.32959 13.6203C9.98063 13.6203 11.3713 13.2244 12.4963 12.4328C13.6213 11.6307 14.1838 10.2557 14.1838 8.30778C14.1838 6.39111 13.6213 5.03695 12.4963 4.24528C11.3713 3.4432 9.98063 3.03695 8.32959 3.03695H3.37126V13.6203H8.32959Z" fill="black"/>
</svg>
