<svg width="18" height="24" viewBox="0 0 18 24" fill="none" xmlns="http://www.w3.org/2000/svg">
<path d="M9.59554 23.4159C7.77262 23.4159 6.19971 23.0565 4.86637 22.3325C3.53304 21.6138 2.51221 20.6815 1.80387 19.5409C1.10596 18.4055 0.762207 17.2075 0.762207 15.9575V15.7492H4.42887V15.9159C4.42887 16.6242 4.62679 17.3325 5.03304 18.0409C5.43408 18.7388 6.03304 19.3065 6.82471 19.7492C7.61637 20.1815 8.57992 20.395 9.72054 20.395C11.0799 20.395 12.2049 20.0617 13.0955 19.395C13.9966 18.7284 14.4497 17.8117 14.4497 16.645C14.4497 15.6763 14.1007 14.9055 13.408 14.3325C12.7101 13.7648 11.8351 13.395 10.783 13.2284L7.84554 12.8117C5.99658 12.52 4.44971 11.8898 3.19971 10.9159C1.94971 9.9315 1.32471 8.49921 1.32471 6.62421C1.32471 4.54087 2.06429 2.9315 3.55387 1.79087C5.05387 0.639832 6.97054 0.0617065 9.30387 0.0617065C11.0382 0.0617065 12.5226 0.384623 13.7622 1.02004C14.9966 1.66067 15.9393 2.49921 16.5955 3.54087C17.2466 4.57212 17.5747 5.69712 17.5747 6.91587V7.08254H13.908V6.99921C13.908 6.4315 13.7518 5.83254 13.4497 5.20754C13.158 4.58254 12.6476 4.05129 11.9289 3.60337C11.2205 3.14504 10.3143 2.91587 9.22054 2.91587C7.84554 2.91587 6.74658 3.24921 5.92887 3.91587C5.10596 4.58254 4.69971 5.45754 4.69971 6.54087C4.69971 7.41587 5.02262 8.13983 5.67887 8.70754C6.32992 9.28046 7.14762 9.64504 8.13721 9.81171L11.3455 10.3325C13.2205 10.6398 14.7935 11.2857 16.0747 12.27C17.3507 13.2596 17.9914 14.7023 17.9914 16.6034C17.9914 17.968 17.6268 19.1607 16.908 20.1867C16.1841 21.2023 15.1841 21.994 13.908 22.5617C12.6268 23.1294 11.1893 23.4159 9.59554 23.4159Z" fill="black"/>
</svg>
