<svg width="18" height="27" viewBox="0 0 18 27" fill="none" xmlns="http://www.w3.org/2000/svg">
<path d="M8.24056 26.8496C6.62598 26.8496 5.24577 26.4329 4.09473 25.5996C2.9541 24.7663 2.08431 23.6361 1.49056 22.2038C0.891601 20.7767 0.594727 19.1569 0.594727 17.3496C0.594727 15.5163 0.891601 13.8861 1.49056 12.4538C2.08431 11.0267 2.95931 9.90169 4.11556 9.07878C5.2666 8.26107 6.66764 7.84961 8.32389 7.84961C9.93327 7.84961 11.2406 8.24023 12.2406 9.01628C13.251 9.7819 14.001 10.6829 14.4906 11.7246H14.7614V0.599609H17.7406V26.5996H14.7614V22.8496H14.4906C13.9333 23.9642 13.1468 24.9069 12.1364 25.6829C11.1364 26.4642 9.83431 26.8496 8.24056 26.8496ZM9.15723 24.2871C10.9489 24.2871 12.3135 23.6204 13.2614 22.2871C14.2197 20.9538 14.6989 19.3079 14.6989 17.3496C14.6989 15.3809 14.2197 13.7402 13.2614 12.4329C12.3135 11.1152 10.9489 10.4538 9.15723 10.4538C7.32389 10.4538 5.93848 11.1152 5.01139 12.4329C4.09473 13.7402 3.63639 15.3809 3.63639 17.3496C3.63639 19.3392 4.09993 20.9902 5.03223 22.3079C5.97493 23.6309 7.34993 24.2871 9.15723 24.2871Z" fill="black"/>
</svg>
