<svg width="56" height="74" viewBox="0 0 56 74" fill="none" xmlns="http://www.w3.org/2000/svg">
<path d="M13.5375 0.962463C17.0375 0.962463 20.751 1.20726 24.6833 1.69163C28.6104 2.18121 32.4177 3.11871 36.1 4.50413C39.7927 5.89476 43.1312 7.9208 46.1208 10.5875C49.1052 13.2437 51.4854 16.7281 53.2666 21.0458C55.0583 25.3687 55.9541 30.7645 55.9541 37.2333C55.9541 43.4573 55.0791 48.702 53.3291 52.9625C51.5791 57.2125 49.2146 60.6864 46.2458 63.3791C43.2875 66.0614 39.9437 68.1448 36.225 69.6291C32.5166 71.1187 28.7094 72.1291 24.8083 72.6708C20.9177 73.2125 17.1625 73.4833 13.5375 73.4833H1.66248C0.995809 73.4833 0.662476 73.2125 0.662476 72.6708V44.2125H14.5375V60.15C16.2875 60.2229 18.3344 60.1812 20.6833 60.025C23.0427 59.8739 25.4594 59.4208 27.9333 58.6708C30.4177 57.9104 32.7302 56.7125 34.8708 55.0875C37.0219 53.452 38.7458 51.1864 40.0375 48.2958C41.3396 45.3948 41.9958 41.7073 41.9958 37.2333C41.9958 31.4833 40.7979 26.8739 38.4125 23.4C36.0219 19.9312 32.7562 17.4573 28.6208 15.9833C24.4802 14.4989 19.7875 13.9 14.5375 14.1916V30.2541H0.662476V1.77496C0.662476 1.2333 0.995809 0.962463 1.66248 0.962463H13.5375Z" fill="#562A2A"/>
</svg>
