<svg width="16" height="19" viewBox="0 0 16 19" fill="none" xmlns="http://www.w3.org/2000/svg">
<path d="M0.874512 1.38802H3.62451V4.40885H3.89535C4.31201 3.4401 4.99951 2.61719 5.95785 1.95052C6.9266 1.27344 8.10368 0.929688 9.47868 0.929688C10.9058 0.929688 12.1037 1.27344 13.062 1.95052C14.0308 2.61719 14.7495 3.5026 15.2078 4.59635C15.6662 5.69531 15.8953 6.88281 15.8953 8.15885V18.2422H13.1245V8.51302C13.1245 6.84635 12.6922 5.57552 11.8328 4.70052C10.9683 3.82552 9.84326 3.38802 8.45785 3.38802C6.98389 3.38802 5.81201 3.86719 4.93701 4.82552C4.06201 5.77344 3.62451 7.0026 3.62451 8.51302V18.2422H0.874512V1.38802Z" fill="black"/>
</svg>
