<svg width="16" height="19" viewBox="0 0 16 19" fill="none" xmlns="http://www.w3.org/2000/svg">
<path d="M0.0742188 1.38802H2.82422V4.40885H3.09505C3.51172 3.4401 4.19922 2.61719 5.15755 1.95052C6.1263 1.27344 7.30339 0.929688 8.67839 0.929688C10.1055 0.929688 11.3034 1.27344 12.2617 1.95052C13.2305 2.61719 13.9492 3.5026 14.4076 4.59635C14.8659 5.69531 15.0951 6.88281 15.0951 8.15885V18.2422H12.3242V8.51302C12.3242 6.84635 11.8919 5.57552 11.0326 4.70052C10.168 3.82552 9.04297 3.38802 7.65755 3.38802C6.18359 3.38802 5.01172 3.86719 4.13672 4.82552C3.26172 5.77344 2.82422 7.0026 2.82422 8.51302V18.2422H0.0742188V1.38802Z" fill="black"/>
</svg>
