<svg width="22" height="33" viewBox="0 0 22 33" fill="none" xmlns="http://www.w3.org/2000/svg">
<path d="M9.66895 32.2917C7.67936 32.2917 5.98145 31.7865 4.56478 30.7708C3.15853 29.7448 2.08561 28.349 1.33561 26.5833C0.596029 24.8229 0.231445 22.8281 0.231445 20.6042C0.231445 18.3542 0.596029 16.349 1.33561 14.5833C2.08561 12.8229 3.16895 11.4375 4.58561 10.4375C6.0127 9.42708 7.73665 8.91667 9.75228 8.91667C11.7367 8.91667 13.346 9.39583 14.5856 10.3542C15.8356 11.3021 16.7575 12.4115 17.3564 13.6875H17.6898V0H21.3564V32H17.6898V27.3958H17.3564C16.6585 28.7604 15.695 29.9167 14.4606 30.875C13.221 31.8229 11.6273 32.2917 9.66895 32.2917ZM10.7731 29.1458C12.9919 29.1458 14.6898 28.3281 15.8564 26.6875C17.0231 25.0521 17.6064 23.0208 17.6064 20.6042C17.6064 18.1875 17.0231 16.1771 15.8564 14.5625C14.6898 12.9375 12.9919 12.125 10.7731 12.125C8.52311 12.125 6.82519 12.9375 5.68978 14.5625C4.56478 16.1771 4.00228 18.1875 4.00228 20.6042C4.00228 23.0521 4.56999 25.0833 5.71061 26.7083C6.86165 28.3333 8.54915 29.1458 10.7731 29.1458Z" fill="#690061"/>
</svg>
