<svg width="25" height="25" viewBox="0 0 25 25" fill="none" xmlns="http://www.w3.org/2000/svg">
<path d="M0.326172 24.4082V0.82487H6.49284L7.36784 3.24154C8.24284 2.25716 9.34701 1.50195 10.6803 0.970703C12.0137 0.429036 13.472 0.158203 15.0553 0.158203C18.0814 0.158203 20.4772 1.10612 22.2428 2.99154C24.0189 4.88216 24.9095 7.41862 24.9095 10.5957V24.4082H16.347V11.4707C16.347 10.0853 16.0241 9.0332 15.3887 8.32487C14.748 7.60612 13.8574 7.24154 12.722 7.24154C11.5397 7.24154 10.6022 7.63216 9.90951 8.4082C9.22721 9.17383 8.88867 10.2728 8.88867 11.6999V24.4082H0.326172Z" fill="#690061"/>
</svg>
