<svg width="12" height="14" viewBox="0 0 12 14" fill="none" xmlns="http://www.w3.org/2000/svg">
<path d="M6.13005 13.0254C4.92171 13.0254 3.89046 12.7337 3.04671 12.1504C2.21338 11.5671 1.57796 10.8066 1.15088 9.85872C0.734212 8.91602 0.525879 7.90039 0.525879 6.81706C0.525879 5.72331 0.734212 4.70247 1.15088 3.75456C1.57796 2.81185 2.21338 2.04622 3.04671 1.46289C3.89046 0.879557 4.92171 0.587891 6.13005 0.587891C7.33838 0.587891 8.35921 0.879557 9.19255 1.46289C10.0363 2.04622 10.6717 2.81706 11.0884 3.77539C11.505 4.72331 11.7134 5.73372 11.7134 6.81706C11.7134 7.88997 11.4946 8.90039 11.0675 9.85872C10.6509 10.8066 10.0155 11.5671 9.17171 12.1504C8.33838 12.7337 7.32275 13.0254 6.13005 13.0254ZM6.13005 11.3379C6.88005 11.3379 7.52588 11.14 8.06755 10.7337C8.61963 10.3171 9.0363 9.77018 9.31755 9.08789C9.60921 8.39518 9.75505 7.62435 9.75505 6.77539C9.75505 5.48372 9.42692 4.41081 8.77588 3.54622C8.13525 2.68685 7.25505 2.25456 6.13005 2.25456C5.38005 2.25456 4.72379 2.46289 4.17171 2.87956C3.61442 3.28581 3.19255 3.83268 2.90088 4.52539C2.61963 5.20768 2.48421 5.95768 2.48421 6.77539C2.48421 8.08268 2.80713 9.17122 3.46338 10.0462C4.11442 10.9108 5.00505 11.3379 6.13005 11.3379Z" fill="black"/>
</svg>
