<svg width="16" height="18" viewBox="0 0 16 18" fill="none" xmlns="http://www.w3.org/2000/svg">
<path d="M0.869141 1.14925H3.61914V4.17008H3.88997C4.30664 3.20134 4.99414 2.37842 5.95247 1.71175C6.92122 1.03467 8.09831 0.690918 9.47331 0.690918C10.9004 0.690918 12.0983 1.03467 13.0566 1.71175C14.0254 2.37842 14.7441 3.26383 15.2025 4.35758C15.6608 5.45654 15.89 6.64404 15.89 7.92008V18.0034H13.1191V8.27425C13.1191 6.60758 12.6868 5.33675 11.8275 4.46175C10.9629 3.58675 9.83789 3.14925 8.45247 3.14925C6.97852 3.14925 5.80664 3.62842 4.93164 4.58675C4.05664 5.53467 3.61914 6.76383 3.61914 8.27425V18.0034H0.869141V1.14925Z" fill="black"/>
</svg>
