<svg width="13" height="15" viewBox="0 0 13 15" fill="none" xmlns="http://www.w3.org/2000/svg">
<path d="M6.1512 14.4773C4.91162 14.4773 3.8387 14.222 2.92204 13.7064C2.00537 13.1804 1.29704 12.4095 0.797038 11.3939C0.307454 10.3679 0.0678711 9.1335 0.0678711 7.68559C0.0678711 6.24288 0.307454 5.01371 0.797038 3.99809C1.29704 2.97205 2.00537 2.20121 2.92204 1.68559C3.8387 1.15955 4.91162 0.893921 6.1512 0.893921C7.38558 0.893921 8.45329 1.15955 9.35954 1.68559C10.2762 2.20121 10.9741 2.97205 11.4637 3.99809C11.9637 5.01371 12.2137 6.24288 12.2137 7.68559C12.2137 9.1335 11.9637 10.3679 11.4637 11.3939C10.9741 12.4095 10.2762 13.1804 9.35954 13.7064C8.45329 14.222 7.38558 14.4773 6.1512 14.4773ZM6.1512 12.7481C7.45329 12.7481 8.44808 12.3418 9.13037 11.5189C9.82308 10.6856 10.172 9.40955 10.172 7.68559C10.172 5.95121 9.82308 4.67517 9.13037 3.85225C8.44808 3.03455 7.45329 2.62309 6.1512 2.62309C4.84391 2.62309 3.8387 3.03975 3.13037 3.87309C2.43245 4.696 2.0887 5.96684 2.0887 7.68559C2.0887 9.40955 2.43245 10.6856 3.13037 11.5189C3.8387 12.3418 4.84391 12.7481 6.1512 12.7481Z" fill="black"/>
</svg>
