<svg width="22" height="24" viewBox="0 0 22 24" fill="none" xmlns="http://www.w3.org/2000/svg">
<path d="M11.3781 23.4159C9.09684 23.4159 7.16976 22.8742 5.58643 21.7909C4.01351 20.6971 2.82601 19.2596 2.02393 17.4784C1.23226 15.7023 0.836426 13.7857 0.836426 11.7284C0.836426 9.68671 1.23226 7.78046 2.02393 5.99921C2.82601 4.22317 4.01351 2.79087 5.58643 1.70754C7.16976 0.613791 9.09684 0.0617065 11.3781 0.0617065C13.6541 0.0617065 15.576 0.613791 17.1489 1.70754C18.7323 2.79087 19.9093 4.22837 20.6906 6.02004C21.4823 7.81171 21.8781 9.71796 21.8781 11.7284C21.8781 13.7596 21.4718 15.6659 20.6698 17.4575C19.8781 19.2492 18.6906 20.6971 17.1073 21.7909C15.5343 22.8742 13.6281 23.4159 11.3781 23.4159ZM11.3781 20.27C12.7635 20.27 13.9823 19.8898 15.0239 19.1242C16.0656 18.3482 16.8573 17.3117 17.3989 16.02C17.9406 14.7284 18.2114 13.2857 18.2114 11.6867C18.2114 9.244 17.5916 7.21796 16.3573 5.60337C15.1333 3.97837 13.4718 3.16587 11.3781 3.16587C9.96143 3.16587 8.73226 3.5565 7.69059 4.33254C6.64893 5.09817 5.85726 6.12421 5.31559 7.41587C4.77393 8.70754 4.50309 10.1346 4.50309 11.6867C4.50309 14.1346 5.11247 16.1763 6.33643 17.8117C7.55518 19.4523 9.23747 20.27 11.3781 20.27Z" fill="black"/>
</svg>
