<svg width="27" height="32" viewBox="0 0 27 32" fill="none" xmlns="http://www.w3.org/2000/svg">
<path d="M13.5614 31.4327C10.6291 31.4327 8.19678 30.6931 6.26969 29.2035C4.3374 27.7035 2.90511 25.7868 1.97803 23.4535C1.06136 21.1202 0.603027 18.6618 0.603027 16.0785C0.603027 13.4691 1.06657 10.99 1.99886 8.64099C2.94157 6.29724 4.40511 4.38058 6.39469 2.89099C8.37907 1.39099 10.8634 0.640991 13.853 0.640991C17.1864 0.640991 19.8791 1.54724 21.9364 3.34932C24.0041 5.15662 25.4364 7.42224 26.228 10.141H22.353C21.7801 8.21391 20.7801 6.70349 19.353 5.62016C17.9364 4.53682 16.103 3.99516 13.853 3.99516C10.8634 3.99516 8.53011 5.07849 6.85303 7.24516C5.18636 9.41183 4.35303 12.3702 4.35303 16.1202C4.35303 19.9431 5.2124 22.9327 6.93636 25.0993C8.65511 27.2556 11.0249 28.3285 14.0405 28.3285C15.8322 28.3285 17.3739 27.9535 18.6655 27.2035C19.9572 26.4431 20.9468 25.4066 21.6447 24.0993C22.3374 22.7972 22.6968 21.3181 22.728 19.6618L22.7905 18.4743H14.4155V15.7035H26.228V31.141H23.2905V26.1827H22.9572C22.7749 26.615 22.3843 27.2243 21.7905 28.016C21.1916 28.7972 20.2072 29.5577 18.8322 30.3077C17.4572 31.0577 15.6968 31.4327 13.5614 31.4327Z" fill="#690061"/>
</svg>
