<svg width="13" height="15" viewBox="0 0 13 15" fill="none" xmlns="http://www.w3.org/2000/svg">
<path d="M4.84147 14.4773C3.5498 14.4773 2.53939 14.1439 1.82064 13.4773C1.09668 12.8002 0.737305 11.8314 0.737305 10.5814C0.737305 9.80538 0.893555 9.15434 1.21647 8.62309C1.53418 8.08142 2.02897 7.64392 2.69564 7.31059C3.37272 6.97725 4.25814 6.72205 5.34147 6.53975C6.2998 6.37309 7.01856 6.196 7.50814 5.99809C8.00814 5.80538 8.34147 5.59184 8.50814 5.35225C8.6748 5.10225 8.75814 4.78975 8.75814 4.41475C8.75814 3.821 8.55501 3.36267 8.15397 3.03975C7.74772 2.72205 7.09668 2.56059 6.19564 2.56059C5.34668 2.56059 4.61751 2.72725 4.00814 3.06059C3.40918 3.39392 2.85189 3.88351 2.34147 4.51892H2.1123L1.15397 3.18559C1.70605 2.47725 2.40918 1.92517 3.25814 1.51892C4.11751 1.10225 5.09668 0.893921 6.19564 0.893921C7.7373 0.893921 8.86751 1.23767 9.59147 1.91475C10.3258 2.58142 10.6956 3.51371 10.6956 4.70642V11.6439C10.6956 12.3835 11.0081 12.7481 11.6331 12.7481C11.8258 12.7481 12.0186 12.7168 12.2165 12.6439L12.3831 12.6856L12.6123 14.0189C12.4717 14.1179 12.2842 14.196 12.0498 14.2481C11.8102 14.3002 11.5706 14.3314 11.3206 14.3314C10.6123 14.3314 10.0706 14.1752 9.69564 13.8523C9.33105 13.5345 9.09668 13.071 8.9873 12.4564L8.7373 12.4148C8.3623 13.1127 7.85189 13.6335 7.21647 13.9773C6.59147 14.3106 5.7998 14.4773 4.84147 14.4773ZM5.27897 12.9356C5.99772 12.9356 6.62272 12.7689 7.15397 12.4356C7.69564 12.0918 8.10189 11.6179 8.38314 11.0189C8.6748 10.4095 8.82064 9.70121 8.82064 8.89392V7.22725L8.59147 7.18559C8.2998 7.39392 7.94564 7.571 7.52897 7.70642C7.1123 7.84705 6.52897 7.97205 5.77897 8.08142C5.01335 8.18038 4.40918 8.34184 3.96647 8.56059C3.51856 8.76892 3.20085 9.03975 3.00814 9.37309C2.81022 9.696 2.71647 10.097 2.71647 10.5814C2.71647 11.347 2.93522 11.9304 3.38314 12.3314C3.84147 12.7377 4.47168 12.9356 5.27897 12.9356Z" fill="black"/>
</svg>
