<svg width="29" height="20" viewBox="0 0 29 20" fill="none" xmlns="http://www.w3.org/2000/svg">
<path d="M0.592773 1.32878H3.53027V4.68294H3.82194C3.86361 4.46419 4.09277 4.04753 4.50944 3.43294C4.92611 2.82357 5.55631 2.24023 6.40527 1.68294C7.26465 1.13086 8.32715 0.849609 9.59277 0.849609C10.9365 0.849609 12.0563 1.16211 12.9469 1.78711C13.8324 2.41211 14.4938 3.08919 14.9261 3.80794C15.3688 4.51628 15.5928 4.96419 15.5928 5.14128H15.8844C16.2021 4.33919 16.8428 3.42253 17.8011 2.39128C18.7594 1.36523 20.2282 0.849609 22.2178 0.849609C23.7021 0.849609 24.9365 1.22461 25.9261 1.97461C26.9261 2.72461 27.6605 3.69336 28.1344 4.87044C28.6032 6.05273 28.8428 7.30794 28.8428 8.64128V19.5996H25.9053V8.91211C25.9053 7.16211 25.4469 5.83919 24.5303 4.93294C23.6136 4.0319 22.4886 3.57878 21.1553 3.57878C19.7646 3.57878 18.5928 4.05273 17.6344 4.99544C16.6761 5.92773 16.1969 7.23503 16.1969 8.91211V19.5996H13.2386V8.91211C13.2386 7.16211 12.7803 5.83919 11.8636 4.93294C10.9574 4.0319 9.83236 3.57878 8.48861 3.57878C7.09798 3.57878 5.92611 4.05273 4.96777 4.99544C4.00944 5.92773 3.53027 7.23503 3.53027 8.91211V19.5996H0.592773V1.32878Z" fill="black"/>
</svg>
