<svg width="12" height="14" viewBox="0 0 12 14" fill="none" xmlns="http://www.w3.org/2000/svg">
<path d="M11.2454 12.8588H9.26628V10.5879H9.14128C8.81836 11.2858 8.32878 11.8744 7.66211 12.3588C7.00586 12.8327 6.20898 13.0671 5.26628 13.0671C4.26628 13.0671 3.43294 12.8275 2.76628 12.3379C2.09961 11.8536 1.61003 11.2286 1.30794 10.4629C1.00065 9.68689 0.849609 8.84835 0.849609 7.9421V0.921265H2.78711V7.6921C2.78711 8.85876 3.07878 9.7546 3.66211 10.3796C4.25586 11.0046 5.03711 11.3171 5.99544 11.3171C6.97982 11.3171 7.77148 10.9838 8.37044 10.3171C8.96419 9.64002 9.26628 8.76502 9.26628 7.6921V0.921265H11.2454V12.8588Z" fill="black"/>
</svg>
