<svg width="16" height="24" viewBox="0 0 16 24" fill="none" xmlns="http://www.w3.org/2000/svg">
<path d="M7.7137 19.5755C7.36475 20.3776 7.03662 21.0443 6.73454 21.5755C6.42725 22.1015 5.92204 22.5963 5.2137 23.0547C4.50537 23.5234 3.5887 23.763 2.4637 23.763C1.86475 23.763 1.22412 23.6797 0.547038 23.513V21.4713C1.05746 21.5547 1.50537 21.5963 1.88037 21.5963C2.5887 21.5963 3.1512 21.4557 3.56787 21.1797C3.99495 20.914 4.3387 20.5651 4.5887 20.138C4.8387 19.7213 5.13037 19.1068 5.4637 18.3047L6.23454 16.4088L0.00537109 0.388H2.88037L7.5887 13.3672H7.7762L12.6929 0.388H15.5887L7.7137 19.5755Z" fill="black"/>
</svg>
