<svg width="17" height="25" viewBox="0 0 17 25" fill="none" xmlns="http://www.w3.org/2000/svg">
<path d="M9.13835 18.4714C7.66439 18.4714 6.45605 18.112 5.51335 17.388C4.58105 16.6536 3.8571 15.7839 3.34668 14.7839H3.11751V24.7422H0.34668V1.38802H3.11751V4.51302H3.34668C3.81543 3.52865 4.51335 2.6901 5.43001 1.99219C6.34668 1.28385 7.5446 0.929688 9.03418 0.929688C10.5602 0.929688 11.8571 1.3151 12.93 2.07552C14.0133 2.82552 14.8311 3.86719 15.3883 5.20052C15.9404 6.53385 16.2217 8.03385 16.2217 9.70052C16.2217 11.3672 15.9404 12.862 15.3883 14.1797C14.8311 15.5026 14.0186 16.5495 12.9508 17.3255C11.8779 18.0911 10.6071 18.4714 9.13835 18.4714ZM8.28418 16.0964C9.93522 16.0964 11.1904 15.4922 12.055 14.2839C12.93 13.0651 13.3675 11.5339 13.3675 9.70052C13.3675 7.88281 12.9352 6.36719 12.0758 5.15885C11.2269 3.9401 9.96126 3.32552 8.28418 3.32552C6.61751 3.32552 5.34668 3.9401 4.47168 5.15885C3.6071 6.36719 3.18001 7.88281 3.18001 9.70052C3.18001 11.5078 3.61751 13.0286 4.49251 14.263C5.36751 15.487 6.62793 16.0964 8.28418 16.0964Z" fill="black"/>
</svg>
