<svg width="3" height="13" viewBox="0 0 3 13" fill="none" xmlns="http://www.w3.org/2000/svg">
<path d="M1.375 12.0254C1 12.0254 0.6875 11.89 0.4375 11.6296C0.1875 11.3691 0.0625 11.0462 0.0625 10.6712C0.0625 10.3118 0.1875 10.0046 0.4375 9.75456C0.6875 9.50456 1 9.37956 1.375 9.37956C1.75 9.37956 2.0625 9.50456 2.3125 9.75456C2.5625 10.0046 2.6875 10.3118 2.6875 10.6712C2.6875 11.0462 2.55208 11.3691 2.29167 11.6296C2.04167 11.89 1.73437 12.0254 1.375 12.0254ZM1.375 2.67122C1 2.67122 0.6875 2.54102 0.4375 2.27539C0.1875 2.01497 0.0625 1.69206 0.0625 1.31706C0.0625 0.957683 0.1875 0.650391 0.4375 0.400391C0.6875 0.150391 1 0.0253906 1.375 0.0253906C1.75 0.0253906 2.0625 0.150391 2.3125 0.400391C2.5625 0.650391 2.6875 0.957683 2.6875 1.31706C2.6875 1.69206 2.55208 2.01497 2.29167 2.27539C2.04167 2.54102 1.73437 2.67122 1.375 2.67122Z" fill="black"/>
</svg>
