<svg width="20" height="66" viewBox="0 0 20 66" fill="none" xmlns="http://www.w3.org/2000/svg">
<path d="M1.45931 41.5994L0.45931 0.724365H18.9593L17.9593 41.5994H1.45931ZM0.000976562 55.9327C0.000976562 53.214 0.922851 50.964 2.77181 49.1827C4.61556 47.391 6.92806 46.4952 9.70931 46.4952C12.5426 46.4952 14.8656 47.391 16.6885 49.1827C18.5062 50.964 19.4176 53.214 19.4176 55.9327C19.4176 58.6567 18.5062 60.9119 16.6885 62.7035C14.8656 64.4796 12.5426 65.3702 9.70931 65.3702C6.92806 65.3702 4.61556 64.4796 2.77181 62.7035C0.922851 60.9119 0.000976562 58.6567 0.000976562 55.9327Z" fill="#690061"/>
</svg>
