<svg width="29" height="27" viewBox="0 0 29 27" fill="none" xmlns="http://www.w3.org/2000/svg">
<path d="M14.382 26.4398C11.6841 26.4398 9.30387 25.8981 7.23617 24.8148C5.17887 23.7314 3.5695 22.2262 2.40283 20.2939C1.23617 18.3669 0.652832 16.1273 0.652832 13.5856C0.652832 11.0596 1.23617 8.83561 2.40283 6.91895C3.5695 5.00228 5.18408 3.50228 7.257 2.41895C9.34033 1.33561 11.7257 0.793945 14.4237 0.793945C17.3247 0.793945 19.8247 1.41374 21.9237 2.64811C24.0174 3.88769 25.6112 5.62728 26.6945 7.87728C27.7778 10.1273 28.2414 12.7679 28.0903 15.7939H9.382C9.71533 17.1169 10.3507 18.1169 11.2987 18.7939C12.2414 19.4606 13.3247 19.7939 14.5487 19.7939C15.507 19.7939 16.382 19.6273 17.1737 19.2939C17.9653 18.9502 18.6007 18.4814 19.0903 17.8981H27.632C26.5591 20.596 24.8664 22.6898 22.5487 24.1898C20.2414 25.6898 17.5174 26.4398 14.382 26.4398ZM9.42367 11.0231H19.6945C19.3299 9.89811 18.7153 9.0179 17.8403 8.37728C16.9653 7.72624 15.8507 7.39811 14.507 7.39811C13.283 7.39811 12.2205 7.71061 11.3195 8.33561C10.4132 8.96061 9.78304 9.85645 9.42367 11.0231Z" fill="#690061"/>
</svg>
