<svg width="18" height="24" viewBox="0 0 18 24" fill="none" xmlns="http://www.w3.org/2000/svg">
<path d="M8.86849 23.7554C7.04557 23.7554 5.47266 23.396 4.13932 22.672C2.80599 21.9533 1.78516 21.021 1.07682 19.8804C0.378906 18.745 0.0351562 17.547 0.0351562 16.297V16.0887H3.70182V16.2554C3.70182 16.9637 3.89974 17.6668 4.30599 18.3595C4.70703 19.0575 5.30599 19.6252 6.09766 20.0679C6.88932 20.5158 7.85286 20.7345 8.99349 20.7345C10.3685 20.7345 11.4987 20.4012 12.3893 19.7345C13.2904 19.0679 13.7435 18.1512 13.7435 16.9845C13.7435 16.0158 13.3893 15.245 12.681 14.672C11.9831 14.1043 11.1185 13.7345 10.0768 13.5679L7.11849 13.1304C5.26953 12.8543 3.72266 12.2293 2.47266 11.2554C1.22266 10.271 0.597656 8.8335 0.597656 6.94287C0.597656 4.87516 1.33724 3.26579 2.82682 2.10954C4.32682 0.958496 6.24349 0.380371 8.57682 0.380371C10.3112 0.380371 11.7956 0.703288 13.0352 1.3387C14.2695 1.97933 15.2122 2.81787 15.8685 3.85954C16.5195 4.9012 16.8477 6.03662 16.8477 7.25537V7.42204H13.181V7.3387C13.181 6.771 13.0247 6.17204 12.7227 5.54704C12.431 4.92204 11.931 4.38037 11.2227 3.92204C10.5143 3.4637 9.60286 3.23454 8.49349 3.23454C7.12891 3.23454 6.03516 3.57829 5.20182 4.25537C4.37891 4.92204 3.97266 5.79183 3.97266 6.85954C3.97266 7.75016 4.29557 8.47933 4.95182 9.04704C5.60286 9.61996 6.43099 9.98454 7.43099 10.1512L10.6185 10.672C12.4935 10.9793 14.0664 11.6252 15.3477 12.6095C16.6393 13.5835 17.2852 15.0262 17.2852 16.9429C17.2852 18.3075 16.9154 19.5002 16.181 20.5262C15.457 21.5418 14.457 22.3335 13.181 22.9012C11.8997 23.4689 10.4622 23.7554 8.86849 23.7554Z" fill="#690061"/>
</svg>
