<svg width="18" height="26" viewBox="0 0 18 26" fill="none" xmlns="http://www.w3.org/2000/svg">
<path d="M9.11613 25.5142C7.24113 25.5142 5.63696 25.134 4.30363 24.3683C2.98071 23.5923 1.99113 22.5923 1.32446 21.3683C0.657796 20.134 0.324463 18.8475 0.324463 17.5142V17.3475H3.61613V17.5142C3.61613 18.3215 3.80363 19.134 4.17863 19.9517C4.56405 20.759 5.16821 21.4308 5.99113 21.9725C6.82446 22.5142 7.89217 22.785 9.19946 22.785C10.7099 22.785 11.9599 22.3996 12.9495 21.6183C13.9495 20.8267 14.4495 19.759 14.4495 18.41C14.4495 17.3006 14.0849 16.4204 13.3661 15.7642C12.6422 15.0975 11.7099 14.6548 10.5745 14.4308L7.0328 13.7642C2.95988 12.8631 0.92863 10.7225 0.92863 7.34749C0.92863 5.97249 1.26196 4.76416 1.92863 3.72249C2.60571 2.68083 3.538 1.87874 4.7203 1.30583C5.913 0.738119 7.30363 0.45166 8.88696 0.45166C10.663 0.45166 12.1838 0.816244 13.4495 1.53499C14.7255 2.24333 15.6838 3.17562 16.3245 4.32666C16.9755 5.46729 17.3036 6.64958 17.3036 7.86833V8.01416H14.012V7.90999C14.012 7.21729 13.8453 6.50895 13.512 5.78499C13.1786 5.05062 12.6213 4.42041 11.8453 3.88916C11.064 3.36312 10.0432 3.09749 8.7828 3.09749C7.32446 3.09749 6.1578 3.50374 5.2828 4.30583C4.41821 5.11312 3.99113 6.11833 3.99113 7.32666C3.99113 8.34229 4.32446 9.17562 4.99113 9.82666C5.6578 10.4673 6.57446 10.9048 7.74113 11.1392L10.9286 11.7642C15.387 12.6704 17.6161 14.8475 17.6161 18.3058C17.6161 19.7225 17.262 20.9725 16.5536 22.0558C15.8453 23.1392 14.8453 23.9881 13.5536 24.5975C12.262 25.2121 10.7828 25.5142 9.11613 25.5142Z" fill="black"/>
</svg>
