<svg width="12" height="14" viewBox="0 0 12 14" fill="none" xmlns="http://www.w3.org/2000/svg">
<path d="M5.02865 13.0254C3.95573 13.0254 3.04948 12.7546 2.29948 12.2129C1.5599 11.6608 0.992187 10.916 0.591146 9.98372C0.200521 9.04102 0.0078125 7.98372 0.0078125 6.81706C0.0078125 5.63997 0.205729 4.57747 0.611979 3.62956C1.01302 2.68685 1.59635 1.94206 2.36198 1.40039C3.1224 0.858724 4.03385 0.587891 5.09115 0.587891C6.14323 0.587891 6.9974 0.837891 7.65365 1.33789C8.30469 1.83789 8.79948 2.43685 9.13281 3.12956H9.27865V0.921224H11.2578V12.8587H9.27865V10.4004H9.13281C8.75781 11.1243 8.23698 11.7441 7.57031 12.2546C6.91406 12.7702 6.07031 13.0254 5.02865 13.0254ZM5.63281 11.3379C6.79948 11.3379 7.6849 10.9108 8.29948 10.0462C8.92448 9.17122 9.23698 8.09831 9.23698 6.81706C9.23698 5.52539 8.92448 4.45247 8.29948 3.58789C7.6849 2.71289 6.79948 2.27539 5.63281 2.27539C4.4349 2.27539 3.53385 2.70768 2.92448 3.56706C2.3099 4.43164 2.00781 5.49935 2.00781 6.77539C2.00781 8.08268 2.3099 9.17122 2.92448 10.0462C3.53385 10.9108 4.4349 11.3379 5.63281 11.3379Z" fill="black"/>
</svg>
