<svg width="17" height="19" viewBox="0 0 17 19" fill="none" xmlns="http://www.w3.org/2000/svg">
<path d="M7.68783 18.4714C6.18783 18.4714 4.90658 18.0911 3.85449 17.3255C2.7972 16.5495 1.98991 15.5026 1.43783 14.1797C0.880534 12.862 0.604492 11.3672 0.604492 9.70052C0.604492 8.03385 0.885743 6.53385 1.45866 5.20052C2.02637 3.86719 2.84408 2.82552 3.91699 2.07552C5.00033 1.3151 6.28158 0.929688 7.77116 0.929688C9.27116 0.929688 10.4795 1.28385 11.3962 1.99219C12.3128 2.6901 13.0055 3.52865 13.4795 4.51302H13.6878V1.38802H16.4795V18.2422H13.6878V14.7839H13.4795C12.9639 15.7839 12.2347 16.6536 11.292 17.388C10.3597 18.112 9.15658 18.4714 7.68783 18.4714ZM8.54199 16.0964C10.1774 16.0964 11.4378 15.487 12.3128 14.263C13.1878 13.0286 13.6253 11.5078 13.6253 9.70052C13.6253 7.88281 13.1878 6.36198 12.3128 5.13802C11.4378 3.91927 10.1774 3.30469 8.54199 3.30469C6.8597 3.30469 5.58366 3.91927 4.70866 5.13802C3.84408 6.34635 3.41699 7.85677 3.41699 9.65885C3.41699 11.4922 3.84408 13.0286 4.70866 14.263C5.58366 15.487 6.8597 16.0964 8.54199 16.0964Z" fill="black"/>
</svg>
