<svg width="22" height="24" viewBox="0 0 22 24" fill="none" xmlns="http://www.w3.org/2000/svg">
<path d="M11.0649 23.4159C8.75765 23.4159 6.81494 22.869 5.23161 21.77C3.65869 20.6607 2.48682 19.2075 1.71077 17.4159C0.945149 15.6242 0.564941 13.7284 0.564941 11.7284C0.564941 9.71796 0.945149 7.82212 1.71077 6.04087C2.48682 4.26483 3.66911 2.82733 5.25244 1.72837C6.84619 0.618999 8.79932 0.0617065 11.1066 0.0617065C14.117 0.0617065 16.5285 1.07212 18.3358 3.08254C20.1379 5.09817 21.0441 7.994 21.0441 11.77V12.8117H4.23161V13.1034C4.23161 14.3534 4.51286 15.5357 5.08577 16.645C5.65348 17.7596 6.45036 18.6555 7.48161 19.3325C8.50765 20.0148 9.68994 20.3534 11.0233 20.3534C12.466 20.3534 13.716 19.9888 14.7733 19.2492C15.8254 18.5148 16.6118 17.5148 17.1274 16.2492H20.7524C20.1535 18.3065 19.0337 20.0148 17.3983 21.3742C15.7576 22.7388 13.6483 23.4159 11.0649 23.4159ZM17.4191 10.2075C17.3045 7.65546 16.6795 5.8065 15.5441 4.66587C14.4035 3.53046 12.9087 2.95754 11.0649 2.95754C9.04932 2.95754 7.44515 3.62421 6.25244 4.95754C5.05453 6.29087 4.41911 8.04087 4.33577 10.2075H17.4191Z" fill="black"/>
</svg>
