<svg width="17" height="19" viewBox="0 0 17 19" fill="none" xmlns="http://www.w3.org/2000/svg">
<path d="M8.05941 18.4714C6.55941 18.4714 5.27816 18.0911 4.22607 17.3255C3.16878 16.5495 2.36149 15.5026 1.80941 14.1797C1.25212 12.862 0.976074 11.3672 0.976074 9.70052C0.976074 8.03385 1.25732 6.53385 1.83024 5.20052C2.39795 3.86719 3.21566 2.82552 4.28857 2.07552C5.37191 1.3151 6.65316 0.929688 8.14274 0.929688C9.64274 0.929688 10.8511 1.28385 11.7677 1.99219C12.6844 2.6901 13.3771 3.52865 13.8511 4.51302H14.0594V1.38802H16.8511V18.2422H14.0594V14.7839H13.8511C13.3354 15.7839 12.6063 16.6536 11.6636 17.388C10.7313 18.112 9.52816 18.4714 8.05941 18.4714ZM8.91357 16.0964C10.549 16.0964 11.8094 15.487 12.6844 14.263C13.5594 13.0286 13.9969 11.5078 13.9969 9.70052C13.9969 7.88281 13.5594 6.36198 12.6844 5.13802C11.8094 3.91927 10.549 3.30469 8.91357 3.30469C7.23128 3.30469 5.95524 3.91927 5.08024 5.13802C4.21566 6.34635 3.78857 7.85677 3.78857 9.65885C3.78857 11.4922 4.21566 13.0286 5.08024 14.263C5.95524 15.487 7.23128 16.0964 8.91357 16.0964Z" fill="black"/>
</svg>
