<svg width="11" height="15" viewBox="0 0 11 15" fill="none" xmlns="http://www.w3.org/2000/svg">
<path d="M5.94287 14.0783C4.86995 14.0783 3.94287 13.8804 3.1512 13.495C2.36995 13.0939 1.7762 12.5679 1.35954 11.9116C0.953287 11.2606 0.755371 10.5783 0.755371 9.86996V9.70329H4.38037V9.82829C4.38037 10.2033 4.5262 10.5314 4.81787 10.8075C5.10954 11.0887 5.51579 11.2241 6.04704 11.2241C6.48975 11.2241 6.84391 11.12 7.10954 10.9116C7.38558 10.6929 7.5262 10.4064 7.5262 10.0575C7.5262 9.73975 7.39079 9.48454 7.13037 9.28662C6.88037 9.09391 6.56787 8.96891 6.19287 8.91162L4.81787 8.61995C3.88558 8.45329 3.0262 8.07829 2.23454 7.49495C1.45329 6.91162 1.06787 6.01579 1.06787 4.80745C1.06787 3.57308 1.51058 2.61475 2.4012 1.93245C3.28662 1.25537 4.43246 0.911621 5.8387 0.911621C6.86475 0.911621 7.75537 1.09912 8.50537 1.47412C9.26579 1.8387 9.83871 2.31787 10.2137 2.91162C10.5991 3.51058 10.797 4.15121 10.797 4.82829V4.93245H7.17204V4.86995C7.17204 4.55225 7.04704 4.26058 6.79704 3.99495C6.55746 3.71891 6.19808 3.57829 5.7137 3.57829C5.29704 3.57829 4.9637 3.68245 4.7137 3.89079C4.4637 4.0887 4.3387 4.35954 4.3387 4.70329C4.3387 5.32829 4.85954 5.73975 5.9012 5.93245L7.38037 6.26579C8.39079 6.48975 9.24495 6.90121 9.94287 7.49495C10.6356 8.07829 10.9845 8.92204 10.9845 10.0158C10.9845 10.8387 10.7606 11.5575 10.3179 12.1825C9.88558 12.797 9.28141 13.2658 8.50537 13.5991C7.73975 13.9168 6.88558 14.0783 5.94287 14.0783Z" fill="black"/>
</svg>
