<svg width="28" height="27" viewBox="0 0 28 27" fill="none" xmlns="http://www.w3.org/2000/svg">
<path d="M14.2715 26.0738C11.5736 26.0738 9.1934 25.5321 7.12569 24.4488C5.0684 23.3655 3.45903 21.8603 2.29236 19.928C1.12569 18.0009 0.542358 15.7613 0.542358 13.2196C0.542358 10.6936 1.12569 8.46965 2.29236 6.55298C3.45903 4.63631 5.07361 3.13631 7.14653 2.05298C9.22986 0.969645 11.6153 0.427979 14.3132 0.427979C17.2142 0.427979 19.7142 1.04777 21.8132 2.28215C23.9069 3.52173 25.5007 5.26131 26.584 7.51131C27.6674 9.76131 28.1309 12.4019 27.9799 15.428H9.27153C9.60486 16.7509 10.2403 17.7509 11.1882 18.428C12.1309 19.0946 13.2142 19.428 14.4382 19.428C15.3965 19.428 16.2715 19.2613 17.0632 18.928C17.8549 18.5842 18.4903 18.1155 18.9799 17.5321H27.5215C26.4486 20.2301 24.7559 22.3238 22.4382 23.8238C20.1309 25.3238 17.4069 26.0738 14.2715 26.0738ZM9.31319 10.6571H19.584C19.2194 9.53215 18.6049 8.65194 17.7299 8.01131C16.8549 7.36027 15.7403 7.03215 14.3965 7.03215C13.1726 7.03215 12.1101 7.34465 11.209 7.96965C10.3028 8.59465 9.67257 9.49048 9.31319 10.6571Z" fill="#690061"/>
</svg>
