<svg width="16" height="25" viewBox="0 0 16 25" fill="none" xmlns="http://www.w3.org/2000/svg">
<path d="M0.212402 0.346313H2.9624V10.4088H3.23324C3.6499 9.44006 4.3374 8.61715 5.29574 7.95048C6.26449 7.2734 7.44157 6.92965 8.81657 6.92965C10.2437 6.92965 11.4416 7.2734 12.3999 7.95048C13.3687 8.61715 14.0874 9.50256 14.5457 10.5963C15.0041 11.6953 15.2332 12.8828 15.2332 14.1588V24.2421H12.4624V14.513C12.4624 12.8463 12.0301 11.5755 11.1707 10.7005C10.3062 9.82548 9.16032 9.38798 7.73324 9.38798C6.36865 9.38798 5.23324 9.84631 4.31657 10.763C3.41032 11.6796 2.9624 12.9296 2.9624 14.513V24.2421H0.212402V0.346313Z" fill="black"/>
</svg>
