<svg width="12" height="18" viewBox="0 0 12 18" fill="none" xmlns="http://www.w3.org/2000/svg">
<path d="M5.89665 0.891479C7.2404 0.891479 8.35498 1.16231 9.22998 1.70398C10.105 2.24565 10.73 2.93315 11.105 3.76648C11.4904 4.59981 11.6883 5.48523 11.6883 6.41231C11.6883 7.32898 11.4904 8.20398 11.105 9.03731C10.73 9.86023 10.1102 10.5373 9.25081 11.079C8.38623 11.6102 7.27165 11.8706 5.89665 11.8706H2.18831V17.6831H0.16748V0.891479H5.89665ZM5.62581 10.079C6.77686 10.079 7.7404 9.80294 8.52165 9.24565C9.29769 8.69356 9.68831 7.74565 9.68831 6.41231C9.68831 5.07898 9.29769 4.13627 8.52165 3.57898C7.7404 3.0269 6.77686 2.74565 5.62581 2.74565H2.18831V10.079H5.62581Z" fill="black"/>
</svg>
