<svg width="29" height="27" viewBox="0 0 29 27" fill="none" xmlns="http://www.w3.org/2000/svg">
<path d="M14.5947 26.4398C11.7874 26.4398 9.32389 25.9033 7.19889 24.8356C5.07389 23.7679 3.41764 22.2627 2.24056 20.3148C1.05827 18.3721 0.469727 16.1273 0.469727 13.5856C0.469727 11.0596 1.05827 8.8304 2.24056 6.89811C3.41764 4.97103 5.07389 3.47103 7.19889 2.39811C9.32389 1.3304 11.7874 0.793945 14.5947 0.793945C17.4124 0.793945 19.876 1.3304 21.9906 2.39811C24.0999 3.47103 25.7406 4.97103 26.9072 6.89811C28.0843 8.8304 28.6781 11.0596 28.6781 13.5856C28.6781 16.1273 28.0843 18.3721 26.9072 20.3148C25.7406 22.2627 24.0999 23.7679 21.9906 24.8356C19.876 25.9033 17.4124 26.4398 14.5947 26.4398ZM9.09473 13.5856C9.09473 15.2106 9.61556 16.5439 10.6572 17.5856C11.6989 18.6273 13.0114 19.1481 14.5947 19.1481C16.2197 19.1481 17.5374 18.6273 18.5531 17.5856C19.5635 16.5439 20.0739 15.2106 20.0739 13.5856C20.0739 11.9762 19.5635 10.6585 18.5531 9.62728C17.5374 8.60124 16.2197 8.08561 14.5947 8.08561C13.0114 8.08561 11.6989 8.60124 10.6572 9.62728C9.61556 10.6585 9.09473 11.9762 9.09473 13.5856Z" fill="#690061"/>
</svg>
