<svg width="22" height="24" viewBox="0 0 22 24" fill="none" xmlns="http://www.w3.org/2000/svg">
<path d="M9.57812 23.4159C7.57812 23.4159 5.875 22.9107 4.47396 21.8951C3.06771 20.8691 1.99479 19.4732 1.24479 17.7076C0.505209 15.9472 0.140625 13.9524 0.140625 11.7284C0.140625 9.5201 0.515625 7.53052 1.26562 5.74927C2.02604 3.97323 3.125 2.5826 4.55729 1.5826C5.98437 0.572185 7.70312 0.0617676 9.70312 0.0617676C11.6875 0.0617676 13.2917 0.535726 14.5156 1.47843C15.7344 2.41073 16.6615 3.53052 17.2865 4.8326H17.5781V0.645101H21.3073V23.1243H17.5781V18.5201H17.2865C16.6042 19.8534 15.6406 21.0097 14.3906 21.9784C13.1406 22.9368 11.5365 23.4159 9.57812 23.4159ZM10.724 20.2701C12.901 20.2701 14.5781 19.4524 15.7448 17.8118C16.9115 16.1764 17.4948 14.1451 17.4948 11.7284C17.4948 9.31177 16.9115 7.29093 15.7448 5.66593C14.5781 4.03052 12.901 3.2076 10.724 3.2076C8.47396 3.2076 6.77083 4.0201 5.61979 5.6451C4.46354 7.25968 3.89062 9.2701 3.89062 11.6868C3.89062 14.1347 4.46354 16.1764 5.61979 17.8118C6.77083 19.4524 8.47396 20.2701 10.724 20.2701Z" fill="black"/>
</svg>
