<svg width="13" height="14" viewBox="0 0 13 14" fill="none" xmlns="http://www.w3.org/2000/svg">
<path d="M5.93831 13.0254C4.8654 13.0254 3.95915 12.7546 3.20915 12.2129C2.46956 11.6608 1.90186 10.916 1.50081 9.98372C1.11019 9.04102 0.91748 7.98372 0.91748 6.81706C0.91748 5.63997 1.1154 4.57747 1.52165 3.62956C1.92269 2.68685 2.50602 1.94206 3.27165 1.40039C4.03206 0.858724 4.94352 0.587891 6.00081 0.587891C7.0529 0.587891 7.90706 0.837891 8.56331 1.33789C9.21436 1.83789 9.70915 2.43685 10.0425 3.12956H10.1883V0.921224H12.1675V12.8587H10.1883V10.4004H10.0425C9.66748 11.1243 9.14665 11.7441 8.47998 12.2546C7.82373 12.7702 6.97998 13.0254 5.93831 13.0254ZM6.54248 11.3379C7.70915 11.3379 8.59456 10.9108 9.20915 10.0462C9.83415 9.17122 10.1466 8.09831 10.1466 6.81706C10.1466 5.52539 9.83415 4.45247 9.20915 3.58789C8.59456 2.71289 7.70915 2.27539 6.54248 2.27539C5.34456 2.27539 4.44352 2.70768 3.83415 3.56706C3.21956 4.43164 2.91748 5.49935 2.91748 6.77539C2.91748 8.08268 3.21956 9.17122 3.83415 10.0462C4.44352 10.9108 5.34456 11.3379 6.54248 11.3379Z" fill="black"/>
</svg>
