<svg width="21" height="24" viewBox="0 0 21 24" fill="none" xmlns="http://www.w3.org/2000/svg">
<path d="M10.9458 23.7554C8.63851 23.7554 6.6958 23.2085 5.11247 22.1095C3.53955 21.0002 2.36768 19.547 1.59163 17.7554C0.826009 15.9637 0.445801 14.0679 0.445801 12.0679C0.445801 10.0575 0.826009 8.16162 1.59163 6.38037C2.36768 4.60433 3.54997 3.16162 5.1333 2.04704C6.72705 0.937663 8.68018 0.380371 10.9875 0.380371C13.9979 0.380371 16.4093 1.396 18.2166 3.42204C20.0187 5.43766 20.925 8.3335 20.925 12.1095V13.1304H4.1333V13.4429C4.1333 14.6929 4.40934 15.8752 4.96663 16.9845C5.53434 18.0991 6.33122 18.995 7.36247 19.672C8.38851 20.3543 9.5708 20.6929 10.9041 20.6929C12.3625 20.6929 13.6125 20.3283 14.6541 19.5887C15.7062 18.8387 16.4927 17.8387 17.0083 16.5887H20.6333C20.0343 18.646 18.9146 20.3543 17.2791 21.7137C15.6541 23.0783 13.5396 23.7554 10.9458 23.7554ZM17.3 10.5262C17.1854 7.97412 16.5604 6.12516 15.425 4.98454C14.2843 3.84912 12.7896 3.2762 10.9458 3.2762C8.93018 3.2762 7.32601 3.95329 6.1333 5.29704C4.93538 6.63037 4.29997 8.37516 4.21663 10.5262H17.3Z" fill="#690061"/>
</svg>
