<svg width="15" height="18" viewBox="0 0 15 18" fill="none" xmlns="http://www.w3.org/2000/svg">
<path d="M7.77075 17.8498C6.19783 17.8498 4.84367 17.4852 3.70825 16.7456C2.58325 15.9956 1.71346 14.9696 1.10409 13.6623C0.505127 12.3446 0.208252 10.8498 0.208252 9.18315C0.208252 7.51648 0.505127 6.0321 1.10409 4.72481C1.71346 3.4071 2.58325 2.38106 3.70825 1.64148C4.84367 0.891479 6.19783 0.516479 7.77075 0.516479C9.65617 0.516479 11.2187 1.05294 12.4583 2.12065C13.6926 3.19356 14.5208 4.63106 14.9374 6.43315H12.8958C12.5468 5.19877 11.9218 4.2196 11.0208 3.49565C10.1301 2.76127 9.052 2.39148 7.79159 2.39148C6.052 2.39148 4.71867 3.00606 3.79159 4.22481C2.85929 5.44877 2.39575 7.0946 2.39575 9.16231C2.39575 11.2456 2.85929 12.9019 3.79159 14.1206C4.71867 15.3446 6.052 15.954 7.79159 15.954C8.99992 15.954 10.0312 15.6363 10.8958 14.9956C11.7551 14.3446 12.3749 13.4696 12.7499 12.3706H14.7916C14.3333 14.0373 13.4999 15.3706 12.2916 16.3706C11.0833 17.3602 9.57283 17.8498 7.77075 17.8498Z" fill="black"/>
</svg>
