<svg width="16" height="24" viewBox="0 0 16 24" fill="none" xmlns="http://www.w3.org/2000/svg">
<path d="M8.09823 19.3368C7.74927 20.1389 7.42114 20.8055 7.11906 21.3368C6.81177 21.8628 6.30656 22.3576 5.59823 22.816C4.88989 23.2847 3.97323 23.5243 2.84823 23.5243C2.24927 23.5243 1.60864 23.441 0.931559 23.2743V21.2326C1.44198 21.316 1.88989 21.3576 2.26489 21.3576C2.97323 21.3576 3.53573 21.217 3.95239 20.941C4.37948 20.6753 4.72323 20.3264 4.97323 19.8993C5.22323 19.4826 5.51489 18.868 5.84823 18.066L6.61906 16.1701L0.389893 0.149292H3.26489L7.97323 13.1285H8.16073L13.0774 0.149292H15.9732L8.09823 19.3368Z" fill="black"/>
</svg>
