<svg width="11" height="14" viewBox="0 0 11 14" fill="none" xmlns="http://www.w3.org/2000/svg">
<path d="M10.9647 12.8588H8.98551V10.5879H8.86051C8.5376 11.2858 8.04801 11.8744 7.38135 12.3588C6.7251 12.8327 5.92822 13.0671 4.98551 13.0671C3.98551 13.0671 3.15218 12.8275 2.48551 12.3379C1.81885 11.8536 1.32926 11.2286 1.02718 10.4629C0.719889 9.68689 0.568848 8.84835 0.568848 7.9421V0.921265H2.50635V7.6921C2.50635 8.85876 2.79801 9.7546 3.38135 10.3796C3.9751 11.0046 4.75635 11.3171 5.71468 11.3171C6.69906 11.3171 7.49072 10.9838 8.08968 10.3171C8.68343 9.64002 8.98551 8.76502 8.98551 7.6921V0.921265H10.9647V12.8588Z" fill="black"/>
</svg>
