<svg width="13" height="15" viewBox="0 0 13 15" fill="none" xmlns="http://www.w3.org/2000/svg">
<path d="M6.52816 14.0783C5.1792 14.0783 4.04899 13.7762 3.13232 13.1616C2.21566 12.5522 1.53337 11.745 1.09066 10.745C0.658366 9.74496 0.444824 8.67204 0.444824 7.51579C0.444824 6.36475 0.658366 5.28662 1.09066 4.28662C1.53337 3.28662 2.21566 2.47412 3.13232 1.84912C4.04899 1.22412 5.20003 0.911621 6.59066 0.911621C8.38232 0.911621 9.8042 1.47412 10.8615 2.59912C11.9136 3.72412 12.4448 5.36475 12.4448 7.51579V8.53662H4.02816V8.72412C4.02816 9.39079 4.25732 9.9637 4.71566 10.4325C5.17399 10.9064 5.75732 11.1408 6.46566 11.1408C7.00732 11.1408 7.46566 11.0158 7.84066 10.7658C8.22607 10.5158 8.50732 10.1825 8.67399 9.76579H12.3407C12.0177 11.0314 11.3615 12.0679 10.3615 12.87C9.36149 13.6772 8.08024 14.0783 6.52816 14.0783ZM8.86149 6.14079C8.84587 5.28141 8.62191 4.64079 8.19482 4.22412C7.77816 3.80745 7.21566 3.59912 6.50732 3.59912C5.78337 3.59912 5.20524 3.82308 4.77816 4.26579C4.36149 4.7137 4.14274 5.3387 4.13232 6.14079H8.86149Z" fill="black"/>
</svg>
