<svg width="14" height="15" viewBox="0 0 14 15" fill="none" xmlns="http://www.w3.org/2000/svg">
<path d="M7.4432 14.8706C5.98486 14.8706 4.74528 14.5269 3.73486 13.829C2.73486 13.1363 1.99007 12.2352 1.5057 11.1206C1.03174 10.0113 0.797363 8.82377 0.797363 7.55815C0.797363 6.29773 1.03174 5.11023 1.5057 3.99565C1.99007 2.88627 2.73486 1.99044 3.73486 1.30815C4.74528 0.615438 5.98486 0.266479 7.4432 0.266479C9.26091 0.266479 10.6828 0.79773 11.714 1.84981C12.7557 2.89148 13.3859 4.17794 13.6099 5.70398H11.3599C11.2036 4.66231 10.7974 3.82377 10.1307 3.18315C9.47445 2.5321 8.58903 2.20398 7.46403 2.20398C6.04736 2.20398 4.96924 2.7196 4.23486 3.74565C3.49528 4.76127 3.1307 6.0321 3.1307 7.55815C3.1307 9.0894 3.49528 10.3654 4.23486 11.3915C4.96924 12.4227 6.04736 12.9331 7.46403 12.9331C8.58903 12.9331 9.47445 12.6154 10.1307 11.9748C10.7974 11.3238 11.2036 10.4748 11.3599 9.43315H13.6099C13.3859 10.9644 12.7557 12.2561 11.714 13.3081C10.6828 14.3498 9.26091 14.8706 7.4432 14.8706Z" fill="black"/>
</svg>
