<svg width="11" height="15" viewBox="0 0 11 15" fill="none" xmlns="http://www.w3.org/2000/svg">
<path d="M5.64242 14.4773C4.80908 14.4773 4.04346 14.3731 3.35075 14.1648C2.65283 13.946 2.06429 13.6439 1.57992 13.2689C1.09033 12.8835 0.75179 12.4512 0.559082 11.9773L1.68408 10.7898H1.93408C2.36117 11.4304 2.87679 11.9148 3.47575 12.2481C4.08512 12.5814 4.80908 12.7481 5.64242 12.7481C6.60075 12.7481 7.32992 12.5606 7.82992 12.1856C8.34033 11.8106 8.60075 11.2845 8.60075 10.6023C8.60075 10.0918 8.4445 9.66475 8.14242 9.33142C7.83512 8.99809 7.34033 8.74809 6.66325 8.58142L4.45492 8.03975C3.27262 7.74809 2.41325 7.30017 1.87158 6.68559C1.32992 6.06059 1.05908 5.30017 1.05908 4.39392C1.05908 3.67517 1.23617 3.05538 1.60075 2.53975C1.96012 2.01371 2.48096 1.61267 3.16325 1.33142C3.85596 1.03975 4.66846 0.893921 5.60075 0.893921C6.80908 0.893921 7.757 1.06059 8.45492 1.39392C9.14762 1.72725 9.68929 2.196 10.0799 2.78975L8.97575 3.87309H8.74658C8.32992 3.38871 7.87158 3.03975 7.37158 2.83142C6.87158 2.61267 6.27783 2.49809 5.60075 2.49809C4.73617 2.49809 4.07992 2.65434 3.62158 2.95642C3.16325 3.26371 2.93408 3.71684 2.93408 4.31059C2.93408 4.84184 3.09033 5.26892 3.41325 5.60225C3.74658 5.92517 4.31429 6.18038 5.12158 6.37309L7.28825 6.89392C8.42367 7.15955 9.24658 7.60225 9.74658 8.22725C10.257 8.85225 10.5174 9.63871 10.5174 10.5814C10.5174 11.347 10.3351 12.0293 9.97575 12.6231C9.61117 13.2064 9.06429 13.6648 8.32992 13.9981C7.59033 14.3158 6.6945 14.4773 5.64242 14.4773Z" fill="black"/>
</svg>
