<svg width="17" height="19" viewBox="0 0 17 19" fill="none" xmlns="http://www.w3.org/2000/svg">
<path d="M7.5057 18.4714C6.0057 18.4714 4.72445 18.0911 3.67236 17.3255C2.61507 16.5495 1.80778 15.5026 1.2557 14.1797C0.698405 12.862 0.422363 11.3672 0.422363 9.70052C0.422363 8.03385 0.703614 6.53385 1.27653 5.20052C1.84424 3.86719 2.66195 2.82552 3.73486 2.07552C4.8182 1.3151 6.09945 0.929688 7.58903 0.929688C9.08903 0.929688 10.2974 1.28385 11.214 1.99219C12.1307 2.6901 12.8234 3.52865 13.2974 4.51302H13.5057V1.38802H16.2974V18.2422H13.5057V14.7839H13.2974C12.7817 15.7839 12.0526 16.6536 11.1099 17.388C10.1776 18.112 8.97445 18.4714 7.5057 18.4714ZM8.35986 16.0964C9.99528 16.0964 11.2557 15.487 12.1307 14.263C13.0057 13.0286 13.4432 11.5078 13.4432 9.70052C13.4432 7.88281 13.0057 6.36198 12.1307 5.13802C11.2557 3.91927 9.99528 3.30469 8.35986 3.30469C6.67757 3.30469 5.40153 3.91927 4.52653 5.13802C3.66195 6.34635 3.23486 7.85677 3.23486 9.65885C3.23486 11.4922 3.66195 13.0286 4.52653 14.263C5.40153 15.487 6.67757 16.0964 8.35986 16.0964Z" fill="black"/>
</svg>
