<svg width="12" height="25" viewBox="0 0 12 25" fill="none" xmlns="http://www.w3.org/2000/svg">
<path d="M6.89404 8.72445V19.3286C6.89404 20.1932 6.93571 20.8234 7.01904 21.2244C7.10238 21.6307 7.32113 21.9484 7.68571 22.1828C8.04508 22.4067 8.62842 22.5161 9.43571 22.5161C9.98779 22.5161 10.5868 22.4432 11.2274 22.2869V24.4328C11.0711 24.5057 10.7274 24.5734 10.1857 24.6411C9.64404 24.7088 9.08154 24.7453 8.49821 24.7453C7.14925 24.7453 6.14925 24.5578 5.49821 24.1828C4.84196 23.7974 4.41488 23.2765 4.20654 22.6203C4.00863 21.9536 3.91488 21.0786 3.91488 19.9953V8.72445H0.519043V6.32861H3.91488V0.328613H6.89404V6.32861H11.2274V8.72445H6.89404Z" fill="black"/>
</svg>
