<svg width="12" height="18" viewBox="0 0 12 18" fill="none" xmlns="http://www.w3.org/2000/svg">
<path d="M0.612305 0.921265H2.5498V8.0671H2.7373C3.03939 7.37439 3.53418 6.79106 4.21647 6.3171C4.89356 5.83272 5.72168 5.58793 6.69564 5.58793C7.70605 5.58793 8.55501 5.83272 9.2373 6.3171C9.91439 6.79106 10.4144 7.41606 10.7373 8.1921C11.0706 8.97335 11.2373 9.81189 11.2373 10.7129V17.8588H9.27897V10.9629C9.27897 9.78585 8.97168 8.89002 8.3623 8.27543C7.74772 7.65043 6.93522 7.33793 5.9248 7.33793C4.96647 7.33793 4.15918 7.66606 3.50814 8.3171C2.86751 8.97335 2.5498 9.85356 2.5498 10.9629V17.8588H0.612305V0.921265Z" fill="black"/>
</svg>
