<svg width="23" height="34" viewBox="0 0 23 34" fill="none" xmlns="http://www.w3.org/2000/svg">
<path d="M12.0685 33.1242C11.2039 33.1242 10.5112 33.0669 9.98519 32.9575C9.45394 32.8429 8.9279 32.6867 8.40186 32.4784V29.4159C8.76123 29.5252 9.25602 29.6294 9.88102 29.7284C10.506 29.8221 11.1154 29.8742 11.7144 29.8742C13.9331 29.8742 15.6102 29.2492 16.7352 27.9992C17.8602 26.7492 18.4227 25.0877 18.4227 23.02V18.9575H18.0685C17.4696 20.3065 16.5112 21.4471 15.1935 22.3742C13.8706 23.2909 12.2769 23.7492 10.4019 23.7492C8.52686 23.7492 6.87061 23.2648 5.44352 22.2909C4.02686 21.3221 2.92269 19.9784 2.13102 18.27C1.34977 16.5513 0.964355 14.5773 0.964355 12.3534C0.964355 10.1346 1.34977 8.16585 2.13102 6.45752C2.92269 4.73877 4.02686 3.38981 5.44352 2.41585C6.87061 1.4471 8.52686 0.95752 10.4019 0.95752C12.3602 0.95752 13.9956 1.46794 15.3185 2.47835C16.6362 3.49398 17.5685 4.66585 18.1102 5.99919H18.4227V1.68669H22.131V23.02C22.131 24.6034 21.8081 26.1554 21.1727 27.6867C20.5321 29.2284 19.4539 30.52 17.9435 31.5617C16.4435 32.6034 14.4852 33.1242 12.0685 33.1242ZM11.5894 20.5825C13.0321 20.5825 14.2664 20.1971 15.2977 19.4159C16.3237 18.6398 17.0894 17.619 17.5894 16.3534C18.0894 15.0773 18.3394 13.7179 18.3394 12.27C18.3394 10.8534 18.0894 9.53565 17.5894 8.31169C17.0894 7.09294 16.3289 6.09815 15.3185 5.33252C14.3185 4.55648 13.0737 4.16585 11.5894 4.16585C9.39144 4.16585 7.71956 4.95752 6.56852 6.54085C5.4279 8.11377 4.86019 10.02 4.86019 12.27C4.86019 13.744 5.09977 15.119 5.58936 16.395C6.08936 17.6606 6.84456 18.6763 7.86019 19.4367C8.87061 20.2023 10.1154 20.5825 11.5894 20.5825Z" fill="black"/>
</svg>
