<svg width="18" height="20" viewBox="0 0 18 20" fill="none" xmlns="http://www.w3.org/2000/svg">
<path d="M7.96855 19.8496C6.34355 19.8496 4.95813 19.4329 3.82271 18.5996C2.68209 17.7663 1.80709 16.6361 1.19771 15.2038C0.598755 13.7767 0.30188 12.1569 0.30188 10.3496C0.30188 8.54753 0.603963 6.92253 1.21855 5.47461C1.82792 4.0319 2.71855 2.90169 3.88521 2.07878C5.05188 1.26107 6.44771 0.849609 8.07271 0.849609C9.68209 0.849609 10.9894 1.23503 11.9894 1.99544C12.9894 2.76107 13.7394 3.67253 14.2394 4.72461H14.4894V1.32878H17.5102V19.5996H14.4894V15.8496H14.2394C13.6821 16.9329 12.8956 17.8704 11.8852 18.6621C10.8696 19.4538 9.5623 19.8496 7.96855 19.8496ZM8.90605 17.2871C10.6821 17.2871 12.0415 16.6204 12.9894 15.2871C13.9321 13.9538 14.406 12.3079 14.406 10.3496C14.406 8.38086 13.9321 6.73503 12.9894 5.41211C12.0415 4.07878 10.6821 3.41211 8.90605 3.41211C7.07271 3.41211 5.6873 4.07357 4.76021 5.39128C3.82792 6.71419 3.36438 8.34961 3.36438 10.3079C3.36438 12.2975 3.82792 13.9538 4.76021 15.2871C5.6873 16.6204 7.07271 17.2871 8.90605 17.2871Z" fill="black"/>
</svg>
