<svg width="17" height="25" viewBox="0 0 17 25" fill="none" xmlns="http://www.w3.org/2000/svg">
<path d="M9.26937 24.9922C8.62874 24.9922 8.10791 24.9505 7.70687 24.8672C7.31624 24.7839 6.92041 24.6641 6.51937 24.513V22.2005C6.79541 22.2943 7.1652 22.3776 7.62354 22.4505C8.09229 22.5182 8.55062 22.5547 8.99854 22.5547C10.6652 22.5547 11.9204 22.0807 12.7694 21.138C13.6131 20.2057 14.0402 18.9609 14.0402 17.4089V14.3672H13.7694C13.3215 15.3672 12.6027 16.2161 11.6027 16.9089C10.6131 17.6068 9.42041 17.9505 8.01937 17.9505C6.6027 17.9505 5.35791 17.5911 4.2902 16.8672C3.23291 16.1484 2.40478 15.138 1.81104 13.8464C1.2277 12.5547 0.936035 11.0755 0.936035 9.40885C0.936035 7.74219 1.2277 6.26302 1.81104 4.97135C2.40478 3.67969 3.23291 2.67448 4.2902 1.95052C5.35791 1.23177 6.6027 0.867188 8.01937 0.867188C9.48812 0.867188 10.7173 1.2526 11.7069 2.01302C12.7069 2.76302 13.4048 3.63802 13.811 4.63802H14.0402V1.40885H16.811V17.4089C16.811 18.6016 16.5662 19.7734 16.0819 20.9297C15.6079 22.0807 14.8006 23.0443 13.6652 23.8255C12.5402 24.6016 11.0715 24.9922 9.26937 24.9922ZM8.9152 15.5964C9.99854 15.5964 10.9204 15.3047 11.686 14.7214C12.4621 14.1276 13.0298 13.3568 13.3944 12.4089C13.7694 11.4505 13.9569 10.4297 13.9569 9.34635C13.9569 8.27865 13.7694 7.28385 13.3944 6.36719C13.0298 5.45052 12.4673 4.71094 11.7069 4.13802C10.9569 3.55469 10.0246 3.26302 8.9152 3.26302C7.27458 3.26302 6.01937 3.86198 5.14437 5.05469C4.27978 6.23698 3.8527 7.66927 3.8527 9.34635C3.8527 10.4609 4.0402 11.4922 4.4152 12.4505C4.7902 13.3984 5.3527 14.1589 6.1027 14.7422C6.86312 15.3151 7.80062 15.5964 8.9152 15.5964Z" fill="black"/>
</svg>
