<svg width="8" height="17" viewBox="0 0 8 17" fill="none" xmlns="http://www.w3.org/2000/svg">
<path d="M4.78923 6.48376V13.4213C4.78923 13.9786 4.81527 14.39 4.87256 14.6504C4.92464 14.9161 5.06527 15.1244 5.28923 15.2754C5.5236 15.4317 5.90381 15.5046 6.43506 15.5046C6.81006 15.5046 7.20589 15.4525 7.62256 15.3379V16.7546C7.50798 16.7963 7.2736 16.8379 6.91423 16.8796C6.56527 16.9213 6.20589 16.9421 5.83089 16.9421C4.95589 16.9421 4.29964 16.8171 3.87256 16.5671C3.44027 16.3171 3.15381 15.9786 3.01839 15.5463C2.89339 15.1192 2.83089 14.5463 2.83089 13.8379V6.48376H0.622559V4.92126H2.83089V0.983765H4.78923V4.92126H7.62256V6.48376H4.78923Z" fill="black"/>
</svg>
