<svg width="31" height="32" viewBox="0 0 31 32" fill="none" xmlns="http://www.w3.org/2000/svg">
<path d="M11.341 31.3629C7.96598 31.3629 5.26807 30.5296 3.25765 28.8629C1.24202 27.1962 0.236816 24.941 0.236816 22.0921C0.236816 19.3837 1.13265 17.2119 2.92432 15.5712C4.71598 13.9202 7.13265 13.0921 10.1743 13.0921H20.0493V11.4254C20.0493 10.4671 19.6327 9.67542 18.7993 9.05042C17.966 8.415 16.9556 8.09208 15.7785 8.09208C14.7056 8.09208 13.7889 8.36292 13.0285 8.90458C12.2629 9.44625 11.8097 10.1442 11.6743 10.9879H1.67432C2.11702 7.58687 3.5389 4.98792 5.94515 3.19625C8.34619 1.39417 11.6014 0.487915 15.716 0.487915C20.4504 0.487915 24.0806 1.62854 26.6118 3.90458C29.1535 6.18583 30.4243 9.415 30.4243 13.5921V30.6962H22.7785L21.6118 27.4671C19.0129 30.066 15.591 31.3629 11.341 31.3629ZM10.6743 21.5921C10.6743 22.415 11.0181 23.0712 11.716 23.5712C12.4243 24.0712 13.3462 24.3212 14.4868 24.3212C16.1222 24.3212 17.4764 23.8212 18.5493 22.8212C19.617 21.8212 20.1535 20.5244 20.1535 18.9254H14.3827C13.242 18.9254 12.341 19.165 11.6743 19.6337C11.0077 20.0921 10.6743 20.7483 10.6743 21.5921Z" fill="#690061"/>
</svg>
