<svg width="22" height="32" viewBox="0 0 22 32" fill="none" xmlns="http://www.w3.org/2000/svg">
<path d="M12.5304 23.4159C10.5721 23.4159 8.96794 22.9367 7.71794 21.9784C6.46794 21.0096 5.49919 19.8534 4.8221 18.52H4.53044V31.7909H0.80127V0.64504H4.53044V4.83254H4.8221C5.4471 3.53046 6.36898 2.41067 7.59294 1.47837C8.81169 0.535665 10.4159 0.0617065 12.4054 0.0617065C14.4315 0.0617065 16.1606 0.572124 17.5929 1.58254C19.02 2.58254 20.1034 3.97317 20.8429 5.74921C21.5929 7.53046 21.9679 9.52004 21.9679 11.7284C21.9679 13.9523 21.5929 15.9471 20.8429 17.7075C20.1034 19.4732 19.0304 20.869 17.6138 21.895C16.1971 22.9107 14.4992 23.4159 12.5304 23.4159ZM11.3846 20.27C13.6034 20.27 15.2909 19.4575 16.4471 17.8325C17.5981 16.2075 18.1763 14.1763 18.1763 11.7284C18.1763 9.31171 17.6034 7.30129 16.4679 5.68671C15.3273 4.06171 13.6346 3.24921 11.3846 3.24921C9.16064 3.24921 7.47314 4.06171 6.3221 5.68671C5.18148 7.30129 4.61377 9.31171 4.61377 11.7284C4.61377 14.145 5.1971 16.1763 6.36377 17.8117C7.53044 19.4523 9.20231 20.27 11.3846 20.27Z" fill="black"/>
</svg>
