<svg width="16" height="18" viewBox="0 0 16 18" fill="none" xmlns="http://www.w3.org/2000/svg">
<path d="M15.4634 17.2422H12.6925V14.0339H12.4842C12.0363 15.0235 11.3488 15.8568 10.4217 16.5339C9.48942 17.2006 8.35921 17.5339 7.02588 17.5339C5.60921 17.5339 4.42692 17.1954 3.48421 16.5131C2.55192 15.836 1.86442 14.9506 1.42171 13.8672C0.98942 12.7735 0.775879 11.586 0.775879 10.3047V0.388062H3.52588V9.95056C3.52588 11.5912 3.94255 12.8568 4.77588 13.7422C5.60921 14.6329 6.69775 15.0756 8.04671 15.0756C9.44775 15.0756 10.5728 14.6068 11.4217 13.6589C12.2655 12.7006 12.6925 11.4662 12.6925 9.95056V0.388062H15.4634V17.2422Z" fill="black"/>
</svg>
