<svg width="17" height="19" viewBox="0 0 17 19" fill="none" xmlns="http://www.w3.org/2000/svg">
<path d="M8.46208 18.4714C6.75374 18.4714 5.30062 18.0651 4.10791 17.2422C2.92562 16.4089 2.03499 15.3255 1.44124 13.9922C0.842285 12.6589 0.54541 11.2318 0.54541 9.70052C0.54541 8.15885 0.842285 6.72135 1.44124 5.38802C2.03499 4.05469 2.92562 2.98177 4.10791 2.15885C5.30062 1.34115 6.75374 0.929688 8.46208 0.929688C10.1704 0.929688 11.6131 1.34115 12.7954 2.15885C13.9725 2.98177 14.8579 4.0651 15.4412 5.40885C16.035 6.75781 16.3371 8.1901 16.3371 9.70052C16.3371 11.2161 16.035 12.6484 15.4412 13.9922C14.8423 15.3255 13.9465 16.4089 12.7537 17.2422C11.5715 18.0651 10.1392 18.4714 8.46208 18.4714ZM8.46208 16.0964C9.50374 16.0964 10.41 15.8151 11.1912 15.2422C11.9673 14.6589 12.5558 13.8828 12.9621 12.9089C13.3631 11.9401 13.5662 10.8568 13.5662 9.65885C13.5662 7.82552 13.1079 6.30469 12.1912 5.09635C11.2746 3.8776 10.0298 3.26302 8.46208 3.26302C7.38916 3.26302 6.46729 3.55469 5.69124 4.13802C4.90999 4.71094 4.31624 5.48177 3.89958 6.45052C3.49333 7.42448 3.29541 8.49219 3.29541 9.65885C3.29541 11.4922 3.75374 13.0286 4.67041 14.263C5.59749 15.487 6.86312 16.0964 8.46208 16.0964Z" fill="black"/>
</svg>
