<svg width="16" height="24" viewBox="0 0 16 24" fill="none" xmlns="http://www.w3.org/2000/svg">
<path d="M6.55013 17.0964C6.55013 16.0964 6.81055 15.2214 7.3418 14.4714C7.86784 13.711 8.6595 12.836 9.7168 11.8464C10.7272 10.8881 11.4928 10.0547 12.0085 9.3464C12.5189 8.62764 12.7793 7.79952 12.7793 6.86723C12.7793 5.60681 12.3626 4.63285 11.5293 3.95056C10.696 3.27348 9.61263 2.92973 8.2793 2.92973C7.16471 2.92973 6.25846 3.16931 5.55013 3.63806C4.8418 4.0964 4.33138 4.67973 4.0293 5.38806C3.722 6.0964 3.57096 6.81515 3.57096 7.5339V7.6589H0.779297V7.5339C0.779297 6.14848 1.08138 4.9089 1.69596 3.82556C2.30534 2.73181 3.17513 1.87764 4.30013 1.26306C5.43555 0.638062 6.76367 0.325562 8.2793 0.325562C9.74805 0.325562 11.0345 0.606812 12.1335 1.15889C13.2272 1.71619 14.0762 2.48181 14.6751 3.45056C15.2689 4.42452 15.571 5.51306 15.571 6.7214C15.571 7.5964 15.4043 8.40369 15.071 9.13806C14.7376 9.86202 14.3262 10.4922 13.8418 11.0339C13.3678 11.5651 12.748 12.1901 11.9876 12.9089C11.071 13.7579 10.3835 14.4818 9.92513 15.0756C9.47721 15.6745 9.25846 16.3464 9.25846 17.0964V17.3464H6.55013V17.0964ZM7.92513 23.5339C7.4095 23.5339 6.98763 23.3672 6.6543 23.0339C6.32096 22.6901 6.1543 22.2579 6.1543 21.7422C6.1543 21.2422 6.32096 20.8256 6.6543 20.4922C6.98763 20.1485 7.4095 19.9714 7.92513 19.9714C8.4095 19.9714 8.82096 20.1485 9.1543 20.4922C9.49805 20.8256 9.67513 21.2422 9.67513 21.7422C9.67513 22.2318 9.49805 22.6537 9.1543 23.0131C8.82096 23.3568 8.4095 23.5339 7.92513 23.5339Z" fill="black"/>
</svg>
