<svg width="27" height="88" viewBox="0 0 27 88" fill="none" xmlns="http://www.w3.org/2000/svg">
<path d="M2.22852 55.4041L0.895182 0.904053H25.541L24.2285 55.4041H2.22852ZM0.291016 74.4874C0.291016 70.8624 1.52018 67.8624 3.97852 65.4874C6.43685 63.1124 9.52018 61.9249 13.2285 61.9249C17.0046 61.9249 20.1035 63.1124 22.5202 65.4874C24.9368 67.8624 26.1452 70.8624 26.1452 74.4874C26.1452 78.1124 24.9368 81.1124 22.5202 83.4874C20.1035 85.8624 17.0046 87.0499 13.2285 87.0499C9.52018 87.0499 6.43685 85.8624 3.97852 83.4874C1.52018 81.1124 0.291016 78.1124 0.291016 74.4874Z" fill="#690061"/>
</svg>
