<svg width="21" height="24" viewBox="0 0 21 24" fill="none" xmlns="http://www.w3.org/2000/svg">
<path d="M20.3299 23.4438H16.6007V19.1729H16.3507C15.7518 20.4802 14.8351 21.5844 13.6007 22.4854C12.3612 23.3761 10.8507 23.8188 9.05908 23.8188C7.18408 23.8188 5.62158 23.3708 4.37158 22.4646C3.12158 21.5479 2.20492 20.3708 1.62158 18.9229C1.03825 17.4646 0.746582 15.8917 0.746582 14.1938V0.9646H4.41325V13.7146C4.41325 15.9125 4.96012 17.6 6.05908 18.7771C7.16846 19.9594 8.62158 20.5479 10.4132 20.5479C12.2987 20.5479 13.7987 19.9177 14.9132 18.6521C16.0382 17.3761 16.6007 15.7302 16.6007 13.7146V0.9646H20.3299V23.4438Z" fill="#690061"/>
</svg>
