<svg width="17" height="19" viewBox="0 0 17 19" fill="none" xmlns="http://www.w3.org/2000/svg">
<path d="M8.42936 18.4714C6.72103 18.4714 5.2679 18.0651 4.0752 17.2422C2.8929 16.4089 2.00228 15.3255 1.40853 13.9922C0.80957 12.6589 0.512695 11.2318 0.512695 9.70052C0.512695 8.15885 0.80957 6.72135 1.40853 5.38802C2.00228 4.05469 2.8929 2.98177 4.0752 2.15885C5.2679 1.34115 6.72103 0.929688 8.42936 0.929688C10.1377 0.929688 11.5804 1.34115 12.7627 2.15885C13.9398 2.98177 14.8252 4.0651 15.4085 5.40885C16.0023 6.75781 16.3044 8.1901 16.3044 9.70052C16.3044 11.2161 16.0023 12.6484 15.4085 13.9922C14.8096 15.3255 13.9137 16.4089 12.721 17.2422C11.5387 18.0651 10.1064 18.4714 8.42936 18.4714ZM8.42936 16.0964C9.47103 16.0964 10.3773 15.8151 11.1585 15.2422C11.9346 14.6589 12.5231 13.8828 12.9294 12.9089C13.3304 11.9401 13.5335 10.8568 13.5335 9.65885C13.5335 7.82552 13.0752 6.30469 12.1585 5.09635C11.2419 3.8776 9.99707 3.26302 8.42936 3.26302C7.35644 3.26302 6.43457 3.55469 5.65853 4.13802C4.87728 4.71094 4.28353 5.48177 3.86686 6.45052C3.46061 7.42448 3.2627 8.49219 3.2627 9.65885C3.2627 11.4922 3.72103 13.0286 4.6377 14.263C5.56478 15.487 6.8304 16.0964 8.42936 16.0964Z" fill="black"/>
</svg>
