<svg width="21" height="25" viewBox="0 0 21 25" fill="none" xmlns="http://www.w3.org/2000/svg">
<path d="M0.420898 0.67627H9.2959C11.4626 0.67627 13.3584 1.17106 14.9834 2.15544C16.6188 3.14502 17.8844 4.54606 18.7751 6.36377C19.6605 8.17106 20.1084 10.3117 20.1084 12.7804C20.1084 15.2544 19.6605 17.4159 18.7751 19.2596C17.8844 21.0929 16.6188 22.5044 14.9834 23.4888C13.3428 24.4627 11.4313 24.9471 9.25423 24.9471H0.420898V0.67627ZM8.83757 22.1763C11.2959 22.1763 13.2594 21.3794 14.7334 19.7804C16.2178 18.1711 16.9626 15.8377 16.9626 12.7804C16.9626 9.72835 16.223 7.40023 14.7542 5.80127C13.2803 4.1919 11.3063 3.3846 8.83757 3.3846H3.33757V22.1763H8.83757Z" fill="black"/>
</svg>
