<svg width="18" height="24" viewBox="0 0 18 24" fill="none" xmlns="http://www.w3.org/2000/svg">
<path d="M8.9515 23.4159C7.12858 23.4159 5.55566 23.0565 4.22233 22.3325C2.889 21.6138 1.86816 20.6815 1.15983 19.5409C0.461913 18.4055 0.118164 17.2075 0.118164 15.9575V15.7492H3.78483V15.9159C3.78483 16.6242 3.98275 17.3325 4.389 18.0409C4.79004 18.7388 5.389 19.3065 6.18066 19.7492C6.97233 20.1815 7.93587 20.395 9.0765 20.395C10.4359 20.395 11.5609 20.0617 12.4515 19.395C13.3525 18.7284 13.8057 17.8117 13.8057 16.645C13.8057 15.6763 13.4567 14.9055 12.764 14.3325C12.0661 13.7648 11.1911 13.395 10.139 13.2284L7.2015 12.8117C5.35254 12.52 3.80566 11.8898 2.55566 10.9159C1.30566 9.9315 0.680664 8.49921 0.680664 6.62421C0.680664 4.54087 1.42025 2.9315 2.90983 1.79087C4.40983 0.639832 6.3265 0.0617065 8.65983 0.0617065C10.3942 0.0617065 11.8786 0.384623 13.1182 1.02004C14.3525 1.66067 15.2952 2.49921 15.9515 3.54087C16.6025 4.57212 16.9307 5.69712 16.9307 6.91587V7.08254H13.264V6.99921C13.264 6.4315 13.1077 5.83254 12.8057 5.20754C12.514 4.58254 12.0036 4.05129 11.2848 3.60337C10.5765 3.14504 9.67025 2.91587 8.5765 2.91587C7.2015 2.91587 6.10254 3.24921 5.28483 3.91587C4.46191 4.58254 4.05566 5.45754 4.05566 6.54087C4.05566 7.41587 4.37858 8.13983 5.03483 8.70754C5.68587 9.28046 6.50358 9.64504 7.49316 9.81171L10.7015 10.3325C12.5765 10.6398 14.1494 11.2857 15.4307 12.27C16.7067 13.2596 17.3473 14.7023 17.3473 16.6034C17.3473 17.968 16.9827 19.1607 16.264 20.1867C15.54 21.2023 14.54 21.994 13.264 22.5617C11.9827 23.1294 10.5452 23.4159 8.9515 23.4159Z" fill="black"/>
</svg>
