<svg width="13" height="19" viewBox="0 0 13 19" fill="none" xmlns="http://www.w3.org/2000/svg">
<path d="M6.69702 18.2326C5.32202 18.2326 4.13452 17.9618 3.13452 17.4201C2.13452 16.868 1.3689 16.1649 0.842855 15.3159C0.327229 14.4722 0.0720215 13.5763 0.0720215 12.6284V12.4618H2.82202V12.5868C2.82202 13.1284 2.96785 13.6649 3.25952 14.1909C3.56161 14.7065 4.01473 15.1284 4.61369 15.4618C5.20744 15.7951 5.9314 15.9618 6.78035 15.9618C7.8064 15.9618 8.65536 15.7118 9.32202 15.2118C9.9991 14.7118 10.3429 14.0243 10.3429 13.1493C10.3429 12.4149 10.0772 11.8368 9.55119 11.4201C9.03556 10.993 8.38452 10.7118 7.59285 10.5868L5.38452 10.2534C3.9939 10.0451 2.82723 9.57634 1.88452 8.83675C0.952229 8.10238 0.488688 7.03467 0.488688 5.62842C0.488688 4.06071 1.04077 2.84717 2.15535 1.98258C3.28035 1.12321 4.71785 0.690918 6.46785 0.690918C7.76994 0.690918 8.88452 0.93571 9.80119 1.42008C10.7283 1.89404 11.4366 2.51904 11.9262 3.29508C12.4262 4.07634 12.6762 4.92008 12.6762 5.83675V5.96175H9.92619V5.89925C9.92619 5.48258 9.81161 5.03988 9.59286 4.56592C9.3689 4.09717 8.98869 3.69092 8.44702 3.35758C7.91577 3.01383 7.23869 2.83675 6.40535 2.83675C5.3741 2.83675 4.55119 3.08675 3.92619 3.58675C3.31161 4.08675 3.00952 4.743 3.00952 5.54508C3.00952 6.21175 3.2491 6.76383 3.73869 7.19092C4.23869 7.62321 4.85327 7.89925 5.59285 8.02425L8.00952 8.39925C9.41056 8.63883 10.5929 9.12321 11.5512 9.85758C12.5095 10.5972 12.9887 11.6805 12.9887 13.1076C12.9887 14.1388 12.7179 15.0347 12.1762 15.7951C11.6345 16.5607 10.8845 17.1597 9.92619 17.5868C8.96786 18.0138 7.88973 18.2326 6.69702 18.2326Z" fill="black"/>
</svg>
