<svg width="16" height="19" viewBox="0 0 16 19" fill="none" xmlns="http://www.w3.org/2000/svg">
<path d="M8.27295 18.4714C6.54899 18.4714 5.09066 18.0547 3.89795 17.2214C2.71566 16.388 1.83545 15.2995 1.25212 13.9505C0.6792 12.6068 0.397949 11.1901 0.397949 9.70052C0.397949 8.1901 0.6792 6.76302 1.25212 5.42969C1.83545 4.09635 2.72087 3.01302 3.91878 2.17969C5.11149 1.34635 6.57503 0.929688 8.31462 0.929688C10.575 0.929688 12.3823 1.6901 13.7313 3.20052C15.0907 4.71615 15.7729 6.88802 15.7729 9.72135V10.4922H3.14795V10.7214C3.14795 11.6693 3.36149 12.5547 3.79378 13.388C4.22087 14.2109 4.81982 14.8776 5.58545 15.388C6.34587 15.9036 7.23649 16.1589 8.25212 16.1589C9.33545 16.1589 10.2729 15.8828 11.0646 15.3255C11.8563 14.7734 12.4396 14.0286 12.8146 13.0964H15.5438C15.0959 14.6276 14.2573 15.9036 13.0229 16.9297C11.799 17.9609 10.2157 18.4714 8.27295 18.4714ZM13.0438 8.55469C12.9604 6.6276 12.4865 5.23698 11.6271 4.38802C10.7782 3.52865 9.65837 3.09635 8.27295 3.09635C6.75732 3.09635 5.54899 3.60677 4.64795 4.61719C3.75732 5.61719 3.28337 6.92969 3.23128 8.55469H13.0438Z" fill="black"/>
</svg>
