<svg width="80" height="74" viewBox="0 0 80 74" fill="none" xmlns="http://www.w3.org/2000/svg">
<path d="M65.5111 55.9389V32.9181L47.0319 70.0014C46.9069 70.366 46.6361 70.5431 46.2194 70.5431H35.0527C34.5788 70.5431 34.2819 70.366 34.1569 70.0014L14.4902 31.9181V72.6264C14.4902 73.1681 14.1569 73.4389 13.4902 73.4389H1.5319C0.917317 73.4389 0.615234 73.1681 0.615234 72.6264V1.73059C0.615234 1.18892 0.917317 0.918091 1.5319 0.918091H13.6777C14.1465 0.918091 14.4486 1.10038 14.5736 1.45976L40.5944 54.5848L65.3444 1.45976C65.5788 1.10038 65.9069 0.918091 66.3236 0.918091H78.3027C78.9694 0.918091 79.3027 1.18892 79.3027 1.73059V55.9389H65.5111Z" fill="#562A2A"/>
</svg>
