<svg width="58" height="74" viewBox="0 0 58 74" fill="none" xmlns="http://www.w3.org/2000/svg">
<path d="M57.3337 72.3556C57.4587 72.5952 57.4274 72.8348 57.2503 73.0848C57.068 73.3243 56.8232 73.4389 56.5212 73.4389H44.0212C43.5889 73.4389 43.318 73.2618 43.2087 72.8973L28.8753 32.4598L14.7295 72.8973C14.6722 73.2618 14.3753 73.4389 13.8337 73.4389H1.41699C0.984695 73.4389 0.693028 73.3243 0.541987 73.0848C0.40657 72.8348 0.390945 72.5952 0.50032 72.3556L27.9795 1.45976C28.0889 1.10038 28.3857 0.918091 28.8753 0.918091C29.3597 0.918091 29.667 1.10038 29.792 1.45976L57.3337 72.3556Z" fill="#562A2A"/>
</svg>
