<svg width="28" height="34" viewBox="0 0 28 34" fill="none" xmlns="http://www.w3.org/2000/svg">
<path d="M27.4624 15.9082C27.4624 18.5332 27.0457 20.9082 26.2124 23.0332C25.3895 25.1478 24.2124 26.8822 22.6707 28.2416L26.6916 33.3249H23.1499L20.3791 29.7832C18.5301 30.7416 16.4259 31.2207 14.0666 31.2207C11.2176 31.2207 8.7749 30.5697 6.73324 29.2624C4.70199 27.9603 3.16032 26.1374 2.10824 23.8041C1.05094 21.4707 0.524902 18.8249 0.524902 15.8666C0.524902 12.9082 1.05615 10.2572 2.12907 7.90824C3.19678 5.56449 4.74365 3.73116 6.7749 2.40824C8.81657 1.09054 11.2437 0.429077 14.0666 0.429077C16.8426 0.429077 19.2384 1.09054 21.2541 2.40824C23.2801 3.73116 24.8218 5.55408 25.8791 7.88741C26.9312 10.2207 27.4624 12.8978 27.4624 15.9082ZM14.0249 27.8041C15.5249 27.8041 16.8687 27.5072 18.0666 26.9082L12.1916 19.4499H15.7332L20.3374 25.3041C21.3791 24.252 22.1812 22.9082 22.7541 21.2832C23.3218 19.6582 23.6082 17.8405 23.6082 15.8249C23.6082 13.4916 23.2228 11.4187 22.4624 9.59575C21.6968 7.77804 20.5874 6.35616 19.1291 5.32491C17.6812 4.29887 15.9832 3.78324 14.0249 3.78324C12.0509 3.78324 10.3374 4.30408 8.87907 5.34574C7.43115 6.38741 6.32699 7.8197 5.56657 9.63741C4.80094 11.4603 4.42074 13.5228 4.42074 15.8249C4.42074 18.1582 4.80094 20.2312 5.56657 22.0332C6.32699 23.8405 7.43115 25.2572 8.87907 26.2832C10.3374 27.2989 12.0509 27.8041 14.0249 27.8041Z" fill="#690061"/>
</svg>
