<svg width="58" height="74" viewBox="0 0 58 74" fill="none" xmlns="http://www.w3.org/2000/svg">
<path d="M57.7896 72.4062C57.9146 72.6458 57.8833 72.8854 57.7063 73.1354C57.524 73.3749 57.2792 73.4895 56.9771 73.4895H44.4771C44.0448 73.4895 43.774 73.3124 43.6646 72.9479L29.3313 32.5104L15.1854 72.9479C15.1281 73.3124 14.8313 73.4895 14.2896 73.4895H1.87292C1.44063 73.4895 1.14896 73.3749 0.997919 73.1354C0.862503 72.8854 0.846878 72.6458 0.956253 72.4062L28.4354 1.51036C28.5448 1.15098 28.8417 0.968689 29.3313 0.968689C29.8156 0.968689 30.1229 1.15098 30.2479 1.51036L57.7896 72.4062Z" fill="#562A2A" fill-opacity="0.502"/>
</svg>
