<svg width="10" height="14" viewBox="0 0 10 14" fill="none" xmlns="http://www.w3.org/2000/svg">
<path d="M5.37305 13.0254C4.41471 13.0254 3.58138 12.8327 2.87305 12.4421C2.16471 12.0566 1.62305 11.5618 1.24805 10.9629C0.873047 10.3535 0.685547 9.71289 0.685547 9.04622V8.94206H2.64388V9.02539C2.64388 9.40039 2.74805 9.77539 2.95638 10.1504C3.16471 10.5254 3.47721 10.8327 3.89388 11.0671C4.32096 11.291 4.8418 11.4004 5.45638 11.4004C6.17513 11.4004 6.77409 11.2285 7.24805 10.8796C7.7168 10.5202 7.95638 10.0358 7.95638 9.42122C7.95638 8.91081 7.76888 8.49935 7.39388 8.19206C7.0293 7.88998 6.57096 7.69206 6.01888 7.60872L4.45638 7.37956C3.4668 7.22852 2.64388 6.89518 1.97721 6.37956C1.31055 5.85352 0.977214 5.08789 0.977214 4.08789C0.977214 2.99414 1.37305 2.13997 2.16471 1.52539C2.9668 0.900391 3.98763 0.587891 5.22721 0.587891C6.14388 0.587891 6.92513 0.764975 7.58138 1.10872C8.24805 1.44206 8.75325 1.88997 9.10221 2.44206C9.44596 2.99935 9.62305 3.60352 9.62305 4.25456V4.33789H7.66471V4.29622C7.66471 3.99414 7.58138 3.67122 7.41471 3.33789C7.25846 3.00456 6.99805 2.72331 6.62305 2.48372C6.24805 2.23372 5.76888 2.10872 5.18555 2.10872C4.44596 2.10872 3.85742 2.29102 3.41471 2.65039C2.98242 2.99935 2.76888 3.46289 2.76888 4.04622C2.76888 4.50456 2.94075 4.88997 3.28971 5.19206C3.63346 5.49935 4.07096 5.70247 4.60221 5.79622L6.31055 6.06706C7.31055 6.23372 8.14909 6.58268 8.83138 7.10872C9.50846 7.62435 9.85221 8.38997 9.85221 9.40039C9.85221 10.1243 9.6543 10.7546 9.26888 11.2962C8.87825 11.8379 8.3418 12.265 7.66471 12.5671C6.98242 12.8691 6.2168 13.0254 5.37305 13.0254Z" fill="black"/>
</svg>
