<svg width="21" height="23" viewBox="0 0 21 23" fill="none" xmlns="http://www.w3.org/2000/svg">
<path d="M20.3612 22.591H16.632V18.3202H16.382C15.783 19.6274 14.8664 20.7316 13.632 21.6327C12.3924 22.5233 10.882 22.966 9.09033 22.966C7.21533 22.966 5.65283 22.5181 4.40283 21.6118C3.15283 20.6952 2.23617 19.5181 1.65283 18.0702C1.0695 16.6118 0.777832 15.0389 0.777832 13.341V0.111816H4.4445V12.8618C4.4445 15.0597 4.99137 16.7472 6.09033 17.9243C7.19971 19.1066 8.65283 19.6952 10.4445 19.6952C12.3299 19.6952 13.8299 19.0649 14.9445 17.7993C16.0695 16.5233 16.632 14.8774 16.632 12.8618V0.111816H20.3612V22.591Z" fill="#690061"/>
</svg>
