<svg width="14" height="19" viewBox="0 0 14 19" fill="none" xmlns="http://www.w3.org/2000/svg">
<path d="M7.53076 18.4714C6.15576 18.4714 4.96826 18.2005 3.96826 17.6589C2.96826 17.1068 2.20264 16.4036 1.6766 15.5547C1.16097 14.7109 0.905762 13.8151 0.905762 12.8672V12.7005H3.65576V12.8255C3.65576 13.3672 3.8016 13.9036 4.09326 14.4297C4.39535 14.9453 4.84847 15.3672 5.44743 15.7005C6.04118 16.0339 6.76514 16.2005 7.6141 16.2005C8.64014 16.2005 9.4891 15.9505 10.1558 15.4505C10.8328 14.9505 11.1766 14.263 11.1766 13.388C11.1766 12.6536 10.911 12.0755 10.3849 11.6589C9.8693 11.2318 9.21826 10.9505 8.4266 10.8255L6.21826 10.4922C4.82764 10.2839 3.66097 9.81511 2.71826 9.07552C1.78597 8.34115 1.32243 7.27344 1.32243 5.86719C1.32243 4.29948 1.87451 3.08594 2.9891 2.22135C4.1141 1.36198 5.5516 0.929688 7.3016 0.929688C8.60368 0.929688 9.71826 1.17448 10.6349 1.65885C11.562 2.13281 12.2703 2.75781 12.7599 3.53385C13.2599 4.3151 13.5099 5.15885 13.5099 6.07552V6.20052H10.7599V6.13802C10.7599 5.72135 10.6453 5.27865 10.4266 4.80469C10.2026 4.33594 9.82243 3.92969 9.28076 3.59635C8.74951 3.2526 8.07243 3.07552 7.2391 3.07552C6.20784 3.07552 5.38493 3.32552 4.75993 3.82552C4.14535 4.32552 3.84326 4.98177 3.84326 5.78385C3.84326 6.45052 4.08284 7.0026 4.57243 7.42969C5.07243 7.86198 5.68701 8.13802 6.4266 8.26302L8.84326 8.63802C10.2443 8.8776 11.4266 9.36198 12.3849 10.0964C13.3433 10.8359 13.8224 11.9193 13.8224 13.3464C13.8224 14.3776 13.5516 15.2734 13.0099 16.0339C12.4683 16.7995 11.7183 17.3984 10.7599 17.8255C9.8016 18.2526 8.72347 18.4714 7.53076 18.4714Z" fill="black"/>
</svg>
