<svg width="12" height="18" viewBox="0 0 12 18" fill="none" xmlns="http://www.w3.org/2000/svg">
<path d="M0.526855 0.921265H2.46436V8.0671H2.65186C2.95394 7.37439 3.44873 6.79106 4.13102 6.3171C4.80811 5.83272 5.63623 5.58793 6.61019 5.58793C7.6206 5.58793 8.46956 5.83272 9.15186 6.3171C9.82894 6.79106 10.3289 7.41606 10.6519 8.1921C10.9852 8.97335 11.1519 9.81189 11.1519 10.7129V17.8588H9.19352V10.9629C9.19352 9.78585 8.88623 8.89002 8.27686 8.27543C7.66227 7.65043 6.84977 7.33793 5.83936 7.33793C4.88102 7.33793 4.07373 7.66606 3.42269 8.3171C2.78206 8.97335 2.46436 9.85356 2.46436 10.9629V17.8588H0.526855V0.921265Z" fill="black"/>
</svg>
