<svg width="12" height="17" viewBox="0 0 12 17" fill="none" xmlns="http://www.w3.org/2000/svg">
<path d="M0.019043 0.0462646H3.53988V6.60876H3.72738C3.98779 6.05668 4.40446 5.58272 4.97738 5.1921C5.56071 4.80668 6.26904 4.60876 7.10238 4.60876C8.67008 4.60876 9.75342 5.10876 10.3524 6.10876C10.9618 7.09835 11.269 8.20251 11.269 9.42126V16.8588H7.74821V10.0463C7.74821 9.2546 7.57113 8.64002 7.22738 8.1921C6.87842 7.73376 6.35238 7.5046 5.64404 7.5046C4.94613 7.5046 4.42008 7.74418 4.06071 8.21293C3.71175 8.67126 3.53988 9.28585 3.53988 10.0463V16.8588H0.019043V0.0462646Z" fill="black"/>
</svg>
