<svg width="79" height="74" viewBox="0 0 79 74" fill="none" xmlns="http://www.w3.org/2000/svg">
<path d="M64.9554 55.9833V32.9625L46.4762 70.0458C46.3512 70.4104 46.0804 70.5875 45.6637 70.5875H34.4971C34.0231 70.5875 33.7262 70.4104 33.6012 70.0458L13.9346 31.9625V72.6708C13.9346 73.2125 13.6012 73.4833 12.9346 73.4833H0.976237C0.361653 73.4833 0.0595703 73.2125 0.0595703 72.6708V1.77496C0.0595703 1.2333 0.361653 0.962463 0.976237 0.962463H13.1221C13.5908 0.962463 13.8929 1.14476 14.0179 1.50413L40.0387 54.6291L64.7887 1.50413C65.0231 1.14476 65.3512 0.962463 65.7679 0.962463H77.7471C78.4137 0.962463 78.7471 1.2333 78.7471 1.77496V55.9833H64.9554Z" fill="#562A2A"/>
</svg>
