<svg width="13" height="15" viewBox="0 0 13 15" fill="none" xmlns="http://www.w3.org/2000/svg">
<path d="M6.93587 14.4773C5.77962 14.4773 4.73796 14.2168 3.81087 13.6856C2.89421 13.1595 2.17025 12.3887 1.64421 11.3731C1.11296 10.347 0.852539 9.11788 0.852539 7.68559C0.852539 6.2585 1.11296 5.02934 1.64421 3.99809C2.17025 2.97205 2.89421 2.20121 3.81087 1.68559C4.73796 1.15955 5.77962 0.893921 6.93587 0.893921C8.31087 0.893921 9.40462 1.15955 10.2275 1.68559C11.0452 2.20121 11.6442 2.88871 12.0192 3.74809L10.6859 4.70642H10.4567C10.0921 3.98767 9.63379 3.45642 9.08171 3.12309C8.52441 2.78975 7.81087 2.62309 6.93587 2.62309C6.12858 2.62309 5.42025 2.81059 4.81087 3.18559C4.19629 3.56059 3.71712 4.1335 3.37337 4.89392C3.04004 5.65955 2.87337 6.59184 2.87337 7.68559C2.87337 8.78455 3.04004 9.70642 3.37337 10.4564C3.71712 11.2064 4.19629 11.7793 4.81087 12.1648C5.42025 12.5554 6.12858 12.7481 6.93587 12.7481C7.83691 12.7481 8.58691 12.5502 9.18587 12.1439C9.77962 11.7273 10.2536 11.0762 10.6025 10.1856H10.8525L12.1234 10.9356C11.7744 12.0345 11.165 12.9043 10.29 13.5398C9.41504 14.1648 8.29525 14.4773 6.93587 14.4773Z" fill="black"/>
</svg>
