<svg width="17" height="19" viewBox="0 0 17 19" fill="none" xmlns="http://www.w3.org/2000/svg">
<path d="M8.81803 18.4714C7.1097 18.4714 5.65658 18.0651 4.46387 17.2422C3.28158 16.4089 2.39095 15.3255 1.7972 13.9922C1.19824 12.6589 0.901367 11.2318 0.901367 9.70052C0.901367 8.15885 1.19824 6.72135 1.7972 5.38802C2.39095 4.05469 3.28158 2.98177 4.46387 2.15885C5.65658 1.34115 7.1097 0.929688 8.81803 0.929688C10.5264 0.929688 11.9691 1.34115 13.1514 2.15885C14.3285 2.98177 15.2139 4.0651 15.7972 5.40885C16.391 6.75781 16.693 8.1901 16.693 9.70052C16.693 11.2161 16.391 12.6484 15.7972 13.9922C15.1982 15.3255 14.3024 16.4089 13.1097 17.2422C11.9274 18.0651 10.4951 18.4714 8.81803 18.4714ZM8.81803 16.0964C9.8597 16.0964 10.766 15.8151 11.5472 15.2422C12.3232 14.6589 12.9118 13.8828 13.318 12.9089C13.7191 11.9401 13.9222 10.8568 13.9222 9.65885C13.9222 7.82552 13.4639 6.30469 12.5472 5.09635C11.6305 3.8776 10.3857 3.26302 8.81803 3.26302C7.74512 3.26302 6.82324 3.55469 6.0472 4.13802C5.26595 4.71094 4.6722 5.48177 4.25553 6.45052C3.84928 7.42448 3.65137 8.49219 3.65137 9.65885C3.65137 11.4922 4.1097 13.0286 5.02637 14.263C5.95345 15.487 7.21908 16.0964 8.81803 16.0964Z" fill="black"/>
</svg>
