<svg width="14" height="31" viewBox="0 0 14 31" fill="none" xmlns="http://www.w3.org/2000/svg">
<path d="M7.82552 10.5826V23.6451C7.82552 24.7024 7.8724 25.4784 7.97135 25.9784C8.06511 26.468 8.33594 26.8534 8.78385 27.1451C9.22656 27.4263 9.95052 27.5617 10.9505 27.5617C11.6276 27.5617 12.3672 27.468 13.1589 27.2701V29.9159C12.9609 29.9992 12.5234 30.0826 11.8464 30.1659C11.1797 30.2492 10.4922 30.2909 9.78385 30.2909C8.14323 30.2909 6.91406 30.0617 6.09635 29.6034C5.28906 29.1347 4.76302 28.494 4.51302 27.6867C4.27344 26.869 4.15885 25.7909 4.15885 24.4576V10.5826H-0.0078125V7.64508H4.15885V0.270081H7.82552V7.64508H13.1589V10.5826H7.82552Z" fill="black"/>
</svg>
