<svg width="13" height="15" viewBox="0 0 13 15" fill="none" xmlns="http://www.w3.org/2000/svg">
<path d="M4.87272 14.4773C3.58105 14.4773 2.57064 14.1439 1.85189 13.4773C1.12793 12.8002 0.768555 11.8314 0.768555 10.5814C0.768555 9.80538 0.924805 9.15434 1.24772 8.62309C1.56543 8.08142 2.06022 7.64392 2.72689 7.31059C3.40397 6.97725 4.28939 6.72205 5.37272 6.53975C6.33105 6.37309 7.04981 6.196 7.53939 5.99809C8.03939 5.80538 8.37272 5.59184 8.53939 5.35225C8.70605 5.10225 8.78939 4.78975 8.78939 4.41475C8.78939 3.821 8.58626 3.36267 8.18522 3.03975C7.77897 2.72205 7.12793 2.56059 6.22689 2.56059C5.37793 2.56059 4.64876 2.72725 4.03939 3.06059C3.44043 3.39392 2.88314 3.88351 2.37272 4.51892H2.14355L1.18522 3.18559C1.7373 2.47725 2.44043 1.92517 3.28939 1.51892C4.14876 1.10225 5.12793 0.893921 6.22689 0.893921C7.76855 0.893921 8.89876 1.23767 9.62272 1.91475C10.3571 2.58142 10.7269 3.51371 10.7269 4.70642V11.6439C10.7269 12.3835 11.0394 12.7481 11.6644 12.7481C11.8571 12.7481 12.0498 12.7168 12.2477 12.6439L12.4144 12.6856L12.6436 14.0189C12.5029 14.1179 12.3154 14.196 12.0811 14.2481C11.8415 14.3002 11.6019 14.3314 11.3519 14.3314C10.6436 14.3314 10.1019 14.1752 9.72689 13.8523C9.3623 13.5345 9.12793 13.071 9.01855 12.4564L8.76855 12.4148C8.39355 13.1127 7.88314 13.6335 7.24772 13.9773C6.62272 14.3106 5.83105 14.4773 4.87272 14.4773ZM5.31022 12.9356C6.02897 12.9356 6.65397 12.7689 7.18522 12.4356C7.72689 12.0918 8.13314 11.6179 8.41439 11.0189C8.70605 10.4095 8.85189 9.70121 8.85189 8.89392V7.22725L8.62272 7.18559C8.33105 7.39392 7.97689 7.571 7.56022 7.70642C7.14355 7.84705 6.56022 7.97205 5.81022 8.08142C5.0446 8.18038 4.44043 8.34184 3.99772 8.56059C3.54981 8.76892 3.2321 9.03975 3.03939 9.37309C2.84147 9.696 2.74772 10.097 2.74772 10.5814C2.74772 11.347 2.96647 11.9304 3.41439 12.3314C3.87272 12.7377 4.50293 12.9356 5.31022 12.9356Z" fill="black"/>
</svg>
