<svg width="14" height="15" viewBox="0 0 14 15" fill="none" xmlns="http://www.w3.org/2000/svg">
<path d="M7.44344 14.8708C5.98511 14.8708 4.74552 14.527 3.73511 13.8291C2.73511 13.1364 1.99032 12.2354 1.50594 11.1208C1.03198 10.0114 0.797607 8.82389 0.797607 7.55827C0.797607 6.29785 1.03198 5.11035 1.50594 3.99577C1.99032 2.88639 2.73511 1.99056 3.73511 1.30827C4.74552 0.61556 5.98511 0.266602 7.44344 0.266602C9.26115 0.266602 10.683 0.797852 11.7143 1.84993C12.7559 2.8916 13.3861 4.17806 13.6101 5.7041H11.3601C11.2039 4.66244 10.7976 3.82389 10.1309 3.18327C9.47469 2.53223 8.58927 2.2041 7.46427 2.2041C6.04761 2.2041 4.96948 2.71973 4.23511 3.74577C3.49552 4.76139 3.13094 6.03223 3.13094 7.55827C3.13094 9.08952 3.49552 10.3656 4.23511 11.3916C4.96948 12.4229 6.04761 12.9333 7.46427 12.9333C8.58927 12.9333 9.47469 12.6156 10.1309 11.9749C10.7976 11.3239 11.2039 10.4749 11.3601 9.43327H13.6101C13.3861 10.9645 12.7559 12.2562 11.7143 13.3083C10.683 14.3499 9.26115 14.8708 7.44344 14.8708Z" fill="black"/>
</svg>
