<svg width="19" height="20" viewBox="0 0 19 20" fill="none" xmlns="http://www.w3.org/2000/svg">
<path d="M9.51807 19.4932C7.66911 19.4932 6.1014 19.0505 4.80973 18.1598C3.52848 17.2744 2.56494 16.1077 1.9139 14.6598C1.27327 13.2171 0.955566 11.6598 0.955566 9.99316C0.955566 8.3265 1.27327 6.77442 1.9139 5.3265C2.56494 3.88379 3.52848 2.71712 4.80973 1.8265C6.1014 0.941081 7.66911 0.493164 9.51807 0.493164C11.3618 0.493164 12.9243 0.941081 14.2056 1.8265C15.4972 2.71712 16.4556 3.889 17.0806 5.34733C17.716 6.80566 18.0389 8.35775 18.0389 9.99316C18.0389 11.6338 17.7108 13.1807 17.0597 14.639C16.4191 16.0973 15.4556 17.2744 14.1639 18.1598C12.8827 19.0505 11.3358 19.4932 9.51807 19.4932ZM9.51807 16.9307C10.6431 16.9307 11.6274 16.6182 12.4764 15.9932C13.3201 15.3682 13.9608 14.5296 14.3931 13.4723C14.8358 12.4202 15.0597 11.2432 15.0597 9.9515C15.0597 7.96712 14.5597 6.31608 13.5597 4.99316C12.5701 3.67546 11.2264 3.014 9.51807 3.014C8.36182 3.014 7.36182 3.3265 6.51807 3.9515C5.66911 4.5765 5.02327 5.42025 4.58057 6.47233C4.14827 7.52962 3.93473 8.69108 3.93473 9.9515C3.93473 11.9411 4.42432 13.5973 5.4139 14.9307C6.4139 16.264 7.77848 16.9307 9.51807 16.9307Z" fill="black"/>
</svg>
