<svg width="50" height="52" viewBox="0 0 50 52" fill="none" xmlns="http://www.w3.org/2000/svg">
<path d="M18.4359 51.0521C12.9359 51.0521 8.52962 49.6979 5.22754 46.9896C1.93587 44.2708 0.290039 40.5729 0.290039 35.9062C0.290039 31.5052 1.75358 27.9583 4.68587 25.2604C7.61296 22.5677 11.5609 21.2188 16.5192 21.2188H32.665V18.5104C32.665 16.9427 31.9827 15.6458 30.6234 14.6146C29.2588 13.5885 27.613 13.0729 25.6859 13.0729C23.9202 13.0729 22.4202 13.5104 21.1859 14.3854C19.9463 15.2604 19.2119 16.3958 18.9775 17.7812H2.64421C3.37858 12.2292 5.70671 7.98438 9.62337 5.05208C13.5505 2.125 18.8734 0.65625 25.5817 0.65625C33.3161 0.65625 39.2536 2.52083 43.3942 6.23958C47.5452 9.94792 49.6234 15.2188 49.6234 22.0521V49.9688H37.1025L35.2067 44.7188C30.9671 48.9427 25.3786 51.0521 18.4359 51.0521ZM17.3317 35.0938C17.3317 36.4271 17.9046 37.5052 19.0609 38.3229C20.2119 39.1458 21.7275 39.5521 23.6025 39.5521C26.2536 39.5521 28.4567 38.7396 30.2067 37.1146C31.9671 35.4792 32.8525 33.3542 32.8525 30.7396H23.415C21.54 30.7396 20.0505 31.125 18.9567 31.8854C17.8734 32.6354 17.3317 33.7083 17.3317 35.0938Z" fill="#690061"/>
</svg>
