<svg width="12" height="14" viewBox="0 0 12 14" fill="none" xmlns="http://www.w3.org/2000/svg">
<path d="M5.79997 13.0254C4.59163 13.0254 3.56038 12.7337 2.71663 12.1504C1.8833 11.5671 1.24788 10.8066 0.820801 9.85872C0.404134 8.91602 0.195801 7.90039 0.195801 6.81706C0.195801 5.72331 0.404134 4.70247 0.820801 3.75456C1.24788 2.81185 1.8833 2.04622 2.71663 1.46289C3.56038 0.879557 4.59163 0.587891 5.79997 0.587891C7.0083 0.587891 8.02913 0.879557 8.86247 1.46289C9.70622 2.04622 10.3416 2.81706 10.7583 3.77539C11.175 4.72331 11.3833 5.73372 11.3833 6.81706C11.3833 7.88997 11.1646 8.90039 10.7375 9.85872C10.3208 10.8066 9.68538 11.5671 8.84163 12.1504C8.0083 12.7337 6.99268 13.0254 5.79997 13.0254ZM5.79997 11.3379C6.54997 11.3379 7.1958 11.14 7.73747 10.7337C8.28955 10.3171 8.70622 9.77018 8.98747 9.08789C9.27913 8.39518 9.42497 7.62435 9.42497 6.77539C9.42497 5.48372 9.09684 4.41081 8.4458 3.54622C7.80518 2.68685 6.92497 2.25456 5.79997 2.25456C5.04997 2.25456 4.39372 2.46289 3.84163 2.87956C3.28434 3.28581 2.86247 3.83268 2.5708 4.52539C2.28955 5.20768 2.15413 5.95768 2.15413 6.77539C2.15413 8.08268 2.47705 9.17122 3.1333 10.0462C3.78434 10.9108 4.67497 11.3379 5.79997 11.3379Z" fill="black"/>
</svg>
