<svg width="30" height="30" viewBox="0 0 30 30" fill="none" xmlns="http://www.w3.org/2000/svg">
<path d="M11.104 29.7983C7.93734 29.7983 5.40088 29.017 3.49984 27.4441C1.60921 25.8764 0.666504 23.7514 0.666504 21.0691C0.666504 18.5274 1.50505 16.4858 3.18734 14.9441C4.88005 13.392 7.15609 12.6108 10.0207 12.6108H19.3123V11.0483C19.3123 10.1472 18.9165 9.39722 18.1248 8.79826C17.3436 8.20451 16.4009 7.90243 15.2915 7.90243C14.2759 7.90243 13.4165 8.16284 12.7082 8.67326C11.9998 9.17326 11.5675 9.82951 11.4165 10.6316H2.02067C2.43734 7.42326 3.77588 4.98055 6.0415 3.29826C8.30192 1.60555 11.3748 0.756592 15.2498 0.756592C19.7082 0.756592 23.1248 1.82951 25.4998 3.96493C27.8853 6.10555 29.0832 9.14722 29.0832 13.0899V29.1733H21.8748L20.7707 26.1524C18.3384 28.5847 15.1144 29.7983 11.104 29.7983ZM10.479 20.6108C10.479 21.3764 10.8123 21.9962 11.479 22.4649C12.1457 22.9389 13.0103 23.1733 14.0832 23.1733C15.6248 23.1733 16.8957 22.7045 17.8957 21.7566C18.9061 20.8139 19.4165 19.5899 19.4165 18.0899H13.979C12.9061 18.0899 12.0519 18.3139 11.4165 18.7566C10.7915 19.1889 10.479 19.8087 10.479 20.6108Z" fill="#690061"/>
</svg>
