<svg width="14" height="20" viewBox="0 0 14 20" fill="none" xmlns="http://www.w3.org/2000/svg">
<path d="M7.04525 19.8917C5.59733 19.8917 4.36296 19.5948 3.33691 18.9958C2.32129 18.4021 1.55566 17.6365 1.04525 16.7042C0.529622 15.7615 0.274414 14.7771 0.274414 13.7458V13.6H2.79525V13.7458C2.79525 14.3604 2.94108 14.975 3.23275 15.6C3.52441 16.225 3.98796 16.7458 4.62858 17.1625C5.27962 17.5792 6.09733 17.7875 7.08691 17.7875C8.264 17.7875 9.23796 17.4906 10.0036 16.8917C10.764 16.2823 11.1494 15.4646 11.1494 14.4333C11.1494 13.574 10.863 12.8917 10.2952 12.3917C9.73796 11.8813 9.02441 11.5375 8.14941 11.3708L5.44108 10.85C2.31608 10.1573 0.753581 8.51668 0.753581 5.93335C0.753581 4.86564 1.00879 3.93335 1.52441 3.14168C2.03483 2.3396 2.75358 1.71981 3.67025 1.28752C4.58691 0.844808 5.64941 0.62085 6.85775 0.62085C8.21712 0.62085 9.38379 0.902099 10.3577 1.45418C11.3421 1.99585 12.0869 2.7146 12.5869 3.60002C13.0869 4.47502 13.3369 5.38648 13.3369 6.32918V6.43335H10.7952V6.35002C10.7952 5.82398 10.6598 5.28231 10.3994 4.72502C10.1494 4.15731 9.72233 3.67293 9.12858 3.26668C8.52962 2.85002 7.74317 2.64168 6.77441 2.64168C5.64941 2.64168 4.75358 2.95418 4.08691 3.57918C3.42025 4.20418 3.08691 4.97502 3.08691 5.89168C3.08691 6.68335 3.34212 7.32918 3.85775 7.82918C4.36817 8.31877 5.07129 8.6521 5.96191 8.82918L8.42025 9.30835C11.8473 10.0063 13.5661 11.6833 13.5661 14.35C13.5661 15.4333 13.2952 16.3917 12.7536 17.225C12.2119 18.0583 11.4411 18.7146 10.4411 19.1833C9.4515 19.6573 8.32129 19.8917 7.04525 19.8917Z" fill="black"/>
</svg>
