<svg width="27" height="30" viewBox="0 0 27 30" fill="none" xmlns="http://www.w3.org/2000/svg">
<path d="M10.4639 29.5821C7.19824 29.5821 4.78678 28.6966 3.2347 26.9154C1.67741 25.1237 0.901367 22.5612 0.901367 19.2279V-0.00128174H8.19303V18.3112C8.19303 20.0768 8.57324 21.3685 9.33887 22.1862C10.0993 23.0091 11.2816 23.4154 12.8805 23.4154C14.891 23.4154 16.4639 22.7591 17.5889 21.4362C18.7139 20.1029 19.2764 18.0196 19.2764 15.1862V-0.00128174H26.568V29.0196H19.568V24.7487L19.0055 24.6237C18.0732 26.2904 16.9326 27.5352 15.5889 28.3529C14.2555 29.1706 12.5472 29.5821 10.4639 29.5821Z" fill="black"/>
</svg>
