<svg width="16" height="19" viewBox="0 0 16 19" fill="none" xmlns="http://www.w3.org/2000/svg">
<path d="M8.375 18.4714C6.65104 18.4714 5.19271 18.0547 4 17.2214C2.81771 16.388 1.9375 15.2995 1.35417 13.9505C0.781251 12.6068 0.5 11.1901 0.5 9.70052C0.5 8.1901 0.781251 6.76302 1.35417 5.42969C1.9375 4.09635 2.82292 3.01302 4.02083 2.17969C5.21354 1.34635 6.67708 0.929688 8.41667 0.929688C10.6771 0.929688 12.4844 1.6901 13.8333 3.20052C15.1927 4.71615 15.875 6.88802 15.875 9.72135V10.4922H3.25V10.7214C3.25 11.6693 3.46354 12.5547 3.89583 13.388C4.32292 14.2109 4.92188 14.8776 5.6875 15.388C6.44792 15.9036 7.33854 16.1589 8.35417 16.1589C9.4375 16.1589 10.375 15.8828 11.1667 15.3255C11.9583 14.7734 12.5417 14.0286 12.9167 13.0964H15.6458C15.1979 14.6276 14.3594 15.9036 13.125 16.9297C11.901 17.9609 10.3177 18.4714 8.375 18.4714ZM13.1458 8.55469C13.0625 6.6276 12.5885 5.23698 11.7292 4.38802C10.8802 3.52865 9.76042 3.09635 8.375 3.09635C6.85938 3.09635 5.65104 3.60677 4.75 4.61719C3.85937 5.61719 3.38542 6.92969 3.33333 8.55469H13.1458Z" fill="black"/>
</svg>
