<svg width="14" height="20" viewBox="0 0 14 20" fill="none" xmlns="http://www.w3.org/2000/svg">
<path d="M7.04525 19.8914C5.59733 19.8914 4.36296 19.5946 3.33691 18.9956C2.32129 18.4019 1.55566 17.6362 1.04525 16.7039C0.529622 15.7612 0.274414 14.7769 0.274414 13.7456V13.5998H2.79525V13.7456C2.79525 14.3602 2.94108 14.9748 3.23275 15.5998C3.52441 16.2248 3.98796 16.7456 4.62858 17.1623C5.27962 17.5789 6.09733 17.7873 7.08691 17.7873C8.264 17.7873 9.23796 17.4904 10.0036 16.8914C10.764 16.2821 11.1494 15.4644 11.1494 14.4331C11.1494 13.5737 10.863 12.8914 10.2952 12.3914C9.73796 11.881 9.02441 11.5373 8.14941 11.3706L5.44108 10.8498C2.31608 10.1571 0.753581 8.51644 0.753581 5.93311C0.753581 4.8654 1.00879 3.93311 1.52441 3.14144C2.03483 2.33936 2.75358 1.71956 3.67025 1.28727C4.58691 0.844564 5.64941 0.620605 6.85775 0.620605C8.21712 0.620605 9.38379 0.901855 10.3577 1.45394C11.3421 1.99561 12.0869 2.71436 12.5869 3.59977C13.0869 4.47477 13.3369 5.38623 13.3369 6.32894V6.43311H10.7952V6.34977C10.7952 5.82373 10.6598 5.28206 10.3994 4.72477C10.1494 4.15706 9.72233 3.67269 9.12858 3.26644C8.52962 2.84977 7.74317 2.64144 6.77441 2.64144C5.64941 2.64144 4.75358 2.95394 4.08691 3.57894C3.42025 4.20394 3.08691 4.97477 3.08691 5.89144C3.08691 6.68311 3.34212 7.32894 3.85775 7.82894C4.36817 8.31852 5.07129 8.65186 5.96191 8.82894L8.42025 9.30811C11.8473 10.006 13.5661 11.6831 13.5661 14.3498C13.5661 15.4331 13.2952 16.3914 12.7536 17.2248C12.2119 18.0581 11.4411 18.7144 10.4411 19.1831C9.4515 19.6571 8.32129 19.8914 7.04525 19.8914Z" fill="black"/>
</svg>
