<svg width="13" height="19" viewBox="0 0 13 19" fill="none" xmlns="http://www.w3.org/2000/svg">
<path d="M6.69702 18.2323C5.32202 18.2323 4.13452 17.9615 3.13452 17.4198C2.13452 16.8678 1.3689 16.1646 0.842855 15.3157C0.327229 14.4719 0.0720215 13.5761 0.0720215 12.6282V12.4615H2.82202V12.5865C2.82202 13.1282 2.96785 13.6646 3.25952 14.1907C3.56161 14.7063 4.01473 15.1282 4.61369 15.4615C5.20744 15.7948 5.9314 15.9615 6.78035 15.9615C7.8064 15.9615 8.65536 15.7115 9.32202 15.2115C9.9991 14.7115 10.3429 14.024 10.3429 13.149C10.3429 12.4146 10.0772 11.8365 9.55119 11.4198C9.03556 10.9928 8.38452 10.7115 7.59285 10.5865L5.38452 10.2532C3.9939 10.0448 2.82723 9.57609 1.88452 8.83651C0.952229 8.10213 0.488688 7.03442 0.488688 5.62817C0.488688 4.06047 1.04077 2.84692 2.15535 1.98234C3.28035 1.12297 4.71785 0.690674 6.46785 0.690674C7.76994 0.690674 8.88452 0.935466 9.80119 1.41984C10.7283 1.8938 11.4366 2.5188 11.9262 3.29484C12.4262 4.07609 12.6762 4.91984 12.6762 5.83651V5.96151H9.92619V5.89901C9.92619 5.48234 9.81161 5.03963 9.59286 4.56567C9.3689 4.09692 8.98869 3.69067 8.44702 3.35734C7.91577 3.01359 7.23869 2.83651 6.40535 2.83651C5.3741 2.83651 4.55119 3.08651 3.92619 3.58651C3.31161 4.08651 3.00952 4.74276 3.00952 5.54484C3.00952 6.21151 3.2491 6.76359 3.73869 7.19067C4.23869 7.62297 4.85327 7.89901 5.59285 8.02401L8.00952 8.39901C9.41056 8.63859 10.5929 9.12297 11.5512 9.85734C12.5095 10.5969 12.9887 11.6803 12.9887 13.1073C12.9887 14.1386 12.7179 15.0344 12.1762 15.7948C11.6345 16.5605 10.8845 17.1594 9.92619 17.5865C8.96786 18.0136 7.88973 18.2323 6.69702 18.2323Z" fill="black"/>
</svg>
