<svg width="28" height="32" viewBox="0 0 28 32" fill="none" xmlns="http://www.w3.org/2000/svg">
<path d="M0.0483398 31.4083V0.199951H14.2775C16.8035 0.199951 18.9754 0.658285 20.7983 1.57495C22.6317 2.4812 24.0483 3.76245 25.0483 5.42912C26.0483 7.08537 26.5483 9.06974 26.5483 11.3875C26.5483 13.5541 26.0952 15.45 25.1942 17.075C24.3035 18.7 23.0275 19.9708 21.3608 20.8875L27.1108 31.4083H16.9025L12.4442 22.5333H9.06917V31.4083H0.0483398ZM8.88167 15.3666H13.0692C14.4963 15.3666 15.59 15.0281 16.34 14.3458C17.1004 13.6531 17.4858 12.6791 17.4858 11.4291C17.4858 10.1791 17.1004 9.22079 16.34 8.55412C15.59 7.88745 14.4963 7.55412 13.0692 7.55412H8.88167V15.3666Z" fill="#690061"/>
</svg>
