<svg width="16" height="25" viewBox="0 0 16 25" fill="none" xmlns="http://www.w3.org/2000/svg">
<path d="M0.572266 0.346313H3.32227V10.4088H3.5931C4.00977 9.44006 4.69727 8.61715 5.6556 7.95048C6.62435 7.2734 7.80143 6.92965 9.17643 6.92965C10.6035 6.92965 11.8014 7.2734 12.7598 7.95048C13.7285 8.61715 14.4473 9.50256 14.9056 10.5963C15.3639 11.6953 15.5931 12.8828 15.5931 14.1588V24.2421H12.8223V14.513C12.8223 12.8463 12.39 11.5755 11.5306 10.7005C10.666 9.82548 9.52018 9.38798 8.0931 9.38798C6.72852 9.38798 5.5931 9.84631 4.67643 10.763C3.77018 11.6796 3.32227 12.9296 3.32227 14.513V24.2421H0.572266V0.346313Z" fill="black"/>
</svg>
