<svg width="12" height="14" viewBox="0 0 12 14" fill="none" xmlns="http://www.w3.org/2000/svg">
<path d="M5.79085 13.0671C4.5096 13.0671 3.43669 12.7754 2.56169 12.1921C1.6971 11.6088 1.06169 10.8483 0.64502 9.90043C0.228353 8.95772 0.0200195 7.9421 0.0200195 6.85876C0.0200195 5.76502 0.228353 4.74418 0.64502 3.79626C1.06169 2.85356 1.6971 2.08793 2.56169 1.5046C3.43669 0.910847 4.52523 0.608765 5.83252 0.608765C7.52523 0.608765 8.86377 1.14522 9.85335 2.21293C10.8534 3.28585 11.3534 4.83272 11.3534 6.85876V7.8171H3.41585V8.0046C3.41585 8.6296 3.62939 9.16606 4.06169 9.60876C4.48877 10.0567 5.04085 10.2754 5.70752 10.2754C6.21794 10.2754 6.65544 10.1608 7.02002 9.92126C7.39502 9.68689 7.65023 9.37439 7.79085 8.98376H11.27C10.9627 10.1817 10.3377 11.1608 9.39502 11.9213C8.4471 12.6869 7.24919 13.0671 5.79085 13.0671ZM7.97835 5.5671C7.96273 4.74939 7.75439 4.14522 7.35335 3.7546C6.9471 3.35356 6.42106 3.15043 5.77002 3.15043C5.08773 3.15043 4.54606 3.36918 4.14502 3.79626C3.73877 4.21293 3.53044 4.80668 3.52002 5.5671H7.97835Z" fill="black"/>
</svg>
