<svg width="12" height="15" viewBox="0 0 12 15" fill="none" xmlns="http://www.w3.org/2000/svg">
<path d="M11.6086 7.92289H2.60856C2.66065 9.52185 3.04606 10.6937 3.75439 11.4437C4.46273 12.1833 5.43148 12.5479 6.67106 12.5479C7.59814 12.5479 8.34814 12.3812 8.92106 12.0479C9.48877 11.7146 9.93148 11.1937 10.2544 10.4854H10.5044L11.7752 11.2354C11.4002 12.1833 10.7856 12.9229 9.94189 13.4646C9.10856 14.0062 8.01481 14.2771 6.67106 14.2771C5.40544 14.2771 4.31689 14.0271 3.40023 13.5271C2.49398 13.0271 1.79606 12.2719 1.29606 11.2562C0.806477 10.2458 0.566895 8.98539 0.566895 7.48539C0.566895 6.00102 0.822103 4.75102 1.33773 3.73539C1.86377 2.70935 2.5721 1.94373 3.46273 1.44373C4.36377 0.943726 5.38981 0.693726 6.54606 0.693726C8.22314 0.693726 9.53565 1.16768 10.4836 2.11039C11.4263 3.05831 11.9002 4.45935 11.9002 6.31873C11.9002 7.04268 11.8846 7.52706 11.8586 7.77706L11.6086 7.92289ZM9.98356 6.31873C9.95231 4.91768 9.65023 3.90206 9.06689 3.27706C8.48356 2.64164 7.63981 2.31873 6.54606 2.31873C5.40544 2.31873 4.50439 2.64164 3.83773 3.27706C3.18148 3.91768 2.78565 4.93331 2.65023 6.31873H9.98356Z" fill="black"/>
</svg>
