<svg width="22" height="24" viewBox="0 0 22 24" fill="none" xmlns="http://www.w3.org/2000/svg">
<path d="M11.2341 23.4159C8.92684 23.4159 6.98413 22.869 5.4008 21.77C3.82788 20.6607 2.65601 19.2075 1.87996 17.4159C1.11434 15.6242 0.734131 13.7284 0.734131 11.7284C0.734131 9.71796 1.11434 7.82212 1.87996 6.04087C2.65601 4.26483 3.8383 2.82733 5.42163 1.72837C7.01538 0.618999 8.96851 0.0617065 11.2758 0.0617065C14.2862 0.0617065 16.6977 1.07212 18.505 3.08254C20.307 5.09817 21.2133 7.994 21.2133 11.77V12.8117H4.4008V13.1034C4.4008 14.3534 4.68205 15.5357 5.25496 16.645C5.82267 17.7596 6.61955 18.6555 7.6508 19.3325C8.67684 20.0148 9.85913 20.3534 11.1925 20.3534C12.6352 20.3534 13.8852 19.9888 14.9425 19.2492C15.9945 18.5148 16.781 17.5148 17.2966 16.2492H20.9216C20.3227 18.3065 19.2029 20.0148 17.5675 21.3742C15.9268 22.7388 13.8175 23.4159 11.2341 23.4159ZM17.5883 10.2075C17.4737 7.65546 16.8487 5.8065 15.7133 4.66587C14.5727 3.53046 13.0779 2.95754 11.2341 2.95754C9.21851 2.95754 7.61434 3.62421 6.42163 4.95754C5.22371 6.29087 4.5883 8.04087 4.50496 10.2075H17.5883Z" fill="black"/>
</svg>
