<svg width="17" height="27" viewBox="0 0 17 27" fill="none" xmlns="http://www.w3.org/2000/svg">
<path d="M0.282715 0.347168H3.26188V11.2638H3.53271C3.99105 10.2118 4.74105 9.32113 5.78271 8.59717C6.82438 7.86279 8.09521 7.493 9.59521 7.493C11.1473 7.493 12.4494 7.86279 13.491 8.59717C14.5327 9.32113 15.2931 10.2795 15.7827 11.4722C16.2827 12.6545 16.5327 13.9409 16.5327 15.3263V26.243H13.5535V15.7013C13.5535 13.8993 13.0796 12.5243 12.1369 11.5763C11.2046 10.6336 9.97021 10.1597 8.42855 10.1597C6.93896 10.1597 5.70459 10.6597 4.72021 11.6597C3.74626 12.6493 3.26188 13.993 3.26188 15.7013V26.243H0.282715V0.347168Z" fill="black"/>
</svg>
