<svg width="18" height="26" viewBox="0 0 18 26" fill="none" xmlns="http://www.w3.org/2000/svg">
<path d="M9.14421 21.4679C8.77962 22.3534 8.42546 23.0773 8.08171 23.6346C7.74837 24.2023 7.19629 24.7388 6.43587 25.2388C5.68587 25.7492 4.69108 26.0096 3.45671 26.0096C2.81608 26.0096 2.12858 25.9159 1.39421 25.7388V23.5304C1.93587 23.6138 2.41504 23.6554 2.83171 23.6554C3.59212 23.6554 4.20671 23.5096 4.66504 23.2179C5.13379 22.9367 5.50358 22.5617 5.76921 22.0929C6.02962 21.6346 6.35254 20.9679 6.72754 20.0929L7.56087 18.0513L0.790039 0.67627H3.91504L9.01921 14.7596H9.22754L14.5609 0.67627H17.6859L9.14421 21.4679Z" fill="black"/>
</svg>
