<svg width="25" height="31" viewBox="0 0 25 31" fill="none" xmlns="http://www.w3.org/2000/svg">
<path d="M12.8914 30.5821C10.9019 30.5821 9.08415 30.3529 7.43311 29.8946C5.79248 29.4258 4.39144 28.78 3.22477 27.9571C2.05811 27.1393 1.18831 26.2018 0.620605 25.1446L4.68311 20.7904H5.22477C6.19352 22.0821 7.33415 23.056 8.64144 23.7071C9.95915 24.3633 11.3914 24.6862 12.9331 24.6862C14.3602 24.6862 15.4331 24.431 16.1414 23.9154C16.8602 23.405 17.2248 22.6758 17.2248 21.7279C17.2248 20.9935 16.9644 20.3737 16.4539 19.8737C15.9383 19.3737 15.0998 18.9883 13.9331 18.7071L10.0998 17.7904C7.22477 17.0977 5.12061 16.0508 3.78727 14.6446C2.46436 13.2279 1.80811 11.431 1.80811 9.24872C1.80811 7.44663 2.26644 5.87372 3.18311 4.54039C4.11019 3.20705 5.41227 2.19663 7.07894 1.49872C8.75602 0.790385 10.7091 0.436218 12.9331 0.436218C15.5581 0.436218 17.7248 0.821634 19.4331 1.58205C21.1519 2.33205 22.5008 3.34247 23.4748 4.60289L19.5789 8.81122H19.0373C18.23 7.89455 17.3185 7.22789 16.3081 6.81122C15.3081 6.39455 14.1831 6.18622 12.9331 6.18622C10.0581 6.18622 8.62061 7.07684 8.62061 8.85289C8.62061 9.61851 8.88102 10.2383 9.41227 10.7071C9.95394 11.181 10.8966 11.5612 12.2456 11.8529L15.8289 12.6446C18.7716 13.2852 20.9227 14.306 22.2873 15.7071C23.6466 17.0977 24.3289 18.9675 24.3289 21.3112C24.3289 23.1602 23.8706 24.7852 22.9539 26.1862C22.0477 27.5925 20.7352 28.6758 19.0164 29.4362C17.2925 30.1966 15.2508 30.5821 12.8914 30.5821Z" fill="black"/>
</svg>
