<svg width="21" height="24" viewBox="0 0 21 24" fill="none" xmlns="http://www.w3.org/2000/svg">
<path d="M10.8745 23.4159C8.56722 23.4159 6.62451 22.8691 5.04118 21.7701C3.46826 20.6607 2.29639 19.2076 1.52035 17.4159C0.75472 15.6243 0.374512 13.7284 0.374512 11.7284C0.374512 9.71802 0.75472 7.82219 1.52035 6.04093C2.29639 4.26489 3.47868 2.82739 5.06201 1.72843C6.65576 0.61906 8.60889 0.0617676 10.9162 0.0617676C13.9266 0.0617676 16.3381 1.07218 18.1453 3.0826C19.9474 5.09823 20.8537 7.99406 20.8537 11.7701V12.8118H4.04118V13.1034C4.04118 14.3534 4.32243 15.5357 4.89535 16.6451C5.46305 17.7597 6.25993 18.6555 7.29118 19.3326C8.31722 20.0149 9.49951 20.3534 10.8328 20.3534C12.2756 20.3534 13.5256 19.9889 14.5828 19.2493C15.6349 18.5149 16.4214 17.5149 16.937 16.2493H20.562C19.9631 18.3066 18.8433 20.0149 17.2078 21.3743C15.5672 22.7389 13.4578 23.4159 10.8745 23.4159ZM17.2287 10.2076C17.1141 7.65552 16.4891 5.80656 15.3537 4.66593C14.2131 3.53052 12.7183 2.9576 10.8745 2.9576C8.85889 2.9576 7.25472 3.62427 6.06201 4.9576C4.8641 6.29093 4.22868 8.04093 4.14535 10.2076H17.2287Z" fill="black"/>
</svg>
