<svg width="12" height="15" viewBox="0 0 12 15" fill="none" xmlns="http://www.w3.org/2000/svg">
<path d="M4.1901 14.4773C2.89844 14.4773 1.88802 14.1439 1.16927 13.4773C0.445312 12.8002 0.0859375 11.8314 0.0859375 10.5814C0.0859375 9.80538 0.242188 9.15434 0.565104 8.62309C0.882812 8.08142 1.3776 7.64392 2.04427 7.31059C2.72135 6.97725 3.60677 6.72205 4.6901 6.53975C5.64844 6.37309 6.36719 6.196 6.85677 5.99809C7.35677 5.80538 7.6901 5.59184 7.85677 5.35225C8.02344 5.10225 8.10677 4.78975 8.10677 4.41475C8.10677 3.821 7.90365 3.36267 7.5026 3.03975C7.09635 2.72205 6.44531 2.56059 5.54427 2.56059C4.69531 2.56059 3.96615 2.72725 3.35677 3.06059C2.75781 3.39392 2.20052 3.88351 1.6901 4.51892H1.46094L0.502604 3.18559C1.05469 2.47725 1.75781 1.92517 2.60677 1.51892C3.46615 1.10225 4.44531 0.893921 5.54427 0.893921C7.08594 0.893921 8.21615 1.23767 8.9401 1.91475C9.67448 2.58142 10.0443 3.51371 10.0443 4.70642V11.6439C10.0443 12.3835 10.3568 12.7481 10.9818 12.7481C11.1745 12.7481 11.3672 12.7168 11.5651 12.6439L11.7318 12.6856L11.9609 14.0189C11.8203 14.1179 11.6328 14.196 11.3984 14.2481C11.1589 14.3002 10.9193 14.3314 10.6693 14.3314C9.96094 14.3314 9.41927 14.1752 9.04427 13.8523C8.67969 13.5345 8.44531 13.071 8.33594 12.4564L8.08594 12.4148C7.71094 13.1127 7.20052 13.6335 6.5651 13.9773C5.9401 14.3106 5.14844 14.4773 4.1901 14.4773ZM4.6276 12.9356C5.34635 12.9356 5.97135 12.7689 6.5026 12.4356C7.04427 12.0918 7.45052 11.6179 7.73177 11.0189C8.02344 10.4095 8.16927 9.70121 8.16927 8.89392V7.22725L7.9401 7.18559C7.64844 7.39392 7.29427 7.571 6.8776 7.70642C6.46094 7.84705 5.8776 7.97205 5.1276 8.08142C4.36198 8.18038 3.75781 8.34184 3.3151 8.56059C2.86719 8.76892 2.54948 9.03975 2.35677 9.37309C2.15885 9.696 2.0651 10.097 2.0651 10.5814C2.0651 11.347 2.28385 11.9304 2.73177 12.3314C3.1901 12.7377 3.82031 12.9356 4.6276 12.9356Z" fill="black"/>
</svg>
