<svg width="34" height="32" viewBox="0 0 34 32" fill="none" xmlns="http://www.w3.org/2000/svg">
<path d="M17.0355 31.5296C13.7438 31.5296 10.8324 30.8733 8.30632 29.5712C5.79069 28.2535 3.83236 26.4202 2.43132 24.0712C1.02506 21.7119 0.327148 19.0192 0.327148 15.9879C0.327148 12.9462 1.03548 10.2744 2.45215 7.96708C3.87923 5.64937 5.85319 3.82125 8.36882 2.48792C10.8792 1.15458 13.7699 0.487915 17.0355 0.487915C19.9209 0.487915 22.5199 1.00875 24.8271 2.05042C27.1449 3.08166 29.0563 4.54 30.5563 6.42542C32.0563 8.31604 33.0042 10.54 33.4105 13.0921H23.4105C22.8271 11.915 21.9834 10.9879 20.8896 10.3212C19.7907 9.65458 18.5407 9.32125 17.1396 9.32125C15.249 9.32125 13.7126 9.94625 12.5355 11.1962C11.3532 12.4358 10.7646 14.0296 10.7646 15.9879C10.7646 17.9879 11.3532 19.6077 12.5355 20.8421C13.7126 22.0817 15.249 22.6962 17.1396 22.6962C18.6501 22.6962 19.973 22.3108 21.098 21.5296C22.2334 20.7535 23.0615 19.6962 23.5771 18.3629H33.6813C33.2334 21.0296 32.2542 23.3577 30.7438 25.3421C29.2282 27.316 27.3063 28.8421 24.973 29.9254C22.6396 30.9931 19.9938 31.5296 17.0355 31.5296Z" fill="#690061"/>
</svg>
