<svg width="17" height="25" viewBox="0 0 17 25" fill="none" xmlns="http://www.w3.org/2000/svg">
<path d="M9.30143 18.4714C7.82747 18.4714 6.61914 18.112 5.67643 17.388C4.74414 16.6536 4.02018 15.7839 3.50977 14.7839H3.2806V24.7422H0.509766V1.38802H3.2806V4.51302H3.50977C3.97852 3.52865 4.67643 2.6901 5.5931 1.99219C6.50977 1.28385 7.70768 0.929688 9.19727 0.929688C10.7233 0.929688 12.0202 1.3151 13.0931 2.07552C14.1764 2.82552 14.9941 3.86719 15.5514 5.20052C16.1035 6.53385 16.3848 8.03385 16.3848 9.70052C16.3848 11.3672 16.1035 12.862 15.5514 14.1797C14.9941 15.5026 14.1816 16.5495 13.1139 17.3255C12.041 18.0911 10.7702 18.4714 9.30143 18.4714ZM8.44727 16.0964C10.0983 16.0964 11.3535 15.4922 12.2181 14.2839C13.0931 13.0651 13.5306 11.5339 13.5306 9.70052C13.5306 7.88281 13.0983 6.36719 12.2389 5.15885C11.39 3.9401 10.1243 3.32552 8.44727 3.32552C6.7806 3.32552 5.50977 3.9401 4.63477 5.15885C3.77018 6.36719 3.3431 7.88281 3.3431 9.70052C3.3431 11.5078 3.7806 13.0286 4.6556 14.263C5.5306 15.487 6.79102 16.0964 8.44727 16.0964Z" fill="black"/>
</svg>
