<svg width="51" height="50" viewBox="0 0 51 50" fill="none" xmlns="http://www.w3.org/2000/svg">
<path d="M0.0532227 49.9688V2.01042H12.5532L14.3657 6.90625C16.1157 4.90625 18.3501 3.36458 21.0741 2.28125C23.7928 1.19792 26.7616 0.65625 29.9699 0.65625C36.1366 0.65625 41.0168 2.57292 44.6157 6.40625C48.2095 10.2396 50.0116 15.3958 50.0116 21.8646V49.9688H32.5949V23.6771C32.5949 20.8333 31.9386 18.6875 30.6366 17.2396C29.3449 15.7812 27.5428 15.0521 25.2407 15.0521C22.8241 15.0521 20.9178 15.8438 19.5324 17.4271C18.1418 19 17.4491 21.2344 17.4491 24.1354V49.9688H0.0532227Z" fill="#690061"/>
</svg>
