<svg width="19" height="24" viewBox="0 0 19 24" fill="none" xmlns="http://www.w3.org/2000/svg">
<path d="M9.75228 23.4159C7.92936 23.4159 6.35645 23.0565 5.02311 22.3325C3.68978 21.6138 2.66895 20.6815 1.96061 19.5409C1.26269 18.4055 0.918945 17.2075 0.918945 15.9575V15.7492H4.58561V15.9159C4.58561 16.6242 4.78353 17.3325 5.18978 18.0409C5.59082 18.7388 6.18978 19.3065 6.98145 19.7492C7.77311 20.1815 8.73665 20.395 9.87728 20.395C11.2367 20.395 12.3617 20.0617 13.2523 19.395C14.1533 18.7284 14.6064 17.8117 14.6064 16.645C14.6064 15.6763 14.2575 14.9055 13.5648 14.3325C12.8669 13.7648 11.9919 13.395 10.9398 13.2284L8.00228 12.8117C6.15332 12.52 4.60645 11.8898 3.35645 10.9159C2.10645 9.9315 1.48145 8.49921 1.48145 6.62421C1.48145 4.54087 2.22103 2.9315 3.71061 1.79087C5.21061 0.639832 7.12728 0.0617065 9.46061 0.0617065C11.195 0.0617065 12.6794 0.384623 13.9189 1.02004C15.1533 1.66067 16.096 2.49921 16.7523 3.54087C17.4033 4.57212 17.7314 5.69712 17.7314 6.91587V7.08254H14.0648V6.99921C14.0648 6.4315 13.9085 5.83254 13.6064 5.20754C13.3148 4.58254 12.8044 4.05129 12.0856 3.60337C11.3773 3.14504 10.471 2.91587 9.37728 2.91587C8.00228 2.91587 6.90332 3.24921 6.08561 3.91587C5.26269 4.58254 4.85645 5.45754 4.85645 6.54087C4.85645 7.41587 5.17936 8.13983 5.83561 8.70754C6.48665 9.28046 7.30436 9.64504 8.29395 9.81171L11.5023 10.3325C13.3773 10.6398 14.9502 11.2857 16.2314 12.27C17.5075 13.2596 18.1481 14.7023 18.1481 16.6034C18.1481 17.968 17.7835 19.1607 17.0648 20.1867C16.3408 21.2023 15.3408 21.994 14.0648 22.5617C12.7835 23.1294 11.346 23.4159 9.75228 23.4159Z" fill="black"/>
</svg>
