<svg width="11" height="24" viewBox="0 0 11 24" fill="none" xmlns="http://www.w3.org/2000/svg">
<path d="M6.77913 8.59631V18.388C6.77913 19.1692 6.81038 19.7421 6.8833 20.1171C6.96663 20.4921 7.16455 20.7942 7.48747 21.013C7.8208 21.2213 8.36247 21.3255 9.11247 21.3255C9.62288 21.3255 10.1802 21.2526 10.7791 21.0963V23.0755C10.6229 23.1484 10.3 23.2109 9.79997 23.263C9.29997 23.3307 8.77913 23.3671 8.23747 23.3671C6.99788 23.3671 6.07601 23.1953 5.46663 22.8463C4.86768 22.4869 4.47705 22.0078 4.29997 21.4088C4.11768 20.7994 4.02913 19.9921 4.02913 18.9921V8.59631H0.883301V6.38798H4.02913V0.846313H6.77913V6.38798H10.7791V8.59631H6.77913Z" fill="black"/>
</svg>
