<svg width="16" height="25" viewBox="0 0 16 25" fill="none" xmlns="http://www.w3.org/2000/svg">
<path d="M0.29834 0.346313H3.04834V10.4088H3.31917C3.73584 9.44006 4.42334 8.61715 5.38167 7.95048C6.35042 7.2734 7.52751 6.92965 8.90251 6.92965C10.3296 6.92965 11.5275 7.2734 12.4858 7.95048C13.4546 8.61715 14.1733 9.50256 14.6317 10.5963C15.09 11.6953 15.3192 12.8828 15.3192 14.1588V24.2421H12.5483V14.513C12.5483 12.8463 12.116 11.5755 11.2567 10.7005C10.3921 9.82548 9.24626 9.38798 7.81917 9.38798C6.45459 9.38798 5.31917 9.84631 4.40251 10.763C3.49626 11.6796 3.04834 12.9296 3.04834 14.513V24.2421H0.29834V0.346313Z" fill="black"/>
</svg>
