<svg width="13" height="15" viewBox="0 0 13 15" fill="none" xmlns="http://www.w3.org/2000/svg">
<path d="M6.26351 14.4773C5.02393 14.4773 3.95101 14.222 3.03434 13.7064C2.11768 13.1804 1.40934 12.4095 0.909342 11.3939C0.419758 10.3679 0.180176 9.1335 0.180176 7.68559C0.180176 6.24288 0.419758 5.01371 0.909342 3.99809C1.40934 2.97205 2.11768 2.20121 3.03434 1.68559C3.95101 1.15955 5.02393 0.893921 6.26351 0.893921C7.49788 0.893921 8.56559 1.15955 9.47184 1.68559C10.3885 2.20121 11.0864 2.97205 11.576 3.99809C12.076 5.01371 12.326 6.24288 12.326 7.68559C12.326 9.1335 12.076 10.3679 11.576 11.3939C11.0864 12.4095 10.3885 13.1804 9.47184 13.7064C8.56559 14.222 7.49788 14.4773 6.26351 14.4773ZM6.26351 12.7481C7.56559 12.7481 8.56038 12.3418 9.24268 11.5189C9.93538 10.6856 10.2843 9.40955 10.2843 7.68559C10.2843 5.95121 9.93538 4.67517 9.24268 3.85225C8.56038 3.03455 7.56559 2.62309 6.26351 2.62309C4.95622 2.62309 3.95101 3.03975 3.24268 3.87309C2.54476 4.696 2.20101 5.96684 2.20101 7.68559C2.20101 9.40955 2.54476 10.6856 3.24268 11.5189C3.95101 12.3418 4.95622 12.7481 6.26351 12.7481Z" fill="black"/>
</svg>
