<svg width="20" height="24" viewBox="0 0 20 24" fill="none" xmlns="http://www.w3.org/2000/svg">
<path d="M19.8264 23.1242H16.1181V18.8534H15.8681C15.2691 20.1606 14.3525 21.2648 13.1181 22.1659C11.8785 23.0565 10.3681 23.4992 8.57642 23.4992C6.70142 23.4992 5.1285 23.0513 3.86808 22.145C2.61808 21.2284 1.70142 20.0513 1.11808 18.6034C0.545167 17.1606 0.263916 15.5825 0.263916 13.8742V0.64502H3.93058V13.395C3.93058 15.5929 4.47746 17.2804 5.57642 18.4575C6.68579 19.6398 8.13892 20.2284 9.93058 20.2284C11.8056 20.2284 13.3056 19.5981 14.4306 18.3325C15.5556 17.0721 16.1181 15.4263 16.1181 13.395V0.64502H19.8264V23.1242Z" fill="black"/>
</svg>
