<svg width="18" height="26" viewBox="0 0 18 26" fill="none" xmlns="http://www.w3.org/2000/svg">
<path d="M8.7028 21.4679C8.33822 22.3534 7.98405 23.0773 7.6403 23.6346C7.30697 24.2023 6.75488 24.7388 5.99447 25.2388C5.24447 25.7492 4.24967 26.0096 3.0153 26.0096C2.37467 26.0096 1.68717 25.9159 0.952799 25.7388V23.5304C1.49447 23.6138 1.97363 23.6554 2.3903 23.6554C3.15072 23.6554 3.7653 23.5096 4.22363 23.2179C4.69238 22.9367 5.06217 22.5617 5.3278 22.0929C5.58822 21.6346 5.91113 20.9679 6.28613 20.0929L7.11947 18.0513L0.348633 0.67627H3.47363L8.5778 14.7596H8.78613L14.1195 0.67627H17.2445L8.7028 21.4679Z" fill="black"/>
</svg>
