<svg width="9" height="19" viewBox="0 0 9 19" fill="none" xmlns="http://www.w3.org/2000/svg">
<path d="M5.33382 6.47481V14.6206C5.33382 15.2873 5.35986 15.7821 5.41716 16.0998C5.48486 16.4071 5.65674 16.6519 5.93799 16.829C6.21403 16.9956 6.66716 17.079 7.29216 17.079C7.71924 17.079 8.17757 17.0165 8.66716 16.8915V18.5581C8.55257 18.5998 8.28174 18.6519 7.85466 18.704C7.43799 18.7561 7.0057 18.7873 6.56299 18.7873C5.53174 18.7873 4.7609 18.6415 4.25049 18.3498C3.75049 18.0581 3.42236 17.6623 3.27132 17.1623C3.11507 16.6519 3.04216 15.9748 3.04216 15.1415V6.47481H0.437988V4.62065H3.04216V0.0164795H5.33382V4.62065H8.66716V6.47481H5.33382Z" fill="black"/>
</svg>
