<svg width="17" height="20" viewBox="0 0 17 20" fill="none" xmlns="http://www.w3.org/2000/svg">
<path d="M0.462158 1.32829H3.44132V4.61995H3.71216C4.17049 3.56787 4.92049 2.67725 5.96216 1.95329C7.00383 1.21891 8.27466 0.849121 9.77466 0.849121C11.3267 0.849121 12.6288 1.21891 13.6705 1.95329C14.7122 2.67725 15.4726 3.63558 15.9622 4.82829C16.4622 6.01058 16.7122 7.29704 16.7122 8.68245V19.5991H13.733V9.05746C13.733 7.25537 13.259 5.88037 12.3163 4.93245C11.384 3.98975 10.1705 3.51579 8.67049 3.51579C7.07153 3.51579 5.8007 4.03141 4.85799 5.05745C3.91007 6.08871 3.44132 7.42204 3.44132 9.05746V19.5991H0.462158V1.32829Z" fill="#690061"/>
</svg>
