<svg width="17" height="19" viewBox="0 0 17 19" fill="none" xmlns="http://www.w3.org/2000/svg">
<path d="M8.83757 18.4714C7.12923 18.4714 5.67611 18.0651 4.4834 17.2422C3.30111 16.4089 2.41048 15.3255 1.81673 13.9922C1.21777 12.6589 0.920898 11.2318 0.920898 9.70052C0.920898 8.15885 1.21777 6.72135 1.81673 5.38802C2.41048 4.05469 3.30111 2.98177 4.4834 2.15885C5.67611 1.34115 7.12923 0.929688 8.83757 0.929688C10.5459 0.929688 11.9886 1.34115 13.1709 2.15885C14.348 2.98177 15.2334 4.0651 15.8167 5.40885C16.4105 6.75781 16.7126 8.1901 16.7126 9.70052C16.7126 11.2161 16.4105 12.6484 15.8167 13.9922C15.2178 15.3255 14.3219 16.4089 13.1292 17.2422C11.9469 18.0651 10.5146 18.4714 8.83757 18.4714ZM8.83757 16.0964C9.87923 16.0964 10.7855 15.8151 11.5667 15.2422C12.3428 14.6589 12.9313 13.8828 13.3376 12.9089C13.7386 11.9401 13.9417 10.8568 13.9417 9.65885C13.9417 7.82552 13.4834 6.30469 12.5667 5.09635C11.6501 3.8776 10.4053 3.26302 8.83757 3.26302C7.76465 3.26302 6.84277 3.55469 6.06673 4.13802C5.28548 4.71094 4.69173 5.48177 4.27507 6.45052C3.86882 7.42448 3.6709 8.49219 3.6709 9.65885C3.6709 11.4922 4.12923 13.0286 5.0459 14.263C5.97298 15.487 7.23861 16.0964 8.83757 16.0964Z" fill="black"/>
</svg>
