<svg width="13" height="15" viewBox="0 0 13 15" fill="none" xmlns="http://www.w3.org/2000/svg">
<path d="M6.66455 14.8706C5.21663 14.8706 4.00309 14.5269 3.01872 13.829C2.02913 13.1363 1.29476 12.2352 0.810384 11.1206C0.336425 9.99565 0.102051 8.80815 0.102051 7.55815C0.102051 6.29773 0.336425 5.11023 0.810384 3.99565C1.29476 2.88627 2.03955 1.99044 3.03955 1.30815C4.03955 0.615438 5.25309 0.266479 6.68538 0.266479C8.5708 0.266479 10.0812 0.901896 11.2062 2.16231C12.3416 3.41231 12.9146 5.22481 12.9146 7.59981V8.22481H2.39372V8.41231C2.39372 9.20398 2.5708 9.94877 2.93538 10.6415C3.29476 11.3238 3.79476 11.8811 4.43538 12.3081C5.0708 12.7404 5.81038 12.954 6.64372 12.954C7.54476 12.954 8.3208 12.7248 8.97705 12.2665C9.64372 11.7977 10.1333 11.1727 10.4562 10.3915H12.7271C12.3521 11.6727 11.6489 12.7404 10.6229 13.5998C9.60726 14.4488 8.28955 14.8706 6.66455 14.8706ZM10.6437 6.59981C10.5708 5.00606 10.175 3.84981 9.45622 3.14148C8.74788 2.43315 7.81559 2.07898 6.66455 2.07898C5.39893 2.07898 4.39372 2.49565 3.64372 3.32898C2.90413 4.16231 2.5083 5.25606 2.45622 6.59981H10.6437Z" fill="black"/>
</svg>
