<svg width="11" height="24" viewBox="0 0 11 24" fill="none" xmlns="http://www.w3.org/2000/svg">
<path d="M6.37093 8.59631V18.388C6.37093 19.1692 6.40218 19.7421 6.4751 20.1171C6.55843 20.4921 6.75635 20.7942 7.07926 21.013C7.4126 21.2213 7.95426 21.3255 8.70426 21.3255C9.21468 21.3255 9.77197 21.2526 10.3709 21.0963V23.0755C10.2147 23.1484 9.89176 23.2109 9.39176 23.263C8.89176 23.3307 8.37093 23.3671 7.82926 23.3671C6.58968 23.3671 5.66781 23.1953 5.05843 22.8463C4.45947 22.4869 4.06885 22.0078 3.89176 21.4088C3.70947 20.7994 3.62093 19.9921 3.62093 18.9921V8.59631H0.475098V6.38798H3.62093V0.846313H6.37093V6.38798H10.3709V8.59631H6.37093Z" fill="black"/>
</svg>
