<svg width="14" height="31" viewBox="0 0 14 31" fill="none" xmlns="http://www.w3.org/2000/svg">
<path d="M7.96859 10.5853V23.6478C7.96859 24.6895 8.01546 25.4603 8.11442 25.9603C8.2238 26.4603 8.49463 26.8561 8.92692 27.1478C9.36963 27.429 10.0936 27.5645 11.0936 27.5645C11.7707 27.5645 12.5103 27.4707 13.3019 27.2728V29.9186C13.104 30.002 12.6769 30.0853 12.0103 30.1686C11.3436 30.252 10.6561 30.2936 9.94775 30.2936C8.2915 30.2936 7.05713 30.0645 6.23942 29.6061C5.43213 29.1374 4.90609 28.4967 4.65609 27.6895C4.4165 26.8717 4.30192 25.7936 4.30192 24.4603V10.5853H0.135254V7.64779H4.30192V0.251953H7.96859V7.64779H13.3019V10.5853H7.96859Z" fill="#690061"/>
</svg>
