<svg width="16" height="19" viewBox="0 0 16 19" fill="none" xmlns="http://www.w3.org/2000/svg">
<path d="M8.47217 18.4714C6.74821 18.4714 5.28988 18.0547 4.09717 17.2214C2.91488 16.388 2.03467 15.2995 1.45133 13.9505C0.878419 12.6068 0.597168 11.1901 0.597168 9.70052C0.597168 8.1901 0.878419 6.76302 1.45133 5.42969C2.03467 4.09635 2.92009 3.01302 4.118 2.17969C5.31071 1.34635 6.77425 0.929688 8.51383 0.929688C10.7743 0.929688 12.5815 1.6901 13.9305 3.20052C15.2899 4.71615 15.9722 6.88802 15.9722 9.72135V10.4922H3.34717V10.7214C3.34717 11.6693 3.56071 12.5547 3.993 13.388C4.42009 14.2109 5.01904 14.8776 5.78467 15.388C6.54509 15.9036 7.43571 16.1589 8.45133 16.1589C9.53467 16.1589 10.4722 15.8828 11.2638 15.3255C12.0555 14.7734 12.6388 14.0286 13.0138 13.0964H15.743C15.2951 14.6276 14.4565 15.9036 13.2222 16.9297C11.9982 17.9609 10.4149 18.4714 8.47217 18.4714ZM13.243 8.55469C13.1597 6.6276 12.6857 5.23698 11.8263 4.38802C10.9774 3.52865 9.85758 3.09635 8.47217 3.09635C6.95654 3.09635 5.74821 3.60677 4.84717 4.61719C3.95654 5.61719 3.48258 6.92969 3.4305 8.55469H13.243Z" fill="black"/>
</svg>
