<svg width="12" height="14" viewBox="0 0 12 14" fill="none" xmlns="http://www.w3.org/2000/svg">
<path d="M6.03141 13.0671C4.75016 13.0671 3.67725 12.7911 2.80225 12.2338C1.93766 11.6661 1.29183 10.9161 0.864746 9.98376C0.448079 9.04106 0.239746 7.99939 0.239746 6.85876C0.239746 5.72335 0.448079 4.68168 0.864746 3.73376C1.29183 2.79106 1.93766 2.03585 2.80225 1.46293C3.67725 0.895223 4.75016 0.608765 6.03141 0.608765C7.29183 0.608765 8.35433 0.895223 9.21891 1.46293C10.0939 2.02022 10.7397 2.77022 11.1564 3.71293C11.5835 4.66085 11.8022 5.70251 11.8022 6.83793C11.8022 7.96293 11.5835 8.99939 11.1564 9.9421C10.7397 10.89 10.0939 11.6452 9.21891 12.2129C8.35433 12.7858 7.29183 13.0671 6.03141 13.0671ZM6.03141 10.2338C6.80745 10.2338 7.38558 9.91085 7.76058 9.2546C8.146 8.60356 8.34391 7.79106 8.34391 6.8171C8.34391 5.83272 8.146 5.02543 7.76058 4.40043C7.38558 3.76502 6.80745 3.4421 6.03141 3.4421C5.23975 3.4421 4.65641 3.76502 4.28141 4.40043C3.90641 5.04106 3.71891 5.84835 3.71891 6.8171C3.71891 7.79106 3.90641 8.60356 4.28141 9.2546C4.66683 9.91085 5.25016 10.2338 6.03141 10.2338Z" fill="black"/>
</svg>
