<svg width="5" height="8" viewBox="0 0 5 8" fill="none" xmlns="http://www.w3.org/2000/svg">
<path d="M0.972168 6.01888C1.69092 5.60221 2.27425 5.13346 2.72217 4.60221C3.16488 4.06055 3.39925 3.49805 3.4305 2.91471C2.95654 2.91471 2.58154 2.78971 2.3055 2.53971C2.03988 2.28971 1.90967 1.95638 1.90967 1.53971C1.90967 1.12305 2.03467 0.784506 2.28467 0.51888C2.54509 0.258464 2.89404 0.123047 3.32633 0.123047C3.79509 0.123047 4.17009 0.289714 4.45133 0.623047C4.743 0.945963 4.88883 1.44596 4.88883 2.12305C4.88883 3.20638 4.618 4.15951 4.07633 4.97721C3.54509 5.80013 2.76904 6.55013 1.743 7.22721L0.972168 6.01888Z" fill="black"/>
</svg>
