<svg width="21" height="24" viewBox="0 0 21 24" fill="none" xmlns="http://www.w3.org/2000/svg">
<path d="M11.0146 23.4159C8.70736 23.4159 6.76465 22.869 5.18132 21.77C3.6084 20.6607 2.43652 19.2075 1.66048 17.4159C0.894856 15.6242 0.514648 13.7284 0.514648 11.7284C0.514648 9.71796 0.894856 7.82212 1.66048 6.04087C2.43652 4.26483 3.61882 2.82733 5.20215 1.72837C6.7959 0.618999 8.74902 0.0617065 11.0563 0.0617065C14.0667 0.0617065 16.4782 1.07212 18.2855 3.08254C20.0876 5.09817 20.9938 7.994 20.9938 11.77V12.8117H4.18132V13.1034C4.18132 14.3534 4.46257 15.5357 5.03548 16.645C5.60319 17.7596 6.40006 18.6555 7.43132 19.3325C8.45736 20.0148 9.63965 20.3534 10.973 20.3534C12.4157 20.3534 13.6657 19.9888 14.723 19.2492C15.7751 18.5148 16.5615 17.5148 17.0771 16.2492H20.7021C20.1032 18.3065 18.9834 20.0148 17.348 21.3742C15.7074 22.7388 13.598 23.4159 11.0146 23.4159ZM17.3688 10.2075C17.2542 7.65546 16.6292 5.8065 15.4938 4.66587C14.3532 3.53046 12.8584 2.95754 11.0146 2.95754C8.99902 2.95754 7.39486 3.62421 6.20215 4.95754C5.00423 6.29087 4.36882 8.04087 4.28548 10.2075H17.3688Z" fill="black"/>
</svg>
