<svg width="11" height="15" viewBox="0 0 11 15" fill="none" xmlns="http://www.w3.org/2000/svg">
<path d="M0.0102539 14.2273V1.12309H1.86442V3.18559L2.11442 3.24809C2.5415 2.48767 3.09359 1.90434 3.76025 1.49809C4.43734 1.09705 5.27067 0.893921 6.26025 0.893921C7.82796 0.893921 8.96859 1.30017 9.67692 2.10225C10.3853 2.89392 10.7394 4.12309 10.7394 5.78975V14.2273H8.80192V5.85225C8.80192 5.06059 8.69775 4.43038 8.48942 3.95642C8.2915 3.47205 7.979 3.11788 7.55192 2.89392C7.13525 2.67517 6.57796 2.56059 5.88525 2.56059C4.71859 2.56059 3.76546 2.95642 3.03109 3.74809C2.30713 4.52934 1.94775 5.77934 1.94775 7.49809V14.2273H0.0102539Z" fill="black"/>
</svg>
