<svg width="18" height="20" viewBox="0 0 18 20" fill="none" xmlns="http://www.w3.org/2000/svg">
<path d="M9.14673 19.9434C7.29777 19.9434 5.73006 19.5007 4.4384 18.61C3.15714 17.7246 2.1936 16.5579 1.54256 15.11C0.901937 13.6673 0.584229 12.11 0.584229 10.4434C0.584229 8.77669 0.901937 7.22461 1.54256 5.77669C2.1936 4.33398 3.15714 3.16732 4.4384 2.27669C5.73006 1.39128 7.29777 0.943359 9.14673 0.943359C10.9905 0.943359 12.553 1.39128 13.8342 2.27669C15.1259 3.16732 16.0842 4.33919 16.7092 5.79753C17.3446 7.25586 17.6676 8.80794 17.6676 10.4434C17.6676 12.084 17.3394 13.6309 16.6884 15.0892C16.0478 16.5475 15.0842 17.7246 13.7926 18.61C12.5113 19.5007 10.9644 19.9434 9.14673 19.9434ZM9.14673 17.3809C10.2717 17.3809 11.2561 17.0684 12.1051 16.4434C12.9488 15.8184 13.5894 14.9798 14.0217 13.9225C14.4644 12.8704 14.6884 11.6934 14.6884 10.4017C14.6884 8.41732 14.1884 6.76628 13.1884 5.44336C12.1988 4.12565 10.8551 3.46419 9.14673 3.46419C7.99048 3.46419 6.99048 3.77669 6.14673 4.40169C5.29777 5.02669 4.65194 5.87044 4.20923 6.92253C3.77694 7.97982 3.5634 9.14128 3.5634 10.4017C3.5634 12.3913 4.05298 14.0475 5.04256 15.3809C6.04256 16.7142 7.40714 17.3809 9.14673 17.3809Z" fill="#690061"/>
</svg>
