<svg width="17" height="24" viewBox="0 0 17 24" fill="none" xmlns="http://www.w3.org/2000/svg">
<path d="M8.33187 19.5756C7.98291 20.3776 7.65478 21.0443 7.3527 21.5756C7.04541 22.1016 6.5402 22.5964 5.83187 23.0547C5.12354 23.5235 4.20687 23.7631 3.08187 23.7631C2.48291 23.7631 1.84229 23.6797 1.1652 23.5131V21.4714C1.67562 21.5547 2.12354 21.5964 2.49854 21.5964C3.20687 21.5964 3.76937 21.4558 4.18604 21.1797C4.61312 20.9141 4.95687 20.5651 5.20687 20.1381C5.45687 19.7214 5.74854 19.1068 6.08187 18.3047L6.8527 16.4089L0.623535 0.388062H3.49854L8.20687 13.3672H8.39437L13.311 0.388062H16.2069L8.33187 19.5756Z" fill="black"/>
</svg>
