<svg width="16" height="19" viewBox="0 0 16 19" fill="none" xmlns="http://www.w3.org/2000/svg">
<path d="M8.54167 18.4714C6.79167 18.4714 5.3125 18.0547 4.10417 17.2214C2.89583 16.388 2 15.3047 1.41667 13.9714C0.843751 12.638 0.5625 11.2161 0.5625 9.70052C0.5625 8.1901 0.843751 6.76302 1.41667 5.42969C2 4.09635 2.89583 3.01302 4.10417 2.17969C5.3125 1.34635 6.79167 0.929688 8.54167 0.929688C10.7083 0.929688 12.4167 1.5651 13.6667 2.82552C14.9167 4.07552 15.6719 5.61719 15.9375 7.45052H13.25C13.0521 6.21615 12.5625 5.21094 11.7708 4.42969C10.9792 3.65365 9.90625 3.26302 8.5625 3.26302C6.85417 3.26302 5.55208 3.88281 4.66667 5.11719C3.79167 6.34115 3.35417 7.86719 3.35417 9.70052C3.35417 11.5339 3.79167 13.0703 4.66667 14.3047C5.55208 15.5286 6.85417 16.138 8.5625 16.138C9.90625 16.138 10.9792 15.7578 11.7708 14.9922C12.5625 14.2161 13.0521 13.1953 13.25 11.9297H15.9375C15.6719 13.7786 14.9167 15.3359 13.6667 16.5964C12.4167 17.8464 10.7083 18.4714 8.54167 18.4714Z" fill="black"/>
</svg>
