<svg width="11" height="20" viewBox="0 0 11 20" fill="none" xmlns="http://www.w3.org/2000/svg">
<path d="M2.97201 19.027V7.50619H0.701172V5.92285H2.97201C2.83138 5.35514 2.76367 4.81348 2.76367 4.29785C2.76367 3.4541 2.94075 2.73535 3.30534 2.15202C3.66471 1.56868 4.16471 1.1416 4.80534 0.860352C5.44075 0.568685 6.18034 0.422852 7.01367 0.422852C8.33138 0.422852 9.33659 0.70931 10.0345 1.27702L9.28451 2.63119L9.03451 2.67285C8.51888 2.27181 7.84701 2.06868 7.01367 2.06868C6.24805 2.06868 5.66992 2.27181 5.28451 2.67285C4.89388 3.06348 4.70117 3.62077 4.70117 4.33952C4.70117 4.79785 4.76888 5.3291 4.90951 5.92285H9.07617V7.50619H4.90951V19.027H2.97201Z" fill="black"/>
</svg>
