<svg width="15" height="18" viewBox="0 0 15 18" fill="none" xmlns="http://www.w3.org/2000/svg">
<path d="M14.9309 17.0035H12.1601V13.7951H11.9517C11.5038 14.7847 10.8163 15.618 9.88924 16.2951C8.95695 16.9618 7.82674 17.2951 6.49341 17.2951C5.07674 17.2951 3.89445 16.9566 2.95174 16.2743C2.01945 15.5972 1.33195 14.7118 0.889242 13.6285C0.45695 12.5347 0.243408 11.3472 0.243408 10.066V0.149292H2.99341V9.71179C2.99341 11.3524 3.41007 12.618 4.24341 13.5035C5.07674 14.3941 6.16528 14.8368 7.51424 14.8368C8.91528 14.8368 10.0403 14.368 10.8892 13.4201C11.733 12.4618 12.1601 11.2274 12.1601 9.71179V0.149292H14.9309V17.0035Z" fill="black"/>
</svg>
