<svg width="13" height="15" viewBox="0 0 13 15" fill="none" xmlns="http://www.w3.org/2000/svg">
<path d="M4.62175 14.4773C3.33008 14.4773 2.31966 14.1439 1.60091 13.4773C0.876953 12.8002 0.517578 11.8314 0.517578 10.5814C0.517578 9.80538 0.673829 9.15434 0.996745 8.62309C1.31445 8.08142 1.80924 7.64392 2.47591 7.31059C3.15299 6.97725 4.03841 6.72205 5.12175 6.53975C6.08008 6.37309 6.79883 6.196 7.28841 5.99809C7.78841 5.80538 8.12175 5.59184 8.28841 5.35225C8.45508 5.10225 8.53841 4.78975 8.53841 4.41475C8.53841 3.821 8.33529 3.36267 7.93425 3.03975C7.52799 2.72205 6.87695 2.56059 5.97591 2.56059C5.12695 2.56059 4.39779 2.72725 3.78841 3.06059C3.18945 3.39392 2.63216 3.88351 2.12174 4.51892H1.89258L0.934245 3.18559C1.48633 2.47725 2.18945 1.92517 3.03841 1.51892C3.89779 1.10225 4.87695 0.893921 5.97591 0.893921C7.51758 0.893921 8.64779 1.23767 9.37175 1.91475C10.1061 2.58142 10.4759 3.51371 10.4759 4.70642V11.6439C10.4759 12.3835 10.7884 12.7481 11.4134 12.7481C11.6061 12.7481 11.7988 12.7168 11.9967 12.6439L12.1634 12.6856L12.3926 14.0189C12.252 14.1179 12.0645 14.196 11.8301 14.2481C11.5905 14.3002 11.3509 14.3314 11.1009 14.3314C10.3926 14.3314 9.85091 14.1752 9.47591 13.8523C9.11133 13.5345 8.87695 13.071 8.76758 12.4564L8.51758 12.4148C8.14258 13.1127 7.63216 13.6335 6.99675 13.9773C6.37175 14.3106 5.58008 14.4773 4.62175 14.4773ZM5.05925 12.9356C5.77799 12.9356 6.40299 12.7689 6.93425 12.4356C7.47591 12.0918 7.88216 11.6179 8.16341 11.0189C8.45508 10.4095 8.60091 9.70121 8.60091 8.89392V7.22725L8.37175 7.18559C8.08008 7.39392 7.72591 7.571 7.30925 7.70642C6.89258 7.84705 6.30925 7.97205 5.55925 8.08142C4.79362 8.18038 4.18945 8.34184 3.74674 8.56059C3.29883 8.76892 2.98112 9.03975 2.78841 9.37309C2.5905 9.696 2.49674 10.097 2.49674 10.5814C2.49674 11.347 2.7155 11.9304 3.16341 12.3314C3.62174 12.7377 4.25195 12.9356 5.05925 12.9356Z" fill="black"/>
</svg>
