<svg width="17" height="25" viewBox="0 0 17 25" fill="none" xmlns="http://www.w3.org/2000/svg">
<path d="M7.91439 24.4714C6.41439 24.4714 5.13314 24.0911 4.08105 23.3255C3.02376 22.5495 2.21647 21.5026 1.66439 20.1797C1.1071 18.862 0.831055 17.3672 0.831055 15.7005C0.831055 14.0234 1.1071 12.5234 1.66439 11.2005C2.21647 9.86719 3.02897 8.82552 4.10189 8.07552C5.1696 7.3151 6.46126 6.92969 7.97689 6.92969C9.46126 6.92969 10.6696 7.29427 11.6019 8.01302C12.529 8.72135 13.2165 9.55469 13.6644 10.513H13.9144V0.242188H16.6852V24.2422H13.9144V20.7839H13.6644C13.1488 21.8151 12.4248 22.6901 11.4977 23.4089C10.5811 24.1172 9.38314 24.4714 7.91439 24.4714ZM8.74772 22.0964C10.3988 22.0964 11.6644 21.487 12.5394 20.263C13.4144 19.0286 13.8519 17.5078 13.8519 15.7005C13.8519 13.8828 13.4144 12.3672 12.5394 11.1589C11.6644 9.94011 10.3988 9.32552 8.74772 9.32552C7.04981 9.32552 5.77376 9.94011 4.91439 11.1589C4.06543 12.3672 3.64355 13.8828 3.64355 15.7005C3.64355 17.5339 4.07064 19.0651 4.93522 20.2839C5.81022 21.4922 7.08105 22.0964 8.74772 22.0964Z" fill="black"/>
</svg>
