<svg width="18" height="27" viewBox="0 0 18 27" fill="none" xmlns="http://www.w3.org/2000/svg">
<path d="M9.48543 27.0062C8.78752 27.0062 8.22502 26.9541 7.79793 26.8604C7.36564 26.777 6.92814 26.652 6.48543 26.4854V23.9854C6.78752 24.0791 7.19377 24.1729 7.69377 24.2562C8.20418 24.3395 8.70418 24.3812 9.19377 24.3812C10.9958 24.3812 12.35 23.8656 13.2563 22.8395C14.1729 21.8239 14.6313 20.4749 14.6313 18.7979V15.5062H14.3604C13.8708 16.5895 13.0896 17.5062 12.0063 18.2562C10.9334 19.0062 9.64168 19.3812 8.13127 19.3812C6.60002 19.3812 5.25627 18.9958 4.0896 18.2145C2.93335 17.4229 2.03752 16.3343 1.4021 14.9437C0.7771 13.5426 0.4646 11.9385 0.4646 10.1312C0.4646 8.3291 0.7771 6.73014 1.4021 5.33952C2.03752 3.93848 2.93335 2.83952 4.0896 2.04785C5.25627 1.25618 6.60002 0.860352 8.13127 0.860352C9.7146 0.860352 11.0375 1.27702 12.1104 2.11035C13.1938 2.93327 13.9542 3.88119 14.4021 4.96452H14.6313V1.46452H17.6521V18.7979C17.6521 20.0895 17.3865 21.3604 16.8604 22.6104C16.3448 23.8604 15.475 24.902 14.2563 25.7354C13.0323 26.5791 11.4438 27.0062 9.48543 27.0062ZM9.0896 16.8187C10.2667 16.8187 11.2771 16.501 12.1104 15.8604C12.9438 15.2249 13.5584 14.3916 13.9646 13.3604C14.3656 12.3343 14.5688 11.2301 14.5688 10.0479C14.5688 8.89681 14.3656 7.8291 13.9646 6.83952C13.5584 5.83952 12.949 5.02702 12.1313 4.40202C11.3084 3.77702 10.2979 3.46452 9.0896 3.46452C7.30835 3.46452 5.94897 4.11035 5.00627 5.40202C4.07397 6.68327 3.61043 8.23014 3.61043 10.0479C3.61043 11.2562 3.80835 12.376 4.2146 13.402C4.63127 14.4333 5.24585 15.2562 6.06877 15.8812C6.88647 16.5062 7.89168 16.8187 9.0896 16.8187Z" fill="#690061"/>
</svg>
