<svg width="11" height="15" viewBox="0 0 11 15" fill="none" xmlns="http://www.w3.org/2000/svg">
<path d="M0.116699 14.2273V1.12309H1.97087V3.18559L2.22087 3.24809C2.64795 2.48767 3.20003 1.90434 3.8667 1.49809C4.54378 1.09705 5.37712 0.893921 6.3667 0.893921C7.93441 0.893921 9.07503 1.30017 9.78337 2.10225C10.4917 2.89392 10.8459 4.12309 10.8459 5.78975V14.2273H8.90837V5.85225C8.90837 5.06059 8.8042 4.43038 8.59587 3.95642C8.39795 3.47205 8.08545 3.11788 7.65837 2.89392C7.2417 2.67517 6.68441 2.56059 5.9917 2.56059C4.82503 2.56059 3.87191 2.95642 3.13753 3.74809C2.41357 4.52934 2.0542 5.77934 2.0542 7.49809V14.2273H0.116699Z" fill="black"/>
</svg>
