<svg width="21" height="25" viewBox="0 0 21 25" fill="none" xmlns="http://www.w3.org/2000/svg">
<path d="M10.7778 24.3557C8.47054 24.3557 6.52783 23.8088 4.9445 22.7099C3.37158 21.6005 2.19971 20.1474 1.42367 18.3557C0.65804 16.564 0.277832 14.6682 0.277832 12.6682C0.277832 10.6578 0.65804 8.76196 1.42367 6.98071C2.19971 5.20467 3.382 3.76196 4.96533 2.64738C6.55908 1.538 8.51221 0.980713 10.8195 0.980713C13.8299 0.980713 16.2414 1.99634 18.0487 4.02238C19.8507 6.038 20.757 8.93384 20.757 12.7099V13.7307H3.96533V14.0432C3.96533 15.2932 4.24137 16.4755 4.79867 17.5849C5.36637 18.6995 6.16325 19.5953 7.1945 20.2724C8.22054 20.9547 9.40283 21.2932 10.7362 21.2932C12.1945 21.2932 13.4445 20.9286 14.4862 20.189C15.5382 19.439 16.3247 18.439 16.8403 17.189H20.4653C19.8664 19.2463 18.7466 20.9547 17.1112 22.314C15.4862 23.6786 13.3716 24.3557 10.7778 24.3557ZM17.132 11.1265C17.0174 8.57446 16.3924 6.7255 15.257 5.58488C14.1164 4.44946 12.6216 3.87655 10.7778 3.87655C8.76221 3.87655 7.15804 4.55363 5.96533 5.89738C4.76742 7.23071 4.132 8.9755 4.04867 11.1265H17.132Z" fill="#690061"/>
</svg>
