<svg width="18" height="20" viewBox="0 0 18 20" fill="none" xmlns="http://www.w3.org/2000/svg">
<path d="M9.38806 19.8496C7.49744 19.8496 5.89848 19.4017 4.5964 18.4954C3.2891 17.5944 2.32556 16.4225 1.70056 14.9746C1.07556 13.5319 0.763062 11.9902 0.763062 10.3496C0.763062 8.71419 1.07556 7.17253 1.70056 5.72461C2.32556 4.2819 3.2891 3.11003 4.5964 2.20378C5.89848 1.30273 7.49744 0.849609 9.38806 0.849609C11.7474 0.849609 13.6016 1.5319 14.9506 2.89128C16.3099 4.25586 17.1276 5.92773 17.4089 7.91211H14.4922C14.2839 6.57878 13.7474 5.49023 12.8881 4.64128C12.0391 3.79753 10.8881 3.37044 9.42973 3.37044C7.58077 3.37044 6.17973 4.03711 5.2214 5.37044C4.26306 6.70378 3.7839 8.36523 3.7839 10.3496C3.7839 12.3392 4.26306 13.9954 5.2214 15.3288C6.17973 16.6517 7.58077 17.3079 9.42973 17.3079C10.8881 17.3079 12.0391 16.8913 12.8881 16.0579C13.7474 15.2246 14.2839 14.1309 14.4922 12.7663H17.4089C17.1276 14.7559 16.3099 16.4329 14.9506 17.8079C13.6016 19.1725 11.7474 19.8496 9.38806 19.8496Z" fill="black"/>
</svg>
