<svg width="13" height="14" viewBox="0 0 13 14" fill="none" xmlns="http://www.w3.org/2000/svg">
<path d="M6.69295 13.8499C5.40129 13.8499 4.30754 13.5374 3.42212 12.9124C2.53149 12.2874 1.87004 11.4749 1.44295 10.4749C1.01066 9.46452 0.797119 8.3916 0.797119 7.2666C0.797119 6.1416 1.01066 5.0791 1.44295 4.0791C1.87004 3.0791 2.53149 2.2666 3.42212 1.6416C4.32316 1.0166 5.42212 0.704102 6.71379 0.704102C8.40649 0.704102 9.76066 1.27702 10.7763 2.41243C11.8023 3.53744 12.318 5.17285 12.318 7.30827V7.87077H2.85962V8.03744C2.85962 8.74577 3.01587 9.41244 3.33879 10.0374C3.65649 10.6624 4.0992 11.1729 4.67212 11.5583C5.25545 11.9333 5.92212 12.1208 6.67212 12.1208C7.48983 12.1208 8.19295 11.9124 8.77629 11.4958C9.37004 11.0791 9.81795 10.527 10.1096 9.8291H12.1513C11.8023 10.9697 11.1721 11.9281 10.2555 12.7041C9.33879 13.4697 8.15129 13.8499 6.69295 13.8499ZM10.2763 6.41244C10.2034 4.96973 9.8492 3.92806 9.21379 3.28744C8.57316 2.65202 7.73462 2.3291 6.69295 2.3291C5.55233 2.3291 4.65129 2.7041 3.98462 3.4541C3.31795 4.2041 2.95337 5.19368 2.90129 6.41244H10.2763Z" fill="black"/>
</svg>
