<svg width="16" height="19" viewBox="0 0 16 19" fill="none" xmlns="http://www.w3.org/2000/svg">
<path d="M8.05973 18.4714C6.3514 18.4714 4.89827 18.0651 3.70557 17.2422C2.52327 16.4089 1.63265 15.3255 1.0389 13.9922C0.439941 12.6589 0.143066 11.2318 0.143066 9.70052C0.143066 8.15885 0.439941 6.72135 1.0389 5.38802C1.63265 4.05469 2.52327 2.98177 3.70557 2.15885C4.89827 1.34115 6.3514 0.929688 8.05973 0.929688C9.76807 0.929688 11.2108 1.34115 12.3931 2.15885C13.5701 2.98177 14.4556 4.0651 15.0389 5.40885C15.6327 6.75781 15.9347 8.1901 15.9347 9.70052C15.9347 11.2161 15.6327 12.6484 15.0389 13.9922C14.4399 15.3255 13.5441 16.4089 12.3514 17.2422C11.1691 18.0651 9.73682 18.4714 8.05973 18.4714ZM8.05973 16.0964C9.1014 16.0964 10.0077 15.8151 10.7889 15.2422C11.5649 14.6589 12.1535 13.8828 12.5597 12.9089C12.9608 11.9401 13.1639 10.8568 13.1639 9.65885C13.1639 7.82552 12.7056 6.30469 11.7889 5.09635C10.8722 3.8776 9.62744 3.26302 8.05973 3.26302C6.98682 3.26302 6.06494 3.55469 5.2889 4.13802C4.50765 4.71094 3.9139 5.48177 3.49723 6.45052C3.09098 7.42448 2.89307 8.49219 2.89307 9.65885C2.89307 11.4922 3.3514 13.0286 4.26807 14.263C5.19515 15.487 6.46077 16.0964 8.05973 16.0964Z" fill="black"/>
</svg>
