<svg width="22" height="34" viewBox="0 0 22 34" fill="none" xmlns="http://www.w3.org/2000/svg">
<path d="M11.7419 33.1242C10.8773 33.1242 10.1846 33.067 9.65853 32.9576C9.12728 32.843 8.60124 32.6867 8.0752 32.4784V29.4159C8.43457 29.5253 8.92936 29.6295 9.55436 29.7284C10.1794 29.8222 10.7887 29.8742 11.3877 29.8742C13.6064 29.8742 15.2835 29.2492 16.4085 27.9992C17.5335 26.7492 18.096 25.0878 18.096 23.0201V18.9576H17.7419C17.1429 20.3065 16.1846 21.4472 14.8669 22.3742C13.5439 23.2909 11.9502 23.7492 10.0752 23.7492C8.2002 23.7492 6.54395 23.2649 5.11686 22.2909C3.7002 21.3222 2.59603 19.9784 1.80436 18.2701C1.02311 16.5513 0.637695 14.5774 0.637695 12.3534C0.637695 10.1347 1.02311 8.16591 1.80436 6.45758C2.59603 4.73883 3.7002 3.38987 5.11686 2.41591C6.54395 1.44716 8.2002 0.957581 10.0752 0.957581C12.0335 0.957581 13.6689 1.468 14.9919 2.47841C16.3096 3.49404 17.2419 4.66591 17.7835 5.99925H18.096V1.68675H21.8044V23.0201C21.8044 24.6034 21.4814 26.1555 20.846 27.6867C20.2054 29.2284 19.1273 30.5201 17.6169 31.5617C16.1169 32.6034 14.1585 33.1242 11.7419 33.1242ZM11.2627 20.5826C12.7054 20.5826 13.9398 20.1972 14.971 19.4159C15.9971 18.6399 16.7627 17.619 17.2627 16.3534C17.7627 15.0774 18.0127 13.718 18.0127 12.2701C18.0127 10.8534 17.7627 9.53571 17.2627 8.31175C16.7627 7.093 16.0023 6.09821 14.9919 5.33258C13.9919 4.55654 12.7471 4.16591 11.2627 4.16591C9.06478 4.16591 7.3929 4.95758 6.24186 6.54091C5.10124 8.11383 4.53353 10.0201 4.53353 12.2701C4.53353 13.744 4.77311 15.119 5.2627 16.3951C5.7627 17.6607 6.5179 18.6763 7.53353 19.4367C8.54395 20.2024 9.78874 20.5826 11.2627 20.5826Z" fill="black"/>
</svg>
