<svg width="21" height="24" viewBox="0 0 21 24" fill="none" xmlns="http://www.w3.org/2000/svg">
<path d="M20.0603 23.1242H16.352V18.8534H16.102C15.503 20.1607 14.5863 21.2649 13.352 22.1659C12.1124 23.0565 10.602 23.4992 8.8103 23.4992C6.9353 23.4992 5.36239 23.0513 4.10197 22.1451C2.85197 21.2284 1.9353 20.0513 1.35197 18.6034C0.779053 17.1607 0.497803 15.5826 0.497803 13.8742V0.645081H4.16447V13.3951C4.16447 15.593 4.71134 17.2805 5.8103 18.4576C6.91968 19.6399 8.3728 20.2284 10.1645 20.2284C12.0395 20.2284 13.5395 19.5982 14.6645 18.3326C15.7895 17.0722 16.352 15.4263 16.352 13.3951V0.645081H20.0603V23.1242Z" fill="black"/>
</svg>
