<svg width="56" height="74" viewBox="0 0 56 74" fill="none" xmlns="http://www.w3.org/2000/svg">
<path d="M41.5353 60.1179H55.4103V72.6388C55.4103 73.1804 55.077 73.4513 54.4103 73.4513H42.6395C39.0145 73.4513 35.2332 73.1804 31.3062 72.6388C27.3739 72.0971 23.5614 71.0867 19.8687 69.5971C16.1864 68.1127 12.8478 66.0294 9.84782 63.3471C6.85824 60.6544 4.49365 57.1804 2.74365 52.9304C0.993652 48.67 0.118652 43.4252 0.118652 37.2013C0.118652 30.7846 1.00407 25.4044 2.78532 21.0554C4.57699 16.7117 6.9624 13.2117 9.95199 10.5554C12.9364 7.88875 16.2905 5.86271 20.0145 4.47209C23.7332 3.08667 27.5405 2.14917 31.4312 1.65959C35.3322 1.17521 39.0666 0.93042 42.6395 0.93042H54.4103C55.077 0.93042 55.4103 1.20125 55.4103 1.74292V30.2221H41.5353V14.1596C36.2853 13.8679 31.5874 14.4669 27.452 15.9513C23.3114 17.4252 20.0457 19.8992 17.6603 23.3679C15.2697 26.8419 14.077 31.4513 14.077 37.2013C14.077 41.6752 14.7228 45.3627 16.0145 48.2638C17.3166 51.1544 19.0405 53.42 21.1812 55.0554C23.3322 56.6804 25.6447 57.8783 28.1187 58.6388C30.603 59.3888 33.0197 59.8419 35.3687 59.9929C37.728 60.1492 39.7853 60.1908 41.5353 60.1179Z" fill="#562A2A" fill-opacity="0.302"/>
</svg>
