<svg width="17" height="19" viewBox="0 0 17 19" fill="none" xmlns="http://www.w3.org/2000/svg">
<path d="M8.14714 18.4714C6.4388 18.4714 4.98568 18.0651 3.79297 17.2422C2.61068 16.4089 1.72005 15.3255 1.1263 13.9922C0.527343 12.6589 0.230469 11.2318 0.230469 9.70052C0.230469 8.15885 0.527343 6.72135 1.1263 5.38802C1.72005 4.05469 2.61068 2.98177 3.79297 2.15885C4.98568 1.34115 6.4388 0.929688 8.14714 0.929688C9.85547 0.929688 11.2982 1.34115 12.4805 2.15885C13.6576 2.98177 14.543 4.0651 15.1263 5.40885C15.7201 6.75781 16.0221 8.1901 16.0221 9.70052C16.0221 11.2161 15.7201 12.6484 15.1263 13.9922C14.5273 15.3255 13.6315 16.4089 12.4388 17.2422C11.2565 18.0651 9.82422 18.4714 8.14714 18.4714ZM8.14714 16.0964C9.1888 16.0964 10.0951 15.8151 10.8763 15.2422C11.6523 14.6589 12.2409 13.8828 12.6471 12.9089C13.0482 11.9401 13.2513 10.8568 13.2513 9.65885C13.2513 7.82552 12.793 6.30469 11.8763 5.09635C10.9596 3.8776 9.71484 3.26302 8.14714 3.26302C7.07422 3.26302 6.15234 3.55469 5.3763 4.13802C4.59505 4.71094 4.0013 5.48177 3.58464 6.45052C3.17839 7.42448 2.98047 8.49219 2.98047 9.65885C2.98047 11.4922 3.4388 13.0286 4.35547 14.263C5.28255 15.487 6.54818 16.0964 8.14714 16.0964Z" fill="black"/>
</svg>
