<svg width="13" height="15" viewBox="0 0 13 15" fill="none" xmlns="http://www.w3.org/2000/svg">
<path d="M6.96566 14.2771C5.80941 14.2771 4.76774 14.0166 3.84066 13.4854C2.92399 12.9594 2.20003 12.1885 1.67399 11.1729C1.14274 10.1469 0.882324 8.91768 0.882324 7.48539C0.882324 6.05831 1.14274 4.82914 1.67399 3.79789C2.20003 2.77185 2.92399 2.00102 3.84066 1.48539C4.76774 0.959351 5.80941 0.693726 6.96566 0.693726C8.34066 0.693726 9.43441 0.959351 10.2573 1.48539C11.075 2.00102 11.674 2.68852 12.049 3.54789L10.7157 4.50623H10.4865C10.1219 3.78748 9.66357 3.25623 9.11149 2.92289C8.5542 2.58956 7.84066 2.42289 6.96566 2.42289C6.15837 2.42289 5.45003 2.61039 4.84066 2.98539C4.22607 3.36039 3.74691 3.93331 3.40316 4.69373C3.06982 5.45935 2.90316 6.39164 2.90316 7.48539C2.90316 8.58435 3.06982 9.50623 3.40316 10.2562C3.74691 11.0062 4.22607 11.5791 4.84066 11.9646C5.45003 12.3552 6.15837 12.5479 6.96566 12.5479C7.8667 12.5479 8.6167 12.35 9.21566 11.9437C9.80941 11.5271 10.2834 10.876 10.6323 9.98539H10.8823L12.1532 10.7354C11.8042 11.8344 11.1948 12.7041 10.3198 13.3396C9.44482 13.9646 8.32503 14.2771 6.96566 14.2771Z" fill="black"/>
</svg>
