<svg width="12" height="20" viewBox="0 0 12 20" fill="none" xmlns="http://www.w3.org/2000/svg">
<path d="M0.914062 19.027V0.672852H2.85156V7.79785L3.10156 7.83952C4.02865 6.41243 5.38281 5.69369 7.16406 5.69369C8.73177 5.69369 9.8724 6.09994 10.5807 6.90202C11.2891 7.69369 11.6432 8.92285 11.6432 10.5895V19.027H9.70573V10.652C9.70573 9.86035 9.60156 9.23014 9.39323 8.75619C9.19531 8.27181 8.88281 7.91764 8.45573 7.69369C8.03906 7.47494 7.48177 7.36035 6.78906 7.36035C5.60677 7.36035 4.65365 7.75098 3.9349 8.52702C3.21094 9.29264 2.85156 10.5479 2.85156 12.2979V19.027H0.914062Z" fill="black"/>
</svg>
