<svg width="52" height="67" viewBox="0 0 52 67" fill="none" xmlns="http://www.w3.org/2000/svg">
<path d="M26.5817 66.3229C18.3734 66.3229 11.9359 64.3802 7.26921 60.4896C2.61296 56.5886 0.290039 51.2188 0.290039 44.3854H17.9775C17.9775 46.8021 18.7119 48.6927 20.1859 50.0521C21.6702 51.4167 23.7119 52.0938 26.3109 52.0938C28.5452 52.0938 30.2952 51.6563 31.5609 50.7813C32.8369 49.9063 33.4775 48.6875 33.4775 47.1146C33.4775 43.6042 29.6702 41.0886 22.0609 39.5729C7.85254 36.8646 0.748372 30.1927 0.748372 19.5521C0.748372 13.5677 2.90462 8.83856 7.22754 5.3646C11.5452 1.88023 17.4567 0.135437 24.9567 0.135437C30.1494 0.135437 34.665 1.02085 38.4984 2.78127C42.3421 4.53127 45.3109 7.02606 47.3942 10.2604C49.4775 13.4844 50.5192 17.2761 50.5192 21.6354H33.29C33.29 19.2188 32.5921 17.3802 31.2067 16.1146C29.8161 14.8386 27.8525 14.1979 25.3109 14.1979C23.1963 14.1979 21.5036 14.6354 20.2275 15.5104C18.9619 16.3854 18.3317 17.6094 18.3317 19.1771C18.3317 20.8177 19.1755 22.1771 20.8734 23.2604C22.5661 24.3438 25.4411 25.3438 29.4984 26.2604C37.2327 27.9584 42.863 30.4219 46.3942 33.6563C49.9359 36.8802 51.7067 41.125 51.7067 46.3854C51.7067 52.6094 49.4984 57.4896 45.0817 61.0313C40.6755 64.5625 34.5088 66.3229 26.5817 66.3229Z" fill="#690061"/>
</svg>
