<svg width="17" height="19" viewBox="0 0 17 19" fill="none" xmlns="http://www.w3.org/2000/svg">
<path d="M8.65906 18.2323C6.9351 18.2323 5.47677 17.8157 4.28406 16.9823C3.10177 16.149 2.22156 15.0605 1.63822 13.7115C1.06531 12.3678 0.784058 10.9511 0.784058 9.46151C0.784058 7.95109 1.06531 6.52401 1.63822 5.19067C2.22156 3.85734 3.10698 2.77401 4.30489 1.94067C5.4976 1.10734 6.96114 0.690674 8.70072 0.690674C10.9611 0.690674 12.7684 1.45109 14.1174 2.96151C15.4768 4.47713 16.1591 6.64901 16.1591 9.48234V10.2532H3.53406V10.4823C3.53406 11.4303 3.7476 12.3157 4.17989 13.149C4.60698 13.9719 5.20593 14.6386 5.97156 15.149C6.73198 15.6646 7.6226 15.9198 8.63822 15.9198C9.72156 15.9198 10.6591 15.6438 11.4507 15.0865C12.2424 14.5344 12.8257 13.7896 13.2007 12.8573H15.9299C15.482 14.3886 14.6434 15.6646 13.4091 16.6907C12.1851 17.7219 10.6018 18.2323 8.65906 18.2323ZM13.4299 8.31567C13.3466 6.38859 12.8726 4.99797 12.0132 4.14901C11.1643 3.28963 10.0445 2.85734 8.65906 2.85734C7.14343 2.85734 5.9351 3.36776 5.03406 4.37817C4.14343 5.37817 3.66947 6.69067 3.61739 8.31567H13.4299Z" fill="black"/>
</svg>
