<svg width="14" height="31" viewBox="0 0 14 31" fill="none" xmlns="http://www.w3.org/2000/svg">
<path d="M8.26912 10.5825V23.645C8.26912 24.7023 8.316 25.4784 8.41496 25.9784C8.50871 26.4679 8.77954 26.8534 9.22746 27.145C9.67017 27.4263 10.3941 27.5617 11.3941 27.5617C12.0712 27.5617 12.8108 27.4679 13.6025 27.27V29.9159C13.4045 29.9992 12.967 30.0825 12.29 30.1659C11.6233 30.2492 10.9358 30.2909 10.2275 30.2909C8.58683 30.2909 7.35767 30.0617 6.53996 29.6034C5.73267 29.1346 5.20662 28.494 4.95662 27.6867C4.71704 26.869 4.60246 25.7909 4.60246 24.4575V10.5825H0.435791V7.64502H4.60246V0.27002H8.26912V7.64502H13.6025V10.5825H8.26912Z" fill="black"/>
</svg>
