<svg width="26" height="26" viewBox="0 0 26 26" fill="none" xmlns="http://www.w3.org/2000/svg">
<path d="M0.217163 25.3905V1.11963H6.52966L7.44633 3.5988C8.33175 2.58838 9.46716 1.80713 10.8422 1.26546C12.2172 0.71338 13.7172 0.432129 15.3422 0.432129C18.4672 0.432129 20.9359 1.40609 22.7588 3.3488C24.5765 5.29671 25.488 7.90088 25.488 11.1613V25.3905H16.6755V12.078C16.6755 10.6509 16.3422 9.56754 15.6755 8.82796C15.0192 8.09359 14.1182 7.7238 12.9672 7.7238C11.7432 7.7238 10.7797 8.13005 10.0713 8.93213C9.363 9.7238 9.00883 10.8488 9.00883 12.3071V25.3905H0.217163Z" fill="#690061"/>
</svg>
