<svg width="16" height="19" viewBox="0 0 16 19" fill="none" xmlns="http://www.w3.org/2000/svg">
<path d="M8.34961 18.4714C6.62565 18.4714 5.16732 18.0547 3.97461 17.2214C2.79232 16.388 1.91211 15.2995 1.32878 13.9505C0.75586 12.6068 0.474609 11.1901 0.474609 9.70052C0.474609 8.1901 0.75586 6.76302 1.32878 5.42969C1.91211 4.09635 2.79753 3.01302 3.99544 2.17969C5.18815 1.34635 6.65169 0.929688 8.39128 0.929688C10.6517 0.929688 12.459 1.6901 13.8079 3.20052C15.1673 4.71615 15.8496 6.88802 15.8496 9.72135V10.4922H3.22461V10.7214C3.22461 11.6693 3.43815 12.5547 3.87044 13.388C4.29753 14.2109 4.89648 14.8776 5.66211 15.388C6.42253 15.9036 7.31315 16.1589 8.32878 16.1589C9.41211 16.1589 10.3496 15.8828 11.1413 15.3255C11.9329 14.7734 12.5163 14.0286 12.8913 13.0964H15.6204C15.1725 14.6276 14.334 15.9036 13.0996 16.9297C11.8757 17.9609 10.2923 18.4714 8.34961 18.4714ZM13.1204 8.55469C13.0371 6.6276 12.5632 5.23698 11.7038 4.38802C10.8548 3.52865 9.73503 3.09635 8.34961 3.09635C6.83398 3.09635 5.62565 3.60677 4.72461 4.61719C3.83398 5.61719 3.36003 6.92969 3.30794 8.55469H13.1204Z" fill="black"/>
</svg>
