<svg width="21" height="32" viewBox="0 0 21 32" fill="none" xmlns="http://www.w3.org/2000/svg">
<path d="M0.0649414 0.125H3.73161V13.5625H4.06494C4.63265 12.2604 5.55453 11.1615 6.83577 10.2708C8.11182 9.36979 9.67953 8.91667 11.5441 8.91667C13.4451 8.91667 15.0337 9.36979 16.3149 10.2708C17.591 11.1615 18.5337 12.3438 19.1483 13.8125C19.7577 15.2708 20.0649 16.8542 20.0649 18.5625V32H16.3983V19.0208C16.3983 16.8125 15.8201 15.125 14.6691 13.9583C13.5129 12.7917 11.9868 12.2083 10.0858 12.2083C8.26286 12.2083 6.75244 12.8229 5.54411 14.0417C4.33577 15.2656 3.73161 16.9271 3.73161 19.0208V32H0.0649414V0.125Z" fill="#690061"/>
</svg>
