<svg width="14" height="31" viewBox="0 0 14 31" fill="none" xmlns="http://www.w3.org/2000/svg">
<path d="M8.13021 10.5825V23.645C8.13021 24.7023 8.17708 25.4784 8.27604 25.9784C8.36979 26.4679 8.64062 26.8534 9.08854 27.145C9.53125 27.4263 10.2552 27.5617 11.2552 27.5617C11.9323 27.5617 12.6719 27.4679 13.4635 27.27V29.9159C13.2656 29.9992 12.8281 30.0825 12.151 30.1659C11.4844 30.2492 10.7969 30.2909 10.0885 30.2909C8.44792 30.2909 7.21875 30.0617 6.40104 29.6034C5.59375 29.1346 5.06771 28.494 4.81771 27.6867C4.57813 26.869 4.46354 25.7909 4.46354 24.4575V10.5825H0.296875V7.64502H4.46354V0.27002H8.13021V7.64502H13.4635V10.5825H8.13021Z" fill="black"/>
</svg>
