<svg width="16" height="24" viewBox="0 0 16 24" fill="none" xmlns="http://www.w3.org/2000/svg">
<path d="M8.00277 19.5755C7.65381 20.3776 7.32568 21.0443 7.0236 21.5755C6.71631 22.1015 6.2111 22.5963 5.50277 23.0547C4.79443 23.5234 3.87777 23.763 2.75277 23.763C2.15381 23.763 1.51318 23.6797 0.8361 23.513V21.4713C1.34652 21.5547 1.79443 21.5963 2.16943 21.5963C2.87777 21.5963 3.44027 21.4557 3.85693 21.1797C4.28402 20.914 4.62777 20.5651 4.87777 20.138C5.12777 19.7213 5.41943 19.1068 5.75277 18.3047L6.5236 16.4088L0.294434 0.388H3.16943L7.87777 13.3672H8.06527L12.9819 0.388H15.8778L8.00277 19.5755Z" fill="black"/>
</svg>
