<svg width="12" height="15" viewBox="0 0 12 15" fill="none" xmlns="http://www.w3.org/2000/svg">
<path d="M6.63753 14.2771C5.48128 14.2771 4.43962 14.0166 3.51253 13.4854C2.59587 12.9594 1.87191 12.1885 1.34587 11.1729C0.814617 10.1469 0.554199 8.91768 0.554199 7.48539C0.554199 6.05831 0.814617 4.82914 1.34587 3.79789C1.87191 2.77185 2.59587 2.00102 3.51253 1.48539C4.43962 0.959351 5.48128 0.693726 6.63753 0.693726C8.01253 0.693726 9.10628 0.959351 9.9292 1.48539C10.7469 2.00102 11.3459 2.68852 11.7209 3.54789L10.3875 4.50623H10.1584C9.79378 3.78748 9.33545 3.25623 8.78337 2.92289C8.22607 2.58956 7.51253 2.42289 6.63753 2.42289C5.83024 2.42289 5.12191 2.61039 4.51253 2.98539C3.89795 3.36039 3.41878 3.93331 3.07503 4.69373C2.7417 5.45935 2.57503 6.39164 2.57503 7.48539C2.57503 8.58435 2.7417 9.50623 3.07503 10.2562C3.41878 11.0062 3.89795 11.5791 4.51253 11.9646C5.12191 12.3552 5.83024 12.5479 6.63753 12.5479C7.53857 12.5479 8.28857 12.35 8.88753 11.9437C9.48128 11.5271 9.95524 10.876 10.3042 9.98539H10.5542L11.825 10.7354C11.4761 11.8344 10.8667 12.7041 9.9917 13.3396C9.1167 13.9646 7.99691 14.2771 6.63753 14.2771Z" fill="black"/>
</svg>
