<svg width="14" height="31" viewBox="0 0 14 31" fill="none" xmlns="http://www.w3.org/2000/svg">
<path d="M8.52157 10.5826V23.6451C8.52157 24.7024 8.56844 25.4784 8.6674 25.9784C8.76115 26.468 9.03198 26.8534 9.4799 27.1451C9.92261 27.4263 10.6466 27.5617 11.6466 27.5617C12.3236 27.5617 13.0632 27.468 13.8549 27.2701V29.9159C13.657 29.9992 13.2195 30.0826 12.5424 30.1659C11.8757 30.2492 11.1882 30.2909 10.4799 30.2909C8.83927 30.2909 7.61011 30.0617 6.7924 29.6034C5.98511 29.1347 5.45907 28.494 5.20907 27.6867C4.96948 26.869 4.8549 25.7909 4.8549 24.4576V10.5826H0.688232V7.64508H4.8549V0.270081H8.52157V7.64508H13.8549V10.5826H8.52157Z" fill="black"/>
</svg>
