<svg width="16" height="19" viewBox="0 0 16 19" fill="none" xmlns="http://www.w3.org/2000/svg">
<path d="M8.11426 18.4714C6.3903 18.4714 4.93197 18.0547 3.73926 17.2214C2.55697 16.388 1.67676 15.2995 1.09342 13.9505C0.520508 12.6068 0.239258 11.1901 0.239258 9.70052C0.239258 8.1901 0.520508 6.76302 1.09342 5.42969C1.67676 4.09635 2.56218 3.01302 3.76009 2.17969C4.9528 1.34635 6.41634 0.929688 8.15592 0.929688C10.4163 0.929688 12.2236 1.6901 13.5726 3.20052C14.932 4.71615 15.6143 6.88802 15.6143 9.72135V10.4922H2.98926V10.7214C2.98926 11.6693 3.2028 12.5547 3.63509 13.388C4.06218 14.2109 4.66113 14.8776 5.42676 15.388C6.18718 15.9036 7.0778 16.1589 8.09342 16.1589C9.17676 16.1589 10.1143 15.8828 10.9059 15.3255C11.6976 14.7734 12.2809 14.0286 12.6559 13.0964H15.3851C14.9372 14.6276 14.0986 15.9036 12.8643 16.9297C11.6403 17.9609 10.057 18.4714 8.11426 18.4714ZM12.8851 8.55469C12.8018 6.6276 12.3278 5.23698 11.4684 4.38802C10.6195 3.52865 9.49967 3.09635 8.11426 3.09635C6.59863 3.09635 5.3903 3.60677 4.48926 4.61719C3.59863 5.61719 3.12467 6.92969 3.07259 8.55469H12.8851Z" fill="black"/>
</svg>
