<svg width="17" height="19" viewBox="0 0 17 19" fill="none" xmlns="http://www.w3.org/2000/svg">
<path d="M7.2994 18.2326C5.7994 18.2326 4.51815 17.8524 3.46606 17.0868C2.40877 16.3107 1.60148 15.2638 1.0494 13.9409C0.492106 12.6232 0.216064 11.1284 0.216064 9.46175C0.216064 7.79508 0.497315 6.29508 1.07023 4.96175C1.63794 3.62842 2.45565 2.58675 3.52856 1.83675C4.6119 1.07634 5.89315 0.690918 7.38273 0.690918C8.88273 0.690918 10.0911 1.04508 11.0077 1.75342C11.9244 2.45134 12.6171 3.28988 13.0911 4.27425H13.2994V1.14925H16.0911V18.0034H13.2994V14.5451H13.0911C12.5754 15.5451 11.8463 16.4149 10.9036 17.1493C9.97127 17.8732 8.76815 18.2326 7.2994 18.2326ZM8.15356 15.8576C9.78898 15.8576 11.0494 15.2482 11.9244 14.0243C12.7994 12.7899 13.2369 11.269 13.2369 9.46175C13.2369 7.64404 12.7994 6.12321 11.9244 4.89925C11.0494 3.6805 9.78898 3.06592 8.15356 3.06592C6.47127 3.06592 5.19523 3.6805 4.32023 4.89925C3.45565 6.10758 3.02856 7.618 3.02856 9.42008C3.02856 11.2534 3.45565 12.7899 4.32023 14.0243C5.19523 15.2482 6.47127 15.8576 8.15356 15.8576Z" fill="black"/>
</svg>
