<svg width="16" height="19" viewBox="0 0 16 19" fill="none" xmlns="http://www.w3.org/2000/svg">
<path d="M8.31982 18.4714C6.59587 18.4714 5.13753 18.0547 3.94482 17.2214C2.76253 16.388 1.88232 15.2995 1.29899 13.9505C0.726075 12.6068 0.444824 11.1901 0.444824 9.70052C0.444824 8.1901 0.726075 6.76302 1.29899 5.42969C1.88232 4.09635 2.76774 3.01302 3.96566 2.17969C5.15837 1.34635 6.62191 0.929688 8.36149 0.929688C10.6219 0.929688 12.4292 1.6901 13.7782 3.20052C15.1375 4.71615 15.8198 6.88802 15.8198 9.72135V10.4922H3.19482V10.7214C3.19482 11.6693 3.40837 12.5547 3.84066 13.388C4.26774 14.2109 4.8667 14.8776 5.63232 15.388C6.39274 15.9036 7.28337 16.1589 8.29899 16.1589C9.38232 16.1589 10.3198 15.8828 11.1115 15.3255C11.9032 14.7734 12.4865 14.0286 12.8615 13.0964H15.5907C15.1427 14.6276 14.3042 15.9036 13.0698 16.9297C11.8459 17.9609 10.2625 18.4714 8.31982 18.4714ZM13.0907 8.55469C13.0073 6.6276 12.5334 5.23698 11.674 4.38802C10.825 3.52865 9.70524 3.09635 8.31982 3.09635C6.8042 3.09635 5.59587 3.60677 4.69482 4.61719C3.8042 5.61719 3.33024 6.92969 3.27816 8.55469H13.0907Z" fill="black"/>
</svg>
