<svg width="22" height="34" viewBox="0 0 22 34" fill="none" xmlns="http://www.w3.org/2000/svg">
<path d="M5.03145 25.5368C6.95854 25.1045 8.45333 24.4014 9.51062 23.4326C10.5627 22.4743 11.219 21.0576 11.469 19.1826H10.469C7.62 19.1826 5.28666 18.3076 3.46895 16.5576C1.66166 14.7972 0.76062 12.5889 0.76062 9.93262C0.76062 7.21387 1.66166 4.96387 3.46895 3.18262C5.28666 1.39095 7.6825 0.495117 10.6565 0.495117C13.1252 0.495117 15.1877 1.12012 16.844 2.37012C18.5106 3.6097 19.7502 5.23991 20.5731 7.26595C21.3908 9.28158 21.8023 11.4951 21.8023 13.9118C21.8023 16.8857 21.1773 19.8493 19.9273 22.8076C18.6877 25.766 16.8335 28.2555 14.3648 30.2868C11.8908 32.3128 8.78145 33.417 5.03145 33.5993V25.5368Z" fill="#690061"/>
</svg>
