<svg width="29" height="31" viewBox="0 0 29 31" fill="none" xmlns="http://www.w3.org/2000/svg">
<path d="M10.0202 30.5821C8.1556 30.5821 6.54102 30.2383 5.16602 29.5612C3.80143 28.8685 2.75456 27.8633 2.02018 26.5404C1.2806 25.2071 0.916016 23.6133 0.916016 21.7487C0.916016 20.0404 1.2806 18.6029 2.02018 17.4362C2.75456 16.2696 3.89518 15.3112 5.43685 14.5612C6.98893 13.8112 9.00977 13.2383 11.4993 12.8321C13.2337 12.556 14.5514 12.2487 15.4577 11.9154C16.3587 11.5821 16.9681 11.2071 17.291 10.7904C17.6087 10.3633 17.7702 9.82684 17.7702 9.18622C17.7702 8.25914 17.4421 7.5508 16.791 7.06122C16.1348 6.56122 15.0514 6.31122 13.541 6.31122C11.9264 6.31122 10.3952 6.6758 8.93685 7.39455C7.48893 8.10289 6.22852 9.0508 5.14518 10.2279H4.62435L1.58268 5.62372C3.05143 3.99872 4.8431 2.72789 6.95768 1.81122C9.08268 0.894552 11.4004 0.436218 13.916 0.436218C17.7598 0.436218 20.541 1.25914 22.2493 2.89455C23.9681 4.51955 24.8327 6.83205 24.8327 9.83205V22.4362C24.8327 23.7435 25.4004 24.3946 26.541 24.3946C26.9837 24.3946 27.416 24.3112 27.8327 24.1446L28.2077 24.2487L28.7285 29.3321C28.3223 29.5977 27.7598 29.8112 27.041 29.9779C26.3327 30.1446 25.5462 30.2279 24.6868 30.2279C22.9473 30.2279 21.5879 29.8946 20.6035 29.2279C19.6296 28.5612 18.9368 27.5196 18.5202 26.1029L17.9785 26.0404C16.5462 29.0716 13.8952 30.5821 10.0202 30.5821ZM12.3327 25.1237C14.0254 25.1237 15.3743 24.5612 16.3743 23.4362C17.3848 22.3008 17.8952 20.7227 17.8952 18.7071V15.7487L17.3952 15.6446C16.9473 16.0091 16.3743 16.306 15.666 16.5404C14.9577 16.78 13.9368 17.0091 12.6035 17.2279C11.0202 17.4935 9.87956 17.9466 9.18685 18.5821C8.48893 19.2227 8.14518 20.1341 8.14518 21.3112C8.14518 22.5612 8.50977 23.5143 9.24935 24.1654C9.99935 24.806 11.0254 25.1237 12.3327 25.1237Z" fill="black"/>
</svg>
