<svg width="80" height="74" viewBox="0 0 80 74" fill="none" xmlns="http://www.w3.org/2000/svg">
<path d="M65.5235 55.9513V32.9304L47.0444 70.0138C46.9194 70.3783 46.6485 70.5554 46.2319 70.5554H35.0652C34.5912 70.5554 34.2944 70.3783 34.1694 70.0138L14.5027 31.9304V72.6388C14.5027 73.1804 14.1694 73.4513 13.5027 73.4513H1.54435C0.929768 73.4513 0.627686 73.1804 0.627686 72.6388V1.74292C0.627686 1.20125 0.929768 0.93042 1.54435 0.93042H13.6902C14.1589 0.93042 14.461 1.11271 14.586 1.47209L40.6069 54.5971L65.3569 1.47209C65.5912 1.11271 65.9194 0.93042 66.336 0.93042H78.3152C78.9819 0.93042 79.3152 1.20125 79.3152 1.74292V55.9513H65.5235Z" fill="#562A2A" fill-opacity="0.302"/>
</svg>
