<svg width="22" height="24" viewBox="0 0 22 24" fill="none" xmlns="http://www.w3.org/2000/svg">
<path d="M9.72632 23.4159C7.72632 23.4159 6.02319 22.9107 4.62215 21.895C3.2159 20.869 2.14299 19.4732 1.39299 17.7075C0.653402 15.9471 0.288818 13.9523 0.288818 11.7284C0.288818 9.52004 0.663818 7.53046 1.41382 5.74921C2.17423 3.97317 3.27319 2.58254 4.70549 1.58254C6.13257 0.572124 7.85132 0.0617065 9.85132 0.0617065C11.8357 0.0617065 13.4399 0.535665 14.6638 1.47837C15.8826 2.41067 16.8097 3.53046 17.4347 4.83254H17.7263V0.64504H21.4555V23.1242H17.7263V18.52H17.4347C16.7524 19.8534 15.7888 21.0096 14.5388 21.9784C13.2888 22.9367 11.6847 23.4159 9.72632 23.4159ZM10.8722 20.27C13.0492 20.27 14.7263 19.4523 15.893 17.8117C17.0597 16.1763 17.643 14.145 17.643 11.7284C17.643 9.31171 17.0597 7.29087 15.893 5.66587C14.7263 4.03046 13.0492 3.20754 10.8722 3.20754C8.62215 3.20754 6.91903 4.02004 5.76799 5.64504C4.61174 7.25962 4.03882 9.27004 4.03882 11.6867C4.03882 14.1346 4.61174 16.1763 5.76799 17.8117C6.91903 19.4523 8.62215 20.27 10.8722 20.27Z" fill="black"/>
</svg>
