<svg width="16" height="19" viewBox="0 0 16 19" fill="none" xmlns="http://www.w3.org/2000/svg">
<path d="M8.40641 18.4714C6.65641 18.4714 5.17725 18.0547 3.96891 17.2214C2.76058 16.388 1.86475 15.3047 1.28141 13.9714C0.708497 12.638 0.427246 11.2161 0.427246 9.70052C0.427246 8.1901 0.708497 6.76302 1.28141 5.42969C1.86475 4.09635 2.76058 3.01302 3.96891 2.17969C5.17725 1.34635 6.65641 0.929688 8.40641 0.929688C10.5731 0.929688 12.2814 1.5651 13.5314 2.82552C14.7814 4.07552 15.5366 5.61719 15.8022 7.45052H13.1147C12.9168 6.21615 12.4272 5.21094 11.6356 4.42969C10.8439 3.65365 9.771 3.26302 8.42725 3.26302C6.71891 3.26302 5.41683 3.88281 4.53141 5.11719C3.65641 6.34115 3.21891 7.86719 3.21891 9.70052C3.21891 11.5339 3.65641 13.0703 4.53141 14.3047C5.41683 15.5286 6.71891 16.138 8.42725 16.138C9.771 16.138 10.8439 15.7578 11.6356 14.9922C12.4272 14.2161 12.9168 13.1953 13.1147 11.9297H15.8022C15.5366 13.7786 14.7814 15.3359 13.5314 16.5964C12.2814 17.8464 10.5731 18.4714 8.40641 18.4714Z" fill="black"/>
</svg>
