<svg width="29" height="47" viewBox="0 0 29 47" fill="none" xmlns="http://www.w3.org/2000/svg">
<path d="M14.4059 46.3321C9.61426 46.3321 6.07259 45.6289 3.78092 44.2279C1.49968 42.8217 0.364258 40.8633 0.364258 38.3529C0.364258 36.8373 0.848633 35.5873 1.82259 34.6029C2.79134 33.6342 4.19759 32.9779 6.03092 32.6446V32.1029C5.04134 31.5092 4.33301 30.8477 3.90592 30.1237C3.47363 29.3894 3.26009 28.5404 3.26009 27.5821C3.26009 25.2487 4.78092 23.6758 7.82259 22.8529V22.3112C6.24968 21.4102 5.07259 20.3008 4.28092 18.9779C3.49968 17.6602 3.11426 16.0612 3.11426 14.1862C3.11426 12.2592 3.55176 10.5612 4.42676 9.10291C5.31217 7.63416 6.61426 6.48832 8.32259 5.66541C10.0413 4.8477 12.0934 4.43624 14.4684 4.43624C16.8955 4.43624 18.8278 4.86332 20.2601 5.70707C21.1611 4.40499 21.682 2.90499 21.8226 1.20707L22.3643 0.852905L27.6143 2.14457C27.4476 3.5352 27.0361 4.70186 26.3851 5.64457C25.7445 6.57686 24.7393 7.4102 23.3643 8.14457V8.72791C24.9997 10.1758 25.8226 12.181 25.8226 14.7487C25.8226 16.5404 25.3695 18.155 24.4684 19.5821C23.5778 20.9987 22.2809 22.1237 20.5726 22.9571C18.8643 23.78 16.8278 24.1862 14.4684 24.1862L13.3643 24.1446C12.6663 24.1185 12.182 24.1029 11.9059 24.1029C11.2393 24.1029 10.708 24.2852 10.3226 24.6446C9.94759 25.0092 9.76009 25.4675 9.76009 26.0196C9.76009 26.6342 9.99968 27.1133 10.4893 27.4571C10.9893 27.7904 11.708 27.9779 12.6559 28.0196L19.1559 28.2487C25.583 28.4467 28.8018 31.2071 28.8018 36.5404C28.8018 38.4154 28.3226 40.0821 27.3643 41.5404C26.4059 43.0092 24.8538 44.1758 22.7184 45.0404C20.5778 45.8998 17.807 46.3321 14.4059 46.3321ZM14.4684 19.0821C15.8695 19.0821 16.9684 18.6758 17.7601 17.8529C18.5518 17.0196 18.9476 15.8425 18.9476 14.3112C18.9476 12.7852 18.5518 11.6185 17.7601 10.8112C16.9684 9.99353 15.8695 9.58207 14.4684 9.58207C13.0518 9.58207 11.9528 9.99353 11.1768 10.8112C10.4111 11.6185 10.0309 12.7852 10.0309 14.3112C10.0309 15.8529 10.4111 17.0352 11.1768 17.8529C11.9528 18.6758 13.0518 19.0821 14.4684 19.0821ZM14.4059 41.0404C16.8903 41.0404 18.6976 40.6862 19.8226 39.9779C20.958 39.28 21.5309 38.3737 21.5309 37.2487C21.5309 36.3425 21.2393 35.6758 20.6559 35.2487C20.0726 34.8164 19.1559 34.5821 17.9059 34.5404L12.1559 34.2904C11.958 34.2904 11.7809 34.2748 11.6143 34.2487C11.4476 34.2331 11.2861 34.2279 11.1351 34.2279C9.89551 34.2279 8.95801 34.4883 8.32259 35.0196C7.68197 35.5456 7.36426 36.2748 7.36426 37.2071C7.36426 38.4258 7.9528 39.3737 9.13509 40.0404C10.3122 40.7071 12.0726 41.0404 14.4059 41.0404Z" fill="black"/>
</svg>
