<svg width="11" height="24" viewBox="0 0 11 24" fill="none" xmlns="http://www.w3.org/2000/svg">
<path d="M6.20687 8.35767V18.1493C6.20687 18.9306 6.23812 19.5035 6.31104 19.8785C6.39437 20.2535 6.59228 20.5556 6.9152 20.7743C7.24854 20.9827 7.7902 21.0868 8.5402 21.0868C9.05062 21.0868 9.60791 21.0139 10.2069 20.8577V22.8368C10.0506 22.9097 9.7277 22.9722 9.2277 23.0243C8.7277 23.092 8.20687 23.1285 7.6652 23.1285C6.42562 23.1285 5.50374 22.9566 4.89437 22.6077C4.29541 22.2483 3.90479 21.7691 3.7277 21.1702C3.54541 20.5608 3.45687 19.7535 3.45687 18.7535V8.35767H0.311035V6.14933H3.45687V0.607666H6.20687V6.14933H10.2069V8.35767H6.20687Z" fill="black"/>
</svg>
