<svg width="11" height="15" viewBox="0 0 11 15" fill="none" xmlns="http://www.w3.org/2000/svg">
<path d="M5.92757 14.4773C5.09424 14.4773 4.32861 14.3731 3.63591 14.1648C2.93799 13.946 2.34945 13.6439 1.86507 13.2689C1.37549 12.8835 1.03695 12.4512 0.844238 11.9773L1.96924 10.7898H2.21924C2.64632 11.4304 3.16195 11.9148 3.76091 12.2481C4.37028 12.5814 5.09424 12.7481 5.92757 12.7481C6.88591 12.7481 7.61507 12.5606 8.11507 12.1856C8.62549 11.8106 8.88591 11.2845 8.88591 10.6023C8.88591 10.0918 8.72966 9.66475 8.42757 9.33142C8.12028 8.99809 7.62549 8.74809 6.94841 8.58142L4.74007 8.03975C3.55778 7.74809 2.69841 7.30017 2.15674 6.68559C1.61507 6.06059 1.34424 5.30017 1.34424 4.39392C1.34424 3.67517 1.52132 3.05538 1.88591 2.53975C2.24528 2.01371 2.76611 1.61267 3.44841 1.33142C4.14111 1.03975 4.95361 0.893921 5.88591 0.893921C7.09424 0.893921 8.04215 1.06059 8.74007 1.39392C9.43278 1.72725 9.97445 2.196 10.3651 2.78975L9.26091 3.87309H9.03174C8.61507 3.38871 8.15674 3.03975 7.65674 2.83142C7.15674 2.61267 6.56299 2.49809 5.88591 2.49809C5.02132 2.49809 4.36507 2.65434 3.90674 2.95642C3.44841 3.26371 3.21924 3.71684 3.21924 4.31059C3.21924 4.84184 3.37549 5.26892 3.69841 5.60225C4.03174 5.92517 4.59945 6.18038 5.40674 6.37309L7.57341 6.89392C8.70882 7.15955 9.53174 7.60225 10.0317 8.22725C10.5422 8.85225 10.8026 9.63871 10.8026 10.5814C10.8026 11.347 10.6203 12.0293 10.2609 12.6231C9.89632 13.2064 9.34945 13.6648 8.61507 13.9981C7.87549 14.3158 6.97966 14.4773 5.92757 14.4773Z" fill="black"/>
</svg>
