<svg width="13" height="15" viewBox="0 0 13 15" fill="none" xmlns="http://www.w3.org/2000/svg">
<path d="M4.97966 14.4773C3.68799 14.4773 2.67757 14.1439 1.95882 13.4773C1.23486 12.8002 0.875488 11.8314 0.875488 10.5814C0.875488 9.80538 1.03174 9.15434 1.35465 8.62309C1.67236 8.08142 2.16716 7.64392 2.83382 7.31059C3.5109 6.97725 4.39632 6.72205 5.47966 6.53975C6.43799 6.37309 7.15674 6.196 7.64632 5.99809C8.14632 5.80538 8.47966 5.59184 8.64632 5.35225C8.81299 5.10225 8.89632 4.78975 8.89632 4.41475C8.89632 3.821 8.6932 3.36267 8.29216 3.03975C7.8859 2.72205 7.23486 2.56059 6.33382 2.56059C5.48486 2.56059 4.7557 2.72725 4.14632 3.06059C3.54736 3.39392 2.99007 3.88351 2.47966 4.51892H2.25049L1.29215 3.18559C1.84424 2.47725 2.54736 1.92517 3.39632 1.51892C4.2557 1.10225 5.23486 0.893921 6.33382 0.893921C7.87549 0.893921 9.0057 1.23767 9.72966 1.91475C10.464 2.58142 10.8338 3.51371 10.8338 4.70642V11.6439C10.8338 12.3835 11.1463 12.7481 11.7713 12.7481C11.964 12.7481 12.1567 12.7168 12.3547 12.6439L12.5213 12.6856L12.7505 14.0189C12.6099 14.1179 12.4224 14.196 12.188 14.2481C11.9484 14.3002 11.7088 14.3314 11.4588 14.3314C10.7505 14.3314 10.2088 14.1752 9.83382 13.8523C9.46924 13.5345 9.23486 13.071 9.12549 12.4564L8.87549 12.4148C8.50049 13.1127 7.99007 13.6335 7.35466 13.9773C6.72966 14.3106 5.93799 14.4773 4.97966 14.4773ZM5.41716 12.9356C6.1359 12.9356 6.7609 12.7689 7.29216 12.4356C7.83382 12.0918 8.24007 11.6179 8.52132 11.0189C8.81299 10.4095 8.95882 9.70121 8.95882 8.89392V7.22725L8.72966 7.18559C8.43799 7.39392 8.08382 7.571 7.66716 7.70642C7.25049 7.84705 6.66716 7.97205 5.91716 8.08142C5.15153 8.18038 4.54736 8.34184 4.10466 8.56059C3.65674 8.76892 3.33903 9.03975 3.14632 9.37309C2.94841 9.696 2.85466 10.097 2.85466 10.5814C2.85466 11.347 3.07341 11.9304 3.52132 12.3314C3.97966 12.7377 4.60986 12.9356 5.41716 12.9356Z" fill="black"/>
</svg>
