<svg width="35" height="32" viewBox="0 0 35 32" fill="none" xmlns="http://www.w3.org/2000/svg">
<path d="M17.909 31.2685C14.5028 31.2685 11.5184 30.6226 8.95068 29.331C6.37777 28.0289 4.37777 26.2008 2.95068 23.8518C1.53402 21.5081 0.825684 18.7997 0.825684 15.7268C0.825684 12.6591 1.53402 9.95597 2.95068 7.62264C4.37777 5.28931 6.37777 3.47681 8.95068 2.18514C11.5184 0.883057 14.5028 0.226807 17.909 0.226807C21.3257 0.226807 24.3049 0.883057 26.8465 2.18514C29.3986 3.47681 31.3934 5.28931 32.8257 7.62264C34.2528 9.95597 34.9715 12.6591 34.9715 15.7268C34.9715 18.7997 34.2528 21.5081 32.8257 23.8518C31.3934 26.2008 29.3986 28.0289 26.8465 29.331C24.3049 30.6226 21.3257 31.2685 17.909 31.2685ZM11.2632 15.7268C11.2632 17.6851 11.8882 19.2997 13.1382 20.5601C14.3986 21.8101 15.9924 22.4351 17.909 22.4351C19.8778 22.4351 21.4767 21.8101 22.7007 20.5601C23.9194 19.2997 24.534 17.6851 24.534 15.7268C24.534 13.7685 23.9194 12.1747 22.7007 10.9351C21.4767 9.68514 19.8778 9.06014 17.909 9.06014C15.9924 9.06014 14.3986 9.68514 13.1382 10.9351C11.8882 12.1747 11.2632 13.7685 11.2632 15.7268Z" fill="#690061"/>
</svg>
