<svg width="36" height="24" viewBox="0 0 36 24" fill="none" xmlns="http://www.w3.org/2000/svg">
<path d="M0.922852 0.645101H4.54785V4.79093H4.88119C4.93327 4.49927 5.21973 3.97843 5.73535 3.22843C6.24577 2.47843 7.02702 1.76489 8.06869 1.0826C9.12077 0.405518 10.4333 0.0617676 12.0062 0.0617676C13.6416 0.0617676 15.0114 0.447185 16.1104 1.2076C17.2041 1.97323 18.027 2.80135 18.5687 3.68677C19.1104 4.56177 19.3812 5.11385 19.3812 5.3326H19.7145C20.1156 4.34823 20.9072 3.22323 22.0895 1.9576C23.2666 0.697185 25.0791 0.0617676 27.527 0.0617676C29.3447 0.0617676 30.8656 0.530518 32.0895 1.4576C33.3083 2.37427 34.2145 3.55656 34.7979 4.99927C35.3812 6.44719 35.6729 7.99406 35.6729 9.6451V23.1243H32.0479V9.99927C32.0479 7.8326 31.4854 6.19719 30.3604 5.0826C29.2354 3.97323 27.8447 3.41593 26.1937 3.41593C24.4958 3.41593 23.0583 3.99406 21.8812 5.1451C20.6989 6.30135 20.1104 7.91593 20.1104 9.99927V23.1243H16.4854V9.99927C16.4854 7.8326 15.9229 6.19719 14.7979 5.0826C13.6729 3.97323 12.2822 3.41593 10.6312 3.41593C8.92285 3.41593 7.47493 3.99406 6.29785 5.1451C5.13119 6.30135 4.54785 7.91593 4.54785 9.99927V23.1243H0.922852V0.645101Z" fill="black"/>
</svg>
