<svg width="18" height="24" viewBox="0 0 18 24" fill="none" xmlns="http://www.w3.org/2000/svg">
<path d="M9.30111 23.7554C7.47819 23.7554 5.90527 23.396 4.57194 22.672C3.23861 21.9533 2.21777 21.021 1.50944 19.8804C0.811523 18.745 0.467773 17.547 0.467773 16.297V16.0887H4.13444V16.2554C4.13444 16.9637 4.33236 17.6668 4.73861 18.3595C5.13965 19.0575 5.73861 19.6252 6.53027 20.0679C7.32194 20.5158 8.28548 20.7345 9.42611 20.7345C10.8011 20.7345 11.9313 20.4012 12.8219 19.7345C13.723 19.0679 14.1761 18.1512 14.1761 16.9845C14.1761 16.0158 13.8219 15.245 13.1136 14.672C12.4157 14.1043 11.5511 13.7345 10.5094 13.5679L7.55111 13.1304C5.70215 12.8543 4.15527 12.2293 2.90527 11.2554C1.65527 10.271 1.03027 8.8335 1.03027 6.94287C1.03027 4.87516 1.76986 3.26579 3.25944 2.10954C4.75944 0.958496 6.67611 0.380371 9.00944 0.380371C10.7438 0.380371 12.2282 0.703288 13.4678 1.3387C14.7021 1.97933 15.6449 2.81787 16.3011 3.85954C16.9521 4.9012 17.2803 6.03662 17.2803 7.25537V7.42204H13.6136V7.3387C13.6136 6.771 13.4574 6.17204 13.1553 5.54704C12.8636 4.92204 12.3636 4.38037 11.6553 3.92204C10.9469 3.4637 10.0355 3.23454 8.92611 3.23454C7.56152 3.23454 6.46777 3.57829 5.63444 4.25537C4.81152 4.92204 4.40527 5.79183 4.40527 6.85954C4.40527 7.75016 4.72819 8.47933 5.38444 9.04704C6.03548 9.61996 6.86361 9.98454 7.86361 10.1512L11.0511 10.672C12.9261 10.9793 14.499 11.6252 15.7803 12.6095C17.0719 13.5835 17.7178 15.0262 17.7178 16.9429C17.7178 18.3075 17.348 19.5002 16.6136 20.5262C15.8896 21.5418 14.8896 22.3335 13.6136 22.9012C12.3324 23.4689 10.8949 23.7554 9.30111 23.7554Z" fill="#690061"/>
</svg>
