<svg width="18" height="19" viewBox="0 0 18 19" fill="none" xmlns="http://www.w3.org/2000/svg">
<path d="M0.82666 0.676432H3.80583V3.9681H4.07666C4.53499 2.91602 5.28499 2.02539 6.32666 1.30143C7.36833 0.567058 8.63916 0.197266 10.1392 0.197266C11.6912 0.197266 12.9933 0.567058 14.035 1.30143C15.0767 2.02539 15.8371 2.98372 16.3267 4.17643C16.8267 5.35872 17.0767 6.64518 17.0767 8.0306V18.9473H14.0975V8.4056C14.0975 6.60352 13.6235 5.22852 12.6808 4.2806C11.7485 3.33789 10.535 2.86393 9.03499 2.86393C7.43604 2.86393 6.1652 3.37956 5.22249 4.4056C4.27458 5.43685 3.80583 6.77018 3.80583 8.4056V18.9473H0.82666V0.676432Z" fill="black"/>
</svg>
