<svg width="15" height="18" viewBox="0 0 15 18" fill="none" xmlns="http://www.w3.org/2000/svg">
<path d="M14.9309 17.0032H12.1601V13.7949H11.9517C11.5038 14.7845 10.8163 15.6178 9.88924 16.2949C8.95695 16.9615 7.82674 17.2949 6.49341 17.2949C5.07674 17.2949 3.89445 16.9563 2.95174 16.274C2.01945 15.597 1.33195 14.7115 0.889242 13.6282C0.45695 12.5345 0.243408 11.347 0.243408 10.0657V0.149048H2.99341V9.71155C2.99341 11.3522 3.41007 12.6178 4.24341 13.5032C5.07674 14.3938 6.16528 14.8365 7.51424 14.8365C8.91528 14.8365 10.0403 14.3678 10.8892 13.4199C11.733 12.4615 12.1601 11.2272 12.1601 9.71155V0.149048H14.9309V17.0032Z" fill="black"/>
</svg>
