<svg width="22" height="32" viewBox="0 0 22 32" fill="none" xmlns="http://www.w3.org/2000/svg">
<path d="M11.206 26.2284C10.7476 27.3117 10.3101 28.1971 9.89347 28.895C9.48722 29.6034 8.81535 30.27 7.87264 30.895C6.92472 31.52 5.70597 31.8325 4.20597 31.8325C3.41431 31.8325 2.56014 31.7127 1.64347 31.4784V28.7492C2.32056 28.8586 2.91951 28.9159 3.43514 28.9159C4.37785 28.9159 5.13306 28.7336 5.70597 28.3742C6.27368 28.0252 6.71639 27.5669 7.03931 26.9992C7.37264 26.4263 7.75806 25.6086 8.20597 24.5409L9.24764 22.02L0.914307 0.64502H4.76847L11.0393 17.9575H11.2893L17.8518 0.64502H21.6851L11.206 26.2284Z" fill="black"/>
</svg>
