<svg width="18" height="20" viewBox="0 0 18 20" fill="none" xmlns="http://www.w3.org/2000/svg">
<path d="M9.04915 19.8491C7.17415 19.8491 5.59603 19.4012 4.31999 18.495C3.03874 17.5939 2.09082 16.4116 1.46582 14.9533C0.84082 13.495 0.52832 11.9637 0.52832 10.3491C0.52832 8.71371 0.84082 7.17204 1.46582 5.72412C2.09082 4.28141 3.04915 3.10954 4.34082 2.20329C5.63249 1.30225 7.21582 0.849121 9.09082 0.849121C11.5335 0.849121 13.4919 1.67204 14.9658 3.30745C16.4346 4.94808 17.1742 7.30225 17.1742 10.37V11.2033H3.50749V11.4533C3.50749 12.4689 3.73665 13.4272 4.19499 14.3283C4.66374 15.2345 5.30957 15.9637 6.13249 16.5158C6.96582 17.0731 7.92936 17.3491 9.02832 17.3491C10.195 17.3491 11.2054 17.0522 12.07 16.4533C12.9294 15.8439 13.5596 15.0314 13.9658 14.0158H16.9242C16.4346 15.6825 15.5283 17.0731 14.195 18.1825C12.8721 19.297 11.1585 19.8491 9.04915 19.8491ZM14.2158 9.09912C14.1169 7.01579 13.6012 5.51579 12.6742 4.59912C11.7575 3.67204 10.5492 3.20329 9.04915 3.20329C7.40853 3.20329 6.10124 3.74495 5.13249 4.82829C4.15853 5.91162 3.6377 7.33871 3.56999 9.09912H14.2158Z" fill="black"/>
</svg>
