<svg width="13" height="15" viewBox="0 0 13 15" fill="none" xmlns="http://www.w3.org/2000/svg">
<path d="M6.1346 14.2771C4.89502 14.2771 3.8221 14.0219 2.90544 13.5062C1.98877 12.9802 1.28044 12.2094 0.780436 11.1937C0.290852 10.1677 0.0512695 8.93331 0.0512695 7.48539C0.0512695 6.04268 0.290852 4.81352 0.780436 3.79789C1.28044 2.77185 1.98877 2.00102 2.90544 1.48539C3.8221 0.959351 4.89502 0.693726 6.1346 0.693726C7.36898 0.693726 8.43669 0.959351 9.34294 1.48539C10.2596 2.00102 10.9575 2.77185 11.4471 3.79789C11.9471 4.81352 12.1971 6.04268 12.1971 7.48539C12.1971 8.93331 11.9471 10.1677 11.4471 11.1937C10.9575 12.2094 10.2596 12.9802 9.34294 13.5062C8.43669 14.0219 7.36898 14.2771 6.1346 14.2771ZM6.1346 12.5479C7.43669 12.5479 8.43148 12.1416 9.11377 11.3187C9.80648 10.4854 10.1554 9.20935 10.1554 7.48539C10.1554 5.75102 9.80648 4.47498 9.11377 3.65206C8.43148 2.83435 7.43669 2.42289 6.1346 2.42289C4.82731 2.42289 3.8221 2.83956 3.11377 3.67289C2.41585 4.49581 2.0721 5.76664 2.0721 7.48539C2.0721 9.20935 2.41585 10.4854 3.11377 11.3187C3.8221 12.1416 4.82731 12.5479 6.1346 12.5479Z" fill="black"/>
</svg>
