<svg width="9" height="18" viewBox="0 0 9 18" fill="none" xmlns="http://www.w3.org/2000/svg">
<path d="M7.3724 2.7242C6.88281 2.7242 6.52344 2.82837 6.28906 3.0367C6.0651 3.23462 5.92448 3.46899 5.8724 3.74504C5.83073 4.02629 5.8099 4.38566 5.8099 4.82837V5.18254H8.58073V8.07837H5.8099V17.87H2.08073V8.07837H0.539062V5.18254H2.08073V4.0367C2.08073 3.05233 2.35677 2.15649 2.91406 1.3492C3.46615 0.547119 4.59115 0.140869 6.28906 0.140869C6.70573 0.140869 7.14844 0.172118 7.6224 0.224202C8.10677 0.281494 8.42448 0.328369 8.58073 0.370036V2.82837C8.20573 2.76066 7.79948 2.7242 7.3724 2.7242Z" fill="black"/>
</svg>
