<svg width="13" height="15" viewBox="0 0 13 15" fill="none" xmlns="http://www.w3.org/2000/svg">
<path d="M4.39323 14.4773C3.10156 14.4773 2.09115 14.1439 1.3724 13.4773C0.648437 12.8002 0.289062 11.8314 0.289062 10.5814C0.289062 9.80538 0.445313 9.15434 0.768229 8.62309C1.08594 8.08142 1.58073 7.64392 2.2474 7.31059C2.92448 6.97725 3.8099 6.72205 4.89323 6.53975C5.85156 6.37309 6.57031 6.196 7.0599 5.99809C7.5599 5.80538 7.89323 5.59184 8.0599 5.35225C8.22656 5.10225 8.3099 4.78975 8.3099 4.41475C8.3099 3.821 8.10677 3.36267 7.70573 3.03975C7.29948 2.72205 6.64844 2.56059 5.7474 2.56059C4.89844 2.56059 4.16927 2.72725 3.5599 3.06059C2.96094 3.39392 2.40365 3.88351 1.89323 4.51892H1.66406L0.705729 3.18559C1.25781 2.47725 1.96094 1.92517 2.8099 1.51892C3.66927 1.10225 4.64844 0.893921 5.7474 0.893921C7.28906 0.893921 8.41927 1.23767 9.14323 1.91475C9.8776 2.58142 10.2474 3.51371 10.2474 4.70642V11.6439C10.2474 12.3835 10.5599 12.7481 11.1849 12.7481C11.3776 12.7481 11.5703 12.7168 11.7682 12.6439L11.9349 12.6856L12.1641 14.0189C12.0234 14.1179 11.8359 14.196 11.6016 14.2481C11.362 14.3002 11.1224 14.3314 10.8724 14.3314C10.1641 14.3314 9.6224 14.1752 9.2474 13.8523C8.88281 13.5345 8.64844 13.071 8.53906 12.4564L8.28906 12.4148C7.91406 13.1127 7.40365 13.6335 6.76823 13.9773C6.14323 14.3106 5.35156 14.4773 4.39323 14.4773ZM4.83073 12.9356C5.54948 12.9356 6.17448 12.7689 6.70573 12.4356C7.2474 12.0918 7.65365 11.6179 7.9349 11.0189C8.22656 10.4095 8.3724 9.70121 8.3724 8.89392V7.22725L8.14323 7.18559C7.85156 7.39392 7.4974 7.571 7.08073 7.70642C6.66406 7.84705 6.08073 7.97205 5.33073 8.08142C4.5651 8.18038 3.96094 8.34184 3.51823 8.56059C3.07031 8.76892 2.7526 9.03975 2.5599 9.37309C2.36198 9.696 2.26823 10.097 2.26823 10.5814C2.26823 11.347 2.48698 11.9304 2.9349 12.3314C3.39323 12.7377 4.02344 12.9356 4.83073 12.9356Z" fill="black"/>
</svg>
