<svg width="17" height="19" viewBox="0 0 17 19" fill="none" xmlns="http://www.w3.org/2000/svg">
<path d="M8.65918 18.2326C6.93522 18.2326 5.47689 17.8159 4.28418 16.9826C3.10189 16.1493 2.22168 15.0607 1.63835 13.7118C1.06543 12.368 0.78418 10.9513 0.78418 9.46175C0.78418 7.95134 1.06543 6.52425 1.63835 5.19092C2.22168 3.85758 3.1071 2.77425 4.30501 1.94092C5.49772 1.10758 6.96126 0.690918 8.70085 0.690918C10.9613 0.690918 12.7686 1.45134 14.1175 2.96175C15.4769 4.47738 16.1592 6.64925 16.1592 9.48258V10.2534H3.53418V10.4826C3.53418 11.4305 3.74772 12.3159 4.18001 13.1493C4.6071 13.9722 5.20605 14.6388 5.97168 15.1493C6.7321 15.6649 7.62272 15.9201 8.63835 15.9201C9.72168 15.9201 10.6592 15.644 11.4508 15.0868C12.2425 14.5347 12.8258 13.7899 13.2008 12.8576H15.93C15.4821 14.3888 14.6436 15.6649 13.4092 16.6909C12.1852 17.7222 10.6019 18.2326 8.65918 18.2326ZM13.43 8.31592C13.3467 6.38883 12.8727 4.99821 12.0133 4.14925C11.1644 3.28988 10.0446 2.85758 8.65918 2.85758C7.14355 2.85758 5.93522 3.368 5.03418 4.37842C4.14355 5.37842 3.6696 6.69092 3.61751 8.31592H13.43Z" fill="black"/>
</svg>
