<svg width="11" height="24" viewBox="0 0 11 24" fill="none" xmlns="http://www.w3.org/2000/svg">
<path d="M6.50521 8.59637V18.388C6.50521 19.1693 6.53646 19.7422 6.60938 20.1172C6.69271 20.4922 6.89062 20.7943 7.21354 21.013C7.54688 21.2214 8.08854 21.3255 8.83854 21.3255C9.34896 21.3255 9.90625 21.2526 10.5052 21.0964V23.0755C10.349 23.1485 10.026 23.211 9.52604 23.263C9.02604 23.3307 8.50521 23.3672 7.96354 23.3672C6.72396 23.3672 5.80208 23.1953 5.19271 22.8464C4.59375 22.487 4.20313 22.0078 4.02604 21.4089C3.84375 20.7995 3.75521 19.9922 3.75521 18.9922V8.59637H0.609375V6.38804H3.75521V0.846375H6.50521V6.38804H10.5052V8.59637H6.50521Z" fill="black"/>
</svg>
