<svg width="30" height="30" viewBox="0 0 30 30" fill="none" xmlns="http://www.w3.org/2000/svg">
<path d="M11.3384 29.7983C8.17171 29.7983 5.63525 29.017 3.73421 27.4441C1.84359 25.8764 0.900879 23.7514 0.900879 21.0691C0.900879 18.5274 1.73942 16.4858 3.42171 14.9441C5.11442 13.392 7.39046 12.6108 10.255 12.6108H19.5467V11.0483C19.5467 10.1472 19.1509 9.39722 18.3592 8.79826C17.578 8.20451 16.6353 7.90243 15.5259 7.90243C14.5103 7.90243 13.6509 8.16284 12.9425 8.67326C12.2342 9.17326 11.8019 9.82951 11.6509 10.6316H2.25505C2.67171 7.42326 4.01025 4.98055 6.27588 3.29826C8.53629 1.60555 11.6092 0.756592 15.4842 0.756592C19.9425 0.756592 23.3592 1.82951 25.7342 3.96493C28.1196 6.10555 29.3175 9.14722 29.3175 13.0899V29.1733H22.1092L21.005 26.1524C18.5728 28.5847 15.3488 29.7983 11.3384 29.7983ZM10.7134 20.6108C10.7134 21.3764 11.0467 21.9962 11.7134 22.4649C12.38 22.9389 13.2446 23.1733 14.3175 23.1733C15.8592 23.1733 17.13 22.7045 18.13 21.7566C19.1405 20.8139 19.6509 19.5899 19.6509 18.0899H14.2134C13.1405 18.0899 12.2863 18.3139 11.6509 18.7566C11.0259 19.1889 10.7134 19.8087 10.7134 20.6108Z" fill="#690061"/>
</svg>
