<svg width="58" height="74" viewBox="0 0 58 74" fill="none" xmlns="http://www.w3.org/2000/svg">
<path d="M57.346 72.3679C57.471 72.6075 57.4397 72.8471 57.2626 73.0971C57.0804 73.3367 56.8356 73.4513 56.5335 73.4513H44.0335C43.6012 73.4513 43.3304 73.2742 43.221 72.9096L28.8876 32.4721L14.7418 72.9096C14.6845 73.2742 14.3876 73.4513 13.846 73.4513H1.42932C0.997024 73.4513 0.705357 73.3367 0.554316 73.0971C0.418899 72.8471 0.403274 72.6075 0.512649 72.3679L27.9918 1.47209C28.1012 1.11271 28.3981 0.93042 28.8876 0.93042C29.372 0.93042 29.6793 1.11271 29.8043 1.47209L57.346 72.3679Z" fill="#562A2A" fill-opacity="0.302"/>
</svg>
