<svg width="27" height="35" viewBox="0 0 27 35" fill="none" xmlns="http://www.w3.org/2000/svg">
<path d="M14.0737 34.5749C10.4175 34.5749 7.46956 33.7624 5.21956 32.1374C2.97998 30.5228 1.74561 28.3145 1.51123 25.5124H9.76123C9.93831 26.3145 10.3914 26.9342 11.1154 27.3665C11.8341 27.7936 12.7664 28.0124 13.9071 28.0124C16.8498 28.0124 18.3237 26.4707 18.3237 23.3874V21.6374C16.4175 22.8874 14.1675 23.5124 11.5737 23.5124C9.37581 23.5124 7.43831 23.028 5.76123 22.054C4.07894 21.0697 2.76123 19.6999 1.8029 17.9499C0.85498 16.1895 0.38623 14.153 0.38623 11.8457C0.38623 9.528 0.85498 7.49154 1.8029 5.74154C2.76123 3.98112 4.07894 2.61133 5.76123 1.63737C7.43831 0.652995 9.37581 0.158203 11.5737 0.158203C15.0321 0.158203 17.8029 1.19987 19.8862 3.2832L20.7612 0.82487H26.9279V23.1999C26.9279 26.8509 25.7716 29.6582 23.4696 31.6165C21.1623 33.5853 18.0321 34.5749 14.0737 34.5749ZM8.78206 11.8457C8.78206 13.2936 9.2404 14.4863 10.1571 15.429C11.0737 16.3613 12.2612 16.8249 13.7196 16.8249C15.1779 16.8249 16.355 16.3613 17.2612 15.429C18.1779 14.4863 18.6362 13.2936 18.6362 11.8457C18.6362 10.3874 18.1779 9.19987 17.2612 8.2832C16.355 7.35612 15.1779 6.88737 13.7196 6.88737C12.2612 6.88737 11.0737 7.35612 10.1571 8.2832C9.2404 9.19987 8.78206 10.3874 8.78206 11.8457Z" fill="#690061"/>
</svg>
