<svg width="28" height="31" viewBox="0 0 28 31" fill="none" xmlns="http://www.w3.org/2000/svg">
<path d="M26.5384 17.1446H7.87175C8.08008 19.6758 8.79362 21.5143 10.0176 22.6654C11.252 23.8216 12.9342 24.3946 15.0592 24.3946C16.7259 24.3946 18.0697 24.0821 19.1009 23.4571C20.1426 22.8321 20.9811 21.8893 21.6217 20.6237H22.1634L27.0176 23.7279C26.0592 25.7696 24.6217 27.4258 22.7051 28.6862C20.7988 29.9518 18.252 30.5821 15.0592 30.5821C12.0592 30.5821 9.4655 30.0143 7.28841 28.8737C5.10612 27.7227 3.41862 26.0196 2.22591 23.7696C1.04362 21.5196 0.455078 18.7696 0.455078 15.5196C0.455078 12.2279 1.06966 9.45184 2.30924 7.18622C3.55924 4.9258 5.24675 3.2383 7.37175 2.12372C9.49675 0.998718 11.8822 0.436218 14.5384 0.436218C18.6322 0.436218 21.7728 1.52997 23.9551 3.70705C26.1478 5.87372 27.2467 9.07163 27.2467 13.2904C27.2467 14.8216 27.1895 15.9987 27.0801 16.8321L26.5384 17.1446ZM20.2676 12.4362C20.1947 10.2279 19.6842 8.62372 18.7259 7.62372C17.7676 6.6133 16.3717 6.10289 14.5384 6.10289C10.8561 6.10289 8.68945 8.21747 8.03841 12.4362H20.2676Z" fill="black"/>
</svg>
