<svg width="12" height="18" viewBox="0 0 12 18" fill="none" xmlns="http://www.w3.org/2000/svg">
<path d="M6.3387 14.5046C6.0887 15.0879 5.84912 15.5567 5.63037 15.9213C5.42204 16.2963 5.06787 16.6504 4.56787 16.9838C4.06787 17.3171 3.41162 17.4838 2.60954 17.4838C2.19287 17.4838 1.73975 17.4213 1.25537 17.2963V15.8588C1.61475 15.9108 1.93245 15.9421 2.2137 15.9421C2.7137 15.9421 3.10954 15.8431 3.4012 15.6504C3.70329 15.4681 3.94287 15.2233 4.10954 14.9213C4.28662 14.614 4.50537 14.1765 4.75537 13.6088L5.29704 12.2754L0.880371 0.921265H2.9012L6.23454 10.1088H6.38037L9.85954 0.921265H11.9012L6.3387 14.5046Z" fill="black"/>
</svg>
