<svg width="11" height="24" viewBox="0 0 11 24" fill="none" xmlns="http://www.w3.org/2000/svg">
<path d="M6.05526 8.35742V18.1491C6.05526 18.9303 6.08651 19.5033 6.15942 19.8783C6.24276 20.2533 6.44067 20.5553 6.76359 20.7741C7.09692 20.9824 7.63859 21.0866 8.38859 21.0866C8.89901 21.0866 9.4563 21.0137 10.0553 20.8574V22.8366C9.89901 22.9095 9.57609 22.972 9.07609 23.0241C8.57609 23.0918 8.05526 23.1283 7.51359 23.1283C6.27401 23.1283 5.35213 22.9564 4.74276 22.6074C4.1438 22.248 3.75317 21.7689 3.57609 21.1699C3.3938 20.5605 3.30526 19.7533 3.30526 18.7533V8.35742H0.159424V6.14909H3.30526V0.607422H6.05526V6.14909H10.0553V8.35742H6.05526Z" fill="black"/>
</svg>
