<svg width="120" height="120" viewBox="0 0 120 120" fill="none" xmlns="http://www.w3.org/2000/svg">
<path d="M60.1875 0.302002C27.3438 0.302002 0.71875 26.927 0.71875 59.7708C0.71875 92.6093 27.3438 119.24 60.1875 119.24C93.026 119.24 119.656 92.6093 119.656 59.7708C119.656 26.927 93.026 0.302002 60.1875 0.302002ZM88.4688 63.276L68.6458 83.0989C67.6771 84.0624 66.4115 84.5468 65.1406 84.5468C63.875 84.5468 62.6042 84.0624 61.6406 83.0989C59.6979 81.1562 59.6979 78.026 61.6406 76.0885L73 64.7239H35.4063C32.6719 64.7239 30.4531 62.5103 30.4531 59.7708C30.4531 57.0312 32.6719 54.8124 35.4063 54.8124H73L61.6406 43.453C59.6979 41.5103 59.6979 38.3801 61.6406 36.4426C63.5781 34.5051 66.7083 34.5051 68.6458 36.4426L88.4688 56.2655C90.4063 58.203 90.4063 61.3333 88.4688 63.276Z" fill="#FF88A0"/>
</svg>
