<svg width="26" height="30" viewBox="0 0 26 30" fill="none" xmlns="http://www.w3.org/2000/svg">
<path d="M12.9746 29.9649C10.4017 29.9649 8.16211 29.5587 6.24544 28.7566C4.32878 27.9545 2.83919 26.8139 1.78711 25.3399C0.745443 23.8556 0.224609 22.142 0.224609 20.1941H10.0579C10.0579 21.0274 10.334 21.7097 10.8913 22.2358C11.4434 22.7514 12.1725 23.0066 13.0788 23.0066C14.7559 23.0066 15.5996 22.3608 15.5996 21.0691C15.5996 20.4181 15.1934 19.8556 14.3913 19.3816C13.584 18.9128 12.2559 18.5014 10.4121 18.1524C6.96419 17.4858 4.45378 16.4545 2.87044 15.0483C1.28711 13.6316 0.495443 11.7566 0.495443 9.42326C0.495443 6.63159 1.53711 4.49618 3.62044 3.00659C5.71419 1.50659 8.72982 0.756592 12.6621 0.756592C16.5371 0.756592 19.5215 1.55867 21.6204 3.15243C23.7298 4.75138 24.8757 7.08472 25.0579 10.1524H15.5371C15.4382 8.41805 14.4434 7.54826 12.5579 7.54826C11.8184 7.54826 11.2246 7.71493 10.7663 8.04826C10.3184 8.37118 10.0996 8.82951 10.0996 9.42326C10.0996 10.0899 10.4746 10.6316 11.2246 11.0483C11.9746 11.4649 13.3965 11.8608 15.4954 12.2358C22.1465 13.5274 25.4746 16.4962 25.4746 21.1316C25.4746 23.8816 24.3757 26.0431 22.1829 27.6108C19.985 29.1785 16.9173 29.9649 12.9746 29.9649Z" fill="#690061"/>
</svg>
