<svg width="12" height="18" viewBox="0 0 12 18" fill="none" xmlns="http://www.w3.org/2000/svg">
<path d="M6.44694 13.0254C5.40527 13.0254 4.55111 12.7702 3.88444 12.2546C3.21777 11.7441 2.70215 11.1243 2.34277 10.4004H2.17611V17.4629H0.217773V0.921224H2.17611V3.12956H2.34277C2.67611 2.43685 3.16048 1.83789 3.80111 1.33789C4.45215 0.837891 5.30631 0.587891 6.36361 0.587891C7.44694 0.587891 8.36882 0.858724 9.13444 1.40039C9.89486 1.94206 10.473 2.68685 10.8636 3.62956C11.249 4.57747 11.4469 5.63997 11.4469 6.81706C11.4469 7.98372 11.249 9.04102 10.8636 9.98372C10.473 10.916 9.89486 11.6608 9.13444 12.2129C8.38444 12.7546 7.48861 13.0254 6.44694 13.0254ZM5.82194 11.3379C6.99902 11.3379 7.89486 10.9108 8.50944 10.0462C9.11882 9.18685 9.42611 8.10872 9.42611 6.81706C9.42611 5.52539 9.11882 4.45247 8.50944 3.58789C7.91048 2.72852 7.01465 2.29622 5.82194 2.29622C4.63965 2.29622 3.74381 2.72852 3.13444 3.58789C2.51986 4.45247 2.21777 5.52539 2.21777 6.81706C2.21777 8.09831 2.53027 9.17122 3.15527 10.0462C3.78027 10.9108 4.66569 11.3379 5.82194 11.3379Z" fill="black"/>
</svg>
