<svg width="22" height="33" viewBox="0 0 22 33" fill="none" xmlns="http://www.w3.org/2000/svg">
<path d="M9.87549 32.4327C7.88591 32.4327 6.18799 31.9275 4.77132 30.9118C3.36507 29.8858 2.29216 28.49 1.54216 26.7243C0.802572 24.9639 0.437988 22.9691 0.437988 20.7452C0.437988 18.4952 0.802572 16.49 1.54216 14.7243C2.29216 12.9639 3.37549 11.5785 4.79216 10.5785C6.21924 9.56807 7.9432 9.05766 9.95882 9.05766C11.9432 9.05766 13.5526 9.53683 14.7922 10.4952C16.0422 11.4431 16.964 12.5525 17.563 13.8285H17.8963V0.140991H21.563V32.141H17.8963V27.5368H17.563C16.8651 28.9014 15.9015 30.0577 14.6672 31.016C13.4276 31.9639 11.8338 32.4327 9.87549 32.4327ZM10.9797 29.2868C13.1984 29.2868 14.8963 28.4691 16.063 26.8285C17.2297 25.1931 17.813 23.1618 17.813 20.7452C17.813 18.3285 17.2297 16.3181 16.063 14.7035C14.8963 13.0785 13.1984 12.266 10.9797 12.266C8.72966 12.266 7.03174 13.0785 5.89632 14.7035C4.77132 16.3181 4.20882 18.3285 4.20882 20.7452C4.20882 23.1931 4.77653 25.2243 5.91716 26.8493C7.0682 28.4743 8.7557 29.2868 10.9797 29.2868Z" fill="#690061"/>
</svg>
