<svg width="8" height="17" viewBox="0 0 8 17" fill="none" xmlns="http://www.w3.org/2000/svg">
<path d="M4.89567 6.48376V13.4213C4.89567 13.9786 4.92171 14.39 4.979 14.6504C5.03109 14.9161 5.17171 15.1244 5.39567 15.2754C5.63005 15.4317 6.01025 15.5046 6.5415 15.5046C6.9165 15.5046 7.31234 15.4525 7.729 15.3379V16.7546C7.61442 16.7963 7.38005 16.8379 7.02067 16.8796C6.67171 16.9213 6.31234 16.9421 5.93734 16.9421C5.06234 16.9421 4.40609 16.8171 3.979 16.5671C3.54671 16.3171 3.26025 15.9786 3.12484 15.5463C2.99984 15.1192 2.93734 14.5463 2.93734 13.8379V6.48376H0.729004V4.92126H2.93734V0.983765H4.89567V4.92126H7.729V6.48376H4.89567Z" fill="black"/>
</svg>
