<svg width="21" height="24" viewBox="0 0 21 24" fill="none" xmlns="http://www.w3.org/2000/svg">
<path d="M20.1299 23.1242H16.4215V18.8534H16.1715C15.5726 20.1606 14.6559 21.2648 13.4215 22.1659C12.182 23.0565 10.6715 23.4992 8.87988 23.4992C7.00488 23.4992 5.43197 23.0513 4.17155 22.145C2.92155 21.2284 2.00488 20.0513 1.42155 18.6034C0.848633 17.1606 0.567383 15.5825 0.567383 13.8742V0.64502H4.23405V13.395C4.23405 15.5929 4.78092 17.2804 5.87988 18.4575C6.98926 19.6398 8.44238 20.2284 10.234 20.2284C12.109 20.2284 13.609 19.5981 14.734 18.3325C15.859 17.0721 16.4215 15.4263 16.4215 13.395V0.64502H20.1299V23.1242Z" fill="black"/>
</svg>
