<svg width="32" height="30" viewBox="0 0 32 30" fill="none" xmlns="http://www.w3.org/2000/svg">
<path d="M15.8286 29.9649C12.7557 29.9649 10.0422 29.3451 7.68278 28.1108C5.33382 26.8764 3.50049 25.1628 2.18278 22.9649C0.859864 20.7722 0.203613 18.2253 0.203613 15.3191C0.203613 12.4337 0.859864 9.90243 2.18278 7.73576C3.50049 5.55867 5.33903 3.85034 7.70361 2.61076C10.0786 1.37638 12.7974 0.756592 15.8703 0.756592C19.1724 0.756592 22.0213 1.46493 24.4119 2.88159C26.7974 4.28784 28.6099 6.26701 29.8494 8.81909C31.0838 11.3764 31.6203 14.3816 31.4536 17.8399H10.1203C10.5057 19.3399 11.2349 20.4753 12.3078 21.2358C13.3911 22.0014 14.6307 22.3816 16.0369 22.3816C17.1047 22.3816 18.089 22.1941 18.9953 21.8191C19.9119 21.4337 20.6463 20.9024 21.2036 20.2358H30.9119C29.7036 23.3087 27.7765 25.6941 25.1411 27.4024C22.5161 29.1108 19.4119 29.9649 15.8286 29.9649ZM10.1828 12.4024H21.8911C21.4588 11.1108 20.7505 10.1056 19.7661 9.38159C18.7765 8.64722 17.5161 8.27743 15.9744 8.27743C14.5838 8.27743 13.3755 8.64201 12.3494 9.36076C11.3182 10.0691 10.5994 11.0847 10.1828 12.4024Z" fill="#690061"/>
</svg>
