<svg width="32" height="31" viewBox="0 0 32 31" fill="none" xmlns="http://www.w3.org/2000/svg">
<path d="M16.2148 30.0545C13.1419 30.0545 10.4284 29.4347 8.06901 28.2004C5.72005 26.966 3.88672 25.2524 2.56901 23.0545C1.24609 20.8618 0.589844 18.3149 0.589844 15.4087C0.589844 12.5233 1.24609 9.99203 2.56901 7.82536C3.88672 5.64827 5.72526 3.93994 8.08984 2.70036C10.4648 1.46598 13.1836 0.846191 16.2565 0.846191C19.5586 0.846191 22.4076 1.55452 24.7982 2.97119C27.1836 4.37744 28.9961 6.35661 30.2357 8.90869C31.4701 11.466 32.0065 14.4712 31.8398 17.9295H10.5065C10.8919 19.4295 11.6211 20.5649 12.694 21.3254C13.7773 22.091 15.0169 22.4712 16.4232 22.4712C17.4909 22.4712 18.4753 22.2837 19.3815 21.9087C20.2982 21.5233 21.0326 20.992 21.5898 20.3254H31.2982C30.0898 23.3983 28.1628 25.7837 25.5273 27.492C22.9023 29.2004 19.7982 30.0545 16.2148 30.0545ZM10.569 12.492H22.2773C21.8451 11.2004 21.1367 10.1952 20.1523 9.47119C19.1628 8.73682 17.9023 8.36702 16.3607 8.36702C14.9701 8.36702 13.7617 8.73161 12.7357 9.45036C11.7044 10.1587 10.9857 11.1743 10.569 12.492Z" fill="#690061"/>
</svg>
