<svg width="13" height="15" viewBox="0 0 13 15" fill="none" xmlns="http://www.w3.org/2000/svg">
<path d="M6.61165 14.2771C5.37207 14.2771 4.29915 14.0219 3.38249 13.5062C2.46582 12.9802 1.75749 12.2094 1.25749 11.1937C0.767903 10.1677 0.52832 8.93331 0.52832 7.48539C0.52832 6.04268 0.767903 4.81352 1.25749 3.79789C1.75749 2.77185 2.46582 2.00102 3.38249 1.48539C4.29915 0.959351 5.37207 0.693726 6.61165 0.693726C7.84603 0.693726 8.91374 0.959351 9.81999 1.48539C10.7367 2.00102 11.4346 2.77185 11.9242 3.79789C12.4242 4.81352 12.6742 6.04268 12.6742 7.48539C12.6742 8.93331 12.4242 10.1677 11.9242 11.1937C11.4346 12.2094 10.7367 12.9802 9.81999 13.5062C8.91374 14.0219 7.84603 14.2771 6.61165 14.2771ZM6.61165 12.5479C7.91374 12.5479 8.90853 12.1416 9.59082 11.3187C10.2835 10.4854 10.6325 9.20935 10.6325 7.48539C10.6325 5.75102 10.2835 4.47498 9.59082 3.65206C8.90853 2.83435 7.91374 2.42289 6.61165 2.42289C5.30436 2.42289 4.29915 2.83956 3.59082 3.67289C2.8929 4.49581 2.54915 5.76664 2.54915 7.48539C2.54915 9.20935 2.8929 10.4854 3.59082 11.3187C4.29915 12.1416 5.30436 12.5479 6.61165 12.5479Z" fill="black"/>
</svg>
