<svg width="12" height="18" viewBox="0 0 12 18" fill="none" xmlns="http://www.w3.org/2000/svg">
<path d="M6.25863 14.5046C6.00863 15.0879 5.76904 15.5567 5.55029 15.9213C5.34196 16.2963 4.98779 16.6504 4.48779 16.9838C3.98779 17.3171 3.33154 17.4838 2.52946 17.4838C2.11279 17.4838 1.65967 17.4213 1.17529 17.2963V15.8588C1.53467 15.9108 1.85238 15.9421 2.13363 15.9421C2.63363 15.9421 3.02946 15.8431 3.32113 15.6504C3.62321 15.4681 3.86279 15.2233 4.02946 14.9213C4.20654 14.614 4.42529 14.1765 4.67529 13.6088L5.21696 12.2754L0.800293 0.921265H2.82113L6.15446 10.1088H6.30029L9.77946 0.921265H11.8211L6.25863 14.5046Z" fill="black"/>
</svg>
