<svg width="22" height="24" viewBox="0 0 22 24" fill="none" xmlns="http://www.w3.org/2000/svg">
<path d="M11.4463 23.4159C9.139 23.4159 7.19629 22.869 5.61296 21.77C4.04004 20.6607 2.86816 19.2075 2.09212 17.4159C1.3265 15.6242 0.946289 13.7284 0.946289 11.7284C0.946289 9.71796 1.3265 7.82212 2.09212 6.04087C2.86816 4.26483 4.05046 2.82733 5.63379 1.72837C7.22754 0.618999 9.18066 0.0617065 11.488 0.0617065C14.4984 0.0617065 16.9098 1.07212 18.7171 3.08254C20.5192 5.09817 21.4255 7.994 21.4255 11.77V12.8117H4.61296V13.1034C4.61296 14.3534 4.89421 15.5357 5.46712 16.645C6.03483 17.7596 6.83171 18.6555 7.86296 19.3325C8.889 20.0148 10.0713 20.3534 11.4046 20.3534C12.8473 20.3534 14.0973 19.9888 15.1546 19.2492C16.2067 18.5148 16.9932 17.5148 17.5088 16.2492H21.1338C20.5348 18.3065 19.415 20.0148 17.7796 21.3742C16.139 22.7388 14.0296 23.4159 11.4463 23.4159ZM17.8005 10.2075C17.6859 7.65546 17.0609 5.8065 15.9255 4.66587C14.7848 3.53046 13.29 2.95754 11.4463 2.95754C9.43066 2.95754 7.8265 3.62421 6.63379 4.95754C5.43587 6.29087 4.80046 8.04087 4.71712 10.2075H17.8005Z" fill="black"/>
</svg>
