<svg width="23" height="24" viewBox="0 0 23 24" fill="none" xmlns="http://www.w3.org/2000/svg">
<path d="M11.5314 23.4159C9.25016 23.4159 7.32308 22.8743 5.73975 21.7909C4.16683 20.6972 2.97933 19.2597 2.17725 17.4784C1.38558 15.7024 0.989746 13.7857 0.989746 11.7284C0.989746 9.68677 1.38558 7.78052 2.17725 5.99927C2.97933 4.22323 4.16683 2.79093 5.73975 1.7076C7.32308 0.613852 9.25016 0.0617676 11.5314 0.0617676C13.8075 0.0617676 15.7293 0.613852 17.3022 1.7076C18.8856 2.79093 20.0627 4.22843 20.8439 6.0201C21.6356 7.81177 22.0314 9.71802 22.0314 11.7284C22.0314 13.7597 21.6252 15.6659 20.8231 17.4576C20.0314 19.2493 18.8439 20.6972 17.2606 21.7909C15.6877 22.8743 13.7814 23.4159 11.5314 23.4159ZM11.5314 20.2701C12.9168 20.2701 14.1356 19.8899 15.1772 19.1243C16.2189 18.3482 17.0106 17.3118 17.5522 16.0201C18.0939 14.7284 18.3647 13.2857 18.3647 11.6868C18.3647 9.24406 17.745 7.21802 16.5106 5.60343C15.2866 3.97843 13.6252 3.16593 11.5314 3.16593C10.1147 3.16593 8.88558 3.55656 7.84391 4.3326C6.80225 5.09823 6.01058 6.12427 5.46891 7.41593C4.92725 8.7076 4.65641 10.1347 4.65641 11.6868C4.65641 14.1347 5.26579 16.1764 6.48975 17.8118C7.7085 19.4524 9.39079 20.2701 11.5314 20.2701Z" fill="black"/>
</svg>
