<svg width="10" height="43" viewBox="0 0 10 43" fill="none" xmlns="http://www.w3.org/2000/svg">
<path d="M5.33838 9.51953C4.01546 9.51953 2.94775 9.1237 2.13005 8.33203C1.30713 7.52995 0.900879 6.49349 0.900879 5.22786C0.900879 3.97786 1.30713 2.95703 2.13005 2.16536C2.94775 1.36328 4.01546 0.957031 5.33838 0.957031C6.21338 0.957031 6.98942 1.14453 7.67171 1.51953C8.36442 1.88412 8.90088 2.38932 9.27588 3.04036C9.65088 3.68099 9.83838 4.41016 9.83838 5.22786C9.83838 6.05078 9.65088 6.78516 9.27588 7.4362C8.90088 8.09245 8.36442 8.60286 7.67171 8.97787C6.98942 9.34245 6.21338 9.51953 5.33838 9.51953ZM1.71338 42.0195V12.9987H9.00505V42.0195H1.71338Z" fill="black"/>
</svg>
