<svg width="56" height="74" viewBox="0 0 56 74" fill="none" xmlns="http://www.w3.org/2000/svg">
<path d="M41.9736 60.1562H55.8486V72.677C55.8486 73.2187 55.5152 73.4895 54.8486 73.4895H43.0777C39.4527 73.4895 35.6715 73.2187 31.7444 72.677C27.8121 72.1354 23.9996 71.1249 20.3069 69.6354C16.6246 68.151 13.2861 66.0676 10.2861 63.3854C7.29647 60.6926 4.93188 57.2187 3.18188 52.9687C1.43188 48.7083 0.556885 43.4635 0.556885 37.2395C0.556885 30.8229 1.4423 25.4426 3.22355 21.0937C5.01522 16.7499 7.40063 13.2499 10.3902 10.5937C13.3746 7.92702 16.7288 5.90098 20.4527 4.51036C24.1715 3.12494 27.9788 2.18744 31.8694 1.69786C35.7704 1.21348 39.5048 0.968689 43.0777 0.968689H54.8486C55.5152 0.968689 55.8486 1.23952 55.8486 1.78119V30.2604H41.9736V14.1979C36.7236 13.9062 32.0256 14.5051 27.8902 15.9895C23.7496 17.4635 20.484 19.9374 18.0986 23.4062C15.7079 26.8801 14.5152 31.4895 14.5152 37.2395C14.5152 41.7135 15.1611 45.401 16.4527 48.302C17.7548 51.1926 19.4788 53.4583 21.6194 55.0937C23.7704 56.7187 26.0829 57.9166 28.5569 58.677C31.0413 59.427 33.4579 59.8801 35.8069 60.0312C38.1663 60.1874 40.2236 60.2291 41.9736 60.1562Z" fill="#562A2A" fill-opacity="0.502"/>
</svg>
