<svg width="17" height="19" viewBox="0 0 17 19" fill="none" xmlns="http://www.w3.org/2000/svg">
<path d="M8.25651 18.4714C6.54818 18.4714 5.09505 18.0651 3.90234 17.2422C2.72005 16.4089 1.82943 15.3255 1.23568 13.9922C0.636718 12.6589 0.339844 11.2318 0.339844 9.70052C0.339844 8.15885 0.636718 6.72135 1.23568 5.38802C1.82943 4.05469 2.72005 2.98177 3.90234 2.15885C5.09505 1.34115 6.54818 0.929688 8.25651 0.929688C9.96484 0.929688 11.4076 1.34115 12.5898 2.15885C13.7669 2.98177 14.6523 4.0651 15.2357 5.40885C15.8294 6.75781 16.1315 8.1901 16.1315 9.70052C16.1315 11.2161 15.8294 12.6484 15.2357 13.9922C14.6367 15.3255 13.7409 16.4089 12.5482 17.2422C11.3659 18.0651 9.93359 18.4714 8.25651 18.4714ZM8.25651 16.0964C9.29818 16.0964 10.2044 15.8151 10.9857 15.2422C11.7617 14.6589 12.3503 13.8828 12.7565 12.9089C13.1576 11.9401 13.3607 10.8568 13.3607 9.65885C13.3607 7.82552 12.9023 6.30469 11.9857 5.09635C11.069 3.8776 9.82422 3.26302 8.25651 3.26302C7.18359 3.26302 6.26172 3.55469 5.48568 4.13802C4.70443 4.71094 4.11068 5.48177 3.69401 6.45052C3.28776 7.42448 3.08984 8.49219 3.08984 9.65885C3.08984 11.4922 3.54818 13.0286 4.46484 14.263C5.39193 15.487 6.65755 16.0964 8.25651 16.0964Z" fill="black"/>
</svg>
