<svg width="22" height="34" viewBox="0 0 22 34" fill="none" xmlns="http://www.w3.org/2000/svg">
<path d="M5.03158 25.5367C6.95866 25.1044 8.45345 24.4012 9.51074 23.4325C10.5628 22.4742 11.2191 21.0575 11.4691 19.1825H10.4691C7.62012 19.1825 5.28678 18.3075 3.46908 16.5575C1.66178 14.7971 0.760742 12.5887 0.760742 9.9325C0.760742 7.21375 1.66178 4.96375 3.46908 3.1825C5.28678 1.39083 7.68262 0.494995 10.6566 0.494995C13.1253 0.494995 15.1878 1.12 16.8441 2.37C18.5107 3.60958 19.7503 5.23979 20.5732 7.26583C21.391 9.28145 21.8024 11.495 21.8024 13.9117C21.8024 16.8856 21.1774 19.8492 19.9274 22.8075C18.6878 25.7658 16.8337 28.2554 14.3649 30.2867C11.891 32.3127 8.78158 33.4169 5.03158 33.5992V25.5367Z" fill="#690061"/>
</svg>
