<svg width="17" height="19" viewBox="0 0 17 19" fill="none" xmlns="http://www.w3.org/2000/svg">
<path d="M0.575195 0.676432H3.55436V3.9681H3.8252C4.28353 2.91602 5.03353 2.02539 6.0752 1.30143C7.11686 0.567058 8.3877 0.197266 9.8877 0.197266C11.4398 0.197266 12.7419 0.567058 13.7835 1.30143C14.8252 2.02539 15.5856 2.98372 16.0752 4.17643C16.5752 5.35872 16.8252 6.64518 16.8252 8.0306V18.9473H13.846V8.4056C13.846 6.60352 13.3721 5.22852 12.4294 4.2806C11.4971 3.33789 10.2835 2.86393 8.78353 2.86393C7.18457 2.86393 5.91374 3.37956 4.97103 4.4056C4.02311 5.43685 3.55436 6.77018 3.55436 8.4056V18.9473H0.575195V0.676432Z" fill="black"/>
</svg>
