<svg width="17" height="19" viewBox="0 0 17 19" fill="none" xmlns="http://www.w3.org/2000/svg">
<path d="M7.79232 18.4714C6.29232 18.4714 5.01107 18.0911 3.95898 17.3255C2.90169 16.5495 2.0944 15.5026 1.54232 14.1797C0.985026 12.862 0.708984 11.3672 0.708984 9.70052C0.708984 8.03385 0.990235 6.53385 1.56315 5.20052C2.13086 3.86719 2.94857 2.82552 4.02148 2.07552C5.10482 1.3151 6.38607 0.929688 7.87565 0.929688C9.37565 0.929688 10.584 1.28385 11.5007 1.99219C12.4173 2.6901 13.11 3.52865 13.584 4.51302H13.7923V1.38802H16.584V18.2422H13.7923V14.7839H13.584C13.0684 15.7839 12.3392 16.6536 11.3965 17.388C10.4642 18.112 9.26107 18.4714 7.79232 18.4714ZM8.64648 16.0964C10.2819 16.0964 11.5423 15.487 12.4173 14.263C13.2923 13.0286 13.7298 11.5078 13.7298 9.70052C13.7298 7.88281 13.2923 6.36198 12.4173 5.13802C11.5423 3.91927 10.2819 3.30469 8.64648 3.30469C6.96419 3.30469 5.68815 3.91927 4.81315 5.13802C3.94857 6.34635 3.52148 7.85677 3.52148 9.65885C3.52148 11.4922 3.94857 13.0286 4.81315 14.263C5.68815 15.487 6.96419 16.0964 8.64648 16.0964Z" fill="black"/>
</svg>
