<svg width="12" height="14" viewBox="0 0 12 14" fill="none" xmlns="http://www.w3.org/2000/svg">
<path d="M6.13851 13.0254C4.89893 13.0254 3.85205 12.7337 2.99268 12.1504C2.14372 11.5566 1.51351 10.7858 1.09684 9.83789C0.690592 8.89518 0.492676 7.88997 0.492676 6.81706C0.492676 5.73372 0.690592 4.72331 1.09684 3.77539C1.51351 2.83268 2.14372 2.06706 2.99268 1.48372C3.85205 0.889975 4.89893 0.587891 6.13851 0.587891C7.68018 0.587891 8.89372 1.04102 9.78434 1.94206C10.6698 2.83268 11.2062 3.92122 11.3885 5.21289H9.47184C9.34684 4.33789 8.99788 3.62956 8.43018 3.08789C7.87288 2.53581 7.11768 2.25456 6.15934 2.25456C4.95101 2.25456 4.03434 2.69206 3.40934 3.56706C2.78434 4.43164 2.47184 5.51497 2.47184 6.81706C2.47184 8.10872 2.78434 9.19206 3.40934 10.0671C4.03434 10.9316 4.95101 11.3587 6.15934 11.3587C7.11768 11.3587 7.87288 11.0879 8.43018 10.5462C8.99788 10.0046 9.34684 9.29102 9.47184 8.40039H11.3885C11.2062 9.69206 10.6698 10.791 9.78434 11.6921C8.89372 12.5827 7.68018 13.0254 6.13851 13.0254Z" fill="black"/>
</svg>
