<svg width="21" height="24" viewBox="0 0 21 24" fill="none" xmlns="http://www.w3.org/2000/svg">
<path d="M0.0146484 0.984538H3.68132V5.0262H4.01465C4.58236 3.72412 5.50423 2.62516 6.78548 1.73454C8.06152 0.833496 9.62923 0.380371 11.4938 0.380371C13.3949 0.380371 14.9834 0.833496 16.2646 1.73454C17.5407 2.62516 18.4834 3.80745 19.098 5.2762C19.7074 6.73454 20.0146 8.31787 20.0146 10.0262V23.4637H16.348V10.4845C16.348 8.2762 15.7699 6.5887 14.6188 5.42204C13.4626 4.25537 11.9626 3.67204 10.1188 3.67204C8.16048 3.67204 6.59798 4.30745 5.43132 5.56787C4.26465 6.8335 3.68132 8.47412 3.68132 10.4845V23.4637H0.0146484V0.984538Z" fill="#690061"/>
</svg>
