<svg width="12" height="14" viewBox="0 0 12 14" fill="none" xmlns="http://www.w3.org/2000/svg">
<path d="M5.30941 13.0254C4.23649 13.0254 3.33024 12.7546 2.58024 12.2129C1.84066 11.6608 1.27295 10.916 0.871908 9.98372C0.481282 9.04102 0.288574 7.98372 0.288574 6.81706C0.288574 5.63997 0.48649 4.57747 0.892741 3.62956C1.29378 2.68685 1.87712 1.94206 2.64274 1.40039C3.40316 0.858724 4.31462 0.587891 5.37191 0.587891C6.42399 0.587891 7.27816 0.837891 7.93441 1.33789C8.58545 1.83789 9.08024 2.43685 9.41357 3.12956H9.55941V0.921224H11.5386V12.8587H9.55941V10.4004H9.41357C9.03857 11.1243 8.51774 11.7441 7.85107 12.2546C7.19482 12.7702 6.35107 13.0254 5.30941 13.0254ZM5.91357 11.3379C7.08024 11.3379 7.96566 10.9108 8.58024 10.0462C9.20524 9.17122 9.51774 8.09831 9.51774 6.81706C9.51774 5.52539 9.20524 4.45247 8.58024 3.58789C7.96566 2.71289 7.08024 2.27539 5.91357 2.27539C4.71566 2.27539 3.81462 2.70768 3.20524 3.56706C2.59066 4.43164 2.28857 5.49935 2.28857 6.77539C2.28857 8.08268 2.59066 9.17122 3.20524 10.0462C3.81462 10.9108 4.71566 11.3379 5.91357 11.3379Z" fill="black"/>
</svg>
