<svg width="16" height="18" viewBox="0 0 16 18" fill="none" xmlns="http://www.w3.org/2000/svg">
<path d="M15.1538 17.2422H12.383V14.0338H12.1746C11.7267 15.0234 11.0392 15.8568 10.1121 16.5338C9.17985 17.2005 8.04964 17.5338 6.71631 17.5338C5.29964 17.5338 4.11735 17.1953 3.17464 16.513C2.24235 15.8359 1.55485 14.9505 1.11214 13.8672C0.67985 12.7734 0.466309 11.5859 0.466309 10.3047V0.388H3.21631V9.9505C3.21631 11.5911 3.63298 12.8568 4.46631 13.7422C5.29964 14.6328 6.38818 15.0755 7.73714 15.0755C9.13818 15.0755 10.2632 14.6068 11.1121 13.6588C11.9559 12.7005 12.383 11.4661 12.383 9.9505V0.388H15.1538V17.2422Z" fill="black"/>
</svg>
