<svg width="29" height="31" viewBox="0 0 29 31" fill="none" xmlns="http://www.w3.org/2000/svg">
<path d="M10.0173 30.5821C8.15267 30.5821 6.53809 30.2383 5.16309 29.5612C3.7985 28.8685 2.75163 27.8633 2.01725 26.5404C1.27767 25.2071 0.913086 23.6133 0.913086 21.7487C0.913086 20.0404 1.27767 18.6029 2.01725 17.4362C2.75163 16.2696 3.89225 15.3112 5.43392 14.5612C6.986 13.8112 9.00684 13.2383 11.4964 12.8321C13.2308 12.556 14.5485 12.2487 15.4548 11.9154C16.3558 11.5821 16.9652 11.2071 17.2881 10.7904C17.6058 10.3633 17.7673 9.82684 17.7673 9.18622C17.7673 8.25914 17.4391 7.5508 16.7881 7.06122C16.1318 6.56122 15.0485 6.31122 13.5381 6.31122C11.9235 6.31122 10.3923 6.6758 8.93392 7.39455C7.486 8.10289 6.22559 9.0508 5.14225 10.2279H4.62142L1.57975 5.62372C3.0485 3.99872 4.84017 2.72789 6.95475 1.81122C9.07975 0.894552 11.3975 0.436218 13.9131 0.436218C17.7568 0.436218 20.5381 1.25914 22.2464 2.89455C23.9652 4.51955 24.8298 6.83205 24.8298 9.83205V22.4362C24.8298 23.7435 25.3975 24.3946 26.5381 24.3946C26.9808 24.3946 27.4131 24.3112 27.8298 24.1446L28.2048 24.2487L28.7256 29.3321C28.3193 29.5977 27.7568 29.8112 27.0381 29.9779C26.3298 30.1446 25.5433 30.2279 24.6839 30.2279C22.9443 30.2279 21.585 29.8946 20.6006 29.2279C19.6266 28.5612 18.9339 27.5196 18.5173 26.1029L17.9756 26.0404C16.5433 29.0716 13.8923 30.5821 10.0173 30.5821ZM12.3298 25.1237C14.0225 25.1237 15.3714 24.5612 16.3714 23.4362C17.3818 22.3008 17.8923 20.7227 17.8923 18.7071V15.7487L17.3923 15.6446C16.9443 16.0091 16.3714 16.306 15.6631 16.5404C14.9548 16.78 13.9339 17.0091 12.6006 17.2279C11.0173 17.4935 9.87663 17.9466 9.18392 18.5821C8.486 19.2227 8.14225 20.1341 8.14225 21.3112C8.14225 22.5612 8.50684 23.5143 9.24642 24.1654C9.99642 24.806 11.0225 25.1237 12.3298 25.1237Z" fill="black"/>
</svg>
