<svg width="17" height="25" viewBox="0 0 17 25" fill="none" xmlns="http://www.w3.org/2000/svg">
<path d="M9.64567 18.4714C8.17171 18.4714 6.96338 18.112 6.02067 17.388C5.08838 16.6536 4.36442 15.7839 3.854 14.7839H3.62484V24.7422H0.854004V1.38802H3.62484V4.51302H3.854C4.32275 3.52865 5.02067 2.6901 5.93734 1.99219C6.854 1.28385 8.05192 0.929688 9.5415 0.929688C11.0675 0.929688 12.3644 1.3151 13.4373 2.07552C14.5207 2.82552 15.3384 3.86719 15.8957 5.20052C16.4478 6.53385 16.729 8.03385 16.729 9.70052C16.729 11.3672 16.4478 12.862 15.8957 14.1797C15.3384 15.5026 14.5259 16.5495 13.4582 17.3255C12.3853 18.0911 11.1144 18.4714 9.64567 18.4714ZM8.7915 16.0964C10.4425 16.0964 11.6978 15.4922 12.5623 14.2839C13.4373 13.0651 13.8748 11.5339 13.8748 9.70052C13.8748 7.88281 13.4425 6.36719 12.5832 5.15885C11.7342 3.9401 10.4686 3.32552 8.7915 3.32552C7.12484 3.32552 5.854 3.9401 4.979 5.15885C4.11442 6.36719 3.68734 7.88281 3.68734 9.70052C3.68734 11.5078 4.12484 13.0286 4.99984 14.263C5.87484 15.487 7.13525 16.0964 8.7915 16.0964Z" fill="black"/>
</svg>
