<svg width="11" height="14" viewBox="0 0 11 14" fill="none" xmlns="http://www.w3.org/2000/svg">
<path d="M10.6131 12.8588H8.63395V10.5879H8.50895C8.18603 11.2858 7.69645 11.8744 7.02979 12.3588C6.37354 12.8327 5.57666 13.0671 4.63395 13.0671C3.63395 13.0671 2.80062 12.8275 2.13395 12.3379C1.46729 11.8536 0.977701 11.2286 0.675618 10.4629C0.368326 9.68689 0.217285 8.84835 0.217285 7.9421V0.921265H2.15479V7.6921C2.15479 8.85876 2.44645 9.7546 3.02979 10.3796C3.62354 11.0046 4.40479 11.3171 5.36312 11.3171C6.34749 11.3171 7.13916 10.9838 7.73812 10.3171C8.33187 9.64002 8.63395 8.76502 8.63395 7.6921V0.921265H10.6131V12.8588Z" fill="black"/>
</svg>
