<svg width="17" height="19" viewBox="0 0 17 19" fill="none" xmlns="http://www.w3.org/2000/svg">
<path d="M16.8634 18.6937H13.8426V15.2354H13.6343C13.1447 16.2926 12.3947 17.1885 11.3843 17.9229C10.3843 18.6468 9.15511 19.0062 7.69678 19.0062C6.16553 19.0062 4.89469 18.6416 3.88428 17.902C2.86865 17.152 2.12386 16.1937 1.65511 15.027C1.18115 13.8499 0.946777 12.5635 0.946777 11.1729V0.422852H3.92594V10.7979C3.92594 12.5791 4.37386 13.9437 5.28011 14.902C6.18115 15.8604 7.36344 16.3395 8.82178 16.3395C10.3322 16.3395 11.5509 15.8291 12.4676 14.7979C13.3843 13.7718 13.8426 12.4385 13.8426 10.7979V0.422852H16.8634V18.6937Z" fill="#690061"/>
</svg>
