<svg width="55" height="71" viewBox="0 0 55 71" fill="none" xmlns="http://www.w3.org/2000/svg">
<path d="M28.556 70.6354C21.1237 70.6354 15.1237 68.9896 10.556 65.6979C5.9987 62.4062 3.47786 57.9167 2.99349 52.2396H19.7643C20.1237 53.8646 21.0404 55.1146 22.5143 55.9896C23.9987 56.875 25.8945 57.3229 28.2018 57.3229C34.1706 57.3229 37.1602 54.1771 37.1602 47.8854V44.3438C33.2956 46.8854 28.7331 48.1562 23.4727 48.1562C18.9987 48.1562 15.056 47.1667 11.6393 45.1771C8.22266 43.1771 5.54557 40.3958 3.61849 36.8229C1.6862 33.2552 0.722656 29.1146 0.722656 24.4062C0.722656 19.6875 1.6862 15.5469 3.61849 11.9896C5.54557 8.42188 8.22266 5.64583 11.6393 3.65625C15.056 1.65625 18.9987 0.65625 23.4727 0.65625C30.4831 0.65625 36.1081 2.77083 40.3477 6.98958L42.1602 2.01042H54.6602V47.5104C54.6602 54.9531 52.3164 60.6667 47.6393 64.6562C42.957 68.6406 36.5977 70.6354 28.556 70.6354ZM17.7643 24.4062C17.7643 27.3646 18.7018 29.7969 20.5768 31.6979C22.4518 33.6042 24.8685 34.5521 27.8268 34.5521C30.7852 34.5521 33.1862 33.6042 35.0352 31.6979C36.8789 29.7969 37.806 27.3646 37.806 24.4062C37.806 21.4375 36.8789 19.0208 35.0352 17.1562C33.1862 15.2812 30.7852 14.3438 27.8268 14.3438C24.8685 14.3438 22.4518 15.2812 20.5768 17.1562C18.7018 19.0208 17.7643 21.4375 17.7643 24.4062Z" fill="#690061"/>
</svg>
