<svg width="11" height="15" viewBox="0 0 11 15" fill="none" xmlns="http://www.w3.org/2000/svg">
<path d="M6.014 14.2771C5.18066 14.2771 4.41504 14.1729 3.72233 13.9646C3.02441 13.7458 2.43587 13.4437 1.9515 13.0687C1.46191 12.6833 1.12337 12.251 0.930664 11.7771L2.05566 10.5896H2.30566C2.73275 11.2302 3.24837 11.7146 3.84733 12.0479C4.45671 12.3812 5.18066 12.5479 6.014 12.5479C6.97233 12.5479 7.7015 12.3604 8.2015 11.9854C8.71191 11.6104 8.97233 11.0844 8.97233 10.4021C8.97233 9.89164 8.81608 9.46456 8.514 9.13123C8.20671 8.79789 7.71191 8.54789 7.03483 8.38123L4.8265 7.83956C3.64421 7.54789 2.78483 7.09998 2.24316 6.48539C1.7015 5.86039 1.43066 5.09998 1.43066 4.19373C1.43066 3.47498 1.60775 2.85518 1.97233 2.33956C2.33171 1.81352 2.85254 1.41247 3.53483 1.13123C4.22754 0.839559 5.04004 0.693726 5.97233 0.693726C7.18066 0.693726 8.12858 0.860392 8.8265 1.19373C9.51921 1.52706 10.0609 1.99581 10.4515 2.58956L9.34733 3.67289H9.11816C8.7015 3.18852 8.24316 2.83956 7.74316 2.63123C7.24316 2.41247 6.64942 2.29789 5.97233 2.29789C5.10775 2.29789 4.4515 2.45414 3.99316 2.75623C3.53483 3.06352 3.30566 3.51664 3.30566 4.11039C3.30566 4.64164 3.46191 5.06873 3.78483 5.40206C4.11816 5.72498 4.68587 5.98018 5.49316 6.17289L7.65983 6.69373C8.79525 6.95935 9.61816 7.40206 10.1182 8.02706C10.6286 8.65206 10.889 9.43852 10.889 10.3812C10.889 11.1469 10.7067 11.8291 10.3473 12.4229C9.98275 13.0062 9.43587 13.4646 8.7015 13.7979C7.96191 14.1156 7.06608 14.2771 6.014 14.2771Z" fill="black"/>
</svg>
