<svg width="11" height="14" viewBox="0 0 11 14" fill="none" xmlns="http://www.w3.org/2000/svg">
<path d="M10.7074 12.8588H8.72819V10.5879H8.60319C8.28027 11.2858 7.79069 11.8744 7.12402 12.3588C6.46777 12.8327 5.6709 13.0671 4.72819 13.0671C3.72819 13.0671 2.89486 12.8275 2.22819 12.3379C1.56152 11.8536 1.07194 11.2286 0.769857 10.4629C0.462565 9.68689 0.311523 8.84835 0.311523 7.9421V0.921265H2.24902V7.6921C2.24902 8.85876 2.54069 9.7546 3.12402 10.3796C3.71777 11.0046 4.49902 11.3171 5.45736 11.3171C6.44173 11.3171 7.2334 10.9838 7.83236 10.3171C8.42611 9.64002 8.72819 8.76502 8.72819 7.6921V0.921265H10.7074V12.8588Z" fill="black"/>
</svg>
