<svg width="22" height="24" viewBox="0 0 22 24" fill="none" xmlns="http://www.w3.org/2000/svg">
<path d="M11.0878 23.4159C8.80656 23.4159 6.87948 22.8742 5.29614 21.7909C3.72323 20.6971 2.53573 19.2596 1.73364 17.4784C0.941976 15.7023 0.546143 13.7857 0.546143 11.7284C0.546143 9.68671 0.941976 7.78046 1.73364 5.99921C2.53573 4.22317 3.72323 2.79087 5.29614 1.70754C6.87948 0.613791 8.80656 0.0617065 11.0878 0.0617065C13.3639 0.0617065 15.2857 0.613791 16.8586 1.70754C18.442 2.79087 19.6191 4.22837 20.4003 6.02004C21.192 7.81171 21.5878 9.71796 21.5878 11.7284C21.5878 13.7596 21.1816 15.6659 20.3795 17.4575C19.5878 19.2492 18.4003 20.6971 16.817 21.7909C15.2441 22.8742 13.3378 23.4159 11.0878 23.4159ZM11.0878 20.27C12.4732 20.27 13.692 19.8898 14.7336 19.1242C15.7753 18.3482 16.567 17.3117 17.1086 16.02C17.6503 14.7284 17.9211 13.2857 17.9211 11.6867C17.9211 9.244 17.3014 7.21796 16.067 5.60337C14.843 3.97837 13.1816 3.16587 11.0878 3.16587C9.67114 3.16587 8.44198 3.5565 7.40031 4.33254C6.35864 5.09817 5.56698 6.12421 5.02531 7.41587C4.48364 8.70754 4.21281 10.1346 4.21281 11.6867C4.21281 14.1346 4.82218 16.1763 6.04614 17.8117C7.26489 19.4523 8.94718 20.27 11.0878 20.27Z" fill="black"/>
</svg>
