<svg width="17" height="19" viewBox="0 0 17 19" fill="none" xmlns="http://www.w3.org/2000/svg">
<path d="M7.57259 18.4714C6.07259 18.4714 4.79134 18.0911 3.73926 17.3255C2.68197 16.5495 1.87467 15.5026 1.32259 14.1797C0.765299 12.862 0.489258 11.3672 0.489258 9.70052C0.489258 8.03385 0.770508 6.53385 1.34342 5.20052C1.91113 3.86719 2.72884 2.82552 3.80176 2.07552C4.88509 1.3151 6.16634 0.929688 7.65592 0.929688C9.15592 0.929688 10.3643 1.28385 11.2809 1.99219C12.1976 2.6901 12.8903 3.52865 13.3643 4.51302H13.5726V1.38802H16.3643V18.2422H13.5726V14.7839H13.3643C12.8486 15.7839 12.1195 16.6536 11.1768 17.388C10.2445 18.112 9.04134 18.4714 7.57259 18.4714ZM8.42676 16.0964C10.0622 16.0964 11.3226 15.487 12.1976 14.263C13.0726 13.0286 13.5101 11.5078 13.5101 9.70052C13.5101 7.88281 13.0726 6.36198 12.1976 5.13802C11.3226 3.91927 10.0622 3.30469 8.42676 3.30469C6.74447 3.30469 5.46842 3.91927 4.59342 5.13802C3.72884 6.34635 3.30176 7.85677 3.30176 9.65885C3.30176 11.4922 3.72884 13.0286 4.59342 14.263C5.46842 15.487 6.74447 16.0964 8.42676 16.0964Z" fill="black"/>
</svg>
