<svg width="12" height="14" viewBox="0 0 12 14" fill="none" xmlns="http://www.w3.org/2000/svg">
<path d="M5.67497 13.0254C4.46663 13.0254 3.43538 12.7337 2.59163 12.1504C1.7583 11.5671 1.12288 10.8066 0.695801 9.85872C0.279134 8.91602 0.0708008 7.90039 0.0708008 6.81706C0.0708008 5.72331 0.279134 4.70247 0.695801 3.75456C1.12288 2.81185 1.7583 2.04622 2.59163 1.46289C3.43538 0.879557 4.46663 0.587891 5.67497 0.587891C6.8833 0.587891 7.90413 0.879557 8.73747 1.46289C9.58122 2.04622 10.2166 2.81706 10.6333 3.77539C11.05 4.72331 11.2583 5.73372 11.2583 6.81706C11.2583 7.88997 11.0396 8.90039 10.6125 9.85872C10.1958 10.8066 9.56038 11.5671 8.71663 12.1504C7.8833 12.7337 6.86768 13.0254 5.67497 13.0254ZM5.67497 11.3379C6.42497 11.3379 7.0708 11.14 7.61247 10.7337C8.16455 10.3171 8.58122 9.77018 8.86247 9.08789C9.15413 8.39518 9.29997 7.62435 9.29997 6.77539C9.29997 5.48372 8.97184 4.41081 8.3208 3.54622C7.68018 2.68685 6.79997 2.25456 5.67497 2.25456C4.92497 2.25456 4.26872 2.46289 3.71663 2.87956C3.15934 3.28581 2.73747 3.83268 2.4458 4.52539C2.16455 5.20768 2.02913 5.95768 2.02913 6.77539C2.02913 8.08268 2.35205 9.17122 3.0083 10.0462C3.65934 10.9108 4.54997 11.3379 5.67497 11.3379Z" fill="black"/>
</svg>
