<svg width="13" height="14" viewBox="0 0 13 14" fill="none" xmlns="http://www.w3.org/2000/svg">
<path d="M6.51546 13.0671C5.23421 13.0671 4.1613 12.7754 3.2863 12.1921C2.42171 11.6088 1.7863 10.8483 1.36963 9.90043C0.952962 8.95772 0.744629 7.9421 0.744629 6.85876C0.744629 5.76502 0.952962 4.74418 1.36963 3.79626C1.7863 2.85356 2.42171 2.08793 3.2863 1.5046C4.1613 0.910847 5.24984 0.608765 6.55713 0.608765C8.24984 0.608765 9.58838 1.14522 10.578 2.21293C11.578 3.28585 12.078 4.83272 12.078 6.85876V7.8171H4.14046V8.0046C4.14046 8.6296 4.354 9.16606 4.7863 9.60876C5.21338 10.0567 5.76546 10.2754 6.43213 10.2754C6.94255 10.2754 7.38004 10.1608 7.74463 9.92126C8.11963 9.68689 8.37484 9.37439 8.51546 8.98376H11.9946C11.6873 10.1817 11.0623 11.1608 10.1196 11.9213C9.17171 12.6869 7.9738 13.0671 6.51546 13.0671ZM8.70296 5.5671C8.68734 4.74939 8.479 4.14522 8.07796 3.7546C7.67171 3.35356 7.14567 3.15043 6.49463 3.15043C5.81234 3.15043 5.27067 3.36918 4.86963 3.79626C4.46338 4.21293 4.25504 4.80668 4.24463 5.5671H8.70296Z" fill="black"/>
</svg>
