<svg width="67" height="67" viewBox="0 0 67 67" fill="none" xmlns="http://www.w3.org/2000/svg">
<path d="M0.294189 66.4874V2.57074H16.9609L19.3775 9.09157C21.7109 6.44053 24.69 4.39366 28.315 2.94574C31.94 1.48741 35.8879 0.75824 40.1692 0.75824C48.3775 0.75824 54.8775 3.31553 59.6692 8.42491C64.4609 13.5395 66.8567 20.4041 66.8567 29.0291V66.4874H43.6692V31.4457C43.6692 27.6541 42.7994 24.7947 41.065 22.8624C39.3254 20.9353 36.9296 19.9666 33.8775 19.9666C30.6536 19.9666 28.1119 21.0187 26.2525 23.1124C24.4036 25.2114 23.4817 28.1905 23.4817 32.0499V66.4874H0.294189Z" fill="#690061"/>
</svg>
