<svg width="14" height="19" viewBox="0 0 14 19" fill="none" xmlns="http://www.w3.org/2000/svg">
<path d="M7.56982 18.4714C6.19482 18.4714 5.00732 18.2005 4.00732 17.6589C3.00732 17.1068 2.2417 16.4036 1.71566 15.5547C1.20003 14.7109 0.944824 13.8151 0.944824 12.8672V12.7005H3.69482V12.8255C3.69482 13.3672 3.84066 13.9036 4.13232 14.4297C4.43441 14.9453 4.88753 15.3672 5.48649 15.7005C6.08024 16.0339 6.8042 16.2005 7.65316 16.2005C8.6792 16.2005 9.52816 15.9505 10.1948 15.4505C10.8719 14.9505 11.2157 14.263 11.2157 13.388C11.2157 12.6536 10.95 12.0755 10.424 11.6589C9.90837 11.2318 9.25732 10.9505 8.46566 10.8255L6.25732 10.4922C4.8667 10.2839 3.70003 9.81511 2.75732 9.07552C1.82503 8.34115 1.36149 7.27344 1.36149 5.86719C1.36149 4.29948 1.91357 3.08594 3.02816 2.22135C4.15316 1.36198 5.59066 0.929688 7.34066 0.929688C8.64274 0.929688 9.75732 1.17448 10.674 1.65885C11.6011 2.13281 12.3094 2.75781 12.799 3.53385C13.299 4.3151 13.549 5.15885 13.549 6.07552V6.20052H10.799V6.13802C10.799 5.72135 10.6844 5.27865 10.4657 4.80469C10.2417 4.33594 9.86149 3.92969 9.31982 3.59635C8.78857 3.2526 8.11149 3.07552 7.27816 3.07552C6.24691 3.07552 5.42399 3.32552 4.79899 3.82552C4.18441 4.32552 3.88232 4.98177 3.88232 5.78385C3.88232 6.45052 4.12191 7.0026 4.61149 7.42969C5.11149 7.86198 5.72608 8.13802 6.46566 8.26302L8.88232 8.63802C10.2834 8.8776 11.4657 9.36198 12.424 10.0964C13.3823 10.8359 13.8615 11.9193 13.8615 13.3464C13.8615 14.3776 13.5907 15.2734 13.049 16.0339C12.5073 16.7995 11.7573 17.3984 10.799 17.8255C9.84066 18.2526 8.76253 18.4714 7.56982 18.4714Z" fill="black"/>
</svg>
