<svg width="12" height="15" viewBox="0 0 12 15" fill="none" xmlns="http://www.w3.org/2000/svg">
<path d="M0.786133 14.2273V1.12309H2.6403V3.18559L2.8903 3.24809C3.31738 2.48767 3.86947 1.90434 4.53613 1.49809C5.21322 1.09705 6.04655 0.893921 7.03613 0.893921C8.60384 0.893921 9.74447 1.30017 10.4528 2.10225C11.1611 2.89392 11.5153 4.12309 11.5153 5.78975V14.2273H9.5778V5.85225C9.5778 5.06059 9.47363 4.43038 9.2653 3.95642C9.06738 3.47205 8.75488 3.11788 8.3278 2.89392C7.91113 2.67517 7.35384 2.56059 6.66113 2.56059C5.49447 2.56059 4.54134 2.95642 3.80697 3.74809C3.08301 4.52934 2.72363 5.77934 2.72363 7.49809V14.2273H0.786133Z" fill="black"/>
</svg>
