<svg width="17" height="25" viewBox="0 0 17 25" fill="none" xmlns="http://www.w3.org/2000/svg">
<path d="M7.73128 24.4714C6.23128 24.4714 4.95003 24.0911 3.89795 23.3255C2.84066 22.5495 2.03337 21.5026 1.48128 20.1797C0.923991 18.862 0.647949 17.3672 0.647949 15.7005C0.647949 14.0234 0.923991 12.5234 1.48128 11.2005C2.03337 9.86719 2.84587 8.82552 3.91878 8.07552C4.98649 7.3151 6.27816 6.92969 7.79378 6.92969C9.27816 6.92969 10.4865 7.29427 11.4188 8.01302C12.3459 8.72135 13.0334 9.55469 13.4813 10.513H13.7313V0.242188H16.5021V24.2422H13.7313V20.7839H13.4813C12.9657 21.8151 12.2417 22.6901 11.3146 23.4089C10.3979 24.1172 9.20003 24.4714 7.73128 24.4714ZM8.56462 22.0964C10.2157 22.0964 11.4813 21.487 12.3563 20.263C13.2313 19.0286 13.6688 17.5078 13.6688 15.7005C13.6688 13.8828 13.2313 12.3672 12.3563 11.1589C11.4813 9.94011 10.2157 9.32552 8.56462 9.32552C6.8667 9.32552 5.59066 9.94011 4.73128 11.1589C3.88232 12.3672 3.46045 13.8828 3.46045 15.7005C3.46045 17.5339 3.88753 19.0651 4.75212 20.2839C5.62712 21.4922 6.89795 22.0964 8.56462 22.0964Z" fill="black"/>
</svg>
