<svg width="13" height="14" viewBox="0 0 13 14" fill="none" xmlns="http://www.w3.org/2000/svg">
<path d="M5.80501 13.0254C4.7321 13.0254 3.82585 12.7546 3.07585 12.2129C2.33626 11.6608 1.76855 10.916 1.36751 9.98372C0.976888 9.04102 0.78418 7.98372 0.78418 6.81706C0.78418 5.63997 0.982096 4.57747 1.38835 3.62956C1.78939 2.68685 2.37272 1.94206 3.13835 1.40039C3.89876 0.858724 4.81022 0.587891 5.86751 0.587891C6.9196 0.587891 7.77376 0.837891 8.43001 1.33789C9.08105 1.83789 9.57585 2.43685 9.90918 3.12956H10.055V0.921224H12.0342V12.8587H10.055V10.4004H9.90918C9.53418 11.1243 9.01335 11.7441 8.34668 12.2546C7.69043 12.7702 6.84668 13.0254 5.80501 13.0254ZM6.40918 11.3379C7.57585 11.3379 8.46126 10.9108 9.07585 10.0462C9.70085 9.17122 10.0133 8.09831 10.0133 6.81706C10.0133 5.52539 9.70085 4.45247 9.07585 3.58789C8.46126 2.71289 7.57585 2.27539 6.40918 2.27539C5.21126 2.27539 4.31022 2.70768 3.70085 3.56706C3.08626 4.43164 2.78418 5.49935 2.78418 6.77539C2.78418 8.08268 3.08626 9.17122 3.70085 10.0462C4.31022 10.9108 5.21126 11.3379 6.40918 11.3379Z" fill="black"/>
</svg>
