<svg width="14" height="31" viewBox="0 0 14 31" fill="none" xmlns="http://www.w3.org/2000/svg">
<path d="M7.93734 11.0493V24.1118C7.93734 25.1534 7.98421 25.9243 8.08317 26.4243C8.19255 26.9243 8.46338 27.3201 8.89567 27.6118C9.33838 27.893 10.0623 28.0284 11.0623 28.0284C11.7394 28.0284 12.479 27.9347 13.2707 27.7368V30.3826C13.0728 30.4659 12.6457 30.5493 11.979 30.6326C11.3123 30.7159 10.6248 30.7576 9.9165 30.7576C8.26025 30.7576 7.02588 30.5284 6.20817 30.0701C5.40088 29.6014 4.87484 28.9607 4.62484 28.1534C4.38525 27.3357 4.27067 26.2576 4.27067 24.9243V11.0493H0.104004V8.11178H4.27067V0.715942H7.93734V8.11178H13.2707V11.0493H7.93734Z" fill="#690061"/>
</svg>
