<svg width="11" height="25" viewBox="0 0 11 25" fill="none" xmlns="http://www.w3.org/2000/svg">
<path d="M6.55127 8.72445V19.3286C6.55127 20.1932 6.59294 20.8234 6.67627 21.2244C6.7596 21.6307 6.97835 21.9484 7.34294 22.1828C7.70231 22.4067 8.28564 22.5161 9.09294 22.5161C9.64502 22.5161 10.244 22.4432 10.8846 22.2869V24.4328C10.7284 24.5057 10.3846 24.5734 9.84294 24.6411C9.30127 24.7088 8.73877 24.7453 8.15544 24.7453C6.80648 24.7453 5.80648 24.5578 5.15544 24.1828C4.49919 23.7974 4.0721 23.2765 3.86377 22.6203C3.66585 21.9536 3.5721 21.0786 3.5721 19.9953V8.72445H0.17627V6.32861H3.5721V0.328613H6.55127V6.32861H10.8846V8.72445H6.55127Z" fill="black"/>
</svg>
