<svg width="51" height="50" viewBox="0 0 51 50" fill="none" xmlns="http://www.w3.org/2000/svg">
<path d="M0.860352 49.9688V2.01042H13.3604L15.1729 6.90625C16.9229 4.90625 19.1572 3.36458 21.8812 2.28125C24.5999 1.19792 27.5687 0.65625 30.777 0.65625C36.9437 0.65625 41.8239 2.57292 45.4229 6.40625C49.0166 10.2396 50.8187 15.3958 50.8187 21.8646V49.9688H33.402V23.6771C33.402 20.8333 32.7458 18.6875 31.4437 17.2396C30.152 15.7812 28.3499 15.0521 26.0479 15.0521C23.6312 15.0521 21.7249 15.8438 20.3395 17.4271C18.9489 19 18.2562 21.2344 18.2562 24.1354V49.9688H0.860352Z" fill="#690061"/>
</svg>
