<svg width="56" height="74" viewBox="0 0 56 74" fill="none" xmlns="http://www.w3.org/2000/svg">
<path d="M42.0389 60.1179H55.9139V72.6388C55.9139 73.1804 55.5805 73.4513 54.9139 73.4513H43.143C39.518 73.4513 35.7368 73.1804 31.8097 72.6388C27.8774 72.0971 24.0649 71.0867 20.3722 69.5971C16.6899 68.1127 13.3514 66.0294 10.3514 63.3471C7.36178 60.6544 4.99719 57.1804 3.24719 52.9304C1.49719 48.67 0.622192 43.4252 0.622192 37.2013C0.622192 30.7846 1.50761 25.4044 3.28886 21.0554C5.08053 16.7117 7.46594 13.2117 10.4555 10.5554C13.4399 7.88875 16.7941 5.86271 20.518 4.47209C24.2368 3.08667 28.0441 2.14917 31.9347 1.65959C35.8357 1.17521 39.5701 0.93042 43.143 0.93042H54.9139C55.5805 0.93042 55.9139 1.20125 55.9139 1.74292V30.2221H42.0389V14.1596C36.7889 13.8679 32.0909 14.4669 27.9555 15.9513C23.8149 17.4252 20.5493 19.8992 18.1639 23.3679C15.7732 26.8419 14.5805 31.4513 14.5805 37.2013C14.5805 41.6752 15.2264 45.3627 16.518 48.2638C17.8201 51.1544 19.5441 53.42 21.6847 55.0554C23.8357 56.6804 26.1482 57.8783 28.6222 58.6388C31.1066 59.3888 33.5232 59.8419 35.8722 59.9929C38.2316 60.1492 40.2889 60.1908 42.0389 60.1179Z" fill="#562A2A" fill-opacity="0.302"/>
</svg>
