<svg width="22" height="43" viewBox="0 0 22 43" fill="none" xmlns="http://www.w3.org/2000/svg">
<path d="M4.30436 42.0196V18.7487H0.200195V12.9571H4.30436C3.99707 11.7383 3.84603 10.5925 3.84603 9.51957C3.84603 7.67582 4.2679 6.0977 5.11686 4.79041C5.96061 3.48832 7.16895 2.49353 8.74186 1.81124C10.3252 1.13416 12.2054 0.790405 14.3877 0.790405C17.596 0.790405 19.9814 1.34249 21.5544 2.43624L19.846 7.81124L19.3044 7.91541C18.2054 7.13936 16.8096 6.74874 15.1169 6.74874C13.7939 6.74874 12.8044 7.07686 12.1377 7.72791C11.4814 8.36853 11.1585 9.23832 11.1585 10.3321C11.1585 10.806 11.1846 11.2435 11.2419 11.6446C11.3096 12.0352 11.4294 12.4727 11.596 12.9571H19.8877V18.7487H11.596V42.0196H4.30436Z" fill="black"/>
</svg>
