<svg width="27" height="35" viewBox="0 0 27 35" fill="none" xmlns="http://www.w3.org/2000/svg">
<path d="M13.9666 34.5749C10.3103 34.5749 7.36239 33.7624 5.11239 32.1374C2.8728 30.5228 1.63843 28.3145 1.40405 25.5124H9.65405C9.83114 26.3145 10.2843 26.9342 11.0082 27.3665C11.727 27.7936 12.6593 28.0124 13.7999 28.0124C16.7426 28.0124 18.2166 26.4707 18.2166 23.3874V21.6374C16.3103 22.8874 14.0603 23.5124 11.4666 23.5124C9.26864 23.5124 7.33114 23.028 5.65405 22.054C3.97176 21.0697 2.65405 19.6999 1.69572 17.9499C0.747802 16.1895 0.279053 14.153 0.279053 11.8457C0.279053 9.528 0.747802 7.49154 1.69572 5.74154C2.65405 3.98112 3.97176 2.61133 5.65405 1.63737C7.33114 0.652995 9.26864 0.158203 11.4666 0.158203C14.9249 0.158203 17.6957 1.19987 19.7791 3.2832L20.6541 0.82487H26.8207V23.1999C26.8207 26.8509 25.6645 29.6582 23.3624 31.6165C21.0551 33.5853 17.9249 34.5749 13.9666 34.5749ZM8.67489 11.8457C8.67489 13.2936 9.13322 14.4863 10.0499 15.429C10.9666 16.3613 12.1541 16.8249 13.6124 16.8249C15.0707 16.8249 16.2478 16.3613 17.1541 15.429C18.0707 14.4863 18.5291 13.2936 18.5291 11.8457C18.5291 10.3874 18.0707 9.19987 17.1541 8.2832C16.2478 7.35612 15.0707 6.88737 13.6124 6.88737C12.1541 6.88737 10.9666 7.35612 10.0499 8.2832C9.13322 9.19987 8.67489 10.3874 8.67489 11.8457Z" fill="#690061"/>
</svg>
