<svg width="46" height="74" viewBox="0 0 46 74" fill="none" xmlns="http://www.w3.org/2000/svg">
<path d="M33.8477 33.1889C37.6498 34.9389 40.5612 37.4962 42.5768 40.8556C44.6029 44.2046 45.6185 48.0223 45.6185 52.3139C45.6185 56.8556 44.5456 60.6993 42.4102 63.8348C40.2696 66.9754 37.4935 69.366 34.0768 71.0014C30.6602 72.6264 27.0143 73.4389 23.1393 73.4389C23.1393 73.4389 23.1081 73.4389 23.056 73.4389V60.3764C23.1081 60.3764 23.1393 60.3764 23.1393 60.3764C25.556 60.3764 27.6654 59.6421 29.4727 58.1681C31.2904 56.6837 32.2018 54.7306 32.2018 52.3139C32.2018 50.5118 31.7331 48.9754 30.806 47.7098C29.8737 46.4337 28.7071 45.4337 27.306 44.7098C25.9154 43.991 24.5248 43.5952 23.1393 43.5223C22.8477 43.5223 21.6393 43.4181 19.5143 43.2098C17.3998 43.0014 15.0196 42.2931 12.3685 41.0848C8.61851 39.3348 5.71226 36.9077 3.66018 33.7931C1.60288 30.6681 0.576843 26.9962 0.576843 22.7723C0.576843 18.2306 1.64455 14.3348 3.78518 11.0848C5.93622 7.82434 8.73309 5.31392 12.181 3.56392C15.6237 1.80351 19.2748 0.918091 23.1393 0.918091C27.3164 0.918091 31.0664 1.78267 34.3893 3.50142C37.7071 5.22538 40.3477 7.64205 42.306 10.7514C44.2748 13.866 45.2904 17.4754 45.3477 21.5848C45.4154 21.7098 45.3373 21.866 45.1185 22.0431C44.9102 22.2254 44.6602 22.3139 44.3685 22.3139H33.0352C32.7852 22.3139 32.556 22.2254 32.3477 22.0431C32.1393 21.866 32.0352 21.7098 32.0352 21.5848C31.9623 18.991 31.056 17.0743 29.306 15.8348C27.556 14.6004 25.4987 13.9806 23.1393 13.9806C20.6654 13.9806 18.5352 14.7254 16.7435 16.2098C14.9623 17.6837 14.0768 19.8712 14.0768 22.7723C14.0768 25.3712 15.0143 27.3504 16.8893 28.7098C18.7643 30.0743 20.8477 30.7514 23.1393 30.7514C23.3164 30.7514 23.9206 30.7827 24.9518 30.8348C25.9779 30.892 27.2904 31.0848 28.8893 31.4181C30.4987 31.7514 32.1498 32.3452 33.8477 33.1889Z" fill="#562A2A"/>
</svg>
