<svg width="80" height="73" viewBox="0 0 80 73" fill="none" xmlns="http://www.w3.org/2000/svg">
<path d="M65.5843 55.0401V32.0193L47.1051 69.1026C46.9801 69.4672 46.7093 69.6443 46.2926 69.6443H35.126C34.652 69.6443 34.3551 69.4672 34.2301 69.1026L14.5635 31.0193V71.7276C14.5635 72.2693 14.2301 72.5401 13.5635 72.5401H1.60514C0.990559 72.5401 0.688477 72.2693 0.688477 71.7276V0.831787C0.688477 0.29012 0.990559 0.0192871 1.60514 0.0192871H13.751C14.2197 0.0192871 14.5218 0.201579 14.6468 0.560954L40.6676 53.686L65.4176 0.560954C65.652 0.201579 65.9801 0.0192871 66.3968 0.0192871H78.376C79.0426 0.0192871 79.376 0.29012 79.376 0.831787V55.0401H65.5843Z" fill="#562A2A" fill-opacity="0.302"/>
</svg>
