<svg width="29" height="27" viewBox="0 0 29 27" fill="none" xmlns="http://www.w3.org/2000/svg">
<path d="M14.568 26.0698C11.7607 26.0698 9.29716 25.5333 7.17216 24.4656C5.04716 23.3979 3.39091 21.8927 2.21383 19.9448C1.03153 18.0021 0.442993 15.7573 0.442993 13.2156C0.442993 10.6896 1.03153 8.46041 2.21383 6.52812C3.39091 4.60103 5.04716 3.10103 7.17216 2.02812C9.29716 0.960409 11.7607 0.42395 14.568 0.42395C17.3857 0.42395 19.8492 0.960409 21.9638 2.02812C24.0732 3.10103 25.7138 4.60103 26.8805 6.52812C28.0576 8.46041 28.6513 10.6896 28.6513 13.2156C28.6513 15.7573 28.0576 18.0021 26.8805 19.9448C25.7138 21.8927 24.0732 23.3979 21.9638 24.4656C19.8492 25.5333 17.3857 26.0698 14.568 26.0698ZM9.06799 13.2156C9.06799 14.8406 9.58883 16.174 10.6305 17.2156C11.6722 18.2573 12.9847 18.7781 14.568 18.7781C16.193 18.7781 17.5107 18.2573 18.5263 17.2156C19.5367 16.174 20.0472 14.8406 20.0472 13.2156C20.0472 11.6062 19.5367 10.2885 18.5263 9.25728C17.5107 8.23124 16.193 7.71562 14.568 7.71562C12.9847 7.71562 11.6722 8.23124 10.6305 9.25728C9.58883 10.2885 9.06799 11.6062 9.06799 13.2156Z" fill="#690061"/>
</svg>
