<svg width="13" height="15" viewBox="0 0 13 15" fill="none" xmlns="http://www.w3.org/2000/svg">
<path d="M6.1652 14.0783C4.83187 14.0783 3.69645 13.7866 2.76937 13.2033C1.8527 12.6095 1.17041 11.8179 0.727702 10.8283C0.279786 9.82829 0.0610352 8.72412 0.0610352 7.51579C0.0610352 6.30745 0.279786 5.20329 0.727702 4.20329C1.17041 3.20329 1.8527 2.40641 2.76937 1.80745C3.69645 1.2137 4.83187 0.911621 6.1652 0.911621C7.50895 0.911621 8.64437 1.2137 9.56104 1.80745C10.4881 2.39079 11.1756 3.18245 11.6235 4.18245C12.0662 5.18245 12.2902 6.28662 12.2902 7.49495C12.2902 8.69287 12.0662 9.78662 11.6235 10.7866C11.1756 11.7866 10.4881 12.5887 9.56104 13.1825C8.64437 13.7814 7.50895 14.0783 6.1652 14.0783ZM6.1652 11.0783C6.99854 11.0783 7.61312 10.7397 8.01937 10.0575C8.42041 9.36475 8.62354 8.49495 8.62354 7.45329C8.62354 6.42725 8.42041 5.57829 8.01937 4.91162C7.61312 4.24495 6.99854 3.91162 6.1652 3.91162C5.33187 3.91162 4.71208 4.25537 4.31104 4.93245C3.92041 5.59912 3.7277 6.44287 3.7277 7.45329C3.7277 8.49495 3.92562 9.36475 4.33187 10.0575C4.74854 10.7397 5.35791 11.0783 6.1652 11.0783Z" fill="black"/>
</svg>
