<svg width="22" height="24" viewBox="0 0 22 24" fill="none" xmlns="http://www.w3.org/2000/svg">
<path d="M10.9416 23.4159C8.66032 23.4159 6.73324 22.8743 5.1499 21.7909C3.57699 20.6972 2.38949 19.2597 1.5874 17.4784C0.795736 15.7024 0.399902 13.7857 0.399902 11.7284C0.399902 9.68677 0.795736 7.78052 1.5874 5.99927C2.38949 4.22323 3.57699 2.79093 5.1499 1.7076C6.73324 0.613852 8.66032 0.0617676 10.9416 0.0617676C13.2176 0.0617676 15.1395 0.613852 16.7124 1.7076C18.2957 2.79093 19.4728 4.22843 20.2541 6.0201C21.0457 7.81177 21.4416 9.71802 21.4416 11.7284C21.4416 13.7597 21.0353 15.6659 20.2332 17.4576C19.4416 19.2493 18.2541 20.6972 16.6707 21.7909C15.0978 22.8743 13.1916 23.4159 10.9416 23.4159ZM10.9416 20.2701C12.327 20.2701 13.5457 19.8899 14.5874 19.1243C15.6291 18.3482 16.4207 17.3118 16.9624 16.0201C17.5041 14.7284 17.7749 13.2857 17.7749 11.6868C17.7749 9.24406 17.1551 7.21802 15.9207 5.60343C14.6968 3.97843 13.0353 3.16593 10.9416 3.16593C9.5249 3.16593 8.29574 3.55656 7.25407 4.3326C6.2124 5.09823 5.42074 6.12427 4.87907 7.41593C4.3374 8.7076 4.06657 10.1347 4.06657 11.6868C4.06657 14.1347 4.67594 16.1764 5.8999 17.8118C7.11865 19.4524 8.80094 20.2701 10.9416 20.2701Z" fill="black"/>
</svg>
