<svg width="28" height="33" viewBox="0 0 28 33" fill="none" xmlns="http://www.w3.org/2000/svg">
<path d="M27.7905 15.5701C27.7905 18.1951 27.3739 20.5701 26.5405 22.6951C25.7176 24.8097 24.5405 26.5441 22.9989 27.9034L27.0197 32.9868H23.478L20.7072 29.4451C18.8582 30.4034 16.7541 30.8826 14.3947 30.8826C11.5457 30.8826 9.10303 30.2316 7.06136 28.9243C5.03011 27.6222 3.48844 25.7993 2.43636 23.4659C1.37907 21.1326 0.853027 18.4868 0.853027 15.5284C0.853027 12.5701 1.38428 9.91907 2.45719 7.57011C3.5249 5.22636 5.07178 3.39303 7.10303 2.07011C9.14469 0.752401 11.5718 0.0909424 14.3947 0.0909424C17.1707 0.0909424 19.5666 0.752401 21.5822 2.07011C23.6082 3.39303 25.1499 5.21594 26.2072 7.54928C27.2593 9.88261 27.7905 12.5597 27.7905 15.5701ZM14.353 27.4659C15.853 27.4659 17.1968 27.1691 18.3947 26.5701L12.5197 19.1118H16.0614L20.6655 24.9659C21.7072 23.9139 22.5093 22.5701 23.0822 20.9451C23.6499 19.3201 23.9364 17.5024 23.9364 15.4868C23.9364 13.1534 23.5509 11.0805 22.7905 9.25761C22.0249 7.4399 20.9155 6.01803 19.4572 4.98678C18.0093 3.96073 16.3114 3.44511 14.353 3.44511C12.3791 3.44511 10.6655 3.96594 9.20719 5.00761C7.75928 6.04928 6.65511 7.48157 5.89469 9.29928C5.12907 11.1222 4.74886 13.1847 4.74886 15.4868C4.74886 17.8201 5.12907 19.893 5.89469 21.6951C6.65511 23.5024 7.75928 24.9191 9.20719 25.9451C10.6655 26.9607 12.3791 27.4659 14.353 27.4659Z" fill="#690061"/>
</svg>
