<svg width="44" height="31" viewBox="0 0 44 31" fill="none" xmlns="http://www.w3.org/2000/svg">
<path d="M0.830566 30.0196V0.998718H7.83057V4.89455L8.37223 4.99872C9.33057 3.43101 10.4399 2.27997 11.7056 1.54039C12.9816 0.80601 14.6066 0.436218 16.5806 0.436218C18.7733 0.436218 20.5389 0.873718 21.8722 1.74872C23.2056 2.6133 24.1847 3.87372 24.8097 5.54039H25.3514C26.2524 3.80601 27.4035 2.51955 28.8097 1.68622C30.2264 0.852885 31.9868 0.436218 34.1014 0.436218C40.1118 0.436218 43.1222 3.79039 43.1222 10.4987V30.0196H35.8306V11.4154C35.8306 9.70705 35.4972 8.47789 34.8306 7.72789C34.1639 6.97789 33.091 6.60289 31.6222 6.60289C27.6222 6.60289 25.6222 9.27997 25.6222 14.6237V30.0196H18.3306V11.4154C18.3306 9.70705 17.9868 8.47789 17.3097 7.72789C16.6431 6.97789 15.5649 6.60289 14.0806 6.60289C12.2056 6.60289 10.7368 7.22789 9.68473 8.47789C8.64307 9.72789 8.12223 11.7227 8.12223 14.4571V30.0196H0.830566Z" fill="black"/>
</svg>
