<svg width="12" height="15" viewBox="0 0 12 15" fill="none" xmlns="http://www.w3.org/2000/svg">
<path d="M0.37207 14.2273V1.12309H2.22624V3.18559L2.47624 3.24809C2.90332 2.48767 3.4554 1.90434 4.12207 1.49809C4.79915 1.09705 5.63249 0.893921 6.62207 0.893921C8.18978 0.893921 9.3304 1.30017 10.0387 2.10225C10.7471 2.89392 11.1012 4.12309 11.1012 5.78975V14.2273H9.16374V5.85225C9.16374 5.06059 9.05957 4.43038 8.85124 3.95642C8.65332 3.47205 8.34082 3.11788 7.91374 2.89392C7.49707 2.67517 6.93978 2.56059 6.24707 2.56059C5.0804 2.56059 4.12728 2.95642 3.3929 3.74809C2.66895 4.52934 2.30957 5.77934 2.30957 7.49809V14.2273H0.37207Z" fill="black"/>
</svg>
