<svg width="16" height="18" viewBox="0 0 16 18" fill="none" xmlns="http://www.w3.org/2000/svg">
<path d="M15.4053 17.2422H12.6344V14.0338H12.4261C11.9782 15.0234 11.2907 15.8568 10.3636 16.5338C9.43132 17.2005 8.30111 17.5338 6.96777 17.5338C5.55111 17.5338 4.36881 17.1953 3.42611 16.513C2.49381 15.8359 1.80631 14.9505 1.36361 13.8672C0.931315 12.7734 0.717773 11.5859 0.717773 10.3047V0.388H3.46777V9.9505C3.46777 11.5911 3.88444 12.8568 4.71777 13.7422C5.55111 14.6328 6.63965 15.0755 7.98861 15.0755C9.38965 15.0755 10.5146 14.6068 11.3636 13.6588C12.2074 12.7005 12.6344 11.4661 12.6344 9.9505V0.388H15.4053V17.2422Z" fill="black"/>
</svg>
