<svg width="20" height="13" viewBox="0 0 20 13" fill="none" xmlns="http://www.w3.org/2000/svg">
<path d="M0.686523 0.921224H2.60319V3.10872H2.79069C2.81673 2.95768 2.96256 2.68685 3.22819 2.29622C3.50423 1.89518 3.9209 1.51497 4.47819 1.15039C5.0459 0.775391 5.73861 0.587891 6.56152 0.587891C7.44694 0.587891 8.17611 0.796224 8.74902 1.21289C9.33236 1.61914 9.76986 2.05664 10.0615 2.52539C10.3532 2.99935 10.499 3.29102 10.499 3.40039H10.6657C10.8844 2.87435 11.3115 2.27539 11.9365 1.60872C12.5615 0.931641 13.5251 0.587891 14.8324 0.587891C15.7907 0.587891 16.5928 0.837891 17.249 1.33789C17.9001 1.82747 18.3792 2.45768 18.6865 3.23372C18.9886 3.99935 19.1449 4.81706 19.1449 5.69206V12.8587H17.2282V5.87956C17.2282 4.72852 16.9261 3.85872 16.3324 3.27539C15.7334 2.68164 14.999 2.37956 14.124 2.37956C13.2178 2.37956 12.4469 2.68685 11.8115 3.29622C11.1865 3.91081 10.874 4.77018 10.874 5.87956V12.8587H8.95736V5.87956C8.95736 4.72852 8.65527 3.85872 8.06152 3.27539C7.46256 2.68164 6.72819 2.37956 5.85319 2.37956C4.93652 2.37956 4.16569 2.68685 3.54069 3.29622C2.91569 3.91081 2.60319 4.77018 2.60319 5.87956V12.8587H0.686523V0.921224Z" fill="black"/>
</svg>
