<svg width="13" height="20" viewBox="0 0 13 20" fill="none" xmlns="http://www.w3.org/2000/svg">
<path d="M5.88737 19.277C4.83008 19.277 3.89779 19.027 3.0957 18.527C2.28841 18.027 1.6582 17.2718 1.19987 16.2562C0.751954 15.2458 0.533203 13.9854 0.533203 12.4854C0.533203 10.9854 0.767578 9.73014 1.24154 8.71452C1.71029 7.7041 2.36654 6.94369 3.19987 6.44369C4.04362 5.94369 5.01758 5.69369 6.11654 5.69369C6.97591 5.69369 7.75195 5.86035 8.44987 6.19369C9.1582 6.5166 9.76237 7.04785 10.2624 7.79785L10.5124 7.75619V0.672852H12.429V19.027H10.5124V17.1104L10.2624 17.0687C9.83008 17.7249 9.24675 18.2562 8.51237 18.6729C7.77279 19.0739 6.89779 19.277 5.88737 19.277ZM6.49154 17.5479C7.71029 17.5479 8.68425 17.1312 9.4082 16.2979C10.1426 15.4645 10.5124 14.1937 10.5124 12.4854C10.5124 10.777 10.1426 9.50619 9.4082 8.67285C8.68425 7.83952 7.71029 7.42285 6.49154 7.42285C5.22591 7.42285 4.25195 7.83431 3.57487 8.65202C2.89258 9.45931 2.55404 10.7354 2.55404 12.4854C2.55404 15.8604 3.86654 17.5479 6.49154 17.5479Z" fill="black"/>
</svg>
