<svg width="21" height="24" viewBox="0 0 21 24" fill="none" xmlns="http://www.w3.org/2000/svg">
<path d="M10.5305 23.4159C8.22323 23.4159 6.28052 22.8691 4.69718 21.7701C3.12427 20.6607 1.95239 19.2076 1.17635 17.4159C0.410726 15.6243 0.0305176 13.7284 0.0305176 11.7284C0.0305176 9.71802 0.410726 7.82219 1.17635 6.04093C1.95239 4.26489 3.13468 2.82739 4.71802 1.72843C6.31177 0.61906 8.26489 0.0617676 10.5722 0.0617676C13.5826 0.0617676 15.9941 1.07218 17.8014 3.0826C19.6034 5.09823 20.5097 7.99406 20.5097 11.7701V12.8118H3.69718V13.1034C3.69718 14.3534 3.97844 15.5357 4.55135 16.6451C5.11906 17.7597 5.91593 18.6555 6.94718 19.3326C7.97323 20.0149 9.15552 20.3534 10.4889 20.3534C11.9316 20.3534 13.1816 19.9889 14.2389 19.2493C15.2909 18.5149 16.0774 17.5149 16.593 16.2493H20.218C19.6191 18.3066 18.4993 20.0149 16.8639 21.3743C15.2232 22.7389 13.1139 23.4159 10.5305 23.4159ZM16.8847 10.2076C16.7701 7.65552 16.1451 5.80656 15.0097 4.66593C13.8691 3.53052 12.3743 2.9576 10.5305 2.9576C8.51489 2.9576 6.91073 3.62427 5.71802 4.9576C4.5201 6.29093 3.88468 8.04093 3.80135 10.2076H16.8847Z" fill="black"/>
</svg>
