<svg width="13" height="20" viewBox="0 0 13 20" fill="none" xmlns="http://www.w3.org/2000/svg">
<path d="M0.524902 19.3396V0.922892H2.4624V2.90206L2.7124 2.94373C3.68115 1.44373 5.11344 0.693726 7.00407 0.693726C8.09782 0.693726 9.05094 0.943726 9.85824 1.44373C10.6759 1.93331 11.3062 2.68852 11.7541 3.71456C12.2124 4.73018 12.4416 5.98539 12.4416 7.48539C12.4416 8.98539 12.202 10.2458 11.7332 11.2562C11.2593 12.2719 10.5978 13.0271 9.75407 13.5271C8.92074 14.0271 7.95199 14.2771 6.85824 14.2771C5.96761 14.2771 5.17594 14.1208 4.48324 13.8187C3.80094 13.5166 3.2124 13.0062 2.7124 12.2979L2.4624 12.3396V19.3396H0.524902ZM6.44157 12.5479C9.09261 12.5479 10.4207 10.8604 10.4207 7.48539C10.4207 4.11039 9.09261 2.42289 6.44157 2.42289C5.66032 2.42289 4.97282 2.60518 4.37907 2.96456C3.78011 3.31352 3.30615 3.87081 2.9624 4.63123C2.62907 5.38123 2.4624 6.33435 2.4624 7.48539C2.4624 8.64164 2.62907 9.58956 2.9624 10.3396C3.30615 11.0896 3.78011 11.6469 4.37907 12.0062C4.97282 12.3708 5.66032 12.5479 6.44157 12.5479Z" fill="black"/>
</svg>
