<svg width="35" height="32" viewBox="0 0 35 32" fill="none" xmlns="http://www.w3.org/2000/svg">
<path d="M17.6683 31.2685C14.262 31.2685 11.2777 30.6226 8.70996 29.331C6.13704 28.0289 4.13704 26.2008 2.70996 23.8518C1.29329 21.5081 0.584961 18.7997 0.584961 15.7268C0.584961 12.6591 1.29329 9.95597 2.70996 7.62264C4.13704 5.28931 6.13704 3.47681 8.70996 2.18514C11.2777 0.883057 14.262 0.226807 17.6683 0.226807C21.085 0.226807 24.0641 0.883057 26.6058 2.18514C29.1579 3.47681 31.1527 5.28931 32.585 7.62264C34.012 9.95597 34.7308 12.6591 34.7308 15.7268C34.7308 18.7997 34.012 21.5081 32.585 23.8518C31.1527 26.2008 29.1579 28.0289 26.6058 29.331C24.0641 30.6226 21.085 31.2685 17.6683 31.2685ZM11.0225 15.7268C11.0225 17.6851 11.6475 19.2997 12.8975 20.5601C14.1579 21.8101 15.7516 22.4351 17.6683 22.4351C19.637 22.4351 21.236 21.8101 22.46 20.5601C23.6787 19.2997 24.2933 17.6851 24.2933 15.7268C24.2933 13.7685 23.6787 12.1747 22.46 10.9351C21.236 9.68514 19.637 9.06014 17.6683 9.06014C15.7516 9.06014 14.1579 9.68514 12.8975 10.9351C11.6475 12.1747 11.0225 13.7685 11.0225 15.7268Z" fill="#690061"/>
</svg>
