<svg width="16" height="24" viewBox="0 0 16 24" fill="none" xmlns="http://www.w3.org/2000/svg">
<path d="M7.79915 19.3368C7.4502 20.1389 7.12207 20.8055 6.81999 21.3368C6.5127 21.8628 6.00749 22.3576 5.29915 22.816C4.59082 23.2847 3.67415 23.5243 2.54915 23.5243C1.9502 23.5243 1.30957 23.441 0.632487 23.2743V21.2326C1.1429 21.316 1.59082 21.3576 1.96582 21.3576C2.67415 21.3576 3.23665 21.217 3.65332 20.941C4.0804 20.6753 4.42415 20.3264 4.67415 19.8993C4.92415 19.4826 5.21582 18.868 5.54915 18.066L6.31999 16.1701L0.0908203 0.149292H2.96582L7.67415 13.1285H7.86165L12.7783 0.149292H15.6742L7.79915 19.3368Z" fill="black"/>
</svg>
