<svg width="12" height="15" viewBox="0 0 12 15" fill="none" xmlns="http://www.w3.org/2000/svg">
<path d="M4.19352 14.2771C2.90186 14.2771 1.89144 13.9437 1.17269 13.2771C0.44873 12.6 0.0893555 11.6312 0.0893555 10.3812C0.0893555 9.60518 0.245606 8.95414 0.568522 8.42289C0.88623 7.88123 1.38102 7.44373 2.04769 7.11039C2.72477 6.77706 3.61019 6.52185 4.69352 6.33956C5.65186 6.17289 6.37061 5.99581 6.86019 5.79789C7.36019 5.60518 7.69352 5.39164 7.86019 5.15206C8.02686 4.90206 8.11019 4.58956 8.11019 4.21456C8.11019 3.62081 7.90706 3.16247 7.50602 2.83956C7.09977 2.52185 6.44873 2.36039 5.54769 2.36039C4.69873 2.36039 3.96956 2.52706 3.36019 2.86039C2.76123 3.19373 2.20394 3.68331 1.69352 4.31873H1.46436L0.506022 2.98539C1.0581 2.27706 1.76123 1.72498 2.61019 1.31873C3.46956 0.902059 4.44873 0.693726 5.54769 0.693726C7.08936 0.693726 8.21956 1.03747 8.94352 1.71456C9.6779 2.38123 10.0477 3.31352 10.0477 4.50623V11.4437C10.0477 12.1833 10.3602 12.5479 10.9852 12.5479C11.1779 12.5479 11.3706 12.5166 11.5685 12.4437L11.7352 12.4854L11.9644 13.8187C11.8237 13.9177 11.6362 13.9958 11.4019 14.0479C11.1623 14.1 10.9227 14.1312 10.6727 14.1312C9.96436 14.1312 9.42269 13.975 9.04769 13.6521C8.68311 13.3344 8.44873 12.8708 8.33936 12.2562L8.08936 12.2146C7.71436 12.9125 7.20394 13.4333 6.56852 13.7771C5.94352 14.1104 5.15186 14.2771 4.19352 14.2771ZM4.63102 12.7354C5.34977 12.7354 5.97477 12.5687 6.50602 12.2354C7.04769 11.8916 7.45394 11.4177 7.73519 10.8187C8.02686 10.2094 8.17269 9.50102 8.17269 8.69373V7.02706L7.94352 6.98539C7.65186 7.19373 7.29769 7.37081 6.88102 7.50623C6.46436 7.64685 5.88102 7.77185 5.13102 7.88123C4.3654 7.98018 3.76123 8.14164 3.31852 8.36039C2.87061 8.56873 2.5529 8.83956 2.36019 9.17289C2.16227 9.49581 2.06852 9.89685 2.06852 10.3812C2.06852 11.1469 2.28727 11.7302 2.73519 12.1312C3.19352 12.5375 3.82373 12.7354 4.63102 12.7354Z" fill="black"/>
</svg>
