<svg width="35" height="32" viewBox="0 0 35 32" fill="none" xmlns="http://www.w3.org/2000/svg">
<path d="M17.1966 32.0075C13.7904 32.0075 10.806 31.3617 8.23828 30.07C5.66537 28.7679 3.66537 26.9398 2.23828 24.5908C0.821615 22.2471 0.113281 19.5387 0.113281 16.4658C0.113281 13.3981 0.821615 10.695 2.23828 8.36165C3.66537 6.02832 5.66537 4.21582 8.23828 2.92415C10.806 1.62207 13.7904 0.96582 17.1966 0.96582C20.6133 0.96582 23.5924 1.62207 26.1341 2.92415C28.6862 4.21582 30.681 6.02832 32.1133 8.36165C33.5404 10.695 34.2591 13.3981 34.2591 16.4658C34.2591 19.5387 33.5404 22.2471 32.1133 24.5908C30.681 26.9398 28.6862 28.7679 26.1341 30.07C23.5924 31.3617 20.6133 32.0075 17.1966 32.0075ZM10.5508 16.4658C10.5508 18.4242 11.1758 20.0387 12.4258 21.2992C13.6862 22.5492 15.2799 23.1742 17.1966 23.1742C19.1654 23.1742 20.7643 22.5492 21.9883 21.2992C23.207 20.0387 23.8216 18.4242 23.8216 16.4658C23.8216 14.5075 23.207 12.9137 21.9883 11.6742C20.7643 10.4242 19.1654 9.79915 17.1966 9.79915C15.2799 9.79915 13.6862 10.4242 12.4258 11.6742C11.1758 12.9137 10.5508 14.5075 10.5508 16.4658Z" fill="#690061"/>
</svg>
