<svg width="17" height="19" viewBox="0 0 17 19" fill="none" xmlns="http://www.w3.org/2000/svg">
<path d="M8.49089 18.4714C6.78255 18.4714 5.32943 18.0651 4.13672 17.2422C2.95443 16.4089 2.0638 15.3255 1.47005 13.9922C0.871093 12.6589 0.574219 11.2318 0.574219 9.70052C0.574219 8.15885 0.871093 6.72135 1.47005 5.38802C2.0638 4.05469 2.95443 2.98177 4.13672 2.15885C5.32943 1.34115 6.78255 0.929688 8.49089 0.929688C10.1992 0.929688 11.6419 1.34115 12.8242 2.15885C14.0013 2.98177 14.8867 4.0651 15.4701 5.40885C16.0638 6.75781 16.3659 8.1901 16.3659 9.70052C16.3659 11.2161 16.0638 12.6484 15.4701 13.9922C14.8711 15.3255 13.9753 16.4089 12.7826 17.2422C11.6003 18.0651 10.168 18.4714 8.49089 18.4714ZM8.49089 16.0964C9.53255 16.0964 10.4388 15.8151 11.2201 15.2422C11.9961 14.6589 12.5846 13.8828 12.9909 12.9089C13.3919 11.9401 13.5951 10.8568 13.5951 9.65885C13.5951 7.82552 13.1367 6.30469 12.2201 5.09635C11.3034 3.8776 10.0586 3.26302 8.49089 3.26302C7.41797 3.26302 6.49609 3.55469 5.72005 4.13802C4.9388 4.71094 4.34505 5.48177 3.92839 6.45052C3.52214 7.42448 3.32422 8.49219 3.32422 9.65885C3.32422 11.4922 3.78255 13.0286 4.69922 14.263C5.6263 15.487 6.89193 16.0964 8.49089 16.0964Z" fill="black"/>
</svg>
