<svg width="17" height="19" viewBox="0 0 17 19" fill="none" xmlns="http://www.w3.org/2000/svg">
<path d="M8.43913 18.4714C6.73079 18.4714 5.27767 18.0651 4.08496 17.2422C2.90267 16.4089 2.01205 15.3255 1.41829 13.9922C0.819336 12.6589 0.522461 11.2318 0.522461 9.70052C0.522461 8.15885 0.819336 6.72135 1.41829 5.38802C2.01205 4.05469 2.90267 2.98177 4.08496 2.15885C5.27767 1.34115 6.73079 0.929688 8.43913 0.929688C10.1475 0.929688 11.5902 1.34115 12.7725 2.15885C13.9495 2.98177 14.835 4.0651 15.4183 5.40885C16.012 6.75781 16.3141 8.1901 16.3141 9.70052C16.3141 11.2161 16.012 12.6484 15.4183 13.9922C14.8193 15.3255 13.9235 16.4089 12.7308 17.2422C11.5485 18.0651 10.1162 18.4714 8.43913 18.4714ZM8.43913 16.0964C9.48079 16.0964 10.387 15.8151 11.1683 15.2422C11.9443 14.6589 12.5329 13.8828 12.9391 12.9089C13.3402 11.9401 13.5433 10.8568 13.5433 9.65885C13.5433 7.82552 13.085 6.30469 12.1683 5.09635C11.2516 3.8776 10.0068 3.26302 8.43913 3.26302C7.36621 3.26302 6.44434 3.55469 5.66829 4.13802C4.88704 4.71094 4.29329 5.48177 3.87663 6.45052C3.47038 7.42448 3.27246 8.49219 3.27246 9.65885C3.27246 11.4922 3.73079 13.0286 4.64746 14.263C5.57454 15.487 6.84017 16.0964 8.43913 16.0964Z" fill="black"/>
</svg>
