<svg width="13" height="15" viewBox="0 0 13 15" fill="none" xmlns="http://www.w3.org/2000/svg">
<path d="M6.98372 14.4773C5.82747 14.4773 4.78581 14.2168 3.85872 13.6856C2.94206 13.1595 2.2181 12.3887 1.69206 11.3731C1.16081 10.347 0.900391 9.11788 0.900391 7.68559C0.900391 6.2585 1.16081 5.02934 1.69206 3.99809C2.2181 2.97205 2.94206 2.20121 3.85872 1.68559C4.78581 1.15955 5.82747 0.893921 6.98372 0.893921C8.35872 0.893921 9.45247 1.15955 10.2754 1.68559C11.0931 2.20121 11.6921 2.88871 12.0671 3.74809L10.7337 4.70642H10.5046C10.14 3.98767 9.68164 3.45642 9.12956 3.12309C8.57227 2.78975 7.85872 2.62309 6.98372 2.62309C6.17643 2.62309 5.4681 2.81059 4.85872 3.18559C4.24414 3.56059 3.76497 4.1335 3.42122 4.89392C3.08789 5.65955 2.92122 6.59184 2.92122 7.68559C2.92122 8.78455 3.08789 9.70642 3.42122 10.4564C3.76497 11.2064 4.24414 11.7793 4.85872 12.1648C5.4681 12.5554 6.17643 12.7481 6.98372 12.7481C7.88477 12.7481 8.63477 12.5502 9.23372 12.1439C9.82747 11.7273 10.3014 11.0762 10.6504 10.1856H10.9004L12.1712 10.9356C11.8223 12.0345 11.2129 12.9043 10.3379 13.5398C9.46289 14.1648 8.3431 14.4773 6.98372 14.4773Z" fill="black"/>
</svg>
