<svg width="21" height="24" viewBox="0 0 21 24" fill="none" xmlns="http://www.w3.org/2000/svg">
<path d="M10.5989 23.4159C8.29158 23.4159 6.34888 22.8691 4.76554 21.7701C3.19263 20.6607 2.02075 19.2076 1.24471 17.4159C0.479085 15.6243 0.098877 13.7284 0.098877 11.7284C0.098877 9.71802 0.479085 7.82219 1.24471 6.04093C2.02075 4.26489 3.20304 2.82739 4.78638 1.72843C6.38013 0.61906 8.33325 0.0617676 10.6405 0.0617676C13.651 0.0617676 16.0624 1.07218 17.8697 3.0826C19.6718 5.09823 20.578 7.99406 20.578 11.7701V12.8118H3.76554V13.1034C3.76554 14.3534 4.04679 15.5357 4.61971 16.6451C5.18742 17.7597 5.98429 18.6555 7.01554 19.3326C8.04158 20.0149 9.22388 20.3534 10.5572 20.3534C11.9999 20.3534 13.2499 19.9889 14.3072 19.2493C15.3593 18.5149 16.1458 17.5149 16.6614 16.2493H20.2864C19.6874 18.3066 18.5676 20.0149 16.9322 21.3743C15.2916 22.7389 13.1822 23.4159 10.5989 23.4159ZM16.953 10.2076C16.8385 7.65552 16.2135 5.80656 15.078 4.66593C13.9374 3.53052 12.4426 2.9576 10.5989 2.9576C8.58325 2.9576 6.97908 3.62427 5.78638 4.9576C4.58846 6.29093 3.95304 8.04093 3.86971 10.2076H16.953Z" fill="black"/>
</svg>
