<svg width="18" height="20" viewBox="0 0 18 20" fill="none" xmlns="http://www.w3.org/2000/svg">
<path d="M7.90544 19.1973C6.28044 19.1973 4.89502 18.7806 3.7596 17.9473C2.61898 17.1139 1.74398 15.9837 1.1346 14.5514C0.535644 13.1243 0.23877 11.5046 0.23877 9.69727C0.23877 7.89518 0.540852 6.27018 1.15544 4.82227C1.76481 3.37956 2.65544 2.24935 3.8221 1.42643C4.98877 0.608724 6.3846 0.197266 8.0096 0.197266C9.61898 0.197266 10.9263 0.582682 11.9263 1.3431C12.9263 2.10872 13.6763 3.02018 14.1763 4.07227H14.4263V0.676432H17.4471V18.9473H14.4263V15.1973H14.1763C13.619 16.2806 12.8325 17.2181 11.8221 18.0098C10.8065 18.8014 9.49919 19.1973 7.90544 19.1973ZM8.84294 16.6348C10.619 16.6348 11.9784 15.9681 12.9263 14.6348C13.869 13.3014 14.3429 11.6556 14.3429 9.69727C14.3429 7.72852 13.869 6.08268 12.9263 4.75977C11.9784 3.42643 10.619 2.75977 8.84294 2.75977C7.0096 2.75977 5.62419 3.42122 4.6971 4.73893C3.76481 6.06185 3.30127 7.69727 3.30127 9.6556C3.30127 11.6452 3.76481 13.3014 4.6971 14.6348C5.62419 15.9681 7.0096 16.6348 8.84294 16.6348Z" fill="black"/>
</svg>
