<svg width="17" height="19" viewBox="0 0 17 19" fill="none" xmlns="http://www.w3.org/2000/svg">
<path d="M7.83724 18.4714C6.33724 18.4714 5.05599 18.0911 4.00391 17.3255C2.94661 16.5495 2.13932 15.5026 1.58724 14.1797C1.02995 12.862 0.753906 11.3672 0.753906 9.70052C0.753906 8.03385 1.03516 6.53385 1.60807 5.20052C2.17578 3.86719 2.99349 2.82552 4.06641 2.07552C5.14974 1.3151 6.43099 0.929688 7.92057 0.929688C9.42057 0.929688 10.6289 1.28385 11.5456 1.99219C12.4622 2.6901 13.1549 3.52865 13.6289 4.51302H13.8372V1.38802H16.6289V18.2422H13.8372V14.7839H13.6289C13.1133 15.7839 12.3841 16.6536 11.4414 17.388C10.5091 18.112 9.30599 18.4714 7.83724 18.4714ZM8.69141 16.0964C10.3268 16.0964 11.5872 15.487 12.4622 14.263C13.3372 13.0286 13.7747 11.5078 13.7747 9.70052C13.7747 7.88281 13.3372 6.36198 12.4622 5.13802C11.5872 3.91927 10.3268 3.30469 8.69141 3.30469C7.00911 3.30469 5.73307 3.91927 4.85807 5.13802C3.99349 6.34635 3.56641 7.85677 3.56641 9.65885C3.56641 11.4922 3.99349 13.0286 4.85807 14.263C5.73307 15.487 7.00911 16.0964 8.69141 16.0964Z" fill="black"/>
</svg>
