<svg width="19" height="24" viewBox="0 0 19 24" fill="none" xmlns="http://www.w3.org/2000/svg">
<path d="M9.81966 23.4326C7.99674 23.4326 6.42383 23.0732 5.0905 22.3493C3.75716 21.6305 2.73633 20.6982 2.02799 19.5576C1.33008 18.4222 0.986328 17.2243 0.986328 15.9743V15.766H4.65299V15.9326C4.65299 16.641 4.85091 17.3441 5.25716 18.0368C5.6582 18.7347 6.25716 19.3024 7.04883 19.7451C7.8405 20.193 8.80404 20.4118 9.94466 20.4118C11.3197 20.4118 12.4499 20.0785 13.3405 19.4118C14.2415 18.7451 14.6947 17.8285 14.6947 16.6618C14.6947 15.693 14.3405 14.9222 13.6322 14.3493C12.9342 13.7816 12.0697 13.4118 11.028 13.2451L8.06966 12.8076C6.2207 12.5316 4.67383 11.9066 3.42383 10.9326C2.17383 9.94824 1.54883 8.51074 1.54883 6.62012C1.54883 4.55241 2.28841 2.94303 3.77799 1.78678C5.278 0.635743 7.19466 0.0576172 9.528 0.0576172C11.2624 0.0576172 12.7467 0.380535 13.9863 1.01595C15.2207 1.65658 16.1634 2.49512 16.8197 3.53678C17.4707 4.57845 17.7988 5.71387 17.7988 6.93262V7.09928H14.1322V7.01595C14.1322 6.44824 13.9759 5.84928 13.6738 5.22428C13.3822 4.59928 12.8822 4.05762 12.1738 3.59928C11.4655 3.14095 10.554 2.91178 9.44466 2.91178C8.08008 2.91178 6.98633 3.25553 6.153 3.93262C5.33008 4.59928 4.92383 5.46908 4.92383 6.53678C4.92383 7.42741 5.24674 8.15658 5.903 8.72428C6.55404 9.2972 7.38216 9.66178 8.38216 9.82845L11.5697 10.3493C13.4447 10.6566 15.0176 11.3024 16.2988 12.2868C17.5905 13.2607 18.2363 14.7035 18.2363 16.6201C18.2363 17.9847 17.8665 19.1774 17.1322 20.2035C16.4082 21.2191 15.4082 22.0107 14.1322 22.5785C12.8509 23.1462 11.4134 23.4326 9.81966 23.4326Z" fill="#690061"/>
</svg>
