<svg width="13" height="14" viewBox="0 0 13 14" fill="none" xmlns="http://www.w3.org/2000/svg">
<path d="M0.974609 1.18245H4.72461V3.01579H4.91211C5.17253 2.43245 5.61003 1.94287 6.22461 1.53662C6.84961 1.11995 7.59961 0.911621 8.47461 0.911621C10.1413 0.911621 11.2923 1.44287 11.9329 2.49495C12.5684 3.53662 12.8913 4.70329 12.8913 5.99495V13.87H9.16211V6.64079C9.16211 5.80745 8.97461 5.15641 8.59961 4.68245C8.23503 4.19808 7.69336 3.95329 6.97461 3.95329C6.20898 3.95329 5.64128 4.2137 5.26628 4.72412C4.90169 5.22412 4.72461 5.86475 4.72461 6.64079V13.87H0.974609V1.18245Z" fill="black"/>
</svg>
