<svg width="13" height="21" viewBox="0 0 13 21" fill="none" xmlns="http://www.w3.org/2000/svg">
<path d="M6.93197 20.7898C4.85905 20.7898 3.34863 20.4408 2.3903 19.7481C1.44238 19.0658 0.973633 18.1491 0.973633 16.9981C0.973633 16.2585 1.19238 15.6752 1.6403 15.2481C2.08301 14.821 2.72884 14.5085 3.5778 14.3106V14.0606C3.17155 13.8418 2.86947 13.5762 2.66113 13.2689C2.46322 12.9512 2.36947 12.5762 2.36947 12.1439C2.36947 11.6439 2.52572 11.2377 2.84863 10.9148C3.16634 10.597 3.64551 10.3523 4.28613 10.1856V9.93559C2.85384 9.18559 2.1403 7.96684 2.1403 6.26892C2.1403 5.42517 2.33301 4.66475 2.72363 3.99809C3.10905 3.33142 3.66634 2.821 4.3903 2.45642C5.10905 2.08142 5.9528 1.89392 6.91113 1.89392C8.00488 1.89392 8.92155 2.1335 9.66113 2.60225C9.93717 2.30017 10.1455 1.97205 10.2861 1.62309C10.4216 1.26371 10.5049 0.86267 10.5361 0.414754L10.7861 0.268921L12.3903 0.643921C12.307 1.31059 12.1038 1.87309 11.7861 2.33142C11.4632 2.78975 11.0153 3.17517 10.432 3.47725V3.72725C10.8486 4.06059 11.1507 4.45121 11.3486 4.89392C11.557 5.34184 11.6611 5.86267 11.6611 6.45642C11.6611 7.27934 11.458 8.01892 11.057 8.68559C10.6663 9.34184 10.109 9.85225 9.3903 10.2273C8.66634 10.6023 7.83822 10.7898 6.91113 10.7898C6.79655 10.7898 6.59863 10.7845 6.30697 10.7689C5.98405 10.7585 5.74967 10.7481 5.59863 10.7481C5.19238 10.7481 4.86947 10.8523 4.61947 11.0606C4.36947 11.2689 4.24447 11.5398 4.24447 11.8731C4.24447 12.2898 4.37467 12.597 4.6403 12.7898C4.91634 12.9877 5.35905 13.097 5.97363 13.1231L9.05697 13.2273C10.4007 13.2689 11.3955 13.5814 12.0361 14.1648C12.6716 14.7377 12.9945 15.545 12.9945 16.6023C12.9945 17.3783 12.7861 18.0814 12.3695 18.7064C11.9528 19.3418 11.2861 19.8523 10.3695 20.2273C9.46322 20.6023 8.31738 20.7898 6.93197 20.7898ZM6.91113 9.12309C7.8278 9.12309 8.53613 8.88871 9.03613 8.41475C9.54655 7.93038 9.80697 7.24809 9.80697 6.37309C9.80697 5.47205 9.55697 4.77934 9.05697 4.28975C8.55697 3.78975 7.83822 3.53975 6.91113 3.53975C5.96322 3.53975 5.24967 3.78455 4.7653 4.26892C4.27572 4.7585 4.03613 5.45642 4.03613 6.37309C4.03613 7.24809 4.27572 7.93038 4.7653 8.41475C5.24967 8.88871 5.96322 9.12309 6.91113 9.12309ZM6.93197 19.1231C7.8903 19.1231 8.67155 19.0085 9.28613 18.7898C9.91113 18.5814 10.3538 18.295 10.6195 17.9356C10.8799 17.5866 11.0153 17.196 11.0153 16.7689C11.0153 16.3783 10.9372 16.0658 10.7861 15.8314C10.6455 15.5918 10.4111 15.4148 10.0778 15.2898C9.75488 15.1804 9.31738 15.1127 8.7653 15.0814L5.8278 14.9356H5.41113C3.77051 14.9512 2.9528 15.5814 2.9528 16.8314C2.9528 18.3575 4.27572 19.1231 6.93197 19.1231Z" fill="black"/>
</svg>
