<svg width="58" height="74" viewBox="0 0 58 74" fill="none" xmlns="http://www.w3.org/2000/svg">
<path d="M57.0096 72.3679C57.1346 72.6075 57.1033 72.8471 56.9262 73.0971C56.7439 73.3367 56.4991 73.4513 56.1971 73.4513H43.6971C43.2648 73.4513 42.9939 73.2742 42.8846 72.9096L28.5512 32.4721L14.4054 72.9096C14.3481 73.2742 14.0512 73.4513 13.5096 73.4513H1.09289C0.660598 73.4513 0.368931 73.3367 0.21789 73.0971C0.0824734 72.8471 0.0668485 72.6075 0.176223 72.3679L27.6554 1.47209C27.7648 1.11271 28.0616 0.93042 28.5512 0.93042C29.0356 0.93042 29.3429 1.11271 29.4679 1.47209L57.0096 72.3679Z" fill="#562A2A" fill-opacity="0.302"/>
</svg>
