<svg width="33" height="30" viewBox="0 0 33 30" fill="none" xmlns="http://www.w3.org/2000/svg">
<path d="M16.4634 29.9649C13.3905 29.9649 10.6769 29.3451 8.31755 28.1108C5.96859 26.8764 4.13525 25.1628 2.81755 22.9649C1.49463 20.7722 0.838379 18.2253 0.838379 15.3191C0.838379 12.4337 1.49463 9.90243 2.81755 7.73576C4.13525 5.55867 5.97379 3.85034 8.33838 2.61076C10.7134 1.37638 13.4321 0.756592 16.505 0.756592C19.8071 0.756592 22.6561 1.46493 25.0467 2.88159C27.4321 4.28784 29.2446 6.26701 30.4842 8.81909C31.7186 11.3764 32.255 14.3816 32.0884 17.8399H10.755C11.1405 19.3399 11.8696 20.4753 12.9425 21.2358C14.0259 22.0014 15.2655 22.3816 16.6717 22.3816C17.7394 22.3816 18.7238 22.1941 19.63 21.8191C20.5467 21.4337 21.2811 20.9024 21.8384 20.2358H31.5467C30.3384 23.3087 28.4113 25.6941 25.7759 27.4024C23.1509 29.1108 20.0467 29.9649 16.4634 29.9649ZM10.8175 12.4024H22.5259C22.0936 11.1108 21.3853 10.1056 20.4009 9.38159C19.4113 8.64722 18.1509 8.27743 16.6092 8.27743C15.2186 8.27743 14.0103 8.64201 12.9842 9.36076C11.953 10.0691 11.2342 11.0847 10.8175 12.4024Z" fill="#690061"/>
</svg>
