<svg width="22" height="32" viewBox="0 0 22 32" fill="none" xmlns="http://www.w3.org/2000/svg">
<path d="M11.4806 31.3333C9.17334 31.3333 7.19938 30.8646 5.56396 29.9167C3.92334 28.9583 2.68896 27.7292 1.85563 26.2292C1.03272 24.7188 0.626465 23.1354 0.626465 21.4792V21.2708H4.68896V21.4792C4.68896 22.4792 4.92334 23.4792 5.3973 24.4792C5.86605 25.4688 6.61084 26.3021 7.62646 26.9792C8.65251 27.6458 9.96501 27.9792 11.564 27.9792C13.439 27.9792 14.9858 27.4948 16.2098 26.5208C17.4285 25.5521 18.0431 24.2448 18.0431 22.6042C18.0431 21.2292 17.59 20.1406 16.689 19.3333C15.7983 18.5313 14.6577 17.9792 13.2723 17.6875L8.91813 16.875C3.90251 15.7656 1.3973 13.1354 1.3973 8.97917C1.3973 7.27083 1.80355 5.78125 2.62646 4.5C3.4598 3.22396 4.60563 2.23958 6.06396 1.54167C7.53272 0.848959 9.23584 0.5 11.1681 0.5C13.3608 0.5 15.2358 0.947917 16.7931 1.83333C18.3608 2.70833 19.5431 3.84896 20.3348 5.25C21.1369 6.65625 21.5431 8.11458 21.5431 9.625V9.79167H17.4806V9.66667C17.4806 8.82292 17.2723 7.95313 16.8556 7.0625C16.4494 6.16146 15.7723 5.38542 14.814 4.72917C13.866 4.0625 12.6108 3.72917 11.0431 3.72917C9.25146 3.72917 7.81917 4.22917 6.75146 5.22917C5.69417 6.22917 5.16813 7.46875 5.16813 8.9375C5.16813 10.1875 5.57438 11.2188 6.3973 12.0208C7.21501 12.8125 8.34001 13.349 9.7723 13.625L13.689 14.3958C19.1733 15.5104 21.9181 18.1979 21.9181 22.4583C21.9181 24.1979 21.4858 25.7396 20.6265 27.0833C19.7619 28.4167 18.5327 29.4583 16.939 30.2083C15.34 30.9583 13.5223 31.3333 11.4806 31.3333Z" fill="#690061"/>
</svg>
