<svg width="22" height="32" viewBox="0 0 22 32" fill="none" xmlns="http://www.w3.org/2000/svg">
<path d="M12.4836 23.4159C10.5252 23.4159 8.92106 22.9367 7.67106 21.9784C6.42106 21.0096 5.45231 19.8534 4.77523 18.52H4.48356V31.7909H0.754395V0.64504H4.48356V4.83254H4.77523C5.40023 3.53046 6.3221 2.41067 7.54606 1.47837C8.76481 0.535665 10.369 0.0617065 12.3586 0.0617065C14.3846 0.0617065 16.1138 0.572124 17.5461 1.58254C18.9731 2.58254 20.0565 3.97317 20.7961 5.74921C21.5461 7.53046 21.9211 9.52004 21.9211 11.7284C21.9211 13.9523 21.5461 15.9471 20.7961 17.7075C20.0565 19.4732 18.9836 20.869 17.5669 21.895C16.1502 22.9107 14.4523 23.4159 12.4836 23.4159ZM11.3377 20.27C13.5565 20.27 15.244 19.4575 16.4002 17.8325C17.5513 16.2075 18.1294 14.1763 18.1294 11.7284C18.1294 9.31171 17.5565 7.30129 16.4211 5.68671C15.2804 4.06171 13.5877 3.24921 11.3377 3.24921C9.11377 3.24921 7.42627 4.06171 6.27523 5.68671C5.1346 7.30129 4.56689 9.31171 4.56689 11.7284C4.56689 14.145 5.15023 16.1763 6.31689 17.8117C7.48356 19.4523 9.15544 20.27 11.3377 20.27Z" fill="black"/>
</svg>
