<svg width="11" height="24" viewBox="0 0 11 24" fill="none" xmlns="http://www.w3.org/2000/svg">
<path d="M6.25765 8.59631V18.388C6.25765 19.1692 6.2889 19.7421 6.36182 20.1171C6.44515 20.4921 6.64307 20.7942 6.96598 21.013C7.29932 21.2213 7.84098 21.3255 8.59098 21.3255C9.1014 21.3255 9.65869 21.2526 10.2577 21.0963V23.0755C10.1014 23.1484 9.77848 23.2109 9.27848 23.263C8.77848 23.3307 8.25765 23.3671 7.71598 23.3671C6.4764 23.3671 5.55452 23.1953 4.94515 22.8463C4.34619 22.4869 3.95557 22.0078 3.77848 21.4088C3.59619 20.7994 3.50765 19.9921 3.50765 18.9921V8.59631H0.361816V6.38798H3.50765V0.846313H6.25765V6.38798H10.2577V8.59631H6.25765Z" fill="black"/>
</svg>
