<svg width="26" height="27" viewBox="0 0 26 27" fill="none" xmlns="http://www.w3.org/2000/svg">
<path d="M9.257 26.2939C6.47575 26.2939 4.257 25.6064 2.59033 24.2314C0.923665 22.8564 0.090332 20.9971 0.090332 18.6481C0.090332 16.4137 0.824707 14.6169 2.29867 13.2523C3.78304 11.8929 5.78304 11.2106 8.29867 11.2106H16.4653V9.83561C16.4653 9.04395 16.1164 8.3929 15.4237 7.87728C14.7414 7.35124 13.908 7.08561 12.9237 7.08561C12.033 7.08561 11.2778 7.30957 10.6528 7.75228C10.0278 8.2002 9.65283 8.7679 9.52783 9.46061H1.27783C1.63721 6.65853 2.80908 4.51269 4.79867 3.02311C6.79867 1.53874 9.49137 0.793945 12.882 0.793945C16.7987 0.793945 19.8039 1.74186 21.9028 3.62728C23.9966 5.50228 25.0487 8.16895 25.0487 11.6273V25.7523H18.7153L17.7362 23.0856C15.5955 25.2262 12.7674 26.2939 9.257 26.2939ZM8.71533 18.2314C8.71533 18.8981 8.99658 19.4398 9.5695 19.8564C10.1528 20.2731 10.9237 20.4814 11.882 20.4814C13.2153 20.4814 14.3247 20.0752 15.2153 19.2523C16.1007 18.4189 16.5487 17.346 16.5487 16.0231H11.7778C10.8299 16.0231 10.0799 16.221 9.52783 16.6064C8.98617 16.9814 8.71533 17.5231 8.71533 18.2314Z" fill="#690061"/>
</svg>
