<svg width="120" height="120" viewBox="0 0 120 120" fill="none" xmlns="http://www.w3.org/2000/svg">
<path d="M60.1875 0.354248C27.3438 0.354248 0.71875 26.9845 0.71875 59.823C0.71875 92.6668 27.3438 119.292 60.1875 119.292C93.026 119.292 119.656 92.6668 119.656 59.823C119.656 26.9845 93.026 0.354248 60.1875 0.354248ZM88.4688 63.3282L68.6458 83.1511C67.6771 84.1147 66.4115 84.6043 65.1406 84.6043C63.875 84.6043 62.6042 84.1147 61.6406 83.1511C59.6979 81.2136 59.6979 78.0782 61.6406 76.1407L73 64.7813H35.4063C32.6719 64.7813 30.4531 62.5626 30.4531 59.823C30.4531 57.0834 32.6719 54.8699 35.4063 54.8699H73L61.6406 43.5053C59.6979 41.5678 59.6979 38.4324 61.6406 36.4949C63.5781 34.5574 66.7083 34.5574 68.6458 36.4949L88.4688 56.3178C90.4063 58.2553 90.4063 61.3907 88.4688 63.3282Z" fill="#FF88A0"/>
</svg>
