<svg width="28" height="27" viewBox="0 0 28 27" fill="none" xmlns="http://www.w3.org/2000/svg">
<path d="M13.9817 26.0738C11.2838 26.0738 8.90361 25.5321 6.8359 24.4488C4.7786 23.3655 3.16923 21.8603 2.00256 19.928C0.835897 18.0009 0.252563 15.7613 0.252563 13.2196C0.252563 10.6936 0.835897 8.46965 2.00256 6.55298C3.16923 4.63631 4.78381 3.13631 6.85673 2.05298C8.94006 0.969645 11.3255 0.427979 14.0234 0.427979C16.9244 0.427979 19.4244 1.04777 21.5234 2.28215C23.6171 3.52173 25.2109 5.26131 26.2942 7.51131C27.3776 9.76131 27.8411 12.4019 27.6901 15.428H8.98173C9.31506 16.7509 9.95048 17.7509 10.8984 18.428C11.8411 19.0946 12.9244 19.428 14.1484 19.428C15.1067 19.428 15.9817 19.2613 16.7734 18.928C17.5651 18.5842 18.2005 18.1155 18.6901 17.5321H27.2317C26.1588 20.2301 24.4661 22.3238 22.1484 23.8238C19.8411 25.3238 17.1171 26.0738 13.9817 26.0738ZM9.0234 10.6571H19.2942C18.9296 9.53215 18.3151 8.65194 17.4401 8.01131C16.5651 7.36027 15.4505 7.03215 14.1067 7.03215C12.8828 7.03215 11.8203 7.34465 10.9192 7.96965C10.013 8.59465 9.38277 9.49048 9.0234 10.6571Z" fill="#690061"/>
</svg>
