<svg width="11" height="20" viewBox="0 0 11 20" fill="none" xmlns="http://www.w3.org/2000/svg">
<path d="M0.203613 19.2272V0.873047H2.14111V7.99805L2.39111 8.03971C3.3182 6.61263 4.67236 5.89388 6.45361 5.89388C8.02132 5.89388 9.16195 6.30013 9.87028 7.10221C10.5786 7.89388 10.9328 9.12305 10.9328 10.7897V19.2272H8.99528V10.8522C8.99528 10.0605 8.89111 9.43034 8.68278 8.95638C8.48486 8.47201 8.17236 8.11784 7.74528 7.89388C7.32861 7.67513 6.77132 7.56055 6.07861 7.56055C4.89632 7.56055 3.9432 7.95117 3.22445 8.72721C2.50049 9.49284 2.14111 10.748 2.14111 12.498V19.2272H0.203613Z" fill="black"/>
</svg>
