<svg width="12" height="13" viewBox="0 0 12 13" fill="none" xmlns="http://www.w3.org/2000/svg">
<path d="M0.652832 0.921224H2.59033V3.06706H2.77783C3.07991 2.37435 3.57471 1.79102 4.257 1.31706C4.93408 0.832683 5.76221 0.587891 6.73617 0.587891C7.74658 0.587891 8.59554 0.832683 9.27783 1.31706C9.95492 1.79102 10.4549 2.41602 10.7778 3.19206C11.1112 3.97331 11.2778 4.81185 11.2778 5.71289V12.8587H9.3195V5.96289C9.3195 4.78581 9.01221 3.88997 8.40283 3.27539C7.78825 2.65039 6.99137 2.33789 6.007 2.33789C4.96533 2.33789 4.132 2.68164 3.507 3.35872C2.89242 4.02539 2.59033 4.89518 2.59033 5.96289V12.8587H0.652832V0.921224Z" fill="black"/>
</svg>
