<svg width="18" height="20" viewBox="0 0 18 20" fill="none" xmlns="http://www.w3.org/2000/svg">
<path d="M9.35299 19.8496C7.47799 19.8496 5.89986 19.4017 4.62382 18.4954C3.34257 17.5944 2.39465 16.4121 1.76965 14.9538C1.14465 13.4954 0.832153 11.9642 0.832153 10.3496C0.832153 8.71419 1.14465 7.17253 1.76965 5.72461C2.39465 4.2819 3.35299 3.11003 4.64465 2.20378C5.93632 1.30273 7.51965 0.849609 9.39465 0.849609C11.8374 0.849609 13.7957 1.67253 15.2697 3.30794C16.7384 4.94857 17.478 7.30273 17.478 10.3704V11.2038H3.81132V11.4538C3.81132 12.4694 4.04049 13.4277 4.49882 14.3288C4.96757 15.235 5.6134 15.9642 6.43632 16.5163C7.26965 17.0736 8.23319 17.3496 9.33215 17.3496C10.4988 17.3496 11.5092 17.0527 12.3738 16.4538C13.2332 15.8444 13.8634 15.0319 14.2697 14.0163H17.228C16.7384 15.6829 15.8322 17.0736 14.4988 18.1829C13.1759 19.2975 11.4624 19.8496 9.35299 19.8496ZM14.5197 9.09961C14.4207 7.01628 13.9051 5.51628 12.978 4.59961C12.0613 3.67253 10.853 3.20378 9.35299 3.20378C7.71236 3.20378 6.40507 3.74544 5.43632 4.82878C4.46236 5.91211 3.94153 7.33919 3.87382 9.09961H14.5197Z" fill="black"/>
</svg>
