<svg width="5" height="14" viewBox="0 0 5 14" fill="none" xmlns="http://www.w3.org/2000/svg">
<path d="M2.07682 13.0992C1.47786 13.0992 0.983074 12.9012 0.597656 12.5158C0.222656 12.1148 0.0351562 11.62 0.0351562 11.0367C0.0351562 10.469 0.222656 9.98979 0.597656 9.59916C0.983074 9.19812 1.47786 8.995 2.07682 8.995C2.66016 8.995 3.14453 9.19812 3.53516 9.59916C3.9362 9.98979 4.13932 10.469 4.13932 11.0367C4.13932 11.62 3.9362 12.1148 3.53516 12.5158C3.12891 12.9012 2.64453 13.0992 2.07682 13.0992ZM2.07682 4.28666C1.47786 4.28666 0.983074 4.09395 0.597656 3.70333C0.222656 3.30229 0.0351562 2.8075 0.0351562 2.22416C0.0351562 1.65645 0.222656 1.17729 0.597656 0.786662C0.983074 0.38562 1.47786 0.182495 2.07682 0.182495C2.66016 0.182495 3.14453 0.38562 3.53516 0.786662C3.9362 1.17729 4.13932 1.65645 4.13932 2.22416C4.13932 2.8075 3.9362 3.30229 3.53516 3.70333C3.12891 4.09395 2.64453 4.28666 2.07682 4.28666Z" fill="black"/>
</svg>
