<svg width="12" height="15" viewBox="0 0 12 15" fill="none" xmlns="http://www.w3.org/2000/svg">
<path d="M11.2541 8.12309H2.25407C2.30615 9.72205 2.69157 10.8939 3.3999 11.6439C4.10824 12.3835 5.07699 12.7481 6.31657 12.7481C7.24365 12.7481 7.99365 12.5814 8.56657 12.2481C9.13428 11.9148 9.57699 11.3939 9.8999 10.6856H10.1499L11.4207 11.4356C11.0457 12.3835 10.4312 13.1231 9.5874 13.6648C8.75407 14.2064 7.66032 14.4773 6.31657 14.4773C5.05094 14.4773 3.9624 14.2273 3.04574 13.7273C2.13949 13.2273 1.44157 12.472 0.941569 11.4564C0.451985 10.446 0.212402 9.18559 0.212402 7.68559C0.212402 6.20121 0.46761 4.95121 0.983236 3.93559C1.50928 2.90955 2.21761 2.14392 3.10824 1.64392C4.00928 1.14392 5.03532 0.893921 6.19157 0.893921C7.86865 0.893921 9.18115 1.36788 10.1291 2.31059C11.0718 3.2585 11.5457 4.65955 11.5457 6.51892C11.5457 7.24288 11.5301 7.72725 11.5041 7.97725L11.2541 8.12309ZM9.62907 6.51892C9.59782 5.11788 9.29574 4.10225 8.7124 3.47725C8.12907 2.84184 7.28532 2.51892 6.19157 2.51892C5.05094 2.51892 4.1499 2.84184 3.48324 3.47725C2.82699 4.11788 2.43115 5.1335 2.29574 6.51892H9.62907Z" fill="black"/>
</svg>
