<svg width="22" height="25" viewBox="0 0 22 25" fill="none" xmlns="http://www.w3.org/2000/svg">
<path d="M11.2876 24.2917C8.98031 24.2917 7.0376 23.7449 5.45426 22.6459C3.88135 21.5365 2.70947 20.0834 1.93343 18.2917C1.16781 16.5001 0.787598 14.6042 0.787598 12.6042C0.787598 10.5938 1.16781 8.698 1.93343 6.91675C2.70947 5.14071 3.89176 3.698 5.4751 2.58341C7.06885 1.47404 9.02197 0.916748 11.3293 0.916748C14.3397 0.916748 16.7511 1.93237 18.5584 3.95841C20.3605 5.97404 21.2668 8.86987 21.2668 12.6459V13.6667H4.4751V13.9792C4.4751 15.2292 4.75114 16.4115 5.30843 17.5209C5.87614 18.6355 6.67301 19.5313 7.70426 20.2084C8.73031 20.8907 9.9126 21.2292 11.2459 21.2292C12.7043 21.2292 13.9543 20.8647 14.9959 20.1251C16.048 19.3751 16.8345 18.3751 17.3501 17.1251H20.9751C20.3761 19.1824 19.2563 20.8907 17.6209 22.2501C15.9959 23.6147 13.8813 24.2917 11.2876 24.2917ZM17.6418 11.0626C17.5272 8.5105 16.9022 6.66154 15.7668 5.52092C14.6261 4.3855 13.1313 3.81258 11.2876 3.81258C9.27197 3.81258 7.66781 4.48967 6.4751 5.83342C5.27718 7.16675 4.64176 8.91154 4.55843 11.0626H17.6418Z" fill="#690061"/>
</svg>
