<svg width="16" height="25" viewBox="0 0 16 25" fill="none" xmlns="http://www.w3.org/2000/svg">
<path d="M0.0664062 0.346313H2.81641V10.4088H3.08724C3.50391 9.44006 4.19141 8.61715 5.14974 7.95048C6.11849 7.2734 7.29557 6.92965 8.67057 6.92965C10.0977 6.92965 11.2956 7.2734 12.2539 7.95048C13.2227 8.61715 13.9414 9.50256 14.3997 10.5963C14.8581 11.6953 15.0872 12.8828 15.0872 14.1588V24.2421H12.3164V14.513C12.3164 12.8463 11.8841 11.5755 11.0247 10.7005C10.1602 9.82548 9.01432 9.38798 7.58724 9.38798C6.22266 9.38798 5.08724 9.84631 4.17057 10.763C3.26432 11.6796 2.81641 12.9296 2.81641 14.513V24.2421H0.0664062V0.346313Z" fill="black"/>
</svg>
