<svg width="12" height="14" viewBox="0 0 12 14" fill="none" xmlns="http://www.w3.org/2000/svg">
<path d="M6.46566 13.0254C5.2417 13.0254 4.20524 12.7337 3.36149 12.1504C2.52816 11.5566 1.90316 10.7858 1.48649 9.83789C1.08024 8.87956 0.882324 7.87435 0.882324 6.81706C0.882324 5.73372 1.08024 4.72331 1.48649 3.77539C1.90316 2.83268 2.53337 2.06706 3.38232 1.48372C4.22607 0.889975 5.26253 0.587891 6.48649 0.587891C8.09587 0.587891 9.38232 1.12956 10.3407 2.21289C11.299 3.28581 11.7782 4.82747 11.7782 6.83789V7.37956H2.84066V7.52539C2.84066 8.19206 2.9917 8.82747 3.29899 9.42122C3.60107 10.0046 4.02816 10.4785 4.56982 10.8379C5.11149 11.2025 5.73649 11.3796 6.44482 11.3796C7.22087 11.3796 7.88753 11.1868 8.44482 10.7962C8.99691 10.4108 9.41357 9.87956 9.69482 9.21289H11.6115C11.2886 10.2962 10.6948 11.2077 9.81982 11.9421C8.95524 12.666 7.84066 13.0254 6.46566 13.0254ZM9.84066 5.98372C9.78337 4.62435 9.45003 3.64518 8.84066 3.04622C8.2417 2.43685 7.45003 2.12956 6.46566 2.12956C5.39274 2.12956 4.53857 2.49414 3.90316 3.21289C3.26253 3.92122 2.92399 4.84831 2.88232 5.98372H9.84066Z" fill="black"/>
</svg>
