<svg width="13" height="14" viewBox="0 0 13 14" fill="none" xmlns="http://www.w3.org/2000/svg">
<path d="M6.55046 13.0254C5.34212 13.0254 4.31087 12.7337 3.46712 12.1504C2.63379 11.5671 1.99837 10.8066 1.57129 9.85872C1.15462 8.91602 0.946289 7.90039 0.946289 6.81706C0.946289 5.72331 1.15462 4.70247 1.57129 3.75456C1.99837 2.81185 2.63379 2.04622 3.46712 1.46289C4.31087 0.879557 5.34212 0.587891 6.55046 0.587891C7.75879 0.587891 8.77962 0.879557 9.61296 1.46289C10.4567 2.04622 11.0921 2.81706 11.5088 3.77539C11.9255 4.72331 12.1338 5.73372 12.1338 6.81706C12.1338 7.88997 11.915 8.90039 11.488 9.85872C11.0713 10.8066 10.4359 11.5671 9.59212 12.1504C8.75879 12.7337 7.74316 13.0254 6.55046 13.0254ZM6.55046 11.3379C7.30046 11.3379 7.94629 11.14 8.48796 10.7337C9.04004 10.3171 9.45671 9.77018 9.73796 9.08789C10.0296 8.39518 10.1755 7.62435 10.1755 6.77539C10.1755 5.48372 9.84733 4.41081 9.19629 3.54622C8.55566 2.68685 7.67546 2.25456 6.55046 2.25456C5.80046 2.25456 5.14421 2.46289 4.59212 2.87956C4.03483 3.28581 3.61296 3.83268 3.32129 4.52539C3.04004 5.20768 2.90462 5.95768 2.90462 6.77539C2.90462 8.08268 3.22754 9.17122 3.88379 10.0462C4.53483 10.9108 5.42546 11.3379 6.55046 11.3379Z" fill="black"/>
</svg>
