<svg width="17" height="19" viewBox="0 0 17 19" fill="none" xmlns="http://www.w3.org/2000/svg">
<path d="M8.1696 18.4714C6.46126 18.4714 5.00814 18.0651 3.81543 17.2422C2.63314 16.4089 1.74251 15.3255 1.14876 13.9922C0.549804 12.6589 0.25293 11.2318 0.25293 9.70052C0.25293 8.15885 0.549804 6.72135 1.14876 5.38802C1.74251 4.05469 2.63314 2.98177 3.81543 2.15885C5.00814 1.34115 6.46126 0.929688 8.1696 0.929688C9.87793 0.929688 11.3206 1.34115 12.5029 2.15885C13.68 2.98177 14.5654 4.0651 15.1488 5.40885C15.7425 6.75781 16.0446 8.1901 16.0446 9.70052C16.0446 11.2161 15.7425 12.6484 15.1488 13.9922C14.5498 15.3255 13.654 16.4089 12.4613 17.2422C11.279 18.0651 9.84668 18.4714 8.1696 18.4714ZM8.1696 16.0964C9.21126 16.0964 10.1175 15.8151 10.8988 15.2422C11.6748 14.6589 12.2633 13.8828 12.6696 12.9089C13.0706 11.9401 13.2738 10.8568 13.2738 9.65885C13.2738 7.82552 12.8154 6.30469 11.8988 5.09635C10.9821 3.8776 9.7373 3.26302 8.1696 3.26302C7.09668 3.26302 6.1748 3.55469 5.39876 4.13802C4.61751 4.71094 4.02376 5.48177 3.6071 6.45052C3.20085 7.42448 3.00293 8.49219 3.00293 9.65885C3.00293 11.4922 3.46126 13.0286 4.37793 14.263C5.30501 15.487 6.57064 16.0964 8.1696 16.0964Z" fill="black"/>
</svg>
