<svg width="13" height="14" viewBox="0 0 13 14" fill="none" xmlns="http://www.w3.org/2000/svg">
<path d="M5.29085 13.0671C3.80127 13.0671 2.65544 12.5046 1.85335 11.3796C1.04606 10.2546 0.64502 8.74939 0.64502 6.85876C0.64502 4.95772 1.05127 3.4421 1.87419 2.3171C2.70752 1.18168 3.85856 0.608765 5.33252 0.608765C6.34294 0.608765 7.12419 0.837931 7.66585 1.29626C8.20752 1.74418 8.58252 2.18689 8.79085 2.6296H8.97835V0.858765H12.5409V12.8588H8.97835V10.9421H8.79085C8.56689 11.4161 8.17627 11.89 7.62419 12.3588C7.08252 12.8327 6.30127 13.0671 5.29085 13.0671ZM6.62419 10.2338C7.42627 10.2338 8.02523 9.90043 8.41585 9.23376C8.80127 8.55668 8.99919 7.7546 8.99919 6.83793C8.99919 5.92126 8.80127 5.1296 8.41585 4.46293C8.02523 3.78585 7.42627 3.4421 6.62419 3.4421C5.79085 3.4421 5.17627 3.77543 4.79085 4.4421C4.41585 5.09835 4.22835 5.89002 4.22835 6.8171C4.22835 7.74939 4.41585 8.55668 4.79085 9.23376C5.17627 9.90043 5.79085 10.2338 6.62419 10.2338Z" fill="black"/>
</svg>
