<svg width="26" height="27" viewBox="0 0 26 27" fill="none" xmlns="http://www.w3.org/2000/svg">
<path d="M9.28996 26.2898C6.50871 26.2898 4.28996 25.6023 2.62329 24.2273C0.956624 22.8523 0.123291 20.9929 0.123291 18.644C0.123291 16.4096 0.857666 14.6127 2.33162 13.2481C3.816 11.8888 5.816 11.2065 8.33162 11.2065H16.4983V9.83146C16.4983 9.03979 16.1493 8.38875 15.4566 7.87313C14.7743 7.34709 13.941 7.08146 12.9566 7.08146C12.066 7.08146 11.3108 7.30542 10.6858 7.74813C10.0608 8.19605 9.68579 8.76375 9.56079 9.45646H1.31079C1.67017 6.65438 2.84204 4.50854 4.83162 3.01896C6.83162 1.53459 9.52433 0.789795 12.915 0.789795C16.8316 0.789795 19.8368 1.73771 21.9358 3.62313C24.0295 5.49813 25.0816 8.16479 25.0816 11.6231V25.7481H18.7483L17.7691 23.0815C15.6285 25.2221 12.8004 26.2898 9.28996 26.2898ZM8.74829 18.2273C8.74829 18.894 9.02954 19.4356 9.60246 19.8523C10.1858 20.269 10.9566 20.4773 11.915 20.4773C13.2483 20.4773 14.3577 20.071 15.2483 19.2481C16.1337 18.4148 16.5816 17.3419 16.5816 16.019H11.8108C10.8629 16.019 10.1129 16.2169 9.56079 16.6023C9.01912 16.9773 8.74829 17.519 8.74829 18.2273Z" fill="#690061"/>
</svg>
