<svg width="56" height="74" viewBox="0 0 56 74" fill="none" xmlns="http://www.w3.org/2000/svg">
<path d="M13.1606 0.93042C16.6606 0.93042 20.3742 1.17521 24.3065 1.65959C28.2336 2.14917 32.0409 3.08667 35.7231 4.47209C39.4159 5.86271 42.7544 7.88875 45.744 10.5554C48.7284 13.2117 51.1086 16.696 52.8898 21.0138C54.6815 25.3367 55.5773 30.7325 55.5773 37.2013C55.5773 43.4252 54.7023 48.67 52.9523 52.9304C51.2023 57.1804 48.8377 60.6544 45.869 63.3471C42.9106 66.0294 39.5669 68.1127 35.8481 69.5971C32.1398 71.0867 28.3325 72.0971 24.4315 72.6388C20.5409 73.1804 16.7856 73.4513 13.1606 73.4513H1.28564C0.618978 73.4513 0.285645 73.1804 0.285645 72.6388V44.1804H14.1606V60.1179C15.9106 60.1908 17.9575 60.1492 20.3065 59.9929C22.6659 59.8419 25.0825 59.3888 27.5565 58.6388C30.0409 57.8783 32.3534 56.6804 34.494 55.0554C36.645 53.42 38.369 51.1544 39.6606 48.2638C40.9627 45.3627 41.619 41.6752 41.619 37.2013C41.619 31.4513 40.4211 26.8419 38.0356 23.3679C35.645 19.8992 32.3794 17.4252 28.244 15.9513C24.1034 14.4669 19.4106 13.8679 14.1606 14.1596V30.2221H0.285645V1.74292C0.285645 1.20125 0.618978 0.93042 1.28564 0.93042H13.1606Z" fill="#562A2A" fill-opacity="0.302"/>
</svg>
