<svg width="12" height="15" viewBox="0 0 12 15" fill="none" xmlns="http://www.w3.org/2000/svg">
<path d="M11.6442 7.92289H2.64421C2.69629 9.52185 3.08171 10.6937 3.79004 11.4437C4.49837 12.1833 5.46712 12.5479 6.70671 12.5479C7.63379 12.5479 8.38379 12.3812 8.95671 12.0479C9.52441 11.7146 9.96712 11.1937 10.29 10.4854H10.54L11.8109 11.2354C11.4359 12.1833 10.8213 12.9229 9.97754 13.4646C9.14421 14.0062 8.05046 14.2771 6.70671 14.2771C5.44108 14.2771 4.35254 14.0271 3.43587 13.5271C2.52962 13.0271 1.83171 12.2719 1.33171 11.2562C0.842122 10.2458 0.602539 8.98539 0.602539 7.48539C0.602539 6.00102 0.857747 4.75102 1.37337 3.73539C1.89941 2.70935 2.60775 1.94373 3.49837 1.44373C4.39941 0.943726 5.42546 0.693726 6.58171 0.693726C8.25879 0.693726 9.57129 1.16768 10.5192 2.11039C11.4619 3.05831 11.9359 4.45935 11.9359 6.31873C11.9359 7.04268 11.9202 7.52706 11.8942 7.77706L11.6442 7.92289ZM10.0192 6.31873C9.98796 4.91768 9.68587 3.90206 9.10254 3.27706C8.51921 2.64164 7.67546 2.31873 6.58171 2.31873C5.44108 2.31873 4.54004 2.64164 3.87337 3.27706C3.21712 3.91768 2.82129 4.93331 2.68587 6.31873H10.0192Z" fill="black"/>
</svg>
