<svg width="12" height="15" viewBox="0 0 12 15" fill="none" xmlns="http://www.w3.org/2000/svg">
<path d="M11.6452 7.92289H2.64518C2.69727 9.52185 3.08268 10.6937 3.79102 11.4437C4.49935 12.1833 5.4681 12.5479 6.70768 12.5479C7.63477 12.5479 8.38477 12.3812 8.95768 12.0479C9.52539 11.7146 9.9681 11.1937 10.291 10.4854H10.541L11.8118 11.2354C11.4368 12.1833 10.8223 12.9229 9.97852 13.4646C9.14518 14.0062 8.05143 14.2771 6.70768 14.2771C5.44206 14.2771 4.35352 14.0271 3.43685 13.5271C2.5306 13.0271 1.83268 12.2719 1.33268 11.2562C0.843098 10.2458 0.603516 8.98539 0.603516 7.48539C0.603516 6.00102 0.858724 4.75102 1.37435 3.73539C1.90039 2.70935 2.60872 1.94373 3.49935 1.44373C4.40039 0.943726 5.42643 0.693726 6.58268 0.693726C8.25977 0.693726 9.57227 1.16768 10.5202 2.11039C11.4629 3.05831 11.9368 4.45935 11.9368 6.31873C11.9368 7.04268 11.9212 7.52706 11.8952 7.77706L11.6452 7.92289ZM10.0202 6.31873C9.98893 4.91768 9.68685 3.90206 9.10352 3.27706C8.52018 2.64164 7.67643 2.31873 6.58268 2.31873C5.44206 2.31873 4.54102 2.64164 3.87435 3.27706C3.2181 3.91768 2.82227 4.93331 2.68685 6.31873H10.0202Z" fill="black"/>
</svg>
