<svg width="6" height="12" viewBox="0 0 6 12" fill="none" xmlns="http://www.w3.org/2000/svg">
<path d="M1.06022 10.4159C2.77897 9.65023 3.64355 8.5096 3.64355 6.99919C3.64355 6.29085 3.52376 5.83773 3.28939 5.64502C3.0498 5.46273 2.69043 5.37419 2.20605 5.37419C0.789388 5.37419 0.0810547 4.68148 0.0810547 3.29085C0.0810547 2.53044 0.310221 1.91585 0.768555 1.45752C1.23731 0.999186 1.89876 0.77002 2.74772 0.77002C4.77376 0.77002 5.78939 1.86898 5.78939 4.06169V5.60335C5.78939 7.35335 5.35189 8.74919 4.47689 9.79085C3.61231 10.8325 2.47689 11.5669 1.06022 11.9992V10.4159Z" fill="black"/>
</svg>
