<svg width="21" height="33" viewBox="0 0 21 33" fill="none" xmlns="http://www.w3.org/2000/svg">
<path d="M0.112305 0.27002H3.77897V13.7075H4.1123C4.68001 12.4054 5.60189 11.3065 6.88314 10.4159C8.15918 9.51481 9.72168 9.06169 11.5706 9.06169C13.4717 9.06169 15.0602 9.51481 16.3415 10.4159C17.6331 11.3065 18.5811 12.4784 19.1956 13.9367C19.805 15.395 20.1123 16.9784 20.1123 18.6867V32.1242H16.4456V19.1659C16.4456 16.9471 15.8675 15.2492 14.7165 14.0825C13.5602 12.9159 12.0342 12.3325 10.1331 12.3325C8.31022 12.3325 6.7998 12.9471 5.59147 14.1659C4.38314 15.3898 3.77897 17.0565 3.77897 19.1659V32.1242H0.112305V0.27002Z" fill="black"/>
</svg>
