<svg width="12" height="15" viewBox="0 0 12 15" fill="none" xmlns="http://www.w3.org/2000/svg">
<path d="M11.5392 8.12309H2.53923C2.59131 9.72205 2.97673 10.8939 3.68506 11.6439C4.39339 12.3835 5.36214 12.7481 6.60173 12.7481C7.52881 12.7481 8.27881 12.5814 8.85173 12.2481C9.41943 11.9148 9.86214 11.3939 10.1851 10.6856H10.4351L11.7059 11.4356C11.3309 12.3835 10.7163 13.1231 9.87256 13.6648C9.03923 14.2064 7.94547 14.4773 6.60173 14.4773C5.3361 14.4773 4.24756 14.2273 3.33089 13.7273C2.42464 13.2273 1.72673 12.472 1.22673 11.4564C0.737141 10.446 0.497559 9.18559 0.497559 7.68559C0.497559 6.20121 0.752767 4.95121 1.26839 3.93559C1.79443 2.90955 2.50277 2.14392 3.39339 1.64392C4.29443 1.14392 5.32047 0.893921 6.47673 0.893921C8.15381 0.893921 9.46631 1.36788 10.4142 2.31059C11.3569 3.2585 11.8309 4.65955 11.8309 6.51892C11.8309 7.24288 11.8153 7.72725 11.7892 7.97725L11.5392 8.12309ZM9.91423 6.51892C9.88298 5.11788 9.58089 4.10225 8.99756 3.47725C8.41423 2.84184 7.57047 2.51892 6.47673 2.51892C5.3361 2.51892 4.43506 2.84184 3.76839 3.47725C3.11214 4.11788 2.71631 5.1335 2.58089 6.51892H9.91423Z" fill="black"/>
</svg>
