<svg width="22" height="26" viewBox="0 0 22 26" fill="none" xmlns="http://www.w3.org/2000/svg">
<path d="M11.1642 25.8493C8.8986 25.8493 6.94027 25.318 5.28923 24.2451C3.6486 23.1618 2.3986 21.6774 1.53923 19.7868C0.674641 17.8857 0.247559 15.7347 0.247559 13.3285C0.247559 10.9274 0.674641 8.78158 1.53923 6.89095C2.3986 4.98991 3.6486 3.50553 5.28923 2.43262C6.94027 1.34928 8.8986 0.807617 11.1642 0.807617C13.883 0.807617 16.133 1.57845 17.9142 3.12012C19.6903 4.66178 20.883 6.73991 21.4976 9.34928H18.5392C18.0496 7.55762 17.1642 6.14095 15.8726 5.09928C14.5809 4.0472 13.0184 3.51595 11.1851 3.51595C8.66943 3.51595 6.73714 4.40658 5.39339 6.18262C4.06006 7.94824 3.39339 10.318 3.39339 13.2868C3.39339 16.3024 4.06006 18.693 5.39339 20.4535C6.73714 22.2191 8.66943 23.0993 11.1851 23.0993C12.9194 23.0993 14.4142 22.6357 15.6642 21.7035C16.9142 20.7607 17.7996 19.5055 18.3309 17.9326H21.2892C20.633 20.3389 19.4351 22.2607 17.6851 23.7035C15.9455 25.1357 13.7736 25.8493 11.1642 25.8493Z" fill="black"/>
</svg>
