<svg width="79" height="74" viewBox="0 0 79 74" fill="none" xmlns="http://www.w3.org/2000/svg">
<path d="M64.9618 55.9895V32.9687L46.4826 70.052C46.3576 70.4166 46.0868 70.5937 45.6701 70.5937H34.5034C34.0295 70.5937 33.7326 70.4166 33.6076 70.052L13.9409 31.9687V72.677C13.9409 73.2187 13.6076 73.4895 12.9409 73.4895H0.982585C0.368001 73.4895 0.065918 73.2187 0.065918 72.677V1.78119C0.065918 1.23952 0.368001 0.968689 0.982585 0.968689H13.1284C13.5972 0.968689 13.8993 1.15098 14.0243 1.51036L40.0451 54.6354L64.7951 1.51036C65.0295 1.15098 65.3576 0.968689 65.7743 0.968689H77.7534C78.4201 0.968689 78.7534 1.23952 78.7534 1.78119V55.9895H64.9618Z" fill="#562A2A" fill-opacity="0.502"/>
</svg>
