<svg width="21" height="24" viewBox="0 0 21 24" fill="none" xmlns="http://www.w3.org/2000/svg">
<path d="M10.7642 23.4159C8.45687 23.4159 6.51416 22.8691 4.93083 21.7701C3.35791 20.6607 2.18603 19.2076 1.40999 17.4159C0.644368 15.6243 0.26416 13.7284 0.26416 11.7284C0.26416 9.71802 0.644368 7.82219 1.40999 6.04093C2.18603 4.26489 3.36833 2.82739 4.95166 1.72843C6.54541 0.61906 8.49854 0.0617676 10.8058 0.0617676C13.8162 0.0617676 16.2277 1.07218 18.035 3.0826C19.8371 5.09823 20.7433 7.99406 20.7433 11.7701V12.8118H3.93083V13.1034C3.93083 14.3534 4.21208 15.5357 4.78499 16.6451C5.3527 17.7597 6.14958 18.6555 7.18083 19.3326C8.20687 20.0149 9.38916 20.3534 10.7225 20.3534C12.1652 20.3534 13.4152 19.9889 14.4725 19.2493C15.5246 18.5149 16.311 17.5149 16.8267 16.2493H20.4517C19.8527 18.3066 18.7329 20.0149 17.0975 21.3743C15.4569 22.7389 13.3475 23.4159 10.7642 23.4159ZM17.1183 10.2076C17.0037 7.65552 16.3787 5.80656 15.2433 4.66593C14.1027 3.53052 12.6079 2.9576 10.7642 2.9576C8.74854 2.9576 7.14437 3.62427 5.95166 4.9576C4.75374 6.29093 4.11833 8.04093 4.03499 10.2076H17.1183Z" fill="black"/>
</svg>
