<svg width="18" height="20" viewBox="0 0 18 20" fill="none" xmlns="http://www.w3.org/2000/svg">
<path d="M9.18563 19.8491C7.31063 19.8491 5.7325 19.4012 4.45646 18.495C3.17521 17.5939 2.22729 16.4116 1.60229 14.9533C0.977295 13.495 0.664795 11.9637 0.664795 10.3491C0.664795 8.71371 0.977295 7.17204 1.60229 5.72412C2.22729 4.28141 3.18563 3.10954 4.47729 2.20329C5.76896 1.30225 7.35229 0.849121 9.22729 0.849121C11.67 0.849121 13.6283 1.67204 15.1023 3.30745C16.571 4.94808 17.3106 7.30225 17.3106 10.37V11.2033H3.64396V11.4533C3.64396 12.4689 3.87313 13.4272 4.33146 14.3283C4.80021 15.2345 5.44604 15.9637 6.26896 16.5158C7.10229 17.0731 8.06584 17.3491 9.16479 17.3491C10.3315 17.3491 11.3419 17.0522 12.2065 16.4533C13.0658 15.8439 13.696 15.0314 14.1023 14.0158H17.0606C16.571 15.6825 15.6648 17.0731 14.3315 18.1825C13.0085 19.297 11.295 19.8491 9.18563 19.8491ZM14.3523 9.09912C14.2533 7.01579 13.7377 5.51579 12.8106 4.59912C11.894 3.67204 10.6856 3.20329 9.18563 3.20329C7.545 3.20329 6.23771 3.74495 5.26896 4.82829C4.295 5.91162 3.77417 7.33871 3.70646 9.09912H14.3523Z" fill="#690061"/>
</svg>
