<svg width="18" height="24" viewBox="0 0 18 24" fill="none" xmlns="http://www.w3.org/2000/svg">
<path d="M8.99593 23.4159C7.17301 23.4159 5.6001 23.0566 4.26676 22.3326C2.93343 21.6139 1.9126 20.6816 1.20426 19.5409C0.506347 18.4055 0.162598 17.2076 0.162598 15.9576V15.7493H3.82926V15.9159C3.82926 16.6243 4.02718 17.3326 4.43343 18.0409C4.83447 18.7389 5.43343 19.3066 6.2251 19.7493C7.01676 20.1816 7.98031 20.3951 9.12093 20.3951C10.4803 20.3951 11.6053 20.0618 12.4959 19.3951C13.397 18.7284 13.8501 17.8118 13.8501 16.6451C13.8501 15.6764 13.5011 14.9055 12.8084 14.3326C12.1105 13.7649 11.2355 13.3951 10.1834 13.2284L7.24593 12.8118C5.39697 12.5201 3.8501 11.8899 2.6001 10.9159C1.3501 9.93156 0.725098 8.49927 0.725098 6.62427C0.725098 4.54093 1.46468 2.93156 2.95426 1.79093C4.45426 0.639893 6.37093 0.0617676 8.70426 0.0617676C10.4386 0.0617676 11.923 0.384684 13.1626 1.0201C14.397 1.66073 15.3397 2.49927 15.9959 3.54093C16.647 4.57219 16.9751 5.69719 16.9751 6.91593V7.0826H13.3084V6.99927C13.3084 6.43156 13.1522 5.8326 12.8501 5.2076C12.5584 4.5826 12.048 4.05135 11.3293 3.60343C10.6209 3.1451 9.71468 2.91593 8.62093 2.91593C7.24593 2.91593 6.14697 3.24927 5.32926 3.91593C4.50635 4.5826 4.1001 5.4576 4.1001 6.54093C4.1001 7.41593 4.42301 8.13989 5.07926 8.7076C5.73031 9.28052 6.54801 9.6451 7.5376 9.81177L10.7459 10.3326C12.6209 10.6399 14.1938 11.2857 15.4751 12.2701C16.7511 13.2597 17.3918 14.7024 17.3918 16.6034C17.3918 17.968 17.0272 19.1607 16.3084 20.1868C15.5845 21.2024 14.5845 21.9941 13.3084 22.5618C12.0272 23.1295 10.5897 23.4159 8.99593 23.4159Z" fill="black"/>
</svg>
