<svg width="18" height="20" viewBox="0 0 18 20" fill="none" xmlns="http://www.w3.org/2000/svg">
<path d="M9.09505 19.8496C7.22005 19.8496 5.64193 19.4017 4.36589 18.4954C3.08464 17.5944 2.13672 16.4121 1.51172 14.9538C0.886719 13.4954 0.574219 11.9642 0.574219 10.3496C0.574219 8.71419 0.886719 7.17253 1.51172 5.72461C2.13672 4.2819 3.09505 3.11003 4.38672 2.20378C5.67839 1.30273 7.26172 0.849609 9.13672 0.849609C11.5794 0.849609 13.5378 1.67253 15.0117 3.30794C16.4805 4.94857 17.2201 7.30273 17.2201 10.3704V11.2038H3.55339V11.4538C3.55339 12.4694 3.78255 13.4277 4.24089 14.3288C4.70964 15.235 5.35547 15.9642 6.17839 16.5163C7.01172 17.0736 7.97526 17.3496 9.07422 17.3496C10.2409 17.3496 11.2513 17.0527 12.1159 16.4538C12.9753 15.8444 13.6055 15.0319 14.0117 14.0163H16.9701C16.4805 15.6829 15.5742 17.0736 14.2409 18.1829C12.918 19.2975 11.2044 19.8496 9.09505 19.8496ZM14.2617 9.09961C14.1628 7.01628 13.6471 5.51628 12.7201 4.59961C11.8034 3.67253 10.5951 3.20378 9.09505 3.20378C7.45443 3.20378 6.14713 3.74544 5.17839 4.82878C4.20443 5.91211 3.68359 7.33919 3.61589 9.09961H14.2617Z" fill="black"/>
</svg>
