<svg width="22" height="24" viewBox="0 0 22 24" fill="none" xmlns="http://www.w3.org/2000/svg">
<path d="M10.2324 23.4159C8.23242 23.4159 6.5293 22.9107 5.12826 21.8951C3.722 20.8691 2.64909 19.4732 1.89909 17.7076C1.15951 15.9472 0.794922 13.9524 0.794922 11.7284C0.794922 9.5201 1.16992 7.53052 1.91992 5.74927C2.68034 3.97323 3.7793 2.5826 5.21159 1.5826C6.63867 0.572185 8.35742 0.0617676 10.3574 0.0617676C12.3418 0.0617676 13.946 0.535726 15.1699 1.47843C16.3887 2.41073 17.3158 3.53052 17.9408 4.8326H18.2324V0.645101H21.9616V23.1243H18.2324V18.5201H17.9408C17.2585 19.8534 16.2949 21.0097 15.0449 21.9784C13.7949 22.9368 12.1908 23.4159 10.2324 23.4159ZM11.3783 20.2701C13.5553 20.2701 15.2324 19.4524 16.3991 17.8118C17.5658 16.1764 18.1491 14.1451 18.1491 11.7284C18.1491 9.31177 17.5658 7.29093 16.3991 5.66593C15.2324 4.03052 13.5553 3.2076 11.3783 3.2076C9.12826 3.2076 7.42513 4.0201 6.27409 5.6451C5.11784 7.25968 4.54492 9.2701 4.54492 11.6868C4.54492 14.1347 5.11784 16.1764 6.27409 17.8118C7.42513 19.4524 9.12826 20.2701 11.3783 20.2701Z" fill="black"/>
</svg>
