<svg width="8" height="17" viewBox="0 0 8 17" fill="none" xmlns="http://www.w3.org/2000/svg">
<path d="M4.29167 6.48376V13.4213C4.29167 13.9786 4.31771 14.39 4.375 14.6504C4.42708 14.9161 4.56771 15.1244 4.79167 15.2754C5.02604 15.4317 5.40625 15.5046 5.9375 15.5046C6.3125 15.5046 6.70833 15.4525 7.125 15.3379V16.7546C7.01042 16.7963 6.77604 16.8379 6.41667 16.8796C6.06771 16.9213 5.70833 16.9421 5.33333 16.9421C4.45833 16.9421 3.80208 16.8171 3.375 16.5671C2.94271 16.3171 2.65625 15.9786 2.52083 15.5463C2.39583 15.1192 2.33333 14.5463 2.33333 13.8379V6.48376H0.125V4.92126H2.33333V0.983765H4.29167V4.92126H7.125V6.48376H4.29167Z" fill="black"/>
</svg>
