<svg width="46" height="74" viewBox="0 0 46 74" fill="none" xmlns="http://www.w3.org/2000/svg">
<path d="M33.8539 33.1951C37.656 34.9451 40.5674 37.5024 42.5831 40.8618C44.6091 44.2107 45.6247 48.0284 45.6247 52.3201C45.6247 56.8618 44.5518 60.7055 42.4164 63.8409C40.2758 66.9816 37.4997 69.3722 34.0831 71.0076C30.6664 72.6326 27.0206 73.4451 23.1456 73.4451C23.1456 73.4451 23.1143 73.4451 23.0622 73.4451V60.3826C23.1143 60.3826 23.1456 60.3826 23.1456 60.3826C25.5622 60.3826 27.6716 59.6482 29.4789 58.1743C31.2966 56.6899 32.2081 54.7368 32.2081 52.3201C32.2081 50.518 31.7393 48.9815 30.8122 47.7159C29.8799 46.4399 28.7133 45.4399 27.3122 44.7159C25.9216 43.9972 24.531 43.6013 23.1456 43.5284C22.8539 43.5284 21.6456 43.4243 19.5206 43.2159C17.406 43.0076 15.0258 42.2993 12.3747 41.0909C8.62474 39.3409 5.71848 36.9138 3.6664 33.7993C1.60911 30.6743 0.583069 27.0024 0.583069 22.7784C0.583069 18.2368 1.65078 14.3409 3.7914 11.0909C5.94244 7.8305 8.73932 5.32009 12.1872 3.57009C15.6299 1.80967 19.281 0.924255 23.1456 0.924255C27.3227 0.924255 31.0727 1.78884 34.3956 3.50759C37.7133 5.23155 40.3539 7.64821 42.3122 10.7576C44.281 13.8722 45.2966 17.4815 45.3539 21.5909C45.4216 21.7159 45.3435 21.8722 45.1247 22.0493C44.9164 22.2315 44.6664 22.3201 44.3747 22.3201H33.0414C32.7914 22.3201 32.5622 22.2315 32.3539 22.0493C32.1456 21.8722 32.0414 21.7159 32.0414 21.5909C31.9685 18.9972 31.0622 17.0805 29.3122 15.8409C27.5622 14.6065 25.5049 13.9868 23.1456 13.9868C20.6716 13.9868 18.5414 14.7315 16.7497 16.2159C14.9685 17.6899 14.0831 19.8774 14.0831 22.7784C14.0831 25.3774 15.0206 27.3565 16.8956 28.7159C18.7706 30.0805 20.8539 30.7576 23.1456 30.7576C23.3227 30.7576 23.9268 30.7888 24.9581 30.8409C25.9841 30.8982 27.2966 31.0909 28.8956 31.4243C30.5049 31.7576 32.156 32.3513 33.8539 33.1951Z" fill="#562A2A" fill-opacity="0.502"/>
</svg>
