<svg width="56" height="74" viewBox="0 0 56 74" fill="none" xmlns="http://www.w3.org/2000/svg">
<path d="M42.0265 60.1056H55.9015V72.6264C55.9015 73.1681 55.5682 73.4389 54.9015 73.4389H43.1307C39.5057 73.4389 35.7244 73.1681 31.7974 72.6264C27.8651 72.0848 24.0526 71.0743 20.3599 69.5848C16.6776 68.1004 13.339 66.0171 10.339 63.3348C7.34945 60.6421 4.98486 57.1681 3.23486 52.9181C1.48486 48.6577 0.609863 43.4129 0.609863 37.1889C0.609863 30.7723 1.49528 25.392 3.27653 21.0431C5.0682 16.6993 7.45361 13.1993 10.4432 10.5431C13.4276 7.87642 16.7817 5.85038 20.5057 4.45976C24.2244 3.07434 28.0317 2.13684 31.9224 1.64726C35.8234 1.16288 39.5578 0.918091 43.1307 0.918091H54.9015C55.5682 0.918091 55.9015 1.18892 55.9015 1.73059V30.2098H42.0265V14.1473C36.7765 13.8556 32.0786 14.4545 27.9432 15.9389C23.8026 17.4129 20.5369 19.8868 18.1515 23.3556C15.7609 26.8295 14.5682 31.4389 14.5682 37.1889C14.5682 41.6629 15.214 45.3504 16.5057 48.2514C17.8078 51.1421 19.5317 53.4077 21.6724 55.0431C23.8234 56.6681 26.1359 57.866 28.6099 58.6264C31.0942 59.3764 33.5109 59.8296 35.8599 59.9806C38.2192 60.1368 40.2765 60.1785 42.0265 60.1056Z" fill="#562A2A"/>
</svg>
