<svg width="12" height="15" viewBox="0 0 12 15" fill="none" xmlns="http://www.w3.org/2000/svg">
<path d="M0.617188 14.0271V0.922892H2.47135V2.98539L2.72135 3.04789C3.14844 2.28747 3.70052 1.70414 4.36719 1.29789C5.04427 0.896851 5.8776 0.693726 6.86719 0.693726C8.4349 0.693726 9.57552 1.09998 10.2839 1.90206C10.9922 2.69373 11.3464 3.92289 11.3464 5.58956V14.0271H9.40885V5.65206C9.40885 4.86039 9.30469 4.23018 9.09635 3.75623C8.89844 3.27185 8.58594 2.91768 8.15885 2.69373C7.74219 2.47498 7.1849 2.36039 6.49219 2.36039C5.32552 2.36039 4.3724 2.75623 3.63802 3.54789C2.91406 4.32914 2.55469 5.57914 2.55469 7.29789V14.0271H0.617188Z" fill="black"/>
</svg>
