<svg width="21" height="32" viewBox="0 0 21 32" fill="none" xmlns="http://www.w3.org/2000/svg">
<path d="M10.3517 26.2284C9.89339 27.3117 9.45589 28.1972 9.03923 28.8951C8.63297 29.6034 7.9611 30.2701 7.01839 30.8951C6.07048 31.5201 4.85173 31.8326 3.35173 31.8326C2.56006 31.8326 1.70589 31.7128 0.789225 31.4784V28.7492C1.46631 28.8586 2.06527 28.9159 2.58089 28.9159C3.5236 28.9159 4.27881 28.7336 4.85173 28.3742C5.41943 28.0253 5.86214 27.567 6.18506 26.9992C6.51839 26.4263 6.90381 25.6086 7.35173 24.5409L8.39339 22.0201L0.0600586 0.645081H3.91423L10.1851 17.9576H10.4351L16.9976 0.645081H20.8309L10.3517 26.2284Z" fill="black"/>
</svg>
