<svg width="16" height="19" viewBox="0 0 16 19" fill="none" xmlns="http://www.w3.org/2000/svg">
<path d="M15.9599 18.5994H12.939V15.1411H12.7307C12.2411 16.1984 11.4911 17.0942 10.4807 17.8286C9.48071 18.5526 8.25155 18.9119 6.79321 18.9119C5.26196 18.9119 3.99113 18.5474 2.98071 17.8078C1.96509 17.0578 1.2203 16.0994 0.751546 14.9328C0.277588 13.7557 0.0432129 12.4692 0.0432129 11.0786V0.328613H3.02238V10.7036C3.02238 12.4849 3.4703 13.8494 4.37655 14.8078C5.27759 15.7661 6.45988 16.2453 7.91821 16.2453C9.42863 16.2453 10.6474 15.7349 11.564 14.7036C12.4807 13.6776 12.939 12.3442 12.939 10.7036V0.328613H15.9599V18.5994Z" fill="#690061"/>
</svg>
