<svg width="25" height="26" viewBox="0 0 25 26" fill="none" xmlns="http://www.w3.org/2000/svg">
<path d="M9.21794 25.7499C6.5096 25.7499 4.34294 25.0833 2.71794 23.7499C1.10335 22.4062 0.30127 20.5833 0.30127 18.2916C0.30127 16.1249 1.02002 14.3853 2.46794 13.0624C3.91064 11.7447 5.84814 11.0833 8.28044 11.0833H16.2179V9.72909C16.2179 8.96867 15.8846 8.33325 15.2179 7.83325C14.5513 7.32284 13.7388 7.06242 12.7804 7.06242C11.9159 7.06242 11.1815 7.28117 10.5721 7.70825C9.95752 8.14054 9.59814 8.69784 9.48877 9.37492H1.46794C1.81169 6.64054 2.95231 4.55721 4.8846 3.12492C6.82731 1.68221 9.4471 0.958252 12.7388 0.958252C16.5409 0.958252 19.4575 1.87492 21.4888 3.70825C23.5304 5.53117 24.5513 8.11971 24.5513 11.4791V25.2083H18.4054L17.4679 22.6249C15.3846 24.7083 12.6346 25.7499 9.21794 25.7499ZM8.67627 17.8958C8.67627 18.552 8.95752 19.078 9.53044 19.4791C10.0981 19.8853 10.8429 20.0833 11.7596 20.0833C13.0617 20.0833 14.145 19.6822 15.0096 18.8749C15.869 18.0728 16.3013 17.0312 16.3013 15.7499H11.6763C10.744 15.7499 10.0096 15.9374 9.46794 16.3124C8.93669 16.6874 8.67627 17.2187 8.67627 17.8958Z" fill="#690061"/>
</svg>
