<svg width="10" height="43" viewBox="0 0 10 43" fill="none" xmlns="http://www.w3.org/2000/svg">
<path d="M4.97998 9.51953C3.65706 9.51953 2.58936 9.1237 1.77165 8.33203C0.948731 7.52995 0.54248 6.49349 0.54248 5.22786C0.54248 3.97786 0.948731 2.95703 1.77165 2.16536C2.58936 1.36328 3.65706 0.957031 4.97998 0.957031C5.85498 0.957031 6.63102 1.14453 7.31331 1.51953C8.00602 1.88412 8.54248 2.38932 8.91748 3.04036C9.29248 3.68099 9.47998 4.41016 9.47998 5.22786C9.47998 6.05078 9.29248 6.78516 8.91748 7.4362C8.54248 8.09245 8.00602 8.60286 7.31331 8.97787C6.63102 9.34245 5.85498 9.51953 4.97998 9.51953ZM1.35498 42.0195V12.9987H8.64665V42.0195H1.35498Z" fill="black"/>
</svg>
