<svg width="62" height="74" viewBox="0 0 62 74" fill="none" xmlns="http://www.w3.org/2000/svg">
<path d="M60.4199 0.968689C61.0866 0.968689 61.4199 1.23952 61.4199 1.78119V72.677C61.4199 73.2187 61.0866 73.4895 60.4199 73.4895H48.4616C48.4043 73.4895 48.2637 73.4635 48.0449 73.4062C47.8366 73.3385 47.7012 73.276 47.6491 73.2187L14.2949 25.4479V56.0937H0.419922V1.78119C0.419922 1.23952 0.722005 0.968689 1.33659 0.968689H13.3783C13.5033 0.968689 13.6543 0.989522 13.8366 1.03119C14.0137 1.06244 14.1335 1.13015 14.1908 1.23952L47.6491 49.0104V1.78119C47.6491 1.23952 48.0085 0.968689 48.7324 0.968689H60.4199Z" fill="#562A2A" fill-opacity="0.502"/>
</svg>
