<svg width="22" height="24" viewBox="0 0 22 24" fill="none" xmlns="http://www.w3.org/2000/svg">
<path d="M11.3159 23.4159C9.00863 23.4159 7.06592 22.8691 5.48258 21.7701C3.90967 20.6607 2.73779 19.2076 1.96175 17.4159C1.19613 15.6243 0.815918 13.7284 0.815918 11.7284C0.815918 9.71802 1.19613 7.82219 1.96175 6.04093C2.73779 4.26489 3.92008 2.82739 5.50342 1.72843C7.09717 0.61906 9.05029 0.0617676 11.3576 0.0617676C14.368 0.0617676 16.7795 1.07218 18.5868 3.0826C20.3888 5.09823 21.2951 7.99406 21.2951 11.7701V12.8118H4.48258V13.1034C4.48258 14.3534 4.76384 15.5357 5.33675 16.6451C5.90446 17.7597 6.70133 18.6555 7.73258 19.3326C8.75863 20.0149 9.94092 20.3534 11.2743 20.3534C12.717 20.3534 13.967 19.9889 15.0243 19.2493C16.0763 18.5149 16.8628 17.5149 17.3784 16.2493H21.0034C20.4045 18.3066 19.2847 20.0149 17.6493 21.3743C16.0086 22.7389 13.8993 23.4159 11.3159 23.4159ZM17.6701 10.2076C17.5555 7.65552 16.9305 5.80656 15.7951 4.66593C14.6545 3.53052 13.1597 2.9576 11.3159 2.9576C9.30029 2.9576 7.69613 3.62427 6.50342 4.9576C5.3055 6.29093 4.67008 8.04093 4.58675 10.2076H17.6701Z" fill="black"/>
</svg>
