<svg width="17" height="19" viewBox="0 0 17 19" fill="none" xmlns="http://www.w3.org/2000/svg">
<path d="M8.89421 18.4714C7.18587 18.4714 5.73275 18.0651 4.54004 17.2422C3.35775 16.4089 2.46712 15.3255 1.87337 13.9922C1.27441 12.6589 0.977539 11.2318 0.977539 9.70052C0.977539 8.15885 1.27441 6.72135 1.87337 5.38802C2.46712 4.05469 3.35775 2.98177 4.54004 2.15885C5.73275 1.34115 7.18587 0.929688 8.89421 0.929688C10.6025 0.929688 12.0452 1.34115 13.2275 2.15885C14.4046 2.98177 15.29 4.0651 15.8734 5.40885C16.4671 6.75781 16.7692 8.1901 16.7692 9.70052C16.7692 11.2161 16.4671 12.6484 15.8734 13.9922C15.2744 15.3255 14.3786 16.4089 13.1859 17.2422C12.0036 18.0651 10.5713 18.4714 8.89421 18.4714ZM8.89421 16.0964C9.93587 16.0964 10.8421 15.8151 11.6234 15.2422C12.3994 14.6589 12.988 13.8828 13.3942 12.9089C13.7952 11.9401 13.9984 10.8568 13.9984 9.65885C13.9984 7.82552 13.54 6.30469 12.6234 5.09635C11.7067 3.8776 10.4619 3.26302 8.89421 3.26302C7.82129 3.26302 6.89941 3.55469 6.12337 4.13802C5.34212 4.71094 4.74837 5.48177 4.33171 6.45052C3.92546 7.42448 3.72754 8.49219 3.72754 9.65885C3.72754 11.4922 4.18587 13.0286 5.10254 14.263C6.02962 15.487 7.29525 16.0964 8.89421 16.0964Z" fill="black"/>
</svg>
