<svg width="22" height="33" viewBox="0 0 22 33" fill="none" xmlns="http://www.w3.org/2000/svg">
<path d="M9.50122 32.4159C7.50122 32.4159 5.7981 31.9106 4.39705 30.895C2.9908 29.869 1.91789 28.4731 1.16789 26.7075C0.428305 24.9471 0.0637207 22.9523 0.0637207 20.7284C0.0637207 18.494 0.428305 16.494 1.16789 14.7284C1.91789 12.9679 3.00122 11.5825 4.41789 10.5825C5.83455 9.5721 7.5533 9.06169 9.58455 9.06169C11.5689 9.06169 13.1783 9.54085 14.4179 10.4992C15.6523 11.4471 16.5689 12.5565 17.1679 13.8325H17.5221V0.14502H21.1887V32.1242H17.5221V27.52H17.1679C16.4856 28.8846 15.5273 30.0409 14.2929 30.9992C13.0533 31.9471 11.4596 32.4159 9.50122 32.4159ZM10.6054 29.27C12.8241 29.27 14.5116 28.4523 15.6679 26.8117C16.8346 25.1763 17.4179 23.145 17.4179 20.7284C17.4179 18.3117 16.8346 16.3013 15.6679 14.6867C14.5116 13.0617 12.8241 12.2492 10.6054 12.2492C8.35539 12.2492 6.65747 13.0617 5.52205 14.6867C4.38143 16.3013 3.81372 18.3117 3.81372 20.7284C3.81372 23.1763 4.38664 25.2075 5.54289 26.8325C6.69393 28.4575 8.38143 29.27 10.6054 29.27Z" fill="black"/>
</svg>
