<svg width="21" height="24" viewBox="0 0 21 24" fill="none" xmlns="http://www.w3.org/2000/svg">
<path d="M20.3924 23.1269H16.6632V18.856H16.4132C15.8143 20.1633 14.8976 21.2675 13.6632 22.1685C12.4237 23.0592 10.9132 23.5019 9.12158 23.5019C7.24658 23.5019 5.68408 23.054 4.43408 22.1477C3.18408 21.231 2.26742 20.054 1.68408 18.606C1.10075 17.1477 0.809082 15.5748 0.809082 13.8769V0.647705H4.47575V13.3977C4.47575 15.5956 5.02262 17.2831 6.12158 18.4602C7.23096 19.6425 8.68408 20.231 10.4757 20.231C12.3612 20.231 13.8612 19.6008 14.9757 18.3352C16.1007 17.0592 16.6632 15.4133 16.6632 13.3977V0.647705H20.3924V23.1269Z" fill="#690061"/>
</svg>
