<svg width="11" height="25" viewBox="0 0 11 25" fill="none" xmlns="http://www.w3.org/2000/svg">
<path d="M6.51123 8.81869V19.4229C6.51123 20.2874 6.5529 20.9176 6.63623 21.3187C6.71956 21.7249 6.93831 22.0426 7.3029 22.277C7.66227 22.501 8.24561 22.6104 9.0529 22.6104C9.60498 22.6104 10.2039 22.5374 10.8446 22.3812V24.527C10.6883 24.5999 10.3446 24.6676 9.8029 24.7354C9.26123 24.8031 8.69873 24.8395 8.1154 24.8395C6.76644 24.8395 5.76644 24.652 5.1154 24.277C4.45915 23.8916 4.03206 23.3708 3.82373 22.7145C3.62581 22.0479 3.53206 21.1729 3.53206 20.0895V8.81869H0.13623V6.42285H3.53206V0.422852H6.51123V6.42285H10.8446V8.81869H6.51123Z" fill="#690061"/>
</svg>
