<svg width="11" height="15" viewBox="0 0 11 15" fill="none" xmlns="http://www.w3.org/2000/svg">
<path d="M5.83382 14.2771C5.00049 14.2771 4.23486 14.1729 3.54216 13.9646C2.84424 13.7458 2.2557 13.4437 1.77132 13.0687C1.28174 12.6833 0.943196 12.251 0.750488 11.7771L1.87549 10.5896H2.12549C2.55257 11.2302 3.0682 11.7146 3.66716 12.0479C4.27653 12.3812 5.00049 12.5479 5.83382 12.5479C6.79216 12.5479 7.52132 12.3604 8.02132 11.9854C8.53174 11.6104 8.79216 11.0844 8.79216 10.4021C8.79216 9.89164 8.63591 9.46456 8.33382 9.13123C8.02653 8.79789 7.53174 8.54789 6.85466 8.38123L4.64632 7.83956C3.46403 7.54789 2.60466 7.09998 2.06299 6.48539C1.52132 5.86039 1.25049 5.09998 1.25049 4.19373C1.25049 3.47498 1.42757 2.85518 1.79216 2.33956C2.15153 1.81352 2.67236 1.41247 3.35466 1.13123C4.04736 0.839559 4.85986 0.693726 5.79216 0.693726C7.00049 0.693726 7.9484 0.860392 8.64632 1.19373C9.33903 1.52706 9.8807 1.99581 10.2713 2.58956L9.16716 3.67289H8.93799C8.52132 3.18852 8.06299 2.83956 7.56299 2.63123C7.06299 2.41247 6.46924 2.29789 5.79216 2.29789C4.92757 2.29789 4.27132 2.45414 3.81299 2.75623C3.35466 3.06352 3.12549 3.51664 3.12549 4.11039C3.12549 4.64164 3.28174 5.06873 3.60466 5.40206C3.93799 5.72498 4.5057 5.98018 5.31299 6.17289L7.47966 6.69373C8.61507 6.95935 9.43799 7.40206 9.93799 8.02706C10.4484 8.65206 10.7088 9.43852 10.7088 10.3812C10.7088 11.1469 10.5265 11.8291 10.1672 12.4229C9.80257 13.0062 9.2557 13.4646 8.52132 13.7979C7.78174 14.1156 6.88591 14.2771 5.83382 14.2771Z" fill="black"/>
</svg>
