<svg width="21" height="32" viewBox="0 0 21 32" fill="none" xmlns="http://www.w3.org/2000/svg">
<path d="M10.311 26.2284C9.85262 27.3117 9.41512 28.1971 8.99845 28.895C8.5922 29.6034 7.92033 30.27 6.97762 30.895C6.0297 31.52 4.81095 31.8325 3.31095 31.8325C2.51929 31.8325 1.66512 31.7127 0.748454 31.4784V28.7492C1.42554 28.8586 2.0245 28.9159 2.54012 28.9159C3.48283 28.9159 4.23804 28.7336 4.81095 28.3742C5.37866 28.0252 5.82137 27.5669 6.14429 26.9992C6.47762 26.4263 6.86304 25.6086 7.31095 24.5409L8.35262 22.02L0.0192871 0.64502H3.87345L10.1443 17.9575H10.3943L16.9568 0.64502H20.7901L10.311 26.2284Z" fill="black"/>
</svg>
