<svg width="16" height="25" viewBox="0 0 16 25" fill="none" xmlns="http://www.w3.org/2000/svg">
<path d="M8.42171 24.9922C7.78109 24.9922 7.26025 24.9505 6.85921 24.8672C6.46859 24.7839 6.07275 24.6641 5.67171 24.513V22.2005C5.94775 22.2943 6.31755 22.3776 6.77588 22.4505C7.24463 22.5182 7.70296 22.5547 8.15088 22.5547C9.81755 22.5547 11.0728 22.0807 11.9217 21.138C12.7655 20.2057 13.1925 18.9609 13.1925 17.4089V14.3672H12.9217C12.4738 15.3672 11.755 16.2161 10.755 16.9089C9.76546 17.6068 8.57275 17.9505 7.17171 17.9505C5.75505 17.9505 4.51025 17.5911 3.44255 16.8672C2.38525 16.1484 1.55713 15.138 0.963379 13.8464C0.380046 12.5547 0.0883789 11.0755 0.0883789 9.40885C0.0883789 7.74219 0.380046 6.26302 0.963379 4.97135C1.55713 3.67969 2.38525 2.67448 3.44255 1.95052C4.51025 1.23177 5.75505 0.867188 7.17171 0.867188C8.64046 0.867188 9.86963 1.2526 10.8592 2.01302C11.8592 2.76302 12.5571 3.63802 12.9634 4.63802H13.1925V1.40885H15.9634V17.4089C15.9634 18.6016 15.7186 19.7734 15.2342 20.9297C14.7603 22.0807 13.953 23.0443 12.8175 23.8255C11.6925 24.6016 10.2238 24.9922 8.42171 24.9922ZM8.06755 15.5964C9.15088 15.5964 10.0728 15.3047 10.8384 14.7214C11.6144 14.1276 12.1821 13.3568 12.5467 12.4089C12.9217 11.4505 13.1092 10.4297 13.1092 9.34635C13.1092 8.27865 12.9217 7.28385 12.5467 6.36719C12.1821 5.45052 11.6196 4.71094 10.8592 4.13802C10.1092 3.55469 9.17692 3.26302 8.06755 3.26302C6.42692 3.26302 5.17171 3.86198 4.29671 5.05469C3.43213 6.23698 3.00505 7.66927 3.00505 9.34635C3.00505 10.4609 3.19255 11.4922 3.56755 12.4505C3.94255 13.3984 4.50505 14.1589 5.25505 14.7422C6.01546 15.3151 6.95296 15.5964 8.06755 15.5964Z" fill="black"/>
</svg>
