<svg width="83" height="86" viewBox="0 0 83 86" fill="none" xmlns="http://www.w3.org/2000/svg">
<path d="M0.960693 85.4874V0.904053H36.8565C45.9503 0.904053 53.9034 2.66447 60.7107 6.17489C67.5128 9.67489 72.8149 14.6072 76.6065 20.9666C80.3982 27.3311 82.294 34.7374 82.294 43.1957C82.294 51.6541 80.3982 59.0655 76.6065 65.4249C72.8149 71.7895 67.5128 76.727 60.7107 80.2374C53.9034 83.7374 45.9503 85.4874 36.8565 85.4874H0.960693ZM25.3774 63.6124H36.1274C42.5701 63.6124 47.7211 61.7686 51.5857 58.0707C55.4607 54.3624 57.3982 49.4041 57.3982 43.1957C57.3982 36.9874 55.4607 32.0395 51.5857 28.3416C47.7211 24.6332 42.5701 22.7791 36.1274 22.7791H25.3774V63.6124Z" fill="#690061"/>
</svg>
