<svg width="19" height="24" viewBox="0 0 19 24" fill="none" xmlns="http://www.w3.org/2000/svg">
<path d="M0.560547 0.846375H8.74805C10.7585 0.846375 12.5189 1.2995 14.0189 2.20054C15.5189 3.10679 16.6751 4.39846 17.498 6.07554C18.3314 7.75783 18.748 9.737 18.748 12.013C18.748 14.2943 18.3314 16.2787 17.498 17.9714C16.6751 19.6693 15.5085 20.9714 13.998 21.888C12.4824 22.7943 10.7272 23.2422 8.72721 23.2422H0.560547V0.846375ZM8.33138 20.6797C10.5918 20.6797 12.4043 19.9453 13.7689 18.4714C15.1439 16.987 15.8314 14.836 15.8314 12.013C15.8314 9.19533 15.1491 7.0495 13.7897 5.57554C12.4408 4.09117 10.623 3.34637 8.33138 3.34637H3.24805V20.6797H8.33138Z" fill="black"/>
</svg>
