<svg width="16" height="19" viewBox="0 0 16 19" fill="none" xmlns="http://www.w3.org/2000/svg">
<path d="M7.97624 18.4714C6.2679 18.4714 4.81478 18.0651 3.62207 17.2422C2.43978 16.4089 1.54915 15.3255 0.955404 13.9922C0.356445 12.6589 0.0595703 11.2318 0.0595703 9.70052C0.0595703 8.15885 0.356445 6.72135 0.955404 5.38802C1.54915 4.05469 2.43978 2.98177 3.62207 2.15885C4.81478 1.34115 6.2679 0.929688 7.97624 0.929688C9.68457 0.929688 11.1273 1.34115 12.3096 2.15885C13.4867 2.98177 14.3721 4.0651 14.9554 5.40885C15.5492 6.75781 15.8512 8.1901 15.8512 9.70052C15.8512 11.2161 15.5492 12.6484 14.9554 13.9922C14.3564 15.3255 13.4606 16.4089 12.2679 17.2422C11.0856 18.0651 9.65332 18.4714 7.97624 18.4714ZM7.97624 16.0964C9.0179 16.0964 9.92415 15.8151 10.7054 15.2422C11.4814 14.6589 12.07 13.8828 12.4762 12.9089C12.8773 11.9401 13.0804 10.8568 13.0804 9.65885C13.0804 7.82552 12.6221 6.30469 11.7054 5.09635C10.7887 3.8776 9.54395 3.26302 7.97624 3.26302C6.90332 3.26302 5.98145 3.55469 5.2054 4.13802C4.42415 4.71094 3.8304 5.48177 3.41374 6.45052C3.00749 7.42448 2.80957 8.49219 2.80957 9.65885C2.80957 11.4922 3.2679 13.0286 4.18457 14.263C5.11165 15.487 6.37728 16.0964 7.97624 16.0964Z" fill="black"/>
</svg>
