<svg width="23" height="34" viewBox="0 0 23 34" fill="none" xmlns="http://www.w3.org/2000/svg">
<path d="M11.9613 33.1242C11.0968 33.1242 10.4041 33.067 9.87801 32.9576C9.34676 32.843 8.82072 32.6867 8.29468 32.4784V29.4159C8.65405 29.5253 9.14884 29.6295 9.77384 29.7284C10.3988 29.8222 11.0082 29.8742 11.6072 29.8742C13.8259 29.8742 15.503 29.2492 16.628 27.9992C17.753 26.7492 18.3155 25.0878 18.3155 23.0201V18.9576H17.9613C17.3624 20.3065 16.4041 21.4472 15.0863 22.3742C13.7634 23.2909 12.1697 23.7492 10.2947 23.7492C8.41968 23.7492 6.76343 23.2649 5.33634 22.2909C3.91968 21.3222 2.81551 19.9784 2.02384 18.2701C1.24259 16.5513 0.857178 14.5774 0.857178 12.3534C0.857178 10.1347 1.24259 8.16591 2.02384 6.45758C2.81551 4.73883 3.91968 3.38987 5.33634 2.41591C6.76343 1.44716 8.41968 0.957581 10.2947 0.957581C12.253 0.957581 13.8884 1.468 15.2113 2.47841C16.5291 3.49404 17.4613 4.66591 18.003 5.99925H18.3155V1.68675H22.0238V23.0201C22.0238 24.6034 21.7009 26.1555 21.0655 27.6867C20.4249 29.2284 19.3468 30.5201 17.8363 31.5617C16.3363 32.6034 14.378 33.1242 11.9613 33.1242ZM11.4822 20.5826C12.9249 20.5826 14.1593 20.1972 15.1905 19.4159C16.2166 18.6399 16.9822 17.619 17.4822 16.3534C17.9822 15.0774 18.2322 13.718 18.2322 12.2701C18.2322 10.8534 17.9822 9.53571 17.4822 8.31175C16.9822 7.093 16.2218 6.09821 15.2113 5.33258C14.2113 4.55654 12.9666 4.16591 11.4822 4.16591C9.28426 4.16591 7.61239 4.95758 6.46134 6.54091C5.32072 8.11383 4.75301 10.0201 4.75301 12.2701C4.75301 13.744 4.99259 15.119 5.48218 16.3951C5.98218 17.6607 6.73739 18.6763 7.75301 19.4367C8.76343 20.2024 10.0082 20.5826 11.4822 20.5826Z" fill="black"/>
</svg>
