<svg width="28" height="35" viewBox="0 0 28 35" fill="none" xmlns="http://www.w3.org/2000/svg">
<path d="M12.7553 34.0749C10.4063 34.0749 8.323 33.5436 6.50529 32.4915C4.698 31.4395 3.28133 29.9811 2.25529 28.1165C1.22404 26.2415 0.713623 24.0697 0.713623 21.5957C0.713623 19.153 1.22404 17.002 2.25529 15.1374C3.28133 13.2624 4.698 11.7988 6.50529 10.7415C8.323 9.68945 10.4063 9.1582 12.7553 9.1582C15.2813 9.1582 17.5105 9.7832 19.4428 11.0332V0.408203H28.0053V33.4082H21.8595L21.0053 31.054C19.9636 32.002 18.7397 32.7415 17.3386 33.2832C15.948 33.8092 14.422 34.0749 12.7553 34.0749ZM9.10946 21.5957C9.10946 23.1686 9.59904 24.4603 10.5886 25.4707C11.5886 26.4863 12.8699 26.9915 14.4428 26.9915C16.0261 26.9915 17.3022 26.4863 18.2761 25.4707C19.2605 24.4603 19.7553 23.1686 19.7553 21.5957C19.7553 20.0124 19.2605 18.7311 18.2761 17.7415C17.3022 16.7415 16.0261 16.2415 14.4428 16.2415C12.8699 16.2415 11.5886 16.7415 10.5886 17.7415C9.59904 18.7311 9.10946 20.0124 9.10946 21.5957Z" fill="#690061"/>
</svg>
