<svg width="18" height="20" viewBox="0 0 18 20" fill="none" xmlns="http://www.w3.org/2000/svg">
<path d="M9.28735 19.4932C7.4384 19.4932 5.87069 19.0505 4.57902 18.1598C3.29777 17.2744 2.33423 16.1077 1.68319 14.6598C1.04256 13.2171 0.724854 11.6598 0.724854 9.99316C0.724854 8.3265 1.04256 6.77442 1.68319 5.3265C2.33423 3.88379 3.29777 2.71712 4.57902 1.8265C5.87069 0.941081 7.4384 0.493164 9.28735 0.493164C11.1311 0.493164 12.6936 0.941081 13.9749 1.8265C15.2665 2.71712 16.2249 3.889 16.8499 5.34733C17.4853 6.80566 17.8082 8.35775 17.8082 9.99316C17.8082 11.6338 17.4801 13.1807 16.829 14.639C16.1884 16.0973 15.2249 17.2744 13.9332 18.1598C12.6519 19.0505 11.1051 19.4932 9.28735 19.4932ZM9.28735 16.9307C10.4124 16.9307 11.3967 16.6182 12.2457 15.9932C13.0894 15.3682 13.7301 14.5296 14.1624 13.4723C14.6051 12.4202 14.829 11.2432 14.829 9.9515C14.829 7.96712 14.329 6.31608 13.329 4.99316C12.3394 3.67546 10.9957 3.014 9.28735 3.014C8.1311 3.014 7.1311 3.3265 6.28735 3.9515C5.4384 4.5765 4.79256 5.42025 4.34985 6.47233C3.91756 7.52962 3.70402 8.69108 3.70402 9.9515C3.70402 11.9411 4.1936 13.5973 5.18319 14.9307C6.18319 16.264 7.54777 16.9307 9.28735 16.9307Z" fill="black"/>
</svg>
