<svg width="28" height="27" viewBox="0 0 28 27" fill="none" xmlns="http://www.w3.org/2000/svg">
<path d="M14.0037 26.0698C11.3058 26.0698 8.92558 25.5281 6.85787 24.4448C4.80058 23.3615 3.1912 21.8562 2.02454 19.924C0.85787 17.9969 0.274536 15.7573 0.274536 13.2156C0.274536 10.6896 0.85787 8.46562 2.02454 6.54895C3.1912 4.63228 4.80579 3.13228 6.8787 2.04895C8.96204 0.965617 11.3475 0.42395 14.0454 0.42395C16.9464 0.42395 19.4464 1.04374 21.5454 2.27812C23.6391 3.5177 25.2329 5.25728 26.3162 7.50728C27.3995 9.75728 27.8631 12.3979 27.712 15.424H9.0037C9.33704 16.7469 9.97245 17.7469 10.9204 18.424C11.8631 19.0906 12.9464 19.424 14.1704 19.424C15.1287 19.424 16.0037 19.2573 16.7954 18.924C17.587 18.5802 18.2225 18.1115 18.712 17.5281H27.2537C26.1808 20.226 24.4881 22.3198 22.1704 23.8198C19.8631 25.3198 17.1391 26.0698 14.0037 26.0698ZM9.04537 10.6531H19.3162C18.9516 9.52812 18.337 8.64791 17.462 8.00728C16.587 7.35624 15.4725 7.02812 14.1287 7.02812C12.9047 7.02812 11.8422 7.34062 10.9412 7.96562C10.035 8.59062 9.40474 9.48645 9.04537 10.6531Z" fill="#690061"/>
</svg>
