<svg width="12" height="15" viewBox="0 0 12 15" fill="none" xmlns="http://www.w3.org/2000/svg">
<path d="M11.1779 8.12309H2.1779C2.22998 9.72205 2.6154 10.8939 3.32373 11.6439C4.03206 12.3835 5.00081 12.7481 6.2404 12.7481C7.16748 12.7481 7.91748 12.5814 8.4904 12.2481C9.05811 11.9148 9.50081 11.3939 9.82373 10.6856H10.0737L11.3446 11.4356C10.9696 12.3835 10.355 13.1231 9.51123 13.6648C8.6779 14.2064 7.58415 14.4773 6.2404 14.4773C4.97477 14.4773 3.88623 14.2273 2.96956 13.7273C2.06331 13.2273 1.3654 12.472 0.865397 11.4564C0.375813 10.446 0.13623 9.18559 0.13623 7.68559C0.13623 6.20121 0.391438 4.95121 0.907064 3.93559C1.43311 2.90955 2.14144 2.14392 3.03206 1.64392C3.93311 1.14392 4.95915 0.893921 6.1154 0.893921C7.79248 0.893921 9.10498 1.36788 10.0529 2.31059C10.9956 3.2585 11.4696 4.65955 11.4696 6.51892C11.4696 7.24288 11.4539 7.72725 11.4279 7.97725L11.1779 8.12309ZM9.5529 6.51892C9.52165 5.11788 9.21956 4.10225 8.63623 3.47725C8.0529 2.84184 7.20915 2.51892 6.1154 2.51892C4.97477 2.51892 4.07373 2.84184 3.40706 3.47725C2.75081 4.11788 2.35498 5.1335 2.21956 6.51892H9.5529Z" fill="black"/>
</svg>
