<svg width="12" height="14" viewBox="0 0 12 14" fill="none" xmlns="http://www.w3.org/2000/svg">
<path d="M6.00651 13.0254C4.79818 13.0254 3.76693 12.7337 2.92318 12.1504C2.08984 11.5671 1.45443 10.8066 1.02734 9.85872C0.610677 8.91602 0.402344 7.90039 0.402344 6.81706C0.402344 5.72331 0.610677 4.70247 1.02734 3.75456C1.45443 2.81185 2.08984 2.04622 2.92318 1.46289C3.76693 0.879557 4.79818 0.587891 6.00651 0.587891C7.21484 0.587891 8.23568 0.879557 9.06901 1.46289C9.91276 2.04622 10.5482 2.81706 10.9648 3.77539C11.3815 4.72331 11.5898 5.73372 11.5898 6.81706C11.5898 7.88997 11.3711 8.90039 10.944 9.85872C10.5273 10.8066 9.89193 11.5671 9.04818 12.1504C8.21484 12.7337 7.19922 13.0254 6.00651 13.0254ZM6.00651 11.3379C6.75651 11.3379 7.40234 11.14 7.94401 10.7337C8.49609 10.3171 8.91276 9.77018 9.19401 9.08789C9.48568 8.39518 9.63151 7.62435 9.63151 6.77539C9.63151 5.48372 9.30339 4.41081 8.65234 3.54622C8.01172 2.68685 7.13151 2.25456 6.00651 2.25456C5.25651 2.25456 4.60026 2.46289 4.04818 2.87956C3.49089 3.28581 3.06901 3.83268 2.77734 4.52539C2.49609 5.20768 2.36068 5.95768 2.36068 6.77539C2.36068 8.08268 2.68359 9.17122 3.33984 10.0462C3.99089 10.9108 4.88151 11.3379 6.00651 11.3379Z" fill="black"/>
</svg>
