<svg width="16" height="19" viewBox="0 0 16 19" fill="none" xmlns="http://www.w3.org/2000/svg">
<path d="M7.97705 18.4714C6.25309 18.4714 4.79476 18.0547 3.60205 17.2214C2.41976 16.388 1.53955 15.2995 0.956217 13.9505C0.383301 12.6068 0.102051 11.1901 0.102051 9.70052C0.102051 8.1901 0.383301 6.76302 0.956217 5.42969C1.53955 4.09635 2.42497 3.01302 3.62288 2.17969C4.81559 1.34635 6.27913 0.929688 8.01872 0.929688C10.2791 0.929688 12.0864 1.6901 13.4354 3.20052C14.7948 4.71615 15.4771 6.88802 15.4771 9.72135V10.4922H2.85205V10.7214C2.85205 11.6693 3.06559 12.5547 3.49788 13.388C3.92497 14.2109 4.52393 14.8776 5.28955 15.388C6.04997 15.9036 6.94059 16.1589 7.95622 16.1589C9.03955 16.1589 9.97705 15.8828 10.7687 15.3255C11.5604 14.7734 12.1437 14.0286 12.5187 13.0964H15.2479C14.8 14.6276 13.9614 15.9036 12.7271 16.9297C11.5031 17.9609 9.91976 18.4714 7.97705 18.4714ZM12.7479 8.55469C12.6646 6.6276 12.1906 5.23698 11.3312 4.38802C10.4823 3.52865 9.36247 3.09635 7.97705 3.09635C6.46143 3.09635 5.25309 3.60677 4.35205 4.61719C3.46143 5.61719 2.98747 6.92969 2.93538 8.55469H12.7479Z" fill="black"/>
</svg>
