<svg width="16" height="19" viewBox="0 0 16 19" fill="none" xmlns="http://www.w3.org/2000/svg">
<path d="M8.19727 18.4714C6.47331 18.4714 5.01497 18.0547 3.82227 17.2214C2.63997 16.388 1.75977 15.2995 1.17643 13.9505C0.603516 12.6068 0.322266 11.1901 0.322266 9.70052C0.322266 8.1901 0.603516 6.76302 1.17643 5.42969C1.75977 4.09635 2.64518 3.01302 3.8431 2.17969C5.03581 1.34635 6.49935 0.929688 8.23893 0.929688C10.4993 0.929688 12.3066 1.6901 13.6556 3.20052C15.015 4.71615 15.6973 6.88802 15.6973 9.72135V10.4922H3.07227V10.7214C3.07227 11.6693 3.28581 12.5547 3.7181 13.388C4.14518 14.2109 4.74414 14.8776 5.50977 15.388C6.27018 15.9036 7.16081 16.1589 8.17643 16.1589C9.25977 16.1589 10.1973 15.8828 10.9889 15.3255C11.7806 14.7734 12.3639 14.0286 12.7389 13.0964H15.4681C15.0202 14.6276 14.1816 15.9036 12.9473 16.9297C11.7233 17.9609 10.14 18.4714 8.19727 18.4714ZM12.9681 8.55469C12.8848 6.6276 12.4108 5.23698 11.5514 4.38802C10.7025 3.52865 9.58268 3.09635 8.19727 3.09635C6.68164 3.09635 5.47331 3.60677 4.57227 4.61719C3.68164 5.61719 3.20768 6.92969 3.1556 8.55469H12.9681Z" fill="black"/>
</svg>
