<svg width="21" height="24" viewBox="0 0 21 24" fill="none" xmlns="http://www.w3.org/2000/svg">
<path d="M0.925293 0.645101H4.59196V4.7076H4.92529C5.493 3.40552 6.41488 2.30656 7.69613 1.41593C8.97217 0.514893 10.5347 0.0617676 12.3836 0.0617676C14.2847 0.0617676 15.8732 0.514893 17.1545 1.41593C18.4461 2.30656 19.394 3.47843 20.0086 4.93677C20.618 6.3951 20.9253 7.97843 20.9253 9.68677V23.1243H17.2586V10.1659C17.2586 7.94719 16.6805 6.24927 15.5295 5.0826C14.3732 3.91593 12.8732 3.3326 11.0295 3.3326C9.0555 3.3326 7.48779 3.96802 6.32113 5.22843C5.16488 6.49406 4.59196 8.13989 4.59196 10.1659V23.1243H0.925293V0.645101Z" fill="black"/>
</svg>
