<svg width="15" height="20" viewBox="0 0 15 20" fill="none" xmlns="http://www.w3.org/2000/svg">
<path d="M7.6766 19.8914C6.22868 19.8914 4.9943 19.5946 3.96826 18.9956C2.95264 18.4019 2.18701 17.6362 1.6766 16.7039C1.16097 15.7612 0.905762 14.7769 0.905762 13.7456V13.5998H3.4266V13.7456C3.4266 14.3602 3.57243 14.9748 3.8641 15.5998C4.15576 16.2248 4.6193 16.7456 5.25993 17.1623C5.91097 17.5789 6.72868 17.7873 7.71826 17.7873C8.89534 17.7873 9.8693 17.4904 10.6349 16.8914C11.3953 16.2821 11.7808 15.4644 11.7808 14.4331C11.7808 13.5737 11.4943 12.8914 10.9266 12.3914C10.3693 11.881 9.65576 11.5373 8.78076 11.3706L6.07243 10.8498C2.94743 10.1571 1.38493 8.51644 1.38493 5.93311C1.38493 4.8654 1.64014 3.93311 2.15576 3.14144C2.66618 2.33936 3.38493 1.71956 4.3016 1.28727C5.21826 0.844564 6.28076 0.620605 7.4891 0.620605C8.84847 0.620605 10.0151 0.901855 10.9891 1.45394C11.9735 1.99561 12.7183 2.71436 13.2183 3.59977C13.7183 4.47477 13.9683 5.38623 13.9683 6.32894V6.43311H11.4266V6.34977C11.4266 5.82373 11.2912 5.28206 11.0308 4.72477C10.7808 4.15706 10.3537 3.67269 9.75993 3.26644C9.16097 2.84977 8.37451 2.64144 7.40576 2.64144C6.28076 2.64144 5.38493 2.95394 4.71826 3.57894C4.0516 4.20394 3.71826 4.97477 3.71826 5.89144C3.71826 6.68311 3.97347 7.32894 4.4891 7.82894C4.99951 8.31852 5.70264 8.65186 6.59326 8.82894L9.0516 9.30811C12.4787 10.006 14.1974 11.6831 14.1974 14.3498C14.1974 15.4331 13.9266 16.3914 13.3849 17.2248C12.8433 18.0581 12.0724 18.7144 11.0724 19.1831C10.0828 19.6571 8.95264 19.8914 7.6766 19.8914Z" fill="black"/>
</svg>
