<svg width="13" height="15" viewBox="0 0 13 15" fill="none" xmlns="http://www.w3.org/2000/svg">
<path d="M6.46663 14.2771C5.22705 14.2771 4.15413 14.0219 3.23747 13.5062C2.3208 12.9802 1.61247 12.2094 1.11247 11.1937C0.622883 10.1677 0.383301 8.93331 0.383301 7.48539C0.383301 6.04268 0.622883 4.81352 1.11247 3.79789C1.61247 2.77185 2.3208 2.00102 3.23747 1.48539C4.15413 0.959351 5.22705 0.693726 6.46663 0.693726C7.70101 0.693726 8.76872 0.959351 9.67497 1.48539C10.5916 2.00102 11.2896 2.77185 11.7791 3.79789C12.2791 4.81352 12.5291 6.04268 12.5291 7.48539C12.5291 8.93331 12.2791 10.1677 11.7791 11.1937C11.2896 12.2094 10.5916 12.9802 9.67497 13.5062C8.76872 14.0219 7.70101 14.2771 6.46663 14.2771ZM6.46663 12.5479C7.76872 12.5479 8.76351 12.1416 9.4458 11.3187C10.1385 10.4854 10.4875 9.20935 10.4875 7.48539C10.4875 5.75102 10.1385 4.47498 9.4458 3.65206C8.76351 2.83435 7.76872 2.42289 6.46663 2.42289C5.15934 2.42289 4.15413 2.83956 3.4458 3.67289C2.74788 4.49581 2.40413 5.76664 2.40413 7.48539C2.40413 9.20935 2.74788 10.4854 3.4458 11.3187C4.15413 12.1416 5.15934 12.5479 6.46663 12.5479Z" fill="black"/>
</svg>
