<svg width="11" height="15" viewBox="0 0 11 15" fill="none" xmlns="http://www.w3.org/2000/svg">
<path d="M5.4056 14.4773C4.57227 14.4773 3.80664 14.3731 3.11393 14.1648C2.41602 13.946 1.82747 13.6439 1.3431 13.2689C0.853515 12.8835 0.514974 12.4512 0.322266 11.9773L1.44727 10.7898H1.69727C2.12435 11.4304 2.63997 11.9148 3.23893 12.2481C3.84831 12.5814 4.57227 12.7481 5.4056 12.7481C6.36393 12.7481 7.0931 12.5606 7.5931 12.1856C8.10352 11.8106 8.36393 11.2845 8.36393 10.6023C8.36393 10.0918 8.20768 9.66475 7.9056 9.33142C7.59831 8.99809 7.10352 8.74809 6.42643 8.58142L4.2181 8.03975C3.03581 7.74809 2.17643 7.30017 1.63477 6.68559C1.0931 6.06059 0.822266 5.30017 0.822266 4.39392C0.822266 3.67517 0.99935 3.05538 1.36393 2.53975C1.72331 2.01371 2.24414 1.61267 2.92643 1.33142C3.61914 1.03975 4.43164 0.893921 5.36393 0.893921C6.57227 0.893921 7.52018 1.06059 8.2181 1.39392C8.91081 1.72725 9.45247 2.196 9.8431 2.78975L8.73893 3.87309H8.50977C8.0931 3.38871 7.63477 3.03975 7.13477 2.83142C6.63477 2.61267 6.04102 2.49809 5.36393 2.49809C4.49935 2.49809 3.8431 2.65434 3.38477 2.95642C2.92643 3.26371 2.69727 3.71684 2.69727 4.31059C2.69727 4.84184 2.85351 5.26892 3.17643 5.60225C3.50977 5.92517 4.07747 6.18038 4.88477 6.37309L7.05143 6.89392C8.18685 7.15955 9.00977 7.60225 9.50977 8.22725C10.0202 8.85225 10.2806 9.63871 10.2806 10.5814C10.2806 11.347 10.0983 12.0293 9.73893 12.6231C9.37435 13.2064 8.82747 13.6648 8.0931 13.9981C7.35352 14.3158 6.45768 14.4773 5.4056 14.4773Z" fill="black"/>
</svg>
