<svg width="50" height="31" viewBox="0 0 50 31" fill="none" xmlns="http://www.w3.org/2000/svg">
<path d="M0.173828 30.4351V1.06014H7.81966L8.88216 3.95597C11.0592 1.4716 14.0176 0.226807 17.7572 0.226807C21.8665 0.226807 25.0124 1.74764 27.1947 4.78931C28.3457 3.3466 29.7988 2.22681 31.5488 1.43514C33.3092 0.633057 35.304 0.226807 37.528 0.226807C41.2624 0.226807 44.2467 1.38827 46.4863 3.70597C48.7363 6.01327 49.8613 9.15389 49.8613 13.1226V30.4351H39.1947V14.1643C39.1947 12.581 38.804 11.3414 38.028 10.4351C37.2467 9.51847 36.179 9.06014 34.8197 9.06014C33.403 9.06014 32.2832 9.52889 31.4655 10.456C30.6582 11.3726 30.2572 12.6435 30.2572 14.2685V30.4351H19.7572V14.1643C19.7572 12.581 19.3665 11.3414 18.5905 10.4351C17.8092 9.51847 16.7415 9.06014 15.3822 9.06014C13.9655 9.06014 12.8457 9.52889 12.028 10.456C11.2207 11.3726 10.8197 12.6435 10.8197 14.2685V30.4351H0.173828Z" fill="#690061"/>
</svg>
