<svg width="22" height="31" viewBox="0 0 22 31" fill="none" xmlns="http://www.w3.org/2000/svg">
<path d="M10.7242 0.270081C13.1409 0.270081 15.12 0.759663 16.6617 1.72841C18.2138 2.68675 19.3336 3.91071 20.0159 5.39508C20.693 6.86904 21.0367 8.43154 21.0367 10.0826C21.0367 11.7388 20.693 13.2909 20.0159 14.7492C19.3336 16.2076 18.2242 17.4159 16.6825 18.3742C15.1513 19.3326 13.1669 19.8117 10.7242 19.8117H4.14087V30.1242H0.578369V0.270081H10.7242ZM10.245 16.6034C12.2971 16.6034 14.0159 16.119 15.3909 15.1451C16.7659 14.1607 17.4534 12.4732 17.4534 10.0826C17.4534 7.72321 16.7659 6.05654 15.3909 5.08258C14.0159 4.09821 12.2971 3.60341 10.245 3.60341H4.14087V16.6034H10.245Z" fill="black"/>
</svg>
