<svg width="16" height="19" viewBox="0 0 16 19" fill="none" xmlns="http://www.w3.org/2000/svg">
<path d="M8.17676 18.4714C6.4528 18.4714 4.99447 18.0547 3.80176 17.2214C2.61947 16.388 1.73926 15.2995 1.15592 13.9505C0.583008 12.6068 0.301758 11.1901 0.301758 9.70052C0.301758 8.1901 0.583008 6.76302 1.15592 5.42969C1.73926 4.09635 2.62468 3.01302 3.82259 2.17969C5.0153 1.34635 6.47884 0.929688 8.21842 0.929688C10.4788 0.929688 12.2861 1.6901 13.6351 3.20052C14.9945 4.71615 15.6768 6.88802 15.6768 9.72135V10.4922H3.05176V10.7214C3.05176 11.6693 3.2653 12.5547 3.69759 13.388C4.12468 14.2109 4.72363 14.8776 5.48926 15.388C6.24968 15.9036 7.1403 16.1589 8.15592 16.1589C9.23926 16.1589 10.1768 15.8828 10.9684 15.3255C11.7601 14.7734 12.3434 14.0286 12.7184 13.0964H15.4476C14.9997 14.6276 14.1611 15.9036 12.9268 16.9297C11.7028 17.9609 10.1195 18.4714 8.17676 18.4714ZM12.9476 8.55469C12.8643 6.6276 12.3903 5.23698 11.5309 4.38802C10.682 3.52865 9.56217 3.09635 8.17676 3.09635C6.66113 3.09635 5.4528 3.60677 4.55176 4.61719C3.66113 5.61719 3.18717 6.92969 3.13509 8.55469H12.9476Z" fill="black"/>
</svg>
