<svg width="18" height="26" viewBox="0 0 18 26" fill="none" xmlns="http://www.w3.org/2000/svg">
<path d="M9.26615 21.1203C8.90157 22.0057 8.5474 22.7297 8.20365 23.2869C7.87032 23.8547 7.31824 24.3911 6.55782 24.8911C5.80782 25.4015 4.81303 25.6619 3.57865 25.6619C2.93803 25.6619 2.25053 25.5682 1.51615 25.3911V23.1828C2.05782 23.2661 2.53699 23.3078 2.95365 23.3078C3.71407 23.3078 4.32865 23.1619 4.78699 22.8703C5.25574 22.589 5.62553 22.214 5.89115 21.7453C6.15157 21.2869 6.47449 20.6203 6.84949 19.7453L7.68282 17.7036L0.911987 0.328613H4.03699L9.14115 14.4119H9.34949L14.6828 0.328613H17.8078L9.26615 21.1203Z" fill="black"/>
</svg>
