<svg width="28" height="34" viewBox="0 0 28 34" fill="none" xmlns="http://www.w3.org/2000/svg">
<path d="M27.7593 16.423C27.7593 19.048 27.3426 21.423 26.5093 23.548C25.6864 25.6626 24.5093 27.397 22.9676 28.7564L26.9884 33.8397H23.4468L20.6759 30.298C18.827 31.2564 16.7228 31.7355 14.3634 31.7355C11.5145 31.7355 9.07178 31.0845 7.03011 29.7772C4.99886 28.4751 3.45719 26.6522 2.40511 24.3188C1.34782 21.9855 0.821777 19.3397 0.821777 16.3813C0.821777 13.423 1.35303 10.772 2.42594 8.42302C3.49365 6.07926 5.04053 4.24593 7.07178 2.92301C9.11344 1.60531 11.5405 0.943848 14.3634 0.943848C17.1395 0.943848 19.5353 1.60531 21.5509 2.92301C23.577 4.24593 25.1187 6.06885 26.1759 8.40218C27.228 10.7355 27.7593 13.4126 27.7593 16.423ZM14.3218 28.3189C15.8218 28.3189 17.1655 28.022 18.3634 27.423L12.4884 19.9647H16.0301L20.6343 25.8189C21.6759 24.7668 22.478 23.423 23.0509 21.798C23.6187 20.173 23.9051 18.3553 23.9051 16.3397C23.9051 14.0063 23.5197 11.9334 22.7593 10.1105C21.9937 8.29281 20.8843 6.87093 19.4259 5.83968C17.978 4.81364 16.2801 4.29801 14.3218 4.29801C12.3478 4.29801 10.6343 4.81885 9.17594 5.86052C7.72803 6.90218 6.62386 8.33447 5.86344 10.1522C5.09782 11.9751 4.71761 14.0376 4.71761 16.3397C4.71761 18.673 5.09782 20.7459 5.86344 22.548C6.62386 24.3553 7.72803 25.772 9.17594 26.798C10.6343 27.8136 12.3478 28.3189 14.3218 28.3189Z" fill="#690061"/>
</svg>
