<svg width="34" height="40" viewBox="0 0 34 40" fill="none" xmlns="http://www.w3.org/2000/svg">
<path d="M14.4163 0.540405C20.6663 0.540405 25.4372 2.1602 28.7288 5.39457C32.0205 8.61853 33.6663 13.4154 33.6663 19.7904C33.6663 26.1394 32.0205 30.931 28.7288 34.1654C25.4372 37.405 20.6663 39.0196 14.4163 39.0196H0.583008V0.540405H14.4163ZM13.9788 32.6237C17.9372 32.6237 20.8955 31.6133 22.8538 29.5821C24.8226 27.556 25.8122 24.2904 25.8122 19.7904C25.8122 15.28 24.8226 12.0092 22.8538 9.97791C20.8955 7.95186 17.9372 6.93624 13.9788 6.93624H8.18718V32.6237H13.9788Z" fill="black"/>
</svg>
