<svg width="14" height="19" viewBox="0 0 14 19" fill="none" xmlns="http://www.w3.org/2000/svg">
<path d="M7.61133 18.2326C6.23633 18.2326 5.04883 17.9618 4.04883 17.4201C3.04883 16.868 2.2832 16.1649 1.75716 15.3159C1.24154 14.4722 0.986328 13.5763 0.986328 12.6284V12.4618H3.73633V12.5868C3.73633 13.1284 3.88216 13.6649 4.17383 14.1909C4.47591 14.7065 4.92904 15.1284 5.528 15.4618C6.12174 15.7951 6.8457 15.9618 7.69466 15.9618C8.7207 15.9618 9.56966 15.7118 10.2363 15.2118C10.9134 14.7118 11.2572 14.0243 11.2572 13.1493C11.2572 12.4149 10.9915 11.8368 10.4655 11.4201C9.94987 10.993 9.29883 10.7118 8.50716 10.5868L6.29883 10.2534C4.9082 10.0451 3.74154 9.57634 2.79883 8.83675C1.86654 8.10238 1.40299 7.03467 1.40299 5.62842C1.40299 4.06071 1.95508 2.84717 3.06966 1.98258C4.19466 1.12321 5.63216 0.690918 7.38216 0.690918C8.68425 0.690918 9.79883 0.93571 10.7155 1.42008C11.6426 1.89404 12.3509 2.51904 12.8405 3.29508C13.3405 4.07634 13.5905 4.92008 13.5905 5.83675V5.96175H10.8405V5.89925C10.8405 5.48258 10.7259 5.03988 10.5072 4.56592C10.2832 4.09717 9.903 3.69092 9.36133 3.35758C8.83008 3.01383 8.153 2.83675 7.31966 2.83675C6.28841 2.83675 5.4655 3.08675 4.84049 3.58675C4.22591 4.08675 3.92383 4.743 3.92383 5.54508C3.92383 6.21175 4.16341 6.76383 4.65299 7.19092C5.153 7.62321 5.76758 7.89925 6.50716 8.02425L8.92383 8.39925C10.3249 8.63883 11.5072 9.12321 12.4655 9.85758C13.4238 10.5972 13.903 11.6805 13.903 13.1076C13.903 14.1388 13.6322 15.0347 13.0905 15.7951C12.5488 16.5607 11.7988 17.1597 10.8405 17.5868C9.88216 18.0138 8.80404 18.2326 7.61133 18.2326Z" fill="black"/>
</svg>
