<svg width="12" height="14" viewBox="0 0 12 14" fill="none" xmlns="http://www.w3.org/2000/svg">
<path d="M6.49886 13.0254C5.2749 13.0254 4.23844 12.7337 3.39469 12.1504C2.56136 11.5566 1.93636 10.7858 1.51969 9.83789C1.11344 8.87956 0.915527 7.87435 0.915527 6.81706C0.915527 5.73372 1.11344 4.72331 1.51969 3.77539C1.93636 2.83268 2.56657 2.06706 3.41553 1.48372C4.25928 0.889975 5.29574 0.587891 6.51969 0.587891C8.12907 0.587891 9.41553 1.12956 10.3739 2.21289C11.3322 3.28581 11.8114 4.82747 11.8114 6.83789V7.37956H2.87386V7.52539C2.87386 8.19206 3.0249 8.82747 3.33219 9.42122C3.63428 10.0046 4.06136 10.4785 4.60303 10.8379C5.14469 11.2025 5.76969 11.3796 6.47803 11.3796C7.25407 11.3796 7.92074 11.1868 8.47803 10.7962C9.03011 10.4108 9.44678 9.87956 9.72803 9.21289H11.6447C11.3218 10.2962 10.728 11.2077 9.85303 11.9421C8.98844 12.666 7.87386 13.0254 6.49886 13.0254ZM9.87386 5.98372C9.81657 4.62435 9.48324 3.64518 8.87386 3.04622C8.2749 2.43685 7.48324 2.12956 6.49886 2.12956C5.42594 2.12956 4.57178 2.49414 3.93636 3.21289C3.29574 3.92122 2.95719 4.84831 2.91553 5.98372H9.87386Z" fill="black"/>
</svg>
