<svg width="12" height="18" viewBox="0 0 12 18" fill="none" xmlns="http://www.w3.org/2000/svg">
<path d="M5.69873 13.0254C4.65706 13.0254 3.75081 12.7546 2.9904 12.2129C2.2404 11.6608 1.66748 10.916 1.28206 9.98372C0.891438 9.04102 0.69873 7.98372 0.69873 6.81706C0.69873 5.63997 0.891438 4.57747 1.28206 3.62956C1.66748 2.68685 2.24561 1.94206 3.01123 1.40039C3.77165 0.858724 4.68831 0.587891 5.76123 0.587891C6.81331 0.587891 7.66748 0.837891 8.32373 1.33789C8.97477 1.83789 9.46956 2.43685 9.8029 3.12956H9.96956V0.921224H11.9279V17.4629H9.96956V10.4004H9.8029C9.43831 11.1243 8.9279 11.7441 8.26123 12.2546C7.59456 12.7702 6.7404 13.0254 5.69873 13.0254ZM6.3029 11.3379C7.46956 11.3379 8.35498 10.9108 8.96956 10.0462C9.59456 9.17122 9.90706 8.09831 9.90706 6.81706C9.90706 5.52539 9.59977 4.45247 8.9904 3.58789C8.37581 2.72852 7.47998 2.29622 6.3029 2.29622C5.10498 2.29622 4.20394 2.72852 3.59456 3.58789C2.99561 4.45247 2.69873 5.52539 2.69873 6.81706C2.69873 8.10872 3.00081 9.18685 3.6154 10.0462C4.2404 10.9108 5.13623 11.3379 6.3029 11.3379Z" fill="black"/>
</svg>
