<svg width="18" height="20" viewBox="0 0 18 20" fill="none" xmlns="http://www.w3.org/2000/svg">
<path d="M9.5293 19.1973C7.63867 19.1973 6.03971 18.7493 4.73763 17.8431C3.43034 16.9421 2.4668 15.7702 1.8418 14.3223C1.2168 12.8796 0.904297 11.3379 0.904297 9.69727C0.904297 8.06185 1.2168 6.52018 1.8418 5.07227C2.4668 3.62956 3.43034 2.45768 4.73763 1.55143C6.03971 0.650391 7.63867 0.197266 9.5293 0.197266C11.8887 0.197266 13.7428 0.879558 15.0918 2.23893C16.4512 3.60352 17.2689 5.27539 17.5501 7.25977H14.6335C14.4251 5.92643 13.8887 4.83789 13.0293 3.98893C12.1803 3.14518 11.0293 2.7181 9.57096 2.7181C7.722 2.7181 6.32096 3.38477 5.36263 4.7181C4.4043 6.05143 3.92513 7.71289 3.92513 9.69727C3.92513 11.6868 4.4043 13.3431 5.36263 14.6764C6.32096 15.9993 7.722 16.6556 9.57096 16.6556C11.0293 16.6556 12.1803 16.2389 13.0293 15.4056C13.8887 14.5723 14.4251 13.4785 14.6335 12.1139H17.5501C17.2689 14.1035 16.4512 15.7806 15.0918 17.1556C13.7428 18.5202 11.8887 19.1973 9.5293 19.1973Z" fill="black"/>
</svg>
