<svg width="55" height="52" viewBox="0 0 55 52" fill="none" xmlns="http://www.w3.org/2000/svg">
<path d="M27.7775 51.3229C22.4546 51.3229 17.7567 50.25 13.6733 48.1146C9.60042 45.9635 6.41292 42.9844 4.11084 39.1771C1.81917 35.375 0.67334 30.9635 0.67334 25.9479C0.67334 20.9375 1.81917 16.5417 4.11084 12.7604C6.41292 8.98438 9.62126 6.02604 13.7358 3.88542C17.8452 1.73438 22.5588 0.65625 27.8817 0.65625C33.616 0.65625 38.5536 1.88021 42.6942 4.32292C46.8296 6.77083 49.9702 10.2135 52.1108 14.6562C54.2619 19.1042 55.1838 24.3177 54.8817 30.3021H17.9025C18.5692 32.901 19.8296 34.8646 21.6942 36.1979C23.5692 37.5208 25.7202 38.1771 28.1525 38.1771C30.0119 38.1771 31.7254 37.8438 33.2983 37.1771C34.8817 36.5104 36.1525 35.6094 37.1108 34.4688H53.9858C51.8713 39.7917 48.5327 43.9271 43.965 46.8854C39.3921 49.8438 33.9963 51.3229 27.7775 51.3229ZM17.9858 20.8646H38.2983C37.5744 18.6302 36.3504 16.8802 34.6317 15.6146C32.9077 14.3385 30.715 13.6979 28.0483 13.6979C25.6317 13.6979 23.5275 14.3229 21.7358 15.5729C19.9546 16.8125 18.7046 18.5729 17.9858 20.8646Z" fill="#690061"/>
</svg>
