<svg width="14" height="15" viewBox="0 0 14 15" fill="none" xmlns="http://www.w3.org/2000/svg">
<path d="M7.03271 14.8706C5.5848 14.8706 4.37126 14.5269 3.38688 13.829C2.3973 13.1363 1.66292 12.2352 1.17855 11.1206C0.70459 9.99565 0.470215 8.80815 0.470215 7.55815C0.470215 6.29773 0.70459 5.11023 1.17855 3.99565C1.66292 2.88627 2.40771 1.99044 3.40771 1.30815C4.40771 0.615438 5.62126 0.266479 7.05355 0.266479C8.93897 0.266479 10.4494 0.901896 11.5744 2.16231C12.7098 3.41231 13.2827 5.22481 13.2827 7.59981V8.22481H2.76188V8.41231C2.76188 9.20398 2.93897 9.94877 3.30355 10.6415C3.66292 11.3238 4.16292 11.8811 4.80355 12.3081C5.43897 12.7404 6.17855 12.954 7.01188 12.954C7.91292 12.954 8.68897 12.7248 9.34521 12.2665C10.0119 11.7977 10.5015 11.1727 10.8244 10.3915H13.0952C12.7202 11.6727 12.0171 12.7404 10.991 13.5998C9.97542 14.4488 8.65771 14.8706 7.03271 14.8706ZM11.0119 6.59981C10.939 5.00606 10.5431 3.84981 9.82438 3.14148C9.11605 2.43315 8.18376 2.07898 7.03271 2.07898C5.76709 2.07898 4.76188 2.49565 4.01188 3.32898C3.2723 4.16231 2.87646 5.25606 2.82438 6.59981H11.0119Z" fill="black"/>
</svg>
