<svg width="21" height="24" viewBox="0 0 21 24" fill="none" xmlns="http://www.w3.org/2000/svg">
<path d="M10.8491 23.4186C8.54183 23.4186 6.59912 22.8717 5.01579 21.7727C3.44287 20.6634 2.271 19.2102 1.49495 17.4186C0.729329 15.6269 0.349121 13.7311 0.349121 11.7311C0.349121 9.72066 0.729329 7.82483 1.49495 6.04358C2.271 4.26754 3.45329 2.82483 5.03662 1.71025C6.63037 0.600871 8.5835 0.0435791 10.8908 0.0435791C13.9012 0.0435791 16.3127 1.0592 18.12 3.08525C19.922 5.10087 20.8283 7.9967 20.8283 11.7727V12.7936H4.03662V13.1061C4.03662 14.3561 4.31266 15.5384 4.86995 16.6477C5.43766 17.7623 6.23454 18.6582 7.26579 19.3352C8.29183 20.0175 9.47412 20.3561 10.8075 20.3561C12.2658 20.3561 13.5158 19.9915 14.5575 19.2519C15.6095 18.5019 16.396 17.5019 16.9116 16.2519H20.5366C19.9377 18.3092 18.8179 20.0175 17.1825 21.3769C15.5575 22.7415 13.4429 23.4186 10.8491 23.4186ZM17.2033 10.1894C17.0887 7.63733 16.4637 5.78837 15.3283 4.64775C14.1877 3.51233 12.6929 2.93941 10.8491 2.93941C8.8335 2.93941 7.22933 3.6165 6.03662 4.96025C4.83871 6.29358 4.20329 8.03837 4.11995 10.1894H17.2033Z" fill="#690061"/>
</svg>
