<svg width="56" height="74" viewBox="0 0 56 74" fill="none" xmlns="http://www.w3.org/2000/svg">
<path d="M13.5498 0.974854C17.0498 0.974854 20.7633 1.21965 24.6956 1.70402C28.6227 2.1936 32.43 3.1311 36.1123 4.51652C39.805 5.90715 43.1436 7.93319 46.1331 10.5999C49.1175 13.2561 51.4977 16.7405 53.279 21.0582C55.0706 25.3811 55.9665 30.7769 55.9665 37.2457C55.9665 43.4696 55.0915 48.7144 53.3415 52.9749C51.5915 57.2249 49.2269 60.6988 46.2581 63.3915C43.2998 66.0738 39.9561 68.1572 36.2373 69.6415C32.529 71.1311 28.7217 72.1415 24.8206 72.6832C20.93 73.2249 17.1748 73.4957 13.5498 73.4957H1.6748C1.00814 73.4957 0.674805 73.2249 0.674805 72.6832V44.2249H14.5498V60.1624C16.2998 60.2353 18.3467 60.1936 20.6956 60.0374C23.055 59.8863 25.4717 59.4332 27.9456 58.6832C30.43 57.9228 32.7425 56.7249 34.8831 55.0999C37.0342 53.4644 38.7581 51.1988 40.0498 48.3082C41.3519 45.4071 42.0081 41.7196 42.0081 37.2457C42.0081 31.4957 40.8102 26.8863 38.4248 23.4124C36.0342 19.9436 32.7686 17.4696 28.6331 15.9957C24.4925 14.5113 19.7998 13.9124 14.5498 14.204V30.2665H0.674805V1.78735C0.674805 1.24569 1.00814 0.974854 1.6748 0.974854H13.5498Z" fill="#562A2A" fill-opacity="0.302"/>
</svg>
