<svg width="13" height="15" viewBox="0 0 13 15" fill="none" xmlns="http://www.w3.org/2000/svg">
<path d="M6.34701 14.2771C5.10742 14.2771 4.03451 14.0219 3.11784 13.5062C2.20117 12.9802 1.49284 12.2094 0.992839 11.1937C0.503255 10.1677 0.263672 8.93331 0.263672 7.48539C0.263672 6.04268 0.503255 4.81352 0.992839 3.79789C1.49284 2.77185 2.20117 2.00102 3.11784 1.48539C4.03451 0.959351 5.10742 0.693726 6.34701 0.693726C7.58138 0.693726 8.64909 0.959351 9.55534 1.48539C10.472 2.00102 11.1699 2.77185 11.6595 3.79789C12.1595 4.81352 12.4095 6.04268 12.4095 7.48539C12.4095 8.93331 12.1595 10.1677 11.6595 11.1937C11.1699 12.2094 10.472 12.9802 9.55534 13.5062C8.64909 14.0219 7.58138 14.2771 6.34701 14.2771ZM6.34701 12.5479C7.64909 12.5479 8.64388 12.1416 9.32617 11.3187C10.0189 10.4854 10.3678 9.20935 10.3678 7.48539C10.3678 5.75102 10.0189 4.47498 9.32617 3.65206C8.64388 2.83435 7.64909 2.42289 6.34701 2.42289C5.03971 2.42289 4.03451 2.83956 3.32617 3.67289C2.62825 4.49581 2.28451 5.76664 2.28451 7.48539C2.28451 9.20935 2.62825 10.4854 3.32617 11.3187C4.03451 12.1416 5.03971 12.5479 6.34701 12.5479Z" fill="black"/>
</svg>
