<svg width="17" height="25" viewBox="0 0 17 25" fill="none" xmlns="http://www.w3.org/2000/svg">
<path d="M8.75423 24.9922C8.11361 24.9922 7.59277 24.9505 7.19173 24.8672C6.80111 24.7839 6.40527 24.6641 6.00423 24.513V22.2005C6.28027 22.2943 6.65007 22.3776 7.1084 22.4505C7.57715 22.5182 8.03548 22.5547 8.4834 22.5547C10.1501 22.5547 11.4053 22.0807 12.2542 21.138C13.098 20.2057 13.5251 18.9609 13.5251 17.4089V14.3672H13.2542C12.8063 15.3672 12.0876 16.2161 11.0876 16.9089C10.098 17.6068 8.90527 17.9505 7.50423 17.9505C6.08757 17.9505 4.84277 17.5911 3.77507 16.8672C2.71777 16.1484 1.88965 15.138 1.2959 13.8464C0.712565 12.5547 0.420898 11.0755 0.420898 9.40885C0.420898 7.74219 0.712565 6.26302 1.2959 4.97135C1.88965 3.67969 2.71777 2.67448 3.77507 1.95052C4.84277 1.23177 6.08757 0.867188 7.50423 0.867188C8.97298 0.867188 10.2021 1.2526 11.1917 2.01302C12.1917 2.76302 12.8896 3.63802 13.2959 4.63802H13.5251V1.40885H16.2959V17.4089C16.2959 18.6016 16.0511 19.7734 15.5667 20.9297C15.0928 22.0807 14.2855 23.0443 13.1501 23.8255C12.0251 24.6016 10.5563 24.9922 8.75423 24.9922ZM8.40007 15.5964C9.4834 15.5964 10.4053 15.3047 11.1709 14.7214C11.9469 14.1276 12.5146 13.3568 12.8792 12.4089C13.2542 11.4505 13.4417 10.4297 13.4417 9.34635C13.4417 8.27865 13.2542 7.28385 12.8792 6.36719C12.5146 5.45052 11.9521 4.71094 11.1917 4.13802C10.4417 3.55469 9.50944 3.26302 8.40007 3.26302C6.75944 3.26302 5.50423 3.86198 4.62923 5.05469C3.76465 6.23698 3.33757 7.66927 3.33757 9.34635C3.33757 10.4609 3.52507 11.4922 3.90007 12.4505C4.27507 13.3984 4.83757 14.1589 5.58757 14.7422C6.34798 15.3151 7.28548 15.5964 8.40007 15.5964Z" fill="black"/>
</svg>
