<svg width="21" height="32" viewBox="0 0 21 32" fill="none" xmlns="http://www.w3.org/2000/svg">
<path d="M5.00814 23.9063C8.63314 23.1875 10.6592 21.1927 11.0915 17.9271H10.0915C7.4248 17.9271 5.22689 17.0938 3.50814 15.4271C1.78418 13.7605 0.924805 11.6927 0.924805 9.21879C0.924805 6.62504 1.78418 4.47921 3.50814 2.78129C5.22689 1.08858 7.47689 0.239624 10.2581 0.239624C12.6175 0.239624 14.5811 0.833375 16.154 2.01046C17.7217 3.19275 18.8831 4.75004 19.6331 6.67712C20.3936 8.60942 20.779 10.6927 20.779 12.9271C20.779 15.7761 20.2008 18.5886 19.0498 21.3646C17.9092 24.1459 16.1748 26.4844 13.8415 28.3855C11.5186 30.2917 8.57585 31.3334 5.00814 31.5105V23.9063Z" fill="#690061"/>
</svg>
