<svg width="26" height="27" viewBox="0 0 26 27" fill="none" xmlns="http://www.w3.org/2000/svg">
<path d="M10.0382 26.2939C7.257 26.2939 5.03825 25.6064 3.37158 24.2314C1.70492 22.8564 0.871582 20.9971 0.871582 18.6481C0.871582 16.4137 1.60596 14.6169 3.07992 13.2523C4.56429 11.8929 6.56429 11.2106 9.07992 11.2106H17.2466V9.83561C17.2466 9.04395 16.8976 8.3929 16.2049 7.87728C15.5226 7.35124 14.6893 7.08561 13.7049 7.08561C12.8143 7.08561 12.0591 7.30957 11.4341 7.75228C10.8091 8.2002 10.4341 8.7679 10.3091 9.46061H2.05908C2.41846 6.65853 3.59033 4.51269 5.57992 3.02311C7.57992 1.53874 10.2726 0.793945 13.6632 0.793945C17.5799 0.793945 20.5851 1.74186 22.6841 3.62728C24.7778 5.50228 25.8299 8.16895 25.8299 11.6273V25.7523H19.4966L18.5174 23.0856C16.3768 25.2262 13.5487 26.2939 10.0382 26.2939ZM9.49658 18.2314C9.49658 18.8981 9.77783 19.4398 10.3507 19.8564C10.9341 20.2731 11.7049 20.4814 12.6632 20.4814C13.9966 20.4814 15.106 20.0752 15.9966 19.2523C16.882 18.4189 17.3299 17.346 17.3299 16.0231H12.5591C11.6112 16.0231 10.8612 16.221 10.3091 16.6064C9.76742 16.9814 9.49658 17.5231 9.49658 18.2314Z" fill="#690061"/>
</svg>
