<svg width="10" height="24" viewBox="0 0 10 24" fill="none" xmlns="http://www.w3.org/2000/svg">
<path d="M5.9554 8.59631V18.388C5.9554 19.1692 5.98665 19.7421 6.05957 20.1171C6.1429 20.4921 6.34082 20.7942 6.66374 21.013C6.99707 21.2213 7.53874 21.3255 8.28874 21.3255C8.79915 21.3255 9.35645 21.2526 9.9554 21.0963V23.0755C9.79915 23.1484 9.47624 23.2109 8.97624 23.263C8.47624 23.3307 7.9554 23.3671 7.41374 23.3671C6.17415 23.3671 5.25228 23.1953 4.6429 22.8463C4.04395 22.4869 3.65332 22.0078 3.47624 21.4088C3.29395 20.7994 3.2054 19.9921 3.2054 18.9921V8.59631H0.0595703V6.38798H3.2054V0.846313H5.9554V6.38798H9.9554V8.59631H5.9554Z" fill="black"/>
</svg>
