<svg width="16" height="25" viewBox="0 0 16 25" fill="none" xmlns="http://www.w3.org/2000/svg">
<path d="M0.805176 0.346313H3.55518V10.4088H3.82601C4.24268 9.44006 4.93018 8.61715 5.88851 7.95048C6.85726 7.2734 8.03434 6.92965 9.40934 6.92965C10.8364 6.92965 12.0343 7.2734 12.9927 7.95048C13.9614 8.61715 14.6802 9.50256 15.1385 10.5963C15.5968 11.6953 15.826 12.8828 15.826 14.1588V24.2421H13.0552V14.513C13.0552 12.8463 12.6229 11.5755 11.7635 10.7005C10.8989 9.82548 9.75309 9.38798 8.32601 9.38798C6.96143 9.38798 5.82601 9.84631 4.90934 10.763C4.00309 11.6796 3.55518 12.9296 3.55518 14.513V24.2421H0.805176V0.346313Z" fill="black"/>
</svg>
