<svg width="58" height="74" viewBox="0 0 58 74" fill="none" xmlns="http://www.w3.org/2000/svg">
<path d="M56.9971 72.3556C57.1221 72.5952 57.0909 72.8348 56.9138 73.0848C56.7315 73.3243 56.4867 73.4389 56.1846 73.4389H43.6846C43.2523 73.4389 42.9815 73.2618 42.8721 72.8973L28.5388 32.4598L14.3929 72.8973C14.3356 73.2618 14.0388 73.4389 13.4971 73.4389H1.08044C0.648147 73.4389 0.35648 73.3243 0.205439 73.0848C0.0700223 72.8348 0.0543973 72.5952 0.163772 72.3556L27.6429 1.45976C27.7523 1.10038 28.0492 0.918091 28.5388 0.918091C29.0231 0.918091 29.3304 1.10038 29.4554 1.45976L56.9971 72.3556Z" fill="#562A2A"/>
</svg>
