<svg width="12" height="15" viewBox="0 0 12 15" fill="none" xmlns="http://www.w3.org/2000/svg">
<path d="M11.112 7.92289H2.11198C2.16406 9.52185 2.54948 10.6937 3.25781 11.4437C3.96615 12.1833 4.9349 12.5479 6.17448 12.5479C7.10156 12.5479 7.85156 12.3812 8.42448 12.0479C8.99219 11.7146 9.4349 11.1937 9.75781 10.4854H10.0078L11.2786 11.2354C10.9036 12.1833 10.2891 12.9229 9.44531 13.4646C8.61198 14.0062 7.51823 14.2771 6.17448 14.2771C4.90885 14.2771 3.82031 14.0271 2.90365 13.5271C1.9974 13.0271 1.29948 12.2719 0.799479 11.2562C0.309895 10.2458 0.0703125 8.98539 0.0703125 7.48539C0.0703125 6.00102 0.325521 4.75102 0.841146 3.73539C1.36719 2.70935 2.07552 1.94373 2.96615 1.44373C3.86719 0.943726 4.89323 0.693726 6.04948 0.693726C7.72656 0.693726 9.03906 1.16768 9.98698 2.11039C10.9297 3.05831 11.4036 4.45935 11.4036 6.31873C11.4036 7.04268 11.388 7.52706 11.362 7.77706L11.112 7.92289ZM9.48698 6.31873C9.45573 4.91768 9.15365 3.90206 8.57031 3.27706C7.98698 2.64164 7.14323 2.31873 6.04948 2.31873C4.90885 2.31873 4.00781 2.64164 3.34115 3.27706C2.6849 3.91768 2.28906 4.93331 2.15365 6.31873H9.48698Z" fill="black"/>
</svg>
