<svg width="12" height="14" viewBox="0 0 12 14" fill="none" xmlns="http://www.w3.org/2000/svg">
<path d="M6.24202 13.0254C5.01807 13.0254 3.98161 12.7337 3.13786 12.1504C2.30452 11.5566 1.67952 10.7858 1.26286 9.83789C0.856607 8.87956 0.658691 7.87435 0.658691 6.81706C0.658691 5.73372 0.856607 4.72331 1.26286 3.77539C1.67952 2.83268 2.30973 2.06706 3.15869 1.48372C4.00244 0.889975 5.0389 0.587891 6.26286 0.587891C7.87223 0.587891 9.15869 1.12956 10.117 2.21289C11.0754 3.28581 11.5545 4.82747 11.5545 6.83789V7.37956H2.61702V7.52539C2.61702 8.19206 2.76807 8.82747 3.07536 9.42122C3.37744 10.0046 3.80452 10.4785 4.34619 10.8379C4.88786 11.2025 5.51286 11.3796 6.22119 11.3796C6.99723 11.3796 7.6639 11.1868 8.22119 10.7962C8.77327 10.4108 9.18994 9.87956 9.47119 9.21289H11.3879C11.0649 10.2962 10.4712 11.2077 9.59619 11.9421C8.73161 12.666 7.61702 13.0254 6.24202 13.0254ZM9.61703 5.98372C9.55973 4.62435 9.2264 3.64518 8.61702 3.04622C8.01807 2.43685 7.2264 2.12956 6.24202 2.12956C5.16911 2.12956 4.31494 2.49414 3.67952 3.21289C3.0389 3.92122 2.70036 4.84831 2.65869 5.98372H9.61703Z" fill="black"/>
</svg>
