<svg width="17" height="19" viewBox="0 0 17 19" fill="none" xmlns="http://www.w3.org/2000/svg">
<path d="M8.64323 18.4714C6.9349 18.4714 5.48177 18.0651 4.28906 17.2422C3.10677 16.4089 2.21615 15.3255 1.6224 13.9922C1.02344 12.6589 0.726562 11.2318 0.726562 9.70052C0.726562 8.15885 1.02344 6.72135 1.6224 5.38802C2.21615 4.05469 3.10677 2.98177 4.28906 2.15885C5.48177 1.34115 6.9349 0.929688 8.64323 0.929688C10.3516 0.929688 11.7943 1.34115 12.9766 2.15885C14.1536 2.98177 15.0391 4.0651 15.6224 5.40885C16.2161 6.75781 16.5182 8.1901 16.5182 9.70052C16.5182 11.2161 16.2161 12.6484 15.6224 13.9922C15.0234 15.3255 14.1276 16.4089 12.9349 17.2422C11.7526 18.0651 10.3203 18.4714 8.64323 18.4714ZM8.64323 16.0964C9.6849 16.0964 10.5911 15.8151 11.3724 15.2422C12.1484 14.6589 12.737 13.8828 13.1432 12.9089C13.5443 11.9401 13.7474 10.8568 13.7474 9.65885C13.7474 7.82552 13.2891 6.30469 12.3724 5.09635C11.4557 3.8776 10.2109 3.26302 8.64323 3.26302C7.57031 3.26302 6.64844 3.55469 5.8724 4.13802C5.09115 4.71094 4.4974 5.48177 4.08073 6.45052C3.67448 7.42448 3.47656 8.49219 3.47656 9.65885C3.47656 11.4922 3.9349 13.0286 4.85156 14.263C5.77865 15.487 7.04427 16.0964 8.64323 16.0964Z" fill="black"/>
</svg>
