<svg width="5" height="8" viewBox="0 0 5 8" fill="none" xmlns="http://www.w3.org/2000/svg">
<path d="M0.138672 6.65206C0.815755 6.19373 1.39388 5.66248 1.86784 5.06873C2.35221 4.48539 2.60221 3.83956 2.61784 3.13123C2.14388 3.13123 1.77409 3.00623 1.51367 2.75623C1.24805 2.49581 1.11784 2.15206 1.11784 1.73539C1.11784 1.31873 1.24284 0.980184 1.49284 0.714559C1.75326 0.454142 2.10221 0.318726 2.53451 0.318726C3.00326 0.318726 3.37826 0.485392 3.65951 0.818726C3.95117 1.14164 4.09701 1.64685 4.09701 2.33956C4.09701 3.57393 3.83138 4.61039 3.30534 5.44373C2.77409 6.28748 1.99284 7.05831 0.951172 7.75623L0.138672 6.65206Z" fill="black"/>
</svg>
