<svg width="11" height="15" viewBox="0 0 11 15" fill="none" xmlns="http://www.w3.org/2000/svg">
<path d="M0.162109 14.2273V1.12309H2.01628V3.18559L2.26628 3.24809C2.69336 2.48767 3.24544 1.90434 3.91211 1.49809C4.58919 1.09705 5.42253 0.893921 6.41211 0.893921C7.97982 0.893921 9.12044 1.30017 9.82878 2.10225C10.5371 2.89392 10.8913 4.12309 10.8913 5.78975V14.2273H8.95378V5.85225C8.95378 5.06059 8.84961 4.43038 8.64128 3.95642C8.44336 3.47205 8.13086 3.11788 7.70378 2.89392C7.28711 2.67517 6.72982 2.56059 6.03711 2.56059C4.87044 2.56059 3.91732 2.95642 3.18294 3.74809C2.45898 4.52934 2.09961 5.77934 2.09961 7.49809V14.2273H0.162109Z" fill="black"/>
</svg>
