<svg width="22" height="25" viewBox="0 0 22 25" fill="none" xmlns="http://www.w3.org/2000/svg">
<path d="M11.2681 24.2917C8.96077 24.2917 7.01807 23.7449 5.43473 22.6459C3.86182 21.5365 2.68994 20.0834 1.9139 18.2917C1.14827 16.5001 0.768066 14.6042 0.768066 12.6042C0.768066 10.5938 1.14827 8.698 1.9139 6.91675C2.68994 5.14071 3.87223 3.698 5.45557 2.58341C7.04932 1.47404 9.00244 0.916748 11.3097 0.916748C14.3201 0.916748 16.7316 1.93237 18.5389 3.95841C20.341 5.97404 21.2472 8.86987 21.2472 12.6459V13.6667H4.45557V13.9792C4.45557 15.2292 4.73161 16.4115 5.2889 17.5209C5.85661 18.6355 6.65348 19.5313 7.68473 20.2084C8.71077 20.8907 9.89307 21.2292 11.2264 21.2292C12.6847 21.2292 13.9347 20.8647 14.9764 20.1251C16.0285 19.3751 16.8149 18.3751 17.3306 17.1251H20.9556C20.3566 19.1824 19.2368 20.8907 17.6014 22.2501C15.9764 23.6147 13.8618 24.2917 11.2681 24.2917ZM17.6222 11.0626C17.5077 8.5105 16.8827 6.66154 15.7472 5.52092C14.6066 4.3855 13.1118 3.81258 11.2681 3.81258C9.25244 3.81258 7.64827 4.48967 6.45557 5.83342C5.25765 7.16675 4.62223 8.91154 4.5389 11.0626H17.6222Z" fill="#690061"/>
</svg>
