<svg width="16" height="19" viewBox="0 0 16 19" fill="none" xmlns="http://www.w3.org/2000/svg">
<path d="M8.08903 18.4714C6.3807 18.4714 4.92757 18.0651 3.73486 17.2422C2.55257 16.4089 1.66195 15.3255 1.0682 13.9922C0.469238 12.6589 0.172363 11.2318 0.172363 9.70052C0.172363 8.15885 0.469238 6.72135 1.0682 5.38802C1.66195 4.05469 2.55257 2.98177 3.73486 2.15885C4.92757 1.34115 6.3807 0.929688 8.08903 0.929688C9.79736 0.929688 11.2401 1.34115 12.4224 2.15885C13.5994 2.98177 14.4849 4.0651 15.0682 5.40885C15.6619 6.75781 15.964 8.1901 15.964 9.70052C15.964 11.2161 15.6619 12.6484 15.0682 13.9922C14.4692 15.3255 13.5734 16.4089 12.3807 17.2422C11.1984 18.0651 9.76611 18.4714 8.08903 18.4714ZM8.08903 16.0964C9.1307 16.0964 10.0369 15.8151 10.8182 15.2422C11.5942 14.6589 12.1828 13.8828 12.589 12.9089C12.9901 11.9401 13.1932 10.8568 13.1932 9.65885C13.1932 7.82552 12.7349 6.30469 11.8182 5.09635C10.9015 3.8776 9.65674 3.26302 8.08903 3.26302C7.01611 3.26302 6.09424 3.55469 5.3182 4.13802C4.53695 4.71094 3.9432 5.48177 3.52653 6.45052C3.12028 7.42448 2.92236 8.49219 2.92236 9.65885C2.92236 11.4922 3.3807 13.0286 4.29736 14.263C5.22445 15.487 6.49007 16.0964 8.08903 16.0964Z" fill="black"/>
</svg>
