<svg width="11" height="24" viewBox="0 0 11 24" fill="none" xmlns="http://www.w3.org/2000/svg">
<path d="M6.02913 8.59637V18.388C6.02913 19.1693 6.06038 19.7422 6.1333 20.1172C6.21663 20.4922 6.41455 20.7943 6.73747 21.013C7.0708 21.2214 7.61247 21.3255 8.36247 21.3255C8.87288 21.3255 9.43018 21.2526 10.0291 21.0964V23.0755C9.87288 23.1485 9.54997 23.211 9.04997 23.263C8.54997 23.3307 8.02913 23.3672 7.48747 23.3672C6.24788 23.3672 5.32601 23.1953 4.71663 22.8464C4.11768 22.487 3.72705 22.0078 3.54997 21.4089C3.36768 20.7995 3.27913 19.9922 3.27913 18.9922V8.59637H0.133301V6.38804H3.27913V0.846375H6.02913V6.38804H10.0291V8.59637H6.02913Z" fill="black"/>
</svg>
