<svg width="18" height="27" viewBox="0 0 18 27" fill="none" xmlns="http://www.w3.org/2000/svg">
<path d="M9.835 19.8496C8.23604 19.8496 6.92354 19.4538 5.8975 18.6621C4.88188 17.8704 4.10583 16.9329 3.56417 15.8496H3.31417V26.6413H0.293335V1.32878H3.31417V4.72461H3.56417C4.06417 3.67253 4.80375 2.76107 5.79333 1.99544C6.79333 1.23503 8.10583 0.849609 9.73083 0.849609C11.3663 0.849609 12.7725 1.26107 13.9392 2.07878C15.1058 2.90169 15.986 4.0319 16.585 5.47461C17.1788 6.92253 17.4808 8.54753 17.4808 10.3496C17.4808 12.1569 17.1788 13.7767 16.585 15.2038C15.986 16.6361 15.111 17.7663 13.96 18.5996C12.8038 19.4329 11.4288 19.8496 9.835 19.8496ZM8.8975 17.2871C10.6996 17.2871 12.0694 16.6309 13.0017 15.3079C13.9288 13.9902 14.3975 12.3392 14.3975 10.3496C14.3975 8.38086 13.9288 6.74023 13.0017 5.43294C12.085 4.11523 10.7152 3.45378 8.8975 3.45378C7.09021 3.45378 5.71521 4.11523 4.7725 5.43294C3.84021 6.74023 3.37667 8.38086 3.37667 10.3496C3.37667 12.3079 3.84542 13.9538 4.79333 15.2871C5.75167 16.6204 7.11625 17.2871 8.8975 17.2871Z" fill="black"/>
</svg>
