<svg width="12" height="18" viewBox="0 0 12 18" fill="none" xmlns="http://www.w3.org/2000/svg">
<path d="M0.660156 0.921265H2.59766V8.0671H2.78516C3.08724 7.37439 3.58203 6.79106 4.26432 6.3171C4.94141 5.83272 5.76953 5.58793 6.74349 5.58793C7.75391 5.58793 8.60286 5.83272 9.28516 6.3171C9.96224 6.79106 10.4622 7.41606 10.7852 8.1921C11.1185 8.97335 11.2852 9.81189 11.2852 10.7129V17.8588H9.32682V10.9629C9.32682 9.78585 9.01953 8.89002 8.41016 8.27543C7.79557 7.65043 6.98307 7.33793 5.97266 7.33793C5.01432 7.33793 4.20703 7.66606 3.55599 8.3171C2.91536 8.97335 2.59766 9.85356 2.59766 10.9629V17.8588H0.660156V0.921265Z" fill="black"/>
</svg>
