<svg width="80" height="73" viewBox="0 0 80 73" fill="none" xmlns="http://www.w3.org/2000/svg">
<path d="M65.5782 55.0339V32.0131L47.099 69.0964C46.974 69.461 46.7032 69.6381 46.2865 69.6381H35.1199C34.6459 69.6381 34.349 69.461 34.224 69.0964L14.5574 31.0131V71.7214C14.5574 72.2631 14.224 72.5339 13.5574 72.5339H1.59904C0.984456 72.5339 0.682373 72.2631 0.682373 71.7214V0.825562C0.682373 0.283895 0.984456 0.0130615 1.59904 0.0130615H13.7449C14.2136 0.0130615 14.5157 0.195354 14.6407 0.554728L40.6615 53.6797L65.4115 0.554728C65.6459 0.195354 65.974 0.0130615 66.3907 0.0130615H78.3699C79.0365 0.0130615 79.3699 0.283895 79.3699 0.825562V55.0339H65.5782Z" fill="#562A2A" fill-opacity="0.502"/>
</svg>
