<svg width="13" height="14" viewBox="0 0 13 14" fill="none" xmlns="http://www.w3.org/2000/svg">
<path d="M6.5214 13.8498C5.24015 13.8498 4.15682 13.5477 3.2714 12.9331C2.38078 12.3081 1.71411 11.4956 1.2714 10.4956C0.823487 9.49565 0.604736 8.42273 0.604736 7.26648C0.604736 6.11544 0.823487 5.03731 1.2714 4.03731C1.71411 3.03731 2.38078 2.23523 3.2714 1.62065C4.15682 1.01127 5.24015 0.703979 6.5214 0.703979C7.79744 0.703979 8.88078 1.01127 9.7714 1.62065C10.6568 2.23523 11.3235 3.04773 11.7714 4.05815C12.2141 5.07377 12.4381 6.14148 12.4381 7.26648C12.4381 8.4071 12.2089 9.48523 11.7506 10.4956C11.3027 11.4956 10.636 12.3081 9.75057 12.9331C8.85994 13.5477 7.78182 13.8498 6.5214 13.8498ZM6.5214 12.079C7.31307 12.079 8.00057 11.8654 8.5839 11.4331C9.16724 11.0061 9.60994 10.4279 9.91724 9.70398C10.2193 8.96961 10.3756 8.1519 10.3756 7.24565C10.3756 5.87065 10.0266 4.73523 9.3339 3.82898C8.65161 2.91231 7.71411 2.45398 6.5214 2.45398C5.72974 2.45398 5.04224 2.67273 4.4589 3.09981C3.87557 3.5321 3.42765 4.11544 3.12557 4.84981C2.81828 5.57377 2.66724 6.37065 2.66724 7.24565C2.66724 8.62065 3.00578 9.7769 3.68807 10.704C4.38078 11.6206 5.32349 12.079 6.5214 12.079Z" fill="black"/>
</svg>
