<svg width="18" height="20" viewBox="0 0 18 20" fill="none" xmlns="http://www.w3.org/2000/svg">
<path d="M9.33276 19.9434C7.48381 19.9434 5.9161 19.5007 4.62443 18.61C3.34318 17.7246 2.37964 16.5579 1.7286 15.11C1.08797 13.6673 0.770264 12.11 0.770264 10.4434C0.770264 8.77669 1.08797 7.22461 1.7286 5.77669C2.37964 4.33398 3.34318 3.16732 4.62443 2.27669C5.9161 1.39128 7.48381 0.943359 9.33276 0.943359C11.1765 0.943359 12.739 1.39128 14.0203 2.27669C15.3119 3.16732 16.2703 4.33919 16.8953 5.79753C17.5307 7.25586 17.8536 8.80794 17.8536 10.4434C17.8536 12.084 17.5255 13.6309 16.8744 15.0892C16.2338 16.5475 15.2703 17.7246 13.9786 18.61C12.6973 19.5007 11.1505 19.9434 9.33276 19.9434ZM9.33276 17.3809C10.4578 17.3809 11.4421 17.0684 12.2911 16.4434C13.1348 15.8184 13.7755 14.9798 14.2078 13.9225C14.6505 12.8704 14.8744 11.6934 14.8744 10.4017C14.8744 8.41732 14.3744 6.76628 13.3744 5.44336C12.3848 4.12565 11.0411 3.46419 9.33276 3.46419C8.17651 3.46419 7.17651 3.77669 6.33276 4.40169C5.48381 5.02669 4.83797 5.87044 4.39526 6.92253C3.96297 7.97982 3.74943 9.14128 3.74943 10.4017C3.74943 12.3913 4.23901 14.0475 5.2286 15.3809C6.2286 16.7142 7.59318 17.3809 9.33276 17.3809Z" fill="#690061"/>
</svg>
