<svg width="22" height="24" viewBox="0 0 22 24" fill="none" xmlns="http://www.w3.org/2000/svg">
<path d="M11.084 23.4326C8.77669 23.4326 6.83398 22.8857 5.25065 21.7868C3.67773 20.6774 2.50586 19.2243 1.72982 17.4326C0.964192 15.641 0.583984 13.7451 0.583984 11.7451C0.583984 9.7347 0.964192 7.83887 1.72982 6.05762C2.50586 4.28158 3.68815 2.83887 5.27148 1.72428C6.86524 0.614909 8.81836 0.0576172 11.1257 0.0576172C14.1361 0.0576172 16.5475 1.07324 18.3548 3.09928C20.1569 5.11491 21.0632 8.01074 21.0632 11.7868V12.8076H4.27148V13.1201C4.27148 14.3701 4.54753 15.5524 5.10482 16.6618C5.67253 17.7764 6.4694 18.6722 7.50065 19.3493C8.52669 20.0316 9.70898 20.3701 11.0423 20.3701C12.5007 20.3701 13.7507 20.0055 14.7923 19.266C15.8444 18.516 16.6309 17.516 17.1465 16.266H20.7715C20.1725 18.3232 19.0527 20.0316 17.4173 21.391C15.7923 22.7555 13.6777 23.4326 11.084 23.4326ZM17.4382 10.2035C17.3236 7.65137 16.6986 5.80241 15.5632 4.66178C14.4225 3.52637 12.9277 2.95345 11.084 2.95345C9.06836 2.95345 7.46419 3.63053 6.27148 4.97428C5.07357 6.30762 4.43815 8.05241 4.35482 10.2035H17.4382Z" fill="#690061"/>
</svg>
