<svg width="12" height="14" viewBox="0 0 12 14" fill="none" xmlns="http://www.w3.org/2000/svg">
<path d="M6.08708 13.0671C4.80583 13.0671 3.73291 12.7911 2.85791 12.2338C1.99333 11.6661 1.34749 10.9161 0.92041 9.98376C0.503743 9.04106 0.29541 7.99939 0.29541 6.85876C0.29541 5.72335 0.503743 4.68168 0.92041 3.73376C1.34749 2.79106 1.99333 2.03585 2.85791 1.46293C3.73291 0.895223 4.80583 0.608765 6.08708 0.608765C7.34749 0.608765 8.40999 0.895223 9.27458 1.46293C10.1496 2.02022 10.7954 2.77022 11.2121 3.71293C11.6392 4.66085 11.8579 5.70251 11.8579 6.83793C11.8579 7.96293 11.6392 8.99939 11.2121 9.9421C10.7954 10.89 10.1496 11.6452 9.27458 12.2129C8.40999 12.7858 7.34749 13.0671 6.08708 13.0671ZM6.08708 10.2338C6.86312 10.2338 7.44124 9.91085 7.81624 9.2546C8.20166 8.60356 8.39958 7.79106 8.39958 6.8171C8.39958 5.83272 8.20166 5.02543 7.81624 4.40043C7.44124 3.76502 6.86312 3.4421 6.08708 3.4421C5.29541 3.4421 4.71208 3.76502 4.33708 4.40043C3.96208 5.04106 3.77458 5.84835 3.77458 6.8171C3.77458 7.79106 3.96208 8.60356 4.33708 9.2546C4.72249 9.91085 5.30583 10.2338 6.08708 10.2338Z" fill="black"/>
</svg>
