<svg width="17" height="25" viewBox="0 0 17 25" fill="none" xmlns="http://www.w3.org/2000/svg">
<path d="M9.25456 24.4714C7.7806 24.4714 6.57227 24.112 5.62956 23.388C4.69727 22.6536 3.97331 21.7839 3.46289 20.7839H3.23372V24.2422H0.462891V0.242188H3.23372V10.513H3.46289C3.93164 9.52865 4.62956 8.69011 5.54622 7.99219C6.46289 7.28385 7.66081 6.92969 9.15039 6.92969C10.6764 6.92969 11.9733 7.3151 13.0462 8.07552C14.1296 8.82552 14.9473 9.86719 15.5046 11.2005C16.0566 12.5339 16.3379 14.0339 16.3379 15.7005C16.3379 17.3672 16.0566 18.862 15.5046 20.1797C14.9473 21.5026 14.1348 22.5495 13.0671 23.3255C11.9941 24.0911 10.7233 24.4714 9.25456 24.4714ZM8.40039 22.0964C10.0514 22.0964 11.3066 21.4922 12.1712 20.2839C13.0462 19.0651 13.4837 17.5339 13.4837 15.7005C13.4837 13.8828 13.0514 12.3672 12.1921 11.1589C11.3431 9.94011 10.0775 9.32552 8.40039 9.32552C6.73372 9.32552 5.46289 9.94011 4.58789 11.1589C3.72331 12.3672 3.29622 13.8828 3.29622 15.7005C3.29622 17.5078 3.73372 19.0286 4.60872 20.263C5.48372 21.487 6.74414 22.0964 8.40039 22.0964Z" fill="black"/>
</svg>
