<svg width="17" height="19" viewBox="0 0 17 19" fill="none" xmlns="http://www.w3.org/2000/svg">
<path d="M7.81087 18.4714C6.31087 18.4714 5.02962 18.0911 3.97754 17.3255C2.92025 16.5495 2.11296 15.5026 1.56087 14.1797C1.00358 12.862 0.727539 11.3672 0.727539 9.70052C0.727539 8.03385 1.00879 6.53385 1.58171 5.20052C2.14941 3.86719 2.96712 2.82552 4.04004 2.07552C5.12337 1.3151 6.40462 0.929688 7.89421 0.929688C9.39421 0.929688 10.6025 1.28385 11.5192 1.99219C12.4359 2.6901 13.1286 3.52865 13.6025 4.51302H13.8109V1.38802H16.6025V18.2422H13.8109V14.7839H13.6025C13.0869 15.7839 12.3577 16.6536 11.415 17.388C10.4827 18.112 9.27962 18.4714 7.81087 18.4714ZM8.66504 16.0964C10.3005 16.0964 11.5609 15.487 12.4359 14.263C13.3109 13.0286 13.7484 11.5078 13.7484 9.70052C13.7484 7.88281 13.3109 6.36198 12.4359 5.13802C11.5609 3.91927 10.3005 3.30469 8.66504 3.30469C6.98275 3.30469 5.70671 3.91927 4.83171 5.13802C3.96712 6.34635 3.54004 7.85677 3.54004 9.65885C3.54004 11.4922 3.96712 13.0286 4.83171 14.263C5.70671 15.487 6.98275 16.0964 8.66504 16.0964Z" fill="black"/>
</svg>
