<svg width="10" height="14" viewBox="0 0 10 14" fill="none" xmlns="http://www.w3.org/2000/svg">
<path d="M5.22168 13.0254C4.26335 13.0254 3.43001 12.8327 2.72168 12.4421C2.01335 12.0566 1.47168 11.5618 1.09668 10.9629C0.72168 10.3535 0.53418 9.71289 0.53418 9.04622V8.94206H2.49251V9.02539C2.49251 9.40039 2.59668 9.77539 2.80501 10.1504C3.01335 10.5254 3.32585 10.8327 3.74251 11.0671C4.1696 11.291 4.69043 11.4004 5.30501 11.4004C6.02376 11.4004 6.62272 11.2285 7.09668 10.8796C7.56543 10.5202 7.80501 10.0358 7.80501 9.42122C7.80501 8.91081 7.61751 8.49935 7.24251 8.19206C6.87793 7.88998 6.4196 7.69206 5.86751 7.60872L4.30501 7.37956C3.31543 7.22852 2.49251 6.89518 1.82585 6.37956C1.15918 5.85352 0.825846 5.08789 0.825846 4.08789C0.825846 2.99414 1.22168 2.13997 2.01335 1.52539C2.81543 0.900391 3.83626 0.587891 5.07585 0.587891C5.99251 0.587891 6.77376 0.764975 7.43001 1.10872C8.09668 1.44206 8.60189 1.88997 8.95085 2.44206C9.2946 2.99935 9.47168 3.60352 9.47168 4.25456V4.33789H7.51335V4.29622C7.51335 3.99414 7.43001 3.67122 7.26335 3.33789C7.1071 3.00456 6.84668 2.72331 6.47168 2.48372C6.09668 2.23372 5.61751 2.10872 5.03418 2.10872C4.2946 2.10872 3.70605 2.29102 3.26335 2.65039C2.83105 2.99935 2.61751 3.46289 2.61751 4.04622C2.61751 4.50456 2.78939 4.88997 3.13835 5.19206C3.4821 5.49935 3.9196 5.70247 4.45085 5.79622L6.15918 6.06706C7.15918 6.23372 7.99772 6.58268 8.68001 7.10872C9.3571 7.62435 9.70085 8.38997 9.70085 9.40039C9.70085 10.1243 9.50293 10.7546 9.11751 11.2962C8.72689 11.8379 8.19043 12.265 7.51335 12.5671C6.83105 12.8691 6.06543 13.0254 5.22168 13.0254Z" fill="black"/>
</svg>
