<svg width="16" height="19" viewBox="0 0 16 19" fill="none" xmlns="http://www.w3.org/2000/svg">
<path d="M8.09814 18.4714C6.37419 18.4714 4.91585 18.0547 3.72314 17.2214C2.54085 16.388 1.66064 15.2995 1.07731 13.9505C0.504395 12.6068 0.223145 11.1901 0.223145 9.70052C0.223145 8.1901 0.504395 6.76302 1.07731 5.42969C1.66064 4.09635 2.54606 3.01302 3.74398 2.17969C4.93669 1.34635 6.40023 0.929688 8.13981 0.929688C10.4002 0.929688 12.2075 1.6901 13.5565 3.20052C14.9159 4.71615 15.5981 6.88802 15.5981 9.72135V10.4922H2.97314V10.7214C2.97314 11.6693 3.18669 12.5547 3.61898 13.388C4.04606 14.2109 4.64502 14.8776 5.41064 15.388C6.17106 15.9036 7.06169 16.1589 8.07731 16.1589C9.16064 16.1589 10.0981 15.8828 10.8898 15.3255C11.6815 14.7734 12.2648 14.0286 12.6398 13.0964H15.369C14.9211 14.6276 14.0825 15.9036 12.8481 16.9297C11.6242 17.9609 10.0409 18.4714 8.09814 18.4714ZM12.869 8.55469C12.7856 6.6276 12.3117 5.23698 11.4523 4.38802C10.6034 3.52865 9.48356 3.09635 8.09814 3.09635C6.58252 3.09635 5.37419 3.60677 4.47314 4.61719C3.58252 5.61719 3.10856 6.92969 3.05648 8.55469H12.869Z" fill="black"/>
</svg>
