<svg width="14" height="31" viewBox="0 0 14 31" fill="none" xmlns="http://www.w3.org/2000/svg">
<path d="M8.45101 10.5826V23.6451C8.45101 24.7024 8.49788 25.4784 8.59684 25.9784C8.69059 26.468 8.96143 26.8534 9.40934 27.1451C9.85205 27.4263 10.576 27.5617 11.576 27.5617C12.2531 27.5617 12.9927 27.468 13.7843 27.2701V29.9159C13.5864 29.9992 13.1489 30.0826 12.4718 30.1659C11.8052 30.2492 11.1177 30.2909 10.4093 30.2909C8.76872 30.2909 7.53955 30.0617 6.72184 29.6034C5.91455 29.1347 5.38851 28.494 5.13851 27.6867C4.89893 26.869 4.78434 25.7909 4.78434 24.4576V10.5826H0.617676V7.64508H4.78434V0.270081H8.45101V7.64508H13.7843V10.5826H8.45101Z" fill="black"/>
</svg>
