<svg width="20" height="24" viewBox="0 0 20 24" fill="none" xmlns="http://www.w3.org/2000/svg">
<path d="M20.0023 23H16.2731V18.7292H16.0231C15.4242 20.0365 14.5075 21.1407 13.2731 22.0417C12.0335 22.9323 10.5231 23.375 8.73145 23.375C6.85645 23.375 5.29395 22.9271 4.04395 22.0209C2.79395 21.1042 1.87728 19.9271 1.29395 18.4792C0.710612 17.0209 0.418945 15.448 0.418945 13.75V0.520874H4.08561V13.2709C4.08561 15.4688 4.63249 17.1563 5.73145 18.3334C6.84082 19.5157 8.29395 20.1042 10.0856 20.1042C11.971 20.1042 13.471 19.474 14.5856 18.2084C15.7106 16.9323 16.2731 15.2865 16.2731 13.2709V0.520874H20.0023V23Z" fill="#690061"/>
</svg>
