<svg width="55" height="52" viewBox="0 0 55 52" fill="none" xmlns="http://www.w3.org/2000/svg">
<path d="M27.8427 51.5369C22.5198 51.5369 17.8219 50.464 13.7385 48.3286C9.66561 46.1775 6.47811 43.1984 4.17603 39.3911C1.88436 35.589 0.738525 31.1775 0.738525 26.1619C0.738525 21.1515 1.88436 16.7557 4.17603 12.9744C6.47811 9.19837 9.68644 6.24003 13.801 4.09941C17.9104 1.94836 22.6239 0.870239 27.9469 0.870239C33.6812 0.870239 38.6187 2.0942 42.7594 4.53691C46.8948 6.98482 50.0354 10.4275 52.176 14.8702C54.3271 19.3182 55.2489 24.5317 54.9469 30.5161H17.9677C18.6344 33.115 19.8948 35.0786 21.7594 36.4119C23.6344 37.7348 25.7854 38.3911 28.2177 38.3911C30.0771 38.3911 31.7906 38.0577 33.3635 37.3911C34.9469 36.7244 36.2177 35.8234 37.176 34.6827H54.051C51.9364 40.0057 48.5979 44.1411 44.0302 47.0994C39.4573 50.0577 34.0614 51.5369 27.8427 51.5369ZM18.051 21.0786H38.3635C37.6396 18.8442 36.4156 17.0942 34.6969 15.8286C32.9729 14.5525 30.7802 13.9119 28.1135 13.9119C25.6969 13.9119 23.5927 14.5369 21.801 15.7869C20.0198 17.0265 18.7698 18.7869 18.051 21.0786Z" fill="#690061"/>
</svg>
