<svg width="27" height="26" viewBox="0 0 27 26" fill="none" xmlns="http://www.w3.org/2000/svg">
<path d="M0.770264 25.7481V1.47729H7.08276L7.99943 3.95646C8.88485 2.94605 10.0203 2.16479 11.3953 1.62313C12.7703 1.07105 14.2703 0.789795 15.8953 0.789795C19.0203 0.789795 21.489 1.76375 23.3119 3.70646C25.1296 5.65438 26.0411 8.25854 26.0411 11.519V25.7481H17.2286V12.4356C17.2286 11.0085 16.8953 9.92521 16.2286 9.18563C15.5723 8.45125 14.6713 8.08146 13.5203 8.08146C12.2963 8.08146 11.3328 8.48771 10.6244 9.28979C9.9161 10.0815 9.56193 11.2065 9.56193 12.6648V25.7481H0.770264Z" fill="#690061"/>
</svg>
