<svg width="27" height="32" viewBox="0 0 27 32" fill="none" xmlns="http://www.w3.org/2000/svg">
<path d="M14.0825 31.3558C11.2909 31.3558 8.87939 30.6995 6.85335 29.3766C4.83773 28.0589 3.29606 26.2308 2.22835 23.8974C1.17106 21.5641 0.64502 18.9183 0.64502 15.9599C0.64502 13.0016 1.17106 10.3558 2.22835 8.02242C3.29606 5.68909 4.83773 3.86617 6.85335 2.54325C8.87939 1.22555 11.2909 0.564087 14.0825 0.564087C17.4263 0.564087 20.1971 1.512 22.395 3.39742C24.5877 5.28805 26.0513 7.83492 26.7909 11.0433H23.1659C22.5669 8.86617 21.4679 7.12659 19.8742 5.83492C18.2909 4.53284 16.3742 3.87659 14.1242 3.87659C11.0252 3.87659 8.65023 4.97034 6.99919 7.14742C5.34294 9.32971 4.52002 12.2516 4.52002 15.9183C4.52002 19.6162 5.34294 22.5537 6.99919 24.7308C8.65023 26.913 11.0252 28.0016 14.1242 28.0016C16.2492 28.0016 18.0825 27.4287 19.6242 26.2724C21.1659 25.1214 22.2596 23.5745 22.9159 21.6266H26.5409C25.7336 24.5849 24.2544 26.9495 22.1034 28.7099C19.9627 30.4755 17.2909 31.3558 14.0825 31.3558Z" fill="#690061"/>
</svg>
