<svg width="18" height="26" viewBox="0 0 18 26" fill="none" xmlns="http://www.w3.org/2000/svg">
<path d="M9.02043 21.2145C8.65584 22.0999 8.30168 22.8239 7.95793 23.3812C7.62459 23.9489 7.07251 24.4854 6.31209 24.9854C5.56209 25.4958 4.5673 25.7562 3.33293 25.7562C2.6923 25.7562 2.0048 25.6624 1.27043 25.4854V23.277C1.81209 23.3604 2.29126 23.402 2.70793 23.402C3.46834 23.402 4.08293 23.2562 4.54126 22.9645C5.01001 22.6833 5.3798 22.3083 5.64543 21.8395C5.90584 21.3812 6.22876 20.7145 6.60376 19.8395L7.43709 17.7979L0.66626 0.422852H3.79126L8.89543 14.5062H9.10376L14.4371 0.422852H17.5621L9.02043 21.2145Z" fill="#690061"/>
</svg>
