<svg width="29" height="31" viewBox="0 0 29 31" fill="none" xmlns="http://www.w3.org/2000/svg">
<path d="M14.3123 30.5821C11.4634 30.5821 8.96338 29.9987 6.81234 28.8321C4.67171 27.6654 3.00505 25.9571 1.81234 23.7071C0.630045 21.4466 0.0415039 18.7175 0.0415039 15.5196C0.0415039 12.3268 0.630045 9.59768 1.81234 7.33205C3.00505 5.07163 4.67171 3.35289 6.81234 2.18622C8.96338 1.01955 11.4634 0.436218 14.3123 0.436218C17.1457 0.436218 19.6353 1.01955 21.7915 2.18622C23.9425 3.35289 25.6144 5.07163 26.8123 7.33205C28.005 9.59768 28.604 12.3268 28.604 15.5196C28.604 18.7175 28.005 21.4466 26.8123 23.7071C25.6144 25.9571 23.9425 27.6654 21.7915 28.8321C19.6353 29.9987 17.1457 30.5821 14.3123 30.5821ZM14.3123 24.3946C18.8123 24.3946 21.0623 21.4362 21.0623 15.5196C21.0623 12.4518 20.4842 10.2018 19.3332 8.76955C18.1769 7.34247 16.505 6.62372 14.3123 6.62372C9.79671 6.62372 7.5415 9.59247 7.5415 15.5196C7.5415 21.4362 9.79671 24.3946 14.3123 24.3946Z" fill="black"/>
</svg>
