<svg width="13" height="14" viewBox="0 0 13 14" fill="none" xmlns="http://www.w3.org/2000/svg">
<path d="M0.583008 1.18245H4.33301V3.01579H4.52051C4.78093 2.43245 5.21842 1.94287 5.83301 1.53662C6.45801 1.11995 7.20801 0.911621 8.08301 0.911621C9.74967 0.911621 10.9007 1.44287 11.5413 2.49495C12.1768 3.53662 12.4997 4.70329 12.4997 5.99495V13.87H8.77051V6.64079C8.77051 5.80745 8.58301 5.15641 8.20801 4.68245C7.84342 4.19808 7.30176 3.95329 6.58301 3.95329C5.81738 3.95329 5.24967 4.2137 4.87467 4.72412C4.51009 5.22412 4.33301 5.86475 4.33301 6.64079V13.87H0.583008V1.18245Z" fill="black"/>
</svg>
