<svg width="12" height="20" viewBox="0 0 12 20" fill="none" xmlns="http://www.w3.org/2000/svg">
<path d="M10.0656 19.3396V12.1937L9.81559 12.1312C9.29997 12.8708 8.67497 13.4125 7.94059 13.7562C7.20101 14.1 6.36247 14.2771 5.41976 14.2771C4.37809 14.2771 3.45101 14.0271 2.64893 13.5271C1.84163 13.0271 1.21143 12.2771 0.753092 11.2771C0.305176 10.2771 0.0864258 9.04789 0.0864258 7.58956C0.0864258 6.06352 0.3208 4.78748 0.794759 3.75623C1.26351 2.71456 1.91976 1.94373 2.75309 1.44373C3.59684 0.943726 4.5708 0.693726 5.66976 0.693726C6.52913 0.693726 7.30518 0.855184 8.00309 1.17289C8.71143 1.49581 9.31559 2.03747 9.81559 2.79789L10.0656 2.75623V0.922892H11.9823V19.3396H10.0656ZM6.04476 12.5479C6.83643 12.5479 7.52913 12.376 8.12809 12.0271C8.73747 11.6677 9.21143 11.1208 9.54476 10.3812C9.88851 9.63123 10.0656 8.70414 10.0656 7.58956C10.0656 5.83956 9.6958 4.54268 8.96143 3.69373C8.23747 2.84998 7.26351 2.42289 6.04476 2.42289C3.41976 2.42289 2.10726 4.14685 2.10726 7.58956C2.10726 9.28748 2.4458 10.5375 3.12809 11.3396C3.8208 12.1469 4.79476 12.5479 6.04476 12.5479Z" fill="black"/>
</svg>
