<svg width="58" height="74" viewBox="0 0 58 74" fill="none" xmlns="http://www.w3.org/2000/svg">
<path d="M57.0035 72.3618C57.1285 72.6013 57.0972 72.8409 56.9201 73.0909C56.7378 73.3305 56.493 73.4451 56.191 73.4451H43.691C43.2587 73.4451 42.9878 73.268 42.8785 72.9034L28.5451 32.4659L14.3993 72.9034C14.342 73.268 14.0451 73.4451 13.5035 73.4451H1.08679C0.654495 73.4451 0.362828 73.3305 0.211787 73.0909C0.0763699 72.8409 0.060745 72.6013 0.17012 72.3618L27.6493 1.46592C27.7587 1.10655 28.0555 0.924255 28.5451 0.924255C29.0295 0.924255 29.3368 1.10655 29.4618 1.46592L57.0035 72.3618Z" fill="#562A2A" fill-opacity="0.502"/>
</svg>
