<svg width="16" height="19" viewBox="0 0 16 19" fill="none" xmlns="http://www.w3.org/2000/svg">
<path d="M8.50537 18.4714C6.78141 18.4714 5.32308 18.0547 4.13037 17.2214C2.94808 16.388 2.06787 15.2995 1.48454 13.9505C0.911622 12.6068 0.630371 11.1901 0.630371 9.70052C0.630371 8.1901 0.911622 6.76302 1.48454 5.42969C2.06787 4.09635 2.95329 3.01302 4.1512 2.17969C5.34391 1.34635 6.80745 0.929688 8.54704 0.929688C10.8075 0.929688 12.6147 1.6901 13.9637 3.20052C15.3231 4.71615 16.0054 6.88802 16.0054 9.72135V10.4922H3.38037V10.7214C3.38037 11.6693 3.59391 12.5547 4.0262 13.388C4.45329 14.2109 5.05225 14.8776 5.81787 15.388C6.57829 15.9036 7.46891 16.1589 8.48454 16.1589C9.56787 16.1589 10.5054 15.8828 11.297 15.3255C12.0887 14.7734 12.672 14.0286 13.047 13.0964H15.7762C15.3283 14.6276 14.4897 15.9036 13.2554 16.9297C12.0314 17.9609 10.4481 18.4714 8.50537 18.4714ZM13.2762 8.55469C13.1929 6.6276 12.7189 5.23698 11.8595 4.38802C11.0106 3.52865 9.89079 3.09635 8.50537 3.09635C6.98975 3.09635 5.78141 3.60677 4.88037 4.61719C3.98975 5.61719 3.51579 6.92969 3.4637 8.55469H13.2762Z" fill="black"/>
</svg>
