<svg width="13" height="15" viewBox="0 0 13 15" fill="none" xmlns="http://www.w3.org/2000/svg">
<path d="M6.11312 14.2771C4.87354 14.2771 3.80062 14.0219 2.88395 13.5062C1.96729 12.9802 1.25895 12.2094 0.758952 11.1937C0.269368 10.1677 0.0297852 8.93331 0.0297852 7.48539C0.0297852 6.04268 0.269368 4.81352 0.758952 3.79789C1.25895 2.77185 1.96729 2.00102 2.88395 1.48539C3.80062 0.959351 4.87354 0.693726 6.11312 0.693726C7.34749 0.693726 8.4152 0.959351 9.32145 1.48539C10.2381 2.00102 10.936 2.77185 11.4256 3.79789C11.9256 4.81352 12.1756 6.04268 12.1756 7.48539C12.1756 8.93331 11.9256 10.1677 11.4256 11.1937C10.936 12.2094 10.2381 12.9802 9.32145 13.5062C8.4152 14.0219 7.34749 14.2771 6.11312 14.2771ZM6.11312 12.5479C7.4152 12.5479 8.40999 12.1416 9.09229 11.3187C9.78499 10.4854 10.134 9.20935 10.134 7.48539C10.134 5.75102 9.78499 4.47498 9.09229 3.65206C8.40999 2.83435 7.4152 2.42289 6.11312 2.42289C4.80583 2.42289 3.80062 2.83956 3.09229 3.67289C2.39437 4.49581 2.05062 5.76664 2.05062 7.48539C2.05062 9.20935 2.39437 10.4854 3.09229 11.3187C3.80062 12.1416 4.80583 12.5479 6.11312 12.5479Z" fill="black"/>
</svg>
