<svg width="13" height="20" viewBox="0 0 13 20" fill="none" xmlns="http://www.w3.org/2000/svg">
<path d="M6.60645 19.277C5.63249 19.277 4.78353 19.0895 4.06478 18.7145C3.34082 18.3395 2.77311 17.8395 2.35645 17.2145L2.10645 17.277V19.027H0.168945V0.672852H2.10645V7.90202L2.35645 7.94369C3.35645 6.44369 4.80436 5.69369 6.71061 5.69369C7.77832 5.69369 8.71582 5.94369 9.52311 6.44369C10.3408 6.93327 10.971 7.68848 11.4189 8.71452C11.8617 9.73014 12.0856 10.9854 12.0856 12.4854C12.0856 13.9749 11.846 15.2301 11.3773 16.2562C10.9033 17.2718 10.2575 18.027 9.43978 18.527C8.61686 19.027 7.67415 19.277 6.60645 19.277ZM6.12728 17.5479C8.75228 17.5479 10.0648 15.8604 10.0648 12.4854C10.0648 10.7354 9.71582 9.45931 9.02311 8.65202C8.34082 7.83431 7.37728 7.42285 6.12728 7.42285C4.90332 7.42285 3.92415 7.83952 3.18978 8.67285C2.46582 9.50619 2.10645 10.777 2.10645 12.4854C2.10645 14.1937 2.46582 15.4645 3.18978 16.2979C3.92415 17.1312 4.90332 17.5479 6.12728 17.5479Z" fill="black"/>
</svg>
