<svg width="23" height="24" viewBox="0 0 23 24" fill="none" xmlns="http://www.w3.org/2000/svg">
<path d="M10.376 23.4186C8.38639 23.4186 6.68848 22.9134 5.27181 21.8977C3.86556 20.8717 2.79264 19.4759 2.04264 17.7102C1.30306 15.9498 0.938477 13.955 0.938477 11.7311C0.938477 9.51233 1.31348 7.51233 2.06348 5.73108C2.82389 3.95504 3.92285 2.56441 5.35514 1.56441C6.79785 0.553995 8.51139 0.0435791 10.501 0.0435791C12.4854 0.0435791 14.0895 0.517538 15.3135 1.46025C16.5322 2.39254 17.4645 3.51233 18.1051 4.81441H18.3968V0.647746H22.1051V23.1269H18.3968V18.5227H18.1051C17.4072 19.8561 16.4385 21.0123 15.1885 21.9811C13.9385 22.9394 12.3343 23.4186 10.376 23.4186ZM11.5218 20.2727C13.7145 20.2727 15.3968 19.455 16.5635 17.8144C17.7301 16.179 18.3135 14.1477 18.3135 11.7311C18.3135 9.31441 17.7301 7.29358 16.5635 5.66858C15.3968 4.03316 13.7145 3.21025 11.5218 3.21025C9.27181 3.21025 7.56868 4.02275 6.41764 5.64775C5.26139 7.26233 4.68848 9.27275 4.68848 11.6894C4.68848 14.1373 5.26139 16.179 6.41764 17.8144C7.56868 19.455 9.27181 20.2727 11.5218 20.2727Z" fill="#690061"/>
</svg>
