<svg width="20" height="13" viewBox="0 0 20 13" fill="none" xmlns="http://www.w3.org/2000/svg">
<path d="M0.880859 0.858765H4.38086V2.73376H4.56836C4.62044 2.54106 4.76628 2.28585 5.00586 1.96293C5.24023 1.6296 5.58919 1.32751 6.04753 1.04626C6.51628 0.754598 7.0944 0.608765 7.77669 0.608765C8.53711 0.608765 9.17253 0.791057 9.67253 1.15043C10.1829 1.49939 10.5579 1.86918 10.7975 2.2546C11.0475 2.6296 11.1934 2.91085 11.235 3.08793H11.3809C11.5996 2.57751 11.9746 2.03585 12.5059 1.46293C13.0475 0.895223 13.9017 0.608765 15.0684 0.608765C16.1204 0.608765 16.9486 0.890015 17.5475 1.4421C18.1569 1.99939 18.5684 2.64002 18.7767 3.35876C18.9954 4.08272 19.11 4.76502 19.11 5.40043V12.8588H15.61V5.8171C15.61 5.09835 15.4225 4.55668 15.0475 4.1921C14.6725 3.8171 14.2194 3.6296 13.6934 3.6296C13.1621 3.6296 12.7038 3.82751 12.3184 4.21293C11.9434 4.58793 11.7559 5.12439 11.7559 5.8171V12.8588H8.23503V5.8171C8.23503 5.09835 8.04753 4.55668 7.67253 4.1921C7.30794 3.8171 6.86523 3.6296 6.33919 3.6296C5.80794 3.6296 5.34961 3.82751 4.96419 4.21293C4.57357 4.58793 4.38086 5.12439 4.38086 5.8171V12.8588H0.880859V0.858765Z" fill="black"/>
</svg>
