<svg width="18" height="26" viewBox="0 0 18 26" fill="none" xmlns="http://www.w3.org/2000/svg">
<path d="M9.11686 21.1203C8.75228 22.0057 8.39811 22.7297 8.05436 23.2869C7.72103 23.8547 7.16895 24.3911 6.40853 24.8911C5.65853 25.4015 4.66374 25.6619 3.42936 25.6619C2.78874 25.6619 2.10124 25.5682 1.36686 25.3911V23.1828C1.90853 23.2661 2.3877 23.3078 2.80436 23.3078C3.56478 23.3078 4.17936 23.1619 4.6377 22.8703C5.10644 22.589 5.47624 22.214 5.74186 21.7453C6.00228 21.2869 6.3252 20.6203 6.7002 19.7453L7.53353 17.7036L0.762695 0.328613H3.8877L8.99186 14.4119H9.2002L14.5335 0.328613H17.6585L9.11686 21.1203Z" fill="#690061"/>
</svg>
