<svg width="50" height="31" viewBox="0 0 50 31" fill="none" xmlns="http://www.w3.org/2000/svg">
<path d="M0.00341797 30.4351V1.06014H7.64925L8.71175 3.95597C10.8888 1.4716 13.8472 0.226807 17.5868 0.226807C21.6961 0.226807 24.842 1.74764 27.0243 4.78931C28.1753 3.3466 29.6284 2.22681 31.3784 1.43514C33.1388 0.633057 35.1336 0.226807 37.3576 0.226807C41.092 0.226807 44.0763 1.38827 46.3159 3.70597C48.5659 6.01327 49.6909 9.15389 49.6909 13.1226V30.4351H39.0243V14.1643C39.0243 12.581 38.6336 11.3414 37.8576 10.4351C37.0763 9.51847 36.0086 9.06014 34.6493 9.06014C33.2326 9.06014 32.1128 9.52889 31.2951 10.456C30.4878 11.3726 30.0868 12.6435 30.0868 14.2685V30.4351H19.5868V14.1643C19.5868 12.581 19.1961 11.3414 18.4201 10.4351C17.6388 9.51847 16.5711 9.06014 15.2118 9.06014C13.7951 9.06014 12.6753 9.52889 11.8576 10.456C11.0503 11.3726 10.6493 12.6435 10.6493 14.2685V30.4351H0.00341797Z" fill="#690061"/>
</svg>
