<svg width="22" height="24" viewBox="0 0 22 24" fill="none" xmlns="http://www.w3.org/2000/svg">
<path d="M11.1474 23.4159C8.86613 23.4159 6.93905 22.8742 5.35571 21.7909C3.7828 20.6971 2.5953 19.2596 1.79321 17.4784C1.00155 15.7023 0.605713 13.7857 0.605713 11.7284C0.605713 9.68671 1.00155 7.78046 1.79321 5.99921C2.5953 4.22317 3.7828 2.79087 5.35571 1.70754C6.93905 0.613791 8.86613 0.0617065 11.1474 0.0617065C13.4234 0.0617065 15.3453 0.613791 16.9182 1.70754C18.5015 2.79087 19.6786 4.22837 20.4599 6.02004C21.2515 7.81171 21.6474 9.71796 21.6474 11.7284C21.6474 13.7596 21.2411 15.6659 20.439 17.4575C19.6474 19.2492 18.4599 20.6971 16.8765 21.7909C15.3036 22.8742 13.3974 23.4159 11.1474 23.4159ZM11.1474 20.27C12.5328 20.27 13.7515 19.8898 14.7932 19.1242C15.8349 18.3482 16.6265 17.3117 17.1682 16.02C17.7099 14.7284 17.9807 13.2857 17.9807 11.6867C17.9807 9.244 17.3609 7.21796 16.1265 5.60337C14.9026 3.97837 13.2411 3.16587 11.1474 3.16587C9.73071 3.16587 8.50155 3.5565 7.45988 4.33254C6.41821 5.09817 5.62655 6.12421 5.08488 7.41587C4.54321 8.70754 4.27238 10.1346 4.27238 11.6867C4.27238 14.1346 4.88175 16.1763 6.10571 17.8117C7.32446 19.4523 9.00675 20.27 11.1474 20.27Z" fill="black"/>
</svg>
