<svg width="22" height="24" viewBox="0 0 22 24" fill="none" xmlns="http://www.w3.org/2000/svg">
<path d="M11.4038 23.4159C9.07048 23.4159 7.09652 22.8691 5.48714 21.7701C3.88818 20.6607 2.70068 19.218 1.92464 17.4368C1.15902 15.6607 0.778809 13.7597 0.778809 11.7284C0.778809 9.71802 1.15902 7.82219 1.92464 6.04093C2.70068 4.26489 3.88818 2.82739 5.48714 1.72843C7.09652 0.61906 9.07048 0.0617676 11.4038 0.0617676C14.3049 0.0617676 16.5809 0.905518 18.2371 2.5826C19.9038 4.24927 20.909 6.30656 21.258 8.74927H17.6746C17.4246 7.09823 16.7684 5.75968 15.7163 4.72843C14.659 3.68677 13.2371 3.16593 11.4455 3.16593C9.16422 3.16593 7.43506 3.98885 6.25798 5.62427C5.07568 7.24927 4.48714 9.28573 4.48714 11.7284C4.48714 14.1764 5.07568 16.218 6.25798 17.8534C7.43506 19.4941 9.16422 20.3118 11.4455 20.3118C13.2371 20.3118 14.659 19.8066 15.7163 18.7909C16.7684 17.7649 17.4246 16.4107 17.6746 14.7284H21.258C20.909 17.1764 19.9038 19.2389 18.2371 20.9159C16.5809 22.5826 14.3049 23.4159 11.4038 23.4159Z" fill="black"/>
</svg>
