<svg width="6" height="33" viewBox="0 0 6 33" fill="none" xmlns="http://www.w3.org/2000/svg">
<path d="M0.886393 5.12425V0.0200806H4.88639V5.12425L4.15723 24.2701H1.63639L0.886393 5.12425ZM2.88639 32.4992C2.23014 32.4992 1.67806 32.2701 1.21973 31.8117C0.761393 31.343 0.532227 30.7805 0.532227 30.1242C0.532227 29.4732 0.761393 28.9159 1.21973 28.4576C1.67806 27.9992 2.23014 27.7701 2.88639 27.7701C3.56348 27.7701 4.12598 27.9992 4.57389 28.4576C5.03223 28.9159 5.26139 29.4732 5.26139 30.1242C5.26139 30.7805 5.03223 31.343 4.57389 31.8117C4.12598 32.2701 3.56348 32.4992 2.88639 32.4992Z" fill="black"/>
</svg>
