<svg width="13" height="21" viewBox="0 0 13 21" fill="none" xmlns="http://www.w3.org/2000/svg">
<path d="M6.0599 20.5896C3.98698 20.5896 2.47656 20.2406 1.51823 19.5479C0.570312 18.8656 0.101562 17.9489 0.101562 16.7979C0.101562 16.0583 0.320312 15.475 0.768229 15.0479C1.21094 14.6208 1.85677 14.3083 2.70573 14.1104V13.8604C2.29948 13.6416 1.9974 13.376 1.78906 13.0687C1.59115 12.751 1.4974 12.376 1.4974 11.9437C1.4974 11.4437 1.65365 11.0375 1.97656 10.7146C2.29427 10.3969 2.77344 10.1521 3.41406 9.98539V9.73539C1.98177 8.98539 1.26823 7.76664 1.26823 6.06873C1.26823 5.22498 1.46094 4.46456 1.85156 3.79789C2.23698 3.13123 2.79427 2.62081 3.51823 2.25623C4.23698 1.88123 5.08073 1.69373 6.03906 1.69373C7.13281 1.69373 8.04948 1.93331 8.78906 2.40206C9.0651 2.09998 9.27344 1.77185 9.41406 1.42289C9.54948 1.06352 9.63281 0.662475 9.66406 0.214559L9.91406 0.0687256L11.5182 0.443726C11.4349 1.11039 11.2318 1.67289 10.9141 2.13123C10.5911 2.58956 10.1432 2.97498 9.5599 3.27706V3.52706C9.97656 3.86039 10.2786 4.25102 10.4766 4.69373C10.6849 5.14164 10.7891 5.66248 10.7891 6.25623C10.7891 7.07914 10.5859 7.81873 10.1849 8.48539C9.79427 9.14164 9.23698 9.65206 8.51823 10.0271C7.79427 10.4021 6.96615 10.5896 6.03906 10.5896C5.92448 10.5896 5.72656 10.5844 5.4349 10.5687C5.11198 10.5583 4.8776 10.5479 4.72656 10.5479C4.32031 10.5479 3.9974 10.6521 3.7474 10.8604C3.4974 11.0687 3.3724 11.3396 3.3724 11.6729C3.3724 12.0896 3.5026 12.3969 3.76823 12.5896C4.04427 12.7875 4.48698 12.8969 5.10156 12.9229L8.1849 13.0271C9.52865 13.0687 10.5234 13.3812 11.1641 13.9646C11.7995 14.5375 12.1224 15.3448 12.1224 16.4021C12.1224 17.1781 11.9141 17.8812 11.4974 18.5062C11.0807 19.1416 10.4141 19.6521 9.4974 20.0271C8.59115 20.4021 7.44531 20.5896 6.0599 20.5896ZM6.03906 8.92289C6.95573 8.92289 7.66406 8.68852 8.16406 8.21456C8.67448 7.73018 8.9349 7.04789 8.9349 6.17289C8.9349 5.27185 8.6849 4.57914 8.1849 4.08956C7.6849 3.58956 6.96615 3.33956 6.03906 3.33956C5.09115 3.33956 4.3776 3.58435 3.89323 4.06873C3.40365 4.55831 3.16406 5.25623 3.16406 6.17289C3.16406 7.04789 3.40365 7.73018 3.89323 8.21456C4.3776 8.68852 5.09115 8.92289 6.03906 8.92289ZM6.0599 18.9229C7.01823 18.9229 7.79948 18.8083 8.41406 18.5896C9.03906 18.3812 9.48177 18.0948 9.7474 17.7354C10.0078 17.3864 10.1432 16.9958 10.1432 16.5687C10.1432 16.1781 10.0651 15.8656 9.91406 15.6312C9.77344 15.3916 9.53906 15.2146 9.20573 15.0896C8.88281 14.9802 8.44531 14.9125 7.89323 14.8812L4.95573 14.7354H4.53906C2.89844 14.751 2.08073 15.3812 2.08073 16.6312C2.08073 18.1573 3.40365 18.9229 6.0599 18.9229Z" fill="black"/>
</svg>
