<svg width="16" height="24" viewBox="0 0 16 24" fill="none" xmlns="http://www.w3.org/2000/svg">
<path d="M6.38119 17.0963C6.38119 16.0963 6.6416 15.2213 7.17285 14.4713C7.69889 13.7109 8.49056 12.8359 9.54785 11.8463C10.5583 10.888 11.3239 10.0547 11.8395 9.34633C12.3499 8.62758 12.6104 7.79946 12.6104 6.86717C12.6104 5.60675 12.1937 4.63279 11.3604 3.9505C10.527 3.27342 9.44369 2.92967 8.11035 2.92967C6.99577 2.92967 6.08952 3.16925 5.38119 3.638C4.67285 4.09633 4.16243 4.67967 3.86035 5.388C3.55306 6.09633 3.40202 6.81508 3.40202 7.53383V7.65883H0.610352V7.53383C0.610352 6.14842 0.912434 4.90883 1.52702 3.8255C2.13639 2.73175 3.00619 1.87758 4.13119 1.263C5.2666 0.638 6.59473 0.3255 8.11035 0.3255C9.5791 0.3255 10.8656 0.606751 11.9645 1.15883C13.0583 1.71613 13.9072 2.48175 14.5062 3.4505C15.0999 4.42446 15.402 5.513 15.402 6.72133C15.402 7.59633 15.2354 8.40363 14.902 9.138C14.5687 9.86196 14.1572 10.4922 13.6729 11.0338C13.1989 11.5651 12.5791 12.1901 11.8187 12.9088C10.902 13.7578 10.2145 14.4818 9.75619 15.0755C9.30827 15.6745 9.08952 16.3463 9.08952 17.0963V17.3463H6.38119V17.0963ZM7.75619 23.5338C7.24056 23.5338 6.81869 23.3672 6.48535 23.0338C6.15202 22.6901 5.98535 22.2578 5.98535 21.7422C5.98535 21.2422 6.15202 20.8255 6.48535 20.4922C6.81869 20.1484 7.24056 19.9713 7.75619 19.9713C8.24056 19.9713 8.65202 20.1484 8.98535 20.4922C9.3291 20.8255 9.50619 21.2422 9.50619 21.7422C9.50619 22.2318 9.3291 22.6536 8.98535 23.013C8.65202 23.3568 8.24056 23.5338 7.75619 23.5338Z" fill="black"/>
</svg>
