<svg width="17" height="19" viewBox="0 0 17 19" fill="none" xmlns="http://www.w3.org/2000/svg">
<path d="M8.80762 18.4714C7.08366 18.4714 5.62533 18.0547 4.43262 17.2214C3.25033 16.388 2.37012 15.2995 1.78678 13.9505C1.21387 12.6068 0.932617 11.1901 0.932617 9.70052C0.932617 8.1901 1.21387 6.76302 1.78678 5.42969C2.37012 4.09635 3.25553 3.01302 4.45345 2.17969C5.64616 1.34635 7.1097 0.929688 8.84928 0.929688C11.1097 0.929688 12.917 1.6901 14.266 3.20052C15.6253 4.71615 16.3076 6.88802 16.3076 9.72135V10.4922H3.68262V10.7214C3.68262 11.6693 3.89616 12.5547 4.32845 13.388C4.75553 14.2109 5.35449 14.8776 6.12012 15.388C6.88053 15.9036 7.77116 16.1589 8.78678 16.1589C9.87012 16.1589 10.8076 15.8828 11.5993 15.3255C12.391 14.7734 12.9743 14.0286 13.3493 13.0964H16.0785C15.6305 14.6276 14.792 15.9036 13.5576 16.9297C12.3337 17.9609 10.7503 18.4714 8.80762 18.4714ZM13.5785 8.55469C13.4951 6.6276 13.0212 5.23698 12.1618 4.38802C11.3128 3.52865 10.193 3.09635 8.80762 3.09635C7.29199 3.09635 6.08366 3.60677 5.18262 4.61719C4.29199 5.61719 3.81803 6.92969 3.76595 8.55469H13.5785Z" fill="black"/>
</svg>
