<svg width="13" height="15" viewBox="0 0 13 15" fill="none" xmlns="http://www.w3.org/2000/svg">
<path d="M4.36247 14.4773C3.0708 14.4773 2.06038 14.1439 1.34163 13.4773C0.617675 12.8002 0.258301 11.8314 0.258301 10.5814C0.258301 9.80538 0.414551 9.15434 0.737467 8.62309C1.05518 8.08142 1.54997 7.64392 2.21663 7.31059C2.89372 6.97725 3.77913 6.72205 4.86247 6.53975C5.8208 6.37309 6.53955 6.196 7.02913 5.99809C7.52913 5.80538 7.86247 5.59184 8.02913 5.35225C8.1958 5.10225 8.27913 4.78975 8.27913 4.41475C8.27913 3.821 8.07601 3.36267 7.67497 3.03975C7.26872 2.72205 6.61768 2.56059 5.71663 2.56059C4.86768 2.56059 4.13851 2.72725 3.52913 3.06059C2.93018 3.39392 2.37288 3.88351 1.86247 4.51892H1.6333L0.674967 3.18559C1.22705 2.47725 1.93018 1.92517 2.77913 1.51892C3.63851 1.10225 4.61768 0.893921 5.71663 0.893921C7.2583 0.893921 8.38851 1.23767 9.11247 1.91475C9.84684 2.58142 10.2166 3.51371 10.2166 4.70642V11.6439C10.2166 12.3835 10.5291 12.7481 11.1541 12.7481C11.3468 12.7481 11.5396 12.7168 11.7375 12.6439L11.9041 12.6856L12.1333 14.0189C11.9927 14.1179 11.8052 14.196 11.5708 14.2481C11.3312 14.3002 11.0916 14.3314 10.8416 14.3314C10.1333 14.3314 9.59163 14.1752 9.21663 13.8523C8.85205 13.5345 8.61768 13.071 8.5083 12.4564L8.2583 12.4148C7.8833 13.1127 7.37289 13.6335 6.73747 13.9773C6.11247 14.3106 5.3208 14.4773 4.36247 14.4773ZM4.79997 12.9356C5.51872 12.9356 6.14372 12.7689 6.67497 12.4356C7.21663 12.0918 7.62289 11.6179 7.90413 11.0189C8.1958 10.4095 8.34163 9.70121 8.34163 8.89392V7.22725L8.11247 7.18559C7.8208 7.39392 7.46663 7.571 7.04997 7.70642C6.6333 7.84705 6.04997 7.97205 5.29997 8.08142C4.53434 8.18038 3.93018 8.34184 3.48747 8.56059C3.03955 8.76892 2.72184 9.03975 2.52913 9.37309C2.33122 9.696 2.23747 10.097 2.23747 10.5814C2.23747 11.347 2.45622 11.9304 2.90413 12.3314C3.36247 12.7377 3.99268 12.9356 4.79997 12.9356Z" fill="black"/>
</svg>
