<svg width="16" height="19" viewBox="0 0 16 19" fill="none" xmlns="http://www.w3.org/2000/svg">
<path d="M8.3208 18.4714C6.59684 18.4714 5.13851 18.0547 3.9458 17.2214C2.76351 16.388 1.8833 15.2995 1.29997 13.9505C0.727051 12.6068 0.445801 11.1901 0.445801 9.70052C0.445801 8.1901 0.727051 6.76302 1.29997 5.42969C1.8833 4.09635 2.76872 3.01302 3.96663 2.17969C5.15934 1.34635 6.62288 0.929688 8.36247 0.929688C10.6229 0.929688 12.4302 1.6901 13.7791 3.20052C15.1385 4.71615 15.8208 6.88802 15.8208 9.72135V10.4922H3.1958V10.7214C3.1958 11.6693 3.40934 12.5547 3.84163 13.388C4.26872 14.2109 4.86768 14.8776 5.6333 15.388C6.39372 15.9036 7.28434 16.1589 8.29997 16.1589C9.3833 16.1589 10.3208 15.8828 11.1125 15.3255C11.9041 14.7734 12.4875 14.0286 12.8625 13.0964H15.5916C15.1437 14.6276 14.3052 15.9036 13.0708 16.9297C11.8468 17.9609 10.2635 18.4714 8.3208 18.4714ZM13.0916 8.55469C13.0083 6.6276 12.5343 5.23698 11.675 4.38802C10.826 3.52865 9.70622 3.09635 8.3208 3.09635C6.80518 3.09635 5.59684 3.60677 4.6958 4.61719C3.80518 5.61719 3.33122 6.92969 3.27913 8.55469H13.0916Z" fill="black"/>
</svg>
