<svg width="17" height="20" viewBox="0 0 17 20" fill="none" xmlns="http://www.w3.org/2000/svg">
<path d="M0.365723 1.42253H3.34489V4.71419H3.61572C4.07406 3.66211 4.82406 2.77148 5.86572 2.04753C6.90739 1.31315 8.17822 0.943359 9.67822 0.943359C11.2303 0.943359 12.5324 1.31315 13.5741 2.04753C14.6157 2.77148 15.3761 3.72982 15.8657 4.92253C16.3657 6.10482 16.6157 7.39128 16.6157 8.77669V19.6934H13.6366V9.15169C13.6366 7.34961 13.1626 5.97461 12.2199 5.02669C11.2876 4.08398 10.0741 3.61003 8.57406 3.61003C6.9751 3.61003 5.70426 4.12565 4.76156 5.15169C3.81364 6.18294 3.34489 7.51628 3.34489 9.15169V19.6934H0.365723V1.42253Z" fill="#690061"/>
</svg>
