<svg width="35" height="32" viewBox="0 0 35 32" fill="none" xmlns="http://www.w3.org/2000/svg">
<path d="M17.3905 31.2685C14.1405 31.2685 11.2655 30.6122 8.76546 29.3101C6.26546 27.9924 4.31234 26.1643 2.9113 23.831C1.50504 21.4976 0.807129 18.7997 0.807129 15.7268C0.807129 12.6591 1.50504 9.96639 2.9113 7.64347C4.31234 5.32577 6.27067 3.51327 8.7863 2.20597C11.3123 0.888265 14.203 0.226807 17.453 0.226807C20.9634 0.226807 23.9842 0.976807 26.5155 2.47681C29.0571 3.97681 30.9842 6.09139 32.3071 8.81014C33.6248 11.5341 34.1873 14.7268 33.9946 18.3935H11.3488C11.7498 19.9768 12.5259 21.1799 13.6821 21.9976C14.8332 22.8206 16.1457 23.2268 17.6196 23.2268C18.7707 23.2268 19.828 23.0289 20.7863 22.6226C21.7446 22.206 22.5207 21.6435 23.1196 20.9351H33.453C32.1457 24.2008 30.0988 26.7424 27.3071 28.5601C24.5155 30.3674 21.2082 31.2685 17.3905 31.2685ZM11.4113 12.6226H23.8488C23.4009 11.2476 22.6509 10.1747 21.5988 9.39347C20.5415 8.61743 19.1925 8.22681 17.5571 8.22681C16.0832 8.22681 14.7967 8.61222 13.703 9.37264C12.6196 10.1226 11.854 11.206 11.4113 12.6226Z" fill="#690061"/>
</svg>
