<svg width="17" height="25" viewBox="0 0 17 25" fill="none" xmlns="http://www.w3.org/2000/svg">
<path d="M8.02376 24.4714C6.52376 24.4714 5.24251 24.0911 4.19043 23.3255C3.13314 22.5495 2.32585 21.5026 1.77376 20.1797C1.21647 18.862 0.94043 17.3672 0.94043 15.7005C0.94043 14.0234 1.21647 12.5234 1.77376 11.2005C2.32585 9.86719 3.13835 8.82552 4.21126 8.07552C5.27897 7.3151 6.57064 6.92969 8.08626 6.92969C9.57064 6.92969 10.779 7.29427 11.7113 8.01302C12.6383 8.72135 13.3258 9.55469 13.7738 10.513H14.0238V0.242188H16.7946V24.2422H14.0238V20.7839H13.7738C13.2581 21.8151 12.5342 22.6901 11.6071 23.4089C10.6904 24.1172 9.49251 24.4714 8.02376 24.4714ZM8.8571 22.0964C10.5081 22.0964 11.7738 21.487 12.6488 20.263C13.5238 19.0286 13.9613 17.5078 13.9613 15.7005C13.9613 13.8828 13.5238 12.3672 12.6488 11.1589C11.7738 9.94011 10.5081 9.32552 8.8571 9.32552C7.15918 9.32552 5.88314 9.94011 5.02376 11.1589C4.1748 12.3672 3.75293 13.8828 3.75293 15.7005C3.75293 17.5339 4.18001 19.0651 5.0446 20.2839C5.9196 21.4922 7.19043 22.0964 8.8571 22.0964Z" fill="black"/>
</svg>
