<svg width="30" height="30" viewBox="0 0 30 30" fill="none" xmlns="http://www.w3.org/2000/svg">
<path d="M0.804688 29.1733V1.52743H8.01302L9.05469 4.36076C10.0651 3.20972 11.3568 2.31909 12.9297 1.69409C14.4974 1.06909 16.2057 0.756592 18.0547 0.756592C21.5964 0.756592 24.3984 1.86076 26.4714 4.06909C28.5547 6.27743 29.5964 9.25138 29.5964 12.9858V29.1733H19.5547V14.0274C19.5547 12.392 19.1797 11.1524 18.4297 10.3191C17.6901 9.47534 16.6589 9.04826 15.3255 9.04826C13.9349 9.04826 12.8359 9.50659 12.0339 10.4233C11.2422 11.3295 10.8464 12.6108 10.8464 14.2774V29.1733H0.804688Z" fill="#690061"/>
</svg>
