<svg width="12" height="14" viewBox="0 0 12 14" fill="none" xmlns="http://www.w3.org/2000/svg">
<path d="M5.85612 13.0671C4.57487 13.0671 3.50195 12.7911 2.62695 12.2338C1.76237 11.6661 1.11654 10.9161 0.689453 9.98376C0.272786 9.04106 0.0644531 7.99939 0.0644531 6.85876C0.0644531 5.72335 0.272786 4.68168 0.689453 3.73376C1.11654 2.79106 1.76237 2.03585 2.62695 1.46293C3.50195 0.895223 4.57487 0.608765 5.85612 0.608765C7.11654 0.608765 8.17904 0.895223 9.04362 1.46293C9.91862 2.02022 10.5645 2.77022 10.9811 3.71293C11.4082 4.66085 11.627 5.70251 11.627 6.83793C11.627 7.96293 11.4082 8.99939 10.9811 9.9421C10.5645 10.89 9.91862 11.6452 9.04362 12.2129C8.17904 12.7858 7.11654 13.0671 5.85612 13.0671ZM5.85612 10.2338C6.63216 10.2338 7.21029 9.91085 7.58529 9.2546C7.9707 8.60356 8.16862 7.79106 8.16862 6.8171C8.16862 5.83272 7.9707 5.02543 7.58529 4.40043C7.21029 3.76502 6.63216 3.4421 5.85612 3.4421C5.06445 3.4421 4.48112 3.76502 4.10612 4.40043C3.73112 5.04106 3.54362 5.84835 3.54362 6.8171C3.54362 7.79106 3.73112 8.60356 4.10612 9.2546C4.49154 9.91085 5.07487 10.2338 5.85612 10.2338Z" fill="black"/>
</svg>
