<svg width="18" height="20" viewBox="0 0 18 20" fill="none" xmlns="http://www.w3.org/2000/svg">
<path d="M8.21061 19.8491C6.58561 19.8491 5.2002 19.4325 4.06478 18.5991C2.92415 17.7658 2.04915 16.6356 1.43978 15.2033C0.84082 13.7762 0.543945 12.1564 0.543945 10.3491C0.543945 8.54704 0.846028 6.92204 1.46061 5.47412C2.06999 4.03141 2.96061 2.9012 4.12728 2.07829C5.29395 1.26058 6.68978 0.849121 8.31478 0.849121C9.92415 0.849121 11.2314 1.23454 12.2314 1.99495C13.2314 2.76058 13.9814 3.67204 14.4814 4.72412H14.7314V1.32829H17.7523V19.5991H14.7314V15.8491H14.4814C13.9242 16.9325 13.1377 17.87 12.1273 18.6616C11.1117 19.4533 9.80436 19.8491 8.21061 19.8491ZM9.14811 17.2866C10.9242 17.2866 12.2835 16.62 13.2314 15.2866C14.1742 13.9533 14.6481 12.3075 14.6481 10.3491C14.6481 8.38037 14.1742 6.73454 13.2314 5.41162C12.2835 4.07829 10.9242 3.41162 9.14811 3.41162C7.31478 3.41162 5.92936 4.07308 5.00228 5.39079C4.06999 6.71371 3.60645 8.34912 3.60645 10.3075C3.60645 12.297 4.06999 13.9533 5.00228 15.2866C5.92936 16.62 7.31478 17.2866 9.14811 17.2866Z" fill="#690061"/>
</svg>
