<svg width="8" height="17" viewBox="0 0 8 17" fill="none" xmlns="http://www.w3.org/2000/svg">
<path d="M5.04362 6.48376V13.4213C5.04362 13.9786 5.06966 14.39 5.12695 14.6504C5.17904 14.9161 5.31966 15.1244 5.54362 15.2754C5.77799 15.4317 6.1582 15.5046 6.68945 15.5046C7.06445 15.5046 7.46029 15.4525 7.87695 15.3379V16.7546C7.76237 16.7963 7.52799 16.8379 7.16862 16.8796C6.81966 16.9213 6.46029 16.9421 6.08529 16.9421C5.21029 16.9421 4.55404 16.8171 4.12695 16.5671C3.69466 16.3171 3.4082 15.9786 3.27279 15.5463C3.14779 15.1192 3.08529 14.5463 3.08529 13.8379V6.48376H0.876953V4.92126H3.08529V0.983765H5.04362V4.92126H7.87695V6.48376H5.04362Z" fill="black"/>
</svg>
