<svg width="17" height="20" viewBox="0 0 17 20" fill="none" xmlns="http://www.w3.org/2000/svg">
<path d="M8.66976 19.1973C6.79476 19.1973 5.21663 18.7493 3.94059 17.8431C2.65934 16.9421 1.71143 15.7598 1.08643 14.3014C0.461426 12.8431 0.148926 11.3118 0.148926 9.69727C0.148926 8.06185 0.461426 6.52018 1.08643 5.07227C1.71143 3.62956 2.66976 2.45768 3.96143 1.55143C5.25309 0.650391 6.83643 0.197266 8.71143 0.197266C11.1541 0.197266 13.1125 1.02018 14.5864 2.6556C16.0552 4.29622 16.7948 6.65039 16.7948 9.7181V10.5514H3.12809V10.8014C3.12809 11.8171 3.35726 12.7754 3.81559 13.6764C4.28434 14.5827 4.93018 15.3119 5.75309 15.8639C6.58643 16.4212 7.54997 16.6973 8.64893 16.6973C9.81559 16.6973 10.826 16.4004 11.6906 15.8014C12.55 15.1921 13.1802 14.3796 13.5864 13.3639H16.5448C16.0552 15.0306 15.1489 16.4212 13.8156 17.5306C12.4927 18.6452 10.7791 19.1973 8.66976 19.1973ZM13.8364 8.44727C13.7375 6.36393 13.2218 4.86393 12.2948 3.94727C11.3781 3.02018 10.1698 2.55143 8.66976 2.55143C7.02913 2.55143 5.72184 3.0931 4.75309 4.17643C3.77913 5.25977 3.2583 6.68685 3.19059 8.44727H13.8364Z" fill="black"/>
</svg>
