<svg width="14" height="31" viewBox="0 0 14 31" fill="none" xmlns="http://www.w3.org/2000/svg">
<path d="M8.23714 10.5826V23.6451C8.23714 24.7024 8.28402 25.4784 8.38298 25.9784C8.47673 26.468 8.74756 26.8534 9.19548 27.1451C9.63818 27.4263 10.3621 27.5617 11.3621 27.5617C12.0392 27.5617 12.7788 27.468 13.5705 27.2701V29.9159C13.3726 29.9992 12.9351 30.0826 12.258 30.1659C11.5913 30.2492 10.9038 30.2909 10.1955 30.2909C8.55485 30.2909 7.32568 30.0617 6.50798 29.6034C5.70068 29.1347 5.17464 28.494 4.92464 27.6867C4.68506 26.869 4.57048 25.7909 4.57048 24.4576V10.5826H0.403809V7.64508H4.57048V0.270081H8.23714V7.64508H13.5705V10.5826H8.23714Z" fill="black"/>
</svg>
