<svg width="14" height="15" viewBox="0 0 14 15" fill="none" xmlns="http://www.w3.org/2000/svg">
<path d="M7.18066 14.8706C5.73275 14.8706 4.51921 14.5269 3.53483 13.829C2.54525 13.1363 1.81087 12.2352 1.3265 11.1206C0.852539 9.99565 0.618164 8.80815 0.618164 7.55815C0.618164 6.29773 0.852539 5.11023 1.3265 3.99565C1.81087 2.88627 2.55566 1.99044 3.55566 1.30815C4.55566 0.615438 5.76921 0.266479 7.2015 0.266479C9.08692 0.266479 10.5973 0.901896 11.7223 2.16231C12.8577 3.41231 13.4307 5.22481 13.4307 7.59981V8.22481H2.90983V8.41231C2.90983 9.20398 3.08691 9.94877 3.4515 10.6415C3.81087 11.3238 4.31087 11.8811 4.9515 12.3081C5.58692 12.7404 6.3265 12.954 7.15983 12.954C8.06087 12.954 8.83692 12.7248 9.49316 12.2665C10.1598 11.7977 10.6494 11.1727 10.9723 10.3915H13.2432C12.8682 11.6727 12.165 12.7404 11.139 13.5998C10.1234 14.4488 8.80566 14.8706 7.18066 14.8706ZM11.1598 6.59981C11.0869 5.00606 10.6911 3.84981 9.97233 3.14148C9.264 2.43315 8.33171 2.07898 7.18066 2.07898C5.91504 2.07898 4.90983 2.49565 4.15983 3.32898C3.42025 4.16231 3.02441 5.25606 2.97233 6.59981H11.1598Z" fill="black"/>
</svg>
