<svg width="11" height="14" viewBox="0 0 11 14" fill="none" xmlns="http://www.w3.org/2000/svg">
<path d="M10.6146 12.8588H8.63542V10.5879H8.51042C8.1875 11.2858 7.69792 11.8744 7.03125 12.3588C6.375 12.8327 5.57812 13.0671 4.63542 13.0671C3.63542 13.0671 2.80208 12.8275 2.13542 12.3379C1.46875 11.8536 0.979166 11.2286 0.677083 10.4629C0.369791 9.68689 0.21875 8.84835 0.21875 7.9421V0.921265H2.15625V7.6921C2.15625 8.85876 2.44792 9.7546 3.03125 10.3796C3.625 11.0046 4.40625 11.3171 5.36458 11.3171C6.34896 11.3171 7.14062 10.9838 7.73958 10.3171C8.33333 9.64002 8.63542 8.76502 8.63542 7.6921V0.921265H10.6146V12.8588Z" fill="black"/>
</svg>
