<svg width="22" height="24" viewBox="0 0 22 24" fill="none" xmlns="http://www.w3.org/2000/svg">
<path d="M11.1379 23.4159C8.83065 23.4159 6.88794 22.8691 5.30461 21.7701C3.73169 20.6607 2.55981 19.2076 1.78377 17.4159C1.01815 15.6243 0.637939 13.7284 0.637939 11.7284C0.637939 9.71802 1.01815 7.82219 1.78377 6.04093C2.55981 4.26489 3.74211 2.82739 5.32544 1.72843C6.91919 0.61906 8.87231 0.0617676 11.1796 0.0617676C14.19 0.0617676 16.6015 1.07218 18.4088 3.0826C20.2109 5.09823 21.1171 7.99406 21.1171 11.7701V12.8118H4.30461V13.1034C4.30461 14.3534 4.58586 15.5357 5.15877 16.6451C5.72648 17.7597 6.52336 18.6555 7.55461 19.3326C8.58065 20.0149 9.76294 20.3534 11.0963 20.3534C12.539 20.3534 13.789 19.9889 14.8463 19.2493C15.8984 18.5149 16.6848 17.5149 17.2004 16.2493H20.8254C20.2265 18.3066 19.1067 20.0149 17.4713 21.3743C15.8306 22.7389 13.7213 23.4159 11.1379 23.4159ZM17.4921 10.2076C17.3775 7.65552 16.7525 5.80656 15.6171 4.66593C14.4765 3.53052 12.9817 2.9576 11.1379 2.9576C9.12231 2.9576 7.51815 3.62427 6.32544 4.9576C5.12752 6.29093 4.49211 8.04093 4.40877 10.2076H17.4921Z" fill="black"/>
</svg>
