<svg width="12" height="14" viewBox="0 0 12 14" fill="none" xmlns="http://www.w3.org/2000/svg">
<path d="M6.53109 13.0254C5.30713 13.0254 4.27067 12.7337 3.42692 12.1504C2.59359 11.5566 1.96859 10.7858 1.55192 9.83789C1.14567 8.87956 0.947754 7.87435 0.947754 6.81706C0.947754 5.73372 1.14567 4.72331 1.55192 3.77539C1.96859 2.83268 2.5988 2.06706 3.44775 1.48372C4.2915 0.889975 5.32796 0.587891 6.55192 0.587891C8.1613 0.587891 9.44775 1.12956 10.4061 2.21289C11.3644 3.28581 11.8436 4.82747 11.8436 6.83789V7.37956H2.90609V7.52539C2.90609 8.19206 3.05713 8.82747 3.36442 9.42122C3.6665 10.0046 4.09359 10.4785 4.63525 10.8379C5.17692 11.2025 5.80192 11.3796 6.51025 11.3796C7.2863 11.3796 7.95296 11.1868 8.51025 10.7962C9.06234 10.4108 9.479 9.87956 9.76025 9.21289H11.6769C11.354 10.2962 10.7603 11.2077 9.88525 11.9421C9.02067 12.666 7.90609 13.0254 6.53109 13.0254ZM9.90609 5.98372C9.8488 4.62435 9.51546 3.64518 8.90609 3.04622C8.30713 2.43685 7.51546 2.12956 6.53109 2.12956C5.45817 2.12956 4.604 2.49414 3.96859 3.21289C3.32796 3.92122 2.98942 4.84831 2.94775 5.98372H9.90609Z" fill="black"/>
</svg>
