<svg width="14" height="15" viewBox="0 0 14 15" fill="none" xmlns="http://www.w3.org/2000/svg">
<path d="M7.03296 14.8708C5.58504 14.8708 4.3715 14.527 3.38713 13.8291C2.39754 13.1364 1.66317 12.2354 1.17879 11.1208C0.704834 9.99577 0.470459 8.80827 0.470459 7.55827C0.470459 6.29785 0.704834 5.11035 1.17879 3.99577C1.66317 2.88639 2.40796 1.99056 3.40796 1.30827C4.40796 0.61556 5.6215 0.266602 7.05379 0.266602C8.93921 0.266602 10.4496 0.902018 11.5746 2.16243C12.71 3.41244 13.283 5.22494 13.283 7.59994V8.22494H2.76213V8.41244C2.76213 9.2041 2.93921 9.94889 3.30379 10.6416C3.66317 11.3239 4.16317 11.8812 4.80379 12.3083C5.43921 12.7406 6.17879 12.9541 7.01213 12.9541C7.91317 12.9541 8.68921 12.7249 9.34546 12.2666C10.0121 11.7979 10.5017 11.1729 10.8246 10.3916H13.0955C12.7205 11.6729 12.0173 12.7406 10.9913 13.5999C9.97567 14.4489 8.65796 14.8708 7.03296 14.8708ZM11.0121 6.59994C10.9392 5.00619 10.5434 3.84994 9.82463 3.1416C9.11629 2.43327 8.184 2.0791 7.03296 2.0791C5.76733 2.0791 4.76213 2.49577 4.01213 3.3291C3.27254 4.16244 2.87671 5.25619 2.82463 6.59994H11.0121Z" fill="black"/>
</svg>
