<svg width="56" height="74" viewBox="0 0 56 74" fill="none" xmlns="http://www.w3.org/2000/svg">
<path d="M42.0326 60.1118H55.9076V72.6326C55.9076 73.1743 55.5743 73.4451 54.9076 73.4451H43.1368C39.5118 73.4451 35.7306 73.1743 31.8035 72.6326C27.8712 72.0909 24.0587 71.0805 20.366 69.5909C16.6837 68.1066 13.3451 66.0232 10.3451 63.3409C7.35555 60.6482 4.99097 57.1743 3.24097 52.9243C1.49097 48.6638 0.615967 43.419 0.615967 37.1951C0.615967 30.7784 1.50138 25.3982 3.28263 21.0493C5.0743 16.7055 7.45972 13.2055 10.4493 10.5493C13.4337 7.88259 16.7878 5.85655 20.5118 4.46592C24.2306 3.0805 28.0378 2.14301 31.9285 1.65342C35.8295 1.16905 39.5639 0.924255 43.1368 0.924255H54.9076C55.5743 0.924255 55.9076 1.19509 55.9076 1.73676V30.2159H42.0326V14.1534C36.7826 13.8618 32.0847 14.4607 27.9493 15.9451C23.8087 17.419 20.5431 19.893 18.1576 23.3618C15.767 26.8357 14.5743 31.4451 14.5743 37.1951C14.5743 41.669 15.2201 45.3565 16.5118 48.2576C17.8139 51.1482 19.5378 53.4138 21.6785 55.0493C23.8295 56.6743 26.142 57.8722 28.616 58.6326C31.1003 59.3826 33.517 59.8357 35.866 59.9868C38.2253 60.143 40.2826 60.1847 42.0326 60.1118Z" fill="#562A2A" fill-opacity="0.502"/>
</svg>
