<svg width="11" height="24" viewBox="0 0 11 24" fill="none" xmlns="http://www.w3.org/2000/svg">
<path d="M6.48031 8.59631V18.388C6.48031 19.1692 6.51156 19.7421 6.58447 20.1171C6.66781 20.4921 6.86572 20.7942 7.18864 21.013C7.52197 21.2213 8.06364 21.3255 8.81364 21.3255C9.32406 21.3255 9.88135 21.2526 10.4803 21.0963V23.0755C10.3241 23.1484 10.0011 23.2109 9.50114 23.263C9.00114 23.3307 8.48031 23.3671 7.93864 23.3671C6.69906 23.3671 5.77718 23.1953 5.16781 22.8463C4.56885 22.4869 4.17822 22.0078 4.00114 21.4088C3.81885 20.7994 3.73031 19.9921 3.73031 18.9921V8.59631H0.584473V6.38798H3.73031V0.846313H6.48031V6.38798H10.4803V8.59631H6.48031Z" fill="black"/>
</svg>
