<svg width="10" height="14" viewBox="0 0 10 14" fill="none" xmlns="http://www.w3.org/2000/svg">
<path d="M5.18083 13.8498C4.14958 13.8498 3.26416 13.6519 2.51416 13.2456C1.76416 12.829 1.18603 12.3029 0.784994 11.6623C0.394368 11.0269 0.20166 10.3498 0.20166 9.64148V9.53731H2.26416V9.62065C2.26416 10.0269 2.37353 10.4279 2.59749 10.829C2.83187 11.2196 3.17041 11.5373 3.61833 11.7873C4.06103 12.0269 4.6027 12.1415 5.24333 12.1415C6.01937 12.1415 6.65999 11.954 7.15999 11.579C7.65999 11.204 7.90999 10.6936 7.90999 10.0373C7.90999 9.49565 7.71208 9.06856 7.32666 8.74565C6.93604 8.42794 6.44124 8.2196 5.84749 8.12065L4.20166 7.87065C3.15999 7.7196 2.28499 7.36544 1.57666 6.80815C0.868327 6.25606 0.51416 5.44877 0.51416 4.39148C0.51416 3.22481 0.930827 2.32377 1.76416 1.68315C2.60791 1.0321 3.69124 0.703979 5.01416 0.703979C5.98291 0.703979 6.81624 0.886271 7.51416 1.24565C8.20687 1.61023 8.73291 2.07898 9.09749 2.66231C9.47249 3.24565 9.65999 3.88106 9.65999 4.55815V4.66231H7.59749V4.62065C7.59749 4.30294 7.51416 3.9696 7.34749 3.62065C7.18083 3.26127 6.89437 2.95398 6.49333 2.70398C6.08708 2.44356 5.57666 2.30815 4.95166 2.30815C4.18603 2.30815 3.56624 2.49565 3.09749 2.87065C2.63916 3.24565 2.40999 3.74044 2.40999 4.34981C2.40999 4.84981 2.58708 5.26127 2.95166 5.57898C3.32666 5.9019 3.79541 6.11023 4.36833 6.20398L6.15999 6.47481C7.21208 6.6571 8.1027 7.0269 8.82666 7.57898C9.54541 8.13627 9.90999 8.94877 9.90999 10.0165C9.90999 10.7821 9.70166 11.454 9.28499 12.0373C8.87874 12.6102 8.31624 13.0529 7.59749 13.3706C6.87354 13.6884 6.06624 13.8498 5.18083 13.8498Z" fill="black"/>
</svg>
