<svg width="17" height="19" viewBox="0 0 17 19" fill="none" xmlns="http://www.w3.org/2000/svg">
<path d="M0.285645 0.676432H3.26481V3.9681H3.53564C3.99398 2.91602 4.74398 2.02539 5.78564 1.30143C6.82731 0.567058 8.09814 0.197266 9.59814 0.197266C11.1502 0.197266 12.4523 0.567058 13.494 1.30143C14.5356 2.02539 15.2961 2.98372 15.7856 4.17643C16.2856 5.35872 16.5356 6.64518 16.5356 8.0306V18.9473H13.5565V8.4056C13.5565 6.60352 13.0825 5.22852 12.1398 4.2806C11.2075 3.33789 9.99398 2.86393 8.49398 2.86393C6.89502 2.86393 5.62419 3.37956 4.68148 4.4056C3.73356 5.43685 3.26481 6.77018 3.26481 8.4056V18.9473H0.285645V0.676432Z" fill="black"/>
</svg>
