<svg width="55" height="52" viewBox="0 0 55 52" fill="none" xmlns="http://www.w3.org/2000/svg">
<path d="M27.7377 51.5369C22.4148 51.5369 17.7169 50.464 13.6335 48.3286C9.56063 46.1775 6.37313 43.1984 4.07104 39.3911C1.77938 35.589 0.633545 31.1775 0.633545 26.1619C0.633545 21.1515 1.77938 16.7557 4.07104 12.9744C6.37313 9.19837 9.58146 6.24003 13.696 4.09941C17.8054 1.94836 22.519 0.870239 27.8419 0.870239C33.5763 0.870239 38.5138 2.0942 42.6544 4.53691C46.7898 6.98482 49.9304 10.4275 52.071 14.8702C54.2221 19.3182 55.144 24.5317 54.8419 30.5161H17.8627C18.5294 33.115 19.7898 35.0786 21.6544 36.4119C23.5294 37.7348 25.6804 38.3911 28.1127 38.3911C29.9721 38.3911 31.6856 38.0577 33.2585 37.3911C34.8419 36.7244 36.1127 35.8234 37.071 34.6827H53.946C51.8315 40.0057 48.4929 44.1411 43.9252 47.0994C39.3523 50.0577 33.9565 51.5369 27.7377 51.5369ZM17.946 21.0786H38.2585C37.5346 18.8442 36.3106 17.0942 34.5919 15.8286C32.8679 14.5525 30.6752 13.9119 28.0085 13.9119C25.5919 13.9119 23.4877 14.5369 21.696 15.7869C19.9148 17.0265 18.6648 18.7869 17.946 21.0786Z" fill="#690061"/>
</svg>
