<svg width="15" height="31" viewBox="0 0 15 31" fill="none" xmlns="http://www.w3.org/2000/svg">
<path d="M8.77913 10.9221V23.9846C8.77913 25.0262 8.82601 25.7971 8.92497 26.2971C9.03434 26.7971 9.30518 27.1929 9.73747 27.4846C10.1802 27.7658 10.9041 27.9012 11.9041 27.9012C12.5812 27.9012 13.3208 27.8075 14.1125 27.6096V30.2554C13.9146 30.3387 13.4875 30.4221 12.8208 30.5054C12.1541 30.5887 11.4666 30.6304 10.7583 30.6304C9.10205 30.6304 7.86768 30.4012 7.04997 29.9429C6.24268 29.4742 5.71663 28.8335 5.46663 28.0262C5.22705 27.2085 5.11247 26.1304 5.11247 24.7971V10.9221H0.945801V7.98458H5.11247V0.588745H8.77913V7.98458H14.1125V10.9221H8.77913Z" fill="#690061"/>
</svg>
