<svg width="21" height="32" viewBox="0 0 21 32" fill="none" xmlns="http://www.w3.org/2000/svg">
<path d="M0.916504 27.9186L8.08317 21.4811L8.854 20.8353C10.6717 19.252 12.104 17.9395 13.1457 16.8978C14.1873 15.8561 15.0519 14.7259 15.7498 13.502C16.4425 12.2832 16.7915 11.002 16.7915 9.66862C16.7915 8.04362 16.2967 6.66862 15.3123 5.54362C14.3384 4.41862 12.8592 3.85612 10.8748 3.85612C8.51025 3.85612 6.90088 4.52279 6.0415 5.85612C5.19255 7.17904 4.77067 8.62695 4.77067 10.2103V10.5228H1.14567C1.14567 8.81445 1.46859 7.2207 2.12484 5.73112C2.77588 4.23112 3.83317 3.01237 5.2915 2.06445C6.76025 1.10612 8.62484 0.626953 10.8748 0.626953C12.9998 0.626953 14.7707 1.05404 16.1873 1.89779C17.6144 2.73112 18.6665 3.82487 19.3332 5.16862C19.9998 6.51758 20.3332 7.97591 20.3332 9.54362C20.3332 11.2832 19.9478 12.8874 19.1873 14.3561C18.4217 15.8145 17.4842 17.1217 16.3748 18.2728C15.2603 19.4134 13.7394 20.8249 11.8123 22.502L5.95817 27.627V27.8353H20.6457V31.127H0.916504V27.9186Z" fill="#690061"/>
</svg>
