<svg width="12" height="18" viewBox="0 0 12 18" fill="none" xmlns="http://www.w3.org/2000/svg">
<path d="M0.505859 0.921265H2.44336V8.0671H2.63086C2.93294 7.37439 3.42773 6.79106 4.11003 6.3171C4.78711 5.83272 5.61523 5.58793 6.58919 5.58793C7.59961 5.58793 8.44857 5.83272 9.13086 6.3171C9.80794 6.79106 10.3079 7.41606 10.6309 8.1921C10.9642 8.97335 11.1309 9.81189 11.1309 10.7129V17.8588H9.17253V10.9629C9.17253 9.78585 8.86523 8.89002 8.25586 8.27543C7.64128 7.65043 6.82878 7.33793 5.81836 7.33793C4.86003 7.33793 4.05273 7.66606 3.40169 8.3171C2.76107 8.97335 2.44336 9.85356 2.44336 10.9629V17.8588H0.505859V0.921265Z" fill="black"/>
</svg>
