<svg width="29" height="47" viewBox="0 0 29 47" fill="none" xmlns="http://www.w3.org/2000/svg">
<path d="M14.5251 46.3321C9.7334 46.3321 6.19173 45.6289 3.90007 44.2279C1.61882 42.8217 0.483398 40.8633 0.483398 38.3529C0.483398 36.8373 0.967773 35.5873 1.94173 34.6029C2.91048 33.6342 4.31673 32.9779 6.15007 32.6446V32.1029C5.16048 31.5092 4.45215 30.8477 4.02507 30.1237C3.59277 29.3894 3.37923 28.5404 3.37923 27.5821C3.37923 25.2487 4.90007 23.6758 7.94173 22.8529V22.3112C6.36882 21.4102 5.19173 20.3008 4.40007 18.9779C3.61882 17.6602 3.2334 16.0612 3.2334 14.1862C3.2334 12.2592 3.6709 10.5612 4.5459 9.10291C5.43131 7.63416 6.7334 6.48832 8.44173 5.66541C10.1605 4.8477 12.2126 4.43624 14.5876 4.43624C17.0146 4.43624 18.9469 4.86332 20.3792 5.70707C21.2803 4.40499 21.8011 2.90499 21.9417 1.20707L22.4834 0.852905L27.7334 2.14457C27.5667 3.5352 27.1553 4.70186 26.5042 5.64457C25.8636 6.57686 24.8584 7.4102 23.4834 8.14457V8.72791C25.1188 10.1758 25.9417 12.181 25.9417 14.7487C25.9417 16.5404 25.4886 18.155 24.5876 19.5821C23.6969 20.9987 22.4001 22.1237 20.6917 22.9571C18.9834 23.78 16.9469 24.1862 14.5876 24.1862L13.4834 24.1446C12.7855 24.1185 12.3011 24.1029 12.0251 24.1029C11.3584 24.1029 10.8271 24.2852 10.4417 24.6446C10.0667 25.0092 9.87923 25.4675 9.87923 26.0196C9.87923 26.6342 10.1188 27.1133 10.6084 27.4571C11.1084 27.7904 11.8271 27.9779 12.7751 28.0196L19.2751 28.2487C25.7022 28.4467 28.9209 31.2071 28.9209 36.5404C28.9209 38.4154 28.4417 40.0821 27.4834 41.5404C26.5251 43.0092 24.973 44.1758 22.8376 45.0404C20.6969 45.8998 17.9261 46.3321 14.5251 46.3321ZM14.5876 19.0821C15.9886 19.0821 17.0876 18.6758 17.8792 17.8529C18.6709 17.0196 19.0667 15.8425 19.0667 14.3112C19.0667 12.7852 18.6709 11.6185 17.8792 10.8112C17.0876 9.99353 15.9886 9.58207 14.5876 9.58207C13.1709 9.58207 12.0719 9.99353 11.2959 10.8112C10.5303 11.6185 10.1501 12.7852 10.1501 14.3112C10.1501 15.8529 10.5303 17.0352 11.2959 17.8529C12.0719 18.6758 13.1709 19.0821 14.5876 19.0821ZM14.5251 41.0404C17.0094 41.0404 18.8167 40.6862 19.9417 39.9779C21.0772 39.28 21.6501 38.3737 21.6501 37.2487C21.6501 36.3425 21.3584 35.6758 20.7751 35.2487C20.1917 34.8164 19.2751 34.5821 18.0251 34.5404L12.2751 34.2904C12.0771 34.2904 11.9001 34.2748 11.7334 34.2487C11.5667 34.2331 11.4053 34.2279 11.2542 34.2279C10.0146 34.2279 9.07715 34.4883 8.44173 35.0196C7.80111 35.5456 7.4834 36.2748 7.4834 37.2071C7.4834 38.4258 8.07194 39.3737 9.25423 40.0404C10.4313 40.7071 12.1917 41.0404 14.5251 41.0404Z" fill="black"/>
</svg>
