<svg width="22" height="24" viewBox="0 0 22 24" fill="none" xmlns="http://www.w3.org/2000/svg">
<path d="M10.7433 23.4159C8.46208 23.4159 6.53499 22.8743 4.95166 21.7909C3.37874 20.6972 2.19124 19.2597 1.38916 17.4784C0.597493 15.7024 0.20166 13.7857 0.20166 11.7284C0.20166 9.68677 0.597493 7.78052 1.38916 5.99927C2.19124 4.22323 3.37874 2.79093 4.95166 1.7076C6.53499 0.613852 8.46208 0.0617676 10.7433 0.0617676C13.0194 0.0617676 14.9412 0.613852 16.5142 1.7076C18.0975 2.79093 19.2746 4.22843 20.0558 6.0201C20.8475 7.81177 21.2433 9.71802 21.2433 11.7284C21.2433 13.7597 20.8371 15.6659 20.035 17.4576C19.2433 19.2493 18.0558 20.6972 16.4725 21.7909C14.8996 22.8743 12.9933 23.4159 10.7433 23.4159ZM10.7433 20.2701C12.1287 20.2701 13.3475 19.8899 14.3892 19.1243C15.4308 18.3482 16.2225 17.3118 16.7642 16.0201C17.3058 14.7284 17.5767 13.2857 17.5767 11.6868C17.5767 9.24406 16.9569 7.21802 15.7225 5.60343C14.4985 3.97843 12.8371 3.16593 10.7433 3.16593C9.32666 3.16593 8.09749 3.55656 7.05583 4.3326C6.01416 5.09823 5.22249 6.12427 4.68083 7.41593C4.13916 8.7076 3.86833 10.1347 3.86833 11.6868C3.86833 14.1347 4.4777 16.1764 5.70166 17.8118C6.92041 19.4524 8.6027 20.2701 10.7433 20.2701Z" fill="black"/>
</svg>
