<svg width="12" height="14" viewBox="0 0 12 14" fill="none" xmlns="http://www.w3.org/2000/svg">
<path d="M6.02279 13.0254C4.79883 13.0254 3.76237 12.7337 2.91862 12.1504C2.08529 11.5566 1.46029 10.7858 1.04362 9.83789C0.637369 8.87956 0.439453 7.87435 0.439453 6.81706C0.439453 5.73372 0.637369 4.72331 1.04362 3.77539C1.46029 2.83268 2.09049 2.06706 2.93945 1.48372C3.7832 0.889975 4.81966 0.587891 6.04362 0.587891C7.65299 0.587891 8.93945 1.12956 9.89779 2.21289C10.8561 3.28581 11.3353 4.82747 11.3353 6.83789V7.37956H2.39779V7.52539C2.39779 8.19206 2.54883 8.82747 2.85612 9.42122C3.1582 10.0046 3.58529 10.4785 4.12695 10.8379C4.66862 11.2025 5.29362 11.3796 6.00195 11.3796C6.77799 11.3796 7.44466 11.1868 8.00195 10.7962C8.55404 10.4108 8.9707 9.87956 9.25195 9.21289H11.1686C10.8457 10.2962 10.252 11.2077 9.37695 11.9421C8.51237 12.666 7.39779 13.0254 6.02279 13.0254ZM9.39779 5.98372C9.3405 4.62435 9.00716 3.64518 8.39779 3.04622C7.79883 2.43685 7.00716 2.12956 6.02279 2.12956C4.94987 2.12956 4.0957 2.49414 3.46029 3.21289C2.81966 3.92122 2.48112 4.84831 2.43945 5.98372H9.39779Z" fill="black"/>
</svg>
