<svg width="16" height="18" viewBox="0 0 16 18" fill="none" xmlns="http://www.w3.org/2000/svg">
<path d="M15.1348 17.2422H12.3639V14.0338H12.1556C11.7077 15.0234 11.0202 15.8568 10.0931 16.5338C9.16081 17.2005 8.0306 17.5338 6.69727 17.5338C5.2806 17.5338 4.09831 17.1953 3.1556 16.513C2.22331 15.8359 1.53581 14.9505 1.0931 13.8672C0.660807 12.7734 0.447266 11.5859 0.447266 10.3047V0.388H3.19727V9.9505C3.19727 11.5911 3.61393 12.8568 4.44727 13.7422C5.2806 14.6328 6.36914 15.0755 7.7181 15.0755C9.11914 15.0755 10.2441 14.6068 11.0931 13.6588C11.9368 12.7005 12.3639 11.4661 12.3639 9.9505V0.388H15.1348V17.2422Z" fill="black"/>
</svg>
