<svg width="45" height="52" viewBox="0 0 45 52" fill="none" xmlns="http://www.w3.org/2000/svg">
<path d="M22.4326 51.3229C17.9587 51.3229 14.0576 50.625 10.7243 49.2396C7.40137 47.8542 4.83366 45.875 3.01595 43.3021C1.20866 40.7344 0.307617 37.7552 0.307617 34.3646H17.3493C17.3493 35.8229 17.8337 37.0052 18.8076 37.9062C19.7764 38.8125 21.0472 39.2604 22.6201 39.2604C25.5212 39.2604 26.9743 38.1458 26.9743 35.9062C26.9743 34.7708 26.2764 33.7917 24.891 32.9688C23.5003 32.151 21.2035 31.4427 17.9951 30.8438C12.0055 29.6927 7.64095 27.8958 4.89095 25.4479C2.14095 23.0052 0.765951 19.7552 0.765951 15.6979C0.765951 10.8646 2.57845 7.15104 6.20345 4.55208C9.82845 1.95833 15.0576 0.65625 21.891 0.65625C28.5993 0.65625 33.7764 2.04688 37.4326 4.82292C41.0993 7.60417 43.0785 11.651 43.3701 16.9688H26.8701C26.6878 13.9427 24.9639 12.4271 21.7035 12.4271C20.4378 12.4271 19.4118 12.7188 18.6201 13.3021C17.8389 13.875 17.4535 14.6719 17.4535 15.6979C17.4535 16.8542 18.0993 17.7917 19.391 18.5104C20.693 19.2344 23.1618 19.9271 26.7868 20.5938C38.3285 22.8333 44.0993 27.9688 44.0993 36.0104C44.0993 40.7917 42.193 44.5417 38.391 47.2604C34.5837 49.9688 29.266 51.3229 22.4326 51.3229Z" fill="#690061"/>
</svg>
