<svg width="33" height="31" viewBox="0 0 33 31" fill="none" xmlns="http://www.w3.org/2000/svg">
<path d="M16.2088 30.0545C13.0005 30.0545 10.188 29.4399 7.77132 28.2212C5.35466 27.0024 3.46924 25.2837 2.12549 23.0754C0.792155 20.867 0.125488 18.3149 0.125488 15.4087C0.125488 12.5233 0.792155 9.98161 2.12549 7.78369C3.46924 5.59098 5.35466 3.88786 7.77132 2.67952C10.188 1.46078 13.0005 0.846191 16.2088 0.846191C19.4172 0.846191 22.2192 1.46078 24.6255 2.67952C27.0265 3.88786 28.8963 5.59098 30.2297 7.78369C31.5734 9.98161 32.2505 12.5233 32.2505 15.4087C32.2505 18.3149 31.5734 20.867 30.2297 23.0754C28.8963 25.2837 27.0265 27.0024 24.6255 28.2212C22.2192 29.4399 19.4172 30.0545 16.2088 30.0545ZM9.93799 15.4087C9.93799 17.2577 10.5265 18.7785 11.7088 19.9712C12.9015 21.1535 14.4015 21.742 16.2088 21.742C18.0526 21.742 19.5526 21.1535 20.7088 19.9712C21.8599 18.7785 22.438 17.2577 22.438 15.4087C22.438 13.5649 21.8599 12.0545 20.7088 10.8879C19.5526 9.72119 18.0526 9.13786 16.2088 9.13786C14.4015 9.13786 12.9015 9.72119 11.7088 10.8879C10.5265 12.0545 9.93799 13.5649 9.93799 15.4087Z" fill="#690061"/>
</svg>
