<svg width="20" height="66" viewBox="0 0 20 66" fill="none" xmlns="http://www.w3.org/2000/svg">
<path d="M1.72103 41.3854L0.721029 0.510437H19.221L18.221 41.3854H1.72103ZM0.262695 55.7188C0.262695 53 1.18457 50.75 3.03353 48.9688C4.87728 47.1771 7.18978 46.2813 9.97103 46.2813C12.8044 46.2813 15.1273 47.1771 16.9502 48.9688C18.7679 50.75 19.6794 53 19.6794 55.7188C19.6794 58.4427 18.7679 60.6979 16.9502 62.4896C15.1273 64.2656 12.8044 65.1563 9.97103 65.1563C7.18978 65.1563 4.87728 64.2656 3.03353 62.4896C1.18457 60.6979 0.262695 58.4427 0.262695 55.7188Z" fill="#690061"/>
</svg>
