<svg width="19" height="25" viewBox="0 0 19 25" fill="none" xmlns="http://www.w3.org/2000/svg">
<path d="M0.633789 0.67627H10.3421C11.9515 0.67627 13.2692 0.98877 14.3005 1.61377C15.3265 2.23877 16.0609 3.02523 16.5088 3.96794C16.9515 4.90023 17.1755 5.85856 17.1755 6.84294C17.1755 7.8846 16.9515 8.79085 16.5088 9.55127C16.0609 10.3169 15.5296 10.9054 14.9046 11.3221C14.2796 11.7388 13.6963 12.0044 13.1546 12.1138V12.3221C13.7484 12.3794 14.4463 12.6034 15.238 12.9888C16.04 13.3638 16.7484 13.9784 17.363 14.8221C17.9723 15.6554 18.2796 16.7179 18.2796 18.0096C18.2796 19.1659 18.014 20.27 17.488 21.3221C16.9723 22.3794 16.1598 23.2492 15.0505 23.9263C13.9359 24.6086 12.5505 24.9471 10.8838 24.9471H0.633789V0.67627ZM9.46712 11.3221C10.7848 11.3221 11.915 10.9836 12.863 10.3013C13.8057 9.62419 14.2796 8.5669 14.2796 7.1346C14.2796 5.77523 13.8213 4.78044 12.9046 4.15544C11.9984 3.53044 10.8525 3.21794 9.46712 3.21794H3.55046V11.3221H9.46712ZM10.1338 22.4263C11.6338 22.4263 12.8734 22.0825 13.863 21.3846C14.863 20.6919 15.363 19.5617 15.363 17.9888C15.363 16.4367 14.863 15.3325 13.863 14.6763C12.8734 14.0096 11.6338 13.6763 10.1338 13.6763H3.55046V22.4263H10.1338Z" fill="black"/>
</svg>
