<svg width="12" height="18" viewBox="0 0 12 18" fill="none" xmlns="http://www.w3.org/2000/svg">
<path d="M0.580566 0.921265H2.51807V8.0671H2.70557C3.00765 7.37439 3.50244 6.79106 4.18473 6.3171C4.86182 5.83272 5.68994 5.58793 6.6639 5.58793C7.67432 5.58793 8.52327 5.83272 9.20557 6.3171C9.88265 6.79106 10.3826 7.41606 10.7056 8.1921C11.0389 8.97335 11.2056 9.81189 11.2056 10.7129V17.8588H9.24723V10.9629C9.24723 9.78585 8.93994 8.89002 8.33057 8.27543C7.71598 7.65043 6.90348 7.33793 5.89307 7.33793C4.93473 7.33793 4.12744 7.66606 3.4764 8.3171C2.83577 8.97335 2.51807 9.85356 2.51807 10.9629V17.8588H0.580566V0.921265Z" fill="black"/>
</svg>
