<svg width="12" height="14" viewBox="0 0 12 14" fill="none" xmlns="http://www.w3.org/2000/svg">
<path d="M6.30062 13.8498C5.00895 13.8498 3.9152 13.5373 3.02979 12.9123C2.13916 12.2873 1.4777 11.4748 1.05062 10.4748C0.618327 9.4644 0.404785 8.39148 0.404785 7.26648C0.404785 6.14148 0.618327 5.07898 1.05062 4.07898C1.4777 3.07898 2.13916 2.26648 3.02979 1.64148C3.93083 1.01648 5.02979 0.703979 6.32145 0.703979C8.01416 0.703979 9.36833 1.2769 10.384 2.41231C11.41 3.53731 11.9256 5.17273 11.9256 7.30815V7.87065H2.46729V8.03731C2.46729 8.74565 2.62354 9.41231 2.94645 10.0373C3.26416 10.6623 3.70687 11.1727 4.27979 11.5581C4.86312 11.9331 5.52979 12.1206 6.27979 12.1206C7.09749 12.1206 7.80062 11.9123 8.38395 11.4956C8.9777 11.079 9.42562 10.5269 9.71729 9.82898H11.759C11.41 10.9696 10.7798 11.9279 9.86312 12.704C8.94645 13.4696 7.75895 13.8498 6.30062 13.8498ZM9.88395 6.41231C9.81104 4.9696 9.45687 3.92794 8.82145 3.28731C8.18083 2.6519 7.34229 2.32898 6.30062 2.32898C5.15999 2.32898 4.25895 2.70398 3.59229 3.45398C2.92562 4.20398 2.56103 5.19356 2.50895 6.41231H9.88395Z" fill="black"/>
</svg>
