<svg width="23" height="24" viewBox="0 0 23 24" fill="none" xmlns="http://www.w3.org/2000/svg">
<path d="M10.3599 23.4159C8.35986 23.4159 6.65674 22.9107 5.2557 21.895C3.84945 20.869 2.77653 19.4732 2.02653 17.7075C1.28695 15.9471 0.922363 13.9523 0.922363 11.7284C0.922363 9.52004 1.29736 7.53046 2.04736 5.74921C2.80778 3.97317 3.90674 2.58254 5.33903 1.58254C6.76611 0.572124 8.48486 0.0617065 10.4849 0.0617065C12.4692 0.0617065 14.0734 0.535665 15.2974 1.47837C16.5161 2.41067 17.4432 3.53046 18.0682 4.83254H18.3599V0.64504H22.089V23.1242H18.3599V18.52H18.0682C17.3859 19.8534 16.4224 21.0096 15.1724 21.9784C13.9224 22.9367 12.3182 23.4159 10.3599 23.4159ZM11.5057 20.27C13.6828 20.27 15.3599 19.4523 16.5265 17.8117C17.6932 16.1763 18.2765 14.145 18.2765 11.7284C18.2765 9.31171 17.6932 7.29087 16.5265 5.66587C15.3599 4.03046 13.6828 3.20754 11.5057 3.20754C9.2557 3.20754 7.55257 4.02004 6.40153 5.64504C5.24528 7.25962 4.67236 9.27004 4.67236 11.6867C4.67236 14.1346 5.24528 16.1763 6.40153 17.8117C7.55257 19.4523 9.2557 20.27 11.5057 20.27Z" fill="black"/>
</svg>
