<svg width="26" height="25" viewBox="0 0 26 25" fill="none" xmlns="http://www.w3.org/2000/svg">
<path d="M0.43335 24.4082V0.82487H6.60002L7.47502 3.24154C8.35002 2.25716 9.45418 1.50195 10.7875 0.970703C12.1208 0.429036 13.5792 0.158203 15.1625 0.158203C18.1886 0.158203 20.5844 1.10612 22.35 2.99154C24.1261 4.88216 25.0167 7.41862 25.0167 10.5957V24.4082H16.4542V11.4707C16.4542 10.0853 16.1313 9.0332 15.4958 8.32487C14.8552 7.60612 13.9646 7.24154 12.8292 7.24154C11.6469 7.24154 10.7094 7.63216 10.0167 8.4082C9.33439 9.17383 8.99585 10.2728 8.99585 11.6999V24.4082H0.43335Z" fill="#690061"/>
</svg>
