<svg width="16" height="24" viewBox="0 0 16 24" fill="none" xmlns="http://www.w3.org/2000/svg">
<path d="M6.29769 17.0963C6.29769 16.0963 6.55811 15.2213 7.08936 14.4713C7.6154 13.7109 8.40706 12.8359 9.46436 11.8463C10.4748 10.888 11.2404 10.0547 11.756 9.34633C12.2664 8.62758 12.5269 7.79946 12.5269 6.86717C12.5269 5.60675 12.1102 4.63279 11.2769 3.9505C10.4435 3.27342 9.36019 2.92967 8.02686 2.92967C6.91227 2.92967 6.00602 3.16925 5.29769 3.638C4.58936 4.09633 4.07894 4.67967 3.77686 5.388C3.46956 6.09633 3.31852 6.81508 3.31852 7.53383V7.65883H0.526855V7.53383C0.526855 6.14842 0.828938 4.90883 1.44352 3.8255C2.0529 2.73175 2.92269 1.87758 4.04769 1.263C5.18311 0.638 6.51123 0.3255 8.02686 0.3255C9.49561 0.3255 10.7821 0.606751 11.881 1.15883C12.9748 1.71613 13.8237 2.48175 14.4227 3.4505C15.0164 4.42446 15.3185 5.513 15.3185 6.72133C15.3185 7.59633 15.1519 8.40363 14.8185 9.138C14.4852 9.86196 14.0737 10.4922 13.5894 11.0338C13.1154 11.5651 12.4956 12.1901 11.7352 12.9088C10.8185 13.7578 10.131 14.4818 9.67269 15.0755C9.22477 15.6745 9.00602 16.3463 9.00602 17.0963V17.3463H6.29769V17.0963ZM7.67269 23.5338C7.15706 23.5338 6.73519 23.3672 6.40186 23.0338C6.06852 22.6901 5.90186 22.2578 5.90186 21.7422C5.90186 21.2422 6.06852 20.8255 6.40186 20.4922C6.73519 20.1484 7.15706 19.9713 7.67269 19.9713C8.15706 19.9713 8.56852 20.1484 8.90186 20.4922C9.24561 20.8255 9.42269 21.2422 9.42269 21.7422C9.42269 22.2318 9.24561 22.6536 8.90186 23.013C8.56852 23.3568 8.15706 23.5338 7.67269 23.5338Z" fill="black"/>
</svg>
