<svg width="10" height="14" viewBox="0 0 10 14" fill="none" xmlns="http://www.w3.org/2000/svg">
<path d="M4.7627 13.0254C3.80436 13.0254 2.97103 12.8327 2.2627 12.4421C1.55436 12.0566 1.0127 11.5618 0.637695 10.9629C0.262695 10.3535 0.0751953 9.71289 0.0751953 9.04622V8.94206H2.03353V9.02539C2.03353 9.40039 2.1377 9.77539 2.34603 10.1504C2.55436 10.5254 2.86686 10.8327 3.28353 11.0671C3.71061 11.291 4.23145 11.4004 4.84603 11.4004C5.56478 11.4004 6.16374 11.2285 6.6377 10.8796C7.10645 10.5202 7.34603 10.0358 7.34603 9.42122C7.34603 8.91081 7.15853 8.49935 6.78353 8.19206C6.41894 7.88998 5.96061 7.69206 5.40853 7.60872L3.84603 7.37956C2.85645 7.22852 2.03353 6.89518 1.36686 6.37956C0.700195 5.85352 0.366862 5.08789 0.366862 4.08789C0.366862 2.99414 0.762695 2.13997 1.55436 1.52539C2.35645 0.900391 3.37728 0.587891 4.61686 0.587891C5.53353 0.587891 6.31478 0.764975 6.97103 1.10872C7.6377 1.44206 8.1429 1.88997 8.49186 2.44206C8.83561 2.99935 9.0127 3.60352 9.0127 4.25456V4.33789H7.05436V4.29622C7.05436 3.99414 6.97103 3.67122 6.80436 3.33789C6.64811 3.00456 6.3877 2.72331 6.0127 2.48372C5.6377 2.23372 5.15853 2.10872 4.5752 2.10872C3.83561 2.10872 3.24707 2.29102 2.80436 2.65039C2.37207 2.99935 2.15853 3.46289 2.15853 4.04622C2.15853 4.50456 2.3304 4.88997 2.67936 5.19206C3.02311 5.49935 3.46061 5.70247 3.99186 5.79622L5.7002 6.06706C6.7002 6.23372 7.53874 6.58268 8.22103 7.10872C8.89811 7.62435 9.24186 8.38997 9.24186 9.40039C9.24186 10.1243 9.04395 10.7546 8.65853 11.2962C8.2679 11.8379 7.73145 12.265 7.05436 12.5671C6.37207 12.8691 5.60645 13.0254 4.7627 13.0254Z" fill="black"/>
</svg>
