<svg width="16" height="19" viewBox="0 0 16 19" fill="none" xmlns="http://www.w3.org/2000/svg">
<path d="M8.36328 18.4714C6.63932 18.4714 5.18099 18.0547 3.98828 17.2214C2.80599 16.388 1.92578 15.2995 1.34245 13.9505C0.769532 12.6068 0.488281 11.1901 0.488281 9.70052C0.488281 8.1901 0.769532 6.76302 1.34245 5.42969C1.92578 4.09635 2.8112 3.01302 4.00911 2.17969C5.20182 1.34635 6.66536 0.929688 8.40495 0.929688C10.6654 0.929688 12.4727 1.6901 13.8216 3.20052C15.181 4.71615 15.8633 6.88802 15.8633 9.72135V10.4922H3.23828V10.7214C3.23828 11.6693 3.45182 12.5547 3.88411 13.388C4.3112 14.2109 4.91016 14.8776 5.67578 15.388C6.4362 15.9036 7.32682 16.1589 8.34245 16.1589C9.42578 16.1589 10.3633 15.8828 11.1549 15.3255C11.9466 14.7734 12.5299 14.0286 12.9049 13.0964H15.6341C15.1862 14.6276 14.3477 15.9036 13.1133 16.9297C11.8893 17.9609 10.306 18.4714 8.36328 18.4714ZM13.1341 8.55469C13.0508 6.6276 12.5768 5.23698 11.7174 4.38802C10.8685 3.52865 9.7487 3.09635 8.36328 3.09635C6.84766 3.09635 5.63932 3.60677 4.73828 4.61719C3.84766 5.61719 3.3737 6.92969 3.32161 8.55469H13.1341Z" fill="black"/>
</svg>
