<svg width="12" height="14" viewBox="0 0 12 14" fill="none" xmlns="http://www.w3.org/2000/svg">
<path d="M5.30452 13.0254C4.23161 13.0254 3.32536 12.7546 2.57536 12.2129C1.83578 11.6608 1.26807 10.916 0.867025 9.98372C0.476399 9.04102 0.283691 7.98372 0.283691 6.81706C0.283691 5.63997 0.481607 4.57747 0.887858 3.62956C1.2889 2.68685 1.87223 1.94206 2.63786 1.40039C3.39827 0.858724 4.30973 0.587891 5.36702 0.587891C6.41911 0.587891 7.27327 0.837891 7.92952 1.33789C8.58057 1.83789 9.07536 2.43685 9.40869 3.12956H9.55453V0.921224H11.5337V12.8587H9.55453V10.4004H9.40869C9.03369 11.1243 8.51286 11.7441 7.84619 12.2546C7.18994 12.7702 6.34619 13.0254 5.30452 13.0254ZM5.90869 11.3379C7.07536 11.3379 7.96078 10.9108 8.57536 10.0462C9.20036 9.17122 9.51286 8.09831 9.51286 6.81706C9.51286 5.52539 9.20036 4.45247 8.57536 3.58789C7.96078 2.71289 7.07536 2.27539 5.90869 2.27539C4.71078 2.27539 3.80973 2.70768 3.20036 3.56706C2.58578 4.43164 2.28369 5.49935 2.28369 6.77539C2.28369 8.08268 2.58578 9.17122 3.20036 10.0462C3.80973 10.9108 4.71078 11.3379 5.90869 11.3379Z" fill="black"/>
</svg>
