<svg width="12" height="14" viewBox="0 0 12 14" fill="none" xmlns="http://www.w3.org/2000/svg">
<path d="M5.38314 13.0254C4.31022 13.0254 3.40397 12.7546 2.65397 12.2129C1.91439 11.6608 1.34668 10.916 0.945638 9.98372C0.555013 9.04102 0.362305 7.98372 0.362305 6.81706C0.362305 5.63997 0.560221 4.57747 0.966471 3.62956C1.36751 2.68685 1.95085 1.94206 2.71647 1.40039C3.47689 0.858724 4.38835 0.587891 5.44564 0.587891C6.49772 0.587891 7.35189 0.837891 8.00814 1.33789C8.65918 1.83789 9.15397 2.43685 9.4873 3.12956H9.63314V0.921224H11.6123V12.8587H9.63314V10.4004H9.4873C9.1123 11.1243 8.59147 11.7441 7.9248 12.2546C7.26855 12.7702 6.4248 13.0254 5.38314 13.0254ZM5.9873 11.3379C7.15397 11.3379 8.03939 10.9108 8.65397 10.0462C9.27897 9.17122 9.59147 8.09831 9.59147 6.81706C9.59147 5.52539 9.27897 4.45247 8.65397 3.58789C8.03939 2.71289 7.15397 2.27539 5.9873 2.27539C4.78939 2.27539 3.88835 2.70768 3.27897 3.56706C2.66439 4.43164 2.3623 5.49935 2.3623 6.77539C2.3623 8.08268 2.66439 9.17122 3.27897 10.0462C3.88835 10.9108 4.78939 11.3379 5.9873 11.3379Z" fill="black"/>
</svg>
