<svg width="17" height="24" viewBox="0 0 17 24" fill="none" xmlns="http://www.w3.org/2000/svg">
<path d="M8.27327 19.5755C7.92432 20.3776 7.59619 21.0443 7.29411 21.5755C6.98682 22.1015 6.48161 22.5963 5.77327 23.0547C5.06494 23.5234 4.14827 23.763 3.02327 23.763C2.42432 23.763 1.78369 23.6797 1.10661 23.513V21.4713C1.61703 21.5547 2.06494 21.5963 2.43994 21.5963C3.14827 21.5963 3.71077 21.4557 4.12744 21.1797C4.55452 20.914 4.89827 20.5651 5.14827 20.138C5.39827 19.7213 5.68994 19.1068 6.02327 18.3047L6.79411 16.4088L0.564941 0.388H3.43994L8.14827 13.3672H8.33577L13.2524 0.388H16.1483L8.27327 19.5755Z" fill="black"/>
</svg>
