<svg width="14" height="19" viewBox="0 0 14 19" fill="none" xmlns="http://www.w3.org/2000/svg">
<path d="M7.40137 18.4714C6.02637 18.4714 4.83887 18.2005 3.83887 17.6589C2.83887 17.1068 2.07324 16.4036 1.5472 15.5547C1.03158 14.7109 0.776367 13.8151 0.776367 12.8672V12.7005H3.52637V12.8255C3.52637 13.3672 3.6722 13.9036 3.96387 14.4297C4.26595 14.9453 4.71908 15.3672 5.31803 15.7005C5.91178 16.0339 6.63574 16.2005 7.4847 16.2005C8.51074 16.2005 9.3597 15.9505 10.0264 15.4505C10.7035 14.9505 11.0472 14.263 11.0472 13.388C11.0472 12.6536 10.7816 12.0755 10.2555 11.6589C9.73991 11.2318 9.08887 10.9505 8.2972 10.8255L6.08887 10.4922C4.69824 10.2839 3.53158 9.81511 2.58887 9.07552C1.65658 8.34115 1.19303 7.27344 1.19303 5.86719C1.19303 4.29948 1.74512 3.08594 2.8597 2.22135C3.9847 1.36198 5.4222 0.929688 7.1722 0.929688C8.47428 0.929688 9.58887 1.17448 10.5055 1.65885C11.4326 2.13281 12.141 2.75781 12.6305 3.53385C13.1305 4.3151 13.3805 5.15885 13.3805 6.07552V6.20052H10.6305V6.13802C10.6305 5.72135 10.516 5.27865 10.2972 4.80469C10.0732 4.33594 9.69303 3.92969 9.15137 3.59635C8.62012 3.2526 7.94303 3.07552 7.1097 3.07552C6.07845 3.07552 5.25553 3.32552 4.63053 3.82552C4.01595 4.32552 3.71387 4.98177 3.71387 5.78385C3.71387 6.45052 3.95345 7.0026 4.44303 7.42969C4.94303 7.86198 5.55762 8.13802 6.2972 8.26302L8.71387 8.63802C10.1149 8.8776 11.2972 9.36198 12.2555 10.0964C13.2139 10.8359 13.693 11.9193 13.693 13.3464C13.693 14.3776 13.4222 15.2734 12.8805 16.0339C12.3389 16.7995 11.5889 17.3984 10.6305 17.8255C9.6722 18.2526 8.59408 18.4714 7.40137 18.4714Z" fill="black"/>
</svg>
