<svg width="14" height="31" viewBox="0 0 14 31" fill="none" xmlns="http://www.w3.org/2000/svg">
<path d="M8.02767 10.5826V23.6451C8.02767 24.7024 8.07454 25.4784 8.1735 25.9784C8.26725 26.468 8.53809 26.8534 8.986 27.1451C9.42871 27.4263 10.1527 27.5617 11.1527 27.5617C11.8298 27.5617 12.5693 27.468 13.361 27.2701V29.9159C13.1631 29.9992 12.7256 30.0826 12.0485 30.1659C11.3818 30.2492 10.6943 30.2909 9.986 30.2909C8.34538 30.2909 7.11621 30.0617 6.2985 29.6034C5.49121 29.1347 4.96517 28.494 4.71517 27.6867C4.47559 26.869 4.361 25.7909 4.361 24.4576V10.5826H0.194336V7.64508H4.361V0.270081H8.02767V7.64508H13.361V10.5826H8.02767Z" fill="black"/>
</svg>
