<svg width="26" height="26" viewBox="0 0 26 26" fill="none" xmlns="http://www.w3.org/2000/svg">
<path d="M10.0474 25.924C7.26615 25.924 5.0474 25.2365 3.38074 23.8615C1.71407 22.4865 0.880737 20.6271 0.880737 18.2781C0.880737 16.0437 1.61511 14.2469 3.08907 12.8823C4.57345 11.5229 6.57345 10.8406 9.08907 10.8406H17.2557V9.46562C17.2557 8.67395 16.9068 8.02291 16.2141 7.50728C15.5318 6.98124 14.6984 6.71562 13.7141 6.71562C12.8234 6.71562 12.0682 6.93958 11.4432 7.38228C10.8182 7.8302 10.4432 8.39791 10.3182 9.09062H2.06824C2.42761 6.28853 3.59949 4.1427 5.58907 2.65312C7.58907 1.16874 10.2818 0.42395 13.6724 0.42395C17.5891 0.42395 20.5943 1.37187 22.6932 3.25728C24.787 5.13228 25.8391 7.79895 25.8391 11.2573V25.3823H19.5057L18.5266 22.7156C16.3859 24.8562 13.5578 25.924 10.0474 25.924ZM9.50574 17.8615C9.50574 18.5281 9.78699 19.0698 10.3599 19.4865C10.9432 19.9031 11.7141 20.1115 12.6724 20.1115C14.0057 20.1115 15.1151 19.7052 16.0057 18.8823C16.8912 18.049 17.3391 16.976 17.3391 15.6531H12.5682C11.6203 15.6531 10.8703 15.851 10.3182 16.2365C9.77657 16.6115 9.50574 17.1531 9.50574 17.8615Z" fill="#690061"/>
</svg>
