<svg width="16" height="19" viewBox="0 0 16 19" fill="none" xmlns="http://www.w3.org/2000/svg">
<path d="M0.434082 1.38802H3.18408V4.40885H3.45492C3.87158 3.4401 4.55908 2.61719 5.51742 1.95052C6.48617 1.27344 7.66325 0.929688 9.03825 0.929688C10.4653 0.929688 11.6632 1.27344 12.6216 1.95052C13.5903 2.61719 14.3091 3.5026 14.7674 4.59635C15.2257 5.69531 15.4549 6.88281 15.4549 8.15885V18.2422H12.6841V8.51302C12.6841 6.84635 12.2518 5.57552 11.3924 4.70052C10.5278 3.82552 9.40283 3.38802 8.01742 3.38802C6.54346 3.38802 5.37158 3.86719 4.49658 4.82552C3.62158 5.77344 3.18408 7.0026 3.18408 8.51302V18.2422H0.434082V1.38802Z" fill="black"/>
</svg>
