<svg width="23" height="24" viewBox="0 0 23 24" fill="none" xmlns="http://www.w3.org/2000/svg">
<path d="M10.3447 23.8826C8.35514 23.8826 6.65723 23.3774 5.24056 22.3617C3.83431 21.3357 2.76139 19.9399 2.01139 18.1742C1.27181 16.4138 0.907227 14.419 0.907227 12.1951C0.907227 9.97632 1.28223 7.97632 2.03223 6.19507C2.79264 4.41903 3.8916 3.0284 5.32389 2.0284C6.7666 1.01798 8.48014 0.507568 10.4697 0.507568C12.4541 0.507568 14.0583 0.981527 15.2822 1.92424C16.501 2.85653 17.4333 3.97632 18.0739 5.2784H18.3656V1.11174H22.0739V23.5909H18.3656V18.9867H18.0739C17.376 20.3201 16.4072 21.4763 15.1572 22.4451C13.9072 23.4034 12.3031 23.8826 10.3447 23.8826ZM11.4906 20.7367C13.6833 20.7367 15.3656 19.919 16.5322 18.2784C17.6989 16.643 18.2822 14.6117 18.2822 12.1951C18.2822 9.7784 17.6989 7.75757 16.5322 6.13257C15.3656 4.49715 13.6833 3.67424 11.4906 3.67424C9.24056 3.67424 7.53743 4.48674 6.38639 6.11174C5.23014 7.72632 4.65723 9.73674 4.65723 12.1534C4.65723 14.6013 5.23014 16.643 6.38639 18.2784C7.53743 19.919 9.24056 20.7367 11.4906 20.7367Z" fill="#690061"/>
</svg>
