<svg width="17" height="19" viewBox="0 0 17 19" fill="none" xmlns="http://www.w3.org/2000/svg">
<path d="M16.6603 18.5994H13.6395V15.1411H13.4312C12.9416 16.1984 12.1916 17.0942 11.1812 17.8286C10.1812 18.5526 8.95199 18.9119 7.49365 18.9119C5.9624 18.9119 4.69157 18.5474 3.68115 17.8078C2.66553 17.0578 1.92074 16.0994 1.45199 14.9328C0.978027 13.7557 0.743652 12.4692 0.743652 11.0786V0.328613H3.72282V10.7036C3.72282 12.4849 4.17074 13.8494 5.07699 14.8078C5.97803 15.7661 7.16032 16.2453 8.61865 16.2453C10.1291 16.2453 11.3478 15.7349 12.2645 14.7036C13.1812 13.6776 13.6395 12.3442 13.6395 10.7036V0.328613H16.6603V18.5994Z" fill="black"/>
</svg>
