<svg width="13" height="15" viewBox="0 0 13 15" fill="none" xmlns="http://www.w3.org/2000/svg">
<path d="M4.95671 14.4773C3.66504 14.4773 2.65462 14.1439 1.93587 13.4773C1.21191 12.8002 0.852539 11.8314 0.852539 10.5814C0.852539 9.80538 1.00879 9.15434 1.33171 8.62309C1.64941 8.08142 2.14421 7.64392 2.81087 7.31059C3.48796 6.97725 4.37337 6.72205 5.45671 6.53975C6.41504 6.37309 7.13379 6.196 7.62337 5.99809C8.12337 5.80538 8.45671 5.59184 8.62337 5.35225C8.79004 5.10225 8.87337 4.78975 8.87337 4.41475C8.87337 3.821 8.67025 3.36267 8.26921 3.03975C7.86296 2.72205 7.21191 2.56059 6.31087 2.56059C5.46191 2.56059 4.73275 2.72725 4.12337 3.06059C3.52441 3.39392 2.96712 3.88351 2.45671 4.51892H2.22754L1.26921 3.18559C1.82129 2.47725 2.52441 1.92517 3.37337 1.51892C4.23275 1.10225 5.21191 0.893921 6.31087 0.893921C7.85254 0.893921 8.98275 1.23767 9.70671 1.91475C10.4411 2.58142 10.8109 3.51371 10.8109 4.70642V11.6439C10.8109 12.3835 11.1234 12.7481 11.7484 12.7481C11.9411 12.7481 12.1338 12.7168 12.3317 12.6439L12.4984 12.6856L12.7275 14.0189C12.5869 14.1179 12.3994 14.196 12.165 14.2481C11.9255 14.3002 11.6859 14.3314 11.4359 14.3314C10.7275 14.3314 10.1859 14.1752 9.81087 13.8523C9.44629 13.5345 9.21191 13.071 9.10254 12.4564L8.85254 12.4148C8.47754 13.1127 7.96712 13.6335 7.33171 13.9773C6.70671 14.3106 5.91504 14.4773 4.95671 14.4773ZM5.39421 12.9356C6.11296 12.9356 6.73796 12.7689 7.26921 12.4356C7.81087 12.0918 8.21712 11.6179 8.49837 11.0189C8.79004 10.4095 8.93587 9.70121 8.93587 8.89392V7.22725L8.70671 7.18559C8.41504 7.39392 8.06087 7.571 7.64421 7.70642C7.22754 7.84705 6.64421 7.97205 5.89421 8.08142C5.12858 8.18038 4.52441 8.34184 4.08171 8.56059C3.63379 8.76892 3.31608 9.03975 3.12337 9.37309C2.92546 9.696 2.83171 10.097 2.83171 10.5814C2.83171 11.347 3.05046 11.9304 3.49837 12.3314C3.95671 12.7377 4.58691 12.9356 5.39421 12.9356Z" fill="black"/>
</svg>
