<svg width="29" height="19" viewBox="0 0 29 19" fill="none" xmlns="http://www.w3.org/2000/svg">
<path d="M0.427734 0.676432H3.36523V4.0306H3.6569C3.69857 3.81185 3.92773 3.39518 4.3444 2.7806C4.76107 2.17122 5.39128 1.58789 6.24023 1.0306C7.09961 0.478516 8.16211 0.197266 9.42773 0.197266C10.7715 0.197266 11.8913 0.509766 12.7819 1.13477C13.6673 1.75977 14.3288 2.43685 14.7611 3.1556C15.2038 3.86393 15.4277 4.31185 15.4277 4.48893H15.7194C16.0371 3.68685 16.6777 2.77018 17.6361 1.73893C18.5944 0.712891 20.0632 0.197266 22.0527 0.197266C23.5371 0.197266 24.7715 0.572266 25.7611 1.32227C26.7611 2.07227 27.4954 3.04102 27.9694 4.2181C28.4382 5.40039 28.6777 6.6556 28.6777 7.98893V18.9473H25.7402V8.25977C25.7402 6.50977 25.2819 5.18685 24.3652 4.2806C23.4486 3.37956 22.3236 2.92643 20.9902 2.92643C19.5996 2.92643 18.4277 3.40039 17.4694 4.3431C16.5111 5.27539 16.0319 6.58268 16.0319 8.25977V18.9473H13.0736V8.25977C13.0736 6.50977 12.6152 5.18685 11.6986 4.2806C10.7923 3.37956 9.66732 2.92643 8.32357 2.92643C6.93294 2.92643 5.76107 3.40039 4.80273 4.3431C3.8444 5.27539 3.36523 6.58268 3.36523 8.25977V18.9473H0.427734V0.676432Z" fill="black"/>
</svg>
