<svg width="12" height="14" viewBox="0 0 12 14" fill="none" xmlns="http://www.w3.org/2000/svg">
<path d="M6.37581 13.0254C5.15186 13.0254 4.1154 12.7337 3.27165 12.1504C2.43831 11.5566 1.81331 10.7858 1.39665 9.83789C0.990396 8.87956 0.79248 7.87435 0.79248 6.81706C0.79248 5.73372 0.990396 4.72331 1.39665 3.77539C1.81331 2.83268 2.44352 2.06706 3.29248 1.48372C4.13623 0.889975 5.17269 0.587891 6.39665 0.587891C8.00602 0.587891 9.29248 1.12956 10.2508 2.21289C11.2091 3.28581 11.6883 4.82747 11.6883 6.83789V7.37956H2.75081V7.52539C2.75081 8.19206 2.90186 8.82747 3.20915 9.42122C3.51123 10.0046 3.93831 10.4785 4.47998 10.8379C5.02165 11.2025 5.64665 11.3796 6.35498 11.3796C7.13102 11.3796 7.79769 11.1868 8.35498 10.7962C8.90706 10.4108 9.32373 9.87956 9.60498 9.21289H11.5216C11.1987 10.2962 10.605 11.2077 9.72998 11.9421C8.8654 12.666 7.75081 13.0254 6.37581 13.0254ZM9.75081 5.98372C9.69352 4.62435 9.36019 3.64518 8.75081 3.04622C8.15186 2.43685 7.36019 2.12956 6.37581 2.12956C5.3029 2.12956 4.44873 2.49414 3.81331 3.21289C3.17269 3.92122 2.83415 4.84831 2.79248 5.98372H9.75081Z" fill="black"/>
</svg>
