<svg width="16" height="25" viewBox="0 0 16 25" fill="none" xmlns="http://www.w3.org/2000/svg">
<path d="M0.957031 0.346313H3.70703V10.4088H3.97786C4.39453 9.44006 5.08203 8.61715 6.04036 7.95048C7.00912 7.2734 8.1862 6.92965 9.5612 6.92965C10.9883 6.92965 12.1862 7.2734 13.1445 7.95048C14.1133 8.61715 14.832 9.50256 15.2904 10.5963C15.7487 11.6953 15.9779 12.8828 15.9779 14.1588V24.2421H13.207V14.513C13.207 12.8463 12.7747 11.5755 11.9154 10.7005C11.0508 9.82548 9.90495 9.38798 8.47786 9.38798C7.11328 9.38798 5.97786 9.84631 5.0612 10.763C4.15495 11.6796 3.70703 12.9296 3.70703 14.513V24.2421H0.957031V0.346313Z" fill="black"/>
</svg>
