<svg width="80" height="74" viewBox="0 0 80 74" fill="none" xmlns="http://www.w3.org/2000/svg">
<path d="M65.5172 55.9451V32.9243L47.038 70.0076C46.913 70.3722 46.6422 70.5493 46.2255 70.5493H35.0588C34.5849 70.5493 34.288 70.3722 34.163 70.0076L14.4963 31.9243V72.6326C14.4963 73.1743 14.163 73.4451 13.4963 73.4451H1.538C0.923421 73.4451 0.621338 73.1743 0.621338 72.6326V1.73676C0.621338 1.19509 0.923421 0.924255 1.538 0.924255H13.6838C14.1526 0.924255 14.4547 1.10655 14.5797 1.46592L40.6005 54.5909L65.3505 1.46592C65.5849 1.10655 65.913 0.924255 66.3297 0.924255H78.3088C78.9755 0.924255 79.3088 1.19509 79.3088 1.73676V55.9451H65.5172Z" fill="#562A2A" fill-opacity="0.502"/>
</svg>
