<svg width="16" height="24" viewBox="0 0 16 24" fill="none" xmlns="http://www.w3.org/2000/svg">
<path d="M6.1141 17.0963C6.1141 16.0963 6.37451 15.2213 6.90576 14.4713C7.4318 13.7109 8.22347 12.8359 9.28076 11.8463C10.2912 10.888 11.0568 10.0547 11.5724 9.34633C12.0828 8.62758 12.3433 7.79946 12.3433 6.86717C12.3433 5.60675 11.9266 4.63279 11.0933 3.9505C10.2599 3.27342 9.1766 2.92967 7.84326 2.92967C6.72868 2.92967 5.82243 3.16925 5.1141 3.638C4.40576 4.09633 3.89534 4.67967 3.59326 5.388C3.28597 6.09633 3.13493 6.81508 3.13493 7.53383V7.65883H0.343262V7.53383C0.343262 6.14842 0.645344 4.90883 1.25993 3.8255C1.8693 2.73175 2.7391 1.87758 3.8641 1.263C4.99951 0.638 6.32764 0.3255 7.84326 0.3255C9.31201 0.3255 10.5985 0.606751 11.6974 1.15883C12.7912 1.71613 13.6401 2.48175 14.2391 3.4505C14.8328 4.42446 15.1349 5.513 15.1349 6.72133C15.1349 7.59633 14.9683 8.40363 14.6349 9.138C14.3016 9.86196 13.8901 10.4922 13.4058 11.0338C12.9318 11.5651 12.312 12.1901 11.5516 12.9088C10.6349 13.7578 9.94743 14.4818 9.4891 15.0755C9.04118 15.6745 8.82243 16.3463 8.82243 17.0963V17.3463H6.1141V17.0963ZM7.4891 23.5338C6.97347 23.5338 6.5516 23.3672 6.21826 23.0338C5.88493 22.6901 5.71826 22.2578 5.71826 21.7422C5.71826 21.2422 5.88493 20.8255 6.21826 20.4922C6.5516 20.1484 6.97347 19.9713 7.4891 19.9713C7.97347 19.9713 8.38493 20.1484 8.71826 20.4922C9.06201 20.8255 9.2391 21.2422 9.2391 21.7422C9.2391 22.2318 9.06201 22.6536 8.71826 23.013C8.38493 23.3568 7.97347 23.5338 7.4891 23.5338Z" fill="black"/>
</svg>
