<svg width="22" height="25" viewBox="0 0 22 25" fill="none" xmlns="http://www.w3.org/2000/svg">
<path d="M10.0166 24.2207C8.02702 24.2207 6.3291 23.7155 4.91244 22.6999C3.50618 21.6738 2.43327 20.278 1.68327 18.5124C0.943686 16.752 0.579102 14.7572 0.579102 12.5332C0.579102 10.3145 0.954102 8.31445 1.7041 6.5332C2.46452 4.75716 3.56348 3.36654 4.99577 2.36654C6.43848 1.35612 8.15202 0.845703 10.1416 0.845703C12.126 0.845703 13.7301 1.31966 14.9541 2.26237C16.1729 3.19466 17.1051 4.31445 17.7458 5.61654H18.0374V1.44987H21.7458V23.929H18.0374V19.3249H17.7458C17.0479 20.6582 16.0791 21.8145 14.8291 22.7832C13.5791 23.7415 11.9749 24.2207 10.0166 24.2207ZM11.1624 21.0749C13.3551 21.0749 15.0374 20.2572 16.2041 18.6165C17.3708 16.9811 17.9541 14.9499 17.9541 12.5332C17.9541 10.1165 17.3708 8.0957 16.2041 6.4707C15.0374 4.83529 13.3551 4.01237 11.1624 4.01237C8.91244 4.01237 7.20931 4.82487 6.05827 6.44987C4.90202 8.06445 4.3291 10.0749 4.3291 12.4915C4.3291 14.9395 4.90202 16.9811 6.05827 18.6165C7.20931 20.2572 8.91244 21.0749 11.1624 21.0749Z" fill="#690061"/>
</svg>
