<svg width="10" height="20" viewBox="0 0 10 20" fill="none" xmlns="http://www.w3.org/2000/svg">
<path d="M2.639 19.027V7.50619H0.368164V5.92285H2.639C2.49837 5.35514 2.43066 4.81348 2.43066 4.29785C2.43066 3.4541 2.60775 2.73535 2.97233 2.15202C3.33171 1.56868 3.83171 1.1416 4.47233 0.860352C5.10775 0.568685 5.84733 0.422852 6.68066 0.422852C7.99837 0.422852 9.00358 0.70931 9.7015 1.27702L8.9515 2.63119L8.7015 2.67285C8.18587 2.27181 7.514 2.06868 6.68066 2.06868C5.91504 2.06868 5.33692 2.27181 4.9515 2.67285C4.56087 3.06348 4.36816 3.62077 4.36816 4.33952C4.36816 4.79785 4.43587 5.3291 4.5765 5.92285H8.74316V7.50619H4.5765V19.027H2.639Z" fill="black"/>
</svg>
