<svg width="11" height="18" viewBox="0 0 11 18" fill="none" xmlns="http://www.w3.org/2000/svg">
<path d="M0.0688477 0.921265H2.00635V8.0671H2.19385C2.49593 7.37439 2.99072 6.79106 3.67301 6.3171C4.3501 5.83272 5.17822 5.58793 6.15218 5.58793C7.1626 5.58793 8.01156 5.83272 8.69385 6.3171C9.37093 6.79106 9.87093 7.41606 10.1938 8.1921C10.5272 8.97335 10.6938 9.81189 10.6938 10.7129V17.8588H8.73551V10.9629C8.73551 9.78585 8.42822 8.89002 7.81885 8.27543C7.20426 7.65043 6.39177 7.33793 5.38135 7.33793C4.42301 7.33793 3.61572 7.66606 2.96468 8.3171C2.32406 8.97335 2.00635 9.85356 2.00635 10.9629V17.8588H0.0688477V0.921265Z" fill="black"/>
</svg>
