<svg width="18" height="27" viewBox="0 0 18 27" fill="none" xmlns="http://www.w3.org/2000/svg">
<path d="M8.29085 26.4932C6.67627 26.4932 5.29606 26.0765 4.14502 25.2432C3.00439 24.4098 2.1346 23.2796 1.54085 21.8473C0.941894 20.4202 0.64502 18.8005 0.64502 16.9932C0.64502 15.1598 0.941894 13.5296 1.54085 12.0973C2.1346 10.6702 3.0096 9.54525 4.16585 8.72233C5.31689 7.90462 6.71794 7.49316 8.37419 7.49316C9.98356 7.49316 11.2909 7.88379 12.2909 8.65983C13.3013 9.42546 14.0513 10.3265 14.5409 11.3682H14.8117V0.243164H17.7909V26.2432H14.8117V22.4932H14.5409C13.9836 23.6077 13.1971 24.5505 12.1867 25.3265C11.1867 26.1077 9.8846 26.4932 8.29085 26.4932ZM9.20752 23.9307C10.9992 23.9307 12.3638 23.264 13.3117 21.9307C14.27 20.5973 14.7492 18.9515 14.7492 16.9932C14.7492 15.0244 14.27 13.3838 13.3117 12.0765C12.3638 10.7588 10.9992 10.0973 9.20752 10.0973C7.37419 10.0973 5.98877 10.7588 5.06169 12.0765C4.14502 13.3838 3.68669 15.0244 3.68669 16.9932C3.68669 18.9827 4.15023 20.6338 5.08252 21.9515C6.02523 23.2744 7.40023 23.9307 9.20752 23.9307Z" fill="black"/>
</svg>
