<svg width="17" height="24" viewBox="0 0 17 24" fill="none" xmlns="http://www.w3.org/2000/svg">
<path d="M8.44124 19.5755C8.09229 20.3776 7.76416 21.0443 7.46208 21.5755C7.15479 22.1015 6.64958 22.5963 5.94124 23.0547C5.23291 23.5234 4.31624 23.763 3.19124 23.763C2.59228 23.763 1.95166 23.6797 1.27458 23.513V21.4713C1.78499 21.5547 2.23291 21.5963 2.60791 21.5963C3.31624 21.5963 3.87874 21.4557 4.29541 21.1797C4.72249 20.914 5.06624 20.5651 5.31624 20.138C5.56624 19.7213 5.85791 19.1068 6.19124 18.3047L6.96208 16.4088L0.73291 0.388H3.60791L8.31624 13.3672H8.50374L13.4204 0.388H16.3162L8.44124 19.5755Z" fill="black"/>
</svg>
