<svg width="13" height="15" viewBox="0 0 13 15" fill="none" xmlns="http://www.w3.org/2000/svg">
<path d="M11.7209 8.12309H2.72087C2.77295 9.72205 3.15837 10.8939 3.8667 11.6439C4.57503 12.3835 5.54378 12.7481 6.78337 12.7481C7.71045 12.7481 8.46045 12.5814 9.03337 12.2481C9.60107 11.9148 10.0438 11.3939 10.3667 10.6856H10.6167L11.8875 11.4356C11.5125 12.3835 10.898 13.1231 10.0542 13.6648C9.22087 14.2064 8.12712 14.4773 6.78337 14.4773C5.51774 14.4773 4.4292 14.2273 3.51253 13.7273C2.60628 13.2273 1.90837 12.472 1.40837 11.4564C0.918782 10.446 0.679199 9.18559 0.679199 7.68559C0.679199 6.20121 0.934407 4.95121 1.45003 3.93559C1.97607 2.90955 2.68441 2.14392 3.57503 1.64392C4.47607 1.14392 5.50212 0.893921 6.65837 0.893921C8.33545 0.893921 9.64795 1.36788 10.5959 2.31059C11.5386 3.2585 12.0125 4.65955 12.0125 6.51892C12.0125 7.24288 11.9969 7.72725 11.9709 7.97725L11.7209 8.12309ZM10.0959 6.51892C10.0646 5.11788 9.76253 4.10225 9.1792 3.47725C8.59587 2.84184 7.75212 2.51892 6.65837 2.51892C5.51774 2.51892 4.6167 2.84184 3.95003 3.47725C3.29378 4.11788 2.89795 5.1335 2.76253 6.51892H10.0959Z" fill="black"/>
</svg>
