<svg width="17" height="19" viewBox="0 0 17 19" fill="none" xmlns="http://www.w3.org/2000/svg">
<path d="M8.3527 18.4714C6.64437 18.4714 5.19124 18.0651 3.99854 17.2422C2.81624 16.4089 1.92562 15.3255 1.33187 13.9922C0.73291 12.6589 0.436035 11.2318 0.436035 9.70052C0.436035 8.15885 0.73291 6.72135 1.33187 5.38802C1.92562 4.05469 2.81624 2.98177 3.99854 2.15885C5.19124 1.34115 6.64437 0.929688 8.3527 0.929688C10.061 0.929688 11.5037 1.34115 12.686 2.15885C13.8631 2.98177 14.7485 4.0651 15.3319 5.40885C15.9256 6.75781 16.2277 8.1901 16.2277 9.70052C16.2277 11.2161 15.9256 12.6484 15.3319 13.9922C14.7329 15.3255 13.8371 16.4089 12.6444 17.2422C11.4621 18.0651 10.0298 18.4714 8.3527 18.4714ZM8.3527 16.0964C9.39437 16.0964 10.3006 15.8151 11.0819 15.2422C11.8579 14.6589 12.4465 13.8828 12.8527 12.9089C13.2537 11.9401 13.4569 10.8568 13.4569 9.65885C13.4569 7.82552 12.9985 6.30469 12.0819 5.09635C11.1652 3.8776 9.92041 3.26302 8.3527 3.26302C7.27978 3.26302 6.35791 3.55469 5.58187 4.13802C4.80062 4.71094 4.20687 5.48177 3.7902 6.45052C3.38395 7.42448 3.18604 8.49219 3.18604 9.65885C3.18604 11.4922 3.64437 13.0286 4.56104 14.263C5.48812 15.487 6.75374 16.0964 8.3527 16.0964Z" fill="black"/>
</svg>
