<svg width="18" height="20" viewBox="0 0 18 20" fill="none" xmlns="http://www.w3.org/2000/svg">
<path d="M9.12988 19.8491C7.28092 19.8491 5.71322 19.4064 4.42155 18.5158C3.1403 17.6304 2.17676 16.4637 1.52572 15.0158C0.885091 13.5731 0.567383 12.0158 0.567383 10.3491C0.567383 8.68245 0.885091 7.13037 1.52572 5.68245C2.17676 4.23975 3.1403 3.07308 4.42155 2.18245C5.71322 1.29704 7.28092 0.849121 9.12988 0.849121C10.9736 0.849121 12.5361 1.29704 13.8174 2.18245C15.109 3.07308 16.0674 4.24495 16.6924 5.70329C17.3278 7.16162 17.6507 8.71371 17.6507 10.3491C17.6507 11.9897 17.3226 13.5366 16.6716 14.995C16.0309 16.4533 15.0674 17.6304 13.7757 18.5158C12.4945 19.4064 10.9476 19.8491 9.12988 19.8491ZM9.12988 17.2866C10.2549 17.2866 11.2393 16.9741 12.0882 16.3491C12.932 15.7241 13.5726 14.8856 14.0049 13.8283C14.4476 12.7762 14.6715 11.5991 14.6715 10.3075C14.6715 8.32308 14.1715 6.67204 13.1715 5.34912C12.182 4.03141 10.8382 3.36995 9.12988 3.36995C7.97363 3.36995 6.97363 3.68245 6.12988 4.30745C5.28092 4.93245 4.63509 5.7762 4.19238 6.82829C3.76009 7.88558 3.54655 9.04704 3.54655 10.3075C3.54655 12.297 4.03613 13.9533 5.02572 15.2866C6.02572 16.62 7.3903 17.2866 9.12988 17.2866Z" fill="black"/>
</svg>
