<svg width="11" height="18" viewBox="0 0 11 18" fill="none" xmlns="http://www.w3.org/2000/svg">
<path d="M0.339355 0.921265H2.27686V8.0671H2.46436C2.76644 7.37439 3.26123 6.79106 3.94352 6.3171C4.62061 5.83272 5.44873 5.58793 6.42269 5.58793C7.4331 5.58793 8.28206 5.83272 8.96436 6.3171C9.64144 6.79106 10.1414 7.41606 10.4644 8.1921C10.7977 8.97335 10.9644 9.81189 10.9644 10.7129V17.8588H9.00602V10.9629C9.00602 9.78585 8.69873 8.89002 8.08936 8.27543C7.47477 7.65043 6.66227 7.33793 5.65186 7.33793C4.69352 7.33793 3.88623 7.66606 3.23519 8.3171C2.59456 8.97335 2.27686 9.85356 2.27686 10.9629V17.8588H0.339355V0.921265Z" fill="black"/>
</svg>
