<svg width="26" height="26" viewBox="0 0 26 26" fill="none" xmlns="http://www.w3.org/2000/svg">
<path d="M0.504883 25.3863V1.11548H6.81738L7.73405 3.59465C8.61947 2.58423 9.75488 1.80298 11.1299 1.26131C12.5049 0.709229 14.0049 0.427979 15.6299 0.427979C18.7549 0.427979 21.2236 1.40194 23.0466 3.34465C24.8643 5.29256 25.7757 7.89673 25.7757 11.1571V25.3863H16.9632V12.0738C16.9632 10.6467 16.6299 9.56339 15.9632 8.82381C15.307 8.08944 14.4059 7.71965 13.2549 7.71965C12.0309 7.71965 11.0674 8.1259 10.359 8.92798C9.65072 9.71965 9.29655 10.8446 9.29655 12.303V25.3863H0.504883Z" fill="#690061"/>
</svg>
