<svg width="161" height="834" viewBox="0 0 161 834" fill="none" xmlns="http://www.w3.org/2000/svg">
<g opacity="0.8" filter="url(#filter0_d_10_554)">
<circle cx="78.5" cy="743.5" r="46.5" fill="#F9F9F9"/>
</g>
<g filter="url(#filter1_d_10_554)">
<circle cx="78.5" cy="743.5" r="36.5" fill="#F9F9F9"/>
</g>
<path d="M98.5584 17.2538C97.353 16.41 95.6459 16.14 94.2087 16.5656C93.8236 16.6798 93.466 16.8399 93.1456 17.0416C92.3286 17.5563 90.5145 19.1012 89.077 20.6301V8.84451C89.077 7.84276 88.5961 6.86366 87.7575 6.15796C86.9251 5.45747 85.8316 5.07966 84.6841 5.09803C84.1631 5.10599 83.6639 5.19447 83.2026 5.34908V4.19792C83.2026 3.10769 82.6791 2.04194 81.7658 1.27348C80.8608 0.511754 79.6764 0.101193 78.4238 0.120788C75.9264 0.157833 73.8875 1.8959 73.8127 4.02066C73.2717 3.81063 72.6842 3.69276 72.076 3.67714C70.8072 3.6453 69.5507 4.06566 68.6295 4.83137C67.7273 5.58115 67.2303 6.57097 67.2303 7.61559L67.2271 8.73185C66.8377 8.62224 66.4225 8.56224 65.9909 8.56224C63.8129 8.56224 62.041 10.0793 62.041 11.9438L62.0424 29.0759L62.0457 29.157C62.2277 31.4055 62.7773 33.3306 63.6798 34.8792C64.5259 36.331 65.7063 37.4999 67.1881 38.3535C70.1042 40.0337 73.7065 40.2492 76.519 40.2492C82.0419 40.2492 87.0105 37.8982 89.4954 34.1116C89.7976 33.6946 90.5939 32.6224 91.4539 31.4661C92.2914 30.3394 93.0705 29.3012 93.7575 28.3852C94.1351 27.8816 94.4787 27.4235 94.7769 27.0243C95.888 25.5367 97.0719 24.0944 98.2963 22.7371C98.7504 22.2338 98.8903 22.0973 98.9221 22.0673C99.4953 21.5318 99.8565 20.8763 99.9666 20.1712C100.14 19.0651 99.6265 18.0015 98.5584 17.2538ZM97.2418 19.8589C97.2064 20.0843 97.0866 20.298 96.8953 20.4768C96.7955 20.5701 96.6171 20.7477 96.1208 21.2982C94.8467 22.7102 93.6152 24.2101 92.4605 25.7562C92.163 26.1545 91.8208 26.6107 91.4439 27.1131C90.7555 28.031 89.9753 29.0716 89.1346 30.2019C88.2546 31.3856 87.44 32.4819 87.1418 32.8943L87.1107 32.9396C85.1164 35.9963 81.0582 37.8951 76.5193 37.8951C74.0974 37.8951 71.0221 37.7252 68.7232 36.4008C66.3775 35.0494 65.0916 32.6399 64.7919 29.0346L64.7905 11.9441C64.7905 11.3774 65.329 10.9163 65.9909 10.9163C66.6567 10.9163 67.1985 11.3774 67.1985 11.9441V18.3554C67.1985 18.3744 67.201 18.3927 67.2017 18.4117C67.2031 18.4325 67.2031 18.4537 67.2056 18.4745C67.2078 18.4932 67.2121 18.5112 67.2153 18.5296C67.2189 18.5501 67.2214 18.5709 67.226 18.5914C67.2307 18.6098 67.2371 18.6279 67.2425 18.6459C67.2482 18.6652 67.2528 18.6851 67.26 18.7041C67.2664 18.7225 67.275 18.7402 67.2829 18.758C67.2904 18.776 67.2972 18.7944 67.3061 18.8122C67.3147 18.8299 67.3251 18.8468 67.3347 18.8639C67.3444 18.8811 67.3533 18.8985 67.3637 18.9153C67.3741 18.9319 67.3866 18.9478 67.398 18.964C67.4095 18.9803 67.4202 18.9968 67.4323 19.0124C67.4449 19.028 67.4588 19.0427 67.472 19.0577C67.4853 19.073 67.4974 19.0886 67.5114 19.103C67.5253 19.1174 67.5407 19.1306 67.555 19.1444C67.57 19.1584 67.5843 19.1734 67.6 19.1869C67.6154 19.1998 67.6315 19.2114 67.6476 19.224C67.6641 19.2368 67.6801 19.2506 67.6977 19.2628C67.7141 19.2745 67.7316 19.2849 67.7488 19.2959C67.767 19.3075 67.7846 19.3198 67.8032 19.3308C67.8207 19.3409 67.8393 19.3495 67.8572 19.3587C67.8768 19.3691 67.8961 19.3801 67.9165 19.3899C67.9351 19.3985 67.9548 19.4055 67.9737 19.4135C67.9945 19.4223 68.0152 19.4315 68.0367 19.4395C68.0563 19.4468 68.0774 19.4524 68.0975 19.4588C68.1193 19.4655 68.1407 19.4732 68.1629 19.4793C68.184 19.4848 68.2062 19.4888 68.2276 19.4937C68.2501 19.4986 68.272 19.5044 68.2945 19.5084C68.3174 19.5124 68.3403 19.5145 68.3631 19.5176C68.386 19.5203 68.4082 19.5243 68.4311 19.5264C68.454 19.5283 68.4776 19.5286 68.5008 19.5295C68.5237 19.5304 68.5466 19.5326 68.5698 19.5326C68.5709 19.5326 68.5723 19.5326 68.5734 19.5326C68.621 19.5326 68.6678 19.5304 68.7139 19.5264C68.734 19.5249 68.7536 19.5212 68.7736 19.5188C68.799 19.5157 68.8251 19.5133 68.8502 19.5087C68.8766 19.5041 68.902 19.4977 68.9278 19.4918C68.9456 19.4876 68.9642 19.4845 68.9818 19.4799C69.0104 19.4723 69.0383 19.4628 69.0662 19.4536C69.0797 19.449 69.0944 19.4453 69.108 19.4404C69.1359 19.4303 69.1623 19.4184 69.1892 19.407C69.202 19.4015 69.2153 19.3969 69.2281 19.3911C69.2532 19.3795 69.2768 19.366 69.3007 19.3532C69.3143 19.3461 69.3283 19.3397 69.3411 19.332C69.3633 19.3195 69.3844 19.3051 69.4055 19.291C69.4194 19.2821 69.4338 19.2739 69.447 19.2644C69.4666 19.2509 69.4845 19.2356 69.5031 19.2209C69.5171 19.2102 69.5314 19.1998 69.545 19.1887C69.5621 19.1741 69.5775 19.1581 69.5936 19.1428C69.6068 19.1303 69.6211 19.118 69.6336 19.1052C69.6479 19.0902 69.6608 19.0742 69.6744 19.0586C69.6873 19.0439 69.7009 19.0299 69.7127 19.0145C69.7252 18.9989 69.7356 18.9827 69.747 18.9665C69.7584 18.9503 69.771 18.9343 69.7817 18.9178C69.7921 18.9013 69.8006 18.8841 69.8103 18.8673C69.8199 18.8498 69.8307 18.8327 69.8396 18.8149C69.8482 18.7978 69.8546 18.7797 69.8621 18.7623C69.8704 18.7439 69.8789 18.7258 69.8861 18.7069C69.8925 18.6888 69.8972 18.6704 69.9025 18.6521C69.9083 18.6328 69.9151 18.6138 69.9201 18.5942C69.9244 18.5758 69.9269 18.5565 69.9301 18.5375C69.934 18.5176 69.9383 18.4977 69.9408 18.4775C69.9433 18.4586 69.9433 18.439 69.9444 18.4197C69.9458 18.3992 69.9483 18.3793 69.9483 18.3587L69.9801 7.61865C69.9801 7.21329 70.1807 6.82325 70.5448 6.52045C70.936 6.19562 71.4652 6.01621 71.9948 6.03029C72.9867 6.0557 73.7938 6.79447 73.7938 7.67896L73.8095 18.2932C73.8095 18.3147 73.812 18.3355 73.8135 18.3563C73.8145 18.375 73.8145 18.3943 73.8167 18.4126C73.8192 18.4347 73.8242 18.4558 73.8281 18.4772C73.8313 18.4947 73.8335 18.5124 73.8374 18.5296C73.8431 18.5529 73.851 18.5755 73.8582 18.5982C73.8628 18.6129 73.8664 18.6279 73.8714 18.6423C73.8803 18.6667 73.8918 18.6906 73.9025 18.7145C73.9079 18.7264 73.9118 18.7387 73.9175 18.7503C73.9304 18.7757 73.9451 18.8005 73.9597 18.825C73.9654 18.8342 73.9697 18.844 73.9755 18.8529C73.9915 18.8783 74.0098 18.9025 74.0277 18.9264C74.0334 18.9343 74.0384 18.9423 74.0445 18.9499C74.0634 18.9741 74.0842 18.9968 74.1049 19.0194C74.1113 19.0265 74.1171 19.0338 74.1235 19.0406C74.1467 19.0648 74.1718 19.0874 74.1972 19.1098C74.2025 19.1147 74.2068 19.1196 74.2122 19.1241C74.2383 19.1465 74.2662 19.1673 74.2944 19.1878C74.2998 19.1918 74.3044 19.1961 74.3098 19.2001C74.338 19.22 74.3674 19.238 74.397 19.2558C74.4035 19.2598 74.4092 19.2641 74.4156 19.2677C74.4457 19.2852 74.4771 19.3008 74.5086 19.3161C74.5154 19.3195 74.5218 19.3235 74.529 19.3268C74.5619 19.3418 74.5959 19.3553 74.6302 19.3685C74.6366 19.3709 74.6427 19.374 74.6491 19.3764C74.6842 19.389 74.7203 19.3997 74.7568 19.4101C74.7632 19.4116 74.7689 19.4141 74.7754 19.4159C74.8115 19.4254 74.8483 19.4331 74.8851 19.4401C74.8927 19.4413 74.8998 19.4435 74.9073 19.445C74.9967 19.4606 75.0893 19.4689 75.1841 19.4689C75.1848 19.4689 75.1855 19.4689 75.1862 19.4689C75.2102 19.4689 75.2338 19.4667 75.2574 19.4658C75.2803 19.4646 75.3032 19.4646 75.3257 19.4628C75.3507 19.4603 75.3747 19.4563 75.3994 19.453C75.4201 19.4502 75.4416 19.4484 75.4623 19.4447C75.487 19.4404 75.5109 19.4343 75.5352 19.4288C75.5549 19.4242 75.5746 19.4208 75.5939 19.4156C75.6186 19.4092 75.6422 19.4009 75.6661 19.393C75.684 19.3871 75.7026 19.3825 75.7201 19.3761C75.7448 19.3669 75.7687 19.3562 75.7927 19.3461C75.8084 19.3394 75.8249 19.3336 75.8403 19.3265C75.8639 19.3155 75.8864 19.3026 75.9093 19.2907C75.9239 19.2827 75.9393 19.2757 75.9536 19.2674C75.9754 19.2549 75.9958 19.2408 76.0166 19.227C76.0309 19.2178 76.0455 19.2093 76.0595 19.1995C76.0791 19.1857 76.0977 19.1701 76.1167 19.1551C76.1299 19.1447 76.1439 19.1346 76.1571 19.1235C76.1746 19.1082 76.1911 19.0917 76.2079 19.0758C76.2204 19.0638 76.2336 19.0525 76.2458 19.04C76.2608 19.024 76.2744 19.0072 76.2883 18.991C76.3005 18.9769 76.3133 18.9634 76.3248 18.9493C76.3377 18.9331 76.3484 18.916 76.3602 18.8991C76.3713 18.8835 76.3834 18.8682 76.3934 18.8523C76.4042 18.8354 76.4128 18.8177 76.4224 18.8005C76.4321 18.7834 76.4428 18.7669 76.4514 18.7491C76.4596 18.7323 76.4664 18.7145 76.4735 18.6971C76.4818 18.6784 76.4907 18.66 76.4975 18.641C76.5039 18.6227 76.5086 18.604 76.5143 18.5853C76.52 18.5663 76.5268 18.5476 76.5311 18.5284C76.5358 18.5091 76.5383 18.4892 76.5418 18.4699C76.5451 18.4503 76.5497 18.431 76.5519 18.4114C76.5544 18.3915 76.5544 18.3713 76.5554 18.3511C76.5569 18.3312 76.559 18.3119 76.559 18.2917V4.14159C76.559 3.2378 77.4172 2.49016 78.4717 2.47455C78.9806 2.46842 79.464 2.63681 79.8391 2.95246C80.2296 3.28097 80.4535 3.73501 80.4535 4.19792V18.3566C80.4535 18.378 80.456 18.3989 80.4574 18.42C80.4585 18.4387 80.4585 18.4576 80.4606 18.4763C80.4631 18.4971 80.4681 18.5173 80.4717 18.5379C80.4753 18.5565 80.4774 18.5752 80.4817 18.5933C80.4867 18.6138 80.4939 18.6337 80.5 18.6539C80.5053 18.6713 80.5093 18.6888 80.5157 18.7059C80.5236 18.7277 80.5336 18.7488 80.5429 18.7699C80.5493 18.7846 80.5547 18.7996 80.5618 18.814C80.5729 18.8361 80.5858 18.8572 80.5983 18.8786C80.6055 18.8912 80.6119 18.9043 80.6198 18.9169C80.6333 18.9386 80.6491 18.9591 80.6645 18.9799C80.6727 18.991 80.6798 19.0029 80.6888 19.0139C80.7052 19.0347 80.7235 19.0547 80.7417 19.0746C80.7506 19.0843 80.7585 19.0948 80.7678 19.1042C80.7878 19.1254 80.81 19.145 80.8318 19.1649C80.8404 19.1722 80.8479 19.1805 80.8565 19.1878C80.879 19.2074 80.9033 19.2252 80.9276 19.2432C80.9366 19.25 80.9448 19.2573 80.9541 19.2638C80.9813 19.283 81.0099 19.3005 81.0385 19.3179C81.0456 19.3222 81.0524 19.3271 81.0599 19.3317C81.0907 19.3495 81.1229 19.3657 81.1554 19.3813C81.1615 19.3841 81.1669 19.3878 81.1729 19.3905C81.2087 19.407 81.2452 19.4217 81.2827 19.4358C81.2863 19.437 81.2895 19.4389 81.2931 19.4401C81.3321 19.4542 81.3721 19.4664 81.4129 19.4775C81.415 19.4784 81.4172 19.479 81.4197 19.4796C81.5051 19.5026 81.5942 19.5182 81.6861 19.5264C81.6868 19.5264 81.6872 19.5264 81.6879 19.5264C81.734 19.5304 81.7808 19.5326 81.8284 19.5326C81.8288 19.5326 81.8291 19.5326 81.8298 19.5326C81.8541 19.5326 81.8781 19.5304 81.9024 19.5295C81.9249 19.5283 81.9475 19.5283 81.9696 19.5264C81.995 19.5243 82.0197 19.52 82.0447 19.5166C82.0651 19.5139 82.0859 19.5121 82.1062 19.5084C82.1331 19.5038 82.1588 19.4971 82.1849 19.4912C82.2024 19.4873 82.2207 19.4842 82.2378 19.4796C82.2657 19.4719 82.2925 19.4628 82.3197 19.4539C82.3344 19.449 82.3494 19.445 82.3641 19.4398C82.3916 19.4297 82.4181 19.4181 82.4449 19.4064C82.4578 19.4009 82.4713 19.3963 82.4842 19.3902C82.5103 19.378 82.5353 19.3642 82.5607 19.3504C82.5729 19.344 82.5854 19.3382 82.5976 19.3311C82.6233 19.3164 82.6473 19.2999 82.6716 19.2837C82.682 19.2769 82.693 19.2705 82.7034 19.2635C82.7274 19.2463 82.7499 19.2276 82.7728 19.2093C82.7821 19.2019 82.7921 19.1952 82.8007 19.1875C82.8228 19.1685 82.8436 19.1483 82.864 19.1278C82.8726 19.1199 82.8815 19.1122 82.8897 19.1039C82.9094 19.0834 82.9273 19.0617 82.9451 19.0403C82.9527 19.0311 82.9612 19.0225 82.9687 19.0133C82.9855 18.9919 83.0006 18.9695 83.0156 18.9472C83.0227 18.9368 83.031 18.927 83.0378 18.9163C83.0521 18.8936 83.0642 18.87 83.0767 18.8465C83.0828 18.8354 83.09 18.8247 83.0953 18.8134C83.1068 18.7904 83.1161 18.7666 83.1257 18.743C83.1307 18.7304 83.1372 18.7182 83.1418 18.705C83.1497 18.6827 83.1558 18.6591 83.1626 18.6361C83.1665 18.6214 83.1719 18.607 83.1754 18.5923C83.1808 18.5697 83.184 18.5461 83.1879 18.5232C83.1904 18.5072 83.1944 18.4916 83.1962 18.4754C83.199 18.454 83.199 18.4319 83.2001 18.4099C83.2012 18.3918 83.2033 18.3741 83.2033 18.3554V8.64031C83.2927 7.98359 83.9439 7.46343 84.7324 7.45179C85.1375 7.44598 85.5287 7.58252 85.8309 7.83694C86.147 8.10269 86.3283 8.47008 86.3283 8.84451V22.7378L86.329 22.7904C86.3365 23.5531 86.9215 24.1975 87.7844 24.3941C88.6415 24.5891 89.5172 24.2808 89.9678 23.6201L89.9764 23.6069C91.0541 21.9947 93.9348 19.4677 94.7759 18.938C94.8731 18.8765 94.9851 18.8272 95.1084 18.7904C95.6563 18.6285 96.3432 18.7433 96.8188 19.0764C97.0426 19.2334 97.2983 19.4967 97.2418 19.8589Z" fill="#F48C06"/>
<defs>
<filter id="filter0_d_10_554" x="0" y="673" width="161" height="161" filterUnits="userSpaceOnUse" color-interpolation-filters="sRGB">
<feFlood flood-opacity="0" result="BackgroundImageFix"/>
<feColorMatrix in="SourceAlpha" type="matrix" values="0 0 0 0 0 0 0 0 0 0 0 0 0 0 0 0 0 0 127 0" result="hardAlpha"/>
<feOffset dx="2" dy="10"/>
<feGaussianBlur stdDeviation="17"/>
<feColorMatrix type="matrix" values="0 0 0 0 0.0599965 0 0 0 0 0.0750638 0 0 0 0 0.154167 0 0 0 0.15 0"/>
<feBlend mode="normal" in2="BackgroundImageFix" result="effect1_dropShadow_10_554"/>
<feBlend mode="normal" in="SourceGraphic" in2="effect1_dropShadow_10_554" result="shape"/>
</filter>
<filter id="filter1_d_10_554" x="10" y="683" width="141" height="141" filterUnits="userSpaceOnUse" color-interpolation-filters="sRGB">
<feFlood flood-opacity="0" result="BackgroundImageFix"/>
<feColorMatrix in="SourceAlpha" type="matrix" values="0 0 0 0 0 0 0 0 0 0 0 0 0 0 0 0 0 0 127 0" result="hardAlpha"/>
<feOffset dx="2" dy="10"/>
<feGaussianBlur stdDeviation="17"/>
<feColorMatrix type="matrix" values="0 0 0 0 0.0599965 0 0 0 0 0.0750638 0 0 0 0 0.154167 0 0 0 0.15 0"/>
<feBlend mode="normal" in2="BackgroundImageFix" result="effect1_dropShadow_10_554"/>
<feBlend mode="normal" in="SourceGraphic" in2="effect1_dropShadow_10_554" result="shape"/>
</filter>
</defs>
</svg>
