<svg width="17" height="25" viewBox="0 0 17 25" fill="none" xmlns="http://www.w3.org/2000/svg">
<path d="M8.74984 24.7534C8.10921 24.7534 7.58838 24.7118 7.18734 24.6284C6.79671 24.5451 6.40088 24.4253 5.99984 24.2743V21.9618C6.27588 22.0555 6.64567 22.1388 7.104 22.2118C7.57275 22.2795 8.03109 22.3159 8.479 22.3159C10.1457 22.3159 11.4009 21.842 12.2498 20.8993C13.0936 19.967 13.5207 18.7222 13.5207 17.1701V14.1284H13.2498C12.8019 15.1284 12.0832 15.9774 11.0832 16.6701C10.0936 17.368 8.90088 17.7118 7.49984 17.7118C6.08317 17.7118 4.83838 17.3524 3.77067 16.6284C2.71338 15.9097 1.88525 14.8993 1.2915 13.6076C0.708171 12.3159 0.416504 10.8368 0.416504 9.17008C0.416504 7.50342 0.708171 6.02425 1.2915 4.73258C1.88525 3.44092 2.71338 2.43571 3.77067 1.71175C4.83838 0.993002 6.08317 0.628418 7.49984 0.628418C8.96859 0.628418 10.1978 1.01383 11.1873 1.77425C12.1873 2.52425 12.8853 3.39925 13.2915 4.39925H13.5207V1.17008H16.2915V17.1701C16.2915 18.3628 16.0467 19.5347 15.5623 20.6909C15.0884 21.842 14.2811 22.8055 13.1457 23.5868C12.0207 24.3628 10.5519 24.7534 8.74984 24.7534ZM8.39567 15.3576C9.479 15.3576 10.4009 15.0659 11.1665 14.4826C11.9425 13.8888 12.5103 13.118 12.8748 12.1701C13.2498 11.2118 13.4373 10.1909 13.4373 9.10758C13.4373 8.03988 13.2498 7.04508 12.8748 6.12842C12.5103 5.21175 11.9478 4.47217 11.1873 3.89925C10.4373 3.31592 9.50505 3.02425 8.39567 3.02425C6.75505 3.02425 5.49984 3.62321 4.62484 4.81592C3.76025 5.99821 3.33317 7.4305 3.33317 9.10758C3.33317 10.2222 3.52067 11.2534 3.89567 12.2118C4.27067 13.1597 4.83317 13.9201 5.58317 14.5034C6.34359 15.0763 7.28109 15.3576 8.39567 15.3576Z" fill="black"/>
</svg>
