<svg width="12" height="15" viewBox="0 0 12 15" fill="none" xmlns="http://www.w3.org/2000/svg">
<path d="M11.4928 8.12309H2.49284C2.54492 9.72205 2.93034 10.8939 3.63867 11.6439C4.34701 12.3835 5.31575 12.7481 6.55534 12.7481C7.48242 12.7481 8.23242 12.5814 8.80534 12.2481C9.37305 11.9148 9.81575 11.3939 10.1387 10.6856H10.3887L11.6595 11.4356C11.2845 12.3835 10.6699 13.1231 9.82617 13.6648C8.99284 14.2064 7.89909 14.4773 6.55534 14.4773C5.28971 14.4773 4.20117 14.2273 3.28451 13.7273C2.37826 13.2273 1.68034 12.472 1.18034 11.4564C0.690755 10.446 0.451172 9.18559 0.451172 7.68559C0.451172 6.20121 0.70638 4.95121 1.22201 3.93559C1.74805 2.90955 2.45638 2.14392 3.34701 1.64392C4.24805 1.14392 5.27409 0.893921 6.43034 0.893921C8.10742 0.893921 9.41992 1.36788 10.3678 2.31059C11.3105 3.2585 11.7845 4.65955 11.7845 6.51892C11.7845 7.24288 11.7689 7.72725 11.7428 7.97725L11.4928 8.12309ZM9.86784 6.51892C9.83659 5.11788 9.53451 4.10225 8.95117 3.47725C8.36784 2.84184 7.52409 2.51892 6.43034 2.51892C5.28971 2.51892 4.38867 2.84184 3.72201 3.47725C3.06575 4.11788 2.66992 5.1335 2.53451 6.51892H9.86784Z" fill="black"/>
</svg>
