<svg width="55" height="52" viewBox="0 0 55 52" fill="none" xmlns="http://www.w3.org/2000/svg">
<path d="M27.8427 51.5367C22.5198 51.5367 17.8219 50.4637 13.7385 48.3283C9.66561 46.1773 6.47811 43.1981 4.17603 39.3908C1.88436 35.5887 0.738525 31.1773 0.738525 26.1617C0.738525 21.1512 1.88436 16.7554 4.17603 12.9742C6.47811 9.19812 9.68644 6.23979 13.801 4.09916C17.9104 1.94812 22.6239 0.869995 27.9469 0.869995C33.6812 0.869995 38.6187 2.09395 42.7594 4.53666C46.8948 6.98458 50.0354 10.4273 52.176 14.87C54.3271 19.3179 55.2489 24.5315 54.9469 30.5158H17.9677C18.6344 33.1148 19.8948 35.0783 21.7594 36.4117C23.6344 37.7346 25.7854 38.3908 28.2177 38.3908C30.0771 38.3908 31.7906 38.0575 33.3635 37.3908C34.9469 36.7242 36.2177 35.8231 37.176 34.6825H54.051C51.9364 40.0054 48.5979 44.1408 44.0302 47.0992C39.4573 50.0575 34.0614 51.5367 27.8427 51.5367ZM18.051 21.0783H38.3635C37.6396 18.844 36.4156 17.094 34.6969 15.8283C32.9729 14.5523 30.7802 13.9117 28.1135 13.9117C25.6969 13.9117 23.5927 14.5367 21.801 15.7867C20.0198 17.0262 18.7698 18.7867 18.051 21.0783Z" fill="#690061"/>
</svg>
