<svg width="11" height="15" viewBox="0 0 11 15" fill="none" xmlns="http://www.w3.org/2000/svg">
<path d="M5.40609 14.2771C4.57275 14.2771 3.80713 14.1729 3.11442 13.9646C2.4165 13.7458 1.82796 13.4437 1.34359 13.0687C0.854003 12.6833 0.515462 12.251 0.322754 11.7771L1.44775 10.5896H1.69775C2.12484 11.2302 2.64046 11.7146 3.23942 12.0479C3.8488 12.3812 4.57275 12.5479 5.40609 12.5479C6.36442 12.5479 7.09359 12.3604 7.59359 11.9854C8.104 11.6104 8.36442 11.0844 8.36442 10.4021C8.36442 9.89164 8.20817 9.46456 7.90609 9.13123C7.5988 8.79789 7.104 8.54789 6.42692 8.38123L4.21859 7.83956C3.0363 7.54789 2.17692 7.09998 1.63525 6.48539C1.09359 5.86039 0.822754 5.09998 0.822754 4.19373C0.822754 3.47498 0.999838 2.85518 1.36442 2.33956C1.7238 1.81352 2.24463 1.41247 2.92692 1.13123C3.61963 0.839559 4.43213 0.693726 5.36442 0.693726C6.57275 0.693726 7.52067 0.860392 8.21859 1.19373C8.9113 1.52706 9.45296 1.99581 9.84359 2.58956L8.73942 3.67289H8.51025C8.09359 3.18852 7.63525 2.83956 7.13525 2.63123C6.63525 2.41247 6.0415 2.29789 5.36442 2.29789C4.49984 2.29789 3.84359 2.45414 3.38525 2.75623C2.92692 3.06352 2.69775 3.51664 2.69775 4.11039C2.69775 4.64164 2.854 5.06873 3.17692 5.40206C3.51025 5.72498 4.07796 5.98018 4.88525 6.17289L7.05192 6.69373C8.18734 6.95935 9.01025 7.40206 9.51025 8.02706C10.0207 8.65206 10.2811 9.43852 10.2811 10.3812C10.2811 11.1469 10.0988 11.8291 9.73942 12.4229C9.37484 13.0062 8.82796 13.4646 8.09359 13.7979C7.354 14.1156 6.45817 14.2771 5.40609 14.2771Z" fill="black"/>
</svg>
