<svg width="17" height="19" viewBox="0 0 17 19" fill="none" xmlns="http://www.w3.org/2000/svg">
<path d="M8.52734 18.4714C6.80339 18.4714 5.34505 18.0547 4.15234 17.2214C2.97005 16.388 2.08984 15.2995 1.50651 13.9505C0.933594 12.6068 0.652344 11.1901 0.652344 9.70052C0.652344 8.1901 0.933594 6.76302 1.50651 5.42969C2.08984 4.09635 2.97526 3.01302 4.17318 2.17969C5.36589 1.34635 6.82943 0.929688 8.56901 0.929688C10.8294 0.929688 12.6367 1.6901 13.9857 3.20052C15.3451 4.71615 16.0273 6.88802 16.0273 9.72135V10.4922H3.40234V10.7214C3.40234 11.6693 3.61589 12.5547 4.04818 13.388C4.47526 14.2109 5.07422 14.8776 5.83984 15.388C6.60026 15.9036 7.49089 16.1589 8.50651 16.1589C9.58984 16.1589 10.5273 15.8828 11.319 15.3255C12.1107 14.7734 12.694 14.0286 13.069 13.0964H15.7982C15.3503 14.6276 14.5117 15.9036 13.2773 16.9297C12.0534 17.9609 10.4701 18.4714 8.52734 18.4714ZM13.2982 8.55469C13.2148 6.6276 12.7409 5.23698 11.8815 4.38802C11.0326 3.52865 9.91276 3.09635 8.52734 3.09635C7.01172 3.09635 5.80339 3.60677 4.90234 4.61719C4.01172 5.61719 3.53776 6.92969 3.48568 8.55469H13.2982Z" fill="black"/>
</svg>
