<svg width="21" height="24" viewBox="0 0 21 24" fill="none" xmlns="http://www.w3.org/2000/svg">
<path d="M20.1709 23.1242H16.4626V18.8534H16.2126C15.6136 20.1607 14.6969 21.2649 13.4626 22.1659C12.223 23.0565 10.7126 23.4992 8.9209 23.4992C7.0459 23.4992 5.47298 23.0513 4.21257 22.1451C2.96257 21.2284 2.0459 20.0513 1.46257 18.6034C0.889649 17.1607 0.608398 15.5826 0.608398 13.8742V0.645081H4.27507V13.3951C4.27507 15.593 4.82194 17.2805 5.9209 18.4576C7.03027 19.6399 8.4834 20.2284 10.2751 20.2284C12.1501 20.2284 13.6501 19.5982 14.7751 18.3326C15.9001 17.0722 16.4626 15.4263 16.4626 13.3951V0.645081H20.1709V23.1242Z" fill="black"/>
</svg>
