<svg width="22" height="26" viewBox="0 0 22 26" fill="none" xmlns="http://www.w3.org/2000/svg">
<path d="M11.4709 25.8493C9.20524 25.8493 7.24691 25.318 5.59587 24.2451C3.95524 23.1618 2.70524 21.6774 1.84587 19.7868C0.981282 17.8857 0.554199 15.7347 0.554199 13.3285C0.554199 10.9274 0.981282 8.78158 1.84587 6.89095C2.70524 4.98991 3.95524 3.50553 5.59587 2.43262C7.24691 1.34928 9.20524 0.807617 11.4709 0.807617C14.1896 0.807617 16.4396 1.57845 18.2209 3.12012C19.9969 4.66178 21.1896 6.73991 21.8042 9.34928H18.8459C18.3563 7.55762 17.4709 6.14095 16.1792 5.09928C14.8875 4.0472 13.325 3.51595 11.4917 3.51595C8.97607 3.51595 7.04378 4.40658 5.70003 6.18262C4.3667 7.94824 3.70003 10.318 3.70003 13.2868C3.70003 16.3024 4.3667 18.693 5.70003 20.4535C7.04378 22.2191 8.97607 23.0993 11.4917 23.0993C13.2261 23.0993 14.7209 22.6357 15.9709 21.7035C17.2209 20.7607 18.1063 19.5055 18.6375 17.9326H21.5959C20.9396 20.3389 19.7417 22.2607 17.9917 23.7035C16.2521 25.1357 14.0802 25.8493 11.4709 25.8493Z" fill="#690061"/>
</svg>
