<svg width="16" height="25" viewBox="0 0 16 25" fill="none" xmlns="http://www.w3.org/2000/svg">
<path d="M0 0.346313H2.75V10.4088H3.02083C3.4375 9.44006 4.125 8.61715 5.08333 7.95048C6.05208 7.2734 7.22917 6.92965 8.60417 6.92965C10.0312 6.92965 11.2292 7.2734 12.1875 7.95048C13.1562 8.61715 13.875 9.50256 14.3333 10.5963C14.7917 11.6953 15.0208 12.8828 15.0208 14.1588V24.2421H12.25V14.513C12.25 12.8463 11.8177 11.5755 10.9583 10.7005C10.0938 9.82548 8.94792 9.38798 7.52083 9.38798C6.15625 9.38798 5.02083 9.84631 4.10417 10.763C3.19792 11.6796 2.75 12.9296 2.75 14.513V24.2421H0V0.346313Z" fill="black"/>
</svg>
