<svg width="14" height="15" viewBox="0 0 14 15" fill="none" xmlns="http://www.w3.org/2000/svg">
<path d="M5.37272 14.0783C3.79981 14.0783 2.58626 13.4897 1.72689 12.3075C0.877929 11.1147 0.456055 9.51579 0.456055 7.51579C0.456055 5.50537 0.893555 3.90121 1.76855 2.70329C2.65397 1.51058 3.87272 0.911621 5.41439 0.911621C6.49772 0.911621 7.32064 1.15121 7.89355 1.61995C8.46126 2.09391 8.8623 2.56787 9.10189 3.03662H9.28939V1.18245H13.0602V13.87H9.28939V11.8283H9.10189C8.85189 12.3439 8.43522 12.8491 7.85189 13.3491C7.26855 13.8387 6.44043 14.0783 5.37272 14.0783ZM6.78939 11.0783C7.63314 11.0783 8.26855 10.7241 8.68522 10.0158C9.10189 9.30746 9.31022 8.46891 9.31022 7.49495C9.31022 6.52621 9.10189 5.68245 8.68522 4.97412C8.26855 4.26579 7.63314 3.91162 6.78939 3.91162C5.91439 3.91162 5.26855 4.26058 4.85189 4.95329C4.44564 5.65121 4.24772 6.48454 4.24772 7.45329C4.24772 8.45329 4.44564 9.30746 4.85189 10.0158C5.26855 10.7241 5.91439 11.0783 6.78939 11.0783Z" fill="black"/>
</svg>
