<svg width="12" height="20" viewBox="0 0 12 20" fill="none" xmlns="http://www.w3.org/2000/svg">
<path d="M0.355469 19.027V0.672852H2.29297V7.79785L2.54297 7.83952C3.47005 6.41243 4.82422 5.69369 6.60547 5.69369C8.17318 5.69369 9.3138 6.09994 10.0221 6.90202C10.7305 7.69369 11.0846 8.92285 11.0846 10.5895V19.027H9.14714V10.652C9.14714 9.86035 9.04297 9.23014 8.83464 8.75619C8.63672 8.27181 8.32422 7.91764 7.89714 7.69369C7.48047 7.47494 6.92318 7.36035 6.23047 7.36035C5.04818 7.36035 4.09505 7.75098 3.3763 8.52702C2.65234 9.29264 2.29297 10.5479 2.29297 12.2979V19.027H0.355469Z" fill="black"/>
</svg>
