<svg width="21" height="24" viewBox="0 0 21 24" fill="none" xmlns="http://www.w3.org/2000/svg">
<path d="M10.6399 23.4159C8.3326 23.4159 6.38989 22.869 4.80656 21.77C3.23364 20.6607 2.06177 19.2075 1.28573 17.4159C0.520101 15.6242 0.139893 13.7284 0.139893 11.7284C0.139893 9.71796 0.520101 7.82212 1.28573 6.04087C2.06177 4.26483 3.24406 2.82733 4.82739 1.72837C6.42114 0.618999 8.37427 0.0617065 10.6816 0.0617065C13.692 0.0617065 16.1034 1.07212 17.9107 3.08254C19.7128 5.09817 20.6191 7.994 20.6191 11.77V12.8117H3.80656V13.1034C3.80656 14.3534 4.08781 15.5357 4.66073 16.645C5.22843 17.7596 6.02531 18.6555 7.05656 19.3325C8.0826 20.0148 9.26489 20.3534 10.5982 20.3534C12.0409 20.3534 13.2909 19.9888 14.3482 19.2492C15.4003 18.5148 16.1868 17.5148 16.7024 16.2492H20.3274C19.7284 18.3065 18.6086 20.0148 16.9732 21.3742C15.3326 22.7388 13.2232 23.4159 10.6399 23.4159ZM16.9941 10.2075C16.8795 7.65546 16.2545 5.8065 15.1191 4.66587C13.9784 3.53046 12.4836 2.95754 10.6399 2.95754C8.62427 2.95754 7.0201 3.62421 5.82739 4.95754C4.62948 6.29087 3.99406 8.04087 3.91073 10.2075H16.9941Z" fill="black"/>
</svg>
