<svg width="13" height="14" viewBox="0 0 13 14" fill="none" xmlns="http://www.w3.org/2000/svg">
<path d="M6.69295 13.8498C5.40129 13.8498 4.30754 13.5373 3.42212 12.9123C2.53149 12.2873 1.87004 11.4748 1.44295 10.4748C1.01066 9.4644 0.797119 8.39148 0.797119 7.26648C0.797119 6.14148 1.01066 5.07898 1.44295 4.07898C1.87004 3.07898 2.53149 2.26648 3.42212 1.64148C4.32316 1.01648 5.42212 0.703979 6.71379 0.703979C8.40649 0.703979 9.76066 1.2769 10.7763 2.41231C11.8023 3.53731 12.318 5.17273 12.318 7.30815V7.87065H2.85962V8.03731C2.85962 8.74565 3.01587 9.41231 3.33879 10.0373C3.65649 10.6623 4.0992 11.1727 4.67212 11.5581C5.25545 11.9331 5.92212 12.1206 6.67212 12.1206C7.48983 12.1206 8.19295 11.9123 8.77629 11.4956C9.37004 11.079 9.81795 10.5269 10.1096 9.82898H12.1513C11.8023 10.9696 11.1721 11.9279 10.2555 12.704C9.33879 13.4696 8.15129 13.8498 6.69295 13.8498ZM10.2763 6.41231C10.2034 4.9696 9.8492 3.92794 9.21379 3.28731C8.57316 2.6519 7.73462 2.32898 6.69295 2.32898C5.55233 2.32898 4.65129 2.70398 3.98462 3.45398C3.31795 4.20398 2.95337 5.19356 2.90129 6.41231H10.2763Z" fill="black"/>
</svg>
