<svg width="9" height="19" viewBox="0 0 9 19" fill="none" xmlns="http://www.w3.org/2000/svg">
<path d="M4.96566 6.47481V14.6206C4.96566 15.2873 4.9917 15.7821 5.04899 16.0998C5.1167 16.4071 5.28858 16.6519 5.56982 16.829C5.84587 16.9956 6.29899 17.079 6.92399 17.079C7.35107 17.079 7.80941 17.0165 8.29899 16.8915V18.5581C8.18441 18.5998 7.91358 18.6519 7.48649 18.704C7.06982 18.7561 6.63753 18.7873 6.19482 18.7873C5.16358 18.7873 4.39274 18.6415 3.88232 18.3498C3.38232 18.0581 3.0542 17.6623 2.90316 17.1623C2.74691 16.6519 2.67399 15.9748 2.67399 15.1415V6.47481H0.0698242V4.62065H2.67399V0.0164795H4.96566V4.62065H8.29899V6.47481H4.96566Z" fill="black"/>
</svg>
