<svg width="10" height="17" viewBox="0 0 10 17" fill="none" xmlns="http://www.w3.org/2000/svg">
<path d="M6.72542 7.07837V12.1617C6.72542 12.7346 6.75146 13.1513 6.80876 13.4117C6.86084 13.6773 7.0223 13.8909 7.28792 14.0575C7.54834 14.2138 7.97542 14.2867 8.55876 14.2867C8.86084 14.2867 9.17334 14.2555 9.49626 14.1825V16.7659C9.34001 16.8075 9.0223 16.844 8.53792 16.87C8.06396 16.9117 7.5848 16.9325 7.10042 16.9325C5.85042 16.9325 4.92334 16.7555 4.32959 16.3909C3.73063 16.0159 3.35563 15.568 3.20459 15.0367C3.06396 14.5107 2.99626 13.8232 2.99626 12.9742V7.07837H0.95459V4.18254H2.99626V0.0783691H6.72542V4.18254H9.49626V7.07837H6.72542Z" fill="black"/>
</svg>
