<svg width="22" height="32" viewBox="0 0 22 32" fill="none" xmlns="http://www.w3.org/2000/svg">
<path d="M11.0075 26.2284C10.5492 27.3117 10.1117 28.1971 9.69499 28.895C9.28874 29.6034 8.61686 30.27 7.67415 30.895C6.72624 31.52 5.50749 31.8325 4.00749 31.8325C3.21582 31.8325 2.36165 31.7127 1.44499 31.4784V28.7492C2.12207 28.8586 2.72103 28.9159 3.23665 28.9159C4.17936 28.9159 4.93457 28.7336 5.50749 28.3742C6.0752 28.0252 6.5179 27.5669 6.84082 26.9992C7.17415 26.4263 7.55957 25.6086 8.00749 24.5409L9.04915 22.02L0.71582 0.64502H4.56999L10.8408 17.9575H11.0908L17.6533 0.64502H21.4867L11.0075 26.2284Z" fill="black"/>
</svg>
