<svg width="18" height="20" viewBox="0 0 18 20" fill="none" xmlns="http://www.w3.org/2000/svg">
<path d="M8.11418 19.9434C6.48918 19.9434 5.10376 19.5267 3.96834 18.6934C2.82772 17.86 1.95272 16.7298 1.34334 15.2975C0.744384 13.8704 0.44751 12.2507 0.44751 10.4434C0.44751 8.64128 0.749592 7.01628 1.36418 5.56836C1.97355 4.12565 2.86418 2.99544 4.03084 2.17253C5.19751 1.35482 6.59334 0.943359 8.21834 0.943359C9.82772 0.943359 11.135 1.32878 12.135 2.08919C13.135 2.85482 13.885 3.76628 14.385 4.81836H14.635V1.42253H17.6558V19.6934H14.635V15.9434H14.385C13.8277 17.0267 13.0413 17.9642 12.0308 18.7559C11.0152 19.5475 9.70793 19.9434 8.11418 19.9434ZM9.05168 17.3809C10.8277 17.3809 12.1871 16.7142 13.135 15.3809C14.0777 14.0475 14.5517 12.4017 14.5517 10.4434C14.5517 8.47461 14.0777 6.82878 13.135 5.50586C12.1871 4.17253 10.8277 3.50586 9.05168 3.50586C7.21834 3.50586 5.83293 4.16732 4.90584 5.48503C3.97355 6.80794 3.51001 8.44336 3.51001 10.4017C3.51001 12.3913 3.97355 14.0475 4.90584 15.3809C5.83293 16.7142 7.21834 17.3809 9.05168 17.3809Z" fill="#690061"/>
</svg>
