<svg width="22" height="37" viewBox="0 0 22 37" fill="none" xmlns="http://www.w3.org/2000/svg">
<path d="M19.3426 29.1029L21.2384 34.4987C20.4468 35.1393 19.452 35.6446 18.2593 36.0196C17.077 36.3946 15.728 36.5821 14.2176 36.5821C11.077 36.5821 8.68636 35.7279 7.05094 34.0196C5.42594 32.3008 4.61344 29.806 4.61344 26.5404V12.7487H0.196777V6.95705H4.61344V1.31122L11.9051 0.123718V6.95705H20.1343V12.7487H11.9051V26.0196C11.9051 27.4675 12.202 28.5143 12.8009 29.1654C13.3947 29.8216 14.2645 30.1446 15.4051 30.1446C16.6968 30.1446 17.827 29.8008 18.8009 29.1029H19.3426Z" fill="black"/>
</svg>
