<svg width="80" height="73" viewBox="0 0 80 73" fill="none" xmlns="http://www.w3.org/2000/svg">
<path d="M65.5721 55.0277V32.0068L47.0929 69.0902C46.9679 69.4548 46.6971 69.6318 46.2804 69.6318H35.1138C34.6398 69.6318 34.3429 69.4548 34.2179 69.0902L14.5513 31.0068V71.7152C14.5513 72.2568 14.2179 72.5277 13.5513 72.5277H1.59294C0.978352 72.5277 0.67627 72.2568 0.67627 71.7152V0.819336C0.67627 0.277669 0.978352 0.00683594 1.59294 0.00683594H13.7388C14.2075 0.00683594 14.5096 0.189128 14.6346 0.548503L40.6554 53.6735L65.4054 0.548503C65.6398 0.189128 65.9679 0.00683594 66.3846 0.00683594H78.3638C79.0304 0.00683594 79.3638 0.277669 79.3638 0.819336V55.0277H65.5721Z" fill="#562A2A"/>
</svg>
