<svg width="54" height="64" viewBox="0 0 54 64" fill="none" xmlns="http://www.w3.org/2000/svg">
<path d="M0.630371 63.9688V0.510437H27.3804C32.7554 0.510437 37.422 1.47919 41.3804 3.40627C45.3387 5.33856 48.3856 8.08856 50.5262 11.6563C52.6772 15.2292 53.7554 19.4584 53.7554 24.3438C53.7554 29.1771 52.6772 33.3959 50.5262 36.9896C48.3856 40.5886 45.3387 43.375 41.3804 45.3438C37.422 47.3021 32.7554 48.2813 27.3804 48.2813H18.9429V63.9688H0.630371ZM18.7554 32.9688H25.6512C28.6772 32.9688 31.0366 32.2136 32.7345 30.6979C34.4272 29.1875 35.2762 27.1042 35.2762 24.4479C35.2762 21.7813 34.4272 19.6927 32.7345 18.1771C31.0366 16.6667 28.6772 15.9063 25.6512 15.9063H18.7554V32.9688Z" fill="#690061"/>
</svg>
