<svg width="14" height="19" viewBox="0 0 14 19" fill="none" xmlns="http://www.w3.org/2000/svg">
<path d="M7.25195 18.4714C5.87695 18.4714 4.68945 18.2005 3.68945 17.6589C2.68945 17.1068 1.92383 16.4036 1.39779 15.5547C0.882161 14.7109 0.626953 13.8151 0.626953 12.8672V12.7005H3.37695V12.8255C3.37695 13.3672 3.52279 13.9036 3.81445 14.4297C4.11654 14.9453 4.56966 15.3672 5.16862 15.7005C5.76237 16.0339 6.48633 16.2005 7.33529 16.2005C8.36133 16.2005 9.21029 15.9505 9.87695 15.4505C10.554 14.9505 10.8978 14.263 10.8978 13.388C10.8978 12.6536 10.6322 12.0755 10.1061 11.6589C9.5905 11.2318 8.93945 10.9505 8.14779 10.8255L5.93945 10.4922C4.54883 10.2839 3.38216 9.81511 2.43945 9.07552C1.50716 8.34115 1.04362 7.27344 1.04362 5.86719C1.04362 4.29948 1.5957 3.08594 2.71029 2.22135C3.83529 1.36198 5.27279 0.929688 7.02279 0.929688C8.32487 0.929688 9.43945 1.17448 10.3561 1.65885C11.2832 2.13281 11.9915 2.75781 12.4811 3.53385C12.9811 4.3151 13.2311 5.15885 13.2311 6.07552V6.20052H10.4811V6.13802C10.4811 5.72135 10.3665 5.27865 10.1478 4.80469C9.92383 4.33594 9.54362 3.92969 9.00195 3.59635C8.4707 3.2526 7.79362 3.07552 6.96029 3.07552C5.92904 3.07552 5.10612 3.32552 4.48112 3.82552C3.86654 4.32552 3.56445 4.98177 3.56445 5.78385C3.56445 6.45052 3.80404 7.0026 4.29362 7.42969C4.79362 7.86198 5.4082 8.13802 6.14779 8.26302L8.56445 8.63802C9.9655 8.8776 11.1478 9.36198 12.1061 10.0964C13.0645 10.8359 13.5436 11.9193 13.5436 13.3464C13.5436 14.3776 13.2728 15.2734 12.7311 16.0339C12.1895 16.7995 11.4395 17.3984 10.4811 17.8255C9.52279 18.2526 8.44466 18.4714 7.25195 18.4714Z" fill="black"/>
</svg>
