<svg width="13" height="15" viewBox="0 0 13 15" fill="none" xmlns="http://www.w3.org/2000/svg">
<path d="M6.88851 14.0783C5.53955 14.0783 4.40934 13.7762 3.49268 13.1616C2.57601 12.5522 1.89372 11.745 1.45101 10.745C1.01872 9.74496 0.805176 8.67204 0.805176 7.51579C0.805176 6.36475 1.01872 5.28662 1.45101 4.28662C1.89372 3.28662 2.57601 2.47412 3.49268 1.84912C4.40934 1.22412 5.56038 0.911621 6.95101 0.911621C8.74268 0.911621 10.1646 1.47412 11.2218 2.59912C12.2739 3.72412 12.8052 5.36475 12.8052 7.51579V8.53662H4.38851V8.72412C4.38851 9.39079 4.61768 9.9637 5.07601 10.4325C5.53434 10.9064 6.11768 11.1408 6.82601 11.1408C7.36768 11.1408 7.82601 11.0158 8.20101 10.7658C8.58643 10.5158 8.86768 10.1825 9.03434 9.76579H12.701C12.3781 11.0314 11.7218 12.0679 10.7218 12.87C9.72184 13.6772 8.44059 14.0783 6.88851 14.0783ZM9.22184 6.14079C9.20622 5.28141 8.98226 4.64079 8.55518 4.22412C8.13851 3.80745 7.57601 3.59912 6.86768 3.59912C6.14372 3.59912 5.56559 3.82308 5.13851 4.26579C4.72184 4.7137 4.50309 5.3387 4.49268 6.14079H9.22184Z" fill="black"/>
</svg>
