<svg width="13" height="15" viewBox="0 0 13 15" fill="none" xmlns="http://www.w3.org/2000/svg">
<path d="M6.4694 14.0783C5.10482 14.0783 3.9694 13.7762 3.05273 13.1616C2.13607 12.5366 1.45378 11.7241 1.01107 10.7241C0.578776 9.72412 0.365234 8.65121 0.365234 7.49495C0.365234 6.34391 0.578776 5.26579 1.01107 4.26579C1.45378 3.26579 2.13607 2.4637 3.05273 1.84912C3.9694 1.22412 5.10482 0.911621 6.4694 0.911621C8.16211 0.911621 9.51107 1.40121 10.5111 2.36995C11.5111 3.34391 12.1257 4.5887 12.3652 6.09912H8.7194C8.62044 5.44808 8.38607 4.92204 8.01107 4.51579C7.64648 4.11475 7.1569 3.91162 6.5319 3.91162C5.62565 3.91162 4.97982 4.26058 4.5944 4.95329C4.2194 5.65121 4.0319 6.49495 4.0319 7.49495C4.0319 8.49495 4.2194 9.34391 4.5944 10.0366C4.97982 10.7345 5.62565 11.0783 6.5319 11.0783C7.1569 11.0783 7.64648 10.8804 8.01107 10.4741C8.38607 10.0731 8.62044 9.55225 8.7194 8.91162H12.3652C12.1257 10.4116 11.5163 11.6512 10.5319 12.62C9.54232 13.5939 8.18815 14.0783 6.4694 14.0783Z" fill="black"/>
</svg>
