<svg width="22" height="32" viewBox="0 0 22 32" fill="none" xmlns="http://www.w3.org/2000/svg">
<path d="M10.9045 26.125C10.4461 27.1927 10.0086 28.073 9.59196 28.7709C9.18571 29.4792 8.51383 30.1459 7.57113 30.7709C6.63883 31.3959 5.41488 31.7084 3.90446 31.7084C3.11279 31.7084 2.25863 31.5886 1.34196 31.3542V28.625C2.01904 28.75 2.618 28.8125 3.13363 28.8125C4.07633 28.8125 4.83154 28.6302 5.40446 28.2709C5.97217 27.9063 6.41488 27.4427 6.73779 26.875C7.07113 26.3021 7.46696 25.4844 7.92529 24.4167L8.94613 21.8959L0.612793 0.520874H4.46696L10.7378 17.8334H10.9878L17.5503 0.520874H21.4045L10.9045 26.125Z" fill="#690061"/>
</svg>
