<svg width="12" height="14" viewBox="0 0 12 14" fill="none" xmlns="http://www.w3.org/2000/svg">
<path d="M5.91667 13.0254C4.70833 13.0254 3.67708 12.7337 2.83333 12.1504C2 11.5671 1.36458 10.8066 0.9375 9.85872C0.520833 8.91602 0.3125 7.90039 0.3125 6.81706C0.3125 5.72331 0.520833 4.70247 0.9375 3.75456C1.36458 2.81185 2 2.04622 2.83333 1.46289C3.67708 0.879557 4.70833 0.587891 5.91667 0.587891C7.125 0.587891 8.14583 0.879557 8.97917 1.46289C9.82292 2.04622 10.4583 2.81706 10.875 3.77539C11.2917 4.72331 11.5 5.73372 11.5 6.81706C11.5 7.88997 11.2813 8.90039 10.8542 9.85872C10.4375 10.8066 9.80208 11.5671 8.95833 12.1504C8.125 12.7337 7.10938 13.0254 5.91667 13.0254ZM5.91667 11.3379C6.66667 11.3379 7.3125 11.14 7.85417 10.7337C8.40625 10.3171 8.82292 9.77018 9.10417 9.08789C9.39583 8.39518 9.54167 7.62435 9.54167 6.77539C9.54167 5.48372 9.21354 4.41081 8.5625 3.54622C7.92188 2.68685 7.04167 2.25456 5.91667 2.25456C5.16667 2.25456 4.51042 2.46289 3.95833 2.87956C3.40104 3.28581 2.97917 3.83268 2.6875 4.52539C2.40625 5.20768 2.27083 5.95768 2.27083 6.77539C2.27083 8.08268 2.59375 9.17122 3.25 10.0462C3.90104 10.9108 4.79167 11.3379 5.91667 11.3379Z" fill="black"/>
</svg>
