<svg width="13" height="15" viewBox="0 0 13 15" fill="none" xmlns="http://www.w3.org/2000/svg">
<path d="M6.53451 14.4773C5.29492 14.4773 4.22201 14.222 3.30534 13.7064C2.38867 13.1804 1.68034 12.4095 1.18034 11.3939C0.690755 10.3679 0.451172 9.1335 0.451172 7.68559C0.451172 6.24288 0.690755 5.01371 1.18034 3.99809C1.68034 2.97205 2.38867 2.20121 3.30534 1.68559C4.22201 1.15955 5.29492 0.893921 6.53451 0.893921C7.76888 0.893921 8.83659 1.15955 9.74284 1.68559C10.6595 2.20121 11.3574 2.97205 11.847 3.99809C12.347 5.01371 12.597 6.24288 12.597 7.68559C12.597 9.1335 12.347 10.3679 11.847 11.3939C11.3574 12.4095 10.6595 13.1804 9.74284 13.7064C8.83659 14.222 7.76888 14.4773 6.53451 14.4773ZM6.53451 12.7481C7.83659 12.7481 8.83138 12.3418 9.51367 11.5189C10.2064 10.6856 10.5553 9.40955 10.5553 7.68559C10.5553 5.95121 10.2064 4.67517 9.51367 3.85225C8.83138 3.03455 7.83659 2.62309 6.53451 2.62309C5.22721 2.62309 4.22201 3.03975 3.51367 3.87309C2.81575 4.696 2.47201 5.96684 2.47201 7.68559C2.47201 9.40955 2.81575 10.6856 3.51367 11.5189C4.22201 12.3418 5.22721 12.7481 6.53451 12.7481Z" fill="black"/>
</svg>
