<svg width="56" height="74" viewBox="0 0 56 74" fill="none" xmlns="http://www.w3.org/2000/svg">
<path d="M13.1545 0.924255C16.6545 0.924255 20.3681 1.16905 24.3004 1.65342C28.2275 2.14301 32.0347 3.0805 35.717 4.46592C39.4098 5.85655 42.7483 7.88259 45.7379 10.5493C48.7223 13.2055 51.1025 16.6899 52.8837 21.0076C54.6754 25.3305 55.5712 30.7263 55.5712 37.1951C55.5712 43.419 54.6962 48.6638 52.9462 52.9243C51.1962 57.1743 48.8316 60.6482 45.8629 63.3409C42.9045 66.0232 39.5608 68.1066 35.842 69.5909C32.1337 71.0805 28.3264 72.0909 24.4254 72.6326C20.5347 73.1743 16.7795 73.4451 13.1545 73.4451H1.27954C0.612874 73.4451 0.279541 73.1743 0.279541 72.6326V44.1743H14.1545V60.1118C15.9045 60.1847 17.9514 60.143 20.3004 59.9868C22.6597 59.8357 25.0764 59.3826 27.5504 58.6326C30.0347 57.8722 32.3473 56.6743 34.4879 55.0493C36.6389 53.4138 38.3629 51.1482 39.6545 48.2576C40.9566 45.3565 41.6129 41.669 41.6129 37.1951C41.6129 31.4451 40.415 26.8357 38.0295 23.3618C35.6389 19.893 32.3733 17.419 28.2379 15.9451C24.0972 14.4607 19.4045 13.8618 14.1545 14.1534V30.2159H0.279541V1.73676C0.279541 1.19509 0.612874 0.924255 1.27954 0.924255H13.1545Z" fill="#562A2A" fill-opacity="0.502"/>
</svg>
