<svg width="35" height="24" viewBox="0 0 35 24" fill="none" xmlns="http://www.w3.org/2000/svg">
<path d="M0.052002 0.645101H3.677V4.79093H4.01034C4.06242 4.49927 4.34888 3.97843 4.8645 3.22843C5.37492 2.47843 6.15617 1.76489 7.19784 1.0826C8.24992 0.405518 9.56242 0.0617676 11.1353 0.0617676C12.7708 0.0617676 14.1405 0.447185 15.2395 1.2076C16.3333 1.97323 17.1562 2.80135 17.6978 3.68677C18.2395 4.56177 18.5103 5.11385 18.5103 5.3326H18.8437C19.2447 4.34823 20.0364 3.22323 21.2187 1.9576C22.3958 0.697185 24.2083 0.0617676 26.6562 0.0617676C28.4739 0.0617676 29.9947 0.530518 31.2187 1.4576C32.4374 2.37427 33.3437 3.55656 33.927 4.99927C34.5103 6.44719 34.802 7.99406 34.802 9.6451V23.1243H31.177V9.99927C31.177 7.8326 30.6145 6.19719 29.4895 5.0826C28.3645 3.97323 26.9739 3.41593 25.3228 3.41593C23.6249 3.41593 22.1874 3.99406 21.0103 5.1451C19.828 6.30135 19.2395 7.91593 19.2395 9.99927V23.1243H15.6145V9.99927C15.6145 7.8326 15.052 6.19719 13.927 5.0826C12.802 3.97323 11.4114 3.41593 9.76034 3.41593C8.052 3.41593 6.60408 3.99406 5.427 5.1451C4.26034 6.30135 3.677 7.91593 3.677 9.99927V23.1243H0.052002V0.645101Z" fill="black"/>
</svg>
