<svg width="12" height="13" viewBox="0 0 12 13" fill="none" xmlns="http://www.w3.org/2000/svg">
<path d="M0.445312 0.921224H2.38281V3.06706H2.57031C2.8724 2.37435 3.36719 1.79102 4.04948 1.31706C4.72656 0.832683 5.55469 0.587891 6.52865 0.587891C7.53906 0.587891 8.38802 0.832683 9.07031 1.31706C9.7474 1.79102 10.2474 2.41602 10.5703 3.19206C10.9036 3.97331 11.0703 4.81185 11.0703 5.71289V12.8587H9.11198V5.96289C9.11198 4.78581 8.80469 3.88997 8.19531 3.27539C7.58073 2.65039 6.78385 2.33789 5.79948 2.33789C4.75781 2.33789 3.92448 2.68164 3.29948 3.35872C2.6849 4.02539 2.38281 4.89518 2.38281 5.96289V12.8587H0.445312V0.921224Z" fill="black"/>
</svg>
