<svg width="21" height="32" viewBox="0 0 21 32" fill="none" xmlns="http://www.w3.org/2000/svg">
<path d="M10.7707 31.7771C7.68734 31.7771 5.29671 31.0427 3.604 29.5688C1.92171 28.0844 0.880045 26.2667 0.479004 24.1104H4.18734C4.58838 25.4177 5.33838 26.475 6.43734 27.2771C7.53109 28.0688 8.95817 28.4646 10.7082 28.4646C12.8175 28.4646 14.4061 27.9386 15.479 26.8813C16.5467 25.8292 17.0832 24.5011 17.0832 22.9021C17.0832 21.1417 16.4686 19.7927 15.2498 18.8604C14.0259 17.9177 12.5103 17.4438 10.7082 17.4438H7.89567V14.5063H10.5415C12.2498 14.5063 13.6978 14.1104 14.8957 13.3188C16.0884 12.5167 16.6873 11.2146 16.6873 9.42293C16.6873 7.77189 16.13 6.4646 15.0207 5.50627C13.9061 4.53752 12.4425 4.04793 10.6248 4.04793C8.92692 4.04793 7.58838 4.45418 6.604 5.25627C5.61442 6.04793 4.98421 7.08439 4.70817 8.36043H1.12484C1.45817 6.31877 2.37484 4.56877 3.87484 3.11043C5.38525 1.64168 7.65088 0.9021 10.6665 0.9021C12.8332 0.9021 14.6353 1.29793 16.0832 2.0896C17.5415 2.88127 18.6092 3.91773 19.2915 5.19377C19.9686 6.45939 20.3123 7.81356 20.3123 9.25627C20.3123 10.7979 19.9686 12.0636 19.2915 13.0479C18.6092 14.0219 17.8592 14.7458 17.0415 15.2146C16.2342 15.6886 15.6925 15.9229 15.4165 15.9229V16.1729C15.7759 16.2042 16.3748 16.4334 17.2082 16.8604C18.0519 17.2771 18.8384 18.0167 19.5623 19.0688C20.2967 20.1261 20.6665 21.5063 20.6665 23.2146C20.6665 24.7719 20.3019 26.2042 19.5832 27.5063C18.8748 28.7979 17.7707 29.8344 16.2707 30.6104C14.7811 31.3917 12.9478 31.7771 10.7707 31.7771Z" fill="#690061"/>
</svg>
