<svg width="120" height="119" viewBox="0 0 120 119" fill="none" xmlns="http://www.w3.org/2000/svg">
<path d="M60.3647 0C27.5262 0 0.895996 26.625 0.895996 59.4688C0.895996 92.3125 27.5262 118.938 60.3647 118.938C93.2085 118.938 119.833 92.3125 119.833 59.4688C119.833 26.625 93.2085 0 60.3647 0ZM88.6512 62.974L68.8283 82.7969C67.8595 83.7604 66.5887 84.25 65.3231 84.25C64.0522 84.25 62.7866 83.7604 61.8179 82.7969C59.8804 80.8594 59.8804 77.724 61.8179 75.7865L73.1825 64.4271H35.5887C32.8543 64.4271 30.6304 62.2083 30.6304 59.4688C30.6304 56.7292 32.8543 54.5156 35.5887 54.5156H73.1825L61.8179 43.151C59.8804 41.2135 59.8804 38.0781 61.8179 36.1406C63.7554 34.2031 66.8908 34.2031 68.8283 36.1406L88.6512 55.9635C90.5887 57.901 90.5887 61.0365 88.6512 62.974Z" fill="white"/>
</svg>
