<svg width="20" height="14" viewBox="0 0 20 14" fill="none" xmlns="http://www.w3.org/2000/svg">
<path d="M0.00683594 1.18245H3.71517V3.14079H3.9235C3.97559 2.93245 4.13184 2.66162 4.38184 2.32829C4.63184 1.98454 4.99642 1.66162 5.486 1.36995C5.986 1.06787 6.59538 0.911621 7.31934 0.911621C8.12142 0.911621 8.78809 1.09912 9.31934 1.47412C9.861 1.8387 10.2568 2.22412 10.5068 2.64079C10.7673 3.04704 10.9235 3.3387 10.9652 3.51579H11.1318C11.3662 2.97412 11.762 2.40641 12.3193 1.80745C12.887 1.2137 13.7881 0.911621 15.0277 0.911621C16.1527 0.911621 17.0329 1.20329 17.6735 1.78662C18.3089 2.36995 18.7412 3.05225 18.9652 3.82829C19.1995 4.59391 19.3193 5.30745 19.3193 5.97412V13.87H15.611V6.41162C15.611 5.66162 15.4079 5.09391 15.0068 4.70329C14.6162 4.30225 14.1423 4.09912 13.5902 4.09912C13.0329 4.09912 12.5485 4.30225 12.1318 4.70329C11.7256 5.10954 11.5277 5.67725 11.5277 6.41162V13.87H7.7985V6.41162C7.7985 5.66162 7.60059 5.09391 7.21517 4.70329C6.82454 4.30225 6.35059 4.09912 5.7985 4.09912C5.22559 4.09912 4.736 4.30225 4.31934 4.70329C3.91309 5.10954 3.71517 5.67725 3.71517 6.41162V13.87H0.00683594V1.18245Z" fill="black"/>
</svg>
