<svg width="14" height="19" viewBox="0 0 14 19" fill="none" xmlns="http://www.w3.org/2000/svg">
<path d="M7.37842 18.4714C6.00342 18.4714 4.81592 18.2005 3.81592 17.6589C2.81592 17.1068 2.05029 16.4036 1.52425 15.5547C1.00863 14.7109 0.753418 13.8151 0.753418 12.8672V12.7005H3.50342V12.8255C3.50342 13.3672 3.64925 13.9036 3.94092 14.4297C4.243 14.9453 4.69613 15.3672 5.29508 15.7005C5.88883 16.0339 6.61279 16.2005 7.46175 16.2005C8.48779 16.2005 9.33675 15.9505 10.0034 15.4505C10.6805 14.9505 11.0243 14.263 11.0243 13.388C11.0243 12.6536 10.7586 12.0755 10.2326 11.6589C9.71696 11.2318 9.06592 10.9505 8.27425 10.8255L6.06592 10.4922C4.67529 10.2839 3.50863 9.81511 2.56592 9.07552C1.63363 8.34115 1.17008 7.27344 1.17008 5.86719C1.17008 4.29948 1.72217 3.08594 2.83675 2.22135C3.96175 1.36198 5.39925 0.929688 7.14925 0.929688C8.45134 0.929688 9.56592 1.17448 10.4826 1.65885C11.4097 2.13281 12.118 2.75781 12.6076 3.53385C13.1076 4.3151 13.3576 5.15885 13.3576 6.07552V6.20052H10.6076V6.13802C10.6076 5.72135 10.493 5.27865 10.2743 4.80469C10.0503 4.33594 9.67008 3.92969 9.12842 3.59635C8.59717 3.2526 7.92008 3.07552 7.08675 3.07552C6.0555 3.07552 5.23258 3.32552 4.60758 3.82552C3.993 4.32552 3.69092 4.98177 3.69092 5.78385C3.69092 6.45052 3.9305 7.0026 4.42008 7.42969C4.92008 7.86198 5.53467 8.13802 6.27425 8.26302L8.69092 8.63802C10.092 8.8776 11.2743 9.36198 12.2326 10.0964C13.1909 10.8359 13.6701 11.9193 13.6701 13.3464C13.6701 14.3776 13.3993 15.2734 12.8576 16.0339C12.3159 16.7995 11.5659 17.3984 10.6076 17.8255C9.64925 18.2526 8.57113 18.4714 7.37842 18.4714Z" fill="black"/>
</svg>
