<svg width="16" height="19" viewBox="0 0 16 19" fill="none" xmlns="http://www.w3.org/2000/svg">
<path d="M8.23364 18.2326C6.50968 18.2326 5.05135 17.8159 3.85864 16.9826C2.67635 16.1493 1.79614 15.0607 1.21281 13.7118C0.639893 12.368 0.358643 10.9513 0.358643 9.46175C0.358643 7.95134 0.639893 6.52425 1.21281 5.19092C1.79614 3.85758 2.68156 2.77425 3.87948 1.94092C5.07218 1.10758 6.53573 0.690918 8.27531 0.690918C10.5357 0.690918 12.343 1.45134 13.692 2.96175C15.0514 4.47738 15.7336 6.64925 15.7336 9.48258V10.2534H3.10864V10.4826C3.10864 11.4305 3.32218 12.3159 3.75448 13.1493C4.18156 13.9722 4.78052 14.6388 5.54614 15.1493C6.30656 15.6649 7.19718 15.9201 8.21281 15.9201C9.29614 15.9201 10.2336 15.644 11.0253 15.0868C11.817 14.5347 12.4003 13.7899 12.7753 12.8576H15.5045C15.0566 14.3888 14.218 15.6649 12.9836 16.6909C11.7597 17.7222 10.1764 18.2326 8.23364 18.2326ZM13.0045 8.31592C12.9211 6.38883 12.4472 4.99821 11.5878 4.14925C10.7389 3.28988 9.61906 2.85758 8.23364 2.85758C6.71802 2.85758 5.50968 3.368 4.60864 4.37842C3.71802 5.37842 3.24406 6.69092 3.19198 8.31592H13.0045Z" fill="black"/>
</svg>
