<svg width="12" height="14" viewBox="0 0 12 14" fill="none" xmlns="http://www.w3.org/2000/svg">
<path d="M5.77995 13.0254C4.57161 13.0254 3.54036 12.7337 2.69661 12.1504C1.86328 11.5671 1.22787 10.8066 0.800781 9.85872C0.384115 8.91602 0.175781 7.90039 0.175781 6.81706C0.175781 5.72331 0.384115 4.70247 0.800781 3.75456C1.22787 2.81185 1.86328 2.04622 2.69661 1.46289C3.54036 0.879557 4.57161 0.587891 5.77995 0.587891C6.98828 0.587891 8.00911 0.879557 8.84245 1.46289C9.6862 2.04622 10.3216 2.81706 10.7383 3.77539C11.1549 4.72331 11.3633 5.73372 11.3633 6.81706C11.3633 7.88997 11.1445 8.90039 10.7174 9.85872C10.3008 10.8066 9.66536 11.5671 8.82162 12.1504C7.98828 12.7337 6.97266 13.0254 5.77995 13.0254ZM5.77995 11.3379C6.52995 11.3379 7.17578 11.14 7.71745 10.7337C8.26953 10.3171 8.6862 9.77018 8.96745 9.08789C9.25912 8.39518 9.40495 7.62435 9.40495 6.77539C9.40495 5.48372 9.07682 4.41081 8.42578 3.54622C7.78516 2.68685 6.90495 2.25456 5.77995 2.25456C5.02995 2.25456 4.3737 2.46289 3.82161 2.87956C3.26432 3.28581 2.84245 3.83268 2.55078 4.52539C2.26953 5.20768 2.13411 5.95768 2.13411 6.77539C2.13411 8.08268 2.45703 9.17122 3.11328 10.0462C3.76432 10.9108 4.65495 11.3379 5.77995 11.3379Z" fill="black"/>
</svg>
