<svg width="14" height="15" viewBox="0 0 14 15" fill="none" xmlns="http://www.w3.org/2000/svg">
<path d="M7.07503 14.8706C5.6167 14.8706 4.37712 14.5269 3.3667 13.829C2.3667 13.1363 1.62191 12.2352 1.13753 11.1206C0.663574 10.0113 0.429199 8.82377 0.429199 7.55815C0.429199 6.29773 0.663574 5.11023 1.13753 3.99565C1.62191 2.88627 2.3667 1.99044 3.3667 1.30815C4.37712 0.615438 5.6167 0.266479 7.07503 0.266479C8.89274 0.266479 10.3146 0.79773 11.3459 1.84981C12.3875 2.89148 13.0177 4.17794 13.2417 5.70398H10.9917C10.8354 4.66231 10.4292 3.82377 9.76253 3.18315C9.10628 2.5321 8.22087 2.20398 7.09587 2.20398C5.6792 2.20398 4.60107 2.7196 3.8667 3.74565C3.12712 4.76127 2.76253 6.0321 2.76253 7.55815C2.76253 9.0894 3.12712 10.3654 3.8667 11.3915C4.60107 12.4227 5.6792 12.9331 7.09587 12.9331C8.22087 12.9331 9.10628 12.6154 9.76253 11.9748C10.4292 11.3238 10.8354 10.4748 10.9917 9.43315H13.2417C13.0177 10.9644 12.3875 12.2561 11.3459 13.3081C10.3146 14.3498 8.89274 14.8706 7.07503 14.8706Z" fill="black"/>
</svg>
