<svg width="17" height="19" viewBox="0 0 17 19" fill="none" xmlns="http://www.w3.org/2000/svg">
<path d="M8.61442 18.2326C6.90609 18.2326 5.45296 17.8263 4.26025 17.0034C3.07796 16.1701 2.18734 15.0868 1.59359 13.7534C0.994629 12.4201 0.697754 10.993 0.697754 9.46175C0.697754 7.92008 0.994629 6.48258 1.59359 5.14925C2.18734 3.81592 3.07796 2.743 4.26025 1.92008C5.45296 1.10238 6.90609 0.690918 8.61442 0.690918C10.3228 0.690918 11.7655 1.10238 12.9478 1.92008C14.1248 2.743 15.0103 3.82634 15.5936 5.17008C16.1873 6.51904 16.4894 7.95134 16.4894 9.46175C16.4894 10.9774 16.1873 12.4097 15.5936 13.7534C14.9946 15.0868 14.0988 16.1701 12.9061 17.0034C11.7238 17.8263 10.2915 18.2326 8.61442 18.2326ZM8.61442 15.8576C9.65609 15.8576 10.5623 15.5763 11.3436 15.0034C12.1196 14.4201 12.7082 13.644 13.1144 12.6701C13.5155 11.7013 13.7186 10.618 13.7186 9.42008C13.7186 7.58675 13.2603 6.06592 12.3436 4.85758C11.4269 3.63883 10.1821 3.02425 8.61442 3.02425C7.5415 3.02425 6.61963 3.31592 5.84359 3.89925C5.06234 4.47217 4.46859 5.243 4.05192 6.21175C3.64567 7.18571 3.44775 8.25342 3.44775 9.42008C3.44775 11.2534 3.90609 12.7899 4.82275 14.0243C5.74984 15.2482 7.01546 15.8576 8.61442 15.8576Z" fill="black"/>
</svg>
