<svg width="11" height="14" viewBox="0 0 11 14" fill="none" xmlns="http://www.w3.org/2000/svg">
<path d="M5.53613 13.0254C4.5778 13.0254 3.74447 12.8327 3.03613 12.4421C2.3278 12.0566 1.78613 11.5618 1.41113 10.9629C1.03613 10.3535 0.848633 9.71289 0.848633 9.04622V8.94206H2.80697V9.02539C2.80697 9.40039 2.91113 9.77539 3.11947 10.1504C3.3278 10.5254 3.6403 10.8327 4.05697 11.0671C4.48405 11.291 5.00488 11.4004 5.61947 11.4004C6.33822 11.4004 6.93717 11.2285 7.41113 10.8796C7.87988 10.5202 8.11947 10.0358 8.11947 9.42122C8.11947 8.91081 7.93197 8.49935 7.55697 8.19206C7.19238 7.88998 6.73405 7.69206 6.18197 7.60872L4.61947 7.37956C3.62988 7.22852 2.80697 6.89518 2.1403 6.37956C1.47363 5.85352 1.1403 5.08789 1.1403 4.08789C1.1403 2.99414 1.53613 2.13997 2.3278 1.52539C3.12988 0.900391 4.15072 0.587891 5.3903 0.587891C6.30697 0.587891 7.08822 0.764975 7.74447 1.10872C8.41113 1.44206 8.91634 1.88997 9.2653 2.44206C9.60905 2.99935 9.78613 3.60352 9.78613 4.25456V4.33789H7.8278V4.29622C7.8278 3.99414 7.74447 3.67122 7.5778 3.33789C7.42155 3.00456 7.16113 2.72331 6.78613 2.48372C6.41113 2.23372 5.93197 2.10872 5.34863 2.10872C4.60905 2.10872 4.02051 2.29102 3.5778 2.65039C3.14551 2.99935 2.93197 3.46289 2.93197 4.04622C2.93197 4.50456 3.10384 4.88997 3.4528 5.19206C3.79655 5.49935 4.23405 5.70247 4.7653 5.79622L6.47363 6.06706C7.47363 6.23372 8.31217 6.58268 8.99447 7.10872C9.67155 7.62435 10.0153 8.38997 10.0153 9.40039C10.0153 10.1243 9.81738 10.7546 9.43197 11.2962C9.04134 11.8379 8.50488 12.265 7.8278 12.5671C7.14551 12.8691 6.37988 13.0254 5.53613 13.0254Z" fill="black"/>
</svg>
