<svg width="22" height="24" viewBox="0 0 22 24" fill="none" xmlns="http://www.w3.org/2000/svg">
<path d="M10.2183 23.4159C8.21826 23.4159 6.51514 22.9107 5.1141 21.8951C3.70784 20.8691 2.63493 19.4732 1.88493 17.7076C1.14535 15.9472 0.780762 13.9524 0.780762 11.7284C0.780762 9.5201 1.15576 7.53052 1.90576 5.74927C2.66618 3.97323 3.76514 2.5826 5.19743 1.5826C6.62451 0.572185 8.34326 0.0617676 10.3433 0.0617676C12.3276 0.0617676 13.9318 0.535726 15.1558 1.47843C16.3745 2.41073 17.3016 3.53052 17.9266 4.8326H18.2183V0.645101H21.9474V23.1243H18.2183V18.5201H17.9266C17.2443 19.8534 16.2808 21.0097 15.0308 21.9784C13.7808 22.9368 12.1766 23.4159 10.2183 23.4159ZM11.3641 20.2701C13.5412 20.2701 15.2183 19.4524 16.3849 17.8118C17.5516 16.1764 18.1349 14.1451 18.1349 11.7284C18.1349 9.31177 17.5516 7.29093 16.3849 5.66593C15.2183 4.03052 13.5412 3.2076 11.3641 3.2076C9.1141 3.2076 7.41097 4.0201 6.25993 5.6451C5.10368 7.25968 4.53076 9.2701 4.53076 11.6868C4.53076 14.1347 5.10368 16.1764 6.25993 17.8118C7.41097 19.4524 9.1141 20.2701 11.3641 20.2701Z" fill="black"/>
</svg>
