<svg width="17" height="25" viewBox="0 0 17 25" fill="none" xmlns="http://www.w3.org/2000/svg">
<path d="M8.04183 24.4714C6.54183 24.4714 5.26058 24.0911 4.2085 23.3255C3.1512 22.5495 2.34391 21.5026 1.79183 20.1797C1.23454 18.862 0.958496 17.3672 0.958496 15.7005C0.958496 14.0234 1.23454 12.5234 1.79183 11.2005C2.34391 9.86719 3.15641 8.82552 4.22933 8.07552C5.29704 7.3151 6.5887 6.92969 8.10433 6.92969C9.5887 6.92969 10.797 7.29427 11.7293 8.01302C12.6564 8.72135 13.3439 9.55469 13.7918 10.513H14.0418V0.242188H16.8127V24.2422H14.0418V20.7839H13.7918C13.2762 21.8151 12.5522 22.6901 11.6252 23.4089C10.7085 24.1172 9.51058 24.4714 8.04183 24.4714ZM8.87516 22.0964C10.5262 22.0964 11.7918 21.487 12.6668 20.263C13.5418 19.0286 13.9793 17.5078 13.9793 15.7005C13.9793 13.8828 13.5418 12.3672 12.6668 11.1589C11.7918 9.94011 10.5262 9.32552 8.87516 9.32552C7.17725 9.32552 5.9012 9.94011 5.04183 11.1589C4.19287 12.3672 3.771 13.8828 3.771 15.7005C3.771 17.5339 4.19808 19.0651 5.06266 20.2839C5.93766 21.4922 7.2085 22.0964 8.87516 22.0964Z" fill="black"/>
</svg>
