<svg width="12" height="13" viewBox="0 0 12 13" fill="none" xmlns="http://www.w3.org/2000/svg">
<path d="M0.976562 0.921224H2.91406V3.06706H3.10156C3.40365 2.37435 3.89844 1.79102 4.58073 1.31706C5.25781 0.832683 6.08594 0.587891 7.0599 0.587891C8.07031 0.587891 8.91927 0.832683 9.60156 1.31706C10.2786 1.79102 10.7786 2.41602 11.1016 3.19206C11.4349 3.97331 11.6016 4.81185 11.6016 5.71289V12.8587H9.64323V5.96289C9.64323 4.78581 9.33594 3.88997 8.72656 3.27539C8.11198 2.65039 7.3151 2.33789 6.33073 2.33789C5.28906 2.33789 4.45573 2.68164 3.83073 3.35872C3.21615 4.02539 2.91406 4.89518 2.91406 5.96289V12.8587H0.976562V0.921224Z" fill="black"/>
</svg>
