<svg width="16" height="18" viewBox="0 0 16 18" fill="none" xmlns="http://www.w3.org/2000/svg">
<path d="M15.2803 17.2422H12.5094V14.0339H12.3011C11.8532 15.0235 11.1657 15.8568 10.2386 16.5339C9.30632 17.2006 8.17611 17.5339 6.84277 17.5339C5.42611 17.5339 4.24381 17.1954 3.30111 16.5131C2.36881 15.836 1.68131 14.9506 1.23861 13.8672C0.806315 12.7735 0.592773 11.586 0.592773 10.3047V0.388062H3.34277V9.95056C3.34277 11.5912 3.75944 12.8568 4.59277 13.7422C5.42611 14.6329 6.51465 15.0756 7.86361 15.0756C9.26465 15.0756 10.3896 14.6068 11.2386 13.6589C12.0824 12.7006 12.5094 11.4662 12.5094 9.95056V0.388062H15.2803V17.2422Z" fill="black"/>
</svg>
