<svg width="10" height="43" viewBox="0 0 10 43" fill="none" xmlns="http://www.w3.org/2000/svg">
<path d="M4.64404 9.51953C3.32113 9.51953 2.25342 9.1237 1.43571 8.33203C0.612794 7.52995 0.206543 6.49349 0.206543 5.22786C0.206543 3.97786 0.612794 2.95703 1.43571 2.16536C2.25342 1.36328 3.32113 0.957031 4.64404 0.957031C5.51904 0.957031 6.29508 1.14453 6.97738 1.51953C7.67008 1.88412 8.20654 2.38932 8.58154 3.04036C8.95654 3.68099 9.14404 4.41016 9.14404 5.22786C9.14404 6.05078 8.95654 6.78516 8.58154 7.4362C8.20654 8.09245 7.67008 8.60286 6.97738 8.97787C6.29508 9.34245 5.51904 9.51953 4.64404 9.51953ZM1.01904 42.0195V12.9987H8.31071V42.0195H1.01904Z" fill="black"/>
</svg>
