<svg width="18" height="25" viewBox="0 0 18 25" fill="none" xmlns="http://www.w3.org/2000/svg">
<path d="M9.16976 24.3557C7.34684 24.3557 5.77393 23.9963 4.44059 23.2724C3.10726 22.5536 2.08643 21.6213 1.37809 20.4807C0.680175 19.3453 0.336426 18.1474 0.336426 16.8974V16.689H4.00309V16.8557C4.00309 17.564 4.20101 18.2672 4.60726 18.9599C5.0083 19.6578 5.60726 20.2255 6.39893 20.6682C7.19059 21.1161 8.15413 21.3349 9.29476 21.3349C10.6698 21.3349 11.8 21.0015 12.6906 20.3349C13.5916 19.6682 14.0448 18.7515 14.0448 17.5849C14.0448 16.6161 13.6906 15.8453 12.9823 15.2724C12.2843 14.7047 11.4198 14.3349 10.3781 14.1682L7.41976 13.7307C5.5708 13.4547 4.02393 12.8297 2.77393 11.8557C1.52393 10.8713 0.898926 9.43384 0.898926 7.54321C0.898926 5.4755 1.63851 3.86613 3.12809 2.70988C4.62809 1.55884 6.54476 0.980713 8.87809 0.980713C10.6125 0.980713 12.0968 1.30363 13.3364 1.93905C14.5708 2.57967 15.5135 3.41821 16.1698 4.45988C16.8208 5.50155 17.1489 6.63696 17.1489 7.85571V8.02238H13.4823V7.93905C13.4823 7.37134 13.326 6.77238 13.0239 6.14738C12.7323 5.52238 12.2323 4.98071 11.5239 4.52238C10.8156 4.06405 9.90413 3.83488 8.79476 3.83488C7.43018 3.83488 6.33643 4.17863 5.50309 4.85571C4.68018 5.52238 4.27393 6.39217 4.27393 7.45988C4.27393 8.3505 4.59684 9.07967 5.25309 9.64738C5.90413 10.2203 6.73226 10.5849 7.73226 10.7515L10.9198 11.2724C12.7948 11.5797 14.3677 12.2255 15.6489 13.2099C16.9406 14.1838 17.5864 15.6265 17.5864 17.5432C17.5864 18.9078 17.2166 20.1005 16.4823 21.1265C15.7583 22.1422 14.7583 22.9338 13.4823 23.5015C12.201 24.0693 10.7635 24.3557 9.16976 24.3557Z" fill="#690061"/>
</svg>
