<svg width="10" height="14" viewBox="0 0 10 14" fill="none" xmlns="http://www.w3.org/2000/svg">
<path d="M4.93164 13.0254C3.97331 13.0254 3.13997 12.8327 2.43164 12.4421C1.72331 12.0566 1.18164 11.5618 0.806641 10.9629C0.431641 10.3535 0.244141 9.71289 0.244141 9.04622V8.94206H2.20247V9.02539C2.20247 9.40039 2.30664 9.77539 2.51497 10.1504C2.72331 10.5254 3.03581 10.8327 3.45247 11.0671C3.87956 11.291 4.40039 11.4004 5.01497 11.4004C5.73372 11.4004 6.33268 11.2285 6.80664 10.8796C7.27539 10.5202 7.51497 10.0358 7.51497 9.42122C7.51497 8.91081 7.32747 8.49935 6.95247 8.19206C6.58789 7.88998 6.12956 7.69206 5.57747 7.60872L4.01497 7.37956C3.02539 7.22852 2.20247 6.89518 1.53581 6.37956C0.869141 5.85352 0.535807 5.08789 0.535807 4.08789C0.535807 2.99414 0.931641 2.13997 1.72331 1.52539C2.52539 0.900391 3.54622 0.587891 4.78581 0.587891C5.70247 0.587891 6.48372 0.764975 7.13997 1.10872C7.80664 1.44206 8.31185 1.88997 8.66081 2.44206C9.00456 2.99935 9.18164 3.60352 9.18164 4.25456V4.33789H7.22331V4.29622C7.22331 3.99414 7.13997 3.67122 6.97331 3.33789C6.81706 3.00456 6.55664 2.72331 6.18164 2.48372C5.80664 2.23372 5.32747 2.10872 4.74414 2.10872C4.00456 2.10872 3.41602 2.29102 2.97331 2.65039C2.54102 2.99935 2.32747 3.46289 2.32747 4.04622C2.32747 4.50456 2.49935 4.88997 2.84831 5.19206C3.19206 5.49935 3.62956 5.70247 4.16081 5.79622L5.86914 6.06706C6.86914 6.23372 7.70768 6.58268 8.38997 7.10872C9.06706 7.62435 9.41081 8.38997 9.41081 9.40039C9.41081 10.1243 9.21289 10.7546 8.82747 11.2962C8.43685 11.8379 7.90039 12.265 7.22331 12.5671C6.54102 12.8691 5.77539 13.0254 4.93164 13.0254Z" fill="black"/>
</svg>
