<svg width="16" height="25" viewBox="0 0 16 25" fill="none" xmlns="http://www.w3.org/2000/svg">
<path d="M0.871094 0.346375H3.62109V10.4089H3.89193C4.30859 9.44013 4.99609 8.61721 5.95443 7.95054C6.92318 7.27346 8.10026 6.92971 9.47526 6.92971C10.9023 6.92971 12.1003 7.27346 13.0586 7.95054C14.0273 8.61721 14.7461 9.50262 15.2044 10.5964C15.6628 11.6953 15.8919 12.8828 15.8919 14.1589V24.2422H13.1211V14.513C13.1211 12.8464 12.6888 11.5755 11.8294 10.7005C10.9648 9.82554 9.81901 9.38804 8.39193 9.38804C7.02734 9.38804 5.89193 9.84637 4.97526 10.763C4.06901 11.6797 3.62109 12.9297 3.62109 14.513V24.2422H0.871094V0.346375Z" fill="black"/>
</svg>
