<svg width="62" height="74" viewBox="0 0 62 74" fill="none" xmlns="http://www.w3.org/2000/svg">
<path d="M60.426 0.974854C61.0927 0.974854 61.426 1.24569 61.426 1.78735V72.6832C61.426 73.2249 61.0927 73.4957 60.426 73.4957H48.4677C48.4104 73.4957 48.2698 73.4697 48.051 73.4124C47.8427 73.3447 47.7073 73.2822 47.6552 73.2249L14.301 25.454V56.0999H0.426025V1.78735C0.426025 1.24569 0.728108 0.974854 1.34269 0.974854H13.3844C13.5094 0.974854 13.6604 0.995687 13.8427 1.03735C14.0198 1.0686 14.1396 1.13631 14.1969 1.24569L47.6552 49.0165V1.78735C47.6552 1.24569 48.0146 0.974854 48.7385 0.974854H60.426Z" fill="#562A2A" fill-opacity="0.302"/>
</svg>
