<svg width="22" height="37" viewBox="0 0 22 37" fill="none" xmlns="http://www.w3.org/2000/svg">
<path d="M19.4207 29.1029L21.3166 34.4987C20.5249 35.1393 19.5301 35.6446 18.3374 36.0196C17.1551 36.3946 15.8062 36.5821 14.2957 36.5821C11.1551 36.5821 8.76449 35.7279 7.12907 34.0196C5.50407 32.3008 4.69157 29.806 4.69157 26.5404V12.7487H0.274902V6.95705H4.69157V1.31122L11.9832 0.123718V6.95705H20.2124V12.7487H11.9832V26.0196C11.9832 27.4675 12.2801 28.5143 12.8791 29.1654C13.4728 29.8216 14.3426 30.1446 15.4832 30.1446C16.7749 30.1446 17.9051 29.8008 18.8791 29.1029H19.4207Z" fill="black"/>
</svg>
