<svg width="29" height="27" viewBox="0 0 29 27" fill="none" xmlns="http://www.w3.org/2000/svg">
<path d="M14.1587 26.4356C11.3514 26.4356 8.88786 25.8992 6.76286 24.8315C4.63786 23.7638 2.98161 22.2585 1.80452 20.3106C0.622233 18.3679 0.0336914 16.1231 0.0336914 13.5815C0.0336914 11.0554 0.622233 8.82625 1.80452 6.89396C2.98161 4.96688 4.63786 3.46688 6.76286 2.39396C8.88786 1.32625 11.3514 0.789795 14.1587 0.789795C16.9764 0.789795 19.4399 1.32625 21.5545 2.39396C23.6639 3.46688 25.3045 4.96688 26.4712 6.89396C27.6483 8.82625 28.242 11.0554 28.242 13.5815C28.242 16.1231 27.6483 18.3679 26.4712 20.3106C25.3045 22.2585 23.6639 23.7638 21.5545 24.8315C19.4399 25.8992 16.9764 26.4356 14.1587 26.4356ZM8.65869 13.5815C8.65869 15.2065 9.17953 16.5398 10.2212 17.5815C11.2629 18.6231 12.5754 19.144 14.1587 19.144C15.7837 19.144 17.1014 18.6231 18.117 17.5815C19.1274 16.5398 19.6379 15.2065 19.6379 13.5815C19.6379 11.9721 19.1274 10.6544 18.117 9.62313C17.1014 8.59709 15.7837 8.08146 14.1587 8.08146C12.5754 8.08146 11.2629 8.59709 10.2212 9.62313C9.17953 10.6544 8.65869 11.9721 8.65869 13.5815Z" fill="#690061"/>
</svg>
