<svg width="29" height="26" viewBox="0 0 29 26" fill="none" xmlns="http://www.w3.org/2000/svg">
<path d="M14.6115 25.8749C11.8875 25.8749 9.4917 25.3541 7.42399 24.3124C5.35107 23.2708 3.7417 21.8124 2.59066 19.9374C1.45003 18.052 0.882324 15.8697 0.882324 13.3958C0.882324 10.927 1.45003 8.76033 2.59066 6.89575C3.7417 5.02075 5.35107 3.56242 7.42399 2.52075C9.4917 1.47909 11.8875 0.958252 14.6115 0.958252C17.3459 0.958252 19.7417 1.47909 21.799 2.52075C23.8511 3.56242 25.45 5.02075 26.5907 6.89575C27.7261 8.76033 28.299 10.927 28.299 13.3958C28.299 15.8697 27.7261 18.052 26.5907 19.9374C25.45 21.8124 23.8511 23.2708 21.799 24.3124C19.7417 25.3541 17.3459 25.8749 14.6115 25.8749ZM9.27816 13.3958C9.27816 14.9687 9.77816 16.2603 10.7782 17.2708C11.7886 18.2864 13.0698 18.7916 14.6115 18.7916C16.1948 18.7916 17.4709 18.2864 18.4448 17.2708C19.4292 16.2603 19.924 14.9687 19.924 13.3958C19.924 11.8124 19.4292 10.5312 18.4448 9.54159C17.4709 8.54159 16.1948 8.04159 14.6115 8.04159C13.0698 8.04159 11.7886 8.54159 10.7782 9.54159C9.77816 10.5312 9.27816 11.8124 9.27816 13.3958Z" fill="#690061"/>
</svg>
