<svg width="50" height="52" viewBox="0 0 50 52" fill="none" xmlns="http://www.w3.org/2000/svg">
<path d="M18.7909 51.0521C13.2909 51.0521 8.8846 49.6979 5.58252 46.9896C2.29085 44.2708 0.64502 40.5729 0.64502 35.9062C0.64502 31.5052 2.10856 27.9583 5.04085 25.2604C7.96794 22.5677 11.9159 21.2188 16.8742 21.2188H33.02V18.5104C33.02 16.9427 32.3377 15.6458 30.9784 14.6146C29.6138 13.5885 27.9679 13.0729 26.0409 13.0729C24.2752 13.0729 22.7752 13.5104 21.5409 14.3854C20.3013 15.2604 19.5669 16.3958 19.3325 17.7812H2.99919C3.73356 12.2292 6.06169 7.98438 9.97835 5.05208C13.9054 2.125 19.2284 0.65625 25.9367 0.65625C33.6711 0.65625 39.6086 2.52083 43.7492 6.23958C47.9002 9.94792 49.9784 15.2188 49.9784 22.0521V49.9688H37.4575L35.5617 44.7188C31.3221 48.9427 25.7336 51.0521 18.7909 51.0521ZM17.6867 35.0938C17.6867 36.4271 18.2596 37.5052 19.4159 38.3229C20.5669 39.1458 22.0825 39.5521 23.9575 39.5521C26.6086 39.5521 28.8117 38.7396 30.5617 37.1146C32.3221 35.4792 33.2075 33.3542 33.2075 30.7396H23.77C21.895 30.7396 20.4054 31.125 19.3117 31.8854C18.2284 32.6354 17.6867 33.7083 17.6867 35.0938Z" fill="#690061"/>
</svg>
