<svg width="17" height="19" viewBox="0 0 17 19" fill="none" xmlns="http://www.w3.org/2000/svg">
<path d="M7.46322 18.4714C5.96322 18.4714 4.68197 18.0911 3.62988 17.3255C2.57259 16.5495 1.7653 15.5026 1.21322 14.1797C0.655924 12.862 0.379883 11.3672 0.379883 9.70052C0.379883 8.03385 0.661133 6.53385 1.23405 5.20052C1.80176 3.86719 2.61947 2.82552 3.69238 2.07552C4.77572 1.3151 6.05697 0.929688 7.54655 0.929688C9.04655 0.929688 10.2549 1.28385 11.1715 1.99219C12.0882 2.6901 12.7809 3.52865 13.2549 4.51302H13.4632V1.38802H16.2549V18.2422H13.4632V14.7839H13.2549C12.7393 15.7839 12.0101 16.6536 11.0674 17.388C10.1351 18.112 8.93197 18.4714 7.46322 18.4714ZM8.31738 16.0964C9.9528 16.0964 11.2132 15.487 12.0882 14.263C12.9632 13.0286 13.4007 11.5078 13.4007 9.70052C13.4007 7.88281 12.9632 6.36198 12.0882 5.13802C11.2132 3.91927 9.9528 3.30469 8.31738 3.30469C6.63509 3.30469 5.35905 3.91927 4.48405 5.13802C3.61947 6.34635 3.19238 7.85677 3.19238 9.65885C3.19238 11.4922 3.61947 13.0286 4.48405 14.263C5.35905 15.487 6.63509 16.0964 8.31738 16.0964Z" fill="black"/>
</svg>
