<svg width="17" height="19" viewBox="0 0 17 19" fill="none" xmlns="http://www.w3.org/2000/svg">
<path d="M8.67334 18.4714C6.94938 18.4714 5.49105 18.0547 4.29834 17.2214C3.11605 16.388 2.23584 15.2995 1.65251 13.9505C1.07959 12.6068 0.79834 11.1901 0.79834 9.70052C0.79834 8.1901 1.07959 6.76302 1.65251 5.42969C2.23584 4.09635 3.12126 3.01302 4.31917 2.17969C5.51188 1.34635 6.97542 0.929688 8.71501 0.929688C10.9754 0.929688 12.7827 1.6901 14.1317 3.20052C15.491 4.71615 16.1733 6.88802 16.1733 9.72135V10.4922H3.54834V10.7214C3.54834 11.6693 3.76188 12.5547 4.19417 13.388C4.62126 14.2109 5.22021 14.8776 5.98584 15.388C6.74626 15.9036 7.63688 16.1589 8.65251 16.1589C9.73584 16.1589 10.6733 15.8828 11.465 15.3255C12.2567 14.7734 12.84 14.0286 13.215 13.0964H15.9442C15.4963 14.6276 14.6577 15.9036 13.4233 16.9297C12.1994 17.9609 10.616 18.4714 8.67334 18.4714ZM13.4442 8.55469C13.3608 6.6276 12.8869 5.23698 12.0275 4.38802C11.1785 3.52865 10.0588 3.09635 8.67334 3.09635C7.15771 3.09635 5.94938 3.60677 5.04834 4.61719C4.15771 5.61719 3.68376 6.92969 3.63167 8.55469H13.4442Z" fill="black"/>
</svg>
