<svg width="18" height="20" viewBox="0 0 18 20" fill="none" xmlns="http://www.w3.org/2000/svg">
<path d="M9.18685 19.9434C7.31185 19.9434 5.73372 19.4954 4.45768 18.5892C3.17643 17.6882 2.22852 16.5059 1.60352 15.0475C0.978516 13.5892 0.666016 12.0579 0.666016 10.4434C0.666016 8.80794 0.978516 7.26628 1.60352 5.81836C2.22852 4.37565 3.18685 3.20378 4.47852 2.29753C5.77018 1.39648 7.35352 0.943359 9.22852 0.943359C11.6712 0.943359 13.6296 1.76628 15.1035 3.40169C16.5723 5.04232 17.3118 7.39648 17.3118 10.4642V11.2975H3.64518V11.5475C3.64518 12.5632 3.87435 13.5215 4.33268 14.4225C4.80143 15.3288 5.44727 16.0579 6.27018 16.61C7.10352 17.1673 8.06706 17.4434 9.16602 17.4434C10.3327 17.4434 11.3431 17.1465 12.2077 16.5475C13.0671 15.9382 13.6973 15.1257 14.1035 14.11H17.0618C16.5723 15.7767 15.666 17.1673 14.3327 18.2767C13.0098 19.3913 11.2962 19.9434 9.18685 19.9434ZM14.3535 9.19336C14.2546 7.11003 13.7389 5.61003 12.8118 4.69336C11.8952 3.76628 10.6868 3.29753 9.18685 3.29753C7.54622 3.29753 6.23893 3.83919 5.27018 4.92253C4.29622 6.00586 3.77539 7.43294 3.70768 9.19336H14.3535Z" fill="#690061"/>
</svg>
