<svg width="21" height="33" viewBox="0 0 21 33" fill="none" xmlns="http://www.w3.org/2000/svg">
<path d="M0.861328 0.270081H4.52799V13.7076H4.86133C5.42904 12.4055 6.35091 11.3065 7.63216 10.4159C8.9082 9.51487 10.4707 9.06175 12.3197 9.06175C14.2207 9.06175 15.8092 9.51487 17.0905 10.4159C18.3822 11.3065 19.3301 12.4784 19.9447 13.9367C20.554 15.3951 20.8613 16.9784 20.8613 18.6867V32.1242H17.1947V19.1659C17.1947 16.9472 16.6165 15.2492 15.4655 14.0826C14.3092 12.9159 12.7832 12.3326 10.8822 12.3326C9.05925 12.3326 7.54883 12.9472 6.3405 14.1659C5.13216 15.3899 4.52799 17.0565 4.52799 19.1659V32.1242H0.861328V0.270081Z" fill="black"/>
</svg>
