<svg width="17" height="24" viewBox="0 0 17 24" fill="none" xmlns="http://www.w3.org/2000/svg">
<path d="M8.6141 19.5756C8.26514 20.3776 7.93701 21.0443 7.63493 21.5756C7.32764 22.1016 6.82243 22.5964 6.1141 23.0547C5.40576 23.5235 4.4891 23.7631 3.3641 23.7631C2.76514 23.7631 2.12451 23.6797 1.44743 23.5131V21.4714C1.95785 21.5547 2.40576 21.5964 2.78076 21.5964C3.4891 21.5964 4.0516 21.4558 4.46826 21.1797C4.89534 20.9141 5.2391 20.5651 5.4891 20.1381C5.7391 19.7214 6.03076 19.1068 6.3641 18.3047L7.13493 16.4089L0.905762 0.388062H3.78076L8.4891 13.3672H8.6766L13.5933 0.388062H16.4891L8.6141 19.5756Z" fill="black"/>
</svg>
