<svg width="15" height="20" viewBox="0 0 15 20" fill="none" xmlns="http://www.w3.org/2000/svg">
<path d="M7.26676 19.1973C5.79281 19.1973 4.50635 18.9056 3.4126 18.3223C2.32926 17.7285 1.50114 16.9681 0.933431 16.0514C0.376139 15.1243 0.100098 14.1452 0.100098 13.1139V12.9473H3.07926V13.0931C3.07926 13.666 3.23551 14.2337 3.55843 14.8014C3.89176 15.3743 4.37614 15.8379 5.01676 16.1973C5.66781 16.5618 6.45426 16.7389 7.37093 16.7389C8.48031 16.7389 9.39697 16.4681 10.1209 15.9264C10.8553 15.3743 11.2251 14.6243 11.2251 13.6764C11.2251 12.8848 10.9386 12.2598 10.3709 11.8014C9.79802 11.3431 9.08968 11.0462 8.24593 10.9056L5.8501 10.5514C4.3501 10.3327 3.08968 9.82227 2.07926 9.0306C1.06364 8.22852 0.558431 7.06185 0.558431 5.5306C0.558431 3.85352 1.1626 2.54622 2.37093 1.61393C3.57926 0.671224 5.13135 0.197266 7.0376 0.197266C8.43864 0.197266 9.64176 0.462891 10.6418 0.988932C11.6522 1.50456 12.423 2.18685 12.9543 3.0306C13.4803 3.86393 13.7459 4.7806 13.7459 5.7806V5.9056H10.7668V5.8431C10.7668 5.38477 10.6418 4.9056 10.3918 4.4056C10.1522 3.89518 9.74593 3.44727 9.1626 3.07227C8.58968 2.69727 7.85531 2.50977 6.95426 2.50977C5.83968 2.50977 4.95426 2.7806 4.2876 3.32227C3.62093 3.86393 3.2876 4.58268 3.2876 5.4681C3.2876 6.17643 3.54802 6.77018 4.07926 7.23893C4.62093 7.69727 5.29281 7.99935 6.1001 8.13477L8.70426 8.55143C10.2147 8.80143 11.4959 9.33268 12.5376 10.1348C13.5793 10.9264 14.1001 12.0931 14.1001 13.6348C14.1001 14.7493 13.798 15.7181 13.2043 16.5514C12.6209 17.3848 11.8084 18.041 10.7668 18.5098C9.73551 18.9681 8.56885 19.1973 7.26676 19.1973Z" fill="black"/>
</svg>
