<svg width="18" height="24" viewBox="0 0 18 24" fill="none" xmlns="http://www.w3.org/2000/svg">
<path d="M9.55697 23.4159C7.73405 23.4159 6.16113 23.0566 4.8278 22.3326C3.49447 21.6139 2.47363 20.6816 1.7653 19.5409C1.06738 18.4055 0.723633 17.2076 0.723633 15.9576V15.7493H4.3903V15.9159C4.3903 16.6243 4.58822 17.3326 4.99447 18.0409C5.39551 18.7389 5.99447 19.3066 6.78613 19.7493C7.5778 20.1816 8.54134 20.3951 9.68197 20.3951C11.0413 20.3951 12.1663 20.0618 13.057 19.3951C13.958 18.7284 14.4111 17.8118 14.4111 16.6451C14.4111 15.6764 14.0622 14.9055 13.3695 14.3326C12.6716 13.7649 11.7966 13.3951 10.7445 13.2284L7.80697 12.8118C5.95801 12.5201 4.41113 11.8899 3.16113 10.9159C1.91113 9.93156 1.28613 8.49927 1.28613 6.62427C1.28613 4.54093 2.02572 2.93156 3.5153 1.79093C5.0153 0.639893 6.93197 0.0617676 9.2653 0.0617676C10.9997 0.0617676 12.484 0.384684 13.7236 1.0201C14.958 1.66073 15.9007 2.49927 16.557 3.54093C17.208 4.57219 17.5361 5.69719 17.5361 6.91593V7.0826H13.8695V6.99927C13.8695 6.43156 13.7132 5.8326 13.4111 5.2076C13.1195 4.5826 12.609 4.05135 11.8903 3.60343C11.182 3.1451 10.2757 2.91593 9.18197 2.91593C7.80697 2.91593 6.70801 3.24927 5.8903 3.91593C5.06738 4.5826 4.66113 5.4576 4.66113 6.54093C4.66113 7.41593 4.98405 8.13989 5.6403 8.7076C6.29134 9.28052 7.10905 9.6451 8.09863 9.81177L11.307 10.3326C13.182 10.6399 14.7549 11.2857 16.0361 12.2701C17.3122 13.2597 17.9528 14.7024 17.9528 16.6034C17.9528 17.968 17.5882 19.1607 16.8695 20.1868C16.1455 21.2024 15.1455 21.9941 13.8695 22.5618C12.5882 23.1295 11.1507 23.4159 9.55697 23.4159Z" fill="black"/>
</svg>
