<svg width="12" height="14" viewBox="0 0 12 14" fill="none" xmlns="http://www.w3.org/2000/svg">
<path d="M5.97152 13.0254C4.74756 13.0254 3.7111 12.7337 2.86735 12.1504C2.03402 11.5566 1.40902 10.7858 0.99235 9.83789C0.5861 8.87956 0.388184 7.87435 0.388184 6.81706C0.388184 5.73372 0.5861 4.72331 0.99235 3.77539C1.40902 2.83268 2.03922 2.06706 2.88818 1.48372C3.73193 0.889975 4.76839 0.587891 5.99235 0.587891C7.60173 0.587891 8.88818 1.12956 9.84652 2.21289C10.8049 3.28581 11.284 4.82747 11.284 6.83789V7.37956H2.34652V7.52539C2.34652 8.19206 2.49756 8.82747 2.80485 9.42122C3.10693 10.0046 3.53402 10.4785 4.07568 10.8379C4.61735 11.2025 5.24235 11.3796 5.95068 11.3796C6.72673 11.3796 7.39339 11.1868 7.95068 10.7962C8.50277 10.4108 8.91943 9.87956 9.20068 9.21289H11.1174C10.7944 10.2962 10.2007 11.2077 9.32568 11.9421C8.4611 12.666 7.34652 13.0254 5.97152 13.0254ZM9.34652 5.98372C9.28923 4.62435 8.95589 3.64518 8.34652 3.04622C7.74756 2.43685 6.95589 2.12956 5.97152 2.12956C4.8986 2.12956 4.04443 2.49414 3.40902 3.21289C2.76839 3.92122 2.42985 4.84831 2.38818 5.98372H9.34652Z" fill="black"/>
</svg>
