<svg width="17" height="25" viewBox="0 0 17 25" fill="none" xmlns="http://www.w3.org/2000/svg">
<path d="M9.66325 18.4714C8.18929 18.4714 6.98096 18.112 6.03825 17.388C5.10596 16.6536 4.382 15.7839 3.87158 14.7839H3.64242V24.7422H0.871582V1.38802H3.64242V4.51302H3.87158C4.34033 3.52865 5.03825 2.6901 5.95492 1.99219C6.87158 1.28385 8.0695 0.929688 9.55908 0.929688C11.0851 0.929688 12.382 1.3151 13.4549 2.07552C14.5382 2.82552 15.356 3.86719 15.9132 5.20052C16.4653 6.53385 16.7466 8.03385 16.7466 9.70052C16.7466 11.3672 16.4653 12.862 15.9132 14.1797C15.356 15.5026 14.5435 16.5495 13.4757 17.3255C12.4028 18.0911 11.132 18.4714 9.66325 18.4714ZM8.80908 16.0964C10.4601 16.0964 11.7153 15.4922 12.5799 14.2839C13.4549 13.0651 13.8924 11.5339 13.8924 9.70052C13.8924 7.88281 13.4601 6.36719 12.6007 5.15885C11.7518 3.9401 10.4862 3.32552 8.80908 3.32552C7.14242 3.32552 5.87158 3.9401 4.99658 5.15885C4.132 6.36719 3.70492 7.88281 3.70492 9.70052C3.70492 11.5078 4.14242 13.0286 5.01742 14.263C5.89242 15.487 7.15283 16.0964 8.80908 16.0964Z" fill="black"/>
</svg>
