<svg width="18" height="20" viewBox="0 0 18 20" fill="none" xmlns="http://www.w3.org/2000/svg">
<path d="M7.96745 19.4932C6.34245 19.4932 4.95703 19.0765 3.82161 18.2432C2.68099 17.4098 1.80599 16.2796 1.19661 14.8473C0.597656 13.4202 0.300781 11.8005 0.300781 9.99316C0.300781 8.19108 0.602864 6.56608 1.21745 5.11816C1.82682 3.67546 2.71745 2.54525 3.88411 1.72233C5.05078 0.904623 6.44661 0.493164 8.07161 0.493164C9.68099 0.493164 10.9883 0.87858 11.9883 1.639C12.9883 2.40462 13.7383 3.31608 14.2383 4.36816H14.4883V0.972331H17.5091V19.2432H14.4883V15.4932H14.2383C13.681 16.5765 12.8945 17.514 11.8841 18.3057C10.8685 19.0973 9.5612 19.4932 7.96745 19.4932ZM8.90495 16.9307C10.681 16.9307 12.0404 16.264 12.9883 14.9307C13.931 13.5973 14.4049 11.9515 14.4049 9.99316C14.4049 8.02442 13.931 6.37858 12.9883 5.05566C12.0404 3.72233 10.681 3.05566 8.90495 3.05566C7.07161 3.05566 5.6862 3.71712 4.75911 5.03483C3.82682 6.35775 3.36328 7.99316 3.36328 9.9515C3.36328 11.9411 3.82682 13.5973 4.75911 14.9307C5.6862 16.264 7.07161 16.9307 8.90495 16.9307Z" fill="black"/>
</svg>
