<svg width="23" height="24" viewBox="0 0 23 24" fill="none" xmlns="http://www.w3.org/2000/svg">
<path d="M10.3135 23.7355C8.32389 23.7355 6.62598 23.2303 5.20931 22.2146C3.80306 21.1886 2.73014 19.7928 1.98014 18.0271C1.24056 16.2667 0.875977 14.2719 0.875977 12.048C0.875977 9.82922 1.25098 7.82922 2.00098 6.04797C2.76139 4.27193 3.86035 2.88131 5.29264 1.88131C6.73535 0.87089 8.44889 0.360474 10.4385 0.360474C12.4229 0.360474 14.027 0.834432 15.251 1.77714C16.4697 2.70943 17.402 3.82922 18.0426 5.13131H18.3343V0.96464H22.0426V23.4438H18.3343V18.8396H18.0426C17.3447 20.173 16.376 21.3292 15.126 22.298C13.876 23.2563 12.2718 23.7355 10.3135 23.7355ZM11.4593 20.5896C13.652 20.5896 15.3343 19.7719 16.501 18.1313C17.6676 16.4959 18.251 14.4646 18.251 12.048C18.251 9.63131 17.6676 7.61047 16.501 5.98547C15.3343 4.35006 13.652 3.52714 11.4593 3.52714C9.20931 3.52714 7.50618 4.33964 6.35514 5.96464C5.19889 7.57922 4.62598 9.58964 4.62598 12.0063C4.62598 14.4542 5.19889 16.4959 6.35514 18.1313C7.50618 19.7719 9.20931 20.5896 11.4593 20.5896Z" fill="#690061"/>
</svg>
