<svg width="21" height="24" viewBox="0 0 21 24" fill="none" xmlns="http://www.w3.org/2000/svg">
<path d="M20.033 22.9291H16.3039V18.6583H16.0539C15.4549 19.9656 14.5382 21.0697 13.3039 21.9708C12.0643 22.8614 10.5539 23.3041 8.76221 23.3041C6.88721 23.3041 5.32471 22.8562 4.07471 21.95C2.82471 21.0333 1.90804 19.8562 1.32471 18.4083C0.741374 16.95 0.449707 15.377 0.449707 13.6791V0.449951H4.11637V13.2C4.11637 15.3979 4.66325 17.0854 5.76221 18.2625C6.87158 19.4447 8.32471 20.0333 10.1164 20.0333C12.0018 20.0333 13.5018 19.4031 14.6164 18.1375C15.7414 16.8614 16.3039 15.2156 16.3039 13.2V0.449951H20.033V22.9291Z" fill="#690061"/>
</svg>
