<svg width="13" height="15" viewBox="0 0 13 15" fill="none" xmlns="http://www.w3.org/2000/svg">
<path d="M6.23275 14.2771C4.99317 14.2771 3.92025 14.0219 3.00358 13.5062C2.08691 12.9802 1.37858 12.2094 0.878581 11.1937C0.388997 10.1677 0.149414 8.93331 0.149414 7.48539C0.149414 6.04268 0.388997 4.81352 0.878581 3.79789C1.37858 2.77185 2.08691 2.00102 3.00358 1.48539C3.92025 0.959351 4.99317 0.693726 6.23275 0.693726C7.46712 0.693726 8.53483 0.959351 9.44108 1.48539C10.3577 2.00102 11.0557 2.77185 11.5452 3.79789C12.0452 4.81352 12.2952 6.04268 12.2952 7.48539C12.2952 8.93331 12.0452 10.1677 11.5452 11.1937C11.0557 12.2094 10.3577 12.9802 9.44108 13.5062C8.53483 14.0219 7.46712 14.2771 6.23275 14.2771ZM6.23275 12.5479C7.53483 12.5479 8.52962 12.1416 9.21191 11.3187C9.90462 10.4854 10.2536 9.20935 10.2536 7.48539C10.2536 5.75102 9.90462 4.47498 9.21191 3.65206C8.52962 2.83435 7.53483 2.42289 6.23275 2.42289C4.92546 2.42289 3.92025 2.83956 3.21191 3.67289C2.514 4.49581 2.17025 5.76664 2.17025 7.48539C2.17025 9.20935 2.514 10.4854 3.21191 11.3187C3.92025 12.1416 4.92546 12.5479 6.23275 12.5479Z" fill="black"/>
</svg>
