<svg width="22" height="24" viewBox="0 0 22 24" fill="none" xmlns="http://www.w3.org/2000/svg">
<path d="M9.68652 23.4326C7.69694 23.4326 5.99902 22.9274 4.58236 21.9118C3.17611 20.8857 2.10319 19.4899 1.35319 17.7243C0.613607 15.9639 0.249023 13.9691 0.249023 11.7451C0.249023 9.52637 0.624023 7.52637 1.37402 5.74512C2.13444 3.96908 3.2334 2.57845 4.66569 1.57845C6.1084 0.568033 7.82194 0.0576172 9.81152 0.0576172C11.7959 0.0576172 13.4001 0.531576 14.624 1.47428C15.8428 2.40658 16.7751 3.52637 17.4157 4.82845H17.7074V0.661784H21.4157V23.141H17.7074V18.5368H17.4157C16.7178 19.8701 15.749 21.0264 14.499 21.9951C13.249 22.9535 11.6449 23.4326 9.68652 23.4326ZM10.8324 20.2868C13.0251 20.2868 14.7074 19.4691 15.874 17.8285C17.0407 16.193 17.624 14.1618 17.624 11.7451C17.624 9.32845 17.0407 7.30762 15.874 5.68262C14.7074 4.0472 13.0251 3.22428 10.8324 3.22428C8.58236 3.22428 6.87923 4.03678 5.72819 5.66178C4.57194 7.27637 3.99902 9.28678 3.99902 11.7035C3.99902 14.1514 4.57194 16.193 5.72819 17.8285C6.87923 19.4691 8.58236 20.2868 10.8324 20.2868Z" fill="#690061"/>
</svg>
