<svg width="12" height="14" viewBox="0 0 12 14" fill="none" xmlns="http://www.w3.org/2000/svg">
<path d="M5.95882 13.0254C4.73486 13.0254 3.6984 12.7337 2.85466 12.1504C2.02132 11.5566 1.39632 10.7858 0.979655 9.83789C0.573404 8.87956 0.375488 7.87435 0.375488 6.81706C0.375488 5.73372 0.573404 4.72331 0.979655 3.77539C1.39632 2.83268 2.02653 2.06706 2.87549 1.48372C3.71924 0.889975 4.7557 0.587891 5.97966 0.587891C7.58903 0.587891 8.87549 1.12956 9.83382 2.21289C10.7922 3.28581 11.2713 4.82747 11.2713 6.83789V7.37956H2.33382V7.52539C2.33382 8.19206 2.48486 8.82747 2.79216 9.42122C3.09424 10.0046 3.52132 10.4785 4.06299 10.8379C4.60466 11.2025 5.22966 11.3796 5.93799 11.3796C6.71403 11.3796 7.3807 11.1868 7.93799 10.7962C8.49007 10.4108 8.90674 9.87956 9.18799 9.21289H11.1047C10.7817 10.2962 10.188 11.2077 9.31299 11.9421C8.4484 12.666 7.33382 13.0254 5.95882 13.0254ZM9.33382 5.98372C9.27653 4.62435 8.9432 3.64518 8.33382 3.04622C7.73486 2.43685 6.9432 2.12956 5.95882 2.12956C4.88591 2.12956 4.03174 2.49414 3.39632 3.21289C2.7557 3.92122 2.41716 4.84831 2.37549 5.98372H9.33382Z" fill="black"/>
</svg>
