<svg width="8" height="17" viewBox="0 0 8 17" fill="none" xmlns="http://www.w3.org/2000/svg">
<path d="M4.58415 6.48376V13.4213C4.58415 13.9786 4.61019 14.39 4.66748 14.6504C4.71956 14.9161 4.86019 15.1244 5.08415 15.2754C5.31852 15.4317 5.69873 15.5046 6.22998 15.5046C6.60498 15.5046 7.00081 15.4525 7.41748 15.3379V16.7546C7.3029 16.7963 7.06852 16.8379 6.70915 16.8796C6.36019 16.9213 6.00081 16.9421 5.62581 16.9421C4.75081 16.9421 4.09456 16.8171 3.66748 16.5671C3.23519 16.3171 2.94873 15.9786 2.81331 15.5463C2.68831 15.1192 2.62581 14.5463 2.62581 13.8379V6.48376H0.41748V4.92126H2.62581V0.983765H4.58415V4.92126H7.41748V6.48376H4.58415Z" fill="black"/>
</svg>
