<svg width="13" height="14" viewBox="0 0 13 14" fill="none" xmlns="http://www.w3.org/2000/svg">
<path d="M6.43351 13.8498C5.15226 13.8498 4.06893 13.5477 3.18351 12.9331C2.29289 12.3081 1.62622 11.4956 1.18351 10.4956C0.735596 9.49565 0.516846 8.42273 0.516846 7.26648C0.516846 6.11544 0.735596 5.03731 1.18351 4.03731C1.62622 3.03731 2.29289 2.23523 3.18351 1.62065C4.06893 1.01127 5.15226 0.703979 6.43351 0.703979C7.70955 0.703979 8.79289 1.01127 9.68351 1.62065C10.5689 2.23523 11.2356 3.04773 11.6835 4.05815C12.1262 5.07377 12.3502 6.14148 12.3502 7.26648C12.3502 8.4071 12.121 9.48523 11.6627 10.4956C11.2148 11.4956 10.5481 12.3081 9.66268 12.9331C8.77205 13.5477 7.69393 13.8498 6.43351 13.8498ZM6.43351 12.079C7.22518 12.079 7.91268 11.8654 8.49601 11.4331C9.07935 11.0061 9.52205 10.4279 9.82935 9.70398C10.1314 8.96961 10.2877 8.1519 10.2877 7.24565C10.2877 5.87065 9.93872 4.73523 9.24601 3.82898C8.56372 2.91231 7.62622 2.45398 6.43351 2.45398C5.64185 2.45398 4.95435 2.67273 4.37101 3.09981C3.78768 3.5321 3.33976 4.11544 3.03768 4.84981C2.73039 5.57377 2.57935 6.37065 2.57935 7.24565C2.57935 8.62065 2.91789 9.7769 3.60018 10.704C4.29289 11.6206 5.2356 12.079 6.43351 12.079Z" fill="black"/>
</svg>
