<svg width="26" height="26" viewBox="0 0 26 26" fill="none" xmlns="http://www.w3.org/2000/svg">
<path d="M10.002 25.9321C7.22074 25.9321 5.00199 25.2446 3.33533 23.8696C1.66866 22.4946 0.835327 20.6353 0.835327 18.2863C0.835327 16.0519 1.5697 14.255 3.04366 12.8905C4.52804 11.5311 6.52804 10.8488 9.04366 10.8488H17.2103V9.4738C17.2103 8.68213 16.8614 8.03109 16.1687 7.51546C15.4864 6.98942 14.653 6.7238 13.6687 6.7238C12.778 6.7238 12.0228 6.94775 11.3978 7.39046C10.7728 7.83838 10.3978 8.40609 10.2728 9.0988H2.02283C2.3822 6.29671 3.55408 4.15088 5.54366 2.6613C7.54366 1.17692 10.2364 0.432129 13.627 0.432129C17.5437 0.432129 20.5489 1.38005 22.6478 3.26546C24.7416 5.14046 25.7937 7.80713 25.7937 11.2655V25.3905H19.4603L18.4812 22.7238C16.3405 24.8644 13.5124 25.9321 10.002 25.9321ZM9.46033 17.8696C9.46033 18.5363 9.74158 19.078 10.3145 19.4946C10.8978 19.9113 11.6687 20.1196 12.627 20.1196C13.9603 20.1196 15.0697 19.7134 15.9603 18.8905C16.8457 18.0571 17.2937 16.9842 17.2937 15.6613H12.5228C11.5749 15.6613 10.8249 15.8592 10.2728 16.2446C9.73116 16.6196 9.46033 17.1613 9.46033 17.8696Z" fill="#690061"/>
</svg>
