<svg width="17" height="19" viewBox="0 0 17 19" fill="none" xmlns="http://www.w3.org/2000/svg">
<path d="M7.70785 18.2326C6.20785 18.2326 4.92659 17.8524 3.87451 17.0868C2.81722 16.3107 2.00993 15.2638 1.45785 13.9409C0.900553 12.6232 0.624512 11.1284 0.624512 9.46175C0.624512 7.79508 0.905762 6.29508 1.47868 4.96175C2.04639 3.62842 2.8641 2.58675 3.93701 1.83675C5.02035 1.07634 6.30159 0.690918 7.79118 0.690918C9.29118 0.690918 10.4995 1.04508 11.4162 1.75342C12.3328 2.45134 13.0256 3.28988 13.4995 4.27425H13.7078V1.14925H16.4995V18.0034H13.7078V14.5451H13.4995C12.9839 15.5451 12.2547 16.4149 11.312 17.1493C10.3797 17.8732 9.17659 18.2326 7.70785 18.2326ZM8.56201 15.8576C10.1974 15.8576 11.4578 15.2482 12.3328 14.0243C13.2078 12.7899 13.6453 11.269 13.6453 9.46175C13.6453 7.64404 13.2078 6.12321 12.3328 4.89925C11.4578 3.6805 10.1974 3.06592 8.56201 3.06592C6.87972 3.06592 5.60368 3.6805 4.72868 4.89925C3.8641 6.10758 3.43701 7.618 3.43701 9.42008C3.43701 11.2534 3.8641 12.7899 4.72868 14.0243C5.60368 15.2482 6.87972 15.8576 8.56201 15.8576Z" fill="black"/>
</svg>
