<svg width="18" height="20" viewBox="0 0 18 20" fill="none" xmlns="http://www.w3.org/2000/svg">
<path d="M8.94409 19.4932C7.09513 19.4932 5.52743 19.0505 4.23576 18.1598C2.95451 17.2744 1.99097 16.1077 1.33993 14.6598C0.6993 13.2171 0.381592 11.6598 0.381592 9.99316C0.381592 8.3265 0.6993 6.77442 1.33993 5.3265C1.99097 3.88379 2.95451 2.71712 4.23576 1.8265C5.52743 0.941081 7.09513 0.493164 8.94409 0.493164C10.7878 0.493164 12.3503 0.941081 13.6316 1.8265C14.9233 2.71712 15.8816 3.889 16.5066 5.34733C17.142 6.80566 17.4649 8.35775 17.4649 9.99316C17.4649 11.6338 17.1368 13.1807 16.4858 14.639C15.8451 16.0973 14.8816 17.2744 13.5899 18.1598C12.3087 19.0505 10.7618 19.4932 8.94409 19.4932ZM8.94409 16.9307C10.0691 16.9307 11.0535 16.6182 11.9024 15.9932C12.7462 15.3682 13.3868 14.5296 13.8191 13.4723C14.2618 12.4202 14.4858 11.2432 14.4858 9.9515C14.4858 7.96712 13.9858 6.31608 12.9858 4.99316C11.9962 3.67546 10.6524 3.014 8.94409 3.014C7.78784 3.014 6.78784 3.3265 5.94409 3.9515C5.09513 4.5765 4.4493 5.42025 4.00659 6.47233C3.5743 7.52962 3.36076 8.69108 3.36076 9.9515C3.36076 11.9411 3.85034 13.5973 4.83993 14.9307C5.83993 16.264 7.20451 16.9307 8.94409 16.9307Z" fill="black"/>
</svg>
