<svg width="16" height="25" viewBox="0 0 16 25" fill="none" xmlns="http://www.w3.org/2000/svg">
<path d="M0.754395 0.346375H3.50439V10.4089H3.77523C4.19189 9.44013 4.87939 8.61721 5.83773 7.95054C6.80648 7.27346 7.98356 6.92971 9.35856 6.92971C10.7856 6.92971 11.9836 7.27346 12.9419 7.95054C13.9106 8.61721 14.6294 9.50262 15.0877 10.5964C15.5461 11.6953 15.7752 12.8828 15.7752 14.1589V24.2422H13.0044V14.513C13.0044 12.8464 12.5721 11.5755 11.7127 10.7005C10.8481 9.82554 9.70231 9.38804 8.27523 9.38804C6.91064 9.38804 5.77523 9.84637 4.85856 10.763C3.95231 11.6797 3.50439 12.9297 3.50439 14.513V24.2422H0.754395V0.346375Z" fill="black"/>
</svg>
