<svg width="21" height="24" viewBox="0 0 21 24" fill="none" xmlns="http://www.w3.org/2000/svg">
<path d="M0.17749 0.645101H3.84416V4.7076H4.17749C4.7452 3.40552 5.66707 2.30656 6.94832 1.41593C8.22437 0.514893 9.78687 0.0617676 11.6358 0.0617676C13.5369 0.0617676 15.1254 0.514893 16.4067 1.41593C17.6983 2.30656 18.6462 3.47843 19.2608 4.93677C19.8702 6.3951 20.1775 7.97843 20.1775 9.68677V23.1243H16.5108V10.1659C16.5108 7.94719 15.9327 6.24927 14.7817 5.0826C13.6254 3.91593 12.1254 3.3326 10.2817 3.3326C8.3077 3.3326 6.73999 3.96802 5.57332 5.22843C4.41707 6.49406 3.84416 8.13989 3.84416 10.1659V23.1243H0.17749V0.645101Z" fill="black"/>
</svg>
