<svg width="11" height="15" viewBox="0 0 11 15" fill="none" xmlns="http://www.w3.org/2000/svg">
<path d="M0.015625 14.0271V0.922892H1.86979V2.98539L2.11979 3.04789C2.54687 2.28747 3.09896 1.70414 3.76562 1.29789C4.44271 0.896851 5.27604 0.693726 6.26562 0.693726C7.83333 0.693726 8.97396 1.09998 9.68229 1.90206C10.3906 2.69373 10.7448 3.92289 10.7448 5.58956V14.0271H8.80729V5.65206C8.80729 4.86039 8.70312 4.23018 8.49479 3.75623C8.29688 3.27185 7.98438 2.91768 7.55729 2.69373C7.14062 2.47498 6.58333 2.36039 5.89062 2.36039C4.72396 2.36039 3.77083 2.75623 3.03646 3.54789C2.3125 4.32914 1.95312 5.57914 1.95312 7.29789V14.0271H0.015625Z" fill="black"/>
</svg>
