<svg width="11" height="24" viewBox="0 0 11 24" fill="none" xmlns="http://www.w3.org/2000/svg">
<path d="M6.01204 8.59631V18.388C6.01204 19.1692 6.04329 19.7421 6.11621 20.1171C6.19954 20.4921 6.39746 20.7942 6.72038 21.013C7.05371 21.2213 7.59538 21.3255 8.34538 21.3255C8.85579 21.3255 9.41309 21.2526 10.012 21.0963V23.0755C9.85579 23.1484 9.53288 23.2109 9.03288 23.263C8.53288 23.3307 8.01204 23.3671 7.47038 23.3671C6.23079 23.3671 5.30892 23.1953 4.69954 22.8463C4.10059 22.4869 3.70996 22.0078 3.53288 21.4088C3.35059 20.7994 3.26204 19.9921 3.26204 18.9921V8.59631H0.116211V6.38798H3.26204V0.846313H6.01204V6.38798H10.012V8.59631H6.01204Z" fill="black"/>
</svg>
