<svg width="17" height="25" viewBox="0 0 17 25" fill="none" xmlns="http://www.w3.org/2000/svg">
<path d="M9.31527 24.9922C8.67464 24.9922 8.15381 24.9505 7.75277 24.8672C7.36214 24.7839 6.96631 24.6641 6.56527 24.513V22.2005C6.84131 22.2943 7.2111 22.3776 7.66943 22.4505C8.13818 22.5182 8.59652 22.5547 9.04443 22.5547C10.7111 22.5547 11.9663 22.0807 12.8153 21.138C13.659 20.2057 14.0861 18.9609 14.0861 17.4089V14.3672H13.8153C13.3673 15.3672 12.6486 16.2161 11.6486 16.9089C10.659 17.6068 9.46631 17.9505 8.06527 17.9505C6.6486 17.9505 5.40381 17.5911 4.3361 16.8672C3.27881 16.1484 2.45068 15.138 1.85693 13.8464C1.2736 12.5547 0.981934 11.0755 0.981934 9.40885C0.981934 7.74219 1.2736 6.26302 1.85693 4.97135C2.45068 3.67969 3.27881 2.67448 4.3361 1.95052C5.40381 1.23177 6.6486 0.867188 8.06527 0.867188C9.53402 0.867188 10.7632 1.2526 11.7528 2.01302C12.7528 2.76302 13.4507 3.63802 13.8569 4.63802H14.0861V1.40885H16.8569V17.4089C16.8569 18.6016 16.6121 19.7734 16.1278 20.9297C15.6538 22.0807 14.8465 23.0443 13.7111 23.8255C12.5861 24.6016 11.1173 24.9922 9.31527 24.9922ZM8.9611 15.5964C10.0444 15.5964 10.9663 15.3047 11.7319 14.7214C12.508 14.1276 13.0757 13.3568 13.4403 12.4089C13.8153 11.4505 14.0028 10.4297 14.0028 9.34635C14.0028 8.27865 13.8153 7.28385 13.4403 6.36719C13.0757 5.45052 12.5132 4.71094 11.7528 4.13802C11.0028 3.55469 10.0705 3.26302 8.9611 3.26302C7.32048 3.26302 6.06527 3.86198 5.19027 5.05469C4.32568 6.23698 3.8986 7.66927 3.8986 9.34635C3.8986 10.4609 4.0861 11.4922 4.4611 12.4505C4.8361 13.3984 5.3986 14.1589 6.1486 14.7422C6.90902 15.3151 7.84652 15.5964 8.9611 15.5964Z" fill="black"/>
</svg>
