<svg width="18" height="27" viewBox="0 0 18 27" fill="none" xmlns="http://www.w3.org/2000/svg">
<path d="M9.68229 19.9434C8.08333 19.9434 6.77083 19.5475 5.74479 18.7559C4.72917 17.9642 3.95312 17.0267 3.41146 15.9434H3.16146V26.735H0.140625V1.42253H3.16146V4.81836H3.41146C3.91146 3.76628 4.65104 2.85482 5.64062 2.08919C6.64062 1.32878 7.95312 0.943359 9.57812 0.943359C11.2135 0.943359 12.6198 1.35482 13.7865 2.17253C14.9531 2.99544 15.8333 4.12565 16.4323 5.56836C17.026 7.01628 17.3281 8.64128 17.3281 10.4434C17.3281 12.2507 17.026 13.8704 16.4323 15.2975C15.8333 16.7298 14.9583 17.86 13.8073 18.6934C12.651 19.5267 11.276 19.9434 9.68229 19.9434ZM8.74479 17.3809C10.5469 17.3809 11.9167 16.7246 12.849 15.4017C13.776 14.084 14.2448 12.4329 14.2448 10.4434C14.2448 8.47461 13.776 6.83398 12.849 5.52669C11.9323 4.20898 10.5625 3.54753 8.74479 3.54753C6.9375 3.54753 5.5625 4.20898 4.61979 5.52669C3.6875 6.83398 3.22396 8.47461 3.22396 10.4434C3.22396 12.4017 3.69271 14.0475 4.64062 15.3809C5.59896 16.7142 6.96354 17.3809 8.74479 17.3809Z" fill="#690061"/>
</svg>
