<svg width="35" height="32" viewBox="0 0 35 32" fill="none" xmlns="http://www.w3.org/2000/svg">
<path d="M17.4979 31.2685C14.0916 31.2685 11.1073 30.6226 8.53955 29.331C5.96663 28.0289 3.96663 26.2008 2.53955 23.8518C1.12288 21.5081 0.414551 18.7997 0.414551 15.7268C0.414551 12.6591 1.12288 9.95597 2.53955 7.62264C3.96663 5.28931 5.96663 3.47681 8.53955 2.18514C11.1073 0.883057 14.0916 0.226807 17.4979 0.226807C20.9146 0.226807 23.8937 0.883057 26.4354 2.18514C28.9875 3.47681 30.9823 5.28931 32.4146 7.62264C33.8416 9.95597 34.5604 12.6591 34.5604 15.7268C34.5604 18.7997 33.8416 21.5081 32.4146 23.8518C30.9823 26.2008 28.9875 28.0289 26.4354 29.331C23.8937 30.6226 20.9146 31.2685 17.4979 31.2685ZM10.8521 15.7268C10.8521 17.6851 11.4771 19.2997 12.7271 20.5601C13.9875 21.8101 15.5812 22.4351 17.4979 22.4351C19.4666 22.4351 21.0656 21.8101 22.2896 20.5601C23.5083 19.2997 24.1229 17.6851 24.1229 15.7268C24.1229 13.7685 23.5083 12.1747 22.2896 10.9351C21.0656 9.68514 19.4666 9.06014 17.4979 9.06014C15.5812 9.06014 13.9875 9.68514 12.7271 10.9351C11.4771 12.1747 10.8521 13.7685 10.8521 15.7268Z" fill="#690061"/>
</svg>
