<svg width="18" height="20" viewBox="0 0 18 20" fill="none" xmlns="http://www.w3.org/2000/svg">
<path d="M9.1827 19.4932C7.3077 19.4932 5.72957 19.0452 4.45353 18.139C3.17228 17.238 2.22437 16.0557 1.59937 14.5973C0.974365 13.139 0.661865 11.6077 0.661865 9.99316C0.661865 8.35775 0.974365 6.81608 1.59937 5.36816C2.22437 3.92546 3.1827 2.75358 4.47437 1.84733C5.76603 0.946289 7.34937 0.493164 9.22437 0.493164C11.6671 0.493164 13.6254 1.31608 15.0994 2.9515C16.5681 4.59212 17.3077 6.94629 17.3077 10.014V10.8473H3.64103V11.0973C3.64103 12.113 3.8702 13.0713 4.32853 13.9723C4.79728 14.8786 5.44311 15.6077 6.26603 16.1598C7.09937 16.7171 8.06291 16.9932 9.16187 16.9932C10.3285 16.9932 11.3389 16.6963 12.2035 16.0973C13.0629 15.488 13.6931 14.6755 14.0994 13.6598H17.0577C16.5681 15.3265 15.6619 16.7171 14.3285 17.8265C13.0056 18.9411 11.2921 19.4932 9.1827 19.4932ZM14.3494 8.74316C14.2504 6.65983 13.7348 5.15983 12.8077 4.24316C11.891 3.31608 10.6827 2.84733 9.1827 2.84733C7.54207 2.84733 6.23478 3.389 5.26603 4.47233C4.29207 5.55566 3.77124 6.98275 3.70353 8.74316H14.3494Z" fill="black"/>
</svg>
