<svg width="19" height="24" viewBox="0 0 19 24" fill="none" xmlns="http://www.w3.org/2000/svg">
<path d="M9.75619 23.4159C7.93327 23.4159 6.36035 23.0566 5.02702 22.3326C3.69369 21.6139 2.67285 20.6816 1.96452 19.5409C1.2666 18.4055 0.922852 17.2076 0.922852 15.9576V15.7493H4.58952V15.9159C4.58952 16.6243 4.78744 17.3326 5.19369 18.0409C5.59473 18.7389 6.19369 19.3066 6.98535 19.7493C7.77702 20.1816 8.74056 20.3951 9.88119 20.3951C11.2406 20.3951 12.3656 20.0618 13.2562 19.3951C14.1572 18.7284 14.6104 17.8118 14.6104 16.6451C14.6104 15.6764 14.2614 14.9055 13.5687 14.3326C12.8708 13.7649 11.9958 13.3951 10.9437 13.2284L8.00619 12.8118C6.15723 12.5201 4.61035 11.8899 3.36035 10.9159C2.11035 9.93156 1.48535 8.49927 1.48535 6.62427C1.48535 4.54093 2.22493 2.93156 3.71452 1.79093C5.21452 0.639893 7.13119 0.0617676 9.46452 0.0617676C11.1989 0.0617676 12.6833 0.384684 13.9229 1.0201C15.1572 1.66073 16.0999 2.49927 16.7562 3.54093C17.4072 4.57219 17.7354 5.69719 17.7354 6.91593V7.0826H14.0687V6.99927C14.0687 6.43156 13.9124 5.8326 13.6104 5.2076C13.3187 4.5826 12.8083 4.05135 12.0895 3.60343C11.3812 3.1451 10.4749 2.91593 9.38119 2.91593C8.00619 2.91593 6.90723 3.24927 6.08952 3.91593C5.2666 4.5826 4.86035 5.4576 4.86035 6.54093C4.86035 7.41593 5.18327 8.13989 5.83952 8.7076C6.49056 9.28052 7.30827 9.6451 8.29785 9.81177L11.5062 10.3326C13.3812 10.6399 14.9541 11.2857 16.2354 12.2701C17.5114 13.2597 18.152 14.7024 18.152 16.6034C18.152 17.968 17.7874 19.1607 17.0687 20.1868C16.3447 21.2024 15.3447 21.9941 14.0687 22.5618C12.7874 23.1295 11.3499 23.4159 9.75619 23.4159Z" fill="black"/>
</svg>
