<svg width="56" height="74" viewBox="0 0 56 74" fill="none" xmlns="http://www.w3.org/2000/svg">
<path d="M13.1484 0.918091C16.6484 0.918091 20.362 1.16288 24.2943 1.64726C28.2214 2.13684 32.0286 3.07434 35.7109 4.45976C39.4036 5.85038 42.7422 7.87642 45.7318 10.5431C48.7161 13.1993 51.0964 16.6837 52.8776 21.0014C54.6693 25.3243 55.5651 30.7202 55.5651 37.1889C55.5651 43.4129 54.6901 48.6577 52.9401 52.9181C51.1901 57.1681 48.8255 60.6421 45.8568 63.3348C42.8984 66.0171 39.5547 68.1004 35.8359 69.5848C32.1276 71.0743 28.3203 72.0848 24.4193 72.6264C20.5286 73.1681 16.7734 73.4389 13.1484 73.4389H1.27344C0.606771 73.4389 0.273438 73.1681 0.273438 72.6264V44.1681H14.1484V60.1056C15.8984 60.1785 17.9453 60.1368 20.2943 59.9806C22.6536 59.8296 25.0703 59.3764 27.5443 58.6264C30.0286 57.866 32.3411 56.6681 34.4818 55.0431C36.6328 53.4077 38.3568 51.1421 39.6484 48.2514C40.9505 45.3504 41.6068 41.6629 41.6068 37.1889C41.6068 31.4389 40.4089 26.8295 38.0234 23.3556C35.6328 19.8868 32.3672 17.4129 28.2318 15.9389C24.0911 14.4545 19.3984 13.8556 14.1484 14.1473V30.2098H0.273438V1.73059C0.273438 1.18892 0.606771 0.918091 1.27344 0.918091H13.1484Z" fill="#562A2A"/>
</svg>
