<svg width="11" height="15" viewBox="0 0 11 15" fill="none" xmlns="http://www.w3.org/2000/svg">
<path d="M5.80452 14.2771C4.97119 14.2771 4.20557 14.1729 3.51286 13.9646C2.81494 13.7458 2.2264 13.4437 1.74202 13.0687C1.25244 12.6833 0.913899 12.251 0.721191 11.7771L1.84619 10.5896H2.09619C2.52328 11.2302 3.0389 11.7146 3.63786 12.0479C4.24723 12.3812 4.97119 12.5479 5.80452 12.5479C6.76286 12.5479 7.49202 12.3604 7.99202 11.9854C8.50244 11.6104 8.76286 11.0844 8.76286 10.4021C8.76286 9.89164 8.60661 9.46456 8.30452 9.13123C7.99723 8.79789 7.50244 8.54789 6.82536 8.38123L4.61702 7.83956C3.43473 7.54789 2.57536 7.09998 2.03369 6.48539C1.49202 5.86039 1.22119 5.09998 1.22119 4.19373C1.22119 3.47498 1.39828 2.85518 1.76286 2.33956C2.12223 1.81352 2.64307 1.41247 3.32536 1.13123C4.01807 0.839559 4.83057 0.693726 5.76286 0.693726C6.97119 0.693726 7.91911 0.860392 8.61702 1.19373C9.30973 1.52706 9.8514 1.99581 10.242 2.58956L9.13786 3.67289H8.90869C8.49202 3.18852 8.03369 2.83956 7.53369 2.63123C7.03369 2.41247 6.43994 2.29789 5.76286 2.29789C4.89828 2.29789 4.24202 2.45414 3.78369 2.75623C3.32536 3.06352 3.09619 3.51664 3.09619 4.11039C3.09619 4.64164 3.25244 5.06873 3.57536 5.40206C3.90869 5.72498 4.4764 5.98018 5.28369 6.17289L7.45036 6.69373C8.58577 6.95935 9.40869 7.40206 9.90869 8.02706C10.4191 8.65206 10.6795 9.43852 10.6795 10.3812C10.6795 11.1469 10.4972 11.8291 10.1379 12.4229C9.77328 13.0062 9.2264 13.4646 8.49202 13.7979C7.75244 14.1156 6.85661 14.2771 5.80452 14.2771Z" fill="black"/>
</svg>
