<svg width="18" height="27" viewBox="0 0 18 27" fill="none" xmlns="http://www.w3.org/2000/svg">
<path d="M9.77873 19.8491C8.17977 19.8491 6.86727 19.4533 5.84123 18.6616C4.8256 17.87 4.04956 16.9325 3.50789 15.8491H3.25789V26.6408H0.237061V1.32829H3.25789V4.72412H3.50789C4.00789 3.67204 4.74748 2.76058 5.73706 1.99495C6.73706 1.23454 8.04956 0.849121 9.67456 0.849121C11.31 0.849121 12.7162 1.26058 13.8829 2.07829C15.0496 2.9012 15.9298 4.03141 16.5287 5.47412C17.1225 6.92204 17.4246 8.54704 17.4246 10.3491C17.4246 12.1564 17.1225 13.7762 16.5287 15.2033C15.9298 16.6356 15.0548 17.7658 13.9037 18.5991C12.7475 19.4325 11.3725 19.8491 9.77873 19.8491ZM8.84123 17.2866C10.6433 17.2866 12.0131 16.6304 12.9454 15.3075C13.8725 13.9897 14.3412 12.3387 14.3412 10.3491C14.3412 8.38037 13.8725 6.73975 12.9454 5.43245C12.0287 4.11475 10.6589 3.45329 8.84123 3.45329C7.03394 3.45329 5.65894 4.11475 4.71623 5.43245C3.78394 6.73975 3.32039 8.38037 3.32039 10.3491C3.32039 12.3075 3.78914 13.9533 4.73706 15.2866C5.69539 16.62 7.05998 17.2866 8.84123 17.2866Z" fill="#690061"/>
</svg>
