<svg width="22" height="33" viewBox="0 0 22 33" fill="none" xmlns="http://www.w3.org/2000/svg">
<path d="M9.896 32.4159C7.896 32.4159 6.19287 31.9107 4.79183 30.8951C3.38558 29.869 2.31266 28.4732 1.56266 26.7076C0.82308 24.9472 0.458496 22.9524 0.458496 20.7284C0.458496 18.494 0.82308 16.494 1.56266 14.7284C2.31266 12.968 3.396 11.5826 4.81266 10.5826C6.22933 9.57217 7.94808 9.06175 9.97933 9.06175C11.9637 9.06175 13.5731 9.54092 14.8127 10.4992C16.047 11.4472 16.9637 12.5565 17.5627 13.8326H17.9168V0.145081H21.5835V32.1243H17.9168V27.5201H17.5627C16.8804 28.8847 15.922 30.0409 14.6877 30.9993C13.4481 31.9472 11.8543 32.4159 9.896 32.4159ZM11.0002 29.2701C13.2189 29.2701 14.9064 28.4524 16.0627 26.8118C17.2293 25.1763 17.8127 23.1451 17.8127 20.7284C17.8127 18.3117 17.2293 16.3013 16.0627 14.6867C14.9064 13.0617 13.2189 12.2492 11.0002 12.2492C8.75016 12.2492 7.05225 13.0617 5.91683 14.6867C4.7762 16.3013 4.2085 18.3117 4.2085 20.7284C4.2085 23.1763 4.78141 25.2076 5.93766 26.8326C7.0887 28.4576 8.7762 29.2701 11.0002 29.2701Z" fill="black"/>
</svg>
