<svg width="23" height="24" viewBox="0 0 23 24" fill="none" xmlns="http://www.w3.org/2000/svg">
<path d="M10.2949 23.4159C8.29492 23.4159 6.5918 22.9107 5.19076 21.895C3.7845 20.869 2.71159 19.4732 1.96159 17.7075C1.22201 15.9471 0.857422 13.9523 0.857422 11.7284C0.857422 9.52004 1.23242 7.53046 1.98242 5.74921C2.74284 3.97317 3.8418 2.58254 5.27409 1.58254C6.70117 0.572124 8.41992 0.0617065 10.4199 0.0617065C12.4043 0.0617065 14.0085 0.535665 15.2324 1.47837C16.4512 2.41067 17.3783 3.53046 18.0033 4.83254H18.2949V0.64504H22.0241V23.1242H18.2949V18.52H18.0033C17.321 19.8534 16.3574 21.0096 15.1074 21.9784C13.8574 22.9367 12.2533 23.4159 10.2949 23.4159ZM11.4408 20.27C13.6178 20.27 15.2949 19.4523 16.4616 17.8117C17.6283 16.1763 18.2116 14.145 18.2116 11.7284C18.2116 9.31171 17.6283 7.29087 16.4616 5.66587C15.2949 4.03046 13.6178 3.20754 11.4408 3.20754C9.19076 3.20754 7.48763 4.02004 6.33659 5.64504C5.18034 7.25962 4.60742 9.27004 4.60742 11.6867C4.60742 14.1346 5.18034 16.1763 6.33659 17.8117C7.48763 19.4523 9.19076 20.27 11.4408 20.27Z" fill="black"/>
</svg>
