<svg width="30" height="36" viewBox="0 0 30 36" fill="none" xmlns="http://www.w3.org/2000/svg">
<path d="M13.3397 35.4397C10.923 35.4397 8.77718 34.898 6.90218 33.8147C5.0376 32.7314 3.57926 31.2262 2.52718 29.2939C1.46989 27.3668 0.943848 25.1272 0.943848 22.5855C0.943848 20.0855 1.46989 17.872 2.52718 15.9397C3.57926 14.0126 5.0376 12.5022 6.90218 11.4189C8.77718 10.3355 10.923 9.79386 13.3397 9.79386C15.9334 9.79386 18.2251 10.4397 20.2147 11.7314V0.814697H29.0272V34.7522H22.6938L21.8188 32.3147C20.7459 33.3043 19.4907 34.0751 18.048 34.6272C16.6157 35.1689 15.048 35.4397 13.3397 35.4397ZM9.56885 22.5855C9.56885 24.2105 10.0793 25.5439 11.1105 26.5855C12.1366 27.6272 13.4543 28.148 15.0688 28.148C16.6938 28.148 18.0116 27.6272 19.0272 26.5855C20.0376 25.5439 20.548 24.2105 20.548 22.5855C20.548 20.9762 20.0376 19.6584 19.0272 18.6272C18.0116 17.6012 16.6938 17.0855 15.0688 17.0855C13.4543 17.0855 12.1366 17.6012 11.1105 18.6272C10.0793 19.6584 9.56885 20.9762 9.56885 22.5855Z" fill="#690061"/>
</svg>
