<svg width="12" height="14" viewBox="0 0 12 14" fill="none" xmlns="http://www.w3.org/2000/svg">
<path d="M6.41081 13.0254C5.20247 13.0254 4.17122 12.7337 3.32747 12.1504C2.49414 11.5671 1.85872 10.8066 1.43164 9.85872C1.01497 8.91602 0.806641 7.90039 0.806641 6.81706C0.806641 5.72331 1.01497 4.70247 1.43164 3.75456C1.85872 2.81185 2.49414 2.04622 3.32747 1.46289C4.17122 0.879557 5.20247 0.587891 6.41081 0.587891C7.61914 0.587891 8.63997 0.879557 9.47331 1.46289C10.3171 2.04622 10.9525 2.81706 11.3691 3.77539C11.7858 4.72331 11.9941 5.73372 11.9941 6.81706C11.9941 7.88997 11.7754 8.90039 11.3483 9.85872C10.9316 10.8066 10.2962 11.5671 9.45247 12.1504C8.61914 12.7337 7.60352 13.0254 6.41081 13.0254ZM6.41081 11.3379C7.16081 11.3379 7.80664 11.14 8.34831 10.7337C8.90039 10.3171 9.31706 9.77018 9.59831 9.08789C9.88997 8.39518 10.0358 7.62435 10.0358 6.77539C10.0358 5.48372 9.70768 4.41081 9.05664 3.54622C8.41602 2.68685 7.53581 2.25456 6.41081 2.25456C5.66081 2.25456 5.00456 2.46289 4.45247 2.87956C3.89518 3.28581 3.47331 3.83268 3.18164 4.52539C2.90039 5.20768 2.76497 5.95768 2.76497 6.77539C2.76497 8.08268 3.08789 9.17122 3.74414 10.0462C4.39518 10.9108 5.28581 11.3379 6.41081 11.3379Z" fill="black"/>
</svg>
