<svg width="17" height="19" viewBox="0 0 17 19" fill="none" xmlns="http://www.w3.org/2000/svg">
<path d="M7.65853 18.4714C6.15853 18.4714 4.87728 18.0911 3.8252 17.3255C2.7679 16.5495 1.96061 15.5026 1.40853 14.1797C0.851237 12.862 0.575195 11.3672 0.575195 9.70052C0.575195 8.03385 0.856446 6.53385 1.42936 5.20052C1.99707 3.86719 2.81478 2.82552 3.8877 2.07552C4.97103 1.3151 6.25228 0.929688 7.74186 0.929688C9.24186 0.929688 10.4502 1.28385 11.3669 1.99219C12.2835 2.6901 12.9762 3.52865 13.4502 4.51302H13.6585V1.38802H16.4502V18.2422H13.6585V14.7839H13.4502C12.9346 15.7839 12.2054 16.6536 11.2627 17.388C10.3304 18.112 9.12728 18.4714 7.65853 18.4714ZM8.5127 16.0964C10.1481 16.0964 11.4085 15.487 12.2835 14.263C13.1585 13.0286 13.596 11.5078 13.596 9.70052C13.596 7.88281 13.1585 6.36198 12.2835 5.13802C11.4085 3.91927 10.1481 3.30469 8.5127 3.30469C6.8304 3.30469 5.55436 3.91927 4.67936 5.13802C3.81478 6.34635 3.3877 7.85677 3.3877 9.65885C3.3877 11.4922 3.81478 13.0286 4.67936 14.263C5.55436 15.487 6.8304 16.0964 8.5127 16.0964Z" fill="black"/>
</svg>
