<svg width="12" height="15" viewBox="0 0 12 15" fill="none" xmlns="http://www.w3.org/2000/svg">
<path d="M11.5119 8.12309H2.51188C2.56397 9.72205 2.94938 10.8939 3.65771 11.6439C4.36605 12.3835 5.3348 12.7481 6.57438 12.7481C7.50146 12.7481 8.25146 12.5814 8.82438 12.2481C9.39209 11.9148 9.8348 11.3939 10.1577 10.6856H10.4077L11.6785 11.4356C11.3035 12.3835 10.689 13.1231 9.84521 13.6648C9.01188 14.2064 7.91813 14.4773 6.57438 14.4773C5.30876 14.4773 4.22021 14.2273 3.30355 13.7273C2.3973 13.2273 1.69938 12.472 1.19938 11.4564C0.709798 10.446 0.470215 9.18559 0.470215 7.68559C0.470215 6.20121 0.725423 4.95121 1.24105 3.93559C1.76709 2.90955 2.47542 2.14392 3.36605 1.64392C4.26709 1.14392 5.29313 0.893921 6.44938 0.893921C8.12646 0.893921 9.43897 1.36788 10.3869 2.31059C11.3296 3.2585 11.8035 4.65955 11.8035 6.51892C11.8035 7.24288 11.7879 7.72725 11.7619 7.97725L11.5119 8.12309ZM9.88688 6.51892C9.85563 5.11788 9.55355 4.10225 8.97021 3.47725C8.38688 2.84184 7.54313 2.51892 6.44938 2.51892C5.30876 2.51892 4.40771 2.84184 3.74105 3.47725C3.0848 4.11788 2.68897 5.1335 2.55355 6.51892H9.88688Z" fill="black"/>
</svg>
