<svg width="26" height="26" viewBox="0 0 26 26" fill="none" xmlns="http://www.w3.org/2000/svg">
<path d="M0.0358887 25.3905V1.11963H6.34839L7.26506 3.5988C8.15047 2.58838 9.28589 1.80713 10.6609 1.26546C12.0359 0.71338 13.5359 0.432129 15.1609 0.432129C18.2859 0.432129 20.7546 1.40609 22.5776 3.3488C24.3953 5.29671 25.3067 7.90088 25.3067 11.1613V25.3905H16.4942V12.078C16.4942 10.6509 16.1609 9.56754 15.4942 8.82796C14.838 8.09359 13.9369 7.7238 12.7859 7.7238C11.5619 7.7238 10.5984 8.13005 9.89006 8.93213C9.18172 9.7238 8.82756 10.8488 8.82756 12.3071V25.3905H0.0358887Z" fill="#690061"/>
</svg>
