<svg width="58" height="74" viewBox="0 0 58 74" fill="none" xmlns="http://www.w3.org/2000/svg">
<path d="M57.3399 72.3618C57.4649 72.6013 57.4336 72.8409 57.2565 73.0909C57.0743 73.3305 56.8295 73.4451 56.5274 73.4451H44.0274C43.5951 73.4451 43.3243 73.268 43.2149 72.9034L28.8815 32.4659L14.7357 72.9034C14.6784 73.268 14.3815 73.4451 13.8399 73.4451H1.42321C0.99092 73.4451 0.699254 73.3305 0.548212 73.0909C0.412796 72.8409 0.397171 72.6013 0.506546 72.3618L27.9857 1.46592C28.0951 1.10655 28.392 0.924255 28.8815 0.924255C29.3659 0.924255 29.6732 1.10655 29.7982 1.46592L57.3399 72.3618Z" fill="#562A2A" fill-opacity="0.502"/>
</svg>
