<svg width="15" height="18" viewBox="0 0 15 18" fill="none" xmlns="http://www.w3.org/2000/svg">
<path d="M7.77075 17.8499C6.19783 17.8499 4.84367 17.4854 3.70825 16.7458C2.58325 15.9958 1.71346 14.9697 1.10409 13.6624C0.505127 12.3447 0.208252 10.8499 0.208252 9.18327C0.208252 7.5166 0.505127 6.03223 1.10409 4.72494C1.71346 3.40723 2.58325 2.38119 3.70825 1.6416C4.84367 0.891602 6.19783 0.516602 7.77075 0.516602C9.65617 0.516602 11.2187 1.05306 12.4583 2.12077C13.6926 3.19368 14.5208 4.63119 14.9374 6.43327H12.8958C12.5468 5.19889 11.9218 4.21973 11.0208 3.49577C10.1301 2.76139 9.052 2.3916 7.79159 2.3916C6.052 2.3916 4.71867 3.00619 3.79159 4.22494C2.85929 5.44889 2.39575 7.09473 2.39575 9.16244C2.39575 11.2458 2.85929 12.902 3.79159 14.1208C4.71867 15.3447 6.052 15.9541 7.79159 15.9541C8.99992 15.9541 10.0312 15.6364 10.8958 14.9958C11.7551 14.3447 12.3749 13.4697 12.7499 12.3708H14.7916C14.3333 14.0374 13.4999 15.3708 12.2916 16.3708C11.0833 17.3604 9.57283 17.8499 7.77075 17.8499Z" fill="black"/>
</svg>
