<svg width="62" height="74" viewBox="0 0 62 74" fill="none" xmlns="http://www.w3.org/2000/svg">
<path d="M60.4137 0.962463C61.0804 0.962463 61.4137 1.2333 61.4137 1.77496V72.6708C61.4137 73.2125 61.0804 73.4833 60.4137 73.4833H48.4554C48.3981 73.4833 48.2574 73.4573 48.0387 73.4C47.8304 73.3323 47.695 73.2698 47.6429 73.2125L14.2887 25.4416V56.0875H0.413696V1.77496C0.413696 1.2333 0.715779 0.962463 1.33036 0.962463H13.372C13.497 0.962463 13.6481 0.983297 13.8304 1.02496C14.0074 1.05621 14.1272 1.12392 14.1845 1.2333L47.6429 49.0041V1.77496C47.6429 1.2333 48.0022 0.962463 48.7262 0.962463H60.4137Z" fill="#562A2A"/>
</svg>
