<svg width="21" height="24" viewBox="0 0 21 24" fill="none" xmlns="http://www.w3.org/2000/svg">
<path d="M10.8179 23.8826C8.51058 23.8826 6.56787 23.3357 4.98454 22.2367C3.41162 21.1274 2.23975 19.6742 1.4637 17.8826C0.698079 16.0909 0.317871 14.1951 0.317871 12.1951C0.317871 10.1847 0.698079 8.28882 1.4637 6.50757C2.23975 4.73153 3.42204 3.28882 5.00537 2.17424C6.59912 1.06486 8.55225 0.507568 10.8595 0.507568C13.87 0.507568 16.2814 1.52319 18.0887 3.54924C19.8908 5.56486 20.797 8.46069 20.797 12.2367V13.2576H4.00537V13.5701C4.00537 14.8201 4.28141 16.0024 4.8387 17.1117C5.40641 18.2263 6.20329 19.1222 7.23454 19.7992C8.26058 20.4815 9.44287 20.8201 10.7762 20.8201C12.2345 20.8201 13.4845 20.4555 14.5262 19.7159C15.5783 18.9659 16.3647 17.9659 16.8804 16.7159H20.5054C19.9064 18.7732 18.7866 20.4815 17.1512 21.8409C15.5262 23.2055 13.4116 23.8826 10.8179 23.8826ZM17.172 10.6534C17.0575 8.10132 16.4325 6.25236 15.297 5.11174C14.1564 3.97632 12.6616 3.4034 10.8179 3.4034C8.80225 3.4034 7.19808 4.08049 6.00537 5.42424C4.80746 6.75757 4.17204 8.50236 4.0887 10.6534H17.172Z" fill="#690061"/>
</svg>
