<svg width="13" height="20" viewBox="0 0 13 20" fill="none" xmlns="http://www.w3.org/2000/svg">
<path d="M5.75895 19.4772C4.70166 19.4772 3.76937 19.2272 2.96729 18.7272C2.15999 18.2272 1.52979 17.472 1.07145 16.4564C0.623536 15.446 0.404785 14.1855 0.404785 12.6855C0.404785 11.1855 0.63916 9.93034 1.11312 8.91471C1.58187 7.9043 2.23812 7.14388 3.07145 6.64388C3.9152 6.14388 4.88916 5.89388 5.98812 5.89388C6.84749 5.89388 7.62354 6.06055 8.32145 6.39388C9.02979 6.7168 9.63395 7.24805 10.134 7.99805L10.384 7.95638V0.873047H12.3006V19.2272H10.384V17.3105L10.134 17.2689C9.70166 17.9251 9.11833 18.4564 8.38395 18.873C7.64437 19.2741 6.76937 19.4772 5.75895 19.4772ZM6.36312 17.748C7.58187 17.748 8.55583 17.3314 9.27979 16.498C10.0142 15.6647 10.384 14.3939 10.384 12.6855C10.384 10.9772 10.0142 9.70638 9.27979 8.87305C8.55583 8.03971 7.58187 7.62305 6.36312 7.62305C5.09749 7.62305 4.12354 8.03451 3.44645 8.85221C2.76416 9.65951 2.42562 10.9355 2.42562 12.6855C2.42562 16.0605 3.73812 17.748 6.36312 17.748Z" fill="black"/>
</svg>
