<svg width="55" height="52" viewBox="0 0 55 52" fill="none" xmlns="http://www.w3.org/2000/svg">
<path d="M27.7377 51.5367C22.4148 51.5367 17.7169 50.4637 13.6335 48.3283C9.56063 46.1773 6.37313 43.1981 4.07104 39.3908C1.77938 35.5887 0.633545 31.1773 0.633545 26.1617C0.633545 21.1512 1.77938 16.7554 4.07104 12.9742C6.37313 9.19812 9.58146 6.23979 13.696 4.09916C17.8054 1.94812 22.519 0.869995 27.8419 0.869995C33.5763 0.869995 38.5138 2.09395 42.6544 4.53666C46.7898 6.98458 49.9304 10.4273 52.071 14.87C54.2221 19.3179 55.144 24.5315 54.8419 30.5158H17.8627C18.5294 33.1148 19.7898 35.0783 21.6544 36.4117C23.5294 37.7346 25.6804 38.3908 28.1127 38.3908C29.9721 38.3908 31.6856 38.0575 33.2585 37.3908C34.8419 36.7242 36.1127 35.8231 37.071 34.6825H53.946C51.8315 40.0054 48.4929 44.1408 43.9252 47.0992C39.3523 50.0575 33.9565 51.5367 27.7377 51.5367ZM17.946 21.0783H38.2585C37.5346 18.844 36.3106 17.094 34.5919 15.8283C32.8679 14.5523 30.6752 13.9117 28.0085 13.9117C25.5919 13.9117 23.4877 14.5367 21.696 15.7867C19.9148 17.0262 18.6648 18.7867 17.946 21.0783Z" fill="#690061"/>
</svg>
