<svg width="14" height="31" viewBox="0 0 14 31" fill="none" xmlns="http://www.w3.org/2000/svg">
<path d="M8.60921 10.3874V23.4499C8.60921 24.4916 8.65609 25.2624 8.75505 25.7624C8.86442 26.2624 9.13525 26.6582 9.56755 26.9499C10.0103 27.2312 10.7342 27.3666 11.7342 27.3666C12.4113 27.3666 13.1509 27.2728 13.9425 27.0749V29.7207C13.7446 29.8041 13.3175 29.8874 12.6509 29.9707C11.9842 30.0541 11.2967 30.0957 10.5884 30.0957C8.93213 30.0957 7.69775 29.8666 6.88005 29.4082C6.07275 28.9395 5.54671 28.2989 5.29671 27.4916C5.05713 26.6739 4.94255 25.5957 4.94255 24.2624V10.3874H0.775879V7.44991H4.94255V0.0540771H8.60921V7.44991H13.9425V10.3874H8.60921Z" fill="#690061"/>
</svg>
