<svg width="12" height="18" viewBox="0 0 12 18" fill="none" xmlns="http://www.w3.org/2000/svg">
<path d="M6.62467 13.0254C5.58301 13.0254 4.72884 12.7702 4.06217 12.2546C3.39551 11.7441 2.87988 11.1243 2.52051 10.4004H2.35384V17.4629H0.395508V0.921224H2.35384V3.12956H2.52051C2.85384 2.43685 3.33822 1.83789 3.97884 1.33789C4.62988 0.837891 5.48405 0.587891 6.54134 0.587891C7.62467 0.587891 8.54655 0.858724 9.31217 1.40039C10.0726 1.94206 10.6507 2.68685 11.0413 3.62956C11.4268 4.57747 11.6247 5.63997 11.6247 6.81706C11.6247 7.98372 11.4268 9.04102 11.0413 9.98372C10.6507 10.916 10.0726 11.6608 9.31217 12.2129C8.56217 12.7546 7.66634 13.0254 6.62467 13.0254ZM5.99967 11.3379C7.17676 11.3379 8.07259 10.9108 8.68717 10.0462C9.29655 9.18685 9.60384 8.10872 9.60384 6.81706C9.60384 5.52539 9.29655 4.45247 8.68717 3.58789C8.08822 2.72852 7.19238 2.29622 5.99967 2.29622C4.81738 2.29622 3.92155 2.72852 3.31217 3.58789C2.69759 4.45247 2.39551 5.52539 2.39551 6.81706C2.39551 8.09831 2.70801 9.17122 3.33301 10.0462C3.95801 10.9108 4.84342 11.3379 5.99967 11.3379Z" fill="black"/>
</svg>
