<svg width="12" height="15" viewBox="0 0 12 15" fill="none" xmlns="http://www.w3.org/2000/svg">
<path d="M11.589 7.92289H2.58903C2.64111 9.52185 3.02653 10.6937 3.73486 11.4437C4.4432 12.1833 5.41195 12.5479 6.65153 12.5479C7.57861 12.5479 8.32861 12.3812 8.90153 12.0479C9.46924 11.7146 9.91195 11.1937 10.2349 10.4854H10.4849L11.7557 11.2354C11.3807 12.1833 10.7661 12.9229 9.92236 13.4646C9.08903 14.0062 7.99528 14.2771 6.65153 14.2771C5.3859 14.2771 4.29736 14.0271 3.3807 13.5271C2.47445 13.0271 1.77653 12.2719 1.27653 11.2562C0.786946 10.2458 0.547363 8.98539 0.547363 7.48539C0.547363 6.00102 0.802571 4.75102 1.3182 3.73539C1.84424 2.70935 2.55257 1.94373 3.4432 1.44373C4.34424 0.943726 5.37028 0.693726 6.52653 0.693726C8.20361 0.693726 9.51611 1.16768 10.464 2.11039C11.4067 3.05831 11.8807 4.45935 11.8807 6.31873C11.8807 7.04268 11.8651 7.52706 11.839 7.77706L11.589 7.92289ZM9.96403 6.31873C9.93278 4.91768 9.6307 3.90206 9.04736 3.27706C8.46403 2.64164 7.62028 2.31873 6.52653 2.31873C5.3859 2.31873 4.48486 2.64164 3.8182 3.27706C3.16195 3.91768 2.76611 4.93331 2.6307 6.31873H9.96403Z" fill="black"/>
</svg>
