<svg width="28" height="26" viewBox="0 0 28 26" fill="none" xmlns="http://www.w3.org/2000/svg">
<path d="M14.0282 25.0749C11.4136 25.0749 9.10108 24.5436 7.09066 23.4915C5.09066 22.4395 3.51774 20.9811 2.38232 19.1165C1.25732 17.2415 0.694824 15.0697 0.694824 12.5957C0.694824 10.127 1.25732 7.9655 2.38232 6.11654C3.51774 4.25716 5.09587 2.79883 7.11149 1.74154C9.13753 0.689454 11.4552 0.158203 14.0698 0.158203C16.9032 0.158203 19.3302 0.76237 21.3615 1.9707C23.4032 3.16862 24.95 4.86133 26.0073 7.05404C27.0594 9.23633 27.5125 11.7988 27.3615 14.7415H9.17399C9.4917 16.0228 10.1115 16.9863 11.0282 17.6374C11.9552 18.2936 13.0177 18.6165 14.2157 18.6165C15.1323 18.6165 15.9709 18.4603 16.7365 18.1374C17.5125 17.804 18.1427 17.3561 18.6323 16.7832H26.924C25.8823 19.3978 24.2365 21.429 21.9865 22.8874C19.7469 24.3457 17.0959 25.0749 14.0282 25.0749ZM9.21566 10.0957H19.1948C18.8459 9.00195 18.2469 8.13737 17.4032 7.51237C16.5542 6.88737 15.4761 6.57487 14.174 6.57487C12.9761 6.57487 11.9448 6.88216 11.0698 7.49154C10.1948 8.10612 9.57503 8.9707 9.21566 10.0957Z" fill="#690061"/>
</svg>
