<svg width="18" height="24" viewBox="0 0 18 24" fill="none" xmlns="http://www.w3.org/2000/svg">
<path d="M9.48519 23.7554C7.66227 23.7554 6.08936 23.396 4.75602 22.672C3.42269 21.9533 2.40186 21.021 1.69352 19.8804C0.995605 18.745 0.651855 17.547 0.651855 16.297V16.0887H4.31852V16.2554C4.31852 16.9637 4.51644 17.6668 4.92269 18.3595C5.32373 19.0575 5.92269 19.6252 6.71436 20.0679C7.50602 20.5158 8.46956 20.7345 9.61019 20.7345C10.9852 20.7345 12.1154 20.4012 13.006 19.7345C13.9071 19.0679 14.3602 18.1512 14.3602 16.9845C14.3602 16.0158 14.006 15.245 13.2977 14.672C12.5998 14.1043 11.7352 13.7345 10.6935 13.5679L7.73519 13.1304C5.88623 12.8543 4.33936 12.2293 3.08936 11.2554C1.83936 10.271 1.21436 8.8335 1.21436 6.94287C1.21436 4.87516 1.95394 3.26579 3.44352 2.10954C4.94352 0.958496 6.86019 0.380371 9.19352 0.380371C10.9279 0.380371 12.4123 0.703288 13.6519 1.3387C14.8862 1.97933 15.8289 2.81787 16.4852 3.85954C17.1362 4.9012 17.4644 6.03662 17.4644 7.25537V7.42204H13.7977V7.3387C13.7977 6.771 13.6414 6.17204 13.3394 5.54704C13.0477 4.92204 12.5477 4.38037 11.8394 3.92204C11.131 3.4637 10.2196 3.23454 9.11019 3.23454C7.7456 3.23454 6.65186 3.57829 5.81852 4.25537C4.9956 4.92204 4.58936 5.79183 4.58936 6.85954C4.58936 7.75016 4.91227 8.47933 5.56852 9.04704C6.21956 9.61996 7.04769 9.98454 8.04769 10.1512L11.2352 10.672C13.1102 10.9793 14.6831 11.6252 15.9644 12.6095C17.256 13.5835 17.9019 15.0262 17.9019 16.9429C17.9019 18.3075 17.5321 19.5002 16.7977 20.5262C16.0737 21.5418 15.0737 22.3335 13.7977 22.9012C12.5164 23.4689 11.0789 23.7554 9.48519 23.7554Z" fill="#690061"/>
</svg>
