<svg width="15" height="18" viewBox="0 0 15 18" fill="none" xmlns="http://www.w3.org/2000/svg">
<path d="M14.7461 17.2422H11.9753V14.0339H11.7669C11.319 15.0235 10.6315 15.8568 9.70443 16.5339C8.77214 17.2006 7.64193 17.5339 6.30859 17.5339C4.89193 17.5339 3.70964 17.1954 2.76693 16.5131C1.83464 15.836 1.14714 14.9506 0.704427 13.8672C0.272135 12.7735 0.0585938 11.586 0.0585938 10.3047V0.388062H2.80859V9.95056C2.80859 11.5912 3.22526 12.8568 4.05859 13.7422C4.89193 14.6329 5.98047 15.0756 7.32943 15.0756C8.73047 15.0756 9.85547 14.6068 10.7044 13.6589C11.5482 12.7006 11.9753 11.4662 11.9753 9.95056V0.388062H14.7461V17.2422Z" fill="black"/>
</svg>
