<svg width="14" height="19" viewBox="0 0 14 19" fill="none" xmlns="http://www.w3.org/2000/svg">
<path d="M6.73682 18.4714C5.36182 18.4714 4.17432 18.2005 3.17432 17.6589C2.17432 17.1068 1.40869 16.4036 0.88265 15.5547C0.367024 14.7109 0.111816 13.8151 0.111816 12.8672V12.7005H2.86182V12.8255C2.86182 13.3672 3.00765 13.9036 3.29932 14.4297C3.6014 14.9453 4.05452 15.3672 4.65348 15.7005C5.24723 16.0339 5.97119 16.2005 6.82015 16.2005C7.84619 16.2005 8.69515 15.9505 9.36182 15.4505C10.0389 14.9505 10.3827 14.263 10.3827 13.388C10.3827 12.6536 10.117 12.0755 9.59098 11.6589C9.07536 11.2318 8.42432 10.9505 7.63265 10.8255L5.42432 10.4922C4.03369 10.2839 2.86702 9.81511 1.92432 9.07552C0.992024 8.34115 0.528483 7.27344 0.528483 5.86719C0.528483 4.29948 1.08057 3.08594 2.19515 2.22135C3.32015 1.36198 4.75765 0.929688 6.50765 0.929688C7.80973 0.929688 8.92432 1.17448 9.84098 1.65885C10.7681 2.13281 11.4764 2.75781 11.966 3.53385C12.466 4.3151 12.716 5.15885 12.716 6.07552V6.20052H9.96598V6.13802C9.96598 5.72135 9.8514 5.27865 9.63265 4.80469C9.40869 4.33594 9.02848 3.92969 8.48682 3.59635C7.95557 3.2526 7.27848 3.07552 6.44515 3.07552C5.4139 3.07552 4.59098 3.32552 3.96598 3.82552C3.3514 4.32552 3.04932 4.98177 3.04932 5.78385C3.04932 6.45052 3.2889 7.0026 3.77848 7.42969C4.27848 7.86198 4.89307 8.13802 5.63265 8.26302L8.04932 8.63802C9.45036 8.8776 10.6327 9.36198 11.591 10.0964C12.5493 10.8359 13.0285 11.9193 13.0285 13.3464C13.0285 14.3776 12.7577 15.2734 12.216 16.0339C11.6743 16.7995 10.9243 17.3984 9.96598 17.8255C9.00765 18.2526 7.92952 18.4714 6.73682 18.4714Z" fill="black"/>
</svg>
