<svg width="12" height="14" viewBox="0 0 12 14" fill="none" xmlns="http://www.w3.org/2000/svg">
<path d="M5.77848 13.0254C4.57015 13.0254 3.5389 12.7337 2.69515 12.1504C1.86182 11.5671 1.2264 10.8066 0.799316 9.85872C0.38265 8.91602 0.174316 7.90039 0.174316 6.81706C0.174316 5.72331 0.38265 4.70247 0.799316 3.75456C1.2264 2.81185 1.86182 2.04622 2.69515 1.46289C3.5389 0.879557 4.57015 0.587891 5.77848 0.587891C6.98682 0.587891 8.00765 0.879557 8.84098 1.46289C9.68473 2.04622 10.3202 2.81706 10.7368 3.77539C11.1535 4.72331 11.3618 5.73372 11.3618 6.81706C11.3618 7.88997 11.1431 8.90039 10.716 9.85872C10.2993 10.8066 9.6639 11.5671 8.82015 12.1504C7.98682 12.7337 6.97119 13.0254 5.77848 13.0254ZM5.77848 11.3379C6.52848 11.3379 7.17432 11.14 7.71598 10.7337C8.26807 10.3171 8.68473 9.77018 8.96598 9.08789C9.25765 8.39518 9.40348 7.62435 9.40348 6.77539C9.40348 5.48372 9.07536 4.41081 8.42432 3.54622C7.78369 2.68685 6.90348 2.25456 5.77848 2.25456C5.02848 2.25456 4.37223 2.46289 3.82015 2.87956C3.26286 3.28581 2.84098 3.83268 2.54932 4.52539C2.26807 5.20768 2.13265 5.95768 2.13265 6.77539C2.13265 8.08268 2.45557 9.17122 3.11182 10.0462C3.76286 10.9108 4.65348 11.3379 5.77848 11.3379Z" fill="black"/>
</svg>
