<svg width="58" height="74" viewBox="0 0 58 74" fill="none" xmlns="http://www.w3.org/2000/svg">
<path d="M57.7959 72.4124C57.9209 72.6519 57.8897 72.8915 57.7126 73.1415C57.5303 73.3811 57.2855 73.4957 56.9834 73.4957H44.4834C44.0511 73.4957 43.7803 73.3186 43.6709 72.954L29.3376 32.5165L15.1918 72.954C15.1345 73.3186 14.8376 73.4957 14.2959 73.4957H1.87927C1.44698 73.4957 1.15531 73.3811 1.00427 73.1415C0.86885 72.8915 0.853225 72.6519 0.9626 72.4124L28.4418 1.51652C28.5511 1.15715 28.848 0.974854 29.3376 0.974854C29.822 0.974854 30.1293 1.15715 30.2543 1.51652L57.7959 72.4124Z" fill="#562A2A" fill-opacity="0.302"/>
</svg>
