<svg width="7" height="12" viewBox="0 0 7 12" fill="none" xmlns="http://www.w3.org/2000/svg">
<path d="M1.41105 10.0617C3.11938 9.32735 3.97355 8.21798 3.97355 6.72839C3.97355 6.05131 3.84855 5.61902 3.59855 5.43673C3.35897 5.24402 3.01522 5.14506 2.55688 5.14506C1.8173 5.14506 1.27563 4.94714 0.931885 4.54089C0.598551 4.12423 0.431885 3.64506 0.431885 3.10339C0.431885 2.36902 0.661051 1.78048 1.11938 1.33256C1.57772 0.889852 2.22876 0.665894 3.07772 0.665894C5.03605 0.665894 6.01522 1.72319 6.01522 3.83256V5.37423C6.01522 7.07214 5.58293 8.42631 4.72355 9.43673C3.87459 10.4524 2.77043 11.1659 1.41105 11.5826V10.0617Z" fill="black"/>
</svg>
