<svg width="73" height="69" viewBox="0 0 73 69" fill="none" xmlns="http://www.w3.org/2000/svg">
<path d="M36.6235 68.2999C29.5402 68.2999 23.2746 66.8676 17.8319 64.0082C12.3996 61.1489 8.14958 57.1853 5.08187 52.1124C2.02458 47.0291 0.498535 41.1489 0.498535 34.4666C0.498535 27.7895 2.02458 21.9353 5.08187 16.9041C8.14958 11.8624 12.4204 7.91449 17.8944 5.04991C23.3631 2.19053 29.6496 0.75824 36.7485 0.75824C44.3996 0.75824 50.9829 2.39366 56.4985 5.65407C62.009 8.9197 66.1965 13.5082 69.061 19.4249C71.9204 25.3416 73.1496 32.2895 72.7485 40.2582H23.4569C24.3423 43.7322 26.0298 46.3572 28.5194 48.1332C31.0194 49.8989 33.8787 50.7791 37.1027 50.7791C39.6027 50.7791 41.8996 50.3364 43.9985 49.4457C46.0923 48.5603 47.7798 47.352 49.061 45.8207H71.5402C68.7173 52.9197 64.2694 58.4405 58.186 62.3832C52.1027 66.3312 44.9152 68.2999 36.6235 68.2999ZM23.5819 27.6957H50.6444C49.6704 24.727 48.0402 22.3937 45.7485 20.6957C43.4569 19.003 40.5298 18.1541 36.9777 18.1541C33.7537 18.1541 30.9569 18.9822 28.5819 20.6332C26.2069 22.2895 24.5402 24.6437 23.5819 27.6957Z" fill="#690061"/>
</svg>
