<svg width="13" height="20" viewBox="0 0 13 20" fill="none" xmlns="http://www.w3.org/2000/svg">
<path d="M7.21143 19.277C6.23747 19.277 5.38851 19.0895 4.66976 18.7145C3.9458 18.3395 3.37809 17.8395 2.96143 17.2145L2.71143 17.277V19.027H0.773926V0.672852H2.71143V7.90202L2.96143 7.94369C3.96143 6.44369 5.40934 5.69369 7.31559 5.69369C8.3833 5.69369 9.3208 5.94369 10.1281 6.44369C10.9458 6.93327 11.576 7.68848 12.0239 8.71452C12.4666 9.73014 12.6906 10.9854 12.6906 12.4854C12.6906 13.9749 12.451 15.2301 11.9823 16.2562C11.5083 17.2718 10.8625 18.027 10.0448 18.527C9.22184 19.027 8.27913 19.277 7.21143 19.277ZM6.73226 17.5479C9.35726 17.5479 10.6698 15.8604 10.6698 12.4854C10.6698 10.7354 10.3208 9.45931 9.62809 8.65202C8.9458 7.83431 7.98226 7.42285 6.73226 7.42285C5.5083 7.42285 4.52913 7.83952 3.79476 8.67285C3.0708 9.50619 2.71143 10.777 2.71143 12.4854C2.71143 14.1937 3.0708 15.4645 3.79476 16.2979C4.52913 17.1312 5.5083 17.5479 6.73226 17.5479Z" fill="black"/>
</svg>
