<svg width="20" height="66" viewBox="0 0 20 66" fill="none" xmlns="http://www.w3.org/2000/svg">
<path d="M1.45931 41.5991L0.45931 0.724121H18.9593L17.9593 41.5991H1.45931ZM0.000976562 55.9325C0.000976562 53.2137 0.922851 50.9637 2.77181 49.1825C4.61556 47.3908 6.92806 46.495 9.70931 46.495C12.5426 46.495 14.8656 47.3908 16.6885 49.1825C18.5062 50.9637 19.4176 53.2137 19.4176 55.9325C19.4176 58.6564 18.5062 60.9116 16.6885 62.7033C14.8656 64.4793 12.5426 65.37 9.70931 65.37C6.92806 65.37 4.61556 64.4793 2.77181 62.7033C0.922851 60.9116 0.000976562 58.6564 0.000976562 55.9325Z" fill="#690061"/>
</svg>
