<svg width="22" height="24" viewBox="0 0 22 24" fill="none" xmlns="http://www.w3.org/2000/svg">
<path d="M11.4707 23.4159C9.16341 23.4159 7.2207 22.869 5.63737 21.77C4.06445 20.6607 2.89258 19.2075 2.11654 17.4159C1.35091 15.6242 0.970703 13.7284 0.970703 11.7284C0.970703 9.71796 1.35091 7.82212 2.11654 6.04087C2.89258 4.26483 4.07487 2.82733 5.6582 1.72837C7.25195 0.618999 9.20508 0.0617065 11.5124 0.0617065C14.5228 0.0617065 16.9342 1.07212 18.7415 3.08254C20.5436 5.09817 21.4499 7.994 21.4499 11.77V12.8117H4.63737V13.1034C4.63737 14.3534 4.91862 15.5357 5.49154 16.645C6.05924 17.7596 6.85612 18.6555 7.88737 19.3325C8.91341 20.0148 10.0957 20.3534 11.429 20.3534C12.8717 20.3534 14.1217 19.9888 15.179 19.2492C16.2311 18.5148 17.0176 17.5148 17.5332 16.2492H21.1582C20.5592 18.3065 19.4395 20.0148 17.804 21.3742C16.1634 22.7388 14.054 23.4159 11.4707 23.4159ZM17.8249 10.2075C17.7103 7.65546 17.0853 5.8065 15.9499 4.66587C14.8092 3.53046 13.3145 2.95754 11.4707 2.95754C9.45508 2.95754 7.85091 3.62421 6.6582 4.95754C5.46029 6.29087 4.82487 8.04087 4.74154 10.2075H17.8249Z" fill="black"/>
</svg>
