<svg width="84" height="75" viewBox="0 0 84 75" fill="none" xmlns="http://www.w3.org/2000/svg">
<path d="M42.651 3.00525C42.5989 3.00525 42.5468 3.00004 42.4895 2.99483C40.6562 2.65629 38.6614 2.46358 36.5677 2.41671C36.0677 2.40108 35.6666 1.98442 35.677 1.47921C35.6875 0.973999 36.0989 0.598999 36.6145 0.583374C38.7968 0.635457 40.8906 0.838582 42.8177 1.19275C43.3125 1.28129 43.6458 1.75525 43.552 2.25525C43.4687 2.69275 43.0885 3.00525 42.651 3.00525ZM24.4948 3.66671C24.0781 3.66671 23.6979 3.38025 23.6041 2.95837C23.4895 2.46358 23.7916 1.974 24.2812 1.85942C26.2656 1.40108 28.3281 1.05212 30.4114 0.838582C30.9114 0.791708 31.3593 1.15629 31.4166 1.65629C31.4687 2.1615 31.0989 2.60942 30.5989 2.6615C28.5937 2.86983 26.6041 3.19796 24.7031 3.64587C24.6302 3.65629 24.5625 3.66671 24.4948 3.66671ZM53.8541 7.61983C53.6875 7.61983 53.5208 7.57817 53.3698 7.47921C51.7343 6.45317 49.9687 5.51046 48.1041 4.68754C47.6406 4.48442 47.4375 3.94275 47.6406 3.47921C47.8437 3.01567 48.3802 2.80733 48.8437 3.01046C50.7864 3.87504 52.6354 4.85942 54.3385 5.93233C54.7656 6.19796 54.8958 6.76567 54.6302 7.19796C54.4531 7.46879 54.1614 7.61983 53.8541 7.61983ZM13.2864 8.30212C13 8.30212 12.7135 8.16671 12.5364 7.9115C12.25 7.49483 12.3489 6.92192 12.7656 6.63546C14.3541 5.5365 16.2291 4.55212 18.3333 3.70837C18.802 3.51567 19.3333 3.75004 19.5208 4.21358C19.7083 4.68754 19.4843 5.21879 19.0156 5.40629C17.0364 6.19796 15.2864 7.11983 13.8073 8.14067C13.651 8.25004 13.4687 8.30212 13.2864 8.30212ZM62.8333 15.7761C62.552 15.7761 62.276 15.6563 62.0937 15.4115C60.9427 13.8646 59.5989 12.4011 58.1041 11.0521C57.7291 10.7136 57.6979 10.1355 58.0416 9.76046C58.375 9.38546 58.9531 9.349 59.3333 9.69275C60.9114 11.1146 62.3385 12.6719 63.5625 14.3125C63.8645 14.724 63.7812 15.2917 63.375 15.599C63.2135 15.7188 63.0208 15.7761 62.8333 15.7761ZM5.60933 17.6302C5.46871 17.6302 5.32808 17.6042 5.19788 17.5313C4.74475 17.3021 4.56767 16.7552 4.79683 16.3021C5.76558 14.3855 6.90621 12.6094 8.18746 11.0209C8.49996 10.6198 9.07288 10.5573 9.46871 10.875C9.86454 11.1875 9.92704 11.7657 9.60933 12.1615C8.41142 13.6563 7.34371 15.3282 6.42704 17.1355C6.26558 17.4532 5.94267 17.6302 5.60933 17.6302ZM64.5312 26.0313C64.4114 26.0313 64.2864 26.0105 64.1718 25.9584C62.3698 25.1875 60.5208 24.8646 58.6614 24.9896C58.1718 25.0261 57.7187 24.6407 57.6875 24.1407C57.651 23.6355 58.0312 23.198 58.5312 23.1615C60.7031 23.0105 62.8229 23.3907 64.8906 24.2761C65.3541 24.474 65.5677 25.0157 65.3698 25.4792C65.2187 25.8282 64.8854 26.0313 64.5312 26.0313ZM67.8437 26.7969C67.427 26.7969 67.0468 26.5 66.9531 26.073C66.5364 24.1355 65.9114 22.2552 65.0989 20.4792C64.8958 20.0157 65.0937 19.474 65.552 19.2657C66.0156 19.0573 66.5573 19.2605 66.7656 19.7188C67.6302 21.6146 68.2916 23.6198 68.7395 25.6823C68.8489 26.1823 68.5364 26.6667 68.0416 26.7761C67.9739 26.7865 67.9114 26.7969 67.8437 26.7969ZM2.08329 29.2605C2.04683 29.2605 2.00517 29.2552 1.96871 29.2552C1.4635 29.1875 1.11454 28.7292 1.17704 28.2292C1.44788 26.1459 1.88537 24.0938 2.47913 22.1146C2.62496 21.6302 3.13537 21.3594 3.61975 21.5052C4.09892 21.6511 4.37496 22.1615 4.22913 22.6459C3.66663 24.5209 3.24996 26.4792 2.98954 28.4636C2.93225 28.9219 2.53642 29.2605 2.08329 29.2605ZM47.3593 29.375C47.0781 29.375 46.7968 29.2396 46.6145 28.9896C46.3229 28.5782 46.4166 28.0052 46.8281 27.7136C48.5208 26.5 50.3854 25.4844 52.3645 24.698C52.8333 24.5105 53.3645 24.7344 53.552 25.2084C53.7395 25.6771 53.5104 26.2084 53.0364 26.3959C51.1979 27.1302 49.4687 28.073 47.8906 29.2032C47.7343 29.323 47.5416 29.375 47.3593 29.375ZM73.6041 33.9636C73.3177 33.9636 73.0416 33.8334 72.8645 33.5834C71.6198 31.8646 70.3073 30.3698 68.9687 29.1459C68.5989 28.8073 68.5677 28.2292 68.9062 27.8542C69.25 27.4792 69.8281 27.4532 70.1979 27.7917C71.6354 29.1042 73.0312 30.6927 74.3437 32.5157C74.6406 32.9219 74.5468 33.5 74.1354 33.7917C73.9739 33.9115 73.7864 33.9636 73.6041 33.9636ZM68.1458 38.9323C68.0989 38.9323 68.052 38.9271 68.0052 38.9219C67.5052 38.8386 67.1666 38.375 67.2448 37.875C67.4948 36.2709 67.625 34.474 67.625 32.5261L67.6198 31.948C67.6093 31.4427 68.0104 31.0261 68.5156 31.0157C68.526 31.0157 68.526 31.0157 68.5364 31.0157C69.026 31.0157 69.4375 31.4167 69.4479 31.9115L69.4531 32.5209C69.4531 34.573 69.3177 36.4636 69.052 38.1615C68.9791 38.6094 68.5885 38.9323 68.1458 38.9323ZM40.3854 39.0469C40.3281 39.0469 40.2656 39.0417 40.2031 39.0261C39.7083 38.9271 39.3906 38.4427 39.4895 37.948C39.6614 37.1146 39.9323 36.2657 40.2916 35.4167C40.776 34.2813 41.4375 33.1667 42.2395 32.1042C42.5416 31.698 43.1198 31.625 43.5156 31.9271C43.9218 32.2344 44 32.8073 43.6927 33.2084C42.9791 34.1563 42.401 35.1407 41.9739 36.1355C41.6614 36.8698 41.427 37.599 41.2864 38.3125C41.1927 38.75 40.8125 39.0469 40.3854 39.0469ZM2.48954 41.4063C2.06767 41.4063 1.68225 41.1094 1.59371 40.6771C1.18746 38.6615 0.942667 36.573 0.874959 34.4636C0.859334 33.9584 1.25517 33.5365 1.76038 33.5209C2.25517 33.4896 2.68746 33.9011 2.70308 34.4063C2.76558 36.4115 2.99996 38.4011 3.38538 40.3073C3.48954 40.8073 3.17183 41.2917 2.67183 41.3907C2.61454 41.4011 2.55204 41.4063 2.48954 41.4063ZM79.302 44.7344C78.9375 44.7344 78.5885 44.5105 78.4479 44.1459C77.7135 42.2448 76.8854 40.4063 75.9739 38.6823C75.7448 38.2344 75.9166 37.6771 76.3645 37.4427C76.8125 37.2084 77.3645 37.3802 77.5989 37.8282C78.5364 39.6146 79.3906 41.5209 80.151 43.4896C80.3385 43.9584 80.1041 44.4896 79.6302 44.6719C79.5208 44.7136 79.4114 44.7344 79.302 44.7344ZM62.4791 49.3542C62.1927 49.3542 61.9114 49.2188 61.7343 48.9636C61.4375 48.5521 61.5416 47.9844 61.9531 47.6875C63.4479 46.6302 64.6614 45.1927 65.5573 43.4167C65.7864 42.9636 66.3333 42.7865 66.7864 43.0105C67.2343 43.2396 67.4218 43.7917 67.1927 44.2396C66.1562 46.2917 64.75 47.948 63.0052 49.1823C62.8489 49.2969 62.6614 49.3542 62.4791 49.3542ZM45.1875 49.4271C45.0156 49.4271 44.8437 49.375 44.6875 49.2761C42.7239 47.9948 41.1979 46.3386 40.2864 44.4792C40.0625 44.0261 40.2552 43.4792 40.7031 43.2552C41.1562 43.0313 41.7031 43.2188 41.927 43.6719C42.6979 45.2344 43.9948 46.6407 45.6875 47.7448C46.1093 48.0157 46.2291 48.5834 45.9531 49.0105C45.7812 49.2813 45.4843 49.4271 45.1875 49.4271ZM53.7448 51.9323C52.7187 51.9323 51.6823 51.8334 50.651 51.6407C50.1562 51.5469 49.8333 51.0677 49.9218 50.5677C50.0156 50.073 50.4895 49.7396 50.9895 49.8386C52.3645 50.099 53.7604 50.1719 55.1041 50.0313C55.6614 49.9792 56.1979 49.9011 56.7135 49.8073C57.2083 49.7136 57.6875 50.0365 57.7812 50.5365C57.875 51.0365 57.5416 51.5105 57.0468 51.6042C56.4895 51.7084 55.901 51.7969 55.2864 51.8542C54.776 51.9063 54.2604 51.9323 53.7448 51.9323ZM7.15621 52.599C6.86454 52.599 6.58329 52.4636 6.40621 52.2032C5.23433 50.5209 4.22913 48.6615 3.41142 46.6719C3.21871 46.2084 3.44267 45.6771 3.90621 45.4792C4.38017 45.2865 4.91142 45.5105 5.09892 45.9792C5.86975 47.8438 6.81246 49.5834 7.90621 51.1563C8.19267 51.573 8.09371 52.1459 7.67704 52.4323C7.52079 52.5469 7.3385 52.599 7.15621 52.599ZM82.3854 56.5313C81.9323 56.5313 81.5364 56.1927 81.4791 55.724C81.2552 53.9011 80.8645 51.9271 80.3125 49.8594C80.1823 49.375 80.4739 48.875 80.9583 48.7396C81.4531 48.6094 81.9479 48.9011 82.0833 49.3855C82.651 51.5365 83.0573 53.5886 83.2916 55.5052C83.3541 56.0052 83 56.4636 82.4948 56.5261C82.4583 56.5261 82.4218 56.5313 82.3854 56.5313ZM16.25 60.5261C16.1093 60.5261 15.9739 60.4948 15.8437 60.4323C13.9479 59.4844 12.1823 58.2969 10.5989 56.9115C10.2239 56.5834 10.177 56 10.5104 55.6198C10.8437 55.2396 11.4218 55.2032 11.802 55.5313C13.2708 56.8177 14.901 57.9167 16.6562 58.7917C17.1093 59.0157 17.2916 59.5677 17.0677 60.0209C16.9062 60.3386 16.5833 60.5261 16.25 60.5261ZM80.1614 68.2813C80.0052 68.2813 79.8385 68.2396 79.6927 68.1511C79.2604 67.8907 79.1198 67.3282 79.3802 66.8959C80.3698 65.2709 81.0729 63.4167 81.4323 61.5261C81.526 61.0313 82.0156 60.7084 82.5 60.7969C82.9948 60.8907 83.3281 61.3698 83.2291 61.8698C82.8333 63.9688 82.0468 66.0365 80.9531 67.8438C80.776 68.1302 80.4739 68.2813 80.1614 68.2813ZM70.7083 74.25C70.7083 74.25 70.7083 74.25 70.7031 74.25C70.1979 74.25 69.7864 73.8386 69.7864 73.3386C69.7864 72.8282 70.1979 72.4219 70.7031 72.4219C70.7083 72.4219 70.7083 72.4219 70.7083 72.4219C72.4166 72.4219 74.0312 71.9375 75.5208 70.9896C75.9427 70.7188 76.5052 70.849 76.7812 71.2709C77.052 71.698 76.927 72.2657 76.5 72.5365C74.7187 73.6719 72.7708 74.25 70.7083 74.25Z" fill="#EFEFEF"/>
</svg>
