<svg width="8" height="24" viewBox="0 0 8 24" fill="none" xmlns="http://www.w3.org/2000/svg">
<path d="M6.21362 23.9896C5.70842 23.9896 5.29696 23.5781 5.29696 23.0729C5.29696 18.875 4.20321 14.4167 2.98446 9.83333C2.76571 9.00521 2.40633 8.11458 2.03133 7.17188C1.32821 5.41667 0.604248 3.59896 0.604248 1.83854C0.604248 1.33333 1.01571 0.921875 1.52091 0.921875C2.02612 0.921875 2.43758 1.33333 2.43758 1.83854C2.43758 3.24479 3.09383 4.89583 3.72925 6.49479C4.10946 7.44271 4.50529 8.43229 4.75008 9.36458C6.00008 14.0625 7.12508 18.651 7.12508 23.0729C7.12508 23.5781 6.71883 23.9896 6.21362 23.9896Z" fill="#2E2020"/>
</svg>
