<svg width="132" height="114" viewBox="0 0 132 114" fill="none" xmlns="http://www.w3.org/2000/svg">
<path d="M103.005 4.47913C102.896 4.47913 102.776 4.4583 102.667 4.41663C100.823 3.67184 98.9115 3.06767 96.9896 2.60413C96.5053 2.48434 96.198 1.98955 96.3178 1.49997C96.4376 1.00517 96.9323 0.708298 97.4219 0.822882C99.4271 1.30726 101.417 1.94267 103.349 2.71872C103.818 2.90622 104.042 3.43746 103.854 3.90622C103.714 4.26559 103.37 4.47913 103.005 4.47913ZM113.537 10.5364C113.344 10.5364 113.151 10.4739 112.984 10.3489C111.401 9.12497 109.74 8.00517 108.031 7.0208C107.594 6.7708 107.443 6.2083 107.693 5.7708C107.943 5.3333 108.505 5.18226 108.943 5.43747C110.724 6.46351 112.458 7.62497 114.099 8.8958C114.5 9.2083 114.573 9.78122 114.266 10.1823C114.089 10.4166 113.818 10.5364 113.537 10.5364ZM122.078 19.1979C121.802 19.1979 121.531 19.0677 121.349 18.8333C120.151 17.2448 118.844 15.7239 117.448 14.3125C117.094 13.9479 117.099 13.3698 117.458 13.0156C117.813 12.6614 118.396 12.6614 118.75 13.0208C120.198 14.4948 121.563 16.0781 122.807 17.7291C123.115 18.1354 123.031 18.7083 122.63 19.0104C122.464 19.1354 122.271 19.1979 122.078 19.1979ZM128.005 29.8125C127.635 29.8125 127.292 29.5885 127.151 29.2291C126.443 27.3906 125.589 25.5781 124.609 23.8333C124.359 23.3906 124.521 22.8333 124.964 22.5833C125.401 22.3385 125.958 22.4948 126.208 22.9375C127.224 24.7552 128.115 26.651 128.859 28.5677C129.037 29.0364 128.807 29.5677 128.339 29.75C128.229 29.7916 128.115 29.8125 128.005 29.8125ZM130.609 41.6823C130.125 41.6823 129.719 41.302 129.693 40.8125C129.589 38.8698 129.318 36.8854 128.88 34.927C128.771 34.4323 129.083 33.9427 129.578 33.8333C130.068 33.7239 130.557 34.0364 130.667 34.5312C131.125 36.5885 131.412 38.6666 131.516 40.7135C131.547 41.2187 131.156 41.651 130.656 41.677C130.641 41.677 130.62 41.6823 130.609 41.6823ZM49.7865 50.5677C49.6615 50.5677 49.5313 50.5416 49.4115 50.4843C47.8698 49.7916 46.0625 49.4427 44.0365 49.4427H43.849C43.849 49.4427 43.849 49.4427 43.8438 49.4427C43.3438 49.4427 42.9375 49.0364 42.9323 48.5312C42.9271 48.026 43.3282 47.6146 43.8386 47.6093H44.0417C46.323 47.6093 48.3803 48.0156 50.1615 48.8177C50.6198 49.0208 50.823 49.5677 50.6198 50.0312C50.4688 50.3645 50.1355 50.5677 49.7865 50.5677ZM32.0678 52.302C31.7136 52.302 31.3803 52.0989 31.2292 51.75C31.0313 51.2864 31.2448 50.7448 31.7032 50.5468C33.7292 49.6823 35.7084 48.9948 37.599 48.5052C38.073 48.3802 38.5834 48.677 38.7136 49.1614C38.8334 49.6562 38.5417 50.151 38.0573 50.2812C36.2553 50.7448 34.3594 51.401 32.4271 52.2291C32.3125 52.2812 32.1875 52.302 32.0678 52.302ZM129.052 53.7135C128.958 53.7135 128.859 53.6979 128.771 53.6666C128.287 53.5104 128.026 52.9948 128.188 52.5104C128.797 50.651 129.234 48.7083 129.484 46.7395C129.547 46.2343 129.99 45.8802 130.505 45.9427C131.005 46.0104 131.359 46.4687 131.297 46.9687C131.031 49.0573 130.573 51.1093 129.922 53.0833C129.797 53.4687 129.438 53.7135 129.052 53.7135ZM64.4011 55.4062C64.2917 55.4062 64.1771 55.3854 64.0782 55.3437C62.0417 54.5677 60.1823 54.0573 58.3959 53.7916C57.9011 53.7187 57.5573 53.25 57.625 52.75C57.7032 52.25 58.1615 51.901 58.6719 51.9791C60.5834 52.2708 62.5678 52.8073 64.7292 53.6354C65.198 53.8125 65.4323 54.3437 65.2553 54.8125C65.1146 55.1823 64.7657 55.4062 64.4011 55.4062ZM47.0938 56.6927C46.8282 56.6927 46.5625 56.5781 46.3855 56.3541C46.0625 55.9583 46.125 55.3802 46.5157 55.0625C48.2448 53.6718 50.2292 52.6614 52.2657 52.1458C52.7448 52.0312 53.25 52.3177 53.375 52.8125C53.4948 53.302 53.198 53.802 52.7084 53.927C50.9271 54.375 49.1823 55.2604 47.6667 56.4895C47.5 56.625 47.2969 56.6927 47.0938 56.6927ZM21.6459 58.5573C21.3855 58.5573 21.125 58.4479 20.9428 58.2291C20.6198 57.8385 20.6771 57.2656 21.0625 56.9375C22.698 55.5885 24.4115 54.3854 26.1615 53.3489C26.5938 53.0885 27.1563 53.2343 27.4115 53.6718C27.6719 54.1093 27.5261 54.6718 27.0886 54.927C25.4271 55.9114 23.7917 57.0625 22.2292 58.3541C22.0573 58.4948 21.8542 58.5573 21.6459 58.5573ZM56.6823 60.151C56.2865 60.151 55.9219 59.8906 55.8073 59.4895C55.2188 57.4791 54.4167 55.625 53.4792 54.1406C53.2136 53.7135 53.3438 53.151 53.7709 52.8802C54.198 52.6093 54.7605 52.7396 55.0313 53.1666C56.0521 54.7916 56.9271 56.802 57.5625 58.9791C57.7032 59.4635 57.4271 59.9687 56.9428 60.1093C56.8594 60.1354 56.7657 60.151 56.6823 60.151ZM75.2292 60.9895C75.0626 60.9895 74.9063 60.9479 74.7553 60.8541C72.7865 59.6562 71.0678 58.6718 69.5105 57.8489C69.0625 57.6146 68.8907 57.0573 69.1303 56.6093C69.3594 56.1614 69.9167 55.9948 70.3646 56.2291C71.9584 57.0729 73.7032 58.0729 75.7032 59.2916C76.1355 59.5573 76.2709 60.1198 76.0105 60.552C75.8386 60.8333 75.5365 60.9895 75.2292 60.9895ZM123.125 64.2916C122.917 64.2916 122.703 64.2187 122.537 64.0781C122.146 63.75 122.099 63.177 122.427 62.7864C123.708 61.2552 124.849 59.6198 125.802 57.9218C126.047 57.4843 126.604 57.3281 127.047 57.5729C127.49 57.8229 127.641 58.3802 127.396 58.8229C126.38 60.6198 125.182 62.3489 123.823 63.9635C123.641 64.1823 123.38 64.2916 123.125 64.2916ZM42.3907 67.3281C41.9688 67.3281 41.5886 67.0364 41.5 66.6041C41.375 66.0208 41.3125 65.4218 41.3125 64.8125C41.3125 63.2604 41.7032 61.6666 42.4688 60.0885C42.6875 59.6354 43.2396 59.4427 43.6928 59.6666C44.1459 59.8854 44.3334 60.4323 44.1146 60.8906C43.4792 62.1979 43.1459 63.5573 43.1459 64.8177C43.1407 65.2968 43.1928 65.7656 43.2813 66.2239C43.3907 66.7187 43.073 67.2031 42.5834 67.3125C42.5157 67.3229 42.4532 67.3281 42.3907 67.3281ZM85.5678 67.4739C85.4063 67.4739 85.2396 67.4323 85.0938 67.3437C83.4271 66.3229 81.7553 65.2604 80.0782 64.1979L79.9115 64.0885C79.4844 63.8177 79.3542 63.25 79.6251 62.8229C79.9011 62.3958 80.4636 62.2708 80.8907 62.5416L81.0626 62.651C82.724 63.7083 84.3855 64.7656 86.0469 65.776C86.4792 66.0416 86.6146 66.6041 86.349 67.0364C86.1771 67.3177 85.8751 67.4739 85.5678 67.4739ZM13.3855 67.4948C13.2032 67.4948 13.0157 67.4375 12.8542 67.3229C12.4427 67.026 12.349 66.4583 12.6459 66.0468C13.875 64.3385 15.1927 62.7187 16.5573 61.2291C16.9011 60.8593 17.4792 60.8333 17.8542 61.177C18.224 61.5156 18.2448 62.0989 17.9063 62.4687C16.5886 63.901 15.3178 65.4687 14.1303 67.1198C13.948 67.3645 13.6667 67.4948 13.3855 67.4948ZM56.5521 72.0781C56.4063 72.0781 56.2448 72.0416 56.1042 71.9635C55.6615 71.7135 55.5157 71.151 55.7657 70.7135C56.4323 69.5416 56.7813 67.8593 56.7813 65.8541C56.7813 65.6614 56.7761 65.4687 56.7657 65.2708C56.7553 64.7708 57.1511 64.3437 57.6511 64.3281C58.1719 64.3125 58.5782 64.7031 58.599 65.2083C58.6094 65.427 58.6094 65.6406 58.6094 65.8541C58.6094 68.2083 58.1875 70.151 57.3542 71.6198C57.1875 71.9166 56.875 72.0781 56.5521 72.0781ZM113.896 72.1927C113.594 72.1927 113.297 72.0364 113.12 71.7604C112.849 71.3333 112.984 70.7656 113.412 70.5C115.135 69.4166 116.76 68.2395 118.229 66.9895C118.609 66.6614 119.188 66.7083 119.516 67.0937C119.844 67.4791 119.797 68.0573 119.406 68.3854C117.875 69.6927 116.182 70.9218 114.385 72.052C114.234 72.1458 114.063 72.1927 113.896 72.1927ZM96.3855 73.0833C96.2761 73.0833 96.1667 73.0625 96.0626 73.0208C94.3073 72.3489 92.4688 71.5 90.4271 70.4166C89.9792 70.177 89.8126 69.625 90.0469 69.177C90.2865 68.7291 90.8386 68.5573 91.2865 68.7968C93.2553 69.8437 95.0313 70.6666 96.7136 71.3125C97.1823 71.4895 97.4219 72.0208 97.2396 72.4948C97.099 72.8593 96.7553 73.0833 96.3855 73.0833ZM51.3907 74.4791C51.349 74.4791 51.3125 74.4791 51.2761 74.4739C50.1563 74.3333 48.9115 73.9635 47.5834 73.3698C46.7292 72.9843 45.9375 72.5468 45.25 72.0573C44.8438 71.7604 44.7396 71.1927 45.0365 70.776C45.3282 70.3645 45.8907 70.2656 46.3125 70.5573C46.9011 70.9791 47.5834 71.3593 48.3334 71.6979C49.4948 72.2135 50.5625 72.5364 51.5 72.6562C52.0053 72.7239 52.3542 73.177 52.2917 73.677C52.2344 74.1406 51.8438 74.4791 51.3907 74.4791ZM104.99 74.8802C104.063 74.8802 103.099 74.8073 102.125 74.6666C101.625 74.5937 101.276 74.1302 101.349 73.6302C101.422 73.1302 101.891 72.7864 102.385 72.8541C104.412 73.151 106.333 73.1041 108.125 72.7291C108.625 72.6302 109.104 72.9479 109.208 73.4375C109.307 73.9323 108.995 74.4166 108.5 74.5208C107.37 74.7604 106.193 74.8802 104.99 74.8802ZM7.32296 78.0677C7.19275 78.0677 7.06254 78.0416 6.94275 77.9843C6.47921 77.776 6.27608 77.2343 6.48962 76.776C7.34379 74.875 8.29171 73.0156 9.29692 71.2604C9.55212 70.8177 10.1042 70.6666 10.5469 70.9166C10.9844 71.1718 11.1302 71.7291 10.8855 72.1666C9.90629 73.8802 8.98963 75.6823 8.15108 77.5312C8.00004 77.8698 7.66671 78.0677 7.32296 78.0677ZM3.29692 89.5781C3.224 89.5781 3.14587 89.5677 3.07296 89.5521C2.58337 89.4271 2.2865 88.9271 2.4115 88.4375C2.92191 86.4375 3.52087 84.4427 4.19275 82.5156C4.36462 82.0416 4.88025 81.7864 5.35942 81.9583C5.83858 82.125 6.08858 82.6458 5.92192 83.125C5.26567 85 4.68233 86.9375 4.18233 88.8906C4.07817 89.3073 3.70317 89.5781 3.29692 89.5781ZM1.33337 101.615C1.31775 101.615 1.29171 101.615 1.27087 101.615C0.770874 101.578 0.385457 101.141 0.421915 100.635C0.562541 98.6146 0.807332 96.5468 1.14067 94.4896C1.22921 93.9896 1.69796 93.651 2.19796 93.7343C2.69275 93.8177 3.0365 94.2864 2.94796 94.7864C2.62504 96.7916 2.38546 98.7968 2.24483 100.766C2.20837 101.245 1.80733 101.615 1.33337 101.615ZM1.73442 113.792C1.2865 113.792 0.895874 113.464 0.833374 113.01C0.536499 111.021 0.354207 108.943 0.291707 106.828C0.276082 106.323 0.671916 105.901 1.17712 105.885C1.18754 105.885 1.19796 105.885 1.20317 105.885C1.69796 105.885 2.10421 106.276 2.11983 106.771C2.18233 108.818 2.35421 110.828 2.64067 112.74C2.71879 113.24 2.36462 113.708 1.86983 113.781C1.82817 113.792 1.77608 113.792 1.73442 113.792Z" fill="#EFEFEF"/>
</svg>
