<svg width="69" height="26" viewBox="0 0 69 26" fill="none" xmlns="http://www.w3.org/2000/svg">
<path d="M67.3646 25.9375C66.8958 25.9375 66.5 25.5833 66.4583 25.1094C65.375 13.9271 63.7708 5.33855 63.2552 2.75522C60.0052 3.06251 47.5938 4.14584 34.1354 4.35939C21.2344 4.55209 7.09375 3.94793 2.47396 3.72918C2.48958 3.75522 2.50521 3.78126 2.51042 3.8073C2.73437 4.26564 2.54167 4.81251 2.08333 5.03126C1.63021 5.25001 1.08333 5.0573 0.864582 4.60939C0.416665 3.67709 0.156249 3.14584 0.156249 3.14064C0.0156237 2.84897 0.0312501 2.50001 0.213541 2.22918C0.395833 1.95834 0.708333 1.8073 1.02604 1.82293C1.19792 1.82813 18.5781 2.76043 34.1042 2.52605C49.6354 2.28126 63.7552 0.869802 63.901 0.848968C64.349 0.796884 64.7865 1.11459 64.8854 1.57293C64.901 1.67188 66.974 11.4375 68.276 24.9323C68.3281 25.4375 67.9583 25.8854 67.4531 25.9323C67.4271 25.9375 67.3958 25.9375 67.3646 25.9375Z" fill="#2E2020"/>
</svg>
