<svg width="13" height="24" viewBox="0 0 13 24" fill="none" xmlns="http://www.w3.org/2000/svg">
<path d="M2.34374 23.5365C2.0104 23.5365 1.68749 23.3542 1.52603 23.0313C-1.13022 17.7083 2.89061 10.1927 6.05207 6.70834C6.64061 6.06251 7.36978 5.45313 8.0729 4.8698C9.35936 3.80209 10.6823 2.69792 11.1198 1.39063C11.2812 0.911466 11.7969 0.656258 12.2812 0.817716C12.7552 0.973966 13.0156 1.48959 12.8542 1.97397C12.2552 3.77605 10.7239 5.04688 9.24478 6.28126C8.55728 6.84897 7.90624 7.39063 7.40624 7.93751C4.35936 11.2969 1.03124 17.9427 3.16145 22.2136C3.39061 22.6667 3.20832 23.2136 2.74999 23.4427C2.61978 23.5104 2.48436 23.5365 2.34374 23.5365Z" fill="#2E2020"/>
</svg>
