<svg width="23" height="28" viewBox="0 0 23 28" fill="none" xmlns="http://www.w3.org/2000/svg">
<path d="M1.00003 27.0104C0.614612 27.0104 0.255237 26.7552 0.130237 26.3697C-0.0260128 25.8906 0.239612 25.375 0.723987 25.2187C1.58857 24.9427 2.70315 24.651 4.00003 24.3125C10.1563 22.6927 20.4636 19.9843 20.8698 14.2552C21.0157 12.2291 20.6771 3.35933 19.8282 2.0885C19.5469 1.66141 19.6615 1.0937 20.0782 0.812455C20.4948 0.536413 21.0677 0.645788 21.349 1.06766C22.7344 3.14579 22.7761 13.2552 22.6979 14.3906C22.1927 21.4218 11.0938 24.3385 4.46357 26.0781C3.19274 26.4114 2.09899 26.6979 1.28128 26.9635C1.18753 26.9895 1.09378 27.0104 1.00003 27.0104Z" fill="#2E2020"/>
</svg>
