<svg width="11" height="10" viewBox="0 0 11 10" fill="none" xmlns="http://www.w3.org/2000/svg">
<path fill-rule="evenodd" clip-rule="evenodd" d="M9.35949 0.0625071C9.35949 0.0625071 9.19282 0.0468821 9.2397 0.359382C9.28657 0.671882 9.81782 0.453132 10.073 0.781257C10.3282 1.11459 9.45324 1.33855 9.45324 1.33855C8.70324 1.72397 8.3022 2.46355 7.67199 2.95313C7.26053 3.27084 6.77095 3.29167 6.34386 3.52084C6.00532 3.70834 5.75011 4.14584 5.4324 4.37501C4.96365 4.70834 4.75532 4.05209 4.32303 4.54688C3.53657 5.45313 3.19803 6.65626 2.45324 7.54688C1.96886 8.13022 1.48449 8.69792 0.953237 9.23959C0.734487 9.46876 0.380321 9.35938 0.302196 9.71876C0.302196 9.71876 0.13032 9.53647 0.281362 9.14063C0.703237 8.06251 1.95845 5.75522 3.65636 3.94272C4.87511 2.64584 6.18761 1.68751 7.40636 0.968757C8.50532 0.322925 9.35949 0.0625071 9.35949 0.0625071Z" fill="#9BBD71"/>
</svg>
