<svg width="13" height="12" viewBox="0 0 13 12" fill="none" xmlns="http://www.w3.org/2000/svg">
<path d="M1.30216 11.6354C1.05737 11.6354 0.812576 11.5312 0.640701 11.3489C0.364659 11.052 0.166743 10.4947 0.427159 9.80724C0.880284 8.64578 2.2032 6.21869 3.98966 4.31765C5.12508 3.10932 6.41674 2.08328 7.94278 1.17703C9.12508 0.48432 10.0626 0.197862 10.099 0.187445L10.1042 0.192653C10.224 0.161404 10.3542 0.145778 10.4636 0.161403C10.8282 0.197862 11.1303 0.45307 11.2345 0.791612C11.4272 0.874945 11.6251 1.00515 11.797 1.2239C12.0313 1.5312 12.0938 1.9062 11.974 2.25515C11.7917 2.7864 11.2553 3.05724 10.797 3.18745C10.5313 3.3489 10.3074 3.5989 10.047 3.88536C9.81258 4.14057 9.55216 4.42703 9.22924 4.68224C8.85945 4.95828 8.48445 5.08328 8.17716 5.17703C8.04695 5.2187 7.91153 5.25515 7.78133 5.32286C7.72924 5.35932 7.60424 5.49995 7.52091 5.59369C7.36466 5.76557 7.18758 5.95828 6.96362 6.12494C6.52612 6.42703 6.12508 6.41661 5.84903 6.35411C5.58862 6.70307 5.37508 7.10932 5.15112 7.5364C4.86987 8.07286 4.5782 8.62495 4.15633 9.13015C3.69278 9.69265 3.18237 10.2916 2.60945 10.8802C2.42195 11.0729 2.21882 11.1718 2.05737 11.2291C1.94278 11.4062 1.7657 11.5364 1.55737 11.5989C1.47403 11.6197 1.3907 11.6354 1.30216 11.6354Z" fill="#2E2020"/>
</svg>
