<svg width="89" height="69" viewBox="0 0 89 69" fill="none" xmlns="http://www.w3.org/2000/svg">
<path d="M88.8335 44.1615C88.8335 44.1615 74.0992 66.1563 40.146 68.9375C32.245 52.9167 49.5366 40.3177 43.5575 30.7083C37.5835 21.099 27.5419 29.6406 27.5419 29.6406L31.1721 35.8334C27.7137 36.5156 24.6721 36.3959 22.0002 35.7604L9.76581 44.724C9.9429 44.6354 10.1408 44.5886 10.3544 44.5886C11.12 44.5886 11.7398 45.2084 11.7398 45.974C11.7398 46.7448 11.12 47.3646 10.3544 47.3646C9.58873 47.3646 8.96373 46.7448 8.96373 45.974C8.96373 45.6094 9.10956 45.2813 9.33873 45.0365L7.19811 46.6042L11.1096 51.5677C11.4429 51.9896 11.37 52.599 10.9533 52.9323C10.771 53.0729 10.5627 53.1406 10.3544 53.1406C10.0679 53.1406 9.78144 53.0209 9.58873 52.7761L0.406439 41.1354C0.0731061 40.7188 0.146023 40.1094 0.562689 39.7761C0.984564 39.4427 1.59394 39.5156 1.92727 39.9323L5.99498 45.0834L19.6929 35.0469C9.12519 31.0104 5.33352 18.5365 5.33352 18.5365C10.0314 4.22918 34.3752 -5.80728 50.8231 4.01564C67.2658 13.8386 88.8335 44.1615 88.8335 44.1615ZM20.8439 55.1615C20.3179 55.0886 19.8283 55.4531 19.7502 55.9844C19.2346 59.724 16.4533 60.1563 16.3231 60.1771C15.7919 60.2396 15.4169 60.7188 15.4794 61.25C15.5366 61.7448 15.9585 62.1094 16.4429 62.1094C16.4794 62.1094 16.5158 62.1094 16.5575 62.1042C18.0679 61.9219 21.0835 60.474 21.6773 56.2552C21.745 55.724 21.3752 55.2344 20.8439 55.1615ZM4.65123 40.4531C4.82311 40.5834 5.03144 40.6459 5.22936 40.6459C5.52102 40.6459 5.81269 40.5156 6.0054 40.2656C6.07832 40.1719 7.82831 37.9531 11.3544 39.0104C11.87 39.1667 12.4116 38.875 12.5679 38.3594C12.7189 37.8438 12.4325 37.3073 11.9169 37.1511C7.04706 35.6927 4.55227 38.9636 4.44811 39.1042C4.1356 39.5313 4.22415 40.1354 4.65123 40.4531Z" fill="#690061"/>
</svg>
