<svg width="45" height="201" viewBox="0 0 45 201" fill="none" xmlns="http://www.w3.org/2000/svg">
<path d="M41.5416 168.714C37.7656 162.224 30.7708 157.266 23.2187 156.5C24.0677 151.625 23.7708 144.547 23.7708 143.234C23.9844 119.365 23.9844 95.4948 23.8541 71.5834C23.7708 58.0625 23.7291 44.5781 23.5989 31.0573C23.5156 21.1354 23.7708 11.0886 22.8802 1.20835C22.7552 -0.0208196 20.7187 -0.572904 20.5052 0.869805C19.7396 6.29689 19.4844 11.849 19.3177 17.3646C18.9375 17.3177 18.4687 17.4479 18.4271 17.8698C17.0677 27.1563 17.75 37.0313 17.5781 46.4427C17.4062 56.3646 17.2396 66.3281 17.1562 76.25C17.026 85.9584 16.901 95.625 16.8125 105.333C16.7708 110.417 16.7708 115.505 16.7291 120.594C16.6875 124.365 15.4166 130.302 17.8333 133.438L17.875 133.484C17.875 133.99 17.875 134.5 17.875 135.01C17.8333 139.714 17.7916 144.464 17.7031 149.167C17.6614 150.865 17.2396 154.042 17.5364 156.714C9.77602 158.453 3.41143 165.234 1.03643 172.698C-1.84898 181.813 2.35414 191.349 9.98435 196.609C13.9323 199.323 18.8489 200.719 23.6458 200.214C26.1875 199.917 28.6458 199.151 30.7708 197.708C32.6354 196.438 34.0781 194.573 35.4323 192.708C36.026 193.005 36.75 193.089 37.4687 192.922C39.9323 192.286 41.9219 189.911 43.151 187.833C44.3854 185.755 44.8073 183.167 44.8906 180.75C44.9791 176.599 43.6614 172.318 41.5416 168.714ZM16.6875 164.938C16.8125 164.896 16.901 164.813 17.026 164.771C17.3646 164.682 17.7031 164.516 18.0469 164.432C18.4687 164.302 18.8906 164.219 19.3177 164.135C20.0364 165.109 20.8021 166.042 21.5625 166.974C23.4323 169.349 25.2969 171.766 27.1198 174.182C29.75 177.698 32.2083 181.302 34.6302 184.948C34.6302 185.036 34.5885 185.12 34.5885 185.203C34.5 185.672 34.375 186.135 34.2916 186.563C34.1614 187.198 33.9896 187.833 33.8646 188.469C31.1094 184.016 27.7552 179.818 24.4062 175.875C22.4583 173.589 20.375 171.339 18.2552 169.219C17.1562 168.12 16.0104 167.099 14.8646 166.083C15.4166 165.661 16.0521 165.234 16.6875 164.938ZM35.3073 177.401C35.3073 177.448 35.3073 177.448 35.3073 177.49C35.2656 177.193 35.2656 176.896 35.3073 177.401ZM25.7239 164.813C25.8073 164.854 25.9323 164.896 26.0208 164.938C26.0625 164.938 26.0625 164.938 26.0625 164.979C26.401 165.193 26.8229 165.365 27.2083 165.62C27.5469 165.828 27.8854 166.042 28.1823 166.255C28.3073 166.339 28.6458 166.594 28.8177 166.719C29.3281 167.146 29.8333 167.568 30.3021 168.036C30.8541 168.583 31.3646 169.177 31.8698 169.771C31.8281 169.688 31.7864 169.688 31.7448 169.604C31.7864 169.688 31.8698 169.771 31.9114 169.859C32 169.943 32.0416 170.068 32.0833 170.109C32.3385 170.453 32.5521 170.792 32.8021 171.172C33.3125 171.979 33.7396 172.781 34.1614 173.63C34.2031 173.755 34.2448 173.844 34.3333 173.969C34.3333 174.01 34.3333 174.01 34.375 174.052C34.5 174.479 34.6719 174.859 34.7969 175.281C34.9271 175.75 35.0521 176.219 35.1823 176.682C35.2239 176.896 35.2656 177.698 35.3906 177.911C35.3906 178.042 35.4323 178.167 35.4323 178.292C35.4791 178.677 35.4791 179.057 35.4791 179.438C33.6927 176.938 31.8698 174.438 30.0052 171.979C28.1823 169.604 26.3177 167.313 24.3229 165.068C24.0677 164.771 23.8125 164.516 23.5989 164.26C23.6458 164.26 23.6875 164.26 23.7291 164.302C24.3646 164.344 25.0416 164.557 25.7239 164.813ZM15.6719 192.031C14.9896 191.646 14.3125 191.182 13.6771 190.714C13.5052 190.547 13.2968 190.417 13.125 190.25C12.7448 189.953 12.4062 189.615 12.0625 189.276C11.8125 189.021 11.5156 188.724 11.2604 188.427C11.0885 188.255 10.9635 188.047 10.7916 187.875C10.75 187.833 10.7083 187.75 10.6666 187.703C10.5364 187.536 10.1979 187.026 10.0729 186.901C9.81768 186.521 9.56247 186.094 9.30727 185.672C9.09372 185.333 8.92706 184.99 8.75518 184.651C8.67185 184.443 8.54164 184.229 8.45831 184.016C8.45831 183.974 8.45831 183.974 8.41664 183.932C8.11977 183.125 7.86456 182.281 7.69789 181.432C7.65102 181.26 7.60935 181.047 7.56768 180.88C7.56768 180.839 7.56768 180.839 7.56768 180.797C7.52602 180.37 7.48435 179.948 7.48435 179.521C7.48435 179.396 7.48435 179.313 7.48435 179.182C8.49998 180.625 9.47914 182.109 10.5364 183.51C12.8281 186.646 15.0781 189.74 17.3646 192.875C17.3646 192.875 17.3646 192.875 17.3229 192.875C17.1562 192.792 16.9427 192.708 16.9427 192.708C16.5156 192.495 16.0937 192.286 15.6719 192.031ZM22.1614 194.276C22.1146 194.276 22.1146 194.276 22.0729 194.276C22.0312 194.276 21.9479 194.234 21.9062 194.234C19.1458 190.547 16.3489 186.859 13.5937 183.167C12.0625 181.177 10.5781 179.141 9.01039 177.193C8.67185 176.766 8.29164 176.302 7.94789 175.875C8.03643 175.495 8.0781 175.115 8.2031 174.734C8.33331 174.396 8.45831 174.01 8.58852 173.672C8.63018 173.547 8.71352 173.375 8.75518 173.292C8.92706 172.995 9.05206 172.656 9.22393 172.359C9.22393 172.318 9.2656 172.276 9.30727 172.276C9.90102 172.995 10.5364 173.672 11.0885 174.396C13.0416 176.854 14.9062 179.396 16.7291 181.938C18.4271 184.401 20.125 186.859 21.7344 189.359C22.7552 190.969 23.6875 192.667 24.7031 194.318C24.6614 194.318 24.6614 194.318 24.6198 194.318C23.7708 194.406 22.9635 194.359 22.1614 194.276ZM29.5833 193.557C28.9896 193.724 28.5208 193.813 27.9687 193.938C26.9114 191.943 25.5104 190.036 24.2812 188.172C22.5416 185.542 20.7187 182.917 18.8073 180.411C16.9844 178.042 15.1198 175.667 13.1666 173.375C12.3177 172.359 11.4271 171.297 10.5364 170.24C10.6666 170.068 10.75 169.901 10.875 169.729C10.5781 170.156 11.3854 169.135 11.5156 168.969C11.8958 168.542 12.276 168.12 12.6562 167.74C12.7031 167.693 12.7864 167.651 12.8281 167.568C13.8437 168.625 14.8646 169.688 15.8802 170.745C18 172.911 20.0364 175.156 21.9479 177.49C25.7656 182.068 28.9896 186.943 32.2552 191.901C32.2969 192.115 32.3802 192.286 32.5052 192.453C31.6614 192.922 30.6823 193.26 29.5833 193.557Z" fill="#0A141E"/>
</svg>
