<svg width="52" height="139" viewBox="0 0 52 139" fill="none" xmlns="http://www.w3.org/2000/svg">
<path d="M8.83863 138.411C5.86468 138.411 3.16676 136.901 1.61988 134.37C0.437591 132.448 0.0730088 130.177 0.609466 127.979C1.13551 125.781 2.48447 123.922 4.41676 122.734C23.1616 111.245 34.3543 91.2708 34.3543 69.3124C34.3543 47.4531 23.2345 27.526 4.60947 16.0051C0.640717 13.552 -0.593658 8.32806 1.85947 4.36452C4.30738 0.406187 9.53134 -0.838605 13.5001 1.61452C19.2761 5.18223 24.5626 9.44265 29.2136 14.276C29.8595 14.9531 29.8438 16.026 29.1668 16.6718C28.4949 17.3229 27.4272 17.2968 26.7761 16.6249C22.3178 11.9895 17.2553 7.90619 11.7293 4.49473C9.34384 3.02077 6.20842 3.76556 4.73967 6.14056C4.02613 7.2916 3.80738 8.65098 4.11467 9.9739C4.42717 11.2968 5.23447 12.4166 6.38551 13.1301C26.0157 25.2656 37.7345 46.2656 37.7345 69.3124C37.7345 92.4635 25.9376 113.51 6.17197 125.625C5.01572 126.333 4.20842 127.448 3.89072 128.771C3.57301 130.088 3.78655 131.448 4.50009 132.604C5.91155 134.922 9.15634 135.698 11.4793 134.281C34.2813 120.307 47.8907 96.0208 47.8907 69.3124C47.8907 63.2968 47.1928 57.302 45.8178 51.5104C45.6043 50.5989 46.1668 49.6874 47.073 49.4739C47.9897 49.2447 48.9011 49.8176 49.1147 50.7291C50.547 56.7708 51.2761 63.026 51.2761 69.3072C51.2761 97.2031 37.0626 122.568 13.2553 137.161C11.922 137.979 10.3959 138.411 8.83863 138.411Z" fill="#472B29"/>
</svg>
