<svg width="13" height="16" viewBox="0 0 13 16" fill="none" xmlns="http://www.w3.org/2000/svg">
<path d="M3.83339 6.51561C4.22922 7.29686 4.69797 8.07811 5.23443 8.7604C6.00006 9.74478 6.88547 10.6562 7.82297 11.4323C7.81776 11.2969 7.80735 11.0989 7.7761 11.0469C7.74485 11 7.65631 10.9271 7.57297 10.8594C7.3386 10.6614 6.98964 10.375 6.82818 9.86978C6.67193 9.40103 6.63547 8.9479 6.59902 8.55207C6.54172 7.91665 6.49485 7.54165 6.19277 7.21353C6.0261 7.03645 5.66152 6.97915 5.23964 6.91665C4.81256 6.84894 4.30214 6.77082 3.83339 6.51561ZM11.6042 15.5312C11.5053 15.5312 11.4063 15.5208 11.3178 15.4896C11.2553 15.4687 9.89589 15.0104 8.53131 14.1823V14.1771C6.81256 13.1354 5.13027 11.6094 3.79172 9.8854C2.23964 7.89582 1.08339 5.08853 0.666724 3.32811C0.349016 1.97915 0.656307 1.35936 0.869849 1.10936C1.13547 0.796861 1.57818 0.703112 1.95318 0.874986C2.32297 1.04686 2.53652 1.4479 2.46881 1.85415C2.43756 2.03644 2.88547 2.39061 3.18235 2.63019C3.35943 2.77603 3.53131 2.91145 3.67193 3.04686C4.08339 3.44269 4.26568 3.9479 4.41152 4.35415C4.47402 4.52603 4.56256 4.79165 4.63027 4.85936C4.79693 4.99478 5.1511 5.05207 5.52089 5.10415C6.1511 5.20311 6.93235 5.3229 7.53652 5.97394C8.2761 6.77082 8.35422 7.66665 8.41672 8.3854C8.44797 8.71874 8.47922 9.03124 8.56256 9.29686C8.57818 9.31249 8.67193 9.39582 8.73964 9.45311C8.90631 9.58853 9.11464 9.7604 9.29172 10.0312C9.61464 10.5052 9.63547 11.0104 9.6511 11.3802C9.65631 11.5156 9.66672 11.7187 9.69277 11.7708C10.2761 12.4531 11.073 13.1406 12.1198 13.8646C12.4948 14.1198 12.6251 14.6146 12.4219 15.026C12.2605 15.3437 11.9376 15.5312 11.6042 15.5312Z" fill="#2E2020"/>
</svg>
