<svg width="14" height="14" viewBox="0 0 14 14" fill="none" xmlns="http://www.w3.org/2000/svg">
<path d="M5.84903 13.5938C4.04695 13.5938 2.09903 12.3438 0.968823 10.2657C0.265699 8.974 -0.0363851 7.55213 0.130282 6.25525C0.307366 4.849 1.00007 3.74484 2.0782 3.15629C2.35424 3.00525 2.7657 2.89588 3.53653 2.69796C6.00528 2.06775 7.29174 1.50525 7.36466 1.03129C7.43757 0.531294 7.90632 0.177127 8.40112 0.260461C8.90112 0.333378 9.24487 0.802127 9.17195 1.30213C8.88549 3.21879 6.05216 3.94275 3.98966 4.474C3.58341 4.57817 3.07299 4.70838 2.94278 4.77088C2.40632 5.06254 2.04695 5.67713 1.94278 6.48442C1.8282 7.40109 2.04695 8.43234 2.57299 9.38546C3.5782 11.2292 5.4532 12.224 6.66674 11.5625C6.78653 11.474 7.18237 11.0261 7.46882 10.6928C8.79695 9.16671 10.8074 6.85942 13.0053 7.81775C13.4688 8.02088 13.6772 8.55734 13.4792 9.02088C13.2761 9.48963 12.7397 9.69275 12.2761 9.50004C11.3022 9.07296 9.70841 10.9115 8.84903 11.8959C8.29174 12.5365 7.92716 12.9584 7.53653 13.1667C7.0157 13.4532 6.44278 13.5938 5.84903 13.5938Z" fill="#2E2020"/>
</svg>
