<svg width="196" height="214" viewBox="0 0 196 214" fill="none" xmlns="http://www.w3.org/2000/svg">
<path d="M108.339 128.771C98.9533 134.547 85.2293 142.729 85.2293 142.729C85.2293 142.729 52.0158 189.661 35.4064 206.75C18.8022 223.839 -2.61966 205.792 0.989719 190.385C4.59909 174.984 11.8231 149.714 11.8231 149.714L33.4793 155.734C33.4793 155.734 58.9949 134.792 62.1251 132.385C65.2553 129.974 66.6981 128.771 68.6251 125.885C70.5522 123 75.1199 114.818 76.8074 112.646C78.4897 110.479 79.6928 109.031 83.3022 109.031C86.9116 109.031 96.5418 108.792 101.349 109.276C106.167 109.755 107.125 113.615 107.125 113.615C110.49 113.37 109.776 117.224 109.776 117.224C113.141 116.979 110.979 121.313 110.979 121.313C110.979 121.313 117.719 123 108.339 128.771ZM47.6199 39.4792C46.9324 33.7604 50.2345 30.2188 52.7501 28.3854L53.9428 27.7396L56.4741 32.25C56.4741 32.25 59.5418 27.5573 61.7085 22.3229C63.8699 17.0938 65.6772 6.07294 65.6772 6.07294C65.6772 6.07294 77.2241 8.2396 88.0574 6.26044C98.8908 4.27085 96.9012 1.02606 96.9012 1.02606C96.9012 1.02606 96.7345 0.744812 96.396 0.291687C102.37 5.09898 105.458 12.3281 106.182 18.2709C106.146 18.2344 106.11 18.1927 106.068 18.1667C102.25 15.8698 98.4689 17.1511 98.3126 17.2031C97.9845 17.3177 97.8074 17.6823 97.922 18.0156C98.0366 18.349 98.4012 18.5209 98.7345 18.4063C98.7658 18.4011 102.125 17.2761 105.412 19.2552C105.521 19.3177 105.63 19.3438 105.735 19.3438C105.948 19.3438 106.136 19.2344 106.261 19.0521C106.271 19.1146 106.276 19.1823 106.276 19.2448C107.177 30.6198 105.552 41.4427 103.75 48.849C101.943 56.2448 91.4741 60.0417 91.4741 60.0417L94.3647 72.4948L90.9376 88.9219L86.5991 80.0729L69.8074 74.6563L70.3699 60.4219C70.3699 60.4219 63.8699 52.6615 58.9949 47.9688C58.9949 47.9688 48.7033 48.5104 47.6199 39.4792ZM70.4376 21.1459C70.5574 21.2865 70.7345 21.349 70.9064 21.349C71.0678 21.349 71.2137 21.2969 71.3335 21.1823C71.3803 21.1406 75.8126 17.1354 81.5262 19.1511C81.8543 19.2656 82.2189 19.0886 82.3335 18.7552C82.4481 18.4271 82.2762 18.0573 81.9428 17.9479C75.5158 15.6771 70.672 20.0573 70.4741 20.25C70.2189 20.4844 70.2033 20.8854 70.4376 21.1459ZM194.25 137.677C192.802 132.625 189.917 125.641 189.203 123.724C187.865 120.161 183.906 120.589 179.333 121.313C174.766 122.036 163.453 123.724 161.292 124.203C159.125 124.682 159.125 128.771 162.74 128.536C166.349 128.292 178.141 127.813 178.141 127.813C178.141 127.813 168.276 135.271 166.104 137.443C163.943 139.604 163.943 141.776 167.063 143.938C170.193 146.104 177.896 149.714 177.896 149.714L164 181.995C162.953 184.438 160.495 185.964 157.844 185.823L157.688 185.818C157.688 185.818 162.74 197.365 164.427 209.88C184.886 168.964 191.146 157.417 193.787 151.396C196.422 145.38 195.698 142.734 194.25 137.677Z" fill="#FF9A8B"/>
</svg>
