<svg width="14" height="14" viewBox="0 0 14 14" fill="none" xmlns="http://www.w3.org/2000/svg">
<path d="M5.81242 13.3125C5.71347 13.3125 5.60409 13.2917 5.50513 13.2552C5.03117 13.0886 4.78117 12.5625 4.94784 12.0886C5.26555 11.2032 3.6093 10.1823 2.51555 9.51046C1.77076 9.05212 1.2343 8.724 0.958257 8.29692C-0.343826 6.26567 0.744715 3.22921 3.39055 1.52608C6.03117 -0.171834 9.24472 0.0989992 10.552 2.13025C10.7239 2.4115 10.8645 2.84379 11.1145 3.64067C11.8853 6.11462 12.5103 7.39067 12.9739 7.42192C13.4791 7.46358 13.8541 7.90108 13.8124 8.40629C13.7708 8.9115 13.3176 9.28129 12.828 9.25004C10.901 9.09379 10.0103 6.26046 9.36972 4.18233C9.2343 3.76567 9.07284 3.23962 8.99992 3.10942C8.26555 1.96358 6.14055 1.93754 4.37492 3.06775C2.61451 4.20317 1.75513 6.14587 2.49992 7.30733C2.58847 7.4115 3.10409 7.724 3.46867 7.94796C4.96867 8.86983 7.4843 10.4115 6.6718 12.698C6.53638 13.073 6.18742 13.3125 5.81242 13.3125Z" fill="#2E2020"/>
</svg>
