<svg width="11" height="6" viewBox="0 0 11 6" fill="none" xmlns="http://www.w3.org/2000/svg">
<path d="M2.8489 3.72399C4.06764 3.72399 6.4114 3.32295 7.71869 2.90107C6.9114 2.57816 6.0364 2.79691 4.61973 3.19795C4.24473 3.31253 3.84369 3.42191 3.4166 3.53128C3.24994 3.57295 3.04681 3.64586 2.8489 3.72399ZM3.05202 5.49482C2.10931 5.49482 1.28119 5.34378 0.86452 4.92711C0.463478 4.52607 0.312437 4.01045 0.453062 3.51566C0.760353 2.39066 2.46348 1.88024 2.9739 1.75524C3.38014 1.65107 3.76035 1.5417 4.11452 1.43753C6.06764 0.880239 7.90619 0.354197 9.86452 2.15628C10.1718 2.44274 10.302 2.84899 10.2031 3.23961C10.0468 3.90628 9.37494 4.33336 7.81244 4.77607C7.77598 4.78649 5.13015 5.49482 3.05202 5.49482Z" fill="#2E2020"/>
</svg>
