<svg width="53" height="13" viewBox="0 0 53 13" fill="none" xmlns="http://www.w3.org/2000/svg">
<path d="M38.4219 12.8698C33.9376 12.8698 31.073 9.61462 29.1303 7.41149C28.5365 6.73962 27.6719 5.75524 27.198 5.45316C26.849 5.70837 26.2449 6.42191 25.7917 6.96357C23.8282 9.29691 20.5365 13.198 13.6719 12.823C13.5105 12.8177 13.3542 12.8073 13.2084 12.8021C9.79694 12.6302 8.9011 12.2188 1.23965 7.30732C0.0521443 6.54691 -0.296812 4.96357 0.463604 3.77087C1.22402 2.58337 2.80214 2.23441 3.98965 2.99482C11.1251 7.57295 11.349 7.58337 13.4636 7.69274C13.6146 7.69795 13.7761 7.70316 13.948 7.71357C18.2761 7.95316 20.1146 5.76566 21.8959 3.65628C23.2917 2.00524 24.8699 0.13024 27.4584 0.286491C29.7865 0.427115 31.4011 2.25524 32.9584 4.02087C35.0626 6.4167 36.6146 7.96357 38.8959 7.72399C39.5782 7.65107 40.1251 7.64587 40.5574 7.63545C41.8438 7.60941 42.7709 7.59378 48.5521 4.68232C49.8126 4.04691 51.3438 4.55732 51.9792 5.81774C52.6094 7.08337 52.1042 8.61983 50.8438 9.25524C44.3386 12.5313 42.8074 12.7136 40.6511 12.75C40.2605 12.7604 39.8959 12.7657 39.4271 12.8177C39.0834 12.8542 38.7449 12.8698 38.4219 12.8698Z" fill="#E07769"/>
</svg>
