<svg width="11" height="11" viewBox="0 0 11 11" fill="none" xmlns="http://www.w3.org/2000/svg">
<path d="M8.5729 2.17187C8.52082 2.21875 8.29686 2.51562 8.11457 2.75521C7.79165 3.17708 7.39582 3.70312 6.78124 4.27604C6.05207 4.95312 5.39061 5.72396 4.77603 6.45312C4.41665 6.88021 4.06769 7.31771 3.72394 7.75C5.92186 6.28125 9.05207 3.44271 9.09374 2.41146C8.71353 2.17708 8.5729 2.17708 8.5729 2.17187ZM1.94269 10.4792C1.3229 10.4792 1.02603 10.1042 0.921861 9.92708C0.468736 9.17187 1.00519 8.23437 2.00519 6.96875L2.14582 6.79687C2.55207 6.28125 2.95311 5.77083 3.38019 5.27083C4.03124 4.5 4.73436 3.68229 5.53644 2.93229C6.03644 2.46875 6.36457 2.03125 6.66144 1.64583C7.32811 0.760413 8.15624 -0.333336 10.1042 0.890622C10.7552 1.29687 11.0364 1.98437 10.875 2.78646C10.3542 5.41146 4.10936 10.1302 2.23957 10.4531C2.1354 10.4687 2.03645 10.4792 1.94269 10.4792Z" fill="#2E2020"/>
</svg>
