<svg width="7" height="10" viewBox="0 0 7 10" fill="none" xmlns="http://www.w3.org/2000/svg">
<path d="M4.68234 2.50528C4.2813 2.5834 3.4063 3.13549 2.91672 4.10424C2.57297 4.78653 2.36984 5.7657 3.06255 6.87507C3.18234 6.31778 3.31255 5.75007 3.55734 5.3282C4.57817 3.59382 4.68234 2.78653 4.68234 2.50528ZM3.35942 9.43757C3.12505 9.43757 2.81255 9.35945 2.50005 9.06257V9.05736C-0.020785 6.60424 0.61984 3.88028 1.93234 2.29174C2.95317 1.05215 4.6563 0.166738 5.78651 0.968821C6.94276 1.77611 6.72401 3.55736 5.13547 6.26049C5.02088 6.4532 4.9063 6.98966 4.82297 7.38028C4.61463 8.33861 4.43755 9.16153 3.67713 9.3907C3.60942 9.41153 3.49484 9.43757 3.35942 9.43757Z" fill="#2E2020"/>
</svg>
