<svg width="26" height="11" viewBox="0 0 26 11" fill="none" xmlns="http://www.w3.org/2000/svg">
<path d="M21.5417 10.7396C20.1146 10.7396 18.7396 10.4792 17.3907 10.2188C16.3282 10.0209 15.2396 9.80734 14.1667 9.74484C12.6719 9.64588 11.2604 9.79692 9.77087 9.95317C8.68233 10.073 7.55733 10.1875 6.38545 10.2084H6.21878C4.96358 10.2344 2.6667 10.2709 1.53649 9.13546C1.11462 8.70838 0.890658 8.1563 0.906283 7.54171C0.921907 6.39588 2.32295 5.41671 4.89066 4.01567C5.07816 3.9115 5.23441 3.82296 5.33337 3.76567C9.0417 1.58859 13.1823 1.66671 17.198 1.75525C17.7709 1.77088 18.3386 1.77609 18.9063 1.78129C19.1459 1.7865 19.4323 1.79692 19.7448 1.81254C21.1146 1.88025 23.4011 1.98442 23.974 0.994837C24.224 0.557337 24.7813 0.406296 25.2188 0.666712C25.6563 0.92192 25.8073 1.47921 25.5521 1.91671C24.4271 3.85942 21.5625 3.72921 19.6615 3.64067C19.375 3.62504 19.1094 3.61463 18.8907 3.61463C18.3177 3.60942 17.7396 3.599 17.1563 3.58859C13.224 3.51046 9.52087 3.42713 6.26045 5.34379C6.14587 5.4115 5.97399 5.50525 5.76566 5.61984C3.58857 6.81254 2.90628 7.38025 2.73441 7.65109C2.75003 7.73963 2.78128 7.79171 2.83337 7.8438C3.41149 8.42713 5.50524 8.39067 6.18233 8.38025L6.3542 8.37505C7.44795 8.35942 8.53128 8.24484 9.58337 8.13546C11.0782 7.97921 12.6302 7.81775 14.2813 7.91671C15.4636 7.98963 16.6146 8.20838 17.7292 8.42192C19.7448 8.80734 21.6511 9.16671 23.573 8.6563C24.0677 8.52088 24.5625 8.81775 24.6927 9.30734C24.823 9.79692 24.5313 10.2969 24.0469 10.4219C23.1927 10.6563 22.3594 10.7396 21.5417 10.7396Z" fill="#2E2020"/>
</svg>
