<svg width="46" height="51" viewBox="0 0 46 51" fill="none" xmlns="http://www.w3.org/2000/svg">
<path fill-rule="evenodd" clip-rule="evenodd" d="M6.70835 40.5314C6.04168 39.547 5.22918 37.2918 5.21356 34.8959C5.18752 31.5782 6.08856 27.9011 5.67189 26.1616C5.41668 25.1199 4.1771 22.6199 2.82814 20.8543C0.656267 18.0053 2.93752 12.4689 1.53647 9.23448C-0.338525 4.9324 1.45835 1.00011 2.57814 0.750108C5.54168 0.0730251 14.0833 0.474067 21.5729 3.17198C27.8281 5.42198 33.2604 9.76573 34.875 11.7657C36.1563 13.3439 38.2761 15.4949 40.3021 18.797C42.7813 22.8334 44.9636 29.0157 45.25 31.823C45.4219 33.4584 43.0261 36.4064 42.3802 37.2032C40.8646 39.0678 40.5625 47.198 36.9427 49.1147C29.9011 52.8386 20.5886 48.8074 18.2709 48.2866C15.4948 47.6616 12.4011 46.1147 10.3334 44.5418C8.65627 43.2605 7.62502 41.8751 6.70835 40.5314Z" fill="#E8BB81"/>
</svg>
