<svg width="6" height="12" viewBox="0 0 6 12" fill="none" xmlns="http://www.w3.org/2000/svg">
<path d="M2.25512 3.96874C2.53116 5.23436 3.177 6.95832 3.78637 8.19791C3.677 7.10936 3.13533 5.91145 2.59887 4.73957L2.28116 4.03124C2.27595 4.0104 2.26554 3.98957 2.25512 3.96874ZM4.18741 11.3177C4.15616 11.3177 4.12491 11.3177 4.09366 11.3125C2.52595 11.125 0.749913 5.40103 0.734288 5.34374C0.0936625 3.09895 0.223871 1.66145 1.1145 0.947905C1.33845 0.770821 1.71866 0.692697 1.9947 0.760405C2.88012 0.973948 3.71866 2.74999 3.95304 3.29166L4.27075 3.98436C5.19262 6.01561 6.34366 8.55207 5.06762 10.8125C4.90095 11.1094 4.53116 11.3177 4.18741 11.3177Z" fill="#2E2020"/>
</svg>
