<svg width="441" height="320" viewBox="0 0 441 320" fill="none" xmlns="http://www.w3.org/2000/svg">
<path d="M164.922 174.219H0.447754L27.8071 274.75V282.948H214.687L218.937 274.75H192.292L164.922 174.219ZM6.26025 179.693H159.792L185.099 269.276H31.5675L6.26025 179.693ZM302.542 192.073L268.693 183.521L269.073 182.021L302.922 190.573L302.542 192.073ZM321.297 235.146L263.172 217.021L263.63 215.542L321.755 233.667L321.297 235.146ZM315.255 268.198L314.812 269.688L258.401 252.932L258.838 251.443L315.255 268.198ZM256.219 264.464L285.625 318.49L284.265 319.229L254.859 265.203L256.219 264.464ZM244.182 259.193L245.693 259.552L236.463 298.536L234.953 298.172L244.182 259.193ZM321.068 226.604L320.635 225.115L408.859 199.469L409.292 200.958L321.068 226.604ZM424.312 244.047L315.573 273.115L315.172 271.615L423.911 242.547L424.312 244.047ZM440.771 286.443L346.734 316.531L346.26 315.047L440.297 284.958L440.771 286.443ZM342.14 168.021L342.651 169.49L301.958 183.51L301.448 182.042L342.14 168.021ZM280.765 154.094L280.224 152.635L316.474 139.302L317.015 140.76L280.765 154.094ZM395.344 162.687L394.057 161.818L401.239 151.214L402.526 152.083L395.344 162.687ZM409.739 194.797L408.401 194.005L418.312 177.25L419.651 178.042L409.739 194.797ZM426.193 231.297L424.765 230.687L435.364 206.068L436.797 206.677L426.193 231.297ZM229.552 72.3229C233.312 102.068 248.015 119.167 248.015 119.167H188.859C172.104 102.75 171.073 73 171.073 73L229.552 72.3229ZM33.2082 223.115L31.0259 213.651C30.4478 211.151 32.3488 208.771 34.9061 208.771H74.5988C76.4582 208.771 78.0676 210.052 78.479 211.859L80.6613 221.323C81.2394 223.823 79.3384 226.203 76.7811 226.203H37.0884C35.229 226.193 33.6144 224.911 33.2082 223.115ZM385.234 38.8125L378.052 7.52602L379.562 7.17185L386.745 38.4635L385.234 38.8125ZM334.771 6.0729L334.62 4.53123L371.042 0.942688L371.187 2.48435L334.771 6.0729Z" fill="white"/>
</svg>
