<svg width="4" height="12" viewBox="0 0 4 12" fill="none" xmlns="http://www.w3.org/2000/svg">
<path d="M1.81244 11.0157C1.33327 11.0157 0.93223 10.6407 0.906189 10.1563C0.874938 9.66152 1.23431 9.23443 1.7239 9.18756C1.68744 8.39589 1.66661 6.96881 1.63015 4.27089L1.58327 1.3386C1.57286 0.833393 1.97911 0.416725 2.48431 0.406309C2.9739 0.390684 3.40098 0.807351 3.4114 1.31256L3.45306 4.24485C3.49473 6.93235 3.52598 9.26568 3.58327 9.68235C3.64577 9.92714 3.61452 10.2032 3.48431 10.4219C3.19786 10.9011 2.68223 10.9584 1.86973 11.0157C1.8489 11.0157 1.83327 11.0157 1.81244 11.0157Z" fill="#2E2020"/>
</svg>
