<svg width="28" height="28" viewBox="0 0 28 28" fill="none" xmlns="http://www.w3.org/2000/svg">
<path d="M14.276 0.317749C13.3854 0.317749 12.5052 0.406291 11.6302 0.578166C10.7604 0.755248 9.91667 1.01046 9.09375 1.349C8.27083 1.69275 7.48958 2.10942 6.75 2.599C6.01563 3.09379 5.32812 3.65629 4.70312 4.2865C4.07292 4.9115 3.51042 5.599 3.01562 6.33858C2.52604 7.07296 2.10417 7.85421 1.76562 8.67712C1.42708 9.50004 1.17187 10.3438 0.994792 11.2188C0.822917 12.0886 0.734375 12.9688 0.734375 13.8594C0.734375 14.7448 0.822917 15.625 0.994792 16.5C1.17187 17.3698 1.42708 18.2188 1.76562 19.0365C2.10417 19.8594 2.52604 20.6407 3.01562 21.3802C3.51042 22.1198 4.07292 22.8021 4.70312 23.4323C5.32812 24.0573 6.01563 24.6198 6.75 25.1146C7.48958 25.6094 8.27083 26.0261 9.09375 26.3646C9.91667 26.7032 10.7604 26.9636 11.6302 27.1355C12.5052 27.3073 13.3854 27.3959 14.276 27.3959C15.1615 27.3959 16.0417 27.3073 16.9167 27.1355C17.7865 26.9636 18.6354 26.7032 19.4531 26.3646C20.276 26.0261 21.0573 25.6094 21.7969 25.1146C22.5365 24.6198 23.2188 24.0573 23.8438 23.4323C24.474 22.8021 25.0365 22.1198 25.5312 21.3802C26.026 20.6407 26.4427 19.8594 26.7812 19.0365C27.1198 18.2188 27.3802 17.3698 27.5521 16.5C27.724 15.625 27.8125 14.7448 27.8125 13.8594C27.8125 12.9688 27.724 12.0886 27.5521 11.2188C27.3802 10.3438 27.1198 9.50004 26.7812 8.67712C26.4427 7.85421 26.026 7.07296 25.5312 6.33858C25.0365 5.599 24.474 4.9115 23.8438 4.2865C23.2188 3.65629 22.5365 3.09379 21.7969 2.599C21.0573 2.10942 20.276 1.69275 19.4531 1.349C18.6354 1.01046 17.7865 0.755248 16.9167 0.578166C16.0417 0.406291 15.1615 0.317749 14.276 0.317749Z" fill="#F1BC19"/>
</svg>
