<svg width="45" height="104" viewBox="0 0 45 104" fill="none" xmlns="http://www.w3.org/2000/svg">
<path d="M8.69769 103.87C5.3956 103.87 2.37477 101.932 0.999769 98.9323C-0.942939 94.6927 0.926851 89.6667 5.16123 87.7188C18.9737 81.3906 27.8904 67.4896 27.8904 52.3125C27.8904 37.1719 19.005 23.2917 5.24977 16.9479C3.19769 16 1.64039 14.3125 0.859144 12.1875C0.0778944 10.0729 0.166435 7.77085 1.11435 5.71877C2.06227 3.66668 3.74977 2.10939 5.86956 1.32293C7.98414 0.54689 10.2862 0.635431 12.3435 1.57814C32.0675 10.6823 44.8175 30.599 44.8175 52.3125C44.8175 64.3854 40.7758 76.3698 33.4373 86.0573C32.8696 86.7969 31.8123 86.9479 31.0675 86.3854C30.3227 85.8229 30.1716 84.7604 30.7394 84.0156C37.6352 74.9115 41.4321 63.6563 41.4321 52.3125C41.4321 31.9115 29.4581 13.2031 10.9216 4.65106C9.69248 4.07814 8.30706 4.02085 7.03623 4.49481C5.7706 4.96877 4.75498 5.90106 4.18727 7.13543C3.01539 9.6771 4.12998 12.7031 6.67164 13.8698C21.6196 20.7708 31.2758 35.8594 31.2758 52.3125C31.2758 68.8125 21.5831 83.9167 6.57269 90.7917C4.03102 91.9636 2.91123 94.9792 4.07789 97.5261C5.20289 99.9792 8.30706 101.151 10.8071 100.021C15.7446 97.7604 20.2914 94.7448 24.3123 91.0677C24.9998 90.4375 26.0727 90.4792 26.7029 91.1719C27.3331 91.8646 27.2862 92.9375 26.5987 93.5625C22.3175 97.4792 17.4789 100.688 12.2185 103.099C11.0935 103.615 9.91644 103.87 8.69769 103.87Z" fill="#472B29"/>
</svg>
