<svg width="17" height="17" viewBox="0 0 17 17" fill="none" xmlns="http://www.w3.org/2000/svg">
<path d="M2.00004 16.0156C1.79171 16.0156 1.58337 15.9479 1.4115 15.8073C1.11462 15.5521 0.953166 15.1979 0.958374 14.7969C0.979207 13.349 3.37504 11.0052 10.8125 5.14062C11.3594 4.70833 11.8438 4.32812 12.2084 4.03645C12.4167 3.86458 12.6667 3.6927 12.9219 3.51562C13.375 3.1927 14.1407 2.66146 14.1875 2.34375C14.2032 2.22396 14.0677 2.03646 14.0052 1.95833C13.6875 1.5625 13.75 0.989581 14.1459 0.67708C14.5365 0.354164 15.1094 0.411455 15.4271 0.812497C15.8959 1.39062 16.0886 1.98958 16 2.60416C15.8386 3.71354 14.8021 4.4375 13.9636 5.02083C13.7448 5.16666 13.5313 5.3177 13.3542 5.45833C12.9844 5.7552 12.5 6.14062 11.9427 6.58333C9.82296 8.25 3.53129 13.2135 2.83337 14.7292C2.974 15.0365 2.93233 15.4115 2.69796 15.6875C2.51567 15.9062 2.26046 16.0156 2.00004 16.0156Z" fill="#2E2020"/>
</svg>
