<svg width="18" height="19" viewBox="0 0 18 19" fill="none" xmlns="http://www.w3.org/2000/svg">
<path fill-rule="evenodd" clip-rule="evenodd" d="M8.54686 9.77086C8.10936 8.83336 5.19269 1.22399 7.58332 0.401072C10.5937 -0.635385 9.65624 8.36982 10.651 9.04691C10.7083 9.08336 12.3802 6.57295 12.6198 6.2917C13.2708 5.55732 16.9792 3.63024 17.5625 5.33857C18.1927 7.15628 15.2135 9.45316 14.0989 10.3073C13.4948 10.7709 11.5156 11.0313 12.1406 11.4584C13.3542 12.2761 19.3385 15.1094 17.526 17.7969C15.0729 21.4219 10.4167 13.3125 10.0521 13.5938C9.8229 13.7657 2.30207 23.3854 4.47915 16.2657C4.86457 15.0104 7.60936 13.8802 7.73436 12.8802C7.80728 12.3542 6.67707 12.7761 6.15623 12.6719C4.61978 12.3698 1.04165 11.7292 0.531234 9.71357C-0.312516 6.39586 8.59373 9.86461 8.54686 9.77086Z" fill="#E2635B"/>
</svg>
