<svg width="8" height="13" viewBox="0 0 8 13" fill="none" xmlns="http://www.w3.org/2000/svg">
<path d="M7.88541 6.15634C7.86978 6.18759 7.78645 8.74488 7.85416 10.6303C7.89062 11.6147 7.74999 11.9793 7.15103 12.3543C6.72395 12.6147 5.64062 12.4011 5.51041 11.7084C5.28645 10.5261 5.32291 8.13551 5.31249 7.3178C5.31249 7.3178 4.88541 8.41676 3.97395 8.35426C2.74478 8.26051 2.68749 7.12509 2.68749 7.12509C2.68749 7.12509 2.20312 7.94801 1.42707 7.82821C0.651032 7.71363 0.270824 6.97405 0.302074 6.3803C0.328116 5.78655 0.109365 2.11467 2.11978 1.04176C2.16145 1.02092 5.51041 0.15634 7.18228 1.46884" fill="#FF6B3E"/>
</svg>
