<svg width="11" height="14" viewBox="0 0 11 14" fill="none" xmlns="http://www.w3.org/2000/svg">
<path fill-rule="evenodd" clip-rule="evenodd" d="M8.00519 12.3958C6.48957 11.474 4.86457 10.0625 3.5104 8.32292C2.03124 6.41667 0.927068 3.6875 0.557277 2.11979C0.29686 1.02083 0.562485 0.703125 0.562485 0.703125C0.416652 1.63542 1.49999 2.1875 2.04165 2.70833C2.55207 3.19792 2.55728 4.16667 3.04686 4.5625C3.83332 5.19792 5.14061 4.81771 5.86457 5.59375C6.69269 6.48438 6.36978 7.57292 6.69269 8.58333C6.83853 9.02604 7.28124 9.16146 7.53644 9.54167C7.90103 10.0938 7.56249 10.849 7.99478 11.3594C8.72394 12.2188 9.65624 12.9635 10.6042 13.6146C10.6042 13.6146 9.29686 13.1875 8.00519 12.3958Z" fill="#9BBD71"/>
</svg>
