<svg width="156" height="146" viewBox="0 0 156 146" fill="none" xmlns="http://www.w3.org/2000/svg">
<path fill-rule="evenodd" clip-rule="evenodd" d="M41.7865 8.77604C45.0157 8.11979 52.0782 6.04687 54.4323 4.89062C57.5782 3.34895 63.4688 8.73958 66.8802 10.1458C71.4375 12.026 77.6094 11.3854 82.4323 11.0156C89.1459 10.5 91.4271 2.84895 97.224 1.10937C100.802 0.0312457 103.385 2.18749 106.688 2.95833C115.901 5.1302 122.755 4.09895 129.708 11.0573C136.703 18.0625 138.745 28.599 141.885 37.6406C142.563 39.599 143.688 43.8333 144.333 47.1875C144.979 50.5469 146.651 56.3542 147.938 61.1927C148.771 64.3021 149.854 71.4635 150.438 74.6823C151.885 82.6562 153.578 90.7396 154.313 97.4219C154.823 102.094 156.01 104.401 153.708 108.667C151.906 112.016 141.719 114.297 136.807 116.964C134.698 118.109 125.292 119.891 123.375 121.38C123.12 121.578 123.573 125.115 124.49 128.505C125.719 133.036 127.516 137.734 127.052 137.969C119.745 141.625 111.245 142.812 103.203 143.771C94.8282 144.766 83.8907 145.688 70.3282 145.229C63.6979 145.005 54.7813 143.635 47.9479 142.005C43.474 140.943 38.4219 139.109 34.6511 137.359C33.9271 137.026 35.0365 134.302 35.8334 130.516C36.7084 126.349 37.3073 120.964 37.1459 117.729C36.8959 112.646 37.125 107.25 36.2344 101.797C35.6511 98.1927 34.1563 87.0365 33.9896 87.401C33.8698 87.651 31.0261 92.4062 30.0157 94.1146C29.5365 94.9115 25.5 101.26 21.0625 106.797C16.0938 112.99 10.2084 116.219 6.02086 112.927C5.1719 112.266 2.88545 107.234 1.74482 104.375C0.0573217 100.13 0.0573217 93.7865 1.03649 88.6302C2.30211 81.9687 4.71878 72.026 6.96357 61.5156C9.28649 50.6354 11.4271 39.2552 12.3542 36.8854C12.9271 35.4167 16.8125 34.1146 18.1615 34.3229C20.6615 34.7031 23.2084 34.5833 25.4479 33.2344C31.3802 29.6719 34.2865 19.1094 36.0625 12.7396C36.4584 11.3229 39.4063 9.25 41.7865 8.77604Z" fill="#E2635B"/>
</svg>
