<svg width="53" height="14" viewBox="0 0 53 14" fill="none" xmlns="http://www.w3.org/2000/svg">
<path d="M27.1615 13.4427C24.7449 13.4427 23.2344 11.6511 21.8959 10.0625C20.1146 7.94796 18.2761 5.76567 13.948 6.00004C13.7761 6.01046 13.6146 6.02087 13.4636 6.02608C11.349 6.13546 11.1251 6.14587 3.98965 10.7188C2.80214 11.4844 1.22402 11.1355 0.463604 9.94275C-0.296812 8.75525 0.0521443 7.17191 1.23965 6.40629C8.9011 1.49483 9.79694 1.08337 13.2084 0.916707C13.3542 0.906291 13.5105 0.901081 13.6719 0.890665C20.5365 0.515665 23.8282 4.42192 25.7917 6.75525C26.2449 7.29171 26.849 8.00525 27.198 8.26567C27.6719 7.96358 28.5365 6.97921 29.1303 6.30733C31.2136 3.94275 34.3594 0.364624 39.4271 0.901082C39.8959 0.953166 40.2605 0.958374 40.6511 0.963582C42.8074 1.00525 44.3386 1.18754 50.8438 4.46358C52.1042 5.09379 52.6094 6.63546 51.9792 7.89587C51.3438 9.1615 49.8126 9.67192 48.5521 9.0365C42.7709 6.12504 41.8438 6.10421 40.5574 6.08337C40.1251 6.07296 39.5782 6.06254 38.8959 5.98962C36.6199 5.75525 35.0626 7.30212 32.9584 9.69275C31.4011 11.4636 29.7865 13.2917 27.4584 13.4323C27.3594 13.4375 27.2605 13.4427 27.1615 13.4427Z" fill="#E07769"/>
</svg>
