<svg width="4" height="10" viewBox="0 0 4 10" fill="none" xmlns="http://www.w3.org/2000/svg">
<path d="M1.30739 9.39579C0.833433 9.39579 0.427183 9.02079 0.401142 8.53642C0.369892 8.05725 0.713642 7.64058 1.17718 7.57288C1.14593 6.78121 1.1251 5.34371 1.08343 2.62496L1.05739 1.18746C1.05739 0.687459 1.45323 0.265585 1.95843 0.260376C1.96885 0.260376 1.96885 0.260376 1.97406 0.260376C2.47406 0.260376 2.88031 0.661418 2.89073 1.16142L2.91156 2.60413C2.94802 5.30204 2.97927 7.64058 3.04177 8.06246C3.10427 8.30725 3.06781 8.58329 2.94281 8.79683C2.65635 9.27079 2.13552 9.3385 1.3751 9.39058C1.35427 9.39579 1.33343 9.39579 1.30739 9.39579Z" fill="#2E2020"/>
</svg>
