<svg width="61" height="146" viewBox="0 0 61 146" fill="none" xmlns="http://www.w3.org/2000/svg">
<path d="M16.2085 0.296875C23.7137 0.296875 29.9845 5.61979 31.4689 12.7031C31.5783 12.7031 31.6877 12.7031 31.8022 12.7031C39.1512 12.7031 45.1095 18.6771 45.1095 26.0469C45.1095 27.1042 44.9845 28.1354 44.7554 29.125C50.9741 31.1823 55.4585 37.0521 55.4585 43.9792C55.4585 46.0885 55.0418 48.1094 54.2814 49.9479C56.8283 52.375 58.4168 55.8125 58.4168 59.6146C58.4168 61.0781 58.1825 62.4844 57.7502 63.8021C59.6095 66.375 60.7033 69.5417 60.7033 72.9635C60.7033 76.3802 59.6095 79.5469 57.7502 82.1198C58.1825 83.4375 58.4168 84.8438 58.4168 86.3073C58.4168 90.1146 56.8283 93.5469 54.2814 95.974C55.0418 97.8177 55.4585 99.8333 55.4585 101.948C55.4585 108.87 50.9741 114.745 44.7554 116.797C44.9845 117.786 45.1095 118.818 45.1095 119.875C45.1095 127.245 39.1512 133.219 31.8022 133.219C31.6877 133.219 31.5783 133.219 31.4689 133.219C29.9845 140.302 23.7137 145.625 16.2085 145.625C7.59391 145.625 0.614746 138.625 0.614746 129.984V15.9375C0.614746 7.30208 7.59391 0.296875 16.2085 0.296875Z" fill="#FF9480"/>
</svg>
