<svg width="61" height="146" viewBox="0 0 61 146" fill="none" xmlns="http://www.w3.org/2000/svg">
<path d="M44.8127 0.296875C37.3075 0.296875 31.0366 5.61979 29.5522 12.7031C29.4429 12.7031 29.3283 12.7031 29.2189 12.7031C21.87 12.7031 15.9116 18.6771 15.9116 26.0469C15.9116 27.1042 16.0366 28.1354 16.2658 29.125C10.047 31.1823 5.55745 37.0521 5.55745 43.9792C5.55745 46.0885 5.97933 48.1094 6.73975 49.9479C4.18766 52.375 2.60433 55.8125 2.60433 59.6146C2.60433 61.0781 2.8387 62.4844 3.271 63.8021C1.41162 66.375 0.317871 69.5417 0.317871 72.9635C0.317871 76.3802 1.41162 79.5469 3.271 82.1198C2.8387 83.4375 2.60433 84.8438 2.60433 86.3073C2.60433 90.1146 4.18766 93.5469 6.73975 95.974C5.97933 97.8177 5.55745 99.8333 5.55745 101.948C5.55745 108.87 10.047 114.745 16.2658 116.797C16.0366 117.786 15.9116 118.818 15.9116 119.875C15.9116 127.245 21.87 133.219 29.2189 133.219C29.3283 133.219 29.4429 133.219 29.5522 133.219C31.0366 140.302 37.3075 145.625 44.8127 145.625C53.4272 145.625 60.4064 138.625 60.4064 129.984V15.9375C60.4064 7.30208 53.4272 0.296875 44.8127 0.296875Z" fill="#FF9480"/>
</svg>
