<svg width="12" height="8" viewBox="0 0 12 8" fill="none" xmlns="http://www.w3.org/2000/svg">
<path d="M7.8489 0.708298C7.69785 0.718714 7.54681 0.73434 7.40098 0.760381H7.38535C7.31244 0.776007 7.23952 0.791631 7.17181 0.812465L2.84369 1.76559C2.6614 1.80726 2.46869 1.83851 2.28119 1.86455C1.09369 2.01038 0.203062 3.04684 0.249937 4.26559C0.30202 5.46871 1.25514 6.42184 2.43223 6.49476C2.64577 6.50517 2.86452 6.5208 3.07806 6.55205L7.58327 7.17184C7.75515 7.19267 7.93223 7.19788 8.11452 7.19267C9.90098 7.11976 11.2968 5.60934 11.2239 3.81767C11.151 2.03122 9.64056 0.635381 7.8489 0.708298Z" fill="#99C7E0"/>
</svg>
