<svg width="30" height="26" viewBox="0 0 30 26" fill="none" xmlns="http://www.w3.org/2000/svg">
<path fill-rule="evenodd" clip-rule="evenodd" d="M11.4374 15.6667C11.7551 16.0625 11.979 16.6198 12.479 17.1979C13.229 18.0729 14.4322 19.0365 16.229 19.75C16.9999 20.0625 18.0103 20.5052 19.2186 20.6667C20.8801 20.8906 22.8228 20.7344 24.0624 20.3385C25.5988 19.8438 26.7238 19.3906 27.7238 18.7865C28.4582 18.3438 29.3072 17.7969 29.1926 17.9792C26.9165 21.6042 23.3801 24.4583 18.9478 25.4792C16.6301 26.0208 13.8801 25.8125 11.6509 25.526C7.65613 25 4.19259 22.1771 2.83842 20.4635C1.99988 19.401 0.645712 16.7344 0.432171 14.2813C0.15092 11.125 1.33842 7.97397 3.52592 5.42188C5.14571 3.54167 8.85925 1.30209 11.854 0.661465C14.2395 0.151047 16.2759 0.192715 18.3436 0.385423C18.979 0.442715 19.6353 0.625007 20.2238 0.859381C21.0572 1.19792 19.6561 1.18751 18.3853 1.50521C17.5936 1.70834 15.7759 2.25521 13.9686 3.77084C13.1926 4.41667 12.5415 5.32813 11.7759 6.31771C10.7603 7.63021 10.2915 9.44271 10.3228 11.3073C10.354 13.0677 10.8436 14.9115 11.4374 15.6667Z" fill="#FFDD99"/>
</svg>
