<svg width="13" height="45" viewBox="0 0 13 45" fill="none" xmlns="http://www.w3.org/2000/svg">
<path d="M1.02087 44.25C0.973991 44.25 0.932324 44.2448 0.890657 44.2396C0.390657 44.1667 0.0416979 43.7031 0.114615 43.2031C0.500031 40.5156 1.59899 37.9479 2.65628 35.4583C3.42711 33.651 4.15107 31.9479 4.63545 30.1979C5.53649 26.901 6.01566 23.375 6.48441 19.9635C6.84378 17.2708 7.22399 14.4896 7.81253 11.8021C8.02607 10.7969 8.61982 9.43228 9.23962 7.98957C10.1927 5.78124 11.375 3.03645 11.0782 1.77603C10.9584 1.28645 11.2604 0.791655 11.75 0.671863C12.25 0.557281 12.7344 0.859364 12.8542 1.34374C13.2969 3.19791 12.0938 6.0052 10.9167 8.71874C10.3334 10.0781 9.78128 11.3594 9.59378 12.1927C9.02607 14.8125 8.65107 17.5573 8.2917 20.2135C7.81774 23.6823 7.33337 27.2708 6.39587 30.6823C5.88545 32.5521 5.09899 34.3958 4.33857 36.1823C3.32295 38.5521 2.27607 41.0156 1.92191 43.4687C1.85941 43.9219 1.46878 44.25 1.02087 44.25Z" fill="#2E2020"/>
</svg>
