<svg width="19" height="14" viewBox="0 0 19 14" fill="none" xmlns="http://www.w3.org/2000/svg">
<path d="M1.15626 13.6354C0.890635 13.6354 0.635426 13.5156 0.453135 13.3073C0.177092 12.9739 0.171885 12.5 0.427093 12.1614L1.73959 10.4427C2.05209 10.0416 2.62501 9.96352 3.02084 10.2708C3.13543 10.3594 3.22397 10.4687 3.28647 10.5833L7.88543 8.21352L16.6511 1.15102C17.0417 0.828107 17.6146 0.895815 17.9323 1.29165C18.25 1.68227 18.1927 2.2604 17.7917 2.57811L8.95834 9.6979C8.91147 9.73436 8.85939 9.76561 8.80209 9.79686L1.57293 13.5312C1.44272 13.5989 1.29688 13.6354 1.15626 13.6354Z" fill="#2E2020"/>
</svg>
