<svg width="30" height="51" viewBox="0 0 30 51" fill="none" xmlns="http://www.w3.org/2000/svg">
<path d="M22.5626 50.526C22.2657 50.526 21.9689 50.3749 21.7918 50.1041C21.521 49.677 21.646 49.1093 22.073 48.8385C32.7397 42.0364 26.1095 25.9739 20.1928 14.4895C18.0678 10.3645 12.2449 4.84368 6.95846 3.19785C4.797 2.52077 2.97408 2.57285 1.54179 3.33847C1.09908 3.58327 0.546996 3.41139 0.307413 2.96868C0.0678291 2.52077 0.234496 1.96347 0.682413 1.72389C2.56262 0.718681 4.8595 0.624932 7.50533 1.44785C13.4116 3.2916 19.5314 9.21347 21.8126 13.651C25.797 21.3801 36.3647 41.8958 23.0522 50.3854C22.9012 50.4791 22.7345 50.526 22.5626 50.526Z" fill="#2E2020"/>
</svg>
