<svg width="14" height="14" viewBox="0 0 14 14" fill="none" xmlns="http://www.w3.org/2000/svg">
<path d="M6.5572 13.7761C6.29158 13.7761 6.03116 13.7552 5.77074 13.724C4.3697 13.5209 3.28116 12.8229 2.70824 11.7344C2.47908 11.3021 2.44262 10.6771 2.39053 9.81253C2.31241 8.4792 2.19262 6.46357 1.23949 6.2969C0.744701 6.20836 0.411368 5.7344 0.494701 5.23961C0.578035 4.73961 1.0572 4.40107 1.55199 4.49482C3.9322 4.90628 4.10408 7.91149 4.21345 9.70315C4.23949 10.1459 4.27595 10.7396 4.33845 10.9063C4.61449 11.4271 5.21866 11.7969 6.02595 11.9063C6.93741 12.0313 7.96866 11.8229 8.9322 11.3177C10.7864 10.3334 11.802 8.46878 11.1562 7.25003C11.0832 7.13545 10.703 6.7292 10.3957 6.40107C8.89054 4.80732 6.83324 2.62503 7.64574 0.864613C7.85928 0.406279 8.40616 0.208363 8.85929 0.421904C9.31762 0.635446 9.52074 1.17711 9.3072 1.63545C9.17178 1.9219 9.48428 2.77086 11.7239 5.14586C12.3228 5.78128 12.6197 6.09899 12.776 6.39065C13.9062 8.52607 12.5624 11.4636 9.79158 12.9323C8.74991 13.4844 7.63012 13.7761 6.5572 13.7761Z" fill="#2E2020"/>
</svg>
