<svg width="30" height="23" viewBox="0 0 30 23" fill="none" xmlns="http://www.w3.org/2000/svg">
<path d="M17.4062 22.599C12.9478 22.599 8.30721 22.125 4.9218 19.6667L4.44784 19.3281C2.927 18.2604 0.624922 16.6406 0.708255 14.5729C0.723881 14.0677 1.19784 13.6406 1.65617 13.6927C2.16138 13.7136 2.552 14.1354 2.53117 14.6406C2.48951 15.7188 4.44784 17.0938 5.49992 17.8333L5.99471 18.1823C9.6093 20.8021 15.1562 20.8646 20.0624 20.7188C20.4322 20.7083 20.8072 20.7136 21.1874 20.7188C22.4166 20.7292 23.5833 20.75 24.4791 20.2292C25.6093 19.5729 25.578 18.9167 25.3958 17.5052C25.2812 16.6406 25.1562 15.6615 25.5208 14.6823C25.8593 13.7813 26.4635 13.2188 26.9426 12.7708C27.5468 12.2031 27.9166 11.8594 27.8958 11.0261C27.8853 10.4531 27.552 9.95834 27.1666 9.38022C26.7655 8.78126 26.3124 8.10938 26.203 7.26563C26.0728 6.22397 26.677 5.26043 27.2135 4.41147C27.6145 3.77605 28.0728 3.0573 27.9635 2.64063C27.8905 2.34897 27.4895 2.06772 27.1718 1.89063C26.7291 1.65105 26.5676 1.09897 26.8124 0.651051C27.0572 0.208343 27.6145 0.0468841 28.052 0.291676C28.9895 0.807301 29.5468 1.42709 29.7343 2.18751C30.0416 3.3698 29.3593 4.44272 28.7603 5.39063C28.3853 5.97918 27.9687 6.64584 28.0155 7.03126C28.0676 7.44793 28.3541 7.8698 28.6822 8.35418C29.1562 9.07293 29.7083 9.88022 29.7291 10.9896C29.7603 12.6406 28.8958 13.4531 28.1978 14.1042C27.7812 14.4948 27.4166 14.8281 27.2343 15.3281C27.026 15.8802 27.1145 16.5573 27.203 17.2708C27.3801 18.6354 27.6301 20.5156 25.3958 21.8125C24.0572 22.5833 22.5155 22.5625 21.1614 22.5469C20.8072 22.5417 20.4583 22.5365 20.1197 22.5469C19.2291 22.5729 18.3228 22.599 17.4062 22.599Z" fill="#2E2020"/>
</svg>
