<svg width="5" height="6" viewBox="0 0 5 6" fill="none" xmlns="http://www.w3.org/2000/svg">
<path d="M1.96362 2.69267L2.14071 3.04683C2.18237 3.03121 2.22404 3.02079 2.26571 3.01038L2.21883 2.74996L2.02612 2.43225L1.96362 2.69267ZM2.18758 5.10413C1.95321 5.10413 1.71883 5.01558 1.53654 4.83329C1.41154 4.70829 1.33341 4.55204 1.29175 4.39058C0.968831 4.37496 0.671956 4.19267 0.515706 3.88538L0.234456 3.31767C0.171956 3.18746 0.135498 3.04683 0.135498 2.90621V2.3385C0.135498 2.19788 0.171956 2.05725 0.234456 1.93225L0.515706 1.35933C0.562581 1.276 0.614665 1.19267 0.687581 1.13017L0.968831 0.838501C1.14071 0.671834 1.37508 0.572876 1.61466 0.572876H2.18758C2.32821 0.572876 2.46883 0.604126 2.59383 0.671834L3.16154 0.953084C3.33862 1.04163 3.48446 1.18746 3.56779 1.35933L3.99487 2.2135C4.05737 2.3385 4.08862 2.47913 4.08862 2.62496V3.47913C4.08862 3.71871 3.99487 3.95308 3.823 4.12496L3.39591 4.55204C3.25008 4.69788 3.05737 4.78642 2.85425 4.81246L2.83341 4.83329C2.65112 5.01038 2.41675 5.10413 2.18758 5.10413Z" fill="#2E2020"/>
</svg>
