<svg width="251" height="251" viewBox="0 0 251 251" fill="none" xmlns="http://www.w3.org/2000/svg">
<path d="M125.589 0.088501C123.537 0.088501 121.49 0.140584 119.443 0.239543C117.396 0.3385 115.354 0.489544 113.313 0.692668C111.276 0.890585 109.24 1.14059 107.214 1.44267C105.188 1.74475 103.167 2.09371 101.156 2.49475C99.146 2.89579 97.1512 3.34371 95.1616 3.84371C93.172 4.3385 91.1981 4.88538 89.2397 5.47913C87.2762 6.07288 85.3335 6.71871 83.4012 7.40621C81.4741 8.09892 79.5627 8.8385 77.6668 9.61975C75.7762 10.4062 73.9012 11.2343 72.047 12.1093C70.1981 12.9895 68.3647 13.9062 66.5575 14.875C64.7502 15.8385 62.9689 16.8489 61.2085 17.9062C59.4533 18.9583 57.7241 20.052 56.0158 21.1927C54.3127 22.3333 52.6408 23.5104 50.995 24.7291C49.3439 25.9531 47.7293 27.2135 46.146 28.5104C44.5627 29.8125 43.0106 31.151 41.495 32.526C39.9741 33.9062 38.4897 35.3177 37.0418 36.7656C35.5939 38.2135 34.1825 39.6979 32.8022 41.2187C31.4272 42.7343 30.0887 44.2864 28.7866 45.8698C27.4897 47.4531 26.2293 49.0677 25.0054 50.7187C23.7866 52.3645 22.6095 54.0364 21.4689 55.7395C20.3283 57.4479 19.2345 59.177 18.1825 60.9323C17.1252 62.6927 16.1147 64.4739 15.1512 66.2812C14.1825 68.0885 13.2658 69.9218 12.3856 71.7708C11.5106 73.625 10.6825 75.5 9.896 77.3906C9.11475 79.2864 8.37516 81.1979 7.68245 83.125C6.99495 85.0573 6.34912 87 5.75537 88.9635C5.16162 90.9218 4.61475 92.8958 4.11995 94.8854C3.61995 96.875 3.17204 98.8698 2.771 100.88C2.36995 102.891 2.021 104.911 1.71891 106.937C1.41683 108.964 1.16683 111 0.968913 113.036C0.765789 115.078 0.614746 117.12 0.515788 119.167C0.416829 121.214 0.364746 123.26 0.364746 125.312C0.364746 127.359 0.416829 129.411 0.515788 131.458C0.614746 133.505 0.765789 135.547 0.968913 137.583C1.16683 139.625 1.41683 141.656 1.71891 143.687C2.021 145.714 2.36995 147.729 2.771 149.74C3.17204 151.75 3.61995 153.75 4.11995 155.74C4.61475 157.729 5.16162 159.703 5.75537 161.661C6.34912 163.625 6.99495 165.568 7.68245 167.5C8.37516 169.427 9.11475 171.339 9.896 173.234C10.6825 175.125 11.5106 177 12.3856 178.854C13.2658 180.703 14.1825 182.536 15.1512 184.344C16.1147 186.151 17.1252 187.932 18.1825 189.687C19.2345 191.448 20.3283 193.177 21.4689 194.88C22.6095 196.589 23.7866 198.26 25.0054 199.906C26.2293 201.552 27.4897 203.167 28.7866 204.755C30.0887 206.339 31.4272 207.891 32.8022 209.406C34.1825 210.927 35.5939 212.411 37.0418 213.859C38.4897 215.307 39.9741 216.719 41.495 218.094C43.0106 219.474 44.5627 220.812 46.146 222.109C47.7293 223.411 49.3439 224.672 50.995 225.891C52.6408 227.115 54.3127 228.292 56.0158 229.432C57.7241 230.568 59.4533 231.667 61.2085 232.719C62.9689 233.771 64.7502 234.781 66.5575 235.75C68.3647 236.714 70.1981 237.635 72.047 238.51C73.9012 239.391 75.7762 240.219 77.6668 241.005C79.5627 241.786 81.4741 242.526 83.4012 243.214C85.3335 243.906 87.2762 244.547 89.2397 245.146C91.1981 245.74 93.172 246.286 95.1616 246.781C97.1512 247.281 99.146 247.729 101.156 248.13C103.167 248.531 105.188 248.88 107.214 249.182C109.24 249.479 111.276 249.729 113.313 249.932C115.354 250.135 117.396 250.286 119.443 250.385C121.49 250.484 123.537 250.536 125.589 250.536C127.636 250.536 129.688 250.484 131.735 250.385C133.781 250.286 135.823 250.135 137.86 249.932C139.901 249.729 141.932 249.479 143.964 249.182C145.99 248.88 148.005 248.531 150.016 248.13C152.026 247.729 154.026 247.281 156.016 246.781C158.005 246.286 159.979 245.74 161.938 245.146C163.901 244.547 165.844 243.906 167.776 243.214C169.703 242.526 171.615 241.786 173.511 241.005C175.401 240.219 177.276 239.391 179.13 238.51C180.979 237.635 182.813 236.714 184.62 235.75C186.427 234.781 188.208 233.771 189.964 232.719C191.724 231.667 193.453 230.568 195.156 229.432C196.865 228.292 198.537 227.115 200.182 225.891C201.828 224.672 203.443 223.411 205.031 222.109C206.615 220.812 208.167 219.474 209.682 218.094C211.203 216.719 212.688 215.307 214.136 213.859C215.583 212.411 216.995 210.927 218.37 209.406C219.75 207.891 221.089 206.339 222.386 204.755C223.688 203.167 224.948 201.552 226.167 199.906C227.391 198.26 228.568 196.589 229.708 194.88C230.844 193.177 231.943 191.448 232.995 189.687C234.047 187.932 235.057 186.151 236.026 184.344C236.99 182.536 237.912 180.703 238.787 178.854C239.667 177 240.495 175.125 241.281 173.234C242.063 171.339 242.802 169.427 243.49 167.5C244.182 165.568 244.823 163.625 245.422 161.661C246.016 159.703 246.563 157.729 247.057 155.74C247.557 153.75 248.005 151.75 248.406 149.74C248.807 147.729 249.156 145.714 249.458 143.687C249.755 141.656 250.005 139.625 250.208 137.583C250.412 135.547 250.563 133.505 250.662 131.458C250.761 129.411 250.813 127.359 250.813 125.312C250.813 123.26 250.761 121.214 250.662 119.167C250.563 117.12 250.412 115.078 250.208 113.036C250.005 111 249.755 108.964 249.458 106.937C249.156 104.911 248.807 102.891 248.406 100.88C248.005 98.8698 247.557 96.875 247.057 94.8854C246.563 92.8958 246.016 90.9218 245.422 88.9635C244.823 87 244.182 85.0573 243.49 83.125C242.802 81.1979 242.063 79.2864 241.281 77.3906C240.495 75.5 239.667 73.625 238.787 71.7708C237.912 69.9218 236.99 68.0885 236.026 66.2812C235.057 64.4739 234.047 62.6927 232.995 60.9323C231.943 59.177 230.844 57.4479 229.708 55.7395C228.568 54.0364 227.391 52.3645 226.167 50.7187C224.948 49.0677 223.688 47.4531 222.386 45.8698C221.089 44.2864 219.75 42.7343 218.37 41.2187C216.995 39.6979 215.583 38.2135 214.136 36.7656C212.688 35.3177 211.203 33.9062 209.682 32.526C208.167 31.151 206.615 29.8125 205.031 28.5104C203.443 27.2135 201.828 25.9531 200.182 24.7291C198.537 23.5104 196.865 22.3333 195.156 21.1927C193.453 20.052 191.724 18.9583 189.964 17.9062C188.208 16.8489 186.427 15.8385 184.62 14.875C182.813 13.9062 180.979 12.9895 179.13 12.1093C177.276 11.2343 175.401 10.4062 173.511 9.61975C171.615 8.8385 169.703 8.09892 167.776 7.40621C165.844 6.71871 163.901 6.07288 161.938 5.47913C159.979 4.88538 158.005 4.3385 156.016 3.84371C154.026 3.34371 152.026 2.89579 150.016 2.49475C148.005 2.09371 145.99 1.74475 143.964 1.44267C141.932 1.14059 139.901 0.890585 137.86 0.692668C135.823 0.489544 133.781 0.3385 131.735 0.239543C129.688 0.140584 127.636 0.088501 125.589 0.088501Z" fill="#E6EDB7"/>
</svg>
