<svg width="10" height="7" viewBox="0 0 10 7" fill="none" xmlns="http://www.w3.org/2000/svg">
<path d="M7.65636 2.07285C6.85428 2.08327 5.40636 2.33327 3.90115 2.95827C2.41678 3.56764 1.95324 4.09889 1.91157 4.23952C1.93761 4.21348 2.03136 4.22389 2.20845 4.22389C2.4324 4.22389 2.78657 4.20827 3.3074 4.09369C4.9949 3.7291 6.82824 2.73431 7.65636 2.07285ZM2.40115 6.0416C0.739697 6.0416 0.270946 5.09889 0.145946 4.62494C0.0157381 4.15619 0.0365708 3.43223 0.864696 2.64577C2.52095 1.08327 7.04699 -0.20319 8.8022 0.395769C9.39595 0.598894 9.78657 1.02077 9.88032 1.56244C10.1876 3.45306 5.69282 5.44785 3.70324 5.88535C3.20324 5.99473 2.77615 6.0416 2.40115 6.0416Z" fill="#2E2020"/>
</svg>
