<svg width="8" height="16" viewBox="0 0 8 16" fill="none" xmlns="http://www.w3.org/2000/svg">
<path d="M3.09889 15.1406C2.77077 15.1406 2.44785 14.9635 2.28639 14.651C2.05723 14.1979 2.2291 13.6458 2.67702 13.4167C3.77598 12.8385 4.65098 11.4219 5.06244 9.52604C5.61452 7.02604 5.25514 4.22917 4.21348 2.88021C4.06244 2.6875 3.94264 2.60417 3.89577 2.60938C3.37494 2.72396 2.49473 4.35417 2.30202 5.19271C2.18744 5.6875 1.69264 5.99479 1.20827 5.88021C0.718685 5.76563 0.406186 5.27604 0.520769 4.78125C0.682227 4.08854 1.71348 1.21354 3.50514 0.822917C3.95827 0.723958 4.84368 0.708334 5.65619 1.76042C7.05202 3.5625 7.52598 6.83333 6.8541 9.92188C6.30723 12.3802 5.13014 14.1979 3.52077 15.0365C3.38535 15.1094 3.24473 15.1406 3.09889 15.1406Z" fill="#2E2020"/>
</svg>
