<svg width="46" height="45" viewBox="0 0 46 45" fill="none" xmlns="http://www.w3.org/2000/svg">
<path fill-rule="evenodd" clip-rule="evenodd" d="M30.6614 1.47915L36.5833 11.3385C36.5833 11.3385 35.6301 12.2708 34.7655 12.6198C33.8958 12.9687 32.9114 13.3802 31.7239 13.5469C30.5312 13.7083 29.4374 14.6666 29.2395 15.4271C29.0364 16.1823 28.7551 17.7969 29.3958 19.0781C30.0416 20.3646 30.8645 21.9687 32.1562 22.4427C33.453 22.9167 34.026 23.1666 34.8905 22.4479C35.7499 21.7291 36.7551 19.9635 37.9062 19.2916C39.0624 18.6146 38.8801 18.2969 40.0312 18.5312C41.1822 18.7604 40.6718 18.901 42.0885 21.2344C43.4999 23.5625 44.7135 25.3646 45.4062 26.7291C46.0937 28.0937 45.5676 28.5625 44.4166 29.3437C43.2708 30.1198 36.0416 34.4062 36.0416 34.4062C36.0416 34.4062 35.0208 34.3021 34.5989 33.4844C34.1718 32.6614 33.776 31.7187 33.427 30.4739C33.078 29.2344 33.4374 28.3854 32.1666 27.9479C30.8958 27.5156 29.7655 26.9479 28.5833 27.4791C27.3905 28.0104 26.0051 28.2916 25.3749 29.4114C24.7447 30.526 23.927 31.8646 24.4374 32.8489C24.9635 33.8281 25.4426 34.5625 26.552 35.0885C27.6614 35.6198 27.8593 35.7656 28.6614 36.9635C29.4635 38.151 29.0989 38.2552 28.2864 38.7864C27.4687 39.3177 18.7864 44.401 18.7864 44.401C18.7864 44.401 17.1874 44.3177 16.8385 43.7187C16.4895 43.1198 11.9947 35.4219 11.9947 35.4219C11.9947 35.4219 11.1197 34.651 10.1353 35.4427C9.15096 36.2291 8.02075 37.5833 7.53117 38.3021C7.04158 39.0208 6.32804 39.1719 5.06763 38.8385C3.802 38.5052 2.46867 37.6823 1.84367 36.7083C1.22388 35.7344 0.880127 34.8646 0.880127 33.3125C0.880127 31.7604 1.6145 31.276 2.19784 30.7187C2.78117 30.1667 3.52596 30.4271 4.927 30.0885C6.32804 29.7448 7.16138 29.7916 7.61971 28.9375C8.08325 28.0781 7.98429 28.0833 6.84888 26.2291C5.71346 24.3854 1.79679 17.9479 1.79679 17.9479C1.79679 17.9479 1.43221 17.1458 2.70825 16.3958C3.98429 15.651 12.1926 10.5781 12.1926 10.5781C12.1926 10.5781 13.1822 10.5364 13.6093 11.3541C14.0312 12.1771 14.4114 13.4583 14.2708 14.5C14.1301 15.5469 13.8905 16.5989 15.0989 17.1198C16.3124 17.6406 16.9999 18.6302 18.6145 18.0052C20.2239 17.3802 21.302 17.026 22.0155 16.2291C22.7239 15.4375 23.3749 13.9896 23.3385 13.1041C23.302 12.2135 23.1562 11.6041 22.2499 10.6875C21.3437 9.77602 19.8958 8.47915 19.6458 7.23436C19.401 5.98957 19.578 6.47394 21.5051 5.29165C23.4374 4.10415 26.901 1.71352 27.7812 1.29686C29.7864 0.333315 30.6614 1.47915 30.6614 1.47915Z" fill="#E2635B"/>
</svg>
