<svg width="3" height="13" viewBox="0 0 3 13" fill="none" xmlns="http://www.w3.org/2000/svg">
<path d="M1.34895 12.6198C0.880202 12.6198 0.479161 12.2605 0.437495 11.7813C0.406245 11.3594 0.651036 10.9896 1.02604 10.849C0.994787 10.0573 0.968745 8.61462 0.927078 5.82817C0.906246 4.41671 0.880203 2.80212 0.854161 1.03129C0.843744 0.526081 1.24479 0.109415 1.74999 0.098999C1.7552 0.098999 1.76041 0.098999 1.76562 0.098999C2.26562 0.098999 2.67708 0.500041 2.68229 1.00004C2.71354 2.77608 2.73437 4.39587 2.76041 5.80212C2.79166 8.52608 2.82812 10.8802 2.8802 11.3021C2.94791 11.5417 2.91666 11.8073 2.79166 12.0261C2.5052 12.5261 1.93229 12.573 1.42708 12.6198C1.40104 12.6198 1.37499 12.6198 1.34895 12.6198Z" fill="#2E2020"/>
</svg>
