<svg width="20" height="21" viewBox="0 0 20 21" fill="none" xmlns="http://www.w3.org/2000/svg">
<path d="M11.0729 13.6354C11.6093 13.6354 12.0937 14.2448 12.7396 15.0625C13.6406 16.2031 15.75 18.8281 17.0208 18.8125C17.1302 18.8125 17.4166 18.7968 17.7656 18.2812C17.9323 18.0312 17.9843 17.7968 17.9218 17.5312C17.6041 16.1354 14.8333 14.5156 13.5 13.7448C13.125 13.526 12.8229 13.3437 12.6302 13.2135C12.25 12.9583 12.0573 12.5625 12.1198 12.1562C12.2187 11.4114 12.9427 11.1718 13.7135 10.9114C13.9791 10.8229 14.4218 10.6718 14.5416 10.5833C17.651 8.19789 17.8541 7.08851 17.7031 6.6406C17.2604 6.29164 14.8437 7.28643 14.3073 7.89581C14.1979 8.03643 13.8333 8.56247 13.4583 9.10414C12.1927 10.9375 11.9271 11.3229 11.151 10.8177C10.4531 10.3385 10.3385 9.32289 10.151 7.07289C10.0156 5.54164 9.7708 2.68747 9.09893 2.24997C9.0833 2.23956 9.04164 2.20831 8.88018 2.2656C8.84893 2.27601 8.78122 2.30205 8.7083 2.47393C8.04685 4.03643 9.7656 9.07289 10.3802 10.3854C10.5312 10.7135 10.4739 11.1093 10.2343 11.3854C9.82289 11.8437 9.38018 11.6927 8.82289 11.5052C3.59893 9.75518 2.54164 10.1979 2.37497 10.3073C2.38539 10.3229 2.3906 10.3802 2.41664 10.4896C2.7656 11.8802 5.97914 12.5104 7.19268 12.7448L7.3333 12.776C7.40622 12.7812 7.63018 12.7552 7.7708 12.7343C8.2708 12.6823 8.90101 12.6041 9.33851 13.0573C9.5833 13.3021 9.69268 13.6458 9.6406 14.0052C9.52601 14.875 8.68747 15.5104 7.79164 16.1823C7.26039 16.5781 6.46351 17.1823 6.35414 17.5364C6.21872 17.9791 6.13018 18.3229 6.0833 18.5833C6.7083 18.0781 7.85935 16.9583 9.93747 14.4791C10.3333 14.0052 10.3906 13.9479 10.5 13.8646C10.7031 13.7083 10.8906 13.6354 11.0729 13.6354ZM5.49476 20.8125C5.27601 20.8125 5.07289 20.7552 4.88018 20.651C3.8333 20.0781 4.13018 18.5573 4.60414 17C4.88539 16.0729 5.80726 15.3854 6.69268 14.7187C6.76039 14.6666 6.8333 14.6093 6.90622 14.5521L6.83851 14.5468C5.03643 14.1875 1.28122 13.4531 0.645804 10.9375C0.369763 9.86976 0.822888 9.24997 1.11976 8.97914C2.10414 8.06247 4.19789 8.15622 8.0156 9.32289C7.25518 7.15101 6.24997 3.59372 7.0208 1.76039C7.28122 1.15622 7.71351 0.729138 8.28122 0.53643C9.11976 0.249972 9.72914 0.473931 10.0989 0.718722C11.5208 1.6406 11.75 4.32289 11.9687 6.91664C11.9948 7.22914 12.026 7.5781 12.0573 7.91664C12.5833 7.16143 12.8125 6.83331 12.9323 6.69268C13.5573 5.97914 16.2291 4.4531 17.9479 4.78643C18.6718 4.93226 19.2031 5.37497 19.4323 6.04164C20.2708 8.48956 17.0364 10.9739 15.6562 12.0364C15.4427 12.1979 15.1771 12.3281 14.8906 12.4375C17.0677 13.7291 19.2812 15.2552 19.7031 17.125C19.8802 17.8854 19.7343 18.6406 19.2812 19.3073C18.5625 20.3698 17.6927 20.6198 17.0937 20.6406C15.0729 20.7604 13.1198 18.4896 11.3073 16.2031C11.2396 16.1198 11.1718 16.026 11.1041 15.9427C8.15101 19.4323 6.59893 20.8125 5.49476 20.8125Z" fill="#2E2020"/>
</svg>
