<svg width="61" height="158" viewBox="0 0 61 158" fill="none" xmlns="http://www.w3.org/2000/svg">
<path d="M18.0312 3.71341C17.6666 3.71341 17.3176 3.49466 17.1822 3.13007C16.9947 2.66132 17.2291 2.13007 17.6978 1.94778C19.6978 1.16132 21.828 0.656115 23.8645 0.484239C24.3749 0.458198 24.8124 0.817572 24.8541 1.32278C24.8958 1.82278 24.526 2.26549 24.0155 2.30716C22.1562 2.46861 20.1978 2.92695 18.3645 3.65091C18.2551 3.69257 18.1405 3.71341 18.0312 3.71341ZM35.0312 6.16653C34.7708 6.16653 34.5155 6.06236 34.3333 5.85403C33.1353 4.46341 31.578 3.4582 29.6978 2.86445C29.2135 2.7082 28.9478 2.19778 29.0989 1.71341C29.2551 1.23424 29.7655 0.968613 30.2447 1.11445C32.4583 1.81757 34.2968 3.00507 35.7187 4.65611C36.052 5.04153 36.0051 5.61966 35.6249 5.94778C35.453 6.09882 35.2395 6.16653 35.0312 6.16653ZM8.46867 11.0519C8.27596 11.0519 8.06763 10.9842 7.90096 10.8488C7.51033 10.5363 7.44263 9.9582 7.75513 9.56236C9.14054 7.81757 10.6353 6.31757 12.1874 5.08841C12.5833 4.77591 13.1614 4.84361 13.4739 5.24466C13.7864 5.63528 13.7187 6.2134 13.3176 6.53111C11.8749 7.66653 10.4843 9.07278 9.18742 10.7082C9.00513 10.9322 8.7395 11.0519 8.46867 11.0519ZM2.70304 21.7394C2.60408 21.7394 2.50513 21.729 2.41138 21.6926C1.93221 21.5311 1.67179 21.0103 1.83325 20.5363C2.49471 18.5728 3.33325 16.6405 4.32804 14.7967C4.56242 14.354 5.1145 14.1874 5.56242 14.4269C6.01033 14.6665 6.177 15.2238 5.93221 15.6665C4.9895 17.4217 4.19263 19.2551 3.56763 21.1197C3.43742 21.4999 3.08325 21.7394 2.70304 21.7394ZM1.23429 33.7655C0.77596 33.7655 0.380126 33.4217 0.322835 32.953C0.213459 32.0572 0.161377 31.1197 0.161377 30.1717C0.161377 29.0311 0.239503 27.8384 0.40096 26.6405C0.46346 26.1405 0.916586 25.7863 1.427 25.8488C1.927 25.9165 2.28117 26.3801 2.21346 26.8801C2.06242 28.0051 1.9895 29.1092 1.9895 30.1717C1.9895 31.0467 2.04158 31.9113 2.14054 32.7342C2.19784 33.2395 1.84367 33.6926 1.34367 33.7551C1.30721 33.7603 1.26554 33.7655 1.23429 33.7655ZM5.43221 45.1613C5.09367 45.1613 4.77075 44.979 4.60929 44.6561C3.65617 42.7499 2.79679 40.8592 2.052 39.0415C1.85929 38.578 2.07804 38.0415 2.54159 37.8488C3.01554 37.6561 3.54679 37.8749 3.7395 38.3488C4.46867 40.1249 5.31242 41.9686 6.24471 43.8384C6.47388 44.2915 6.28638 44.8436 5.83846 45.0676C5.70304 45.1301 5.56763 45.1613 5.43221 45.1613ZM11.4947 55.7551C11.1926 55.7551 10.901 55.604 10.7239 55.3332C9.60408 53.5884 8.52596 51.8228 7.52596 50.0832C7.27075 49.6405 7.42179 49.0832 7.85929 48.8332C8.29679 48.578 8.85409 48.729 9.10929 49.1665C10.0937 50.8853 11.1562 52.6249 12.2603 54.3436C12.5364 54.7655 12.4114 55.3332 11.9895 55.6092C11.8333 55.703 11.6614 55.7551 11.4947 55.7551ZM18.5728 65.6874C18.302 65.6874 18.0364 65.5676 17.8593 65.3384C16.6041 63.7499 15.3645 62.0936 14.1718 60.4217C13.8801 60.0103 13.9739 59.4374 14.3853 59.1457C14.7916 58.854 15.3645 58.9478 15.6614 59.3592C16.8385 61.0103 18.0572 62.6405 19.2916 64.203C19.6041 64.5988 19.5364 65.1769 19.1405 65.4894C18.9739 65.6249 18.7708 65.6874 18.5728 65.6874ZM26.7551 74.7134C26.552 74.7134 26.3437 74.6405 26.177 74.4999C25.2291 73.7186 24.3905 72.9322 23.6145 72.0884C23.0051 71.4374 22.3958 70.7603 21.7916 70.0676C21.453 69.6874 21.4947 69.1092 21.8697 68.7759C22.2499 68.4374 22.828 68.479 23.1614 68.8592C23.7603 69.5363 24.3593 70.203 24.953 70.8436C25.677 71.6249 26.4583 72.3592 27.3385 73.0884C27.7291 73.4061 27.7864 73.9894 27.4635 74.3749C27.2812 74.5988 27.0208 74.7134 26.7551 74.7134ZM37.1041 81.1249C36.9583 81.1249 36.8072 81.0884 36.6666 81.0155L35.6718 80.4738C34.2291 79.6926 32.7447 78.8905 31.3072 78.0363C30.8749 77.7811 30.7291 77.2186 30.9895 76.7811C31.2499 76.3488 31.8072 76.203 32.2395 76.4634C33.6405 77.2967 35.1145 78.0884 36.5364 78.8592L37.5416 79.4061C37.9843 79.6457 38.151 80.203 37.9062 80.6509C37.7395 80.953 37.427 81.1249 37.1041 81.1249ZM47.151 87.9686C46.9166 87.9686 46.6874 87.8801 46.5103 87.7082C45.2135 86.4426 43.6926 85.2499 41.8645 84.0572C41.4426 83.7759 41.3228 83.2082 41.5989 82.7863C41.8749 82.3644 42.4426 82.2447 42.8697 82.5207C44.7968 83.7811 46.4062 85.0467 47.7864 86.3957C48.1458 86.7499 48.151 87.328 47.802 87.6926C47.6249 87.8749 47.3853 87.9686 47.151 87.9686ZM53.8645 98.078C53.5155 98.078 53.1874 97.8801 53.0312 97.5467C52.1666 95.6874 51.2083 93.9165 50.1718 92.302C49.8958 91.8749 50.0208 91.3072 50.4478 91.0363C50.8749 90.7655 51.4374 90.8905 51.7083 91.3176C52.7916 93.0051 53.7916 94.8436 54.6874 96.7811C54.901 97.2395 54.703 97.7811 54.2447 97.9947C54.1197 98.052 53.9895 98.078 53.8645 98.078ZM57.7551 109.63C57.3385 109.63 56.9635 109.349 56.8645 108.922C56.3958 106.917 55.8489 104.969 55.2343 103.13C55.0728 102.651 55.328 102.13 55.8124 101.969C56.2916 101.807 56.8072 102.068 56.9635 102.552C57.5989 104.443 58.1614 106.443 58.6458 108.505C58.7603 109 58.453 109.489 57.9635 109.609C57.8958 109.62 57.8228 109.63 57.7551 109.63ZM59.6301 121.687C59.1614 121.687 58.7603 121.328 58.7187 120.849C58.5416 118.812 58.302 116.792 58.0051 114.849C57.9322 114.349 58.2708 113.88 58.7708 113.807C59.2655 113.729 59.7395 114.068 59.8176 114.568C60.1197 116.557 60.3645 118.614 60.5416 120.693C60.5833 121.198 60.2135 121.635 59.7083 121.682C59.6822 121.682 59.6562 121.687 59.6301 121.687ZM59.953 133.885C59.9426 133.885 59.9374 133.885 59.927 133.885C59.427 133.87 59.026 133.448 59.0364 132.948C59.052 132.432 59.0624 131.917 59.0676 131.396C59.078 130.786 59.0885 130.172 59.0885 129.552C59.0885 128.672 59.0728 127.781 59.052 126.885C59.0364 126.38 59.4374 125.958 59.9426 125.948C60.4166 125.943 60.8645 126.333 60.8801 126.838C60.901 127.755 60.9166 128.656 60.9166 129.552C60.9166 130.187 60.9062 130.812 60.901 131.432C60.8853 131.953 60.8801 132.469 60.8645 132.989C60.8541 133.484 60.4478 133.885 59.953 133.885ZM58.7812 146.016C58.7187 146.016 58.6562 146.005 58.5989 145.995C58.0989 145.891 57.7812 145.406 57.8853 144.911C58.2603 143.104 58.5364 141.167 58.7291 138.979C58.7708 138.479 59.2083 138.099 59.7135 138.146C60.2187 138.193 60.5937 138.635 60.552 139.141C60.3541 141.396 60.0676 143.406 59.677 145.286C59.5833 145.719 59.203 146.016 58.7812 146.016ZM54.2135 157.245C54.0416 157.245 53.8645 157.198 53.703 157.094C53.2864 156.812 53.1718 156.245 53.453 155.823C54.5468 154.177 55.4426 152.469 56.1926 150.599C56.3853 150.13 56.9166 149.901 57.3853 150.088C57.8541 150.276 58.078 150.812 57.8958 151.281C57.1041 153.245 56.1249 155.109 54.9739 156.844C54.7968 157.104 54.5051 157.245 54.2135 157.245Z" fill="#EFEFEF"/>
</svg>
