<svg width="5" height="7" viewBox="0 0 5 7" fill="none" xmlns="http://www.w3.org/2000/svg">
<path d="M2.42188 6.31768C2 6.31768 1.44271 6.10413 1.20834 5.76559C1.01042 5.46872 1 5.0833 1.17188 4.77601C1.14063 4.60934 1.07813 4.35934 0.989587 4.04164L0.953129 3.8958C0.682295 2.86976 1.17188 2.29684 1.47396 1.95309C1.58854 1.81768 1.67709 1.71351 1.73959 1.5833L1.77084 1.43226C1.9375 0.859342 2.07813 0.36976 2.72396 0.312468C3.40104 0.249968 3.89584 0.843717 4.01042 1.90622C4.07813 2.46872 4.02605 2.88538 3.98438 3.28122C3.96355 3.43226 3.94271 3.59372 3.9323 3.7708C3.9375 3.80726 3.95313 3.86976 3.96875 3.93226C4.02084 4.19789 4.10417 4.60934 3.94271 5.03643C3.7448 5.57289 3.28126 6.18747 2.59375 6.30726C2.54167 6.31247 2.48438 6.31768 2.42188 6.31768Z" fill="#2E2020"/>
</svg>
