<svg width="221" height="75" viewBox="0 0 221 75" fill="none" xmlns="http://www.w3.org/2000/svg">
<path d="M8.97917 57.9271C8.42188 57.9271 7.875 57.9792 7.32812 58.0885C6.78125 58.1979 6.25521 58.3594 5.73958 58.5729C5.22917 58.7865 4.73958 59.0469 4.27604 59.3542C3.81771 59.6615 3.39062 60.0104 2.99479 60.4062C2.60417 60.7969 2.25 61.224 1.94271 61.6875C1.63542 62.151 1.375 62.6354 1.16146 63.151C0.947917 63.6615 0.786458 64.1927 0.682292 64.7396C0.572917 65.2812 0.515625 65.8333 0.515625 66.3906C0.515625 66.9427 0.572917 67.4948 0.682292 68.0417C0.786458 68.5833 0.947917 69.1146 1.16146 69.625C1.375 70.1406 1.63542 70.625 1.94271 71.0885C2.25 71.5521 2.60417 71.9792 2.99479 72.3698C3.39062 72.7656 3.81771 73.1146 4.27604 73.4219C4.73958 73.7344 5.22917 73.9948 5.73958 74.2031C6.25521 74.4167 6.78125 74.5781 7.32812 74.6875C7.875 74.7969 8.42188 74.849 8.97917 74.849C9.53646 74.849 10.0833 74.7969 10.6302 74.6875C11.1719 74.5781 11.7031 74.4167 12.2188 74.2031C12.7292 73.9948 13.2188 73.7344 13.6771 73.4219C14.1406 73.1146 14.5677 72.7656 14.9635 72.3698C15.3542 71.9792 15.7031 71.5521 16.0156 71.0885C16.3229 70.625 16.5833 70.1406 16.7969 69.625C17.0104 69.1146 17.1667 68.5833 17.276 68.0417C17.3854 67.4948 17.4375 66.9427 17.4375 66.3906C17.4375 65.8333 17.3854 65.2812 17.276 64.7396C17.1667 64.1927 17.0104 63.6615 16.7969 63.151C16.5833 62.6354 16.3229 62.151 16.0156 61.6875C15.7031 61.224 15.3542 60.7969 14.9635 60.4062C14.5677 60.0104 14.1406 59.6615 13.6771 59.3542C13.2188 59.0469 12.7292 58.7865 12.2188 58.5729C11.7031 58.3594 11.1719 58.1979 10.6302 58.0885C10.0833 57.9792 9.53646 57.9271 8.97917 57.9271ZM215.427 0.390625C214.755 0.390625 214.109 0.520833 213.484 0.78125C212.865 1.03646 212.312 1.40104 211.839 1.88021C211.365 2.35417 210.995 2.90625 210.74 3.52604C210.479 4.14583 210.354 4.79688 210.354 5.46875C210.354 6.14063 210.479 6.79167 210.74 7.41146C210.995 8.03125 211.365 8.58333 211.839 9.05729C212.312 9.53646 212.865 9.90104 213.484 10.1615C214.109 10.4167 214.755 10.5469 215.427 10.5469C216.099 10.5469 216.75 10.4167 217.37 10.1615C217.995 9.90104 218.542 9.53646 219.016 9.05729C219.495 8.58333 219.859 8.03125 220.12 7.41146C220.375 6.79167 220.505 6.14063 220.505 5.46875C220.505 4.79688 220.375 4.14583 220.12 3.52604C219.859 2.90625 219.495 2.35417 219.016 1.88021C218.542 1.40104 217.995 1.03646 217.37 0.78125C216.75 0.520833 216.099 0.390625 215.427 0.390625Z" fill="white"/>
</svg>
