<svg width="79" height="80" viewBox="0 0 79 80" fill="none" xmlns="http://www.w3.org/2000/svg">
<path d="M10.2344 63.6146C23.2083 79.6823 46.8281 82.1719 62.8958 69.1667C70.6823 62.8698 75.5573 53.9115 76.6198 43.9531C77.6771 33.9948 74.8021 24.224 68.5208 16.4427C62.2396 8.65626 53.3021 3.79167 43.3541 2.73959C33.4062 1.6875 23.6458 4.58334 15.8541 10.8854C-0.208355 23.8906 -2.73439 47.5417 10.2344 63.6146ZM39.3646 79.3333C27.9114 79.3333 16.5521 74.3542 8.81769 64.7656C-4.79169 47.9063 -2.14065 23.099 14.7135 9.45834C22.8698 2.85417 33.1094 -0.182289 43.5469 0.91667C53.9791 2.02084 63.3541 7.125 69.9427 15.2865C76.5364 23.4531 79.5521 33.7031 78.4375 44.151C77.3229 54.5938 72.2135 63.9844 64.0521 70.5938C56.7812 76.474 48.0416 79.3333 39.3646 79.3333Z" fill="#2E2020"/>
</svg>
