<svg width="10" height="16" viewBox="0 0 10 16" fill="none" xmlns="http://www.w3.org/2000/svg">
<path d="M6.82296 15.0677C5.61983 15.0677 4.39587 14.1042 3.96879 12.8125C3.75525 12.1667 3.64067 11.526 3.53129 10.901C3.42712 10.3229 3.33337 9.77082 3.1615 9.2604C3.00004 8.78124 3.26046 8.2604 3.74483 8.10415C4.21879 7.9427 4.73962 8.20832 4.89587 8.68749C5.10942 9.32291 5.21879 9.96353 5.33337 10.5833C5.43233 11.1667 5.53129 11.7187 5.70317 12.2344C5.89587 12.8073 6.51046 13.2292 6.82817 13.2344C6.89067 13.2292 7.07817 13.2292 7.22921 12.7344C8.00525 10.0625 8.18233 5.39061 7.23962 3.14582C7.08858 2.78124 6.86462 2.55728 6.26567 2.6302C4.77087 2.8177 2.85421 4.66145 2.72921 5.53124C2.65629 6.03124 2.19796 6.36978 1.69275 6.30728C1.19275 6.23436 0.848999 5.77082 0.916707 5.27082C1.18233 3.42186 3.85942 1.08853 6.0365 0.812488C7.36983 0.640613 8.42192 1.23436 8.92712 2.43749C10.1615 5.39061 9.75004 10.6146 8.97921 13.25C8.65629 14.3698 7.85942 15.0521 6.86462 15.0677C6.849 15.0677 6.83858 15.0677 6.82296 15.0677Z" fill="#2E2020"/>
</svg>
