<svg width="9" height="12" viewBox="0 0 9 12" fill="none" xmlns="http://www.w3.org/2000/svg">
<path d="M0.838501 6.52616C0.854126 6.49491 0.937459 3.93762 0.869751 2.0522C0.833292 1.06783 0.973917 0.703242 1.57288 0.33345C1.99996 0.067825 3.08329 0.286575 3.2135 0.974075C3.43746 2.16158 3.401 4.54699 3.41142 5.3647C3.41142 5.3647 3.8385 4.26574 4.74996 4.33345C5.97913 4.42199 6.03642 5.55741 6.03642 5.55741C6.03642 5.55741 6.52079 4.7397 7.29683 4.85428C8.07288 4.96887 8.45309 5.70845 8.42183 6.3022C8.39579 6.89595 8.61454 10.573 6.60413 11.6407C6.56767 11.6616 3.21871 12.5314 1.54163 11.2137" fill="#FF6B3E"/>
</svg>
