<svg width="18" height="26" viewBox="0 0 18 26" fill="none" xmlns="http://www.w3.org/2000/svg">
<path d="M8.45308 15.401C8.64058 15.401 8.82808 15.4427 9.01558 15.5312C9.46349 15.7396 9.51037 15.9739 9.74474 17.0833C10.4895 20.6406 11.026 21.8906 11.3385 22.3177C11.8697 21.526 11.0052 19.151 10.4843 17.7239C9.85412 15.9896 9.51037 15.0364 10.0885 14.3489C10.5312 13.8281 11.302 13.7969 12.7083 13.7552C13.7343 13.7135 15.6406 13.651 16.052 13.1823C16.0729 13.1666 16.0885 13.1458 16.0781 13.0625C15.901 12.8489 15.1927 12.75 12.802 13.276C11.7708 13.5104 11.2552 13.6198 10.8385 13.1041C10.3281 12.4635 10.4947 11.2448 11.3854 7.08331C11.625 5.9479 11.927 4.54165 11.9218 4.20311C11.8958 4.02081 11.8229 3.6354 11.7395 3.28123C10.8125 4.4479 10.427 6.68748 10.1822 8.11977L10.0885 8.87498C9.89058 12.4687 9.73433 12.901 9.16662 13.1927C8.58328 13.5 8.19266 13.1927 7.33328 12.5208C6.44787 11.8229 4.08849 9.97394 3.0312 10.2969C2.95308 10.3229 2.69266 10.4062 2.48953 11.0208C2.45308 11.151 2.47391 11.1927 2.48953 11.2187C2.72391 11.6666 4.14579 12.0833 5.08849 12.3646C6.74995 12.8489 8.4687 13.3594 8.4687 14.8229C8.4687 15.0156 8.45308 15.2083 8.41141 15.401C8.42703 15.401 8.43745 15.401 8.45308 15.401ZM6.57287 18.5469C6.31766 18.8594 6.05203 19.1771 5.77599 19.5104C4.74474 20.7448 3.61454 22.0937 3.20308 23.2135C4.25516 22.0208 5.79682 19.7916 6.57287 18.5469ZM2.45308 25.8073C2.41141 25.8073 2.36974 25.8021 2.33328 25.7969C1.8437 25.7291 1.4687 25.3802 1.32808 24.8594C0.734326 22.6875 2.58328 20.4739 4.36974 18.3333C5.40099 17.1041 6.56245 15.7135 6.64058 14.9062C6.35933 14.6406 5.24995 14.3177 4.57287 14.1146C3.04683 13.6666 1.4687 13.2031 0.869743 12.0729C0.609326 11.5833 0.572869 11.026 0.75516 10.4583C1.1562 9.1979 1.92183 8.72394 2.49995 8.55206C4.20308 8.02082 6.27078 9.3854 8.11974 10.8125C8.16662 10.3385 8.21349 9.67706 8.26037 8.77602C8.27599 8.48436 8.29162 8.30206 8.29683 8.27081L8.38016 7.80727C8.74995 5.62498 9.31766 2.33331 11.4895 1.12498C11.8333 0.932273 12.2447 0.93748 12.5833 1.14061C13.552 1.71352 13.75 4.16665 13.75 4.19269C13.7552 4.6979 13.5468 5.71352 13.1718 7.46352C12.9322 8.58331 12.5364 10.4323 12.4166 11.4896C14.302 11.0729 16.0937 10.7604 17.1562 11.5469C17.5989 11.8698 17.8541 12.3437 17.901 12.9114C17.9479 13.4739 17.7812 13.9948 17.4218 14.401C16.4843 15.4531 14.5156 15.5208 12.7708 15.5781C12.4375 15.5885 12.0208 15.6094 11.7031 15.6354C11.8229 16.0364 12.0364 16.625 12.2031 17.0937C12.9843 19.2396 13.9583 21.9114 12.7708 23.4635C12.1041 24.3333 11.3854 24.3229 11.026 24.2396C9.79683 23.9635 9.05203 22.1823 8.33328 19.1719C8.32808 19.1771 8.32287 19.1927 8.31245 19.2031C7.37495 20.776 4.22912 25.8073 2.45308 25.8073Z" fill="#2E2020"/>
</svg>
