<svg width="12" height="37" viewBox="0 0 12 37" fill="none" xmlns="http://www.w3.org/2000/svg">
<path d="M4.50514 36.5157C4.46348 36.5157 4.42181 36.5104 4.38014 36.5052C3.88014 36.4375 3.52598 35.9792 3.59368 35.474C3.94264 32.9427 3.92702 31.849 3.74993 30.3646C3.08327 24.6823 2.29681 18.8907 1.53118 13.2865L1.1666 10.5729C0.880143 8.46878 0.218684 3.55211 3.08327 1.7917C5.18223 0.494823 6.97389 0.234405 8.40618 1.01566C10.7447 2.2917 11.3072 6.01566 11.3749 8.9167C11.3749 9.05732 11.3906 9.28128 11.4062 9.54691C11.5885 12.2292 11.526 13.599 10.6614 14.1511C9.48431 14.9011 8.53639 14.6771 7.94785 14.3594C6.2916 13.474 5.68223 10.7969 5.65618 9.71357C5.64577 9.28649 5.65619 8.84899 5.6666 8.41149C5.68223 7.71878 5.69785 7.00524 5.63014 6.34899C5.57806 5.84899 5.94785 5.40107 6.44785 5.34378C6.95306 5.2917 7.40098 5.66149 7.44785 6.1667C7.52598 6.92711 7.51035 7.70316 7.49473 8.44795C7.48431 8.86461 7.47389 9.27607 7.48431 9.67191C7.51035 10.6354 8.07285 12.3542 8.81243 12.7448C8.90619 12.8021 9.11973 12.9167 9.56244 12.6719C9.74994 12.1198 9.63014 10.2917 9.58327 9.67191C9.56244 9.36462 9.54681 9.11462 9.54681 8.95316C9.47389 5.58857 8.73952 3.28128 7.53118 2.62503C6.71868 2.18232 5.5416 2.42711 4.0416 3.3542C2.18743 4.49482 2.78119 8.88545 2.9791 10.3229L3.34368 13.0365C4.10931 18.6459 4.89577 24.4479 5.56243 30.1511C5.75514 31.7657 5.78118 33.0104 5.40618 35.724C5.34889 36.1823 4.95306 36.5157 4.50514 36.5157Z" fill="#2E2020"/>
</svg>
