<svg width="7" height="15" viewBox="0 0 7 15" fill="none" xmlns="http://www.w3.org/2000/svg">
<path d="M4.69268 2.59381C4.52601 2.88027 4.28643 3.39589 3.97914 4.30735C3.02601 7.15631 2.31768 12.0261 2.87497 12.9167C4.62497 12.7084 4.71351 7.43235 4.74476 5.43235L4.77081 4.50006C4.81768 3.45839 4.7656 2.89589 4.69268 2.59381ZM2.79164 14.7553C2.25518 14.7553 1.78122 14.5157 1.44789 14.0626C-0.223986 11.8074 2.20831 3.8386 2.23435 3.76048C2.83851 1.9636 3.54685 0.359435 4.83331 0.50006C6.7656 0.724019 6.64581 3.42714 6.59372 4.58339L6.57289 5.4636C6.5156 8.89589 6.42185 14.6459 2.84893 14.7553C2.8281 14.7553 2.81247 14.7553 2.79164 14.7553Z" fill="#2E2020"/>
</svg>
