<svg width="5" height="9" viewBox="0 0 5 9" fill="none" xmlns="http://www.w3.org/2000/svg">
<path d="M2.46875 3.30725L2.38021 4.04162C2.39583 4.20308 2.41667 4.43746 2.43229 5.01037C2.44792 5.54162 2.34896 6.06246 2.26562 6.52079C2.24479 6.61454 2.22396 6.72391 2.20833 6.83329C2.27083 6.76037 2.32812 6.65621 2.39583 6.50516C2.73437 5.66141 2.66667 4.3437 2.46875 3.30725ZM1.83333 6.99996L1.9375 7.91662L1.89062 7.01558C1.86979 7.01037 1.84896 7.00516 1.83333 6.99996ZM1.85937 8.83329C1.25 8.83329 0.890625 8.57808 0.692708 8.35412C0.166667 7.76037 0.322918 6.95829 0.46875 6.18225C0.541667 5.79683 0.614584 5.39579 0.604166 5.06246C0.593749 4.55725 0.572917 4.34371 0.5625 4.23433C0.546874 3.99996 0.552083 3.92704 0.588541 3.62496L0.666666 2.94266C0.770833 2.06766 1.01042 0.00516429 2.39583 0.0937056C4.07292 0.187456 4.45312 3.7135 4.45312 4.94266C4.45833 8.31766 2.73958 8.78641 1.99479 8.82808C1.94792 8.83329 1.90104 8.83329 1.85937 8.83329Z" fill="#2E2020"/>
</svg>
