<svg width="27" height="27" viewBox="0 0 27 27" fill="none" xmlns="http://www.w3.org/2000/svg">
<path d="M2.96884 14.8125L9.43759 16.8021C9.72926 16.8906 9.95322 17.1198 10.0418 17.4062L12.0782 23.875L15.9688 18.3229C16.1407 18.0781 16.4116 17.9166 16.7241 17.9375L23.5001 18L19.4324 12.5781C19.2501 12.3333 19.198 12.0208 19.2918 11.7396L21.448 5.30727L15.0418 7.50518C14.7501 7.59893 14.4376 7.55206 14.198 7.37498L8.76051 3.33331L8.86468 10.1146C8.87509 10.4166 8.72926 10.7031 8.48447 10.875L2.96884 14.8125ZM11.7605 26.8333C11.7136 26.8333 11.6668 26.8333 11.6199 26.8229C11.2761 26.7708 10.9897 26.526 10.8907 26.1927L8.4428 18.4114L0.656342 16.0156C0.323008 15.9114 0.0782168 15.6302 0.0209248 15.2916C-0.0311592 14.9427 0.114676 14.5937 0.395925 14.3958L7.03134 9.66664L6.90113 1.51039C6.89593 1.15623 7.08863 0.838516 7.39593 0.682267C7.70322 0.520808 8.07822 0.552058 8.35947 0.755184L14.9011 5.61456L22.6095 2.97393C22.9428 2.85935 23.3074 2.94268 23.5522 3.18748C23.797 3.43227 23.8803 3.79685 23.7709 4.13018L21.1824 11.8646L26.073 18.3854C26.2813 18.6614 26.3126 19.0364 26.1563 19.3437C26.0001 19.6562 25.6824 19.8021 25.3334 19.8489L17.1876 19.7708L12.5053 26.4479C12.3334 26.6927 12.0522 26.8333 11.7605 26.8333Z" fill="#2E2020"/>
</svg>
