<svg width="95" height="80" viewBox="0 0 95 80" fill="none" xmlns="http://www.w3.org/2000/svg">
<path d="M82.8906 2.73958C71.1823 2.73958 54.9011 6.70833 35.7865 22.0885C15.4427 38.4635 5.2448 59.0833 2.47918 72.9271C1.94793 75.5781 2.32814 77.1615 3.60418 77.625C5.43751 78.2865 8.70314 77.099 11.599 75.5677C9.38022 76.5 7.25522 76.9688 5.98439 75.8854C4.77085 74.8385 4.72397 72.8333 5.81772 69.5729C10.3229 56.1979 17.6875 40.3333 38.1823 24.0625C59.0573 7.48958 73.0521 5.73437 84.5261 5.38541C86.7917 5.32291 88.3073 5.94791 89.0313 7.25C90.3854 9.69791 88.5261 13.625 85.7917 18.0052C89.0677 13.9687 92.6823 8.48437 92.1771 5.32291C92.0521 4.53645 91.6146 3.45312 89.2813 3.14583C87.3333 2.89583 85.2031 2.73958 82.8906 2.73958ZM4.76564 79.6198C3.84897 79.6198 3.02605 79.4479 2.34376 79.0521C0.593762 78.026 0.0312625 75.8438 0.687512 72.5677C3.51564 58.4115 13.9219 37.3437 34.6458 20.6615C58.0313 1.83333 77.3854 -0.239587 89.5104 1.33333C93.0469 1.79166 93.9219 3.85416 94.0365 5.51041C94.4636 11.8021 83.5313 24.2292 81.5208 24.776C81.0261 24.9062 80.5521 24.7083 80.3333 24.2708C79.9636 23.5312 80.4531 22.7969 82.2708 20.0677C84.3542 16.9323 88.6927 10.4167 87.4375 8.14062C87.0729 7.48437 86.125 7.16666 84.5833 7.21875C72.8854 7.56771 59.7604 9.27083 39.3177 25.5C19.1979 41.474 11.9688 57.0365 7.5521 70.1562C6.4271 73.5104 6.97397 74.3229 7.1771 74.4896C8.22918 75.401 12.4844 73.1771 14.5313 72.1094C16.8698 70.8906 17.7136 70.4844 18.4271 70.7448C18.7136 70.8542 18.9375 71.0729 19.0521 71.3594C19.3542 72.1094 18.7708 72.8229 17.7917 73.6667C15.3698 75.75 9.08335 79.6198 4.76564 79.6198Z" fill="#2E2020"/>
</svg>
