<svg width="11" height="21" viewBox="0 0 11 21" fill="none" xmlns="http://www.w3.org/2000/svg">
<path fill-rule="evenodd" clip-rule="evenodd" d="M1.70825 7.6302C2.21867 7.21874 1.99471 8.88541 1.97388 9.11458C1.91138 9.96354 1.33325 14.0312 3.33325 13.0573C4.35409 12.5573 4.97388 11.1302 5.28117 10.3437C6.08846 8.23958 6.72909 2.09374 10.3489 0.979162C10.5885 0.901036 9.8593 3.01562 9.72909 3.29687C8.56763 5.82291 6.67179 8.36979 5.64055 10.8958C4.63534 13.3594 5.29679 15.7344 5.28117 17.8906C5.27075 18.6719 4.8593 20.1094 3.72909 20.7031C2.03638 21.599 1.3645 19.4167 0.932212 18.625C-0.442788 16.1094 0.239505 13.9635 0.666587 10.6927C0.781171 9.77604 0.708254 8.4375 1.70825 7.6302Z" fill="#D39760"/>
</svg>
