<svg width="70" height="28" viewBox="0 0 70 28" fill="none" xmlns="http://www.w3.org/2000/svg">
<path d="M68.2345 27.1718C67.7709 27.1718 67.3699 26.8125 67.3282 26.3333C66.2501 14.2552 64.4949 4.85413 63.9532 2.13538C60.7032 2.43746 48.2918 3.526 34.8334 3.73433C21.9168 3.93225 7.74488 3.32288 3.15113 3.10933C3.26572 3.526 3.07301 3.97392 2.66676 4.17183C2.21363 4.39058 1.67197 4.20308 1.44801 3.74475L0.854258 2.51558C0.713633 2.22392 0.734466 1.88017 0.91155 1.60933C1.09384 1.3385 1.40113 1.17704 1.72405 1.20308C1.90113 1.2135 19.2605 2.14058 34.8074 1.90621C50.3334 1.66663 64.4532 0.24996 64.5938 0.234334C65.0522 0.177042 65.4793 0.494751 65.5834 0.953084C65.5991 1.05725 67.8595 11.7187 69.1511 26.1718C69.1928 26.677 68.823 27.125 68.3178 27.1666C68.2918 27.1718 68.2657 27.1718 68.2345 27.1718Z" fill="#2E2020"/>
</svg>
