<svg width="3" height="13" viewBox="0 0 3 13" fill="none" xmlns="http://www.w3.org/2000/svg">
<path d="M1.15113 12.6302C0.67196 12.6302 0.270917 12.2604 0.239668 11.7708C0.213625 11.2968 0.557377 10.8749 1.02092 10.8124C0.989669 10.0156 0.968835 8.56765 0.927168 5.81245C0.906336 4.42703 0.885501 2.82807 0.854251 1.07807C0.843834 0.572862 1.24488 0.156196 1.75008 0.145779C2.24488 0.114529 2.67717 0.541612 2.68238 1.04161C2.71363 2.79682 2.73446 4.39578 2.75529 5.7864C2.79175 8.51557 2.82821 10.8802 2.88029 11.302C2.95321 11.5468 2.91675 11.8177 2.78654 12.0416C2.50008 12.5156 1.97925 12.5833 1.20842 12.6302C1.19279 12.6302 1.17196 12.6302 1.15113 12.6302Z" fill="#2E2020"/>
</svg>
