<svg width="54" height="83" viewBox="0 0 54 83" fill="none" xmlns="http://www.w3.org/2000/svg">
<path fill-rule="evenodd" clip-rule="evenodd" d="M2.86975 36.4375C8.28121 34.5 10.6458 21.3438 12.5573 15.0052C15 6.90108 16.5937 0.973999 21.3177 0.973999C23.4427 0.973999 24.8697 4.40108 26.9895 7.69275C29.1822 11.099 32.0677 14.4271 34.3541 17.6511C35.7552 19.6355 38.2239 21.4584 39.3958 22.1667C40.4531 22.8125 41.5052 27.474 42.276 25.8177C45.5885 18.6667 47.4948 25.3646 47.427 27.3855C47.375 29.1719 46.552 32.3907 45.3125 34.375C44.7656 35.2605 42.8385 34.5417 43.0729 35.6615C43.4166 37.3282 41.6041 43.2969 41.8281 44.1146C42.2343 45.6094 42.8593 57.4844 46.25 64.5313C48.6198 69.4636 54.1875 70.2344 53.9843 71.1355C53.5052 73.323 48.6198 76.5105 43.8177 78.7552C38.927 81.0469 34.1093 82.3855 32.9323 82.3855C32.0572 82.3855 25.651 82.849 19.9323 81.0938C14.2395 79.3542 9.23954 75.4115 8.14579 74.0886C7.68225 73.5261 12.9166 72.2865 14.6145 67.2448C16.0937 62.8594 14.0729 54.599 13.8125 54.0105C13.302 52.875 11.5 51.9323 10.75 51.1302C9.67183 49.974 8.04163 47.0365 6.93746 47.2709C5.83329 47.4948 4.72392 46.2344 3.34371 44.9115C1.49475 43.1302 0.781209 38.6407 0.760375 37.974C0.708292 36.2032 0.86975 37.1511 2.86975 36.4375Z" fill="#F9EBE0"/>
</svg>
