<svg width="53" height="13" viewBox="0 0 53 13" fill="none" xmlns="http://www.w3.org/2000/svg">
<path d="M14.5989 12.8698C14.2708 12.8698 13.9374 12.8541 13.5937 12.8177C13.1249 12.7656 12.7551 12.7604 12.3697 12.75C10.2135 12.7135 8.68223 12.5312 2.17702 9.25517C0.916606 8.61975 0.411398 7.08329 1.04161 5.81767C1.67181 4.55725 3.20827 4.04684 4.46869 4.68225C10.2499 7.59371 11.177 7.60934 12.4635 7.63538C12.8958 7.6458 13.4426 7.651 14.1249 7.72392C16.4062 7.9635 17.9583 6.41663 20.0624 4.02079C21.6197 2.25517 23.2291 0.427044 25.5624 0.28642C28.151 0.135377 29.7291 2.00517 31.1249 3.65621C32.9062 5.77079 34.7447 7.95309 39.0729 7.7135C39.2447 7.70309 39.4062 7.69788 39.5572 7.69267C41.6718 7.58329 41.8958 7.57288 49.0312 2.99475C50.2187 2.23434 51.7968 2.58329 52.5572 3.77079C53.3176 4.9635 52.9687 6.54684 51.7812 7.30725C44.1197 12.2187 43.2239 12.6302 39.8124 12.802C39.6666 12.8073 39.5104 12.8177 39.3489 12.8229C32.4843 13.2031 29.1926 9.29684 27.2291 6.9635C26.776 6.42184 26.1718 5.7135 25.8229 5.45309C25.3489 5.75517 24.4843 6.73954 23.8906 7.41142C21.9479 9.61454 19.0833 12.8698 14.5989 12.8698Z" fill="#E07769"/>
</svg>
