<svg width="56" height="25" viewBox="0 0 56 25" fill="none" xmlns="http://www.w3.org/2000/svg">
<path d="M39.8282 4.44273C39.698 4.44273 39.5678 4.41669 39.4428 4.3594C37.7188 3.55211 35.8438 2.94273 33.8647 2.53648C33.3699 2.43232 33.0522 1.94794 33.1511 1.45315C33.2553 0.958358 33.7397 0.640649 34.2345 0.739608C36.349 1.1719 38.3595 1.83336 40.2136 2.69273C40.672 2.91148 40.8699 3.45315 40.6563 3.91148C40.5001 4.24482 40.1668 4.44273 39.8282 4.44273ZM22.349 4.93752C22.0313 4.93752 21.724 4.77086 21.5574 4.47919C21.3022 4.04169 21.4584 3.4844 21.8907 3.22919C23.6563 2.21357 25.7501 1.39586 27.797 0.911483C28.2918 0.796899 28.7813 1.09898 28.9011 1.58857C29.0157 2.08336 28.7084 2.57815 28.2188 2.69273C26.3386 3.13544 24.4168 3.89065 22.8022 4.81773C22.6615 4.90107 22.5053 4.93752 22.349 4.93752ZM49.1511 12.1042C48.8751 12.1042 48.6043 11.9792 48.4272 11.7448C47.2032 10.1302 45.8438 8.69273 44.3803 7.4844C43.9897 7.16148 43.9376 6.58336 44.2553 6.19273C44.5782 5.80211 45.1563 5.75002 45.547 6.07294C47.1199 7.36982 48.5782 8.90628 49.8803 10.6354C50.1876 11.0417 50.1043 11.6146 49.7032 11.9219C49.5418 12.0417 49.3438 12.1042 49.1511 12.1042ZM8.22405 12.974C7.92717 12.974 7.64072 12.8334 7.46363 12.5729C7.18238 12.1563 7.28655 11.5834 7.70842 11.3021C9.39071 10.1511 11.297 9.20836 13.3647 8.4844C13.8386 8.31773 14.3595 8.56773 14.5261 9.0469C14.6928 9.52607 14.4428 10.0469 13.9636 10.2136C12.047 10.8854 10.2918 11.7604 8.73446 12.8177C8.57301 12.9271 8.40113 12.974 8.22405 12.974ZM17.5105 14.9323C17.1199 14.9323 16.7553 14.6823 16.6355 14.2917C16.3386 13.3229 16.1824 12.3229 16.1824 11.3177C16.1824 11.0104 16.198 10.7031 16.224 10.3906C16.3126 9.45836 16.6095 8.53648 17.1147 7.65107C17.3647 7.21357 17.9272 7.06252 18.3647 7.30732C18.5313 7.40628 18.6615 7.5469 18.7345 7.71357C18.849 7.39065 19.1407 7.14065 19.5053 7.09898C21.6668 6.86461 23.823 6.90628 25.8126 7.20836C26.3126 7.28648 26.6563 7.75002 26.5834 8.25002C26.5105 8.75002 26.0418 9.09377 25.5418 9.02086C23.7032 8.73961 21.7032 8.70836 19.698 8.9219C19.3022 8.96357 18.9376 8.74482 18.7709 8.40107C18.7553 8.45315 18.7345 8.50523 18.7032 8.55732C18.3282 9.21877 18.1095 9.88544 18.047 10.5573C18.0209 10.8125 18.0105 11.0677 18.0105 11.3177C18.0105 12.1354 18.1355 12.9584 18.3803 13.7448C18.5313 14.2344 18.2605 14.7448 17.7761 14.8959C17.6876 14.9219 17.599 14.9323 17.5105 14.9323ZM35.7188 15.1667C35.3959 15.1667 35.0834 14.9896 34.922 14.6927C34.0418 13.1094 32.7136 11.8021 30.9793 10.8177C30.5418 10.5677 30.3907 10.0104 30.6355 9.57294C30.8855 9.13023 31.4428 8.97398 31.8855 9.22398C33.9168 10.3802 35.474 11.9219 36.5209 13.8021C36.7605 14.2448 36.6043 14.8021 36.1615 15.0521C36.0209 15.125 35.8699 15.1667 35.7188 15.1667ZM1.6303 21.8594C1.55738 21.8594 1.48446 21.8542 1.40634 21.8334C0.916755 21.7136 0.619881 21.2136 0.744881 20.724C1.18238 18.9427 1.97405 17.2604 3.08863 15.7136C3.38551 15.3021 3.95842 15.2136 4.36988 15.5052C4.77613 15.8021 4.86988 16.375 4.57301 16.7865C3.59905 18.1459 2.90113 19.6198 2.51571 21.1667C2.41155 21.5834 2.04176 21.8594 1.6303 21.8594ZM54.6407 22.9479C54.2553 22.9479 53.9011 22.7032 53.7761 22.3177C53.1147 20.3386 52.3595 18.4844 51.5157 16.7917C51.2918 16.3386 51.474 15.7865 51.9272 15.5625C52.3803 15.3438 52.9272 15.5209 53.1511 15.974C54.0313 17.7448 54.823 19.6875 55.5053 21.7396C55.6668 22.2188 55.4115 22.7396 54.9272 22.8959C54.8334 22.9323 54.7345 22.9479 54.6407 22.9479ZM26.0261 23.1146C25.9115 23.1146 25.8022 23.0938 25.6928 23.0521C23.6459 22.2552 21.7605 21.1042 20.2293 19.7136C19.8595 19.375 19.8282 18.7969 20.1668 18.4219C20.5105 18.0469 21.0834 18.0209 21.4636 18.3646C22.823 19.6042 24.5157 20.6302 26.3543 21.3438C26.823 21.5261 27.0574 22.0573 26.8751 22.5313C26.7345 22.8959 26.3855 23.1146 26.0261 23.1146ZM31.9845 24.1042C31.5157 24.1042 31.1199 23.7448 31.0782 23.2709C31.0261 22.7709 31.3907 22.3229 31.8959 22.2761C32.9168 22.1771 35.3595 21.7396 35.9688 19.8281C36.1199 19.3438 36.6303 19.0781 37.1147 19.2292C37.599 19.3854 37.8647 19.9011 37.7084 20.3802C37.047 22.4531 34.9949 23.8125 32.073 24.0938C32.0418 24.099 32.0157 24.1042 31.9845 24.1042Z" fill="#EFEFEF"/>
</svg>
