<svg width="3" height="3" viewBox="0 0 3 3" fill="none" xmlns="http://www.w3.org/2000/svg">
<path d="M1.01573 0.999946C0.927189 1.24995 0.994899 1.61453 1.26573 1.83328C1.59907 2.10411 1.80219 1.89057 1.88032 1.81245H1.87511C1.97927 1.70828 2.09907 1.4114 1.98448 1.08849C1.8699 0.77078 1.59907 0.624946 1.45844 0.604113C1.40636 0.598905 1.21886 0.671821 1.07302 0.880154C1.05219 0.916613 1.03136 0.958279 1.01573 0.999946ZM1.44282 2.43224C1.3699 2.43224 1.30219 2.42703 1.23448 2.42182C0.765733 2.35932 0.401149 2.09369 0.260524 1.70307C0.198025 1.51557 0.0938566 1.0364 0.546982 0.557238C1.00532 0.0676535 1.89594 -0.00526182 2.40636 0.400988C2.85427 0.765572 2.93761 1.39578 2.59386 1.90099C2.32823 2.29682 1.84907 2.43224 1.44282 2.43224Z" fill="#2E2020"/>
</svg>
