<svg width="32" height="34" viewBox="0 0 32 34" fill="none" xmlns="http://www.w3.org/2000/svg">
<path fill-rule="evenodd" clip-rule="evenodd" d="M0.364534 23.3073C0.354117 23.5052 2.86974 23.401 3.15099 22.7813C4.32808 20.1719 3.3437 17.8906 4.45308 15.1615C6.24995 10.7344 8.55203 2.40105 16.151 0.802087C17.0572 0.609379 18.0833 0.302086 18.8541 0.369795C20.7604 0.531254 21.427 2.41667 22.4322 3.46354C25.6614 6.83334 28.9166 9.16146 30.2031 14.026C30.7447 16.0625 31.9895 18.5573 31.8385 21.026C31.6406 24.1823 33.1875 27.8906 28.052 32.5156C26.1979 34.1875 22.8958 32.3438 21.4531 32.2969C16.3593 32.1406 10.4739 29.3906 9.4062 25.3594C8.8437 23.2292 8.46349 20.5 12.125 17.2969C13.6562 15.9583 15.625 15.5156 17.0885 15.1146C21.7604 13.8229 27.0625 16.4219 23.375 21.7083C23.3229 21.7865 22.6458 22.6979 22.5989 22.6771C22.4531 22.6094 22.6979 20.8698 22.651 20.625C22.4687 19.6406 21.8177 18.9531 20.8125 18.6458C19.1718 18.151 15.3802 20.6406 14.5729 22.75C13.0989 26.599 16.8593 27.375 19.3906 28.0625C20.0364 28.2396 22.6197 28.4167 23.7343 27.4375C27.5364 24.1094 27.3645 20.6875 26.7656 18.4115C25.5937 13.9948 22.8541 8.3698 14.1041 12.5938C11.5156 13.8438 9.66141 16.7344 8.72912 18.6615C6.82287 22.599 5.81766 25.2083 6.32808 28.2813C6.4062 28.724 6.28641 32.5781 5.26037 33.3385C5.14578 33.4219 3.89578 30.6719 2.35412 27.7604C0.812451 24.849 0.369742 23.1719 0.364534 23.3073Z" fill="#D39760"/>
</svg>
