<svg width="24" height="52" viewBox="0 0 24 52" fill="none" xmlns="http://www.w3.org/2000/svg">
<path d="M21.375 51.4739C20.9167 51.4739 20.5261 51.1302 20.4688 50.6666C20.4063 50.1666 20.7605 49.7083 21.2605 49.651C21.3646 49.6354 21.4271 49.6093 21.4948 49.4791C21.8282 48.9062 21.6615 47.4948 21.3907 46.8541C20.5834 44.9635 19.5261 43.4583 18.5052 41.9948C16.9323 39.7656 15.3073 37.4635 14.6875 33.8854C14.073 30.3802 14.1875 26.776 14.2969 23.2968C14.474 17.6406 14.6459 12.3021 11.9584 7.3281C10.6198 4.86455 8.25004 2.8958 5.90629 2.31247C4.30212 1.91143 2.80733 2.16664 1.46358 3.06247C1.04691 3.34372 0.479203 3.22914 0.197953 2.80726C-0.0780893 2.38539 0.031287 1.82289 0.453162 1.54164C2.21358 0.359345 4.25524 0.010386 6.349 0.536429C9.1615 1.23434 11.9948 3.55726 13.5625 6.4531C16.4896 11.8646 16.3021 17.7083 16.125 23.3541C16.0157 26.7448 15.9063 30.2448 16.4896 33.5677C17.0469 36.7448 18.474 38.7864 20 40.9427C21.0782 42.4791 22.1927 44.0677 23.073 46.1406C23.4896 47.1302 23.7865 49.1718 23.0834 50.3958C22.7344 51 22.1667 51.3854 21.4896 51.4635C21.448 51.4687 21.4115 51.4739 21.375 51.4739Z" fill="#2E2020"/>
</svg>
