<svg width="25" height="28" viewBox="0 0 25 28" fill="none" xmlns="http://www.w3.org/2000/svg">
<path d="M22.1301 4.51556C20.5468 4.51556 18.4426 7.83327 17.6978 9.00514L17.2811 9.67181C16.9739 10.151 16.7291 10.5468 16.5207 10.8645C17.0259 10.6354 17.6197 10.4531 18.2343 10.2656C18.8905 10.0729 19.6353 9.84368 19.9686 9.61452C20.8801 8.9791 23.0884 6.52598 23.0155 5.18744C22.9999 4.9791 22.927 4.80202 22.6249 4.64056C22.4686 4.55202 22.302 4.51556 22.1301 4.51556ZM8.59364 15.3489C8.21864 15.5156 7.84364 15.6718 7.46864 15.8281C5.66135 16.5833 3.95302 17.2968 2.88531 18.7916C2.66135 19.1249 2.13531 20.1822 1.95823 20.7812C2.92177 20.6197 5.54677 18.7083 8.33844 15.7499C8.41135 15.677 8.4999 15.526 8.59364 15.3489ZM11.453 13.6666C11.453 13.6718 11.4582 13.677 11.4582 13.677C12.5207 15.0104 11.7551 17.177 10.8697 19.6718C10.0989 21.8645 9.22906 24.3281 10.0364 25.401C10.1926 25.1093 10.427 24.5572 10.7291 23.5051C10.7707 23.3645 10.802 23.2656 10.8176 23.2083C10.9999 22.6822 11.2082 21.6301 11.4374 20.5156C12.1301 17.0364 12.7082 14.4999 13.8228 13.6145C14.0936 13.401 14.4374 13.3124 14.7707 13.3906C15.4895 13.552 15.8957 14.2864 16.4791 15.4687C16.6145 15.7343 16.7239 15.9739 16.8072 16.0937C17.7916 17.1041 20.3697 18.552 20.9582 18.0885C20.9009 17.4791 18.4791 15.5781 17.4478 14.7708C15.7655 13.4531 15.2343 13.0051 15.1874 12.3489C15.1822 12.2604 15.1874 12.1614 15.2134 12.0624C15.1093 12.0364 14.9999 11.9895 14.8645 11.927C14.0728 11.5624 13.7343 10.3489 12.9009 6.69785C12.5676 5.23952 12.1093 3.24473 11.828 2.80723C11.6093 2.46348 11.4478 2.31244 11.3697 2.25514C11.1197 2.50514 10.7291 3.4166 10.6197 4.41139C10.4999 5.47389 11.1874 6.57285 11.8541 7.63535C12.7395 9.05202 13.8384 10.8176 12.5624 12.5104C12.2291 12.9531 11.8541 13.3333 11.453 13.6666ZM10.0884 27.4531C9.83844 27.4531 9.58323 27.3749 9.35927 27.2291C6.83844 25.5885 8.0676 22.1249 9.14573 19.0624C9.41135 18.3229 9.71344 17.4531 9.92177 16.6926C9.83844 16.8072 9.7551 16.9114 9.67177 17.0104C6.57802 20.2812 2.48948 23.8333 0.525935 22.1718C-0.828231 21.0312 1.37489 17.7604 1.40094 17.7291C2.76552 15.8072 4.79677 14.9583 6.76031 14.1354C8.47385 13.4218 10.0989 12.7447 11.1041 11.4062C11.5728 10.7864 11.2186 10.0781 10.302 8.60931C9.5051 7.33848 8.60927 5.90098 8.80198 4.20827C8.83844 3.86452 9.23427 0.843684 10.9843 0.432227C11.5728 0.296809 12.4686 0.42181 13.3593 1.81244C13.7968 2.48952 14.1509 3.95306 14.6822 6.28639C14.8853 7.17702 15.1509 8.34368 15.3957 9.22389C15.4999 9.05723 15.6145 8.88014 15.7343 8.69264L16.1561 8.02077C17.5311 5.8541 20.3853 1.34889 23.4895 3.02598C24.3072 3.46868 24.7916 4.19785 24.8384 5.08848C24.9739 7.52598 21.8593 10.526 21.0103 11.1145C20.4374 11.5156 19.6249 11.7604 18.7655 12.0208C18.3593 12.1458 17.8749 12.2916 17.4739 12.4479C17.8072 12.7291 18.2239 13.052 18.5728 13.3281C21.0207 15.2447 22.7551 16.7187 22.7603 18.1666C22.7603 18.6979 22.5259 19.177 22.0989 19.5208C20.0207 21.1666 16.0989 17.9843 15.4582 17.3281C15.2655 17.1249 15.1093 16.8281 14.8436 16.2812C14.7655 16.1354 14.6614 15.9114 14.5468 15.7031C14.0155 16.9218 13.5207 19.401 13.2291 20.8749C12.9791 22.1041 12.7707 23.1666 12.552 23.8072L12.4843 24.0156C11.9739 25.7916 11.4478 27.0364 10.552 27.3697C10.4009 27.427 10.2447 27.4531 10.0884 27.4531Z" fill="#2E2020"/>
</svg>
