<svg width="22" height="20" viewBox="0 0 22 20" fill="none" xmlns="http://www.w3.org/2000/svg">
<path d="M19.1355 5.91148C18.8178 5.91148 17.9792 6.20315 15.9844 8.11981L15.8021 8.2969C15.6563 8.43752 15.4219 8.78127 15.2136 9.08856C15.5365 9.00002 15.8855 8.9219 16.25 8.83856C17.4844 8.55731 19.0209 8.20835 19.4428 7.47919C19.5 7.37502 19.6823 7.05731 19.4636 6.31773C19.3959 6.09898 19.3125 5.94273 19.2396 5.9271C19.2136 5.91669 19.1823 5.91148 19.1355 5.91148ZM2.96879 9.00523C2.57817 9.00523 2.29171 9.06773 2.18754 9.22398C2.13025 9.31773 2.12504 9.3594 2.12504 9.3594C2.35421 9.59898 3.68234 10.0521 8.56775 10.1875C8.80213 10.1927 9.01046 10.1979 9.18754 10.2031C8.48963 10.1459 7.63025 9.9219 6.65629 9.6771C5.76567 9.44794 4.01046 9.00523 2.96879 9.00523ZM11.8855 11.1459C12.349 11.1459 12.8021 11.5469 13.8438 12.4636C14.5782 13.1094 16.4219 14.7396 17.2344 15C17.2657 14.2917 16.625 13.4427 15.4844 12.6302C15.4584 12.625 15.25 12.5469 15.0157 12.4584C13.7136 11.9636 13.1303 11.7188 12.9428 11.1406C12.8855 10.9688 12.8855 10.7656 12.9323 10.5781C12.6771 10.4688 12.4584 10.2604 12.3125 9.97919C11.7188 8.81252 11.8021 7.35939 11.8907 5.95835C11.9636 4.72919 12.0417 3.46877 11.6407 2.54689C11.349 2.82294 10.9532 3.44794 10.8698 3.77606C10.7032 4.43752 10.8803 5.1771 11.0678 5.95835C11.323 7.03127 11.6146 8.25002 11.0105 9.46356C10.7396 10.0156 10.25 10.2188 9.57817 10.224C10.2553 10.2604 10.4428 10.3386 10.6667 10.625C10.9063 10.9323 10.948 11.2292 10.7969 11.7188C11.0053 11.4948 11.2448 11.3229 11.5313 11.2188C11.6563 11.1719 11.7709 11.1459 11.8855 11.1459ZM9.57817 14.4531C9.13546 15.4323 8.60421 16.6823 8.48963 17.3854C8.87504 16.875 9.29692 15.4115 9.47921 14.7865C9.51567 14.6771 9.54692 14.5625 9.57817 14.4531ZM8.27088 19.4011C8.19275 19.4011 8.10421 19.3959 8.02088 19.3854C7.51567 19.3281 7.10942 19.0625 6.86983 18.6406C6.21879 17.4636 7.09379 15.4219 8.39588 12.6615C8.49484 12.4584 8.59379 12.2344 8.69796 12.0209C8.63546 12.0209 8.57817 12.0209 8.51567 12.0156C4.00004 11.8906 1.23442 11.5365 0.47921 10.099C0.307335 9.76565 0.0990012 9.08335 0.656293 8.22398C1.75004 6.54169 4.599 7.26565 7.10942 7.90106C7.86984 8.09377 8.96359 8.37502 9.46879 8.39585C9.63025 7.82294 9.46879 7.15106 9.2865 6.38544C9.06254 5.46356 8.81775 4.41669 9.10421 3.31252C9.25004 2.74481 10.2136 0.718769 11.625 0.604186C11.9584 0.572937 12.8021 0.640645 13.3073 1.79169C13.8907 3.11981 13.8021 4.61981 13.7136 6.06773C13.6667 6.78648 13.625 7.4896 13.6771 8.08856V8.08335C13.9688 7.65627 14.2448 7.24481 14.5469 6.96356L14.724 6.7969C16.4011 5.18752 18.1719 3.75002 19.7084 4.15627C20.2136 4.29169 20.8803 4.68231 21.2136 5.79169C21.5157 6.78648 21.448 7.6719 21.0209 8.40106C20.2032 9.81773 18.3178 10.2448 16.6563 10.6198C16.4167 10.6771 16.1303 10.7396 15.8438 10.8177C16.2448 10.9688 16.4115 11.0417 16.5573 11.1406C18.4688 12.5156 19.323 14.0104 19.0209 15.474C18.8386 16.3646 18.2761 16.6719 17.9584 16.7813C16.6094 17.2344 14.9011 15.8438 12.6303 13.8386C12.4063 13.6406 12.1563 13.4167 11.948 13.2396C11.698 13.7344 11.4167 14.6771 11.2344 15.3021C10.7032 17.1354 10.0417 19.4011 8.27088 19.4011Z" fill="#2E2020"/>
</svg>
