<svg width="13" height="14" viewBox="0 0 13 14" fill="none" xmlns="http://www.w3.org/2000/svg">
<path d="M5.79158 13.0104C5.16137 13.0104 4.51033 12.8542 3.85929 12.5417C2.68221 11.9844 1.64054 10.9635 0.932207 9.67186C-0.567793 6.91144 -0.0730015 3.72394 2.04158 2.56769C2.39575 2.36978 2.87492 2.30728 3.75512 2.19269C4.51033 2.09894 6.79158 1.80207 6.88012 1.23436C6.95304 0.734359 7.40617 0.3854 7.91658 0.468734C8.41658 0.541651 8.76033 1.0104 8.68742 1.50519C8.39575 3.4479 5.74471 3.78644 3.9895 4.0104C3.58846 4.05728 3.03637 4.13019 2.89054 4.18748C1.70825 4.83332 1.53637 6.95311 2.54158 8.79686C3.06242 9.74998 3.81242 10.4948 4.64054 10.8958C5.38012 11.2448 6.08846 11.2656 6.63012 10.9687C6.74471 10.8854 7.07804 10.4479 7.31762 10.125C8.33846 8.78644 10.0364 6.54165 12.2447 7.50519C12.7082 7.70832 12.9218 8.24478 12.7187 8.71353C12.5208 9.17707 11.9791 9.3854 11.5208 9.18748C10.6926 8.8229 9.74992 9.9479 8.77596 11.2292C8.28638 11.8802 7.93742 12.3437 7.51033 12.5781C6.97908 12.8646 6.39575 13.0104 5.79158 13.0104Z" fill="#2E2020"/>
</svg>
