<svg width="46" height="201" viewBox="0 0 46 201" fill="none" xmlns="http://www.w3.org/2000/svg">
<path d="M41.802 168.714C38.2812 162.734 32.0885 157.984 25.2187 156.714C26.1093 151.839 25.8124 144.547 25.8124 143.234C26.026 119.365 26.026 95.4948 25.8958 71.5834C25.8124 58.0625 25.7708 44.5781 25.6458 31.0573C25.5572 21.1354 25.8124 11.0886 24.9218 1.20835C24.7968 -0.0208196 22.7604 -0.572904 22.5468 0.869805C21.7395 6.42189 21.4843 12.1042 21.3593 17.7865C20.8072 17.5313 19.9583 17.7865 19.9166 18.6354C18.9843 37.2031 18.901 55.8594 18.7291 74.4688C18.6458 83.6667 18.5156 92.8229 18.4739 102.026C18.4322 106.604 18.4322 111.224 18.3906 115.802C18.3489 120.214 17.8801 124.792 19.4947 128.99C19.5781 129.198 19.7499 129.328 19.9583 129.328C19.9583 131.234 19.9166 133.188 19.9166 135.094C19.8749 139.797 19.8333 144.547 19.7499 149.255C19.7031 150.906 19.3229 153.917 19.5364 156.458C10.9687 157.479 3.84368 164.729 1.29681 172.74C-1.58861 181.854 2.61452 191.396 10.2447 196.651C14.1926 199.365 19.1093 200.76 23.9062 200.255C26.4479 199.958 28.9114 199.193 31.0312 197.755C32.8958 196.479 34.3385 194.615 35.6926 192.75C36.2916 193.047 37.0103 193.13 37.7291 192.964C40.1926 192.328 42.1822 189.953 43.4166 187.875C44.6458 185.797 45.0676 183.214 45.151 180.797C45.2395 176.599 43.9218 172.318 41.802 168.714ZM35.526 177.234C35.526 177.104 35.526 177.104 35.526 177.234V177.234ZM26.2812 164.938C26.3229 164.938 26.3229 164.938 26.3229 164.979C26.6614 165.193 27.0833 165.365 27.4687 165.62C27.8072 165.828 28.1458 166.042 28.4426 166.255C28.5676 166.339 28.9114 166.594 29.0781 166.719C29.5885 167.146 30.0989 167.568 30.5624 168.036C31.1145 168.583 31.6249 169.177 32.1301 169.771C32.0885 169.688 32.0468 169.688 32.0051 169.604C32.0468 169.688 32.1301 169.771 32.177 169.859C32.2604 169.943 32.302 170.068 32.3437 170.109C32.5989 170.453 32.8124 170.792 33.0676 171.172C33.5729 171.979 33.9999 172.781 34.4218 173.63C34.4635 173.755 34.5051 173.844 34.5937 173.969C34.5937 174.01 34.5937 174.01 34.6354 174.052C34.7604 174.479 34.9322 174.859 35.0572 175.281C35.1874 175.75 35.3124 176.219 35.4426 176.682C35.4426 176.766 35.4843 177.021 35.526 177.276C35.3958 177.104 35.2291 176.979 35.0989 176.807C33.1093 174.521 31.0729 172.276 29.0364 170.026C27.2968 168.12 25.5989 166.214 23.8593 164.302C23.9062 164.302 23.9062 164.302 23.9479 164.302C24.6666 164.474 25.3489 164.682 26.026 164.938C26.0676 164.854 26.1926 164.896 26.2812 164.938ZM17.2864 164.771C17.6249 164.641 17.9687 164.516 18.3072 164.432C18.7291 164.302 19.1562 164.219 19.5781 164.094C19.7499 164.047 19.9166 164.047 20.0885 164.005C20.0885 164.005 20.0885 164.005 20.1301 164.005C20.2135 164.005 20.2968 164.005 20.3854 164.005C20.5104 164.177 20.6406 164.344 20.8072 164.516C22.7604 166.849 24.7083 169.177 26.6614 171.51C28.5676 173.755 30.4374 176.047 32.3854 178.25C33.4062 179.438 34.4218 180.667 35.4843 181.896C35.3541 182.531 35.2291 183.125 35.0989 183.76C35.0572 183.974 35.0572 184.146 35.0156 184.354C35.0156 184.401 35.0156 184.401 35.0156 184.443C34.9739 184.651 34.9322 184.906 34.8906 185.12C34.802 185.583 34.677 186.052 34.5937 186.474C34.5937 186.521 34.552 186.563 34.552 186.646C34.3801 186.432 34.1666 186.177 34.0416 185.969C33.151 184.74 32.2187 183.594 31.2395 182.406C29.2083 179.865 27.0833 177.359 24.9218 174.859C22.0781 171.635 19.1562 168.375 15.9322 165.49C16.3124 165.276 16.651 165.026 17.0312 164.813C17.0781 164.854 17.2031 164.813 17.2864 164.771ZM17.5833 192.875C17.4166 192.792 17.2031 192.708 17.2031 192.708C16.7812 192.495 16.3541 192.286 15.9322 192.031C15.2499 191.646 14.5729 191.182 13.9374 190.714C13.7656 190.547 13.5572 190.417 13.3854 190.25C13.0051 189.953 12.6666 189.615 12.3281 189.276C12.0729 189.021 11.776 188.724 11.5208 188.427C11.3489 188.255 11.2239 188.047 11.052 187.875C11.0104 187.833 10.9687 187.75 10.927 187.703C10.7968 187.536 10.4583 187.026 10.3749 186.901C10.1197 186.521 9.86452 186.094 9.60931 185.672C9.40098 185.333 9.2291 184.99 9.05723 184.651C8.97389 184.443 8.84889 184.229 8.76035 184.016C8.76035 183.974 8.76035 183.974 8.71868 183.932C8.42181 183.125 8.1666 182.281 7.99993 181.432C7.95827 181.26 7.9166 181.047 7.86973 180.88C7.86973 180.839 7.86973 180.839 7.86973 180.797C7.82806 180.37 7.78639 179.948 7.78639 179.521C7.78639 179.141 7.78639 178.719 7.78639 178.339C7.78639 178.167 7.86973 177.49 7.86973 177.276C7.86973 177.234 7.86973 177.193 7.9166 177.193C8.08327 177.448 8.21348 177.698 8.33848 177.911C9.90618 180.37 11.5208 182.786 13.0885 185.245C14.6145 187.62 16.1406 189.995 17.6718 192.328C17.7968 192.536 17.9687 192.792 18.1354 193.089C18.0937 193.089 18.052 193.047 18.0104 193.047C17.9687 193.047 17.7551 192.964 17.5833 192.875ZM22.4218 194.276C22.3749 194.276 22.3749 194.276 22.3333 194.276C22.3333 194.234 22.2916 194.234 22.2916 194.193C21.5729 192.964 20.7656 191.818 19.9999 190.63C18.3906 188.214 16.8229 185.755 15.2083 183.339C13.6822 180.964 12.1145 178.63 10.5416 176.26C9.99473 175.411 9.40097 174.563 8.80723 173.755C8.80723 173.714 8.80723 173.714 8.84889 173.672C8.89056 173.547 8.97389 173.375 9.01556 173.292C9.18743 172.995 9.31243 172.656 9.48431 172.359C9.65098 172.063 9.86452 171.807 10.0364 171.51C13.0885 174.859 16.0572 178.25 18.9426 181.729C20.9374 184.104 22.8854 186.521 24.7551 189.021C25.7291 190.292 26.6614 191.604 27.6354 192.875C27.9322 193.26 28.1874 193.599 28.4843 193.896C27.2551 194.193 26.1093 194.359 24.8801 194.359C24.0312 194.406 23.2239 194.359 22.4218 194.276ZM30.8176 193.26C30.6458 192.495 30.1822 191.859 29.6301 191.099C28.7395 189.911 27.8489 188.724 26.9166 187.536C24.9635 185.036 22.9687 182.531 20.9374 180.073C17.8801 176.469 14.5729 173.036 11.2239 169.688C11.3906 169.474 11.7291 169.094 11.8176 168.969C12.1979 168.542 12.5781 168.12 12.9635 167.74C13.302 167.396 13.6822 167.057 14.0208 166.76C14.0624 166.719 14.1093 166.677 14.1926 166.635C16.9895 170.026 19.9999 173.25 22.802 176.599C24.8385 179.016 26.8333 181.474 28.7395 183.974C29.7551 185.286 30.7343 186.604 31.7083 187.875C32.427 188.807 33.1093 189.995 33.9999 190.802C34.0833 191.099 34.2083 191.349 34.3385 191.604C33.2343 192.37 32.0885 192.833 30.8176 193.26Z" fill="#0A141E"/>
</svg>
