<svg width="70" height="36" viewBox="0 0 70 36" fill="none" xmlns="http://www.w3.org/2000/svg">
<path d="M68.1771 35.5468C67.7031 35.5468 67.3021 35.177 67.2708 34.6927C66.849 28.4947 63.974 7.11453 63.3542 2.52078C60.0156 2.83328 47.6719 3.90619 34.2865 4.11453C21.3386 4.31765 7.13543 3.70307 2.57814 3.48953C2.62501 3.86974 2.42709 4.24994 2.06772 4.42703C1.61459 4.65099 1.06772 4.46349 0.84376 4.00515L0.31251 2.89578C0.171884 2.60411 0.192717 2.26036 0.369801 1.98953C0.552092 1.7239 0.859384 1.56765 1.1823 1.58328C1.35418 1.59369 18.7292 2.52598 34.2552 2.2864C49.7917 2.04682 63.9063 0.630151 64.0469 0.614527C64.5365 0.557235 64.9792 0.916611 65.0469 1.40099C65.1927 2.46869 68.6198 27.5833 69.0938 34.5729C69.125 35.0729 68.7448 35.5156 68.2448 35.5468C68.2188 35.5468 68.2031 35.5468 68.1771 35.5468Z" fill="#2E2020"/>
</svg>
