<svg width="33" height="63" viewBox="0 0 33 63" fill="none" xmlns="http://www.w3.org/2000/svg">
<path d="M18.1876 62.4636C14.7188 62.4636 11.6251 61.0573 8.96883 58.2656C1.573 50.5156 -0.833253 33.1979 1.55216 21.8854C2.86466 15.6458 8.69279 6.79168 16.9011 2.67188C22.1251 0.0520917 27.4376 -0.151032 32.2761 2.08855C32.7345 2.30209 32.9324 2.84897 32.7188 3.3073C32.5105 3.76563 31.9688 3.96355 31.5053 3.75001C27.198 1.75522 22.4272 1.94793 17.7188 4.3073C10.3022 8.03126 4.58341 16.3646 3.33862 22.2656C1.09904 32.8958 3.40112 49.7761 10.2865 57C13.0678 59.9167 16.3751 61.0781 20.1199 60.474C20.6199 60.3906 21.0886 60.7292 21.172 61.2292C21.2501 61.724 20.9115 62.1979 20.4167 62.2813C19.6563 62.4011 18.9115 62.4636 18.1876 62.4636Z" fill="#2E2020"/>
</svg>
