<svg width="35" height="36" viewBox="0 0 35 36" fill="none" xmlns="http://www.w3.org/2000/svg">
<path d="M17.5574 2.67712C15.8594 2.67712 14.1407 2.95837 12.4532 3.54691C8.53131 4.9167 5.37506 7.73441 3.56777 11.4844C1.76048 15.2344 1.5209 19.4636 2.89069 23.3959C5.71881 31.5157 14.6094 35.8177 22.7032 32.9896C30.8021 30.1615 35.0886 21.2605 32.2657 13.1407C30.0261 6.71879 23.9896 2.67712 17.5574 2.67712ZM17.6042 35.6875C10.4115 35.6875 3.66673 31.1823 1.16673 23.9948C-0.36452 19.6042 -0.0988944 14.875 1.92194 10.6875C3.94277 6.50004 7.4636 3.349 11.849 1.81775C20.9011 -1.34371 30.8334 3.46358 33.9896 12.5365C37.1459 21.6094 32.3594 31.5573 23.3074 34.7188C21.4219 35.3802 19.4949 35.6875 17.6042 35.6875Z" fill="#2E2020"/>
</svg>
