<svg width="24" height="26" viewBox="0 0 24 26" fill="none" xmlns="http://www.w3.org/2000/svg">
<path fill-rule="evenodd" clip-rule="evenodd" d="M11.8334 10.9583C9.46881 14.0989 4.5261 13.9166 2.14068 17.2604C1.95318 17.5208 0.567766 20.0104 1.10943 20.4739C2.70839 21.8177 7.91672 16.5312 9.00527 15.3802C9.63547 14.7135 10.1719 12.5312 10.7396 13.2447C12.4532 15.401 6.46881 23.2604 9.85422 25.4583C10.7813 26.0677 11.5469 22.8958 11.6823 22.5104C12.3073 20.6979 13.0053 14.4322 14.3907 13.3281C14.9271 12.901 15.7813 15.3437 16.1146 15.6874C16.9428 16.5416 20.1876 18.8697 21.5261 17.8072C23.5157 16.2187 15.5678 11.7916 16.1251 11.1979C16.9167 10.3593 19.4792 10.0677 20.4896 9.36453C21.7292 8.50515 25.6563 4.22911 23.0574 2.83328C20.5053 1.45307 17.6719 6.37495 16.6615 7.93224C16.5834 8.05724 15.2969 10.1197 15.2553 10.0989C14.4167 9.70828 13.4063 2.57286 12.599 1.30724C10.9376 -1.26568 9.88547 1.73953 9.70839 3.30724C9.36985 6.30203 13.4948 8.75515 11.8334 10.9583Z" fill="#E2635B"/>
</svg>
