<svg width="8" height="5" viewBox="0 0 8 5" fill="none" xmlns="http://www.w3.org/2000/svg">
<path d="M3.12502 2.83858C3.71356 3.06774 4.7344 3.2292 5.50523 2.93753C5.94273 2.77607 6.15106 2.51045 6.1771 2.07295C6.03648 2.10941 5.86981 2.15628 5.72919 2.19274C5.33856 2.30212 4.89065 2.42712 4.37502 2.52087C3.77606 2.62503 3.38544 2.74483 3.12502 2.83858ZM4.57815 4.92191C3.06773 4.92191 1.1094 4.30212 0.937521 2.98441C0.718771 1.31774 3.22919 0.864618 4.0521 0.713575C4.50002 0.63545 4.90106 0.526075 5.2396 0.427117C6.06252 0.197951 6.77606 3.26335e-05 7.39065 0.44795C7.97398 0.875033 8.00002 1.59378 8.00523 1.82816C8.06773 3.56774 6.91148 4.74482 4.9844 4.90628C4.85419 4.9167 4.71877 4.92191 4.57815 4.92191Z" fill="#2E2020"/>
</svg>
