<svg width="15" height="15" viewBox="0 0 15 15" fill="none" xmlns="http://www.w3.org/2000/svg">
<path d="M3.7239 7.15626L5.91661 8.17189C6.18745 8.29689 6.38536 8.5521 6.43224 8.84897L6.8437 11.2292L8.48432 9.45314C8.68745 9.23439 8.98432 9.13543 9.2812 9.17189L11.6718 9.51564L10.4999 7.41147C10.3489 7.14585 10.3385 6.82814 10.4687 6.5573L11.5364 4.39064L9.17182 4.85939C8.87495 4.92189 8.57286 4.82814 8.35932 4.6146L6.62495 2.9323L6.3437 5.32814C6.30724 5.63022 6.12495 5.89064 5.85932 6.03126L3.7239 7.15626ZM6.25515 14.125C6.17182 14.125 6.08328 14.1146 5.99474 14.0886C5.6614 13.9896 5.41661 13.7136 5.35411 13.3646L4.71349 9.63022L1.27599 8.04168C0.95828 7.89585 0.755154 7.58855 0.744738 7.23439C0.73953 6.88543 0.921821 6.56251 1.23432 6.40105L4.58328 4.63543L5.02599 0.875013C5.07286 0.526054 5.30724 0.234387 5.63536 0.119805C5.96349 1.25021e-05 6.32807 0.0833455 6.57807 0.32293L9.29161 2.96876L12.9999 2.22918C13.3437 2.16147 13.6927 2.29168 13.9062 2.57293C14.1197 2.84897 14.1562 3.21876 13.9999 3.53126L12.3229 6.9323L14.1718 10.2396C14.3437 10.5469 14.3281 10.9219 14.1302 11.2031C13.9322 11.4948 13.5885 11.6406 13.2447 11.5938L9.49474 11.0521L6.93224 13.8333C6.75515 14.0208 6.50515 14.125 6.25515 14.125Z" fill="#2E2020"/>
</svg>
