<svg width="82" height="23" viewBox="0 0 82 23" fill="none" xmlns="http://www.w3.org/2000/svg">
<path d="M30.7761 2.72391C30.3125 2.72391 29.9115 2.36454 29.8698 1.88537C29.8282 1.38537 30.2032 0.937456 30.7032 0.89579C32.7448 0.723915 34.8438 0.687456 36.9115 0.786415C37.4167 0.807248 37.8073 1.23954 37.7813 1.74475C37.7604 2.24996 37.3177 2.63016 36.823 2.61454C34.8334 2.52079 32.823 2.55725 30.8594 2.71871C30.8334 2.72392 30.8073 2.72391 30.7761 2.72391ZM48.8698 4.60933C48.7865 4.60933 48.7032 4.59891 48.6198 4.57287C46.6719 4.026 44.7032 3.58329 42.7761 3.25516C42.2761 3.17183 41.9427 2.69787 42.0261 2.20308C42.1094 1.70308 42.5834 1.36975 43.0782 1.44787C45.073 1.79162 47.1042 2.24475 49.1198 2.81246C49.6042 2.94787 49.8855 3.45308 49.75 3.93746C49.6355 4.34371 49.2709 4.60933 48.8698 4.60933ZM18.9375 5.42704C18.5677 5.42704 18.224 5.20829 18.0834 4.8385C17.9011 4.36454 18.1407 3.83329 18.6094 3.65621C20.5417 2.91662 22.5417 2.30725 24.5573 1.84891C25.0573 1.72912 25.5417 2.04683 25.6511 2.53641C25.7657 3.03121 25.4584 3.52079 24.9636 3.63016C23.0313 4.07287 21.1146 4.65621 19.2605 5.36454C19.1563 5.41141 19.0469 5.42704 18.9375 5.42704ZM60.2344 8.98954C60.099 8.98954 59.9584 8.9635 59.8282 8.901C58.0052 8.00516 56.1511 7.19266 54.3177 6.48433C53.849 6.29683 53.6146 5.76558 53.8021 5.29683C53.9792 4.82287 54.5052 4.5885 54.9792 4.776C56.8646 5.50516 58.7657 6.3385 60.6355 7.25516C61.0886 7.47912 61.2761 8.026 61.0521 8.47912C60.8959 8.80725 60.5677 8.98954 60.2344 8.98954ZM8.26566 11.2552C7.9792 11.2552 7.69795 11.125 7.52608 10.8802C7.22399 10.4739 7.31774 9.89579 7.7292 9.59892C9.1042 8.59891 10.6719 7.59371 12.3698 6.62496L12.974 6.28121C13.4167 6.04162 13.974 6.20308 14.2188 6.64058C14.4636 7.0885 14.3021 7.64058 13.8594 7.88537L13.2813 8.20829C11.6354 9.151 10.1302 10.1197 8.80212 11.0833C8.64066 11.2031 8.44795 11.2552 8.26566 11.2552ZM70.7292 15.1822C70.5521 15.1822 70.3698 15.1302 70.2084 15.0208C68.5417 13.8645 66.8334 12.7656 65.1302 11.7656C64.6927 11.5104 64.5521 10.9479 64.8073 10.5104C65.0625 10.0729 65.6302 9.93225 66.0573 10.1875C67.7969 11.2135 69.5469 12.3333 71.25 13.5156C71.6667 13.802 71.7709 14.3697 71.4844 14.7864C71.3073 15.0416 71.0209 15.1822 70.7292 15.1822ZM0.927117 19.1666C0.791701 19.1666 0.651075 19.1354 0.520867 19.0677C0.0677415 18.8437 -0.119758 18.2968 0.109409 17.8385C0.802117 16.4583 1.77608 15.0781 3.00524 13.7343C3.34378 13.3593 3.92712 13.3385 4.29691 13.677C4.6667 14.0156 4.69274 14.5989 4.34899 14.9687C3.23441 16.1875 2.35941 17.427 1.74483 18.6614C1.58337 18.9791 1.26045 19.1666 0.927117 19.1666ZM80.2657 22.7812C80.0469 22.7812 79.823 22.6979 79.6511 22.5364C78.1615 21.1822 76.6146 19.8645 75.0521 18.6197C74.6563 18.3072 74.5938 17.7291 74.9115 17.3333C75.224 16.9427 75.8021 16.875 76.1927 17.1875C77.7813 18.4583 79.3594 19.802 80.8802 21.1822C81.25 21.526 81.2813 22.1041 80.9427 22.4791C80.7605 22.677 80.5157 22.7812 80.2657 22.7812Z" fill="#EFEFEF"/>
</svg>
