<svg width="12" height="10" viewBox="0 0 12 10" fill="none" xmlns="http://www.w3.org/2000/svg">
<path d="M3.26049 2.7448C3.11986 2.7448 3.02611 2.78647 2.92715 2.89063C2.56257 3.28126 2.60945 3.50001 2.62507 3.58334C2.88549 4.78647 6.22924 6.13542 7.3334 6.58334C7.63028 6.70313 7.86466 6.79688 8.01049 6.8698C8.15632 6.9323 8.29695 7.00001 8.43236 7.0573C6.02611 4.23438 4.30215 2.78647 3.29695 2.7448C3.28653 2.7448 3.27611 2.7448 3.26049 2.7448ZM10.2344 9.25522C10.2397 9.26042 10.2397 9.26042 10.2449 9.26563L10.9272 8.65626L10.2344 9.25522ZM10.974 9.8698C10.3803 9.8698 9.34382 9.50522 7.24486 8.53126C7.11465 8.46876 6.90632 8.38542 6.6459 8.28126C3.87507 7.16147 1.25007 5.86459 0.838613 3.97397C0.713613 3.40626 0.744864 2.53647 1.59382 1.63022C2.06778 1.13542 2.69799 0.890634 3.36986 0.916675C5.65632 1.01042 8.43757 4.10417 11.1042 7.4323C11.3282 7.70834 11.5053 7.92709 11.6199 8.0573C12.2084 8.7448 11.8803 9.30209 11.7657 9.45313C11.573 9.70834 11.3751 9.8698 10.974 9.8698Z" fill="#2E2020"/>
</svg>
