<svg width="4" height="4" viewBox="0 0 4 4" fill="none" xmlns="http://www.w3.org/2000/svg">
<path d="M1.76034 1.89065L1.85409 1.93753L1.8645 1.92711L1.84367 1.91149L1.83325 1.9219L1.76034 1.82294C1.76034 1.84898 1.76034 1.86982 1.76034 1.89065ZM1.78117 1.95836L1.82804 1.98961V1.9844L1.78117 1.95836ZM2.03638 3.08857C1.677 3.08857 1.36971 2.95836 1.15617 2.70836C1.02596 2.55732 0.953044 2.33336 0.942627 2.1094C0.890544 1.8594 0.942626 1.58857 1.09888 1.37503C1.16658 1.28128 1.24992 1.19794 1.34888 1.14065C1.40096 1.08336 1.47908 1.00524 1.59888 0.885443C1.927 0.55211 2.41138 0.453153 2.82804 0.635443C3.29158 0.838569 3.60929 1.34378 3.58325 1.84378C3.56242 2.3594 3.20304 2.78649 2.62492 2.9844C2.42179 3.05211 2.22388 3.08857 2.03638 3.08857Z" fill="#2E2020"/>
</svg>
