<svg width="32" height="28" viewBox="0 0 32 28" fill="none" xmlns="http://www.w3.org/2000/svg">
<path d="M16.7864 2.16673C15.6405 2.16673 14.4114 2.26569 13.052 2.55735C10.1197 3.18756 6.63533 5.37506 5.22388 7.0209C3.1145 9.47402 2.09367 12.3803 2.34367 15.198C2.53638 17.4167 3.78117 19.9115 4.55721 20.8907C5.84367 22.5261 9.09888 25.1355 12.7708 25.6146C14.651 25.8594 17.427 26.1251 19.7395 25.5938C22.3905 24.974 24.8176 23.6303 26.8228 21.698C26.3749 21.8699 25.8853 22.0417 25.3385 22.2084C23.9322 22.6615 21.828 22.8126 20.0989 22.573C18.8958 22.4115 17.8697 22.0001 17.1249 21.6928L16.8853 21.599C14.7499 20.7449 13.4791 19.6042 12.7812 18.7969C12.4478 18.4011 12.2135 18.0157 12.0312 17.7136C11.927 17.5365 11.8333 17.3751 11.7239 17.2396V17.2344C10.9843 16.3021 10.4426 14.2813 10.4062 12.3282C10.3697 10.1563 10.953 8.18235 12.052 6.76048L12.3645 6.35423C13.0208 5.49485 13.6405 4.68756 14.3853 4.06256C15.3176 3.28131 16.3749 2.6459 17.4947 2.17715C17.2603 2.16673 17.026 2.16673 16.7864 2.16673ZM16.6145 27.7344C15.1093 27.7344 13.6718 27.5782 12.5312 27.4324C7.9895 26.8386 4.39054 23.6407 3.12492 22.0313C2.18221 20.8386 0.755127 17.9792 0.520752 15.3646C0.223878 12.0417 1.40617 8.65631 3.83846 5.82819C5.67179 3.68756 9.63013 1.41673 12.6666 0.770896C15.3124 0.19277 17.5676 0.296937 19.4322 0.474021C20.1197 0.541729 20.8593 0.724022 21.5676 1.01048C22.3541 1.3334 22.4114 1.85944 22.3801 2.1459C22.2916 2.93235 21.5468 3.05215 20.7551 3.17715C20.4166 3.23444 20.0051 3.29694 19.6093 3.3959C18.1353 3.76569 16.7343 4.48444 15.5572 5.47402C14.9687 5.9636 14.4322 6.66152 13.8176 7.46881L13.4999 7.87506C12.6562 8.97402 12.203 10.5417 12.2343 12.2969C12.2655 13.9636 12.7395 15.5678 13.1562 16.099C13.3072 16.2969 13.4426 16.5209 13.5937 16.7605C13.7603 17.0365 13.9322 17.323 14.1718 17.599C14.7291 18.2553 15.7708 19.1876 17.5624 19.9011L17.8124 20.0001C18.4999 20.2761 19.3645 20.6303 20.3437 20.7605C21.802 20.9532 23.6301 20.8386 24.7864 20.4636C26.3437 19.9688 27.3801 19.5313 28.2499 19.0053L28.6249 18.7761C29.8437 18.0209 30.2968 17.7449 30.8541 18.3021C31.151 18.6094 31.1926 19.1042 30.9635 19.4688C28.401 23.5417 24.5624 26.3542 20.151 27.3699C19.0051 27.6407 17.7916 27.7344 16.6145 27.7344Z" fill="#2E2020"/>
</svg>
