<svg width="13" height="13" viewBox="0 0 13 13" fill="none" xmlns="http://www.w3.org/2000/svg">
<path d="M12.6665 6.23956C12.6665 6.6354 12.63 7.02602 12.5519 7.41144C12.4738 7.79685 12.3592 8.17185 12.2082 8.53644C12.0571 8.90102 11.8748 9.24998 11.6561 9.5781C11.4373 9.90102 11.1873 10.2083 10.9113 10.4844C10.63 10.7656 10.328 11.0104 9.99984 11.2291C9.67171 11.4479 9.32796 11.6354 8.96338 11.7864C8.5988 11.9375 8.2238 12.0521 7.83838 12.125C7.44776 12.2031 7.06234 12.2396 6.6665 12.2396C6.27067 12.2396 5.88004 12.2031 5.49463 12.125C5.10921 12.0521 4.73421 11.9375 4.36963 11.7864C4.00504 11.6354 3.6613 11.4479 3.33317 11.2291C3.00505 11.0104 2.70296 10.7656 2.42171 10.4844C2.14567 10.2083 1.89567 9.90102 1.67692 9.5781C1.45817 9.24998 1.27588 8.90102 1.12484 8.53644C0.973796 8.17185 0.859211 7.79685 0.781087 7.41144C0.702962 7.02602 0.666504 6.6354 0.666504 6.23956C0.666504 5.84894 0.702962 5.45831 0.781087 5.0729C0.859211 4.68748 0.973796 4.31248 1.12484 3.9479C1.27588 3.58331 1.45817 3.23435 1.67692 2.90623C1.89567 2.58331 2.14567 2.27602 2.42171 1.99998C2.70296 1.71873 3.00505 1.47394 3.33317 1.25519C3.6613 1.03644 4.00504 0.848938 4.36963 0.697896C4.73421 0.546854 5.10921 0.432272 5.49463 0.359355C5.88004 0.281231 6.27067 0.239563 6.6665 0.239563C7.06234 0.239563 7.44776 0.281231 7.83838 0.359355C8.2238 0.432272 8.5988 0.546854 8.96338 0.697896C9.32796 0.848938 9.67171 1.03644 9.99984 1.25519C10.328 1.47394 10.63 1.71873 10.9113 1.99998C11.1873 2.27602 11.4373 2.58331 11.6561 2.90623C11.8748 3.23435 12.0571 3.58331 12.2082 3.9479C12.3592 4.31248 12.4738 4.68748 12.5519 5.0729C12.63 5.45831 12.6665 5.84894 12.6665 6.23956Z" fill="black"/>
</svg>
