<svg width="8" height="8" viewBox="0 0 8 8" fill="none" xmlns="http://www.w3.org/2000/svg">
<path d="M3.96891 0.703125C3.521 0.703125 3.0887 0.791667 2.67204 0.963542C2.25537 1.13542 1.89079 1.38021 1.57308 1.69271C1.25537 2.01042 1.01058 2.38021 0.838704 2.79167C0.66683 3.20833 0.583496 3.64063 0.583496 4.08854C0.583496 4.53646 0.66683 4.96875 0.838704 5.38542C1.01058 5.79688 1.25537 6.16667 1.57308 6.47917C1.89079 6.79688 2.25537 7.04167 2.67204 7.21354C3.0887 7.38542 3.521 7.47396 3.96891 7.47396C4.41683 7.47396 4.84912 7.38542 5.26058 7.21354C5.67725 7.04167 6.04183 6.79688 6.35954 6.47917C6.67725 6.16667 6.92204 5.79688 7.09391 5.38542C7.26579 4.96875 7.35433 4.53646 7.35433 4.08854C7.35433 3.64063 7.26579 3.20833 7.09391 2.79167C6.92204 2.38021 6.67725 2.01042 6.35954 1.69271C6.04183 1.38021 5.67725 1.13542 5.26058 0.963542C4.84912 0.791667 4.41683 0.703125 3.96891 0.703125Z" fill="#F1BC19"/>
</svg>
