<svg width="11" height="7" viewBox="0 0 11 7" fill="none" xmlns="http://www.w3.org/2000/svg">
<path d="M7.62489 1.93229C6.99989 1.94271 6.42176 2.07812 5.90093 2.41667C5.08322 2.94271 4.0676 3.80729 3.40614 4.47917C4.23426 4.13541 5.21864 3.47396 5.95301 2.97917C6.45822 2.64062 6.92176 2.32812 7.30718 2.10937C7.41135 2.05729 7.51551 1.99479 7.62489 1.93229ZM2.49468 6.54687C2.39051 6.54687 2.29156 6.54166 2.1926 6.53125C1.23426 6.42187 1.0051 5.75 0.958223 5.54687C0.541556 3.76041 4.86447 0.906249 4.90614 0.880207C6.61968 -0.22396 8.53114 0.0989566 9.92176 0.328123C10.4791 0.416665 10.7395 0.817706 10.7968 1.16146C10.8801 1.60937 10.9738 2.17187 8.19781 3.71354C7.84885 3.91146 7.42697 4.19271 6.97385 4.5C5.54156 5.46354 3.92697 6.54687 2.49468 6.54687Z" fill="#2E2020"/>
</svg>
