<svg width="16" height="24" viewBox="0 0 16 24" fill="none" xmlns="http://www.w3.org/2000/svg">
<path fill-rule="evenodd" clip-rule="evenodd" d="M6.55741 13.823C6.55741 16.3802 0.369906 20.5521 1.20845 23.6198C1.68241 25.349 6.15115 18.3646 6.53136 17.7292C6.97928 16.9844 6.83866 14.9948 7.63032 15.3646C7.79178 15.4375 9.08866 24.4636 11.0418 21.9063C12.4897 20.0157 9.18241 14.6563 9.78657 13.9427C10.323 13.3021 16.1876 14.3073 15.9897 11.9896C15.8126 9.86462 10.7605 11.7917 10.5574 11.5365C10.0418 10.8907 11.8491 4.33337 11.8334 3.19275C11.8334 3.13025 11.4793 0.625039 10.9272 0.927121C8.99491 2.00525 8.54699 5.46358 8.19803 7.43754C8.1772 7.55212 8.03657 11.2344 7.75011 11.3802C7.45324 11.5365 1.89074 5.7865 0.625114 9.73962C-0.192594 12.2917 6.55741 12.0573 6.55741 13.823Z" fill="#E2635B"/>
</svg>
