<svg width="22" height="31" viewBox="0 0 22 31" fill="none" xmlns="http://www.w3.org/2000/svg">
<path d="M12.8854 2.59377C10.3593 2.59377 7.80204 3.53127 5.88016 4.95835C2.43745 7.51043 1.23433 11.1563 2.65099 14.7031C3.47391 16.7709 5.70829 17.5886 8.07287 18.4584C10.5729 19.375 13.1614 20.3229 14.5312 22.8125C14.9322 22.5313 15.3489 22.2604 15.7552 22C16.7135 21.3906 17.6197 20.8073 18.0937 20.1719C20.2552 17.2917 21.151 6.70835 18.2552 4.39064C16.677 3.12502 14.7916 2.59377 12.8854 2.59377ZM16.3281 30.7344C16.0937 30.7344 15.8593 30.6406 15.6822 30.4636C15.3281 30.1094 15.3281 29.5313 15.6822 29.1667C15.9114 28.9427 16.0989 28.7552 16.25 28.6042C16.427 28.4011 16.6302 28.2031 16.8177 28.0313C16.9895 27.8646 17.2083 27.7813 17.4322 27.7813C17.651 27.5938 17.9114 27.3646 18.2187 27.0886C18.4322 26.8959 18.6041 26.7344 18.7447 26.5938C18.0312 26.6771 17.0677 26.8646 16.3958 27C14.0208 27.4636 12.9479 27.6459 12.3281 27.0261C12.0625 26.7552 11.9531 26.3802 12.0312 26C12.1822 25.2292 12.5781 24.5834 13.1093 24.0156C13.0729 23.9688 13.0416 23.9167 13.0156 23.8646C12.0104 21.849 9.79162 21.0365 7.44266 20.1719C4.80724 19.2084 2.07808 18.2084 0.953078 15.3802C-0.765673 11.0834 0.703078 6.52085 4.78641 3.4896C8.72391 0.562516 15.0052 -0.552066 19.3958 2.96356C23.4375 6.20314 22.026 17.9792 19.5572 21.2709C18.8854 22.1719 17.7968 22.8698 16.7395 23.5469C15.7656 24.1719 14.7708 24.8073 14.2187 25.5313C14.7812 25.4479 15.4947 25.3073 16.0468 25.2031C18.5677 24.7084 20.3854 24.349 20.9635 25.5052C21.4635 26.5261 20.4375 27.5625 19.4322 28.4584C18.2031 29.5521 17.5156 30.1615 17.0468 30.3959C17.0208 30.4167 17 30.4427 16.9739 30.4636C16.7968 30.6406 16.5625 30.7344 16.3281 30.7344Z" fill="#2E2020"/>
</svg>
