<svg width="28" height="19" viewBox="0 0 28 19" fill="none" xmlns="http://www.w3.org/2000/svg">
<path d="M14.9216 18.7552C13.4737 18.7552 12.0623 18.5312 10.7602 17.9948C4.96851 15.5989 0.926843 9.68226 0.463302 2.92705C0.369552 1.5156 1.42684 0.296845 2.83309 0.197888C4.23934 0.0989293 5.45809 1.16664 5.55705 2.5781C5.88518 7.40622 8.69768 11.6041 12.7081 13.2656C14.8696 14.1562 18.5935 13.4739 23.781 11.2239C24.0883 11.0937 24.3123 10.9948 24.4946 10.9271C25.8123 10.4218 27.2862 11.0885 27.7862 12.4062C28.2862 13.7291 27.6248 15.2083 26.3071 15.7083C26.2341 15.7396 26.005 15.8333 25.8071 15.9218C22.7654 17.2396 18.7133 18.7552 14.9216 18.7552Z" fill="#E07769"/>
</svg>
