<svg width="11" height="121" viewBox="0 0 11 121" fill="none" xmlns="http://www.w3.org/2000/svg">
<path d="M1.37508 120.771C0.869873 120.771 0.463623 120.359 0.463623 119.854C0.463623 111.578 2.6355 103.375 4.73446 95.4427C6.47404 88.8697 8.27612 82.0729 8.79175 75.3489C9.70321 63.4999 8.08862 52.1562 6.53133 41.177C4.72925 28.4999 2.86987 15.3906 4.86467 1.43224C4.93237 0.932236 5.39071 0.572861 5.89592 0.656195C6.39592 0.729111 6.73967 1.19265 6.67196 1.69786C4.71362 15.3958 6.55737 28.3697 8.34383 40.9166C9.91675 51.9895 11.5417 63.4427 10.6147 75.4895C10.0834 82.3801 8.2605 89.2604 6.50008 95.9114C4.42716 103.729 2.29175 111.812 2.29175 119.854C2.29175 120.359 1.88029 120.771 1.37508 120.771Z" fill="#2E2020"/>
</svg>
