<svg width="16" height="41" viewBox="0 0 16 41" fill="none" xmlns="http://www.w3.org/2000/svg">
<path d="M12.5417 40.4791C12.0834 40.4791 11.6927 40.1406 11.6355 39.6823C11.573 39.1771 11.9271 38.7187 12.4323 38.6614C12.9375 38.5989 13.2657 38.3646 13.4844 37.9375C13.9792 36.9271 13.6927 35.0573 13.1094 34.0521C11.8542 31.8958 9.849 30.5312 7.72921 29.0937C5.86462 27.8229 3.93233 26.5156 2.47921 24.5937C-0.28642 20.9375 0.984413 17.0364 2.32816 12.9114C2.65108 11.9114 2.99483 10.875 3.27087 9.8281C3.89587 7.52601 4.45837 4.47393 3.31775 1.24476C3.14587 0.765598 3.39587 0.244764 3.86983 0.0728894C4.349 -0.0937773 4.86983 0.151014 5.0365 0.624973C6.349 4.33331 5.72921 7.74997 5.0365 10.3073C4.74483 11.3958 4.40108 12.4583 4.06775 13.4791C2.82296 17.2968 1.75004 20.5937 3.93754 23.4896C5.21358 25.1666 6.93233 26.3385 8.76046 27.5781C10.9532 29.0677 13.2188 30.6146 14.6875 33.125C15.4115 34.3646 16.0209 36.9271 15.1198 38.75C14.6302 39.7396 13.7761 40.3333 12.6511 40.4739C12.6146 40.4791 12.5782 40.4791 12.5417 40.4791Z" fill="#2E2020"/>
</svg>
