<svg width="91" height="88" viewBox="0 0 91 88" fill="none" xmlns="http://www.w3.org/2000/svg">
<path fill-rule="evenodd" clip-rule="evenodd" d="M11.875 51.4428C11.875 51.4428 9.62495 45.0157 8.93224 42.1771C8.23432 39.3438 7.6562 32.224 7.59891 29.2084C7.54162 26.2032 8.41141 20.4115 9.2187 18.2709C10.026 16.1303 13.3229 10.7448 15 8.89588C16.677 7.04172 21.302 3.97401 23.0312 2.81255C24.7656 1.6563 27.8906 0.849009 29.8541 0.505259C31.8177 0.156301 33.552 0.0937995 35.5208 0.791717C37.4895 1.48442 38.5833 1.48443 39.9114 1.13547C41.2447 0.791718 44.7656 1.08338 46.3854 1.77609C48.0052 2.4688 52.3385 5.47922 54.3072 7.10422C56.276 8.7188 58.5833 12.0209 59.7968 14.0469C61.0104 16.073 62.4583 19.198 63.2656 21.573C64.0781 23.9428 65.5208 28.3438 66.0416 30.6563C66.5625 32.974 66.0416 36.6198 67.6614 35.7553C69.276 34.8855 70.9531 34.1876 72.802 34.3073C74.6562 34.4219 76.7343 35.349 78.1197 36.6198C79.5104 37.8959 80.9531 40.2084 81.8229 42.1771C82.6875 44.1459 83.0937 48.1355 83.151 50.9167C83.2083 53.698 82.8645 61.4584 83.2083 63.8282C83.552 66.2032 84.1927 69.9584 85.2343 71.4688C86.2708 72.974 87.0208 74.4219 88.4062 76.3282C89.7968 78.2396 90.6093 78.474 90.4895 80.6146C90.375 82.7553 89.625 84.3178 88.1197 84.0886C86.6145 83.8542 85.177 83.1042 81.8802 82.7553C80.1197 82.5678 78.6041 82.3334 77.0104 82.0365C76.276 81.8907 78.4791 80.7501 78.5989 78.5313C78.7135 76.5782 76.8645 73.6251 74.8229 72.0261C74.0677 71.4376 66.6093 67.5521 65.8854 63.3126C65.5989 61.6146 68.052 54.4011 68.7552 48.8438C69.1093 46.0313 68.7291 42.823 67.8958 42.6615C66.5312 42.3855 65.3958 44.198 63.5416 46.0469C60.9843 48.599 34.625 65.2501 33.2604 64.2917C30.4895 62.323 26.2968 60.3542 24.3645 60.1771C22.4322 60.0001 20.9114 60.2917 19.2187 59.6511C17.5208 59.0053 17.9322 60.4688 17.8125 62.4636C17.6979 64.4532 17.6406 65.5053 18.6354 68.1407C19.6302 70.7761 19.8593 73.7032 20.9114 75.6928C21.9687 77.6876 22.4947 79.7969 22.4322 81.4948C22.375 83.1928 21.2083 84.948 18.5781 85.7657C15.9427 86.5834 13.3697 87.5834 10.5625 87.8751C7.75516 88.1667 2.31766 77.5678 1.26558 74.698C0.213492 71.8282 0.505158 69.073 1.26558 66.3803C2.02599 63.6876 3.36974 61.9323 5.01037 59.8803C6.64578 57.8334 7.98953 57.599 8.98433 56.4271C9.97912 55.2553 10.0364 55.6094 10.9114 53.849C11.7916 52.0938 11.875 51.4428 11.875 51.4428Z" fill="#4A3E3E"/>
</svg>
