<svg width="15" height="23" viewBox="0 0 15 23" fill="none" xmlns="http://www.w3.org/2000/svg">
<path d="M0.963492 22.9011C0.921826 22.9011 0.874951 22.8958 0.833284 22.8906C0.333284 22.8177 -0.0156751 22.3542 0.0572422 21.8542C0.817658 16.5573 3.81245 13.5 6.98433 10.2552C8.19787 9.01564 9.45308 7.72918 10.5989 6.29168C11.4895 5.16668 11.9427 3.7396 12.4166 2.22918C12.5104 1.92189 12.6145 1.6198 12.7135 1.31251C12.8697 0.838553 13.3854 0.57293 13.8645 0.734387C14.3489 0.890638 14.6041 1.41147 14.4479 1.89064C14.3489 2.18751 14.2552 2.48439 14.1614 2.78126C13.6562 4.38543 13.1302 6.04168 12.026 7.4323C10.8281 8.94272 9.53641 10.2656 8.29162 11.5365C5.20828 14.6927 2.54682 17.4167 1.86974 22.1146C1.80203 22.5729 1.41141 22.9011 0.963492 22.9011Z" fill="#2E2020"/>
</svg>
