<svg width="68" height="151" viewBox="0 0 68 151" fill="none" xmlns="http://www.w3.org/2000/svg">
<path d="M26.6562 150.286C26.2344 150.286 25.8125 150.208 25.5208 149.865C25.0938 149.344 25.2448 148.922 25.9792 146.88C26.9427 144.177 28.75 139.146 28.7396 134.552C28.7344 130.547 26.8125 126.823 25.7865 124.818C25.1615 123.604 24.9531 123.198 25.1615 122.677C25.9531 120.693 29.5885 120.177 33.5625 119.786C34.2083 119.719 34.75 119.672 35.1094 119.609C37.375 119.234 39.8073 118.109 42.3802 116.917C48.1198 114.266 54.6198 111.26 60.276 116.922C60.6354 117.281 60.6354 117.859 60.276 118.219C59.9219 118.573 59.3385 118.573 58.9844 118.219C54.2292 113.458 48.8438 115.943 43.151 118.578C40.5781 119.766 37.9219 121 35.4062 121.417C35.0208 121.479 34.4375 121.542 33.7396 121.609C32.0938 121.771 27.901 122.182 27 123.151C27.099 123.365 27.2656 123.687 27.4115 123.979C28.4375 125.969 30.5625 130.099 30.5677 134.547C30.5781 139.464 28.7031 144.687 27.6979 147.495C27.5885 147.802 27.4688 148.13 27.3698 148.417C33.1927 147.661 62.3438 138.234 64.7396 134.51C66.2552 132.146 65.8906 128.818 65.5729 125.88L65.4635 124.859C64.4948 115.151 54.3073 53.8125 42.1719 39.052C37.3021 33.1354 29.5833 31.7656 22.1198 30.4375C16.0313 29.3593 10.2812 28.3333 6.5625 24.8645C2.32812 20.9166 0.817708 9.79162 0.291666 1.151C0.255208 0.645789 0.645833 0.213497 1.14583 0.182247C1.63542 0.140581 2.08333 0.531206 2.11458 1.04162C2.82812 12.7812 4.84896 20.7656 7.8125 23.526C11.1354 26.625 16.625 27.5989 22.4375 28.6354C29.8698 29.9531 38.2917 31.4479 43.5781 37.8906C56.0312 53.0312 66.1667 113.479 67.2865 124.672L67.3958 125.682C67.7292 128.76 68.1458 132.589 66.276 135.5C63.2552 140.203 31.8021 149.979 26.9271 150.276C26.8333 150.281 26.7448 150.286 26.6562 150.286Z" fill="#2E2020"/>
</svg>
