<svg width="45" height="46" viewBox="0 0 45 46" fill="none" xmlns="http://www.w3.org/2000/svg">
<path fill-rule="evenodd" clip-rule="evenodd" d="M4.45837 0.734302C6.77087 5.15618 9.50004 8.41659 10.4323 13.2656C12.5469 24.2395 8.98962 41.6926 24.6719 43.3228C29.5677 43.8333 35.0834 42.7343 38.4688 38.9947C39.8438 37.4739 41.448 35.9739 42.3907 34.1978C42.7188 33.5937 42.9323 30.9374 43.8646 31.4947C45.9948 32.7708 41.3907 38.8853 40.3334 39.8541C31.0782 48.302 16.3698 48.7916 10.448 35.8437C8.44274 31.4687 9.54691 25.9166 8.77608 21.0937C7.76566 14.8541 0.432328 11.6249 0.130244 5.58847C0.036495 3.63014 3.15108 -1.75007 4.45837 0.734302Z" fill="#D39760"/>
</svg>
