<svg width="15" height="15" viewBox="0 0 15 15" fill="none" xmlns="http://www.w3.org/2000/svg">
<path d="M3.8074 7.65107L6.00011 8.66148C6.27615 8.78648 6.46885 9.04169 6.51573 9.33857L6.92719 11.7188L8.56781 9.94794C8.77615 9.72398 9.07302 9.61982 9.3699 9.66148L11.7553 10.0104L10.5782 7.89586C10.4324 7.63544 10.422 7.31773 10.5574 7.0469L11.6251 4.88023L9.25531 5.34898C8.96886 5.40627 8.65636 5.31773 8.43761 5.1094L6.71365 3.4219L6.42719 5.82294C6.39594 6.11982 6.21365 6.38544 5.94281 6.52607L3.8074 7.65107ZM6.33865 14.6198C6.25531 14.6198 6.16677 14.6094 6.08344 14.5834C5.7449 14.4844 5.50011 14.2031 5.43761 13.8594L4.79698 10.125L1.35948 8.53127C1.04698 8.39065 0.838647 8.07294 0.828231 7.72919C0.823023 7.37502 1.01052 7.05732 1.31781 6.89065L4.66677 5.13023L5.11469 1.3594C5.15636 1.01565 5.38552 0.723983 5.71886 0.604191C6.04177 0.494816 6.41156 0.567732 6.66156 0.812524L9.37511 3.45836L13.0834 2.72398C13.4168 2.66148 13.7761 2.78648 13.9897 3.06252C14.198 3.33857 14.2345 3.71357 14.0886 4.02607L12.4064 7.42711L14.2605 10.7344C14.4272 11.0365 14.4116 11.4115 14.2136 11.7031C14.0209 11.9844 13.6824 12.1406 13.3282 12.0886L9.58344 11.5417L7.01052 14.3281C6.83344 14.5156 6.59386 14.6198 6.33865 14.6198Z" fill="#2E2020"/>
</svg>
