<svg width="9" height="15" viewBox="0 0 9 15" fill="none" xmlns="http://www.w3.org/2000/svg">
<path d="M4.75529 14.1407C4.72925 14.1407 4.698 14.1407 4.67196 14.1354C3.38029 14.0625 2.31779 12.4115 2.09383 11.7344C1.93758 11.2552 2.198 10.7344 2.67717 10.5782C3.15113 10.4115 3.67196 10.6771 3.83342 11.1563C3.93238 11.4688 4.38029 12.0521 4.67717 12.25C4.67717 12.2396 4.68238 12.2292 4.68758 12.2188C5.79175 9.85419 6.57821 5.45836 6.38029 2.81773C6.33863 2.31253 6.12508 2.15107 5.95842 2.07294C5.49488 1.84377 4.69279 1.96877 4.10425 2.36461C3.17196 2.9844 3.17196 2.9844 2.80217 3.44273L2.47925 3.85419C2.16154 4.24482 1.58342 4.30211 1.19279 3.97919C0.802167 3.66148 0.744876 3.08336 1.06258 2.69273L1.36988 2.30732C1.91675 1.61982 2.00529 1.56253 3.07821 0.843776C4.22925 0.0729441 5.70321 -0.088515 6.7605 0.421901C7.61467 0.838568 8.12508 1.64586 8.20321 2.68232C8.42717 5.62503 7.573 10.349 6.34904 12.9896C5.88029 14 5.13029 14.1407 4.75529 14.1407Z" fill="#2E2020"/>
</svg>
