<svg width="8" height="15" viewBox="0 0 8 15" fill="none" xmlns="http://www.w3.org/2000/svg">
<path d="M1.80728 2.36458C1.92187 3.67187 2.55728 6.0677 2.80728 6.64583C2.99478 7.0052 3.19791 7.4375 3.40624 7.90104C3.96353 9.10416 4.60416 10.5052 5.4427 11.4167C5.29166 11.0521 5.15103 10.7187 5.0677 10.526C4.94791 10.2604 4.85937 10.0469 4.8177 9.9375C4.58853 9.29166 4.37499 8.54687 4.15624 7.7552C3.61978 5.85416 2.97395 3.54687 1.80728 2.36458ZM6.73437 14.1562C6.65103 14.1562 6.5677 14.1458 6.47916 14.125C4.0052 13.5729 2.7552 10.849 1.74478 8.66666C1.54687 8.23437 1.35416 7.82291 1.16666 7.45833C1.14062 7.40104 -0.937508 1.72916 0.510408 0.427078C0.734366 0.213537 1.36458 -0.192712 2.3177 0.427078C4.37499 1.77083 5.22916 4.8125 5.91666 7.26041C6.12499 8.01562 6.32291 8.73437 6.53645 9.3125C6.57291 9.40104 6.64582 9.57812 6.74478 9.80729C7.79166 12.2344 8.05207 13.151 7.53645 13.776C7.33332 14.0208 7.04687 14.1562 6.73437 14.1562Z" fill="#2E2020"/>
</svg>
