<svg width="33" height="16" viewBox="0 0 33 16" fill="none" xmlns="http://www.w3.org/2000/svg">
<path d="M1.32287 15.6198C0.916618 15.6198 0.546827 15.349 0.437452 14.9427C-0.171923 12.651 2.52599 10.4635 4.30724 9.01563C4.58329 8.78126 4.82808 8.58334 5.01558 8.41667C5.58329 7.91667 6.18745 7.3073 6.82808 6.65626C8.27079 5.19792 9.76558 3.68751 11.3593 2.85938C15.052 0.942713 20.6093 0.447923 24.6614 0.0937548C26.8593 -0.0937438 30.9114 0.187505 32.3385 2.4375C32.8541 3.2448 33.2187 4.64063 32.0364 6.6823C31.7812 7.1198 31.2239 7.27084 30.7812 7.01563C30.3489 6.76042 30.1979 6.20313 30.4531 5.76042C31.0364 4.76042 31.151 3.97396 30.7968 3.42188C30.0364 2.21875 27.1718 1.70834 24.8489 1.91667C20.9218 2.26042 15.5729 2.73438 12.1979 4.48438C10.8593 5.17709 9.4687 6.58334 8.13016 7.94271C7.4687 8.61459 6.83849 9.25001 6.22912 9.79167C6.02599 9.97396 5.75516 10.1875 5.45829 10.4323C4.30204 11.3698 1.90099 13.3229 2.20829 14.4688C2.33329 14.9583 2.04162 15.4583 1.55724 15.5885C1.47912 15.6094 1.40099 15.6198 1.32287 15.6198Z" fill="#2E2020"/>
</svg>
