<svg width="111" height="143" viewBox="0 0 111 143" fill="none" xmlns="http://www.w3.org/2000/svg">
<path d="M103.344 4.69267C103.12 4.69267 102.896 4.60934 102.719 4.44267C101.302 3.11976 99.6927 2.41663 97.8177 2.29684C97.3125 2.26559 96.9271 1.82809 96.9635 1.32288C96.9948 0.817672 97.4271 0.437466 97.9323 0.468715C100.219 0.61455 102.25 1.50517 103.964 3.10934C104.333 3.45309 104.354 4.03122 104.01 4.40101C103.828 4.59371 103.583 4.69267 103.344 4.69267ZM86.3958 5.93226C86.0677 5.93226 85.7552 5.75517 85.5885 5.44788C85.349 5.00517 85.5156 4.44788 85.9583 4.2083C88.2292 2.98955 89.9688 2.17705 91.6042 1.5833C92.0781 1.41142 92.6042 1.65622 92.776 2.13017C92.9479 2.60413 92.7031 3.13017 92.2292 3.30205C90.6771 3.86976 89.0156 4.6458 86.8229 5.82288C86.6875 5.8958 86.5365 5.93226 86.3958 5.93226ZM76.4167 12.625C76.276 12.625 76.1354 12.5937 76 12.5208C75.5469 12.2864 75.375 11.7343 75.6094 11.2864C76.7083 9.16142 78.724 7.92184 80.5469 6.98434C81 6.74997 81.5469 6.93226 81.7812 7.38017C82.0104 7.8333 81.8333 8.38538 81.3802 8.61455C79.7344 9.4583 78.0938 10.4687 77.2292 12.1302C77.0677 12.4427 76.7448 12.625 76.4167 12.625ZM85.4271 14.9687C85.2604 14.9687 85.0938 14.9218 84.9427 14.8281C83.5208 13.9323 81.776 13.8125 79.875 14.4843C79.3958 14.6562 78.875 14.4062 78.7083 13.927C78.5365 13.4531 78.7865 12.927 79.2656 12.7604C81.6979 11.8958 84.026 12.0833 85.9167 13.2812C86.349 13.552 86.474 14.1145 86.2031 14.5416C86.0312 14.8177 85.7344 14.9687 85.4271 14.9687ZM108.693 15.4739C108.271 15.4739 107.891 15.1875 107.802 14.7552C107.385 12.8437 106.75 10.9739 105.917 9.17184C105.703 8.71351 105.906 8.17184 106.359 7.9583C106.818 7.74476 107.359 7.94267 107.578 8.40622C108.464 10.3177 109.141 12.3229 109.583 14.3645C109.693 14.8593 109.38 15.3437 108.885 15.4583C108.818 15.4687 108.755 15.4739 108.693 15.4739ZM69.9479 21.8333C69.7344 21.8333 69.5208 21.7604 69.349 21.6145C68.9688 21.2812 68.9271 20.7031 69.2552 20.3229C70.6615 18.6927 72.1458 17.276 73.7969 16.0052C74.1927 15.6927 74.7708 15.7708 75.0729 16.1718C75.3854 16.5677 75.3125 17.1458 74.9115 17.4531C73.3594 18.651 71.9635 19.9791 70.6406 21.5156C70.4583 21.7291 70.2031 21.8333 69.9479 21.8333ZM80.4635 23.0989C80.2448 23.0989 80.026 23.0208 79.8542 22.8645C78.8906 22 77.875 20.9166 77.5938 20.6041C76.8177 19.7448 76.1875 18.8593 75.724 17.9739C75.4896 17.526 75.6615 16.9739 76.1094 16.7395C76.5573 16.5 77.1094 16.677 77.349 17.1198C77.7396 17.8698 78.276 18.6302 78.9479 19.3802C79.2135 19.6718 80.1719 20.6875 81.0729 21.5052C81.4531 21.8437 81.4844 22.4218 81.1458 22.7968C80.9635 23 80.7135 23.0989 80.4635 23.0989ZM86.0677 24.8802C85.651 24.8802 85.276 24.5989 85.1771 24.1718C85.0677 23.6823 85.3698 23.1927 85.8594 23.0729C87.5729 22.677 87.7552 20.8541 87.7552 20.0885C87.7552 19.802 87.7344 19.5 87.6875 19.2031C87.6094 18.7031 87.9531 18.2343 88.4531 18.1614C88.9583 18.0885 89.4167 18.4323 89.4948 18.927C89.5573 19.3229 89.5833 19.7135 89.5833 20.0885C89.5833 22.5573 88.3177 24.3854 86.276 24.8593C86.2083 24.875 86.1354 24.8802 86.0677 24.8802ZM108.734 27.5937C108.672 27.5937 108.615 27.5885 108.557 27.5781C108.062 27.4843 107.734 27.0052 107.833 26.5052C108.219 24.5156 108.411 22.5312 108.411 20.6145C108.417 20.1145 108.823 19.7031 109.328 19.7031H109.333C109.833 19.7031 110.245 20.1145 110.245 20.6198C110.245 22.651 110.031 24.75 109.63 26.8541C109.542 27.2916 109.161 27.5937 108.734 27.5937ZM63.4375 32.1145C63.2969 32.1145 63.1615 32.0833 63.0312 32.0156C62.5781 31.7916 62.3958 31.2395 62.625 30.7864C63.7083 28.6302 64.6562 26.9062 65.599 25.375C65.8594 24.9479 66.4219 24.8125 66.8542 25.0781C67.2865 25.3437 67.4219 25.9062 67.1562 26.3385C66.2448 27.8229 65.3177 29.5 64.2552 31.6145C64.099 31.9323 63.7708 32.1145 63.4375 32.1145ZM104.62 39.0416C104.474 39.0416 104.328 39.0052 104.193 38.9375C103.745 38.7031 103.573 38.151 103.807 37.7031C104.755 35.8854 105.573 34.0468 106.229 32.2395C106.406 31.7604 106.927 31.5208 107.401 31.6875C107.875 31.8645 108.12 32.3854 107.948 32.8645C107.26 34.75 106.417 36.6614 105.432 38.5468C105.266 38.8646 104.948 39.0416 104.62 39.0416ZM57.9688 43.0208C57.8177 43.0208 57.6615 42.9843 57.5208 42.901C57.0781 42.6562 56.9219 42.0989 57.1667 41.6562C58.224 39.7812 59.1667 37.8854 59.9479 36.2864C60.1667 35.8281 60.7135 35.6406 61.1719 35.8593C61.6198 36.0833 61.8125 36.6302 61.5885 37.0833C60.7969 38.7135 59.8438 40.6354 58.7656 42.552C58.599 42.8541 58.2865 43.0208 57.9688 43.0208ZM97.8438 49.1718C97.6406 49.1718 97.4375 49.1041 97.2708 48.9635C96.8802 48.6406 96.8229 48.0625 97.1406 47.677C98.4375 46.0989 99.651 44.4791 100.734 42.8541C101.016 42.4375 101.589 42.3229 102.005 42.6041C102.422 42.8854 102.536 43.4583 102.25 43.8802C101.135 45.5468 99.8906 47.2135 98.5521 48.8385C98.375 49.0573 98.1094 49.1718 97.8438 49.1718ZM50.75 52.7968C50.5104 52.7968 50.2708 52.7031 50.0885 52.5156C49.7396 52.151 49.7552 51.5677 50.1198 51.2187L50.2135 51.1302C51.5573 49.7812 52.7865 48.3385 53.9635 46.7135C54.2604 46.3073 54.8281 46.2135 55.2448 46.5104C55.651 46.8073 55.7396 47.3854 55.4427 47.7916C54.2083 49.4948 52.9219 51.0104 51.5156 52.4218L51.3854 52.5468C51.2083 52.7187 50.9792 52.7968 50.75 52.7968ZM34.3802 54.6041C34.0885 54.6041 33.8021 54.4687 33.625 54.2135C32.7292 52.9166 32.2812 51.25 32.2812 49.2448C32.2812 48.7395 32.6875 48.3281 33.1927 48.3281C33.7031 48.3281 34.1094 48.7395 34.1094 49.2448C34.1094 50.8698 34.4531 52.1875 35.1302 53.1718C35.4167 53.5885 35.3125 54.1562 34.8958 54.4479C34.7344 54.5573 34.5573 54.6041 34.3802 54.6041ZM40.0833 57.1562C39.9323 57.1562 39.776 57.1562 39.625 57.151C39.125 57.1302 38.7292 56.7031 38.75 56.1979C38.7656 55.6927 39.1354 55.276 39.6979 55.3229C41.4271 55.3802 43.349 55.0104 45.2708 54.2448C45.7396 54.0625 46.276 54.2864 46.4583 54.7604C46.6458 55.2291 46.4167 55.7604 45.9479 55.9479C43.9531 56.7395 41.9271 57.1562 40.0833 57.1562ZM89.3177 57.8854C89.0625 57.8854 88.8021 57.776 88.625 57.5677C88.2969 57.1823 88.3333 56.6041 88.7188 56.2708C90.2448 54.9583 91.724 53.5677 93.1198 52.151C93.474 51.7916 94.0469 51.7864 94.4115 52.1406C94.7708 52.4948 94.776 53.0729 94.4167 53.4323C92.9948 54.8906 91.4792 56.3125 89.9167 57.6614C89.7396 57.8125 89.5312 57.8854 89.3177 57.8854ZM79.4583 65.0468C79.151 65.0468 78.8438 64.8854 78.6771 64.5989C78.4115 64.1718 78.5573 63.6041 78.9896 63.3489C80.6771 62.3281 82.3646 61.2135 84.0052 60.0208C84.4115 59.7187 84.9844 59.8125 85.2812 60.2187C85.5781 60.6302 85.4844 61.2031 85.0781 61.5C83.401 62.7239 81.6667 63.8698 79.9271 64.9166C79.7812 65.0052 79.6146 65.0468 79.4583 65.0468ZM68.4427 70.2291C68.0573 70.2291 67.7031 69.9895 67.5729 69.6041C67.4115 69.1302 67.6719 68.6093 68.1458 68.4479C69.9583 67.8385 71.8281 67.0781 73.6979 66.1927C74.1562 65.9791 74.6979 66.1718 74.9115 66.625C75.1302 67.0833 74.9323 67.6302 74.4792 67.8489C72.5469 68.7656 70.6146 69.5468 68.7292 70.1823C68.6354 70.2187 68.5365 70.2291 68.4427 70.2291ZM32.1406 71.5625C31.6823 71.5625 31.2865 71.2187 31.2292 70.75C31.1771 70.25 31.5365 69.7968 32.0365 69.7343C33.9531 69.5156 36.0625 69.4427 38.25 69.4948C38.7552 69.5104 39.151 69.9323 39.1406 70.4323C39.125 70.9323 38.724 71.3281 38.224 71.3281C38.2188 71.3281 38.2083 71.3281 38.2031 71.3281C36.099 71.276 34.0781 71.3437 32.2448 71.5573C32.2135 71.5625 32.1771 71.5625 32.1406 71.5625ZM50.3906 72.177C50.3698 72.177 50.349 72.177 50.3333 72.177C48.7344 72.0781 47.1615 71.9427 45.599 71.8125L44.2344 71.6927C43.7292 71.651 43.3594 71.2083 43.3958 70.7031C43.4375 70.2031 43.8698 69.8385 44.3906 69.8698L45.7552 69.9895C47.3021 70.1198 48.8646 70.25 50.4479 70.3489C50.9479 70.3802 51.3281 70.8177 51.3021 71.3229C51.2708 71.8073 50.8646 72.177 50.3906 72.177ZM56.474 72.3177C55.9844 72.3177 55.5729 71.927 55.5625 71.427C55.5521 70.9218 55.9427 70.5 56.4531 70.4895C58.375 70.4375 60.1615 70.276 61.9062 70.0052L62.3854 69.9323C62.8958 69.8489 63.3542 70.177 63.4375 70.677C63.526 71.1718 63.1927 71.6458 62.6927 71.7343L62.1823 71.8177C60.3646 72.1041 58.5052 72.2656 56.5 72.3177C56.4896 72.3177 56.4844 72.3177 56.474 72.3177ZM20.6406 75.3281C20.3281 75.3281 20.0156 75.1666 19.849 74.875C19.5938 74.4323 19.7448 73.875 20.1823 73.625C22.026 72.5625 23.9479 71.6927 25.9115 71.0573C26.3854 70.901 26.9063 71.1614 27.0625 71.6458C27.2188 72.125 26.9583 72.6458 26.474 72.802C24.6094 73.4062 22.8542 74.1927 21.099 75.2083C20.9531 75.2916 20.7969 75.3281 20.6406 75.3281ZM11.4792 83.2552C11.2813 83.2552 11.0781 83.1927 10.9115 83.0625C10.5156 82.75 10.4531 82.1718 10.7604 81.776C12.0677 80.1198 13.5208 78.5989 15.0833 77.25C15.4635 76.9166 16.0417 76.9583 16.3698 77.3437C16.7031 77.7239 16.6615 78.302 16.2812 78.6302C14.8073 79.9062 13.4323 81.3489 12.1979 82.9114C12.0156 83.1406 11.75 83.2552 11.4792 83.2552ZM5.59896 93.8958C5.49479 93.8958 5.38542 93.875 5.28125 93.8385C4.80729 93.6562 4.56771 93.125 4.74479 92.651C5.5 90.6458 6.36979 88.7448 7.32812 86.9896C7.57292 86.5468 8.125 86.3802 8.57292 86.625C9.01562 86.8698 9.17708 87.4218 8.93229 87.8698C8.01562 89.5468 7.18229 91.375 6.45833 93.3021C6.31771 93.6666 5.96875 93.8958 5.59896 93.8958ZM2.52604 105.687C2.47917 105.687 2.42708 105.687 2.375 105.677C1.88021 105.594 1.54167 105.12 1.625 104.625C1.97917 102.505 2.40625 100.474 2.89583 98.5729C3.02083 98.0781 3.51042 97.7864 4.00521 97.9114C4.49479 98.0416 4.79167 98.5364 4.66667 99.026C4.19271 100.875 3.77604 102.859 3.42708 104.922C3.35417 105.37 2.96875 105.687 2.52604 105.687ZM1.26042 117.833C1.24479 117.833 1.22917 117.833 1.21354 117.833C0.708334 117.807 0.317708 117.375 0.348958 116.87C0.463541 114.693 0.614584 112.682 0.817708 110.734C0.864584 110.234 1.31771 109.87 1.81771 109.917C2.32292 109.969 2.68229 110.417 2.63542 110.922C2.4375 112.839 2.28646 114.818 2.17188 116.969C2.14583 117.453 1.74479 117.833 1.26042 117.833ZM1.00521 130.042C0.505208 130.042 0.09375 129.635 0.09375 129.125V128.021C0.09375 126.365 0.0989593 124.693 0.135417 123C0.145834 122.495 0.541667 122.125 1.06771 122.104C1.57292 122.115 1.96875 122.531 1.96354 123.036C1.93229 124.714 1.92188 126.38 1.92188 128.021V129.125C1.92188 129.63 1.51042 130.036 1.01042 130.042C1.01042 130.042 1.01042 130.042 1.00521 130.042ZM1.09896 142.245C0.593749 142.245 0.1875 141.839 0.1875 141.333C0.1875 139.38 0.166667 137.339 0.145833 135.24C0.135416 134.734 0.541667 134.318 1.04688 134.318C1.53125 134.302 1.96354 134.714 1.96875 135.224C1.99479 137.328 2.01562 139.375 2.01562 141.333C2.01562 141.839 1.60417 142.245 1.09896 142.245Z" fill="#EFEFEF"/>
</svg>
