<svg width="16" height="6" viewBox="0 0 16 6" fill="none" xmlns="http://www.w3.org/2000/svg">
<path d="M2.84889 3.49483C4.88534 4.09379 8.86451 3.50524 11.1978 2.68754C9.06243 2.31254 6.9218 2.33337 4.88014 2.77087C4.49993 2.849 3.54159 3.18233 2.84889 3.49483ZM4.98951 5.56775C3.38014 5.56775 1.88014 5.30212 0.916595 4.56254C0.515554 4.25004 0.333262 3.7865 0.442637 3.31774C0.770762 1.8542 4.46347 0.984411 4.49993 0.973995C7.88014 0.260452 11.5051 0.546911 14.9635 1.81254C15.3385 1.94795 15.5885 2.31775 15.5676 2.71879C15.5364 3.4115 15.276 3.4792 13.6145 3.90629C13.0364 4.05733 12.1562 4.2865 11.9635 4.3542C10.6822 4.82295 7.68743 5.56775 4.98951 5.56775Z" fill="#2E2020"/>
</svg>
