<svg width="75" height="41" viewBox="0 0 75 41" fill="none" xmlns="http://www.w3.org/2000/svg">
<path d="M72.0885 4.44792C71.7083 4.44792 71.3541 4.20833 71.2239 3.83333C70.9322 2.99479 70.5937 2.18229 70.2083 1.41146C69.9843 0.958331 70.1614 0.406249 70.6197 0.18229C71.0728 -0.0468767 71.6145 0.140624 71.8437 0.58854C72.2655 1.42708 72.6353 2.32292 72.9478 3.23437C73.1145 3.71354 72.8593 4.23437 72.3853 4.40104C72.2812 4.43229 72.1822 4.44792 72.0885 4.44792ZM73.0312 16.5052C72.9895 16.5052 72.9426 16.5 72.8958 16.4948C72.3905 16.4219 72.052 15.9531 72.1249 15.4479C72.3333 14.1042 72.4374 12.7448 72.4374 11.4115C72.4374 10.7969 72.4166 10.1771 72.3697 9.56771C72.3385 9.0625 72.7135 8.625 73.2187 8.58854C73.7239 8.55729 74.1614 8.93229 74.1926 9.4375C74.2395 10.0885 74.2655 10.75 74.2655 11.4115C74.2655 12.8385 74.1562 14.2917 73.9374 15.7292C73.8645 16.1771 73.4791 16.5052 73.0312 16.5052ZM39.2343 24.1354C38.9947 24.1354 38.7551 24.0365 38.5728 23.8542C38.2239 23.4896 38.2343 22.9062 38.6041 22.5573C40.0103 21.2031 42.0051 20.0677 44.2187 19.3542C44.6978 19.2031 45.2082 19.4687 45.3645 19.9531C45.5207 20.4323 45.2551 20.9479 44.776 21.099C42.8228 21.724 41.078 22.7135 39.8697 23.8802C39.6874 24.0521 39.4635 24.1354 39.2343 24.1354ZM53.2916 25.6406C52.7916 25.6406 52.3853 25.2448 52.3801 24.7396C52.3593 23.8021 52.1562 22.8594 51.7864 21.9219C51.552 21.349 51.0312 20.9323 50.2343 20.6979C49.7499 20.5521 49.4739 20.0417 49.6197 19.5573C49.7655 19.0729 50.2603 18.7917 50.7603 18.9427C52.0989 19.3437 53.0416 20.1406 53.4843 21.2448C53.9374 22.3802 54.1822 23.5469 54.203 24.7083C54.2135 25.2135 53.8072 25.6302 53.3072 25.6406C53.302 25.6406 53.2968 25.6406 53.2916 25.6406ZM68.6874 27.8073C68.5103 27.8073 68.3333 27.7552 68.177 27.651C67.7603 27.3646 67.651 26.8021 67.9374 26.3802C69.0051 24.7917 69.9114 23.0365 70.6301 21.1562C70.8072 20.6823 71.3333 20.4479 71.8124 20.625C72.2812 20.8073 72.5208 21.3385 72.3385 21.8073C71.578 23.8229 70.5989 25.7031 69.4478 27.4062C69.2708 27.6667 68.9843 27.8073 68.6874 27.8073ZM6.76554 33.3854C6.63012 33.3854 6.48429 33.349 6.35408 33.2865C4.56241 32.3698 2.74991 31.3698 0.963455 30.3229C0.531164 30.0625 0.380121 29.5 0.640538 29.0625C0.895746 28.625 1.45825 28.4844 1.89054 28.7396C3.65095 29.7708 5.427 30.7552 7.18741 31.6562C7.63533 31.8854 7.81241 32.4375 7.58325 32.8854C7.42179 33.2031 7.09887 33.3854 6.76554 33.3854ZM41.6614 33.8385C41.5312 33.8385 41.3957 33.8125 41.2707 33.75C39.7968 33.0573 38.6822 32.2187 37.8541 31.1875C37.2864 30.474 36.8697 29.7396 36.6197 28.9948C36.4635 28.5156 36.7187 27.9948 37.1978 27.8333C37.677 27.6719 38.1926 27.9323 38.3541 28.4115C38.5416 28.9479 38.8489 29.5 39.2864 30.0417C39.927 30.849 40.8385 31.5208 42.052 32.0938C42.5051 32.3125 42.703 32.8542 42.4895 33.3125C42.3332 33.6458 41.9999 33.8385 41.6614 33.8385ZM59.4374 35.4479C59.0676 35.4479 58.7187 35.224 58.578 34.8594C58.401 34.3854 58.6405 33.8594 59.1093 33.6771C60.8697 33.0104 62.5312 32.0156 64.0572 30.7292C64.4426 30.4115 65.0208 30.4583 65.3437 30.8437C65.6718 31.2292 65.6249 31.8125 65.2343 32.1354C63.552 33.5521 61.7082 34.651 59.7603 35.3906C59.651 35.4323 59.5416 35.4479 59.4374 35.4479ZM53.4791 36.5573C51.6562 36.5573 49.8697 36.3073 48.0728 35.8281L47.2603 35.625C46.9374 35.6719 46.5937 35.5469 46.3853 35.2604C46.0885 34.849 46.177 34.2812 46.5832 33.9792C48.3072 32.7135 49.6822 31.3385 50.6614 29.9062C50.9478 29.4896 51.5155 29.3854 51.9322 29.6719C52.3541 29.9583 52.4582 30.526 52.1718 30.9427C51.3853 32.0833 50.3905 33.1823 49.203 34.224C50.6197 34.5521 52.026 34.7188 53.3853 34.7188C53.8905 34.7188 54.3437 35.1302 54.3437 35.6406C54.3437 36.1406 53.9843 36.5573 53.4791 36.5573ZM17.9895 38.1406C17.8957 38.1406 17.7968 38.125 17.703 38.0938C15.828 37.474 13.8853 36.7396 11.927 35.9062C11.4687 35.7083 11.2499 35.1667 11.4478 34.7031C11.6457 34.2344 12.1874 34.0208 12.651 34.2188C14.5572 35.0365 16.4478 35.7552 18.2707 36.3542C18.7499 36.5104 19.0155 37.0312 18.8593 37.5104C18.7291 37.8958 18.3697 38.1406 17.9895 38.1406ZM35.9791 40.3125C35.5416 40.3125 35.151 39.9844 35.078 39.5312C35.0051 39.0312 35.3489 38.5625 35.8489 38.4896C37.0676 38.3125 38.2551 38.0365 39.3801 37.6875C40.0572 37.4687 40.7603 37.2031 41.4791 36.8958C41.9374 36.6979 42.4791 36.9115 42.677 37.3802C42.8749 37.8385 42.6614 38.3802 42.1978 38.5781C41.427 38.9115 40.6666 39.1979 39.927 39.4271C38.7135 39.8125 37.4322 40.1094 36.1197 40.3021C36.0728 40.3073 36.0312 40.3125 35.9791 40.3125ZM29.9062 40.5573C29.8905 40.5573 29.8749 40.5573 29.8541 40.5573C27.8905 40.4479 25.8176 40.1615 23.6822 39.7135C23.1926 39.6094 22.8749 39.1302 22.9791 38.6302C23.078 38.1354 23.5624 37.8229 24.0572 37.9219C26.1041 38.349 28.0832 38.6198 29.9582 38.7292C30.4635 38.7604 30.8489 39.1875 30.8176 39.6927C30.7916 40.1823 30.3905 40.5573 29.9062 40.5573Z" fill="#EFEFEF"/>
</svg>
