<svg width="46" height="201" viewBox="0 0 46 201" fill="none" xmlns="http://www.w3.org/2000/svg">
<path d="M42.1927 168.714C38.5469 162.479 31.9739 157.604 24.7187 156.589C25.6094 151.714 25.2708 144.547 25.2708 143.234C25.4844 119.365 25.4844 95.4948 25.3541 71.5834C25.2708 58.0625 25.2291 44.5781 25.0989 31.0573C25.0156 21.1354 25.2708 11.0886 24.3802 1.20835C24.2552 -0.0208196 22.2187 -0.572904 22.0052 0.869805C21.1562 6.84897 20.901 12.9531 20.776 19.0573C20.776 19.0573 20.7344 19.0573 20.7344 19.099C19.2916 22.7448 19.6302 27.0261 19.4583 30.8854C19.2916 35.5521 19.0781 40.1719 18.9531 44.8334C18.6979 53.8646 18.401 62.9375 18.1458 71.9688C17.8906 80.7865 17.7656 89.5625 17.5521 98.3802C17.4687 103.042 17.3385 107.661 17.2552 112.328C17.1719 116.906 16.7031 121.698 17.2135 126.276C17.3385 127.292 18.5677 127.927 19.375 127.547C19.3333 130.047 19.3333 132.594 19.3333 135.094C19.2916 139.797 19.25 144.547 19.1614 149.255C19.1198 150.906 18.7396 154 18.9948 156.589C10.8489 157.984 4.10414 165.026 1.64581 172.781C-1.23961 181.896 2.96352 191.438 10.5937 196.693C14.5416 199.406 19.4583 200.807 24.2552 200.297C26.7969 200 29.2552 199.234 31.3802 197.797C33.2448 196.526 34.6875 194.656 36.0416 192.792C36.6354 193.089 37.3593 193.172 38.0781 193.005C40.5416 192.37 42.5312 189.995 43.7604 187.917C44.9948 185.839 45.4166 183.255 45.5 180.839C45.5885 176.599 44.2708 172.318 42.1927 168.714ZM35.9166 177.401C35.9166 177.448 35.9166 177.448 35.9166 177.49C35.9166 177.193 35.875 176.896 35.9166 177.401ZM14.75 166.464C14.5 166.677 14.625 166.594 14.75 166.464V166.464ZM22.5573 194.276C22.4271 194.234 22.4687 194.234 22.5573 194.276V194.276ZM30.2344 193.557C28.4114 194.109 26.9271 194.359 25.2291 194.359C24.4219 194.359 23.5729 194.359 22.7656 194.276C22.7239 194.276 22.7239 194.276 22.6823 194.276C22.4687 194.234 22.2604 194.193 22.0469 194.151C21.5781 194.063 21.1146 193.938 20.6458 193.813C19.8437 193.599 19.0781 193.302 18.3125 193.005C18.3125 193.005 18.1041 192.922 17.9323 192.833C17.7656 192.75 17.5521 192.667 17.5521 192.667C17.125 192.453 16.7031 192.24 16.2812 191.99C15.5989 191.604 14.9218 191.141 14.2864 190.672C14.1146 190.505 13.9062 190.375 13.7344 190.208C13.3541 189.911 13.0156 189.573 12.6719 189.229C12.4219 188.979 12.125 188.682 11.8698 188.385C11.6979 188.214 11.5729 188 11.401 187.833C11.3594 187.792 11.3177 187.703 11.276 187.661C11.1458 187.495 10.8073 186.984 10.7239 186.859C10.4687 186.474 10.2135 186.052 9.95831 185.63C9.74477 185.286 9.5781 184.948 9.40623 184.609C9.32289 184.401 9.19789 184.188 9.10935 183.974C9.10935 183.932 9.10935 183.932 9.06768 183.891C8.77081 183.083 8.5156 182.234 8.34893 181.391C8.30727 181.219 8.26039 181.005 8.21872 180.839C8.21872 180.797 8.21872 180.797 8.21872 180.75C8.17706 180.328 8.13539 179.906 8.13539 179.479C8.13539 179.099 8.13539 178.677 8.13539 178.292C8.13539 178.125 8.21872 177.448 8.21872 177.234C8.34893 176.385 8.55727 175.536 8.81248 174.688C8.94268 174.349 9.06768 173.969 9.19789 173.63C9.23956 173.505 9.32289 173.333 9.36456 173.25C9.53643 172.953 9.66143 172.615 9.83331 172.318C10.3385 171.427 10.8906 170.536 11.526 169.688C11.2291 170.109 12.0364 169.094 12.1666 168.922C12.5468 168.5 12.9271 168.078 13.3125 167.693C13.651 167.354 14.0312 167.016 14.3698 166.719C14.5 166.594 14.625 166.51 14.75 166.422C14.7968 166.422 14.7969 166.38 14.8385 166.38C15.6406 165.828 16.4479 165.323 17.3385 164.896C17.4687 164.854 17.5521 164.771 17.6771 164.729C18.0156 164.641 18.3593 164.474 18.6979 164.391C19.1198 164.26 19.5469 164.177 19.9687 164.047C20.1406 164.005 20.3073 164.005 20.4791 163.964C20.4791 163.964 20.4791 163.964 20.5208 163.964C21.2396 163.964 21.9635 163.88 22.6823 163.922C22.9791 163.922 24.1666 164.177 23.0625 163.922C23.4896 164.005 23.9114 164.047 24.2969 164.177C25.0156 164.344 25.6927 164.557 26.375 164.813C26.4583 164.854 26.5833 164.896 26.6719 164.938C26.7135 164.938 26.7135 164.938 26.7135 164.979C27.0521 165.193 27.4739 165.365 27.8594 165.62C28.1979 165.828 28.5364 166.042 28.8333 166.255C28.9583 166.339 29.3021 166.594 29.4687 166.719C29.9791 167.146 30.4896 167.568 30.9531 168.036C31.5052 168.583 32.0156 169.177 32.5208 169.771C32.4791 169.688 32.4375 169.688 32.3958 169.604C32.4375 169.688 32.5208 169.771 32.5677 169.859C32.651 169.943 32.6927 170.068 32.7344 170.109C32.9896 170.453 33.2031 170.792 33.4583 171.172C33.9635 171.979 34.3906 172.781 34.8125 173.63C34.8541 173.755 34.8958 173.844 34.9844 173.969C34.9844 174.01 34.9844 174.01 35.026 174.052C35.151 174.479 35.3229 174.859 35.4479 175.281C35.5781 175.75 35.7031 176.219 35.8333 176.682C35.875 176.896 35.9166 177.698 36.0416 177.911C36.0416 178.042 36.0885 178.167 36.0885 178.292C36.1302 178.719 36.1302 179.182 36.1302 179.609C36.1302 180.031 36.1302 180.5 36.0885 180.922C36.0885 181.047 36.0416 181.177 36.0416 181.302C35.875 182.151 35.6614 183.042 35.4896 183.891C35.4479 184.104 35.4479 184.271 35.4062 184.484C35.4062 184.526 35.4062 184.526 35.4062 184.568C35.3646 184.781 35.3229 185.036 35.2812 185.245C35.1927 185.714 35.0677 186.177 34.9844 186.604C34.7291 187.792 34.3489 188.979 34.3906 190.208C34.3906 190.76 34.5989 191.266 34.8541 191.734C33.3281 192.536 31.8854 193.047 30.2344 193.557Z" fill="#0A141E"/>
</svg>
