<svg width="6" height="12" viewBox="0 0 6 12" fill="none" xmlns="http://www.w3.org/2000/svg">
<path d="M1.33328 11.6927C0.999947 11.6927 0.677029 11.5052 0.515572 11.1875C0.291613 10.7344 0.473906 10.1823 0.92703 9.95836C3.04682 8.89586 3.80203 6.22398 3.80203 4.25523C3.77599 3.91148 3.57807 2.88023 3.38016 2.22919C3.19266 2.26044 2.99995 2.24481 2.82286 2.15627C2.37495 1.92711 2.16661 1.41669 2.39578 0.963565C2.89057 -0.0208095 3.5937 0.0208575 3.87495 0.0937735C5.35932 0.447942 5.63016 4.22398 5.63016 4.25523C5.63016 6.86461 4.60932 10.1615 1.74474 11.599C1.61453 11.6667 1.47391 11.6927 1.33328 11.6927Z" fill="#2E2020"/>
</svg>
