<svg width="6" height="16" viewBox="0 0 6 16" fill="none" xmlns="http://www.w3.org/2000/svg">
<path d="M3.50517 15.5729C3.17184 15.5729 2.84892 15.3906 2.68747 15.0625C2.46351 14.6146 2.6458 14.0625 3.09892 13.8386C3.54163 13.6146 3.49997 12.0834 3.47913 11.4271C3.47392 11.2344 3.46872 11.0469 3.46872 10.8959C3.46872 9.55732 2.72913 7.71357 2.01559 5.9219C1.49476 4.61982 0.958299 3.27086 0.666632 2.04169C0.552048 1.5469 0.848925 1.05211 1.34372 0.937525C1.8333 0.817733 2.32809 1.12502 2.44788 1.61982C2.7083 2.71877 3.21872 4.00002 3.71351 5.23961C4.49476 7.19273 5.29684 9.20836 5.29684 10.8959C5.29684 11.0365 5.30205 11.1979 5.30726 11.3698C5.34892 12.7084 5.40622 14.7292 3.91142 15.474C3.78642 15.5417 3.6458 15.5729 3.50517 15.5729Z" fill="#2E2020"/>
</svg>
