<svg width="38" height="30" viewBox="0 0 38 30" fill="none" xmlns="http://www.w3.org/2000/svg">
<path fill-rule="evenodd" clip-rule="evenodd" d="M35.5313 29.0677L30.7761 28.5469C30.7761 28.5469 29.2813 29.6927 27.224 29.5729C25.1667 29.4531 22.7605 29.4792 21.0678 29.6511C19.3751 29.8177 14.224 28.8125 12.7709 28.1511C11.3282 27.4844 8.24485 25.4531 7.30735 24.474C6.36985 23.4896 6.76569 22.3229 5.72402 22.1927C4.67714 22.0677 3.94277 22.1146 3.79694 20.974C3.64589 19.8281 3.70319 19.2448 2.75006 19.3073C1.79173 19.3698 0.937561 19.2604 0.510477 18.6459C0.0781861 18.0313 0.515685 17.2188 0.979227 16.3281C1.43756 15.4323 1.18756 13.7136 1.69798 12.599C2.20839 11.4844 4.67193 9.86461 5.86464 8.80731C7.06256 7.75523 9.49485 5.20315 10.6667 4.33856C11.8438 3.47919 13.6824 2.76044 16.5834 1.96877C19.4896 1.18752 21.9428 0.932313 23.9115 0.869813C25.8803 0.796896 27.4688 0.69273 29.073 1.18752C30.6771 1.6771 31.5053 1.9219 31.3594 3.16148C31.2084 4.40106 30.4532 6.40106 31.3751 6.83335C32.2917 7.26565 31.6615 8.00523 32.948 7.93231C34.2292 7.8594 34.9011 8.27606 35.3907 9.7969C35.8803 11.3125 36.948 13.6354 37.1719 14.6979C37.4011 15.7552 37.323 18.1719 37.5261 19.2656C37.724 20.3542 37.3021 23.1406 36.9376 24.5469C36.5782 25.9636 35.5313 29.0677 35.5313 29.0677Z" fill="#F9EBE0"/>
</svg>
