<svg width="61" height="25" viewBox="0 0 61 25" fill="none" xmlns="http://www.w3.org/2000/svg">
<path d="M60 24.4844C59.7344 24.4844 59.4635 24.3646 59.2864 24.1406C57.7239 22.1719 55.0416 20.2604 52.6771 18.5781C51.7864 17.9479 50.9271 17.3333 50.1614 16.7448C40.0312 8.97394 20.3125 -2.89064 2.07289 4.95832C1.60935 5.15624 1.07289 4.94269 0.874973 4.47915C0.671848 4.0104 0.885389 3.47394 1.34893 3.27603C20.4427 -4.94272 40.8229 7.27603 51.2708 15.2917C52.026 15.8646 52.8646 16.4635 53.7344 17.0885C56.2031 18.8437 58.9948 20.8333 60.7187 23C61.0312 23.3958 60.9635 23.9687 60.5677 24.2812C60.401 24.4219 60.1979 24.4844 60 24.4844Z" fill="#2E2020"/>
</svg>
