<svg width="173" height="256" viewBox="0 0 173 256" fill="none" xmlns="http://www.w3.org/2000/svg">
<path d="M172.11 91.0938L165.755 93.1667L154.662 92.4636L139.271 97.6875L132.089 78.4532C132.089 78.4532 125.938 79.1302 118.755 78.7917C111.573 78.4532 100.969 69.5573 99.6096 53.1459L93.4586 50.7552L100.297 43.573C100.297 43.573 96.8805 16.5521 114.323 6.30212C131.755 -3.96351 158.776 -1.56247 165.276 21.3438C171.776 44.25 154.334 65.7969 154.334 65.7969L172.11 91.0938ZM9.68255 230.26C3.87526 234.021 3.18255 240.865 0.791928 245.307C-1.5987 249.75 2.84401 250.438 5.23464 247.359C7.62526 244.276 11.3857 237.786 11.3857 237.786C11.3857 237.786 11.3857 241.885 10.3544 247.016C9.32318 252.146 14.4534 251.458 15.1461 248.047C15.8284 244.625 18.568 238.474 18.568 238.474C18.568 238.474 27.4586 244.286 37.7138 249.417C42.7138 251.917 50.3857 254.01 56.9482 255.5L67.6617 234.813C64.5784 232.813 60.1773 230.224 54.1253 227.193C39.7711 220.01 15.4951 226.5 9.68255 230.26Z" fill="#FF9A8B"/>
</svg>
