<svg width="30" height="28" viewBox="0 0 30 28" fill="none" xmlns="http://www.w3.org/2000/svg">
<path d="M1.02611 27.5156C0.760483 27.5156 0.494859 27.401 0.317775 27.177C6.68541e-05 26.7812 0.0573582 26.2083 0.453192 25.8906L27.5522 4.05202C27.5365 3.69786 27.4688 3.28119 27.3074 3.07807C27.1563 2.89577 26.7865 2.74473 26.4636 2.67182L3.13027 21.4791C2.72923 21.7968 2.16153 21.7291 1.84382 21.3385C1.52611 20.9426 1.58861 20.3697 1.97923 20.052L25.6407 0.984316C25.823 0.833275 26.0574 0.765566 26.2917 0.7864C26.4636 0.802024 27.9532 0.963483 28.7344 1.93223C29.5053 2.89577 29.3855 4.4114 29.3699 4.58327C29.3438 4.82286 29.224 5.05202 29.0313 5.20827L1.59902 27.3124C1.43236 27.4531 1.22403 27.5156 1.02611 27.5156Z" fill="#2E2020"/>
</svg>
