<svg width="28" height="31" viewBox="0 0 28 31" fill="none" xmlns="http://www.w3.org/2000/svg">
<path d="M6.07819 9.16675C6.0209 9.28133 5.9584 9.39071 5.89069 9.50008C5.93235 9.48446 5.97923 9.46883 6.03131 9.45842C6.03131 9.35946 6.04694 9.26571 6.07819 9.16675ZM8.25527 11.573C8.4636 11.6042 8.71881 11.6251 8.92715 11.6147C8.95319 11.5209 8.98444 11.4272 9.03131 11.3386C8.9636 11.3282 8.89069 11.3126 8.82819 11.297C8.66673 11.4376 8.45319 11.547 8.25527 11.573ZM13.6511 10.724C14.3907 10.724 15.073 11.4115 15.0782 11.4167C15.6459 12.0209 16.2813 12.4168 17.0157 12.8699L17.4271 13.1251C17.4636 13.1511 17.5053 13.1772 17.5417 13.2084C17.7136 12.948 17.8803 12.6355 18.0365 12.3282C18.1667 12.0782 18.2917 11.8282 18.4271 11.6043C18.073 11.4793 17.4324 11.3751 17.1511 11.3282C16.9636 11.297 16.7917 11.2709 16.6511 11.2397C16.323 11.172 15.6355 10.8855 15.3959 10.2917C15.2501 9.93238 15.2917 9.54175 15.5105 9.21883C15.974 8.52613 16.7917 8.78654 17.448 8.99487C17.5417 9.02092 17.6615 9.05738 17.7761 9.09383C18.0001 8.86467 18.2605 8.75008 18.5782 8.75008C18.9376 8.75529 19.1563 8.84904 19.3386 8.93758C19.4584 8.79696 19.6094 8.65633 19.8178 8.55737C20.6407 8.14592 21.5521 8.7605 21.8959 8.99487C22.2344 9.22404 22.5157 9.48446 22.7605 9.75008C22.5209 9.04175 22.6094 8.20842 23.2136 7.82821C22.5157 7.073 21.6251 6.29696 20.448 5.42196C19.5834 4.77612 18.0886 4.1355 17.099 3.71883C14.474 2.60425 11.6719 2.67196 10.5886 2.75008C10.2605 2.77612 9.9584 2.80738 9.68756 2.83862C9.88548 3.03654 10.0157 3.31258 10.0469 3.64071C10.0938 4.08862 9.96881 4.68758 9.46881 5.04175C9.06777 5.31779 8.6511 5.48967 8.2709 5.60425C8.42715 5.79696 8.53131 6.02612 8.56777 6.28133C8.79173 7.91675 7.34902 8.23446 6.86985 8.33342C6.73444 8.36988 6.5209 8.41154 6.4584 8.448C6.4011 8.54175 6.32298 8.69279 6.24485 8.84904C6.51048 8.48967 6.98444 8.28654 7.4584 8.34904C8.07298 8.42717 8.51048 8.80737 8.84381 9.11987C8.9636 8.948 9.10944 8.84383 9.18756 8.79696C9.63548 8.53654 10.099 8.67717 10.5886 8.82821C10.6824 8.85425 10.7709 8.8855 10.849 8.90633C10.8699 8.89592 10.8959 8.88029 10.9167 8.86987C11.2396 8.70321 11.9011 8.34904 12.4949 8.80217C13.1042 9.26571 13.4115 9.90633 13.3386 10.5574C13.3282 10.6303 13.3178 10.7084 13.3021 10.7761C13.3021 10.7761 13.3021 10.7761 13.3126 10.7761C13.4219 10.7345 13.5365 10.724 13.6511 10.724ZM13.2188 26.2032C13.2449 26.2032 13.3282 26.2397 13.3855 26.2709C13.6042 26.3803 13.9011 26.5365 14.1355 26.8074C14.2761 26.9688 14.4324 27.1615 14.5938 27.3699C15.0313 27.9272 15.6824 28.7501 16.1876 28.9063C16.2969 28.8334 16.4584 28.6824 16.5521 28.6095L16.7344 28.448C16.8751 28.3282 17.0261 28.2345 17.1824 28.1407C17.2553 28.1043 17.3646 28.0365 17.3803 28.0105C17.599 27.6147 17.5938 27.1615 17.5834 26.5886C17.5782 26.0522 17.5678 25.448 17.7709 24.823C17.8646 24.5261 17.9896 24.2605 18.1146 24.0053C18.3386 23.5261 18.4376 23.3022 18.3542 22.9793C18.2813 22.6668 18.1719 22.3751 18.0678 22.0886C17.7865 21.3126 17.4636 20.4376 17.6876 19.3543C17.7501 19.0626 17.7969 18.7553 17.8542 18.448C17.9844 17.672 18.1146 16.8751 18.4011 16.1355L18.4792 15.9376C18.4896 15.922 18.5001 15.8959 18.5105 15.8751C18.0365 15.8699 17.7501 15.8803 17.4584 15.8074C16.573 15.573 16.0157 15.0626 15.5313 14.6095C15.2761 14.3751 15.0365 14.1511 14.7761 13.9949C14.698 13.948 14.5574 13.9063 14.4063 13.8595C14.1042 13.7709 13.7292 13.6563 13.3855 13.3803C13.1459 13.1876 12.5574 12.5574 12.5574 11.849C12.3959 11.974 12.2032 12.0938 11.9896 12.1876C11.5469 12.3855 11.1199 12.3595 10.8074 12.3438C10.7553 12.3386 10.698 12.3386 10.6407 12.3386C10.573 12.6563 10.4011 13.1043 9.84902 13.2918C9.11465 13.547 7.50527 13.5105 6.74485 12.8751C6.6511 12.8022 6.57819 12.724 6.5209 12.6459L5.9636 12.9011C5.26048 13.1928 4.30735 13.599 3.94798 14.1043C3.9011 14.1772 3.84902 14.3282 3.80215 14.4845C3.73444 14.7084 3.6459 14.9949 3.47923 15.2657L3.30215 15.5418C2.92715 16.1251 2.57819 16.6824 2.5209 17.2449C2.49485 17.4845 2.60423 17.8438 2.7084 18.1928C2.78131 18.4324 2.84902 18.6772 2.8959 18.9063C3.14069 20.1615 3.4584 20.5209 4.39069 20.5886C4.82298 20.6095 5.25006 20.4584 5.75006 20.2761C6.4584 20.0157 7.34381 19.6876 8.36985 19.9532C8.40631 19.9584 8.4636 19.9584 8.5209 19.9584C8.85944 19.9688 9.48444 19.9949 9.8959 20.5522C10.1719 20.9428 10.3386 21.3751 10.4792 21.7605C10.599 22.0782 10.7136 22.3751 10.849 22.5418C10.9063 22.6147 11.0365 22.6615 11.2605 22.7345C11.6928 22.8803 12.3438 23.099 12.7553 23.8907C13.0417 24.4428 13.0678 25.0053 13.0938 25.4584C13.1146 25.7657 13.1251 26.0365 13.2136 26.2136C13.2084 26.2032 13.2136 26.2032 13.2188 26.2032ZM16.2344 30.7553C16.1771 30.7553 16.1146 30.7501 16.0521 30.7449C14.7969 30.5834 13.8907 29.4272 13.1615 28.5053C13.0157 28.3282 12.8855 28.1511 12.7553 28.0105C12.7344 27.9949 12.6251 27.9376 12.5521 27.9011C12.2553 27.7501 11.8074 27.5209 11.5626 27.0053C11.323 26.5001 11.2969 26.0001 11.2709 25.5626C11.2501 25.224 11.2344 24.9376 11.1303 24.7293C11.073 24.6147 11.0157 24.5834 10.6719 24.4688C10.323 24.349 9.8386 24.1876 9.44798 23.7136C9.11465 23.3126 8.92715 22.8282 8.7709 22.4063C8.68756 22.1772 8.60423 21.9636 8.51048 21.7918C8.49486 21.7918 8.47923 21.7918 8.4584 21.7918C8.30735 21.7865 8.11465 21.7761 7.91673 21.7293C7.4584 21.6095 7.03131 21.7501 6.38027 21.9897C5.7709 22.2136 5.0886 22.474 4.26569 22.4115C1.97402 22.2501 1.36985 20.6407 1.09902 19.2553C1.06256 19.0834 1.00527 18.8959 0.953187 18.7136C0.807354 18.224 0.645895 17.6615 0.697979 17.0678C0.802144 16.0626 1.31256 15.2605 1.76569 14.5522L1.92715 14.297C1.97402 14.224 2.01048 14.0886 2.05735 13.9428C2.12506 13.724 2.20319 13.4584 2.36465 13.1928C2.34902 13.172 2.33339 13.1511 2.32298 13.1303C1.97402 12.599 1.86465 12.0886 1.98965 11.6147C2.18756 10.8855 2.8386 10.5574 3.31777 10.323C3.31777 10.3178 3.32298 10.3178 3.32819 10.3178C3.20319 10.0209 3.19798 9.72404 3.30215 9.42196C3.50006 8.86988 3.99485 8.68758 4.25527 8.58862C4.2761 8.58342 4.29173 8.573 4.31256 8.56779C4.39069 8.448 4.47402 8.28654 4.56256 8.12508C4.69798 7.85946 4.84902 7.56258 5.05735 7.29175C5.05735 7.28654 5.06256 7.28133 5.06256 7.27612C4.92715 7.04696 4.86465 6.76571 4.90631 6.47404C5.11985 4.80737 6.1459 4.323 6.98444 4.06779C6.92194 4.02612 6.86465 3.97925 6.80215 3.93237C6.63027 3.78133 6.09381 3.323 6.16152 2.64592C6.22402 2.00008 6.76048 1.70321 7.01569 1.55738C7.07298 1.52612 7.19798 1.46362 7.25527 1.448C7.30215 1.43237 8.4636 1.073 10.4532 0.921958C11.6667 0.833417 14.8178 0.7605 17.7553 2.0105C18.948 2.51571 20.5001 3.17717 21.5417 3.95321C23.0886 5.10425 24.198 6.11988 25.0417 7.14592C26.2032 8.54696 26.8855 9.87508 26.9167 9.93237C27.0678 10.2345 27.0365 10.599 26.8438 10.8699C26.6511 11.1511 26.3178 11.297 25.9792 11.2553C25.8126 11.2293 25.6459 11.1824 25.4844 11.1095C25.5365 11.1928 25.5886 11.2709 25.6459 11.3542C25.9324 11.7709 26.2344 12.3959 26.0521 12.9532C25.948 13.2657 25.7084 13.5157 25.3907 13.6199C25.0261 13.7501 24.6615 13.672 24.3178 13.3907C23.0886 13.1511 22.4376 12.2918 21.9063 11.6043C21.5886 11.1824 21.2813 10.7865 20.8751 10.5105C20.7292 10.4168 20.6303 10.3543 20.5521 10.3178C20.4636 10.4324 20.3334 10.5678 20.1459 10.672C20.1563 10.6876 20.1667 10.7032 20.1771 10.7188C20.6094 11.3803 20.1928 12.2136 20.0001 12.547C19.8803 12.7397 19.7709 12.9532 19.6615 13.172C19.5053 13.4636 19.349 13.7761 19.1563 14.073C19.5261 14.1251 19.8699 14.2397 20.1146 14.5261C20.7605 15.2657 20.3594 16.2032 20.1667 16.6563L20.1042 16.8022C19.8855 17.3647 19.7709 18.0626 19.6563 18.7449C19.599 19.0782 19.5417 19.4115 19.4792 19.7293C19.3594 20.3022 19.5469 20.8126 19.7865 21.4584C19.9115 21.8074 20.0365 22.1615 20.1303 22.5365C20.3751 23.5157 20.0365 24.2293 19.7605 24.797C19.6719 24.9845 19.5782 25.1668 19.5105 25.3803C19.4011 25.724 19.4063 26.1095 19.4115 26.5574C19.4219 27.2709 19.4376 28.0782 18.974 28.9063C18.7188 29.3647 18.349 29.5834 18.1042 29.724C18.0365 29.7657 17.9636 29.8022 17.9063 29.8543L17.7657 29.974C17.4115 30.2918 16.8907 30.7553 16.2344 30.7553Z" fill="#2E2020"/>
</svg>
