<svg width="71" height="66" viewBox="0 0 71 66" fill="none" xmlns="http://www.w3.org/2000/svg">
<path d="M64.7605 65.5833C58.5209 65.5833 44.9375 65.125 15.0625 63.5365C14.8125 63.5208 14.573 63.4063 14.4115 63.2083C14.25 63.0208 14.1719 62.7708 14.198 62.5208C14.2188 62.3385 16.1771 44.1354 12.7084 32.3854C9.21357 20.5313 0.703158 3.26042 0.619825 3.08854C0.473992 2.79688 0.494826 2.44792 0.677117 2.17709C0.854201 1.90625 1.1667 1.73959 1.48962 1.76563C1.66149 1.77604 19.0313 2.70834 34.5677 2.46875C50.099 2.22917 64.2188 0.812503 64.3594 0.802086C64.8073 0.744795 65.25 1.0625 65.3438 1.51563C65.3646 1.60417 67.1719 10.1198 68.4688 22.2083C68.5209 22.7083 68.1563 23.1615 67.6563 23.2135C67.1719 23.2708 66.7084 22.9063 66.6511 22.401C65.5886 12.5313 64.1875 5.06771 63.7188 2.70313C60.4688 3.00521 48.0573 4.09375 34.5938 4.30209C21.698 4.5 7.55212 3.89584 2.93753 3.67188C5.0417 8.0625 11.5104 21.849 14.4636 31.8646C17.6094 42.5365 16.4844 57.7656 16.1146 61.7552C35.4844 62.7813 63.625 64.0573 68.4896 63.7604C68.4532 62.9635 68.4323 61.5052 68.3907 58.7135C68.3646 56.9427 68.3334 54.8281 68.2917 52.4948C68.2813 51.9948 68.6823 51.5729 69.1875 51.5625C69.6875 51.5938 70.1094 51.9531 70.1198 52.4583C70.1615 54.7969 70.1927 56.9115 70.2188 58.6927C70.2552 61.4375 70.2917 63.8229 70.349 64.2448C70.4167 64.5052 70.3698 64.8073 70.2188 65.026C70.0521 65.276 69.8438 65.5833 64.7605 65.5833Z" fill="#2E2020"/>
</svg>
