<svg width="4" height="4" viewBox="0 0 4 4" fill="none" xmlns="http://www.w3.org/2000/svg">
<path d="M1.79695 1.80728C1.75529 1.83332 1.71883 1.86457 1.68758 1.89582C1.73445 1.88541 1.78133 1.87499 1.8282 1.85937L1.79695 1.80728ZM2.28133 3.46874C2.10424 3.46874 1.93237 3.43228 1.79175 3.35416C1.3907 3.13541 1.23966 2.79686 1.15633 2.61457C1.16154 2.59374 0.166746 1.43228 0.671954 0.578116C0.859454 0.265616 1.28654 -0.0364685 1.90112 0.114574C2.85425 0.364574 3.22404 2.13541 3.22925 2.15103C3.35425 2.82291 3.04175 3.16145 2.84904 3.30207C2.69279 3.41666 2.48445 3.46874 2.28133 3.46874Z" fill="#2E2020"/>
</svg>
