<svg width="74" height="69" viewBox="0 0 74 69" fill="none" xmlns="http://www.w3.org/2000/svg">
<path fill-rule="evenodd" clip-rule="evenodd" d="M73.2604 62.724C73.2865 63.9844 72.0938 62.9792 71.8333 63.7396C71.6979 64.1354 71.8333 64.7292 71.6771 65.0625C71.4948 65.4375 70.6198 65.0573 70.4062 65.3542C70.2083 65.6354 70.2344 66.5312 70.0625 66.7865C69.7865 67.1823 68.9844 66.6302 68.75 66.8594C68.2344 67.375 68.4219 68.3906 68.4635 68.4844C68.9531 69.5365 14.1094 66.6198 14.1094 66.6198C14.1094 66.6198 16.1458 48.1979 12.5885 36.1302C9.03125 24.0625 0.4375 6.68229 0.4375 6.68229C0.4375 6.68229 1.15104 6.71875 2.41667 6.77604C2.83333 6.79688 1.65625 4.61458 2.18229 4.64062C2.70312 4.66146 3.53125 4.45313 4.18229 4.51042C4.57812 4.54688 3.43229 2.82292 3.875 2.86979C4.34375 2.92708 5.34896 2.9375 5.86979 3.01562C6.30729 3.07812 4.8125 1.14062 5.28125 1.22396C12.4219 2.48958 27.276 2.17708 35.875 2.04688C51.6302 1.80208 68.3229 0.453125 68.3229 0.453125C68.3229 0.453125 71.1719 21.4531 72.4844 33.6354C72.4844 33.6354 73.1302 55.8802 73.2604 62.724Z" fill="#EFEFEF"/>
</svg>
