<svg width="5" height="11" viewBox="0 0 5 11" fill="none" xmlns="http://www.w3.org/2000/svg">
<path d="M3.21885 10.4062C3.03656 10.4062 2.84906 10.3385 2.70843 10.2031C2.42197 9.92184 2.41156 9.45309 2.69802 9.16663C3.69281 8.13017 3.34385 7.526 2.16156 6.17184C1.76572 5.71871 1.34906 5.23955 1.07822 4.72392C0.489683 3.59371 0.291767 2.49475 0.171975 1.18746C0.135516 0.786421 0.432392 0.427046 0.833433 0.385379C1.23968 0.343713 1.59385 0.651005 1.63031 1.05205C1.73447 2.21871 1.90114 3.12496 2.3751 4.04684C2.5626 4.41142 2.90635 4.80205 3.26052 5.2083C4.26052 6.35413 5.77614 8.0833 3.73968 10.1823C3.60427 10.3333 3.41156 10.4062 3.21885 10.4062Z" fill="#2E2020"/>
</svg>
