<svg width="12" height="25" viewBox="0 0 12 25" fill="none" xmlns="http://www.w3.org/2000/svg">
<path d="M8.25524 7.79166C7.84379 7.79166 7.47399 7.52083 7.36983 7.10416C7.06254 5.91666 6.5417 5.27603 4.82295 3.1302L4.25004 2.40624C3.93233 2.01041 3.99483 1.43228 4.39066 1.11978C4.78649 0.807284 5.35941 0.874992 5.67191 1.26562L6.25004 1.97916C8.05733 4.23437 8.73441 5.07812 9.14066 6.65103C9.26566 7.14062 8.96879 7.64062 8.48441 7.76562C8.40629 7.78124 8.32816 7.79166 8.25524 7.79166ZM10.1198 19.8229C9.68754 19.8229 9.30212 19.5104 9.21879 19.0677C8.83337 16.9115 8.51045 14.9323 8.23441 13.0208C8.16149 12.526 8.51045 12.0625 9.01045 11.9896C9.50524 11.9062 9.974 12.2656 10.0469 12.7656C10.3125 14.6562 10.6355 16.6094 11.0209 18.7448C11.1146 19.2396 10.7813 19.7187 10.2813 19.8073C10.2292 19.8177 10.1719 19.8229 10.1198 19.8229ZM4.38024 24.5156C3.35941 24.5156 2.28649 24.4323 1.26045 24.2865C0.765662 24.2135 0.416702 23.75 0.489619 23.25C0.562535 22.7448 1.02608 22.4115 1.52608 22.474C3.5417 22.7708 5.76566 22.7448 7.26045 22.401C7.75524 22.2917 8.24483 22.599 8.3542 23.0937C8.46879 23.5885 8.16149 24.0781 7.6667 24.1875C6.71879 24.4062 5.60941 24.5156 4.38024 24.5156Z" fill="#EFEFEF"/>
</svg>
