<svg width="18" height="18" viewBox="0 0 18 18" fill="none" xmlns="http://www.w3.org/2000/svg">
<path d="M4.80723 2.84373C4.77077 2.84373 4.71869 2.85935 4.67702 2.88018C4.26035 3.05727 4.23431 3.22914 4.21869 3.29164C4.19265 3.46873 4.18744 4.40102 6.44785 6.62498C6.2916 6.23435 6.14056 5.79164 5.98952 5.30727C5.73431 4.5156 5.26035 3.04164 4.83327 2.84893C4.82806 2.84373 4.81765 2.84373 4.80723 2.84373ZM6.79681 10.1458C6.79681 10.1614 6.7916 10.1771 6.7916 10.1979C6.79681 10.1666 6.79681 10.1458 6.79681 10.1458ZM11.3437 9.40623C11.5833 9.61977 11.8541 9.8906 12.177 10.2083C12.8801 10.901 14.3333 12.3489 14.9999 12.2344C15.2083 12.1979 15.3906 11.8646 15.4791 11.6719C15.6614 11.2864 15.5833 11.125 15.5572 11.0677C15.2343 10.3854 13.3593 9.91664 12.2447 9.6406C11.9114 9.55206 11.6093 9.47914 11.3437 9.40623ZM7.63535 9.16664C7.76556 9.16664 7.90619 9.19268 8.05723 9.2656C8.36973 9.40623 8.67702 9.77081 8.61452 10.3489C8.52598 11.2396 8.69786 14.7031 9.1614 15.8489C9.8489 14.9531 9.67181 12.875 9.5989 11.9739C9.58848 11.8385 9.4114 11.4375 9.31244 11.2031C9.00515 10.4791 8.70827 9.79685 9.14056 9.2031C9.34369 8.93227 9.65098 8.78123 10.0051 8.77081C9.96348 8.73435 9.92702 8.69269 9.89577 8.65102C9.67181 8.36977 9.58848 8.03644 9.64577 7.7031C9.76035 7.10414 10.2916 6.79164 10.7187 6.54164C10.8593 6.45831 11.0937 6.32289 11.151 6.25518C12.1249 4.44268 12.3489 3.10414 12.0624 2.73956C12.0051 2.74998 11.4739 2.96873 10.2135 4.94268L10.1093 5.10935C10.0051 5.2656 9.89056 5.66144 9.7916 5.98435C9.55723 6.7656 9.30723 7.57289 8.64056 7.91144C8.37494 8.04685 8.07286 8.08331 7.77598 8.02081C7.9114 8.32289 7.86452 8.61977 7.64056 8.90102C7.49473 9.07289 7.4114 9.11456 6.95827 9.34894C3.6614 11.0573 2.82286 11.9427 2.6041 12.2864C3.21869 12.2396 4.92181 11.2969 5.67181 10.6927C5.81244 10.5833 5.99473 10.375 6.18744 10.1719C6.69786 9.61977 7.12494 9.16664 7.63535 9.16664ZM9.06765 17.8906C8.84369 17.8906 8.6614 17.8333 8.51556 17.7708C7.19265 17.2031 6.85931 14.2083 6.7916 12.1458C6.49473 12.375 3.14056 14.8958 1.56765 13.8698C0.786397 13.3594 0.697856 12.6875 0.71348 12.3333C0.77598 11.1041 2.13535 9.85935 5.36452 8.12498C3.13535 5.98435 2.19786 4.34373 2.4166 2.99477C2.51035 2.43748 2.8489 1.67185 3.95306 1.19789C4.6666 0.890601 5.23952 1.02602 5.59369 1.18227C6.75515 1.71352 7.24994 3.24998 7.7291 4.74477C7.80723 4.99477 7.90619 5.29685 7.99994 5.57289C8.02077 5.53123 8.02598 5.48956 8.0416 5.4531C8.18744 4.97393 8.33327 4.48435 8.57806 4.10935L8.67702 3.95831C9.6614 2.41143 10.7499 0.968726 12.0312 0.901018C12.5937 0.86456 13.1093 1.11977 13.4947 1.59893C14.5937 2.98435 13.6874 5.3906 12.7343 7.16664C12.6041 7.40102 12.4218 7.58852 12.2239 7.74477C12.3801 7.78644 12.5416 7.8281 12.6874 7.86456C14.3906 8.28643 16.5104 8.82289 17.2031 10.276C17.4218 10.7344 17.5833 11.4791 17.1354 12.4427C16.7135 13.3594 16.1041 13.901 15.3281 14.0364C13.9583 14.2864 12.5989 13.1614 11.4426 12.0469C11.5885 13.9479 11.5572 15.8489 10.5208 17.0677C9.98431 17.7135 9.46869 17.8906 9.06765 17.8906Z" fill="#2E2020"/>
</svg>
