<svg width="8" height="68" viewBox="0 0 8 68" fill="none" xmlns="http://www.w3.org/2000/svg">
<path d="M1.89071 67.8281C1.3855 67.8281 0.979248 67.4167 0.979248 66.9115C0.979248 62.8437 1.36467 57.9062 1.77612 52.6771C2.28133 46.2239 2.80216 39.5521 2.56779 34.4323C2.49487 32.8854 2.40633 31.3542 2.31779 29.8281C1.73967 19.8281 1.19279 10.3802 5.84383 1.0729C6.06779 0.619779 6.61987 0.437487 7.06779 0.661446C7.52092 0.890612 7.70321 1.43749 7.47925 1.89061C3.05216 10.7656 3.58341 19.9739 4.14591 29.7239C4.23446 31.2552 4.323 32.7969 4.39591 34.3489C4.63029 39.5833 4.10425 46.3125 3.59383 52.8177C3.19279 58.0156 2.80737 62.9167 2.80737 66.9115C2.80737 67.4167 2.39591 67.8281 1.89071 67.8281Z" fill="#2E2020"/>
</svg>
