<svg width="26" height="29" viewBox="0 0 26 29" fill="none" xmlns="http://www.w3.org/2000/svg">
<path fill-rule="evenodd" clip-rule="evenodd" d="M23.3385 6.72401C22.4895 5.69797 21.3958 4.72922 19.9947 3.68756C19.026 2.9636 17.4739 2.30735 16.3958 1.84901C14.0728 0.85943 11.4218 0.697973 9.52075 0.838597C7.61971 0.979222 6.53117 1.31776 6.53117 1.31776C6.18221 1.52089 5.76555 1.69276 6.39575 2.22922C7.03117 2.77089 7.85409 2.50006 7.85409 2.50006C8.16659 2.26047 8.26554 3.06256 7.94784 3.29172C6.68221 4.18235 5.06763 3.59381 4.80721 5.59381C4.74471 6.10943 5.64575 6.07297 5.94784 5.90631C6.20304 5.76568 5.9218 5.31256 6.13534 5.13026C6.3593 4.93756 6.63013 5.16672 6.66138 5.40631C6.84367 6.70839 5.27075 6.19797 4.78638 6.84381C4.45825 7.2761 4.26034 7.86985 3.95304 8.23443C3.77075 8.45839 3.26034 8.45839 3.16659 8.72401C3.01555 9.16151 3.68221 9.28131 3.47388 9.60943C3.06242 10.2761 1.21346 10.2969 2.08846 11.6251C2.22388 11.8438 2.74992 11.5417 2.90617 11.4428C3.24992 11.2292 3.59888 11.0209 3.80721 10.6667C4.03117 10.2969 3.91659 9.95839 4.33846 9.73443C5.06242 9.35943 5.59888 9.18756 6.34367 9.17714C6.51555 9.17714 7.052 9.82818 7.20304 9.62506C7.57284 9.13026 6.22388 8.78651 6.06242 8.67193C5.76034 8.47401 6.08325 8.22401 6.33846 8.25526C7.09367 8.35422 7.53117 9.40631 8.24471 9.43756C9.27596 9.48443 8.28638 8.80214 8.65096 8.58339C8.83846 8.47922 9.65096 8.86985 9.95304 8.84381C10.2135 8.81776 10.7291 8.36985 10.9426 8.53651C11.7239 9.11985 11.552 9.93235 10.6197 10.3542C10.1145 10.5782 9.51555 10.2657 9.052 10.5417C8.60409 10.8073 8.91138 11.3021 8.54679 11.4271C8.02075 11.6094 6.77075 11.5469 6.32804 11.1719C6.09367 10.974 6.20825 10.7032 5.85409 10.6251C5.55721 10.5678 5.20825 10.7969 4.95825 10.9063C4.08325 11.2865 2.78117 11.7553 2.20304 12.5782C1.94784 12.9428 1.927 13.4167 1.70304 13.7813C1.24471 14.5105 0.692628 15.2657 0.609295 16.1511C0.546795 16.7865 0.880128 17.474 0.99992 18.0782C1.27075 19.4792 1.76554 20.3907 3.32804 20.5001C4.70304 20.5938 5.75513 19.4844 7.14575 19.8438C7.45305 19.9219 7.93742 19.7969 8.15617 20.0938C8.58846 20.6928 8.69784 21.5886 9.14575 22.1251C9.66138 22.7448 10.5155 22.4792 10.9426 23.3126C11.3176 24.0417 11.052 24.9063 11.3905 25.6094C11.5885 26.0261 12.1614 26.0782 12.4478 26.4115C13.1197 27.1823 14.0676 28.6928 15.1718 28.8334C15.5728 28.8855 16.0364 28.3907 16.3176 28.1511C16.6093 27.9063 16.9739 27.8334 17.177 27.4584C17.7812 26.3751 17.2864 25.2136 17.6405 24.099C17.901 23.2761 18.4791 22.7032 18.2447 21.7605C17.9583 20.6251 17.3385 19.7292 17.5885 18.5417C17.7916 17.5469 17.8853 16.4115 18.2499 15.4636C18.3958 15.099 18.7343 14.4844 18.4218 14.1303C18.1874 13.8594 17.0728 14.0157 16.6822 13.9167C15.5989 13.6355 15.1353 12.7448 14.2447 12.2136C13.8489 11.974 13.328 11.9636 12.9583 11.6667C12.7551 11.5053 12.4426 11.0678 12.4791 10.8021C12.5364 10.3594 13.302 10.9271 13.4166 11.0469C14.1718 11.8542 15.0208 12.3178 15.9374 12.8959C16.177 13.0469 16.4478 13.6094 16.7916 13.3073C17.427 12.7553 17.7812 11.7917 18.2135 11.073C18.3176 10.9011 18.5416 10.4271 18.4114 10.224C17.9999 9.5938 16.5051 9.48443 15.8385 9.34381C15.6353 9.30214 15.0624 9.03131 15.2655 8.72922C15.4166 8.50006 16.6822 9.13547 17.1249 9.07297C17.3437 9.04172 17.3124 8.66672 17.5885 8.66672C17.9426 8.65631 18.1718 9.01047 18.5676 8.92714C18.8905 8.85943 18.9426 8.51568 19.2239 8.37506C19.552 8.2188 20.1145 8.56776 20.3853 8.75006C21.7239 9.6511 22.0051 11.3073 23.6562 11.5157C23.8072 11.5365 23.9374 11.8126 24.0937 11.7553C24.3853 11.6563 23.9687 10.9792 23.8905 10.8698C23.3489 10.073 22.9478 9.38026 22.6301 8.46881C22.552 8.25006 22.4583 7.67714 22.776 7.56256C22.927 7.51047 23.4322 7.98443 23.5208 8.08339C23.8853 8.47922 24.5416 9.27089 25.0989 9.34381C25.0989 9.34381 24.4478 8.06776 23.3385 6.72401Z" fill="#9BBD71"/>
</svg>
