<svg width="361" height="325" viewBox="0 0 361 325" fill="none" xmlns="http://www.w3.org/2000/svg">
<path d="M360.812 320.469H207.62C207.62 320.469 185.052 331.073 161.115 315.677C137.182 300.292 123.505 287.302 123.505 287.302L138.552 258.234L165.568 265.411C170.359 226.771 173.089 202.495 180.271 179.932C187.453 157.365 202.5 128.297 202.5 128.297L222.672 121.453L292.771 125.896C292.771 125.896 323.203 173.427 342.016 202.484C360.823 231.552 338.938 254.802 338.938 254.802L360.812 320.469ZM0.0625 77.0104C0.0625 77.0104 1.09375 106.76 17.849 123.177H77.0052C77.0052 123.177 62.3021 106.078 58.5365 76.3334L0.0625 77.0104ZM27.0677 4.1719C27.0677 4.1719 28.099 33.9219 44.8542 50.3334H104.01C104.01 50.3334 89.3073 33.2396 85.5469 3.4896L27.0677 4.1719ZM46.3073 215.49C48.8646 215.49 50.7656 213.109 50.1875 210.609L48.0052 201.146C47.5833 199.333 45.974 198.057 44.125 198.057H4.42188C1.86458 198.057 -0.0364587 200.438 0.541667 202.938L2.72396 212.401C3.14583 214.208 4.75521 215.49 6.60417 215.49H46.3073ZM53.8177 227.813C53.3958 226.005 51.7865 224.724 49.9375 224.724H10.2448C7.6875 224.724 5.78646 227.104 6.36458 229.604L8.54688 239.068C8.96354 240.875 10.5781 242.156 12.4271 242.156H52.1146C54.6771 242.156 56.5781 239.776 56 237.276L53.8177 227.813ZM285.75 11.3542C288.87 11.3542 291.391 8.82294 291.391 5.71356C291.391 2.60419 288.859 0.072937 285.75 0.072937C282.641 0.072937 280.109 2.60419 280.109 5.71356C280.109 8.82294 282.641 11.3542 285.75 11.3542ZM289.344 48.2865C289.344 51.4063 291.875 53.9271 294.984 53.9271C298.094 53.9271 300.625 51.3959 300.625 48.2865C300.625 45.1615 298.094 42.6406 294.984 42.6406C291.875 42.6406 289.344 45.1615 289.344 48.2865ZM238.177 15.3959C241.297 15.3959 243.818 12.8646 243.818 9.75523C243.818 6.63544 241.286 4.1146 238.177 4.1146C235.057 4.1146 232.536 6.64065 232.536 9.75523C232.536 12.875 235.068 15.3959 238.177 15.3959Z" fill="#FF88A0"/>
</svg>
