<svg width="36" height="42" viewBox="0 0 36 42" fill="none" xmlns="http://www.w3.org/2000/svg">
<path fill-rule="evenodd" clip-rule="evenodd" d="M0.135498 0.598877L6.198 1.17179C6.198 1.17179 5.84383 1.77075 6.40112 2.68221C6.95842 3.59888 7.08862 4.02596 7.97925 5.02596C8.87508 6.02075 9.65633 6.93742 10.5313 7.85929C11.4115 8.78117 11.9792 9.10929 12.349 10.4895C12.7136 11.8749 12.797 12.9583 12.7345 14.901C12.6772 16.8489 12.2605 19.4426 12.2345 21.2708C12.2136 23.0989 12.3022 24.526 12.6876 25.7135C13.0782 26.901 14.0417 28.5937 14.7188 29.5416C15.4011 30.4947 16.5365 31.7395 17.2917 32.401C18.0522 33.0728 19.5938 33.9426 20.9636 34.3801C22.3334 34.8176 23.2917 35.1874 24.6824 34.9478C26.073 34.703 26.5626 34.8749 27.5626 34.4218C28.5626 33.9687 30.0001 33.2864 30.948 32.1666C31.8959 31.0468 32.8959 30.3749 32.9949 28.9218C33.1042 27.4687 33.5313 26.1926 33.2865 24.6301C33.0365 23.0676 33.323 22.3853 32.4115 20.6562C31.5001 18.9218 29.922 16.0468 30.9845 17.3072C32.047 18.5676 32.1303 18.7239 33.1876 20.4687C34.2449 22.2187 33.9636 21.8697 34.8438 23.6718C35.7292 25.4739 35.5417 27.703 35.2865 29.1874C35.0313 30.677 34.2501 32.3228 33.2032 33.4374C32.1615 34.5468 30.5105 36.3228 28.7136 37.6458C26.9167 38.9635 25.599 39.6353 23.7865 40.2239C21.9636 40.8124 20.2397 41.2395 18.7032 40.9791C17.172 40.7187 14.7917 39.6822 13.2449 38.6874C11.6928 37.6926 9.79175 35.8333 9.05737 34.4791C8.323 33.1353 7.30216 30.2916 7.05737 28.2447C6.81258 26.1874 6.71362 23.2239 6.6355 21.8749C6.55737 20.5208 6.51571 17.2447 6.33342 15.9843C6.15112 14.7187 5.97404 11.7708 5.47404 10.4947C4.97925 9.22388 4.71883 8.45825 3.78133 7.41138C2.84383 6.35929 1.84904 5.13013 1.20321 4.10929C0.557373 3.08846 0.135498 0.598877 0.135498 0.598877Z" fill="#D39760"/>
</svg>
