<svg width="16" height="16" viewBox="0 0 16 16" fill="none" xmlns="http://www.w3.org/2000/svg">
<path fill-rule="evenodd" clip-rule="evenodd" d="M6.89581 6.10419C5.80206 5.71877 5.56248 0.0677316 3.31768 1.04169C-0.0260655 2.47398 5.95831 7.28648 5.92706 7.32815C5.8281 7.44273 -1.16148 10.6511 1.06768 12.099C1.91143 12.6511 4.62498 10.9063 5.24477 10.4115C5.72914 10.0261 6.77602 8.63023 6.70831 9.24482C6.63539 9.88023 6.67706 18.0261 8.82289 15.4792C9.7656 14.3646 9.61977 12.2188 9.51039 10.8959C9.44789 10.1511 8.35414 8.59898 9.09893 8.68752C10.0833 8.7969 13.7187 14.4844 15.3073 11.0573C16.7187 8.02606 10.276 7.91148 9.60935 7.08336C9.21873 6.58856 10.6302 6.28648 10.9271 5.7344C11.4531 4.76044 12.651 2.27086 11.7812 1.1719C10.6666 -0.229143 8.79685 2.91148 8.34373 3.6094C7.84894 4.36982 7.72393 6.40106 6.89581 6.10419Z" fill="#E2635B"/>
</svg>
