<svg width="53" height="38" viewBox="0 0 53 38" fill="none" xmlns="http://www.w3.org/2000/svg">
<path d="M19.2917 3.28642C19.2344 3.28642 19.1615 3.28121 19.099 3.26038C17.2292 2.85933 15.2552 2.62496 13.2292 2.57808C12.7292 2.56767 12.3282 2.14058 12.3386 1.64058C12.3542 1.13537 12.7709 0.744751 13.2761 0.744751C15.4115 0.802042 17.5 1.04163 19.4896 1.47392C19.9792 1.58329 20.2969 2.06767 20.1875 2.56246C20.099 2.98954 19.7188 3.28642 19.2917 3.28642ZM1.19274 4.07288C0.786486 4.07288 0.411485 3.79683 0.312527 3.38017C0.187527 2.89058 0.484402 2.39058 0.968777 2.27079C3.05732 1.73954 5.1094 1.34371 7.06253 1.0885C7.55732 1.02079 8.02086 1.38017 8.08336 1.88017C8.15107 2.38538 7.7969 2.84371 7.2969 2.90621C5.41669 3.151 3.44273 3.53121 1.41669 4.04683C1.34378 4.06246 1.27086 4.07288 1.19274 4.07288ZM30.3646 8.17704C30.1823 8.17704 30 8.11975 29.8438 8.01038C28.1823 6.85413 26.4532 5.86975 24.7032 5.09371C24.2448 4.89059 24.0313 4.34892 24.2344 3.88538C24.4427 3.42183 24.9844 3.2135 25.4427 3.42183C27.3021 4.24996 29.1354 5.28642 30.8854 6.50517C31.3021 6.79683 31.4011 7.36454 31.1146 7.78121C30.9375 8.03642 30.6511 8.17704 30.3646 8.17704ZM39.1927 16.526C38.9271 16.526 38.6667 16.4166 38.4896 16.1927C37.1563 14.5833 35.7917 13.1041 34.4271 11.7968C34.0625 11.4479 34.0521 10.8645 34.4011 10.5C34.75 10.1354 35.3282 10.125 35.6927 10.4739C37.1042 11.8281 38.5209 13.3593 39.8959 15.0312C40.2188 15.4166 40.1615 15.9948 39.7761 16.3177C39.6042 16.4583 39.3959 16.526 39.1927 16.526ZM46.1563 26.5312C45.8438 26.5312 45.5417 26.375 45.3698 26.0885C44.2865 24.2864 43.1875 22.5729 42.1042 21.0052C41.8177 20.5937 41.9219 20.0208 42.3386 19.7343C42.75 19.4479 43.3177 19.5468 43.6094 19.9687C44.7136 21.5625 45.8282 23.3073 46.9375 25.1406C47.1979 25.5781 47.0625 26.1406 46.625 26.401C46.4792 26.4895 46.3177 26.5312 46.1563 26.5312ZM51.9844 37.25C51.6511 37.25 51.3282 37.0625 51.1667 36.7395C50.2188 34.8437 49.2813 33.0312 48.3698 31.3541C48.1302 30.9114 48.2969 30.3541 48.7396 30.1145C49.1771 29.875 49.7344 30.0364 49.9792 30.4843C50.8959 32.177 51.849 34.0104 52.8073 35.9218C53.0261 36.375 52.849 36.927 52.3959 37.151C52.2657 37.2187 52.1198 37.25 51.9844 37.25Z" fill="#EFEFEF"/>
</svg>
