<svg width="210" height="19" viewBox="0 0 210 19" fill="none" xmlns="http://www.w3.org/2000/svg">
<path d="M197.641 8.94268C188.651 7.24477 179.318 6.60935 170.411 5.63539C157.391 4.23435 144.328 3.17706 131.224 2.53643C105.349 1.2656 79.3958 0.588517 53.4791 0.54685C39.0989 0.505184 24.6823 0.760391 10.302 1.1406C7.2083 -0.64065 2.75517 -0.218774 1.09892 4.10935C-0.0885762 7.2031 1.65101 11.1041 4.74476 12.3333C6.95309 13.1823 9.5833 12.5416 11.3645 11.0156C36.8125 10.4687 62.2604 10.4219 87.6666 10.8906C113.578 11.401 139.453 12.8385 165.365 13.5625C176.01 13.8594 186.995 14.9166 197.771 14.6198C198.448 15.9791 199.594 17.1666 201.036 17.7187C204.13 18.9479 208.078 17.25 209.307 14.1562C212.234 6.73435 200.995 2.07289 197.641 8.94268Z" fill="#0A141E"/>
</svg>
