<svg width="69" height="26" viewBox="0 0 69 26" fill="none" xmlns="http://www.w3.org/2000/svg">
<path d="M67.323 25.5156C66.8594 25.5156 66.4636 25.1667 66.4167 24.6927C65.3334 13.7136 63.7605 5.30209 63.2552 2.75522C60.0052 3.06251 47.5938 4.14584 34.1355 4.35939C21.2292 4.5573 7.08337 3.94793 2.46879 3.72918L2.52087 3.83334C2.74483 4.29168 2.55212 4.83855 2.09379 5.0573C1.64066 5.28126 1.09379 5.08855 0.875036 4.63022L0.151078 3.13543C0.0156615 2.83855 0.0364952 2.50001 0.218786 2.22918C0.39587 1.95834 0.703162 1.8073 1.02608 1.82293C1.19795 1.82813 18.5782 2.76043 34.1042 2.52605C49.6355 2.28126 63.7552 0.869802 63.9011 0.848968C64.349 0.796884 64.7865 1.11459 64.8855 1.57293C64.9011 1.66668 66.9271 11.2344 68.2344 24.5104C68.2813 25.0156 67.9167 25.4636 67.4167 25.5104C67.3802 25.5156 67.3542 25.5156 67.323 25.5156Z" fill="#2E2020"/>
</svg>
