<svg width="9" height="14" viewBox="0 0 9 14" fill="none" xmlns="http://www.w3.org/2000/svg">
<path d="M4.29157 13.5782C3.95823 13.5782 3.57282 13.4792 3.14053 13.1823C1.78115 12.2292 1.74469 10.3959 1.71344 8.92712C1.70303 8.2917 1.69261 7.63545 1.5624 7.26045C1.40615 6.78129 1.66657 6.26045 2.14573 6.1042C2.61969 5.94274 3.14053 6.20316 3.30198 6.68754C3.51032 7.31774 3.52594 8.08337 3.54157 8.89066C3.56761 10.0052 3.59365 11.2605 4.1874 11.6771C4.23949 11.7136 4.27594 11.7292 4.29678 11.7396C4.29157 11.6927 4.55198 11.3959 4.80198 10.3125C4.92178 9.81774 5.08844 9.23441 5.27073 8.59379C5.85407 6.57295 6.65094 3.81774 6.00511 2.34899C5.86969 2.0417 5.71865 1.96358 5.38011 2.00524C4.22907 2.1667 2.68219 3.73441 2.57803 4.44274C2.51032 4.94274 2.04157 5.2865 1.54678 5.21879C1.04157 5.14587 0.697819 4.68233 0.770735 4.17712C1.00511 2.53129 3.29157 0.447954 5.13011 0.192744C6.28115 0.0364949 7.20824 0.552119 7.67698 1.60941C8.59365 3.68754 7.72386 6.68754 7.03115 9.1042C6.85928 9.70316 6.69261 10.2605 6.58844 10.724C6.35928 11.7032 5.94261 13.0573 4.89053 13.4636C4.72386 13.5313 4.52594 13.5782 4.29157 13.5782Z" fill="#2E2020"/>
</svg>
