<svg width="6" height="12" viewBox="0 0 6 12" fill="none" xmlns="http://www.w3.org/2000/svg">
<path d="M2.56251 2.72397C2.52605 2.92188 2.5 3.19793 2.51563 3.51043C2.56771 4.76043 2.81251 6.25001 3.31251 7.57813C3.3073 7.46355 3.30209 7.34376 3.29167 7.21355L3.28646 7.00522V6.57293C3.29688 5.52605 3.31251 3.40105 2.56251 2.72397ZM4.13021 11.5052C3.85417 11.5052 3.56771 11.3906 3.38021 11.2031C1.08334 8.78647 0.739589 4.76563 0.687505 3.59376C0.656256 2.82293 0.734379 1.45834 1.65625 0.9323C1.96355 0.760424 2.59896 0.552091 3.45313 1.10418C5.15105 2.21355 5.13021 4.95313 5.11459 6.58855V7.00522L5.12501 7.1198C5.30209 10.6823 5.15105 11.1458 4.48438 11.4375C4.37501 11.4844 4.25521 11.5052 4.13021 11.5052Z" fill="#2E2020"/>
</svg>
