<svg width="11" height="22" viewBox="0 0 11 22" fill="none" xmlns="http://www.w3.org/2000/svg">
<path fill-rule="evenodd" clip-rule="evenodd" d="M0.453192 7.84383C0.453192 7.84383 1.22923 6.89071 2.76048 5.60946C4.28653 4.32821 5.64069 3.19279 7.61465 2.10425C9.5834 1.02091 10.8699 0.479248 10.8699 0.479248C10.8699 0.479248 11.1094 1.36467 10.8959 2.22925C10.6771 3.09904 9.96882 5.35946 9.63548 6.35946C9.29694 7.35946 9.0834 9.04696 9.18757 10.1147C9.28653 11.1824 9.98965 14.474 10.1772 15.4792C10.3647 16.4845 10.448 18.323 10.1772 19.2292C9.91153 20.1407 9.28132 20.9428 8.50007 21.0157C7.7084 21.0886 7.24486 20.9897 6.34382 20.422C5.43236 19.849 4.06777 18.7032 3.39069 18.073C2.71882 17.4376 2.16153 16.0938 1.7084 15.1511C1.26569 14.2032 0.921941 12.7188 0.682358 11.5574C0.442774 10.3907 0.453192 7.84383 0.453192 7.84383Z" fill="#E8BB81"/>
</svg>
