<svg width="13" height="13" viewBox="0 0 13 13" fill="none" xmlns="http://www.w3.org/2000/svg">
<path d="M12.6665 6.24475C12.6665 6.63538 12.63 7.026 12.5519 7.41142C12.4738 7.79683 12.3592 8.17183 12.2082 8.53642C12.0571 8.901 11.8748 9.24996 11.6561 9.57808C11.4373 9.901 11.1873 10.2083 10.9113 10.4843C10.63 10.7656 10.328 11.0104 9.99984 11.2291C9.67171 11.4479 9.32796 11.6354 8.96338 11.7864C8.5988 11.9375 8.2238 12.052 7.83838 12.125C7.44776 12.2031 7.06234 12.2395 6.6665 12.2448C6.27067 12.2395 5.88004 12.2031 5.49463 12.125C5.10921 12.052 4.73421 11.9375 4.36963 11.7864C4.00504 11.6354 3.6613 11.4479 3.33317 11.2291C3.00505 11.0104 2.70296 10.7656 2.42171 10.4843C2.14567 10.2083 1.89567 9.901 1.67692 9.57808C1.45817 9.24996 1.27588 8.901 1.12484 8.53642C0.973796 8.17183 0.859211 7.79683 0.781087 7.41142C0.702962 7.026 0.666504 6.63538 0.666504 6.24475C0.666504 5.84892 0.702962 5.45829 0.781087 5.07288C0.859211 4.68746 0.973796 4.31246 1.12484 3.94788C1.27588 3.58329 1.45817 3.23433 1.67692 2.90621C1.89567 2.58329 2.14567 2.276 2.42171 1.99996C2.70296 1.71871 3.00505 1.47392 3.33317 1.25517C3.6613 1.03642 4.00504 0.848917 4.36963 0.697876C4.73421 0.546833 5.10921 0.432252 5.49463 0.359334C5.88004 0.28121 6.27067 0.244751 6.6665 0.244751C7.06234 0.244751 7.44776 0.28121 7.83838 0.359334C8.2238 0.432252 8.5988 0.546833 8.96338 0.697876C9.32796 0.848917 9.67171 1.03642 9.99984 1.25517C10.328 1.47392 10.63 1.71871 10.9113 1.99996C11.1873 2.276 11.4373 2.58329 11.6561 2.90621C11.8748 3.23433 12.0571 3.58329 12.2082 3.94788C12.3592 4.31246 12.4738 4.68746 12.5519 5.07288C12.63 5.45829 12.6665 5.84892 12.6665 6.24475Z" fill="black"/>
</svg>
