<svg width="53" height="14" viewBox="0 0 53 14" fill="none" xmlns="http://www.w3.org/2000/svg">
<path d="M25.8593 13.4427C25.7604 13.4427 25.6614 13.4375 25.5624 13.4323C23.2291 13.2917 21.6197 11.4636 20.0624 9.69275C17.9583 7.30212 16.4062 5.75004 14.1249 5.98962C13.4426 6.06254 12.8958 6.07296 12.4635 6.08337C11.177 6.10421 10.2499 6.12504 4.46869 9.0365C3.20827 9.67192 1.67181 9.1615 1.04161 7.89587C0.411398 6.63546 0.916606 5.09379 2.17702 4.46358C8.68223 1.18754 10.2135 1.00525 12.3697 0.963582C12.7551 0.958374 13.1249 0.953166 13.5937 0.901082C18.6614 0.364624 21.8072 3.94275 23.8906 6.30733C24.4843 6.97921 25.3489 7.96358 25.8229 8.26567C26.1718 8.00525 26.776 7.29171 27.2291 6.75525C29.1926 4.42192 32.4895 0.515665 39.3489 0.890665C39.5104 0.901081 39.6666 0.906291 39.8124 0.916707C43.2239 1.08337 44.1197 1.49483 51.7812 6.40629C52.9687 7.17191 53.3176 8.75525 52.5572 9.94275C51.7968 11.1355 50.2187 11.4844 49.0312 10.7188C41.8958 6.14587 41.6718 6.13546 39.5572 6.02608C39.4062 6.02087 39.2447 6.01046 39.0729 6.00004C34.7447 5.76567 32.9062 7.94796 31.1249 10.0625C29.7864 11.6511 28.276 13.4427 25.8593 13.4427Z" fill="#E07769"/>
</svg>
