<svg width="33" height="49" viewBox="0 0 33 49" fill="none" xmlns="http://www.w3.org/2000/svg">
<path fill-rule="evenodd" clip-rule="evenodd" d="M2.3178 44.0417C2.3178 44.0417 3.1303 41.7552 2.90634 40.2448C2.68238 38.7292 2.14592 32.0573 1.52092 29.0417C0.90113 26.026 0.718839 22.7344 0.401131 19.8594C0.0782146 16.9792 -0.0155364 13.7552 0.229256 12.5052C0.479256 11.2552 1.40634 10.4896 2.58342 10.1198C3.7605 9.74479 4.73967 8.92187 5.67196 9.38021C6.60426 9.83333 6.61988 9.0677 7.35426 8.125C8.09384 7.1875 9.1928 6.22916 10.323 5.875C11.4636 5.52604 11.8386 5.44791 12.7136 5.95312C13.5938 6.46354 13.797 6.07291 14.8074 5.26041C15.8178 4.44791 16.198 3.83854 17.5105 3.90104C18.823 3.95833 19.2293 5.11458 19.8699 3.86458C20.5053 2.60416 20.948 2.22916 22.2084 1.5C23.474 0.776037 23.8699 0.734371 24.4532 1.38541C25.0365 2.04166 25.0001 3.1875 24.8334 4.91666C24.6668 6.65104 23.3543 10.9375 24.2084 10.1719C25.0626 9.41666 31.547 4.53645 31.547 4.53645C31.547 4.53645 32.5313 6.48437 31.7188 8.66145C30.9115 10.8437 30.1095 11.974 29.4793 14.1458C28.849 16.3125 28.1251 18.6562 27.7084 21.5365C27.2918 24.4115 26.974 27.6354 26.4532 29.875C25.9376 32.1198 26.198 33.8229 25.0834 36.2865C23.9688 38.7448 20.9428 47.3646 20.9428 47.3646C20.9428 47.3646 14.8907 48.3906 12.8855 48.0937C10.8855 47.7969 8.46884 47.1875 7.17717 46.6406C5.89592 46.099 4.90113 45.6198 4.32301 45.25C3.75009 44.875 2.3178 44.0417 2.3178 44.0417Z" fill="#F9EBE0"/>
</svg>
