<svg width="184" height="216" viewBox="0 0 184 216" fill="none" xmlns="http://www.w3.org/2000/svg">
<path fill-rule="evenodd" clip-rule="evenodd" d="M41.7918 178.391C35.6147 183.896 29.2293 172.672 27.599 168.76C27.0365 167.401 26.2084 165.193 24.5105 164.979C19.5522 164.359 13.7553 170.396 8.71363 171.286C7.17196 171.557 3.44801 172.505 3.22405 170.021C2.64071 163.62 13.4115 153.797 17.6407 149.849C19.0105 148.573 24.7501 143.687 23.9376 141.25C23.2345 139.146 18.0938 139.766 16.6147 139.646C11.5626 139.24 1.73967 138.792 0.24488 132.312C-1.30199 125.594 13.0938 121.271 17.4115 120.505C19.4272 120.151 23.9428 120.198 24.5105 117.641C26.2709 109.713 13.5678 104.271 17.0678 95.75C20.4272 87.5833 26.099 103.099 30.349 95.8593C36.7813 84.9062 38.198 70.7291 41.7918 58.7239C43.1772 54.1041 46.1147 46.026 50.948 43.8229C56.7918 41.1666 51.7813 56.2083 57.2449 53.2239C60.9584 51.1979 62.823 44.8906 64.3438 41.302C67.4376 33.9895 71.2345 27.552 75.6772 21.0156C77.5938 18.1822 80.8855 12.2239 84.8334 11.7291C89.6095 11.1302 86.8543 21.7604 86.2032 23.651C81.4168 37.5937 65.7553 77.8906 66.4011 78.3229C67.599 79.125 78.4168 52.3125 81.8543 43.7083C82.9115 41.0572 84.1407 38.302 85.5157 35.802C85.9897 34.9375 86.5366 32.6979 87.2345 33.3958C88.4324 34.5885 88.2084 37.4375 88.2657 39.0104C88.5053 45.8385 86.0418 52.4687 84.4845 59.0729C83.8438 61.8072 81.073 69.0677 85.9793 69.6145C93.8543 70.4895 170.698 2.47391 177.313 1.52599C178.453 1.36453 182.151 0.203073 183.151 0.953073C185.219 2.50516 180.135 7.51557 179.604 8.29161C176.505 12.8437 173.115 17.1927 169.646 21.4739C168.151 23.3124 165.479 25.5468 165.068 28.0052C164.901 29 177.396 20.9739 176.625 24.4531C175.37 30.1249 105.422 90.1354 101.542 96.552C100.589 98.125 98.198 101.469 98.9116 103.427C99.8491 106.016 104.188 103.823 105.552 103.198C109.615 101.333 122.391 95.0364 126.953 98.8437C129.167 100.687 126.573 104.911 125.469 106.521C122.203 111.271 117.412 114.729 114.136 119.474C113.068 121.016 111.25 123.151 112.875 124.979C113.886 126.115 117.313 124 117.912 123.713C120.917 122.266 131.307 115.125 134.625 118.443C136.438 120.255 134.323 124.213 133.136 125.781C130.896 128.734 119.089 140.526 124.094 145.036C127.266 147.896 133.63 146.979 137.484 147.328C143.714 147.896 149.917 148.641 156.026 150.078C159.188 150.823 165.448 151.687 165.182 156.156C164.953 160.005 160.787 161.307 157.854 162.687C157.281 162.958 154.255 164.094 154.537 165.208C154.886 166.594 164.12 167.818 159.688 170.484C155.156 173.208 143.276 170.687 141.146 176.672C139.849 180.312 145.037 183.646 147.443 185.151C153.453 188.917 160.526 196.271 163.578 202.693C164.766 205.182 169.448 213.203 164.953 214.953C161.208 216.411 156.844 213.453 153.964 211.516C145.75 205.974 135.708 195.167 125.922 192.719C123.781 192.182 125.672 195.312 126.037 195.927C127.042 197.599 130.87 204.687 127.641 206.125C121.156 209.016 115.203 194.521 108.755 195.812C107.255 196.115 112.151 207.646 106.234 205.672C101.432 204.068 97.5574 197.505 94.448 193.865C93.1668 192.37 90.6668 189.182 88.3803 189.505C86.4168 189.792 85.4897 193.047 84.599 194.437C82.3647 197.943 78.2865 200.24 74.073 199.937C58.3751 198.818 65.8178 178.63 55.9845 172.891C52.8074 171.031 44.3803 176.083 41.7918 178.391Z" fill="#FBC67B"/>
</svg>
