<svg width="6" height="18" viewBox="0 0 6 18" fill="none" xmlns="http://www.w3.org/2000/svg">
<path d="M2.25532 3.09371C2.23449 3.48433 2.22407 3.84892 2.21887 4.04683C2.20845 4.37496 2.19282 4.63017 2.18241 4.74475C1.58866 9.94788 1.85428 14.1145 2.83866 15.1198C2.97928 15.2604 3.09907 15.3125 3.28657 15.2916C3.34386 15.2864 3.40637 15.2708 3.4897 15.1614C4.49491 13.8177 3.38553 8.03121 2.96366 5.85412C2.8647 5.33329 2.77616 4.89058 2.72407 4.56767C2.67199 4.276 2.47928 3.66142 2.25532 3.09371ZM3.21366 17.125C2.57824 17.125 2.00012 16.8802 1.53657 16.4062C-0.432177 14.3958 -0.0415519 8.10933 0.364699 4.54683C0.375115 4.45308 0.380323 4.24996 0.39074 3.98433C0.463656 1.7135 0.578241 0.890583 1.09387 0.484332C1.47407 0.182249 1.93762 0.109332 2.37512 0.275998C3.79699 0.822874 4.52095 4.22912 4.53137 4.26558C4.58345 4.58329 4.66157 5.00517 4.76053 5.50517C5.60949 9.93746 6.32824 14.4218 4.94803 16.2552C4.57303 16.7604 4.05741 17.0573 3.45324 17.1145C3.37512 17.125 3.29178 17.125 3.21366 17.125Z" fill="#2E2020"/>
</svg>
