<svg width="20" height="18" viewBox="0 0 20 18" fill="none" xmlns="http://www.w3.org/2000/svg">
<path fill-rule="evenodd" clip-rule="evenodd" d="M9.19259 8.06252C8.60925 9.2396 1.71863 5.72919 0.421754 7.72919C-1.37512 10.4948 8.75509 9.94794 8.953 10.1979C9.23946 10.5625 5.08842 17.2448 7.12488 17.4792C9.2655 17.724 9.28113 11.6459 10.8436 11.0729C11.2707 10.9219 16.5884 16.9011 17.1249 14.2865C17.4113 12.9011 16.0572 11.6302 15.0207 10.8906C14.7968 10.724 12.6457 10.0677 12.8176 9.8021C13.828 8.25002 20.5572 9.1094 19.3384 5.0521C18.4999 2.26565 15.0363 5.81773 14.1718 6.63023C13.4947 7.27085 12.5572 9.39585 12.1301 8.55731C11.1509 6.66148 12.453 3.39585 11.4686 1.16148C10.6874 -0.614564 9.1978 1.73439 8.98946 2.54169C8.49467 4.44273 10.0363 6.33856 9.19259 8.06252Z" fill="#E2635B"/>
</svg>
