<svg width="20" height="13" viewBox="0 0 20 13" fill="none" xmlns="http://www.w3.org/2000/svg">
<path d="M18.2136 12.9792C17.9011 12.9792 17.5939 12.8178 17.422 12.5261L11.8595 3.00006C11.7709 2.84902 11.6303 2.74485 11.4636 2.70318C11.2761 2.65631 11.0782 2.68235 10.9064 2.78131L2.2449 7.84902C1.8074 8.09902 1.2501 7.95839 1.0001 7.52089C0.739688 7.08339 0.88552 6.52089 1.32302 6.27089L9.97927 1.19797C10.573 0.854223 11.2709 0.755265 11.9272 0.92714C12.5678 1.09902 13.1095 1.50526 13.4376 2.07818L19.0001 11.6042C19.2553 12.0417 19.1095 12.6042 18.672 12.8542C18.5261 12.9376 18.3699 12.9792 18.2136 12.9792Z" fill="#2E2020"/>
</svg>
