<svg width="95" height="76" viewBox="0 0 95 76" fill="none" xmlns="http://www.w3.org/2000/svg">
<path d="M67.9115 3.42713C67.8542 3.42713 67.7917 3.42192 67.724 3.4063C65.7969 3.01046 63.8177 2.79692 61.849 2.77088C61.3438 2.76567 60.9375 2.35422 60.9479 1.84901C60.9531 1.33859 61.3542 0.932342 61.8698 0.93755C63.9584 0.963591 66.0521 1.19276 68.099 1.61463C68.5886 1.7188 68.9063 2.20317 68.8073 2.69797C68.7188 3.13026 68.3386 3.42713 67.9115 3.42713ZM36.8386 3.95838C36.375 3.95838 35.9844 3.60942 35.9271 3.14067C35.875 2.64067 36.2344 2.18234 36.7344 2.13026C38.8073 1.89588 40.9792 1.85942 43 2.0313C43.5052 2.07297 43.8802 2.51047 43.8386 3.01567C43.7969 3.52088 43.349 3.89068 42.849 3.85422C40.9531 3.69276 38.8958 3.72922 36.9427 3.94797C36.9063 3.95317 36.8698 3.95838 36.8386 3.95838ZM25.2865 7.6563C24.9531 7.6563 24.6302 7.4688 24.4688 7.1563C24.2396 6.70317 24.4219 6.15109 24.8698 5.92192C26.7917 4.95318 28.724 4.13547 30.6146 3.51047C31.0886 3.34901 31.6094 3.60422 31.7656 4.08859C31.9271 4.56255 31.6667 5.08338 31.1927 5.24484C29.3854 5.84901 27.5365 6.62505 25.6979 7.55734C25.5625 7.62505 25.4271 7.6563 25.2865 7.6563ZM79.0834 8.12505C78.9063 8.12505 78.7292 8.07297 78.5729 7.9688C76.9427 6.86463 75.1927 5.92192 73.375 5.16151C72.9063 4.96359 72.6875 4.42713 72.8802 3.95838C73.0781 3.49484 73.6146 3.27609 74.0781 3.4688C76.0104 4.2813 77.8698 5.2813 79.5938 6.44797C80.0104 6.73442 80.1198 7.30213 79.8386 7.7188C79.6615 7.98443 79.3698 8.12505 79.0834 8.12505ZM53.5938 8.82817C53.2865 8.82817 52.9896 8.67192 52.8177 8.39588C51.9531 6.98963 50.5052 5.88026 48.5209 5.08859C48.0573 4.90109 47.8281 4.36463 48.0104 3.90109C48.2031 3.42713 48.7344 3.20318 49.1979 3.38547C49.2292 3.39588 49.2552 3.41151 49.2813 3.42192C49.375 3.32818 49.4844 3.25526 49.6094 3.20317C51.5469 2.43234 53.5729 1.84901 55.6354 1.47401C56.1302 1.38026 56.6094 1.70838 56.6927 2.20317C56.7865 2.70838 56.4584 3.18234 55.9636 3.27609C54.4115 3.55734 52.875 3.9688 51.3906 4.48963C52.6615 5.29692 53.6615 6.27609 54.3698 7.43234C54.6354 7.85942 54.5052 8.42192 54.0781 8.69276C53.9271 8.78651 53.7604 8.82817 53.5938 8.82817ZM40.1979 12.224C39.9844 12.224 39.7708 12.1511 39.599 12C39.2188 11.6667 39.1771 11.0886 39.5052 10.7084C40.9011 9.10422 42.8386 7.54692 44.2188 6.52609C44.6198 6.22401 45.1979 6.30734 45.4948 6.71359C45.7969 7.12505 45.7084 7.69276 45.3021 7.99484C44 8.96359 42.1719 10.4271 40.8854 11.9063C40.7083 12.1146 40.4583 12.224 40.1979 12.224ZM15.3229 14.6198C15.0833 14.6198 14.849 14.5313 14.6667 14.3438C14.3125 13.9792 14.3229 13.4011 14.6823 13.0469C16.0833 11.6771 17.7136 10.349 19.5261 9.09901C19.9375 8.81255 20.5052 8.91672 20.7969 9.33338C21.0833 9.74484 20.9792 10.3178 20.5625 10.6042C18.8333 11.7969 17.2917 13.0626 15.9636 14.3594C15.7813 14.5313 15.5521 14.6198 15.3229 14.6198ZM87.4063 16.9063C87.099 16.9063 86.7969 16.7501 86.625 16.4688C85.5677 14.7292 84.3698 13.1459 83.0677 11.7605C82.7188 11.3959 82.7344 10.8126 83.1042 10.4688C83.4688 10.1198 84.0521 10.1355 84.3959 10.5053C85.7865 11.9844 87.0625 13.6667 88.1875 15.5105C88.4479 15.9428 88.3177 16.5053 87.8802 16.7709C87.7344 16.8594 87.5729 16.9063 87.4063 16.9063ZM51.3177 19.5053C50.974 19.5053 50.6459 19.3125 50.4896 18.974C50.2761 18.5209 50.474 17.974 50.9323 17.7605C52.4688 17.0469 53.3959 15.724 53.6875 13.8282C53.7656 13.3282 54.2448 12.8959 54.7448 12.9792C55.2448 13.0521 55.599 13.4323 55.5209 13.9323L55.4948 14.1094C55.1146 16.6094 53.8021 18.4428 51.7031 19.4219C51.5781 19.4792 51.4479 19.5053 51.3177 19.5053ZM45.3386 19.9063C45.2761 19.9063 45.2084 19.9011 45.1459 19.8907C42.9584 19.4167 40.875 18.4532 39.2761 17.1719C38.8854 16.8542 38.8177 16.2761 39.1354 15.8803C39.4479 15.4896 40.0261 15.4219 40.4219 15.7396C41.7813 16.8334 43.6459 17.6875 45.5313 18.099C46.0209 18.2032 46.3386 18.6875 46.2292 19.1875C46.1406 19.6146 45.7604 19.9063 45.3386 19.9063ZM9.81251 24.2188L8.9271 23.974L8.07814 23.6198C8.87501 21.7136 9.65626 19.849 10.75 17.9948C11.0052 17.5625 11.5677 17.4167 12.0052 17.6771C12.4375 17.9323 12.5781 18.4948 12.3229 18.9271C11.2917 20.6719 10.5365 22.474 9.81251 24.2188ZM92.0104 28.1615C91.6042 28.1615 91.2292 27.8855 91.125 27.4688C90.6094 25.474 89.9844 23.5573 89.2708 21.7865C89.0886 21.3178 89.3125 20.7865 89.7813 20.5938C90.2448 20.4063 90.7813 20.6355 90.974 21.099C91.7136 22.948 92.3646 24.9375 92.8958 27.0157C93.0261 27.5053 92.724 28.0053 92.2396 28.1303C92.1615 28.1511 92.0833 28.1615 92.0104 28.1615ZM1.56772 34.1563C1.21876 34.1563 0.880221 33.948 0.72918 33.6042C0.531264 33.1407 0.744805 32.6042 1.20314 32.4011C2.96876 31.6355 4.31251 30.5261 5.44793 28.8959C5.73439 28.474 6.31251 28.375 6.71876 28.6667C7.13543 28.9532 7.2396 29.5261 6.94793 29.9375C5.63022 31.8386 3.9896 33.1928 1.93751 34.0782C1.81772 34.1355 1.69272 34.1563 1.56772 34.1563ZM93.8125 40.2188C93.3281 40.2188 92.9323 39.8438 92.9011 39.3542C92.7865 37.3073 92.5833 35.2917 92.2969 33.3594C92.224 32.8594 92.5729 32.3959 93.0677 32.323C93.5625 32.2448 94.0365 32.5938 94.1094 33.0938C94.4011 35.0782 94.6094 37.1459 94.724 39.25C94.7552 39.7553 94.3698 40.1875 93.8698 40.2188C93.849 40.2188 93.8333 40.2188 93.8125 40.2188ZM93.5573 52.4167C93.5261 52.4167 93.4948 52.4115 93.4688 52.4115C92.9636 52.3646 92.599 51.9167 92.6458 51.4115C92.8386 49.3959 92.9583 47.3698 93 45.3907C93.0156 44.8803 93.4219 44.5105 93.9323 44.4896C94.4375 44.5053 94.8386 44.9219 94.8281 45.4271C94.7813 47.4532 94.6615 49.5261 94.4636 51.5886C94.4167 52.0626 94.0208 52.4167 93.5573 52.4167ZM91.5104 64.4376C91.4323 64.4376 91.3594 64.4323 91.2865 64.4115C90.7969 64.2865 90.4948 63.7917 90.6198 63.3021C91.099 61.3959 91.5104 59.4063 91.8542 57.3959C91.9375 56.8959 92.4167 56.5626 92.9063 56.6459C93.4063 56.7344 93.7396 57.2032 93.6563 57.7032C93.3073 59.7605 92.8802 61.7969 92.3906 63.7448C92.2917 64.1615 91.9167 64.4376 91.5104 64.4376ZM87.4115 75.9115C87.2708 75.9115 87.1354 75.8855 87 75.8178C86.5521 75.5938 86.3646 75.0417 86.5938 74.5886C87.4167 72.9323 88.1927 71.0782 88.9011 69.0678C89.0677 68.5938 89.5886 68.3438 90.0677 68.5105C90.5417 68.6771 90.7969 69.198 90.6302 69.6771C89.8958 71.7553 89.0886 73.6823 88.2292 75.4115C88.0677 75.7292 87.7448 75.9115 87.4115 75.9115Z" fill="#EFEFEF"/>
</svg>
