<svg width="14" height="21" viewBox="0 0 14 21" fill="none" xmlns="http://www.w3.org/2000/svg">
<path d="M7.7343 20.1667C7.41659 20.1667 7.1093 20.0105 6.94263 19.7136L1.15617 9.80213C0.822839 9.22922 0.729089 8.56255 0.900964 7.91672C1.07284 7.26047 1.49992 6.70318 2.08846 6.35422L11.9114 0.604216C12.3489 0.349008 12.9062 0.494841 13.1614 0.932341C13.4166 1.36984 13.2708 1.93234 12.8333 2.18755L3.01555 7.93755C2.83846 8.03651 2.71867 8.19797 2.6718 8.38026C2.62492 8.55734 2.64576 8.72922 2.7343 8.87505L8.52076 18.7917C8.77076 19.2292 8.63013 19.7865 8.19263 20.0469C8.0468 20.1303 7.89055 20.1667 7.7343 20.1667Z" fill="#2E2020"/>
</svg>
