<svg width="36" height="81" viewBox="0 0 36 81" fill="none" xmlns="http://www.w3.org/2000/svg">
<path d="M14.1041 2.89579C13.0937 6.4635 10.2187 20.026 7.64579 32.1354C6.09892 39.4322 4.53121 46.7864 3.24996 52.5937C2.12496 57.7031 1.72392 62.0208 3.17183 67.7187C3.70829 69.7968 4.68225 71.9218 5.63017 73.9687L6.23954 75.302C6.98954 76.9687 8.09371 77.9635 9.53121 78.2708C12.1145 78.8333 15.2083 77.125 17.0625 75.4843C19.625 73.2291 22.4375 69.927 25.0937 66.3229C25.026 66.401 24.9583 66.4843 24.8906 66.5625C24.5468 66.9323 23.9687 66.9635 23.5937 66.625C23.2239 66.2812 23.1927 65.7031 23.5364 65.3333C27.4322 61.026 28.7239 48.0468 29.8541 36.5937C30.0364 34.75 30.2187 32.9218 30.4114 31.151C31.2552 23.2187 32.5104 15.5937 33.3437 10.552C33.625 8.85933 33.875 7.32287 34.0052 6.41662C33.7187 6.44266 33.3958 6.47912 33.0937 6.51037C30.6927 6.78121 26.6718 7.22912 22.7447 6.58329C19.1614 5.98954 15.6979 3.88016 14.1041 2.89579ZM10.5781 80.2135C10.0989 80.2135 9.61975 80.1666 9.14579 80.0625C7.14058 79.6302 5.56246 78.2448 4.57287 76.0573L3.96871 74.7343C2.98954 72.6145 1.97392 70.4114 1.401 68.1666C-0.135459 62.1406 0.317665 57.427 1.4635 52.2031C2.74475 46.3958 4.30725 39.0416 5.85412 31.7552C12.4895 0.515579 12.4895 0.505162 13.7447 0.656204C14.026 0.682246 14.2135 0.807247 14.9322 1.25516C16.3593 2.14579 19.7083 4.22912 23.0416 4.776C26.7135 5.38537 30.5781 4.95308 32.8906 4.69266C34.9062 4.4687 35.7343 4.37496 35.901 5.38537C35.9687 5.80204 35.8385 6.66141 35.1458 10.8489C34.3177 15.875 33.0677 23.4687 32.2239 31.3489C32.0364 33.1145 31.8541 34.9322 31.677 36.776C30.5573 48.0572 29.401 59.6875 25.901 65.2083C29.1979 60.6093 32.1718 55.6458 34 51.7812C34.2187 51.3229 34.7656 51.1302 35.2187 51.3437C35.677 51.5625 35.8698 52.1093 35.651 52.5677C32.1406 59.9739 24.4947 71.375 18.2708 76.8593C16.3229 78.5781 13.4114 80.2135 10.5781 80.2135Z" fill="#2E2020"/>
</svg>
