<svg width="9" height="22" viewBox="0 0 9 22" fill="none" xmlns="http://www.w3.org/2000/svg">
<path d="M2.18237 4.51039C2.19279 5.90102 2.28654 7.3906 2.35946 7.84373C2.80217 9.94269 3.53654 12.0469 4.25529 14.0781C4.35425 14.3646 4.45321 14.6719 4.55737 15C4.71362 15.4635 4.8855 15.9844 5.07821 16.4948C4.75529 13.8021 3.95321 10.9687 3.17717 8.22394C2.86467 7.10935 2.55217 6.00519 2.27612 4.93227C2.25529 4.83852 2.21883 4.69269 2.18237 4.51039ZM7.06779 19.2239L6.81779 20.0989L7.073 19.2239C7.073 19.2239 7.073 19.2239 7.06779 19.2239ZM6.97925 21.0416C6.85425 21.0416 6.71362 21.0208 6.55737 20.9791C4.38029 20.3385 3.51571 17.6927 2.823 15.5625C2.71883 15.2552 2.62508 14.9583 2.53133 14.6875C1.79696 12.6041 1.03654 10.4427 0.562582 8.19269C0.546957 8.13019 -0.270751 1.49998 1.22404 0.473936C1.63029 0.203102 2.12508 0.203103 2.55737 0.484352C3.17716 0.885394 3.49487 1.9479 3.948 4.02602C3.98967 4.21873 4.02092 4.38019 4.04696 4.47914C4.31779 5.53644 4.62508 6.62498 4.93758 7.72394C5.81258 10.8177 6.71362 14.0156 6.97925 17.1094C6.99487 17.3177 7.30737 17.9583 7.47925 18.3021C7.95842 19.276 8.33342 20.0364 7.80737 20.6666C7.698 20.7969 7.43237 21.0416 6.97925 21.0416Z" fill="#2E2020"/>
</svg>
