<svg width="5" height="5" viewBox="0 0 5 5" fill="none" xmlns="http://www.w3.org/2000/svg">
<path d="M2.86973 2.45315C2.71868 2.45315 2.54681 2.5469 2.38014 2.70836C2.36973 2.77086 2.5416 2.88024 2.64577 2.89065C2.95306 2.68753 3.02598 2.52607 3.03118 2.48961C3.02598 2.50524 2.98952 2.46357 2.90618 2.45315C2.89577 2.45315 2.88014 2.45315 2.86973 2.45315ZM2.6666 4.72399C1.98952 4.72399 1.31243 4.3542 0.911393 3.8542C0.317643 3.09899 0.385351 2.11982 1.08848 1.4167C1.80202 0.697947 2.73431 0.447946 3.57285 0.739613C4.28118 0.989613 4.76556 1.58857 4.84889 2.2969C4.88535 2.68753 4.84889 3.68232 3.56243 4.47399C3.28119 4.64586 2.97389 4.72399 2.6666 4.72399Z" fill="#2E2020"/>
</svg>
