<svg width="20" height="37" viewBox="0 0 20 37" fill="none" xmlns="http://www.w3.org/2000/svg">
<path d="M1.5624 7.63028C1.55198 7.63028 1.53636 7.63028 1.52073 7.63028C1.02073 7.60424 0.630109 7.17715 0.650943 6.67195C0.729068 4.8959 0.895734 2.98444 1.14573 0.994862C1.20823 0.494862 1.67698 0.140695 2.16657 0.203195C2.66657 0.265695 3.02073 0.724028 2.95823 1.22403C2.71865 3.16674 2.55719 5.02611 2.47907 6.75528C2.45303 7.24486 2.05198 7.63028 1.5624 7.63028ZM2.64573 19.7397C2.23949 19.7397 1.86969 19.474 1.76032 19.0626C1.25511 17.1615 0.91136 15.0834 0.734276 12.8855C0.692609 12.3855 1.06761 11.9428 1.56761 11.9011C2.07282 11.8647 2.51553 12.2397 2.55719 12.7397C2.72386 14.8282 3.04678 16.7969 3.52594 18.5886C3.65615 19.0782 3.36969 19.5782 2.88011 19.7084C2.80198 19.7292 2.72386 19.7397 2.64573 19.7397ZM8.57282 30.2292C8.34365 30.2292 8.11448 30.1407 7.93219 29.9688C6.42698 28.4792 5.13532 26.7865 4.10407 24.9219C3.85407 24.4792 4.01032 23.9219 4.45303 23.6772C4.89573 23.4324 5.45303 23.5886 5.69782 24.0313C6.65094 25.7449 7.83844 27.2969 9.21865 28.6615C9.57803 29.0157 9.58323 29.599 9.22907 29.9532C9.04678 30.1407 8.8124 30.2292 8.57282 30.2292ZM18.9999 36.3334C18.9062 36.3334 18.8072 36.3178 18.7134 36.2813C16.6301 35.5938 14.6978 34.7397 12.9843 33.7553C12.5416 33.5053 12.3905 32.948 12.6405 32.5053C12.8905 32.0678 13.4478 31.9167 13.8853 32.1667C15.5051 33.0886 17.3176 33.8907 19.2864 34.5469C19.7707 34.7084 20.0312 35.224 19.8697 35.7032C19.7395 36.0886 19.3801 36.3334 18.9999 36.3334Z" fill="#EFEFEF"/>
</svg>
