<svg width="39" height="56" viewBox="0 0 39 56" fill="none" xmlns="http://www.w3.org/2000/svg">
<path fill-rule="evenodd" clip-rule="evenodd" d="M6.32818 42.3124C4.04172 39.0676 0.567765 30.1614 0.369849 22.5572C0.203182 15.776 1.40631 9.85931 3.3386 5.65098C4.34902 3.45307 5.73443 1.54161 6.72402 0.744732C7.63027 0.0103556 8.57818 0.609315 9.89068 2.31765C10.4063 2.98431 11.4323 5.92182 12.2657 8.42182C13.3698 11.7291 14.9271 15.4635 17.0626 17.7291C19.1459 19.9426 21.7969 20.7239 23.7917 21.4374C26.3542 22.3593 30.2292 24.1822 31.9323 26.2916C32.5365 27.0416 32.9115 28.2447 32.7501 29.8333C32.4896 32.4583 31.5261 34.776 32.4167 37.526C33.224 40.0208 34.9324 41.3697 35.7136 42.3437C37.448 44.5051 38.6042 46.4062 38.7553 48.0364C38.9376 50.0312 36.849 50.8281 35.4636 51.9479C33.8855 53.2239 27.8907 56.2343 24.4584 55.7083C23.349 55.5364 22.3126 55.9322 21.2813 55.4322C16.1876 52.9635 10.4063 48.1145 6.32818 42.3124Z" fill="#E8BB81"/>
</svg>
