<svg width="28" height="19" viewBox="0 0 28 19" fill="none" xmlns="http://www.w3.org/2000/svg">
<path d="M13.0936 18.7552C9.30716 18.7552 5.25508 17.2396 2.21341 15.9218C2.0155 15.8333 1.78633 15.7396 1.71341 15.7083C0.395706 15.2083 -0.265753 13.7291 0.234247 12.4062C0.734247 11.0885 2.20821 10.4218 3.52591 10.9271C3.70821 10.9948 3.93216 11.0937 4.23425 11.2239C9.42175 13.4739 13.1509 14.1562 15.3124 13.2656C19.3228 11.6041 22.1301 7.40622 22.4634 2.5781C22.5624 1.16664 23.7811 0.0989293 25.1874 0.197888C26.5936 0.296845 27.6509 1.5156 27.5572 2.92705C27.0936 9.68226 23.0467 15.5989 17.2603 17.9948C15.9582 18.5312 14.5467 18.7552 13.0936 18.7552Z" fill="#E07769"/>
</svg>
