<svg width="11" height="8" viewBox="0 0 11 8" fill="none" xmlns="http://www.w3.org/2000/svg">
<path d="M1.74992 7.86458C1.24471 7.86458 0.833252 7.45833 0.833252 6.95312C0.833252 6.45833 1.21867 6.05729 1.70825 6.03646C1.74992 6.00521 1.83846 5.92188 1.94263 5.75C1.35929 5.04688 1.08846 4.07292 1.09367 3.28125C1.10409 2.27604 1.52596 1.49479 2.24471 1.13021C2.78638 0.859375 3.35929 0.927082 3.78117 1.30729C4.48429 1.95312 4.48429 3.3125 4.27596 4.46875C4.51033 4.13542 4.91138 3.41667 5.23429 2.77083C5.35409 1.93229 5.61971 1.21354 5.62492 1.20312C5.77075 0.875 6.15096 0.578125 6.51034 0.578125C6.95825 0.578125 7.33846 0.859374 7.47909 1.28646C7.52596 1.43229 7.52596 1.61458 7.49992 1.82812C7.82284 1.40104 8.34367 1.03646 9.23429 1.03646C9.7395 1.03646 10.151 1.44792 10.151 1.95312C10.151 2.45833 9.7395 2.86458 9.23429 2.86458C8.94263 2.86458 8.94263 2.86458 8.7395 3.41667C8.52075 4.02083 8.19263 4.93229 7.02596 5.31771C6.63013 5.45313 6.24471 5.41667 5.92179 5.23958C5.63013 5.68229 5.36971 6 5.22909 6.10417C4.58846 6.5625 4.00513 6.66667 3.54679 6.63021C2.927 7.6875 2.177 7.86458 1.74992 7.86458Z" fill="#2E2020"/>
</svg>
