<svg width="62" height="49" viewBox="0 0 62 49" fill="none" xmlns="http://www.w3.org/2000/svg">
<path d="M60.828 48.6302C60.4895 48.6302 60.177 48.4532 60.0103 48.1354C58.1145 44.4479 55.2343 40.9688 52.4478 37.6146C51.5676 36.5573 50.703 35.5104 49.8749 34.474C33.7447 14.1771 18.677 4.2292 1.01031 2.21878C0.505104 2.16149 0.145729 1.70837 0.203021 1.20316C0.255104 0.703157 0.713437 0.333366 1.21344 0.401074C24.7864 3.08337 41.0936 20.4844 51.3072 33.3334C52.1249 34.3594 52.9791 35.3959 53.8541 36.4427C56.703 39.8802 59.6509 43.4323 61.6353 47.2969C61.8697 47.75 61.6874 48.3021 61.2395 48.5313C61.1093 48.599 60.9634 48.6302 60.828 48.6302Z" fill="#2E2020"/>
</svg>
