<svg width="22" height="25" viewBox="0 0 22 25" fill="none" xmlns="http://www.w3.org/2000/svg">
<path d="M2.57292 18.1718C3.75 18.2239 5.84896 18.4531 7.94792 19.3072C9.5 19.9427 11.0208 21.1302 12.0312 21.9166C12.1562 22.0156 12.2969 22.125 12.4219 22.2187C13.5833 20.9635 16.2708 16.3177 18.7552 11.5312L13.8177 14.4635C13.5208 14.6406 13.1563 14.6354 12.8698 14.4531C12.5781 14.276 12.4115 13.9479 12.4323 13.6093L13.0833 4.64058L6.67188 12.276C6.46875 12.5208 6.15625 12.6406 5.83854 12.5937C5.52604 12.5468 5.25521 12.3385 5.13542 12.0468L2.71875 6.38537L2.57292 18.1718ZM12.4792 24.2656C12.0625 24.2656 11.6458 23.9427 10.9062 23.3593C9.97917 22.6354 8.57813 21.5468 7.26042 21.0052C4.51563 19.8854 1.71354 19.9895 1.6875 19.9895C1.41667 20.0052 1.19271 19.9062 1.01042 19.7291C0.833334 19.5572 0.734375 19.3125 0.734375 19.0625L0.947917 2.02079C0.953125 1.5885 1.26042 1.2187 1.68229 1.13537C2.11458 1.05204 2.53125 1.276 2.70312 1.67183L6.22917 9.95829L13.5 1.30204C13.75 0.994746 14.1771 0.895787 14.5417 1.04162C14.9115 1.19266 15.1406 1.56245 15.1094 1.95829L14.3854 12L20.5417 8.3437C20.8906 8.14058 21.3281 8.18745 21.6302 8.4635C21.9219 8.73954 22.0052 9.17704 21.8229 9.54162C20.2448 12.7135 14.9219 23.1406 12.9062 24.151C12.75 24.2291 12.6146 24.2656 12.4792 24.2656Z" fill="#2E2020"/>
</svg>
