<svg width="29" height="16" viewBox="0 0 29 16" fill="none" xmlns="http://www.w3.org/2000/svg">
<path d="M3.16662 15.276C2.57288 15.276 1.93746 15.1406 1.28642 14.6875C0.80204 14.3385 0.510374 13.8594 0.458291 13.2969C0.343707 12.1458 1.25517 11.026 2.05725 10.1771C4.64058 7.45311 8.9635 4.98436 11.8906 3.84894C15.2656 2.53644 18.5729 2.33852 22.2291 2.22394L22.6666 2.21873C24.0156 2.18748 26.0468 2.14061 26.6197 1.15102C26.875 0.718731 27.4375 0.56769 27.875 0.81769C28.3125 1.0729 28.4583 1.6354 28.2031 2.0729C27.1145 3.95311 24.4635 4.00519 22.7083 4.04686L22.2812 4.05727C18.6718 4.16665 15.6666 4.34373 12.552 5.55727C9.72392 6.65623 5.66663 9.03123 3.38017 11.4375C2.16142 12.7239 2.27079 13.1146 2.28121 13.125C2.82808 13.5364 3.28121 13.4739 4.09892 13.3281C4.47912 13.2656 4.90621 13.1875 5.36454 13.1823C5.36975 13.1823 5.36975 13.1823 5.37496 13.1823C5.87496 13.1823 6.28121 13.5833 6.29162 14.0833C6.29683 14.5885 5.89058 15.0052 5.39058 15.0104C5.08329 15.0156 4.76037 15.0729 4.41662 15.1354C4.03642 15.2031 3.61454 15.276 3.16662 15.276Z" fill="#2E2020"/>
</svg>
